<?xml version="1.0" encoding="UTF-8" standalone="no"?>
<!DOCTYPE svg PUBLIC "-//W3C//DTD SVG 1.1//EN"
 "http://www.w3.org/Graphics/SVG/1.1/DTD/svg11.dtd">
<!-- Generated by graphviz version 2.43.0 (0)
 -->
<!-- Title: structs Pages: 1 -->
<svg width="1635pt" height="967pt"
 viewBox="0.00 0.00 1635.00 967.00" xmlns="http://www.w3.org/2000/svg" xmlns:xlink="http://www.w3.org/1999/xlink">
<g id="graph0" class="graph" transform="scale(1 1) rotate(0) translate(4 963)">
<title>structs</title>
<polygon fill="white" stroke="transparent" points="-4,4 -4,-963 1631,-963 1631,4 -4,4"/>
<!-- register_template_wfinputnode -->
<g id="node1" class="node">
<title>register_template_wfinputnode</title>
<polygon fill="none" stroke="black" points="0,-843.5 0,-958.5 242,-958.5 242,-843.5 0,-843.5"/>
<text text-anchor="middle" x="17" y="-897.3" font-family="Times,serif" font-size="14.00">IN</text>
<polyline fill="none" stroke="black" points="34,-843.5 34,-958.5 "/>
<text text-anchor="middle" x="78.5" y="-935.8" font-family="Times,serif" font-size="14.00">inputnode</text>
<polyline fill="none" stroke="black" points="34,-920.5 123,-920.5 "/>
<text text-anchor="middle" x="78.5" y="-897.8" font-family="Times,serif" font-size="14.00">utility</text>
<polyline fill="none" stroke="black" points="34,-882.5 123,-882.5 "/>
<text text-anchor="middle" x="78.5" y="-859.3" font-family="Times,serif" font-size="14.00"> </text>
<polyline fill="none" stroke="black" points="123,-843.5 123,-958.5 "/>
<text text-anchor="middle" x="182.5" y="-943.3" font-family="Times,serif" font-size="14.00">OUT</text>
<polyline fill="none" stroke="black" points="123,-935.5 242,-935.5 "/>
<text text-anchor="middle" x="182.5" y="-920.3" font-family="Times,serif" font-size="14.00">lesion_mask</text>
<polyline fill="none" stroke="black" points="123,-912.5 242,-912.5 "/>
<text text-anchor="middle" x="182.5" y="-897.3" font-family="Times,serif" font-size="14.00">moving_image</text>
<polyline fill="none" stroke="black" points="123,-889.5 242,-889.5 "/>
<text text-anchor="middle" x="182.5" y="-874.3" font-family="Times,serif" font-size="14.00">moving_mask</text>
<polyline fill="none" stroke="black" points="123,-866.5 242,-866.5 "/>
<text text-anchor="middle" x="182.5" y="-851.3" font-family="Times,serif" font-size="14.00">template</text>
</g>
<!-- register_template_wfsplit_desc -->
<g id="node2" class="node">
<title>register_template_wfsplit_desc</title>
<polygon fill="none" stroke="black" points="347,-737.5 347,-806.5 593,-806.5 593,-737.5 347,-737.5"/>
<text text-anchor="middle" x="387" y="-785.8" font-family="Times,serif" font-size="14.00">IN</text>
<polyline fill="none" stroke="black" points="347,-772.5 427,-772.5 "/>
<text text-anchor="middle" x="387" y="-751.3" font-family="Times,serif" font-size="14.00">template</text>
<polyline fill="none" stroke="black" points="427,-737.5 427,-806.5 "/>
<text text-anchor="middle" x="482" y="-791.3" font-family="Times,serif" font-size="14.00">split_desc</text>
<polyline fill="none" stroke="black" points="427,-783.5 537,-783.5 "/>
<text text-anchor="middle" x="482" y="-768.3" font-family="Times,serif" font-size="14.00">templateflow</text>
<polyline fill="none" stroke="black" points="427,-760.5 537,-760.5 "/>
<text text-anchor="middle" x="482" y="-745.3" font-family="Times,serif" font-size="14.00"> </text>
<polyline fill="none" stroke="black" points="537,-737.5 537,-806.5 "/>
<text text-anchor="middle" x="565" y="-791.3" font-family="Times,serif" font-size="14.00">OUT</text>
<polyline fill="none" stroke="black" points="537,-783.5 593,-783.5 "/>
<text text-anchor="middle" x="565" y="-768.3" font-family="Times,serif" font-size="14.00">name</text>
<polyline fill="none" stroke="black" points="537,-760.5 593,-760.5 "/>
<text text-anchor="middle" x="565" y="-745.3" font-family="Times,serif" font-size="14.00">spec</text>
</g>
<!-- register_template_wfinputnode&#45;&gt;register_template_wfsplit_desc -->
<g id="edge6" class="edge">
<title>register_template_wfinputnode:e&#45;&gt;register_template_wfsplit_desc:w</title>
<path fill="none" stroke="black" d="M243,-855C288.33,-855 305.1,-842.73 333,-807 344.57,-792.18 331.14,-768.37 336.67,-758.99"/>
<polygon fill="black" stroke="black" points="338.18,-762.15 346,-755 335.43,-755.71 338.18,-762.15"/>
</g>
<!-- register_template_wftrunc_mov -->
<g id="node3" class="node">
<title>register_template_wftrunc_mov</title>
<polygon fill="none" stroke="black" points="41.5,-525.5 41.5,-594.5 290.5,-594.5 290.5,-525.5 41.5,-525.5"/>
<text text-anchor="middle" x="63" y="-573.8" font-family="Times,serif" font-size="14.00">IN</text>
<polyline fill="none" stroke="black" points="41.5,-560.5 84.5,-560.5 "/>
<text text-anchor="middle" x="63" y="-539.3" font-family="Times,serif" font-size="14.00">op1</text>
<polyline fill="none" stroke="black" points="84.5,-525.5 84.5,-594.5 "/>
<text text-anchor="middle" x="130.5" y="-579.3" font-family="Times,serif" font-size="14.00">trunc_mov</text>
<polyline fill="none" stroke="black" points="84.5,-571.5 176.5,-571.5 "/>
<text text-anchor="middle" x="130.5" y="-556.3" font-family="Times,serif" font-size="14.00">ants</text>
<polyline fill="none" stroke="black" points="84.5,-548.5 176.5,-548.5 "/>
<text text-anchor="middle" x="130.5" y="-533.3" font-family="Times,serif" font-size="14.00"> </text>
<polyline fill="none" stroke="black" points="176.5,-525.5 176.5,-594.5 "/>
<text text-anchor="middle" x="233.5" y="-573.8" font-family="Times,serif" font-size="14.00">OUT</text>
<polyline fill="none" stroke="black" points="176.5,-560.5 290.5,-560.5 "/>
<text text-anchor="middle" x="233.5" y="-539.3" font-family="Times,serif" font-size="14.00">output_image</text>
</g>
<!-- register_template_wfinputnode&#45;&gt;register_template_wftrunc_mov -->
<g id="edge4" class="edge">
<title>register_template_wfinputnode:e&#45;&gt;register_template_wftrunc_mov:w</title>
<path fill="none" stroke="black" d="M243,-901C268.78,-901 250.82,-867.23 242,-843 193.46,-709.68 89.67,-728.27 41,-595 34.68,-577.7 23.12,-554.95 30.38,-546.42"/>
<polygon fill="black" stroke="black" points="31.75,-549.65 40,-543 29.41,-543.06 31.75,-549.65"/>
</g>
<!-- register_template_wfregistration -->
<g id="node7" class="node">
<title>register_template_wfregistration</title>
<polygon fill="none" stroke="black" points="357,-304.5 357,-488.5 879,-488.5 879,-304.5 357,-304.5"/>
<text text-anchor="middle" x="454" y="-473.3" font-family="Times,serif" font-size="14.00">IN</text>
<polyline fill="none" stroke="black" points="357,-465.5 551,-465.5 "/>
<text text-anchor="middle" x="454" y="-450.3" font-family="Times,serif" font-size="14.00">lesion_mask</text>
<polyline fill="none" stroke="black" points="357,-442.5 551,-442.5 "/>
<text text-anchor="middle" x="454" y="-427.3" font-family="Times,serif" font-size="14.00">moving_image</text>
<polyline fill="none" stroke="black" points="357,-419.5 551,-419.5 "/>
<text text-anchor="middle" x="454" y="-404.3" font-family="Times,serif" font-size="14.00">moving_mask</text>
<polyline fill="none" stroke="black" points="357,-396.5 551,-396.5 "/>
<text text-anchor="middle" x="454" y="-381.3" font-family="Times,serif" font-size="14.00">reference</text>
<polyline fill="none" stroke="black" points="357,-373.5 551,-373.5 "/>
<text text-anchor="middle" x="454" y="-358.3" font-family="Times,serif" font-size="14.00">template</text>
<polyline fill="none" stroke="black" points="357,-350.5 551,-350.5 "/>
<text text-anchor="middle" x="454" y="-335.3" font-family="Times,serif" font-size="14.00">template_spec</text>
<polyline fill="none" stroke="black" points="357,-327.5 551,-327.5 "/>
<text text-anchor="middle" x="454" y="-312.3" font-family="Times,serif" font-size="14.00">use_histogram_matching</text>
<polyline fill="none" stroke="black" points="551,-304.5 551,-488.5 "/>
<text text-anchor="middle" x="601.5" y="-454.3" font-family="Times,serif" font-size="14.00">registration</text>
<polyline fill="none" stroke="black" points="551,-427.5 652,-427.5 "/>
<text text-anchor="middle" x="601.5" y="-393.3" font-family="Times,serif" font-size="14.00">norm</text>
<polyline fill="none" stroke="black" points="551,-366.5 652,-366.5 "/>
<text text-anchor="middle" x="601.5" y="-331.8" font-family="Times,serif" font-size="14.00"> </text>
<polyline fill="none" stroke="black" points="652,-304.5 652,-488.5 "/>
<text text-anchor="middle" x="765.5" y="-454.3" font-family="Times,serif" font-size="14.00">OUT</text>
<polyline fill="none" stroke="black" points="652,-427.5 879,-427.5 "/>
<text text-anchor="middle" x="765.5" y="-393.3" font-family="Times,serif" font-size="14.00">composite_transform</text>
<polyline fill="none" stroke="black" points="652,-366.5 879,-366.5 "/>
<text text-anchor="middle" x="765.5" y="-331.8" font-family="Times,serif" font-size="14.00">inverse_composite_transform</text>
</g>
<!-- register_template_wfinputnode&#45;&gt;register_template_wfregistration -->
<g id="edge3" class="edge">
<title>register_template_wfinputnode:e&#45;&gt;register_template_wfregistration:w</title>
<path fill="none" stroke="black" d="M243,-924C279,-924 261.66,-873.16 242,-843 220.93,-810.68 194.75,-828.92 163,-807 107.91,-768.97 88.2,-759.69 56,-701 18.05,-631.84 -16.48,-586.44 33,-525 77.1,-470.24 265.34,-455.72 345.83,-454.58"/>
<polygon fill="black" stroke="black" points="346.03,-458.07 356,-454.5 345.97,-451.07 346.03,-458.07"/>
</g>
<!-- register_template_wfinputnode&#45;&gt;register_template_wfregistration -->
<g id="edge5" class="edge">
<title>register_template_wfinputnode:e&#45;&gt;register_template_wfregistration:w</title>
<path fill="none" stroke="black" d="M243,-878C346.75,-878 255.21,-439.16 345.99,-410.02"/>
<polygon fill="black" stroke="black" points="346.64,-413.46 356,-408.5 345.59,-406.54 346.64,-413.46"/>
</g>
<!-- register_template_wftf_select -->
<g id="node4" class="node">
<title>register_template_wftf_select</title>
<polygon fill="none" stroke="black" points="445.5,-631.5 445.5,-700.5 746.5,-700.5 746.5,-631.5 445.5,-631.5"/>
<text text-anchor="middle" x="505" y="-685.3" font-family="Times,serif" font-size="14.00">IN</text>
<polyline fill="none" stroke="black" points="445.5,-677.5 564.5,-677.5 "/>
<text text-anchor="middle" x="505" y="-662.3" font-family="Times,serif" font-size="14.00">template</text>
<polyline fill="none" stroke="black" points="445.5,-654.5 564.5,-654.5 "/>
<text text-anchor="middle" x="505" y="-639.3" font-family="Times,serif" font-size="14.00">template_spec</text>
<polyline fill="none" stroke="black" points="564.5,-631.5 564.5,-700.5 "/>
<text text-anchor="middle" x="619.5" y="-685.3" font-family="Times,serif" font-size="14.00">tf_select</text>
<polyline fill="none" stroke="black" points="564.5,-677.5 674.5,-677.5 "/>
<text text-anchor="middle" x="619.5" y="-662.3" font-family="Times,serif" font-size="14.00">templateflow</text>
<polyline fill="none" stroke="black" points="564.5,-654.5 674.5,-654.5 "/>
<text text-anchor="middle" x="619.5" y="-639.3" font-family="Times,serif" font-size="14.00"> </text>
<polyline fill="none" stroke="black" points="674.5,-631.5 674.5,-700.5 "/>
<text text-anchor="middle" x="710.5" y="-685.3" font-family="Times,serif" font-size="14.00">OUT</text>
<polyline fill="none" stroke="black" points="674.5,-677.5 746.5,-677.5 "/>
<text text-anchor="middle" x="710.5" y="-662.3" font-family="Times,serif" font-size="14.00">t1w_file</text>
<polyline fill="none" stroke="black" points="674.5,-654.5 746.5,-654.5 "/>
<text text-anchor="middle" x="710.5" y="-639.3" font-family="Times,serif" font-size="14.00">t2w_file</text>
</g>
<!-- register_template_wfsplit_desc&#45;&gt;register_template_wftf_select -->
<g id="edge17" class="edge">
<title>register_template_wfsplit_desc:e&#45;&gt;register_template_wftf_select:w</title>
<path fill="none" stroke="black" d="M594,-772C609.56,-772 602.79,-749.1 593,-737 550.41,-684.38 487.59,-753.62 445,-701 438.27,-692.68 432.97,-679.26 435.36,-671.68"/>
<polygon fill="black" stroke="black" points="437.57,-674.42 444,-666 433.72,-668.57 437.57,-674.42"/>
</g>
<!-- register_template_wfsplit_desc&#45;&gt;register_template_wftf_select -->
<g id="edge20" class="edge">
<title>register_template_wfsplit_desc:e&#45;&gt;register_template_wftf_select:w</title>
<path fill="none" stroke="black" d="M594,-749C599.35,-749 596.48,-741.07 593,-737 548.99,-685.56 487.29,-753.86 445,-701 431.54,-684.17 421.87,-654.95 434.12,-645.81"/>
<polygon fill="black" stroke="black" points="435.34,-649.1 444,-643 433.42,-642.37 435.34,-649.1"/>
</g>
<!-- register_template_wffmt_cohort -->
<g id="node5" class="node">
<title>register_template_wffmt_cohort</title>
<polygon fill="none" stroke="black" points="897,-362 897,-431 1151,-431 1151,-362 897,-362"/>
<text text-anchor="middle" x="937" y="-415.8" font-family="Times,serif" font-size="14.00">IN</text>
<polyline fill="none" stroke="black" points="897,-408 977,-408 "/>
<text text-anchor="middle" x="937" y="-392.8" font-family="Times,serif" font-size="14.00">spec</text>
<polyline fill="none" stroke="black" points="897,-385 977,-385 "/>
<text text-anchor="middle" x="937" y="-369.8" font-family="Times,serif" font-size="14.00">template</text>
<polyline fill="none" stroke="black" points="977,-362 977,-431 "/>
<text text-anchor="middle" x="1024" y="-415.8" font-family="Times,serif" font-size="14.00">fmt_cohort</text>
<polyline fill="none" stroke="black" points="977,-408 1071,-408 "/>
<text text-anchor="middle" x="1024" y="-392.8" font-family="Times,serif" font-size="14.00">utility</text>
<polyline fill="none" stroke="black" points="977,-385 1071,-385 "/>
<text text-anchor="middle" x="1024" y="-369.8" font-family="Times,serif" font-size="14.00"> </text>
<polyline fill="none" stroke="black" points="1071,-362 1071,-431 "/>
<text text-anchor="middle" x="1111" y="-415.8" font-family="Times,serif" font-size="14.00">OUT</text>
<polyline fill="none" stroke="black" points="1071,-408 1151,-408 "/>
<text text-anchor="middle" x="1111" y="-392.8" font-family="Times,serif" font-size="14.00">spec</text>
<polyline fill="none" stroke="black" points="1071,-385 1151,-385 "/>
<text text-anchor="middle" x="1111" y="-369.8" font-family="Times,serif" font-size="14.00">template</text>
</g>
<!-- register_template_wfsplit_desc&#45;&gt;register_template_wffmt_cohort -->
<g id="edge15" class="edge">
<title>register_template_wfsplit_desc:e&#45;&gt;register_template_wffmt_cohort:w</title>
<path fill="none" stroke="black" d="M594,-772C661,-772 844.86,-753.08 887,-701 897.29,-688.29 881.66,-434.06 891.58,-382.55"/>
<polygon fill="black" stroke="black" points="894.76,-384.02 896,-373.5 888.47,-380.95 894.76,-384.02"/>
</g>
<!-- register_template_wfsplit_desc&#45;&gt;register_template_wffmt_cohort -->
<g id="edge18" class="edge">
<title>register_template_wfsplit_desc:e&#45;&gt;register_template_wffmt_cohort:w</title>
<path fill="none" stroke="black" d="M594,-749C642.95,-749 772.1,-733.16 809,-701 884.8,-634.93 865.91,-587.1 888,-489 889.81,-480.98 887.26,-427 891.38,-405.41"/>
<polygon fill="black" stroke="black" points="894.5,-406.99 896,-396.5 888.29,-403.76 894.5,-406.99"/>
</g>
<!-- register_template_wfsplit_desc&#45;&gt;register_template_wfregistration -->
<g id="edge16" class="edge">
<title>register_template_wfsplit_desc:e&#45;&gt;register_template_wfregistration:w</title>
<path fill="none" stroke="black" d="M594,-772C609.56,-772 602.86,-749.04 593,-737 547.91,-681.95 494.02,-743.57 437,-701 377.88,-656.87 287.77,-389.54 345.86,-363.53"/>
<polygon fill="black" stroke="black" points="346.88,-366.9 356,-361.5 345.51,-360.03 346.88,-366.9"/>
</g>
<!-- register_template_wfsplit_desc&#45;&gt;register_template_wfregistration -->
<g id="edge19" class="edge">
<title>register_template_wfsplit_desc:e&#45;&gt;register_template_wfregistration:w</title>
<path fill="none" stroke="black" d="M594,-749C734.17,-749 911.16,-627.91 816,-525 746.54,-449.88 426.71,-563.89 357,-489 313.92,-442.72 291.62,-349.45 345.82,-339.39"/>
<polygon fill="black" stroke="black" points="346.34,-342.85 356,-338.5 345.73,-335.88 346.34,-342.85"/>
</g>
<!-- register_template_wftrunc_mov&#45;&gt;register_template_wfregistration -->
<g id="edge23" class="edge">
<title>register_template_wftrunc_mov:e&#45;&gt;register_template_wfregistration:w</title>
<path fill="none" stroke="black" d="M292,-543C297.97,-543 333.69,-465.08 349.42,-439.52"/>
<polygon fill="black" stroke="black" points="352.36,-441.45 356,-431.5 346.95,-437.01 352.36,-441.45"/>
</g>
<!-- register_template_wfset_reference -->
<g id="node6" class="node">
<title>register_template_wfset_reference</title>
<polygon fill="none" stroke="black" points="385.5,-525.5 385.5,-594.5 806.5,-594.5 806.5,-525.5 385.5,-525.5"/>
<text text-anchor="middle" x="442.5" y="-579.3" font-family="Times,serif" font-size="14.00">IN</text>
<polyline fill="none" stroke="black" points="385.5,-571.5 499.5,-571.5 "/>
<text text-anchor="middle" x="442.5" y="-556.3" font-family="Times,serif" font-size="14.00">template_t1w</text>
<polyline fill="none" stroke="black" points="385.5,-548.5 499.5,-548.5 "/>
<text text-anchor="middle" x="442.5" y="-533.3" font-family="Times,serif" font-size="14.00">template_t2w</text>
<polyline fill="none" stroke="black" points="499.5,-525.5 499.5,-594.5 "/>
<text text-anchor="middle" x="556" y="-579.3" font-family="Times,serif" font-size="14.00">set_reference</text>
<polyline fill="none" stroke="black" points="499.5,-571.5 612.5,-571.5 "/>
<text text-anchor="middle" x="556" y="-556.3" font-family="Times,serif" font-size="14.00">utility</text>
<polyline fill="none" stroke="black" points="499.5,-548.5 612.5,-548.5 "/>
<text text-anchor="middle" x="556" y="-533.3" font-family="Times,serif" font-size="14.00"> </text>
<polyline fill="none" stroke="black" points="612.5,-525.5 612.5,-594.5 "/>
<text text-anchor="middle" x="709.5" y="-579.3" font-family="Times,serif" font-size="14.00">OUT</text>
<polyline fill="none" stroke="black" points="612.5,-571.5 806.5,-571.5 "/>
<text text-anchor="middle" x="709.5" y="-556.3" font-family="Times,serif" font-size="14.00">reference_type</text>
<polyline fill="none" stroke="black" points="612.5,-548.5 806.5,-548.5 "/>
<text text-anchor="middle" x="709.5" y="-533.3" font-family="Times,serif" font-size="14.00">use_histogram_matching</text>
</g>
<!-- register_template_wftf_select&#45;&gt;register_template_wfset_reference -->
<g id="edge21" class="edge">
<title>register_template_wftf_select:e&#45;&gt;register_template_wfset_reference:w</title>
<path fill="none" stroke="black" d="M748,-666C763.56,-666 757.61,-642.39 747,-631 691.89,-571.86 440.11,-654.14 385,-595 377.54,-586.99 372.38,-572.94 375.39,-565.31"/>
<polygon fill="black" stroke="black" points="377.32,-568.23 384,-560 373.65,-562.27 377.32,-568.23"/>
</g>
<!-- register_template_wftf_select&#45;&gt;register_template_wfset_reference -->
<g id="edge22" class="edge">
<title>register_template_wftf_select:e&#45;&gt;register_template_wfset_reference:w</title>
<path fill="none" stroke="black" d="M748,-643C753.35,-643 750.75,-634.81 747,-631 690.3,-573.38 439.78,-654.46 385,-595 378.45,-587.89 373.91,-558.82 377.49,-544.73"/>
<polygon fill="black" stroke="black" points="380.23,-546.9 384,-537 374.88,-542.39 380.23,-546.9"/>
</g>
<!-- register_template_wfpoutputnode -->
<g id="node8" class="node">
<title>register_template_wfpoutputnode</title>
<polygon fill="none" stroke="black" points="1015.5,-152.5 1015.5,-267.5 1360.5,-267.5 1360.5,-152.5 1015.5,-152.5"/>
<text text-anchor="middle" x="1075" y="-252.3" font-family="Times,serif" font-size="14.00">IN</text>
<polyline fill="none" stroke="black" points="1015.5,-244.5 1134.5,-244.5 "/>
<text text-anchor="middle" x="1075" y="-229.3" font-family="Times,serif" font-size="14.00">anat2std_xfm</text>
<polyline fill="none" stroke="black" points="1015.5,-221.5 1134.5,-221.5 "/>
<text text-anchor="middle" x="1075" y="-206.3" font-family="Times,serif" font-size="14.00">std2anat_xfm</text>
<polyline fill="none" stroke="black" points="1015.5,-198.5 1134.5,-198.5 "/>
<text text-anchor="middle" x="1075" y="-183.3" font-family="Times,serif" font-size="14.00">template</text>
<polyline fill="none" stroke="black" points="1015.5,-175.5 1134.5,-175.5 "/>
<text text-anchor="middle" x="1075" y="-160.3" font-family="Times,serif" font-size="14.00">template_spec</text>
<polyline fill="none" stroke="black" points="1134.5,-152.5 1134.5,-267.5 "/>
<text text-anchor="middle" x="1188" y="-244.8" font-family="Times,serif" font-size="14.00">poutputnode</text>
<polyline fill="none" stroke="black" points="1134.5,-229.5 1241.5,-229.5 "/>
<text text-anchor="middle" x="1188" y="-206.8" font-family="Times,serif" font-size="14.00">utility</text>
<polyline fill="none" stroke="black" points="1134.5,-191.5 1241.5,-191.5 "/>
<text text-anchor="middle" x="1188" y="-168.3" font-family="Times,serif" font-size="14.00"> </text>
<polyline fill="none" stroke="black" points="1241.5,-152.5 1241.5,-267.5 "/>
<text text-anchor="middle" x="1301" y="-252.3" font-family="Times,serif" font-size="14.00">OUT</text>
<polyline fill="none" stroke="black" points="1241.5,-244.5 1360.5,-244.5 "/>
<text text-anchor="middle" x="1301" y="-229.3" font-family="Times,serif" font-size="14.00">anat2std_xfm</text>
<polyline fill="none" stroke="black" points="1241.5,-221.5 1360.5,-221.5 "/>
<text text-anchor="middle" x="1301" y="-206.3" font-family="Times,serif" font-size="14.00">std2anat_xfm</text>
<polyline fill="none" stroke="black" points="1241.5,-198.5 1360.5,-198.5 "/>
<text text-anchor="middle" x="1301" y="-183.3" font-family="Times,serif" font-size="14.00">template</text>
<polyline fill="none" stroke="black" points="1241.5,-175.5 1360.5,-175.5 "/>
<text text-anchor="middle" x="1301" y="-160.3" font-family="Times,serif" font-size="14.00">template_spec</text>
</g>
<!-- register_template_wffmt_cohort&#45;&gt;register_template_wfpoutputnode -->
<g id="edge1" class="edge">
<title>register_template_wffmt_cohort:e&#45;&gt;register_template_wfpoutputnode:w</title>
<path fill="none" stroke="black" d="M1152,-396.5C1167.56,-396.5 1158.44,-375.17 1151,-361.5 1115.93,-297.08 1049.46,-332.75 1015,-268 995.07,-230.54 971.94,-174.22 1004.03,-165.23"/>
<polygon fill="black" stroke="black" points="1004.5,-168.7 1014,-164 1003.65,-161.75 1004.5,-168.7"/>
</g>
<!-- register_template_wffmt_cohort&#45;&gt;register_template_wfpoutputnode -->
<g id="edge2" class="edge">
<title>register_template_wffmt_cohort:e&#45;&gt;register_template_wfpoutputnode:w</title>
<path fill="none" stroke="black" d="M1152,-373.5C1157.35,-373.5 1153.69,-366.13 1151,-361.5 1114.18,-298.06 1049.55,-332.71 1015,-268 999.9,-239.71 982.35,-197.56 1004.12,-188.68"/>
<polygon fill="black" stroke="black" points="1004.73,-192.13 1014,-187 1003.55,-185.23 1004.73,-192.13"/>
</g>
<!-- register_template_wfset_reference&#45;&gt;register_template_wfregistration -->
<g id="edge13" class="edge">
<title>register_template_wfset_reference:e&#45;&gt;register_template_wfregistration:w</title>
<path fill="none" stroke="black" d="M808,-560C823.56,-560 817.72,-536.28 807,-525 737.9,-452.27 425.4,-562.38 357,-489 327.93,-457.81 312.25,-395.82 345.8,-385.86"/>
<polygon fill="black" stroke="black" points="346.55,-389.3 356,-384.5 345.62,-382.36 346.55,-389.3"/>
</g>
<!-- register_template_wfset_reference&#45;&gt;register_template_wfregistration -->
<g id="edge14" class="edge">
<title>register_template_wfset_reference:e&#45;&gt;register_template_wfregistration:w</title>
<path fill="none" stroke="black" d="M808,-537C813.35,-537 810.79,-528.78 807,-525 735.95,-454.18 425.26,-562.51 357,-489 306.99,-435.14 281.35,-326.34 345.83,-316.25"/>
<polygon fill="black" stroke="black" points="346.29,-319.73 356,-315.5 345.77,-312.75 346.29,-319.73"/>
</g>
<!-- register_template_wfregistration&#45;&gt;register_template_wfpoutputnode -->
<g id="edge11" class="edge">
<title>register_template_wfregistration:e&#45;&gt;register_template_wfpoutputnode:w</title>
<path fill="none" stroke="black" d="M880,-397.5C890.43,-397.5 882.36,-312.77 888,-304 920.87,-252.89 946.75,-234.96 1003.78,-233.16"/>
<polygon fill="black" stroke="black" points="1004.05,-236.65 1014,-233 1003.95,-229.65 1004.05,-236.65"/>
</g>
<!-- register_template_wfregistration&#45;&gt;register_template_wfpoutputnode -->
<g id="edge12" class="edge">
<title>register_template_wfregistration:e&#45;&gt;register_template_wfpoutputnode:w</title>
<path fill="none" stroke="black" d="M880,-335.5C894.44,-335.5 879.97,-316.01 888,-304 924.86,-248.87 942.32,-213.7 1003.75,-210.28"/>
<polygon fill="black" stroke="black" points="1004.1,-213.77 1014,-210 1003.91,-206.77 1004.1,-213.77"/>
</g>
<!-- register_template_wfoutputnode -->
<g id="node9" class="node">
<title>register_template_wfoutputnode</title>
<polygon fill="none" stroke="black" points="1361,-0.5 1361,-115.5 1627,-115.5 1627,-0.5 1361,-0.5"/>
<text text-anchor="middle" x="1420.5" y="-100.3" font-family="Times,serif" font-size="14.00">IN</text>
<polyline fill="none" stroke="black" points="1361,-92.5 1480,-92.5 "/>
<text text-anchor="middle" x="1420.5" y="-77.3" font-family="Times,serif" font-size="14.00">anat2std_xfm</text>
<polyline fill="none" stroke="black" points="1361,-69.5 1480,-69.5 "/>
<text text-anchor="middle" x="1420.5" y="-54.3" font-family="Times,serif" font-size="14.00">std2anat_xfm</text>
<polyline fill="none" stroke="black" points="1361,-46.5 1480,-46.5 "/>
<text text-anchor="middle" x="1420.5" y="-31.3" font-family="Times,serif" font-size="14.00">template</text>
<polyline fill="none" stroke="black" points="1361,-23.5 1480,-23.5 "/>
<text text-anchor="middle" x="1420.5" y="-8.3" font-family="Times,serif" font-size="14.00">template_spec</text>
<polyline fill="none" stroke="black" points="1480,-0.5 1480,-115.5 "/>
<text text-anchor="middle" x="1529" y="-92.8" font-family="Times,serif" font-size="14.00">outputnode</text>
<polyline fill="none" stroke="black" points="1480,-77.5 1578,-77.5 "/>
<text text-anchor="middle" x="1529" y="-54.8" font-family="Times,serif" font-size="14.00">utility</text>
<polyline fill="none" stroke="black" points="1480,-39.5 1578,-39.5 "/>
<text text-anchor="middle" x="1529" y="-16.3" font-family="Times,serif" font-size="14.00"> </text>
<polyline fill="none" stroke="black" points="1578,-0.5 1578,-115.5 "/>
<text text-anchor="middle" x="1602.5" y="-54.3" font-family="Times,serif" font-size="14.00">OUT</text>
</g>
<!-- register_template_wfpoutputnode&#45;&gt;register_template_wfoutputnode -->
<g id="edge7" class="edge">
<title>register_template_wfpoutputnode:e&#45;&gt;register_template_wfoutputnode:w</title>
<path fill="none" stroke="black" d="M1362,-233C1398,-233 1361.48,-188 1361,-152 1360.64,-124.88 1336.85,-91.94 1350.2,-83.21"/>
<polygon fill="black" stroke="black" points="1351.01,-86.61 1360,-81 1349.48,-79.78 1351.01,-86.61"/>
</g>
<!-- register_template_wfpoutputnode&#45;&gt;register_template_wfoutputnode -->
<g id="edge8" class="edge">
<title>register_template_wfpoutputnode:e&#45;&gt;register_template_wfoutputnode:w</title>
<path fill="none" stroke="black" d="M1362,-210C1425.47,-210 1308.29,-75.85 1349.89,-59.6"/>
<polygon fill="black" stroke="black" points="1350.67,-63.02 1360,-58 1349.58,-56.11 1350.67,-63.02"/>
</g>
<!-- register_template_wfpoutputnode&#45;&gt;register_template_wfoutputnode -->
<g id="edge9" class="edge">
<title>register_template_wfpoutputnode:e&#45;&gt;register_template_wfoutputnode:w</title>
<path fill="none" stroke="black" d="M1362,-187C1393.56,-187 1361.42,-147.56 1361,-116 1360.58,-84.22 1332.06,-45.42 1350.16,-36.77"/>
<polygon fill="black" stroke="black" points="1350.78,-40.21 1360,-35 1349.54,-33.32 1350.78,-40.21"/>
</g>
<!-- register_template_wfpoutputnode&#45;&gt;register_template_wfoutputnode -->
<g id="edge10" class="edge">
<title>register_template_wfpoutputnode:e&#45;&gt;register_template_wfoutputnode:w</title>
<path fill="none" stroke="black" d="M1362,-164C1383.34,-164 1361.32,-137.34 1361,-116 1360.36,-73.75 1321.43,-21.85 1350.05,-13.24"/>
<polygon fill="black" stroke="black" points="1350.51,-16.71 1360,-12 1349.64,-9.76 1350.51,-16.71"/>
</g>
</g>
</svg>
