<?xml version="1.0" encoding="UTF-8" standalone="no"?>
<!DOCTYPE svg PUBLIC "-//W3C//DTD SVG 1.1//EN"
 "http://www.w3.org/Graphics/SVG/1.1/DTD/svg11.dtd">
<!-- Generated by graphviz version 2.43.0 (0)
 -->
<!-- Title: structs Pages: 1 -->
<svg width="2071pt" height="1109pt"
 viewBox="0.00 0.00 2071.31 1109.00" xmlns="http://www.w3.org/2000/svg" xmlns:xlink="http://www.w3.org/1999/xlink">
<g id="graph0" class="graph" transform="scale(1 1) rotate(0) translate(4 1105)">
<title>structs</title>
<polygon fill="white" stroke="transparent" points="-4,4 -4,-1105 2067.31,-1105 2067.31,4 -4,4"/>
<!-- anat_preproc_wfinputnode -->
<g id="node1" class="node">
<title>anat_preproc_wfinputnode</title>
<polygon fill="none" stroke="black" points="720.31,-939.5 720.31,-1100.5 946.31,-1100.5 946.31,-939.5 720.31,-939.5"/>
<text text-anchor="middle" x="737.31" y="-1016.3" font-family="Times,serif" font-size="14.00">IN</text>
<polyline fill="none" stroke="black" points="754.31,-939.5 754.31,-1100.5 "/>
<text text-anchor="middle" x="798.81" y="-1070.3" font-family="Times,serif" font-size="14.00">inputnode</text>
<polyline fill="none" stroke="black" points="754.31,-1047.5 843.31,-1047.5 "/>
<text text-anchor="middle" x="798.81" y="-1016.8" font-family="Times,serif" font-size="14.00">utility</text>
<polyline fill="none" stroke="black" points="754.31,-993.5 843.31,-993.5 "/>
<text text-anchor="middle" x="798.81" y="-962.8" font-family="Times,serif" font-size="14.00"> </text>
<polyline fill="none" stroke="black" points="843.31,-939.5 843.31,-1100.5 "/>
<text text-anchor="middle" x="894.81" y="-1085.3" font-family="Times,serif" font-size="14.00">OUT</text>
<polyline fill="none" stroke="black" points="843.31,-1077.5 946.31,-1077.5 "/>
<text text-anchor="middle" x="894.81" y="-1062.3" font-family="Times,serif" font-size="14.00">flair</text>
<polyline fill="none" stroke="black" points="843.31,-1054.5 946.31,-1054.5 "/>
<text text-anchor="middle" x="894.81" y="-1039.3" font-family="Times,serif" font-size="14.00">roi</text>
<polyline fill="none" stroke="black" points="843.31,-1031.5 946.31,-1031.5 "/>
<text text-anchor="middle" x="894.81" y="-1016.3" font-family="Times,serif" font-size="14.00">subject_id</text>
<polyline fill="none" stroke="black" points="843.31,-1008.5 946.31,-1008.5 "/>
<text text-anchor="middle" x="894.81" y="-993.3" font-family="Times,serif" font-size="14.00">subjects_dir</text>
<polyline fill="none" stroke="black" points="843.31,-985.5 946.31,-985.5 "/>
<text text-anchor="middle" x="894.81" y="-970.3" font-family="Times,serif" font-size="14.00">t1w</text>
<polyline fill="none" stroke="black" points="843.31,-962.5 946.31,-962.5 "/>
<text text-anchor="middle" x="894.81" y="-947.3" font-family="Times,serif" font-size="14.00">t2w</text>
</g>
<!-- anat_preproc_wfanat_fit_wf -->
<g id="node2" class="node">
<title>anat_preproc_wfanat_fit_wf</title>
<polygon fill="none" stroke="black" points="946.81,-557.5 946.81,-902.5 1449.81,-902.5 1449.81,-557.5 946.81,-557.5"/>
<text text-anchor="middle" x="1036.31" y="-874.3" font-family="Times,serif" font-size="14.00">IN</text>
<polyline fill="none" stroke="black" points="946.81,-853.5 1125.81,-853.5 "/>
<text text-anchor="middle" x="1036.31" y="-825.3" font-family="Times,serif" font-size="14.00">inputnode.flair</text>
<polyline fill="none" stroke="black" points="946.81,-804.5 1125.81,-804.5 "/>
<text text-anchor="middle" x="1036.31" y="-776.3" font-family="Times,serif" font-size="14.00">inputnode.roi</text>
<polyline fill="none" stroke="black" points="946.81,-755.5 1125.81,-755.5 "/>
<text text-anchor="middle" x="1036.31" y="-726.8" font-family="Times,serif" font-size="14.00">inputnode.subject_id</text>
<polyline fill="none" stroke="black" points="946.81,-705.5 1125.81,-705.5 "/>
<text text-anchor="middle" x="1036.31" y="-677.3" font-family="Times,serif" font-size="14.00">inputnode.subjects_dir</text>
<polyline fill="none" stroke="black" points="946.81,-656.5 1125.81,-656.5 "/>
<text text-anchor="middle" x="1036.31" y="-628.3" font-family="Times,serif" font-size="14.00">inputnode.t1w</text>
<polyline fill="none" stroke="black" points="946.81,-607.5 1125.81,-607.5 "/>
<text text-anchor="middle" x="1036.31" y="-578.8" font-family="Times,serif" font-size="14.00">inputnode.t2w</text>
<polyline fill="none" stroke="black" points="1125.81,-557.5 1125.81,-902.5 "/>
<text text-anchor="middle" x="1172.81" y="-841.3" font-family="Times,serif" font-size="14.00">anat_fit_wf</text>
<polyline fill="none" stroke="black" points="1125.81,-787.5 1219.81,-787.5 "/>
<text text-anchor="middle" x="1172.81" y="-726.3" font-family="Times,serif" font-size="14.00"> </text>
<polyline fill="none" stroke="black" points="1125.81,-672.5 1219.81,-672.5 "/>
<text text-anchor="middle" x="1172.81" y="-611.3" font-family="Times,serif" font-size="14.00"> </text>
<polyline fill="none" stroke="black" points="1219.81,-557.5 1219.81,-902.5 "/>
<text text-anchor="middle" x="1334.81" y="-887.3" font-family="Times,serif" font-size="14.00">OUT</text>
<polyline fill="none" stroke="black" points="1219.81,-879.5 1449.81,-879.5 "/>
<text text-anchor="middle" x="1334.81" y="-864.3" font-family="Times,serif" font-size="14.00">outputnode.anat2std_xfm</text>
<polyline fill="none" stroke="black" points="1219.81,-856.5 1449.81,-856.5 "/>
<text text-anchor="middle" x="1334.81" y="-841.3" font-family="Times,serif" font-size="14.00">outputnode.anat_ribbon</text>
<polyline fill="none" stroke="black" points="1219.81,-833.5 1449.81,-833.5 "/>
<text text-anchor="middle" x="1334.81" y="-818.3" font-family="Times,serif" font-size="14.00">outputnode.fsnative2t1w_xfm</text>
<polyline fill="none" stroke="black" points="1219.81,-810.5 1449.81,-810.5 "/>
<text text-anchor="middle" x="1334.81" y="-795.3" font-family="Times,serif" font-size="14.00">outputnode.sphere_reg</text>
<polyline fill="none" stroke="black" points="1219.81,-787.5 1449.81,-787.5 "/>
<text text-anchor="middle" x="1334.81" y="-772.3" font-family="Times,serif" font-size="14.00">outputnode.sphere_reg_fsLR</text>
<polyline fill="none" stroke="black" points="1219.81,-764.5 1449.81,-764.5 "/>
<text text-anchor="middle" x="1334.81" y="-749.3" font-family="Times,serif" font-size="14.00">outputnode.std2anat_xfm</text>
<polyline fill="none" stroke="black" points="1219.81,-741.5 1449.81,-741.5 "/>
<text text-anchor="middle" x="1334.81" y="-726.3" font-family="Times,serif" font-size="14.00">outputnode.subject_id</text>
<polyline fill="none" stroke="black" points="1219.81,-718.5 1449.81,-718.5 "/>
<text text-anchor="middle" x="1334.81" y="-703.3" font-family="Times,serif" font-size="14.00">outputnode.subjects_dir</text>
<polyline fill="none" stroke="black" points="1219.81,-695.5 1449.81,-695.5 "/>
<text text-anchor="middle" x="1334.81" y="-680.3" font-family="Times,serif" font-size="14.00">outputnode.t1w_dseg</text>
<polyline fill="none" stroke="black" points="1219.81,-672.5 1449.81,-672.5 "/>
<text text-anchor="middle" x="1334.81" y="-657.3" font-family="Times,serif" font-size="14.00">outputnode.t1w_mask</text>
<polyline fill="none" stroke="black" points="1219.81,-649.5 1449.81,-649.5 "/>
<text text-anchor="middle" x="1334.81" y="-634.3" font-family="Times,serif" font-size="14.00">outputnode.t1w_preproc</text>
<polyline fill="none" stroke="black" points="1219.81,-626.5 1449.81,-626.5 "/>
<text text-anchor="middle" x="1334.81" y="-611.3" font-family="Times,serif" font-size="14.00">outputnode.t1w_tpms</text>
<polyline fill="none" stroke="black" points="1219.81,-603.5 1449.81,-603.5 "/>
<text text-anchor="middle" x="1334.81" y="-588.3" font-family="Times,serif" font-size="14.00">outputnode.t1w_valid_list</text>
<polyline fill="none" stroke="black" points="1219.81,-580.5 1449.81,-580.5 "/>
<text text-anchor="middle" x="1334.81" y="-565.3" font-family="Times,serif" font-size="14.00">outputnode.template</text>
</g>
<!-- anat_preproc_wfinputnode&#45;&gt;anat_preproc_wfanat_fit_wf -->
<g id="edge28" class="edge">
<title>anat_preproc_wfinputnode:e&#45;&gt;anat_preproc_wfanat_fit_wf:w</title>
<path fill="none" stroke="black" d="M947.31,-1066C1003.76,-1066 946.79,-995.44 946.31,-939 945.93,-894.12 904.21,-838.94 935.18,-830.19"/>
<polygon fill="black" stroke="black" points="935.79,-833.65 945.31,-829 934.97,-826.69 935.79,-833.65"/>
</g>
<!-- anat_preproc_wfinputnode&#45;&gt;anat_preproc_wfanat_fit_wf -->
<g id="edge29" class="edge">
<title>anat_preproc_wfinputnode:e&#45;&gt;anat_preproc_wfanat_fit_wf:w</title>
<path fill="none" stroke="black" d="M947.31,-1043C1060.44,-1043 843.25,-796.68 935.09,-780.8"/>
<polygon fill="black" stroke="black" points="935.62,-784.27 945.31,-780 935.07,-777.29 935.62,-784.27"/>
</g>
<!-- anat_preproc_wfinputnode&#45;&gt;anat_preproc_wfanat_fit_wf -->
<g id="edge30" class="edge">
<title>anat_preproc_wfinputnode:e&#45;&gt;anat_preproc_wfanat_fit_wf:w</title>
<path fill="none" stroke="black" d="M947.31,-1020C999.31,-1020 946.68,-955 946.31,-903 945.79,-830.29 876.19,-740.29 935.18,-731.67"/>
<polygon fill="black" stroke="black" points="935.56,-735.15 945.31,-731 935.1,-728.17 935.56,-735.15"/>
</g>
<!-- anat_preproc_wfinputnode&#45;&gt;anat_preproc_wfanat_fit_wf -->
<g id="edge31" class="edge">
<title>anat_preproc_wfinputnode:e&#45;&gt;anat_preproc_wfanat_fit_wf:w</title>
<path fill="none" stroke="black" d="M947.31,-997C989.09,-997 946.63,-944.78 946.31,-903 945.59,-808 853.85,-690.12 935.13,-681.5"/>
<polygon fill="black" stroke="black" points="935.5,-684.99 945.31,-681 935.15,-678 935.5,-684.99"/>
</g>
<!-- anat_preproc_wfinputnode&#45;&gt;anat_preproc_wfanat_fit_wf -->
<g id="edge32" class="edge">
<title>anat_preproc_wfinputnode:e&#45;&gt;anat_preproc_wfanat_fit_wf:w</title>
<path fill="none" stroke="black" d="M947.31,-974C978.87,-974 946.59,-934.56 946.31,-903 945.27,-786.21 832.05,-641.09 935.02,-632.41"/>
<polygon fill="black" stroke="black" points="935.46,-635.89 945.31,-632 935.18,-628.9 935.46,-635.89"/>
</g>
<!-- anat_preproc_wfinputnode&#45;&gt;anat_preproc_wfanat_fit_wf -->
<g id="edge33" class="edge">
<title>anat_preproc_wfinputnode:e&#45;&gt;anat_preproc_wfanat_fit_wf:w</title>
<path fill="none" stroke="black" d="M947.31,-951C968.65,-951 946.57,-924.34 946.31,-903 944.65,-763.97 809.76,-591.03 934.99,-582.34"/>
<polygon fill="black" stroke="black" points="935.43,-585.83 945.31,-582 935.2,-578.83 935.43,-585.83"/>
</g>
<!-- anat_preproc_wftemplate_iterator_wf -->
<g id="node3" class="node">
<title>anat_preproc_wftemplate_iterator_wf</title>
<polygon fill="none" stroke="black" points="196.31,-405.5 196.31,-520.5 752.31,-520.5 752.31,-405.5 196.31,-405.5"/>
<text text-anchor="middle" x="291.31" y="-497.8" font-family="Times,serif" font-size="14.00">IN</text>
<polyline fill="none" stroke="black" points="196.31,-482.5 386.31,-482.5 "/>
<text text-anchor="middle" x="291.31" y="-459.8" font-family="Times,serif" font-size="14.00">inputnode.anat2std_xfm</text>
<polyline fill="none" stroke="black" points="196.31,-444.5 386.31,-444.5 "/>
<text text-anchor="middle" x="291.31" y="-421.3" font-family="Times,serif" font-size="14.00">inputnode.template</text>
<polyline fill="none" stroke="black" points="386.31,-405.5 386.31,-520.5 "/>
<text text-anchor="middle" x="469.31" y="-497.8" font-family="Times,serif" font-size="14.00">template_iterator_wf</text>
<polyline fill="none" stroke="black" points="386.31,-482.5 552.31,-482.5 "/>
<text text-anchor="middle" x="469.31" y="-459.8" font-family="Times,serif" font-size="14.00"> </text>
<polyline fill="none" stroke="black" points="386.31,-444.5 552.31,-444.5 "/>
<text text-anchor="middle" x="469.31" y="-421.3" font-family="Times,serif" font-size="14.00"> </text>
<polyline fill="none" stroke="black" points="552.31,-405.5 552.31,-520.5 "/>
<text text-anchor="middle" x="652.31" y="-505.3" font-family="Times,serif" font-size="14.00">OUT</text>
<polyline fill="none" stroke="black" points="552.31,-497.5 752.31,-497.5 "/>
<text text-anchor="middle" x="652.31" y="-482.3" font-family="Times,serif" font-size="14.00">outputnode.anat2std_xfm</text>
<polyline fill="none" stroke="black" points="552.31,-474.5 752.31,-474.5 "/>
<text text-anchor="middle" x="652.31" y="-459.3" font-family="Times,serif" font-size="14.00">outputnode.resolution</text>
<polyline fill="none" stroke="black" points="552.31,-451.5 752.31,-451.5 "/>
<text text-anchor="middle" x="652.31" y="-436.3" font-family="Times,serif" font-size="14.00">outputnode.space</text>
<polyline fill="none" stroke="black" points="552.31,-428.5 752.31,-428.5 "/>
<text text-anchor="middle" x="652.31" y="-413.3" font-family="Times,serif" font-size="14.00">outputnode.std_t1w</text>
</g>
<!-- anat_preproc_wfanat_fit_wf&#45;&gt;anat_preproc_wftemplate_iterator_wf -->
<g id="edge2" class="edge">
<title>anat_preproc_wfanat_fit_wf:e&#45;&gt;anat_preproc_wftemplate_iterator_wf:w</title>
<path fill="none" stroke="black" d="M1451.31,-868C1589.53,-868 1546.8,-655.98 1450.31,-557 1353.01,-457.19 294.32,-620.11 196.31,-521 189.7,-514.31 185.37,-486.15 188.76,-472.08"/>
<polygon fill="black" stroke="black" points="191.73,-473.97 195.31,-464 186.29,-469.56 191.73,-473.97"/>
</g>
<!-- anat_preproc_wfanat_fit_wf&#45;&gt;anat_preproc_wftemplate_iterator_wf -->
<g id="edge27" class="edge">
<title>anat_preproc_wfanat_fit_wf:e&#45;&gt;anat_preproc_wftemplate_iterator_wf:w</title>
<path fill="none" stroke="black" d="M1451.31,-569C1456.66,-569 1454.2,-560.68 1450.31,-557 1349.1,-461.16 293.97,-620.46 196.31,-521 190.33,-514.9 186.45,-457.01 190.61,-434.19"/>
<polygon fill="black" stroke="black" points="193.87,-435.5 195.31,-425 187.64,-432.31 193.87,-435.5"/>
</g>
<!-- anat_preproc_wfsurface_derivatives_wf -->
<g id="node4" class="node">
<title>anat_preproc_wfsurface_derivatives_wf</title>
<polygon fill="none" stroke="black" points="846.31,-405.5 846.31,-520.5 1422.31,-520.5 1422.31,-405.5 846.31,-405.5"/>
<text text-anchor="middle" x="958.31" y="-505.3" font-family="Times,serif" font-size="14.00">IN</text>
<polyline fill="none" stroke="black" points="846.31,-497.5 1070.31,-497.5 "/>
<text text-anchor="middle" x="958.31" y="-482.3" font-family="Times,serif" font-size="14.00">inputnode.fsnative2anat_xfm</text>
<polyline fill="none" stroke="black" points="846.31,-474.5 1070.31,-474.5 "/>
<text text-anchor="middle" x="958.31" y="-459.3" font-family="Times,serif" font-size="14.00">inputnode.reference</text>
<polyline fill="none" stroke="black" points="846.31,-451.5 1070.31,-451.5 "/>
<text text-anchor="middle" x="958.31" y="-436.3" font-family="Times,serif" font-size="14.00">inputnode.subject_id</text>
<polyline fill="none" stroke="black" points="846.31,-428.5 1070.31,-428.5 "/>
<text text-anchor="middle" x="958.31" y="-413.3" font-family="Times,serif" font-size="14.00">inputnode.subjects_dir</text>
<polyline fill="none" stroke="black" points="1070.31,-405.5 1070.31,-520.5 "/>
<text text-anchor="middle" x="1159.81" y="-497.8" font-family="Times,serif" font-size="14.00">surface_derivatives_wf</text>
<polyline fill="none" stroke="black" points="1070.31,-482.5 1249.31,-482.5 "/>
<text text-anchor="middle" x="1159.81" y="-459.8" font-family="Times,serif" font-size="14.00"> </text>
<polyline fill="none" stroke="black" points="1070.31,-444.5 1249.31,-444.5 "/>
<text text-anchor="middle" x="1159.81" y="-421.3" font-family="Times,serif" font-size="14.00"> </text>
<polyline fill="none" stroke="black" points="1249.31,-405.5 1249.31,-520.5 "/>
<text text-anchor="middle" x="1335.81" y="-505.3" font-family="Times,serif" font-size="14.00">OUT</text>
<polyline fill="none" stroke="black" points="1249.31,-497.5 1422.31,-497.5 "/>
<text text-anchor="middle" x="1335.81" y="-482.3" font-family="Times,serif" font-size="14.00">outputnode.curv</text>
<polyline fill="none" stroke="black" points="1249.31,-474.5 1422.31,-474.5 "/>
<text text-anchor="middle" x="1335.81" y="-459.3" font-family="Times,serif" font-size="14.00">outputnode.inflated</text>
<polyline fill="none" stroke="black" points="1249.31,-451.5 1422.31,-451.5 "/>
<text text-anchor="middle" x="1335.81" y="-436.3" font-family="Times,serif" font-size="14.00">outputnode.out_aparc</text>
<polyline fill="none" stroke="black" points="1249.31,-428.5 1422.31,-428.5 "/>
<text text-anchor="middle" x="1335.81" y="-413.3" font-family="Times,serif" font-size="14.00">outputnode.out_aseg</text>
</g>
<!-- anat_preproc_wfanat_fit_wf&#45;&gt;anat_preproc_wfsurface_derivatives_wf -->
<g id="edge5" class="edge">
<title>anat_preproc_wfanat_fit_wf:e&#45;&gt;anat_preproc_wfsurface_derivatives_wf:w</title>
<path fill="none" stroke="black" d="M1451.31,-822C1569.09,-822 1531.24,-642.57 1450.31,-557 1357.92,-459.31 939.91,-617.54 846.31,-521 838.69,-513.14 833.6,-499.03 836.66,-491.35"/>
<polygon fill="black" stroke="black" points="838.64,-494.23 845.31,-486 834.96,-488.28 838.64,-494.23"/>
</g>
<!-- anat_preproc_wfanat_fit_wf&#45;&gt;anat_preproc_wfsurface_derivatives_wf -->
<g id="edge10" class="edge">
<title>anat_preproc_wfanat_fit_wf:e&#45;&gt;anat_preproc_wfsurface_derivatives_wf:w</title>
<path fill="none" stroke="black" d="M1451.31,-730C1528.2,-730 1503.2,-612.81 1450.31,-557 1357.82,-459.4 939.12,-618.29 846.31,-521 836.26,-510.47 830.04,-464.01 837.54,-446.61"/>
<polygon fill="black" stroke="black" points="839.96,-449.15 845.31,-440 835.43,-443.82 839.96,-449.15"/>
</g>
<!-- anat_preproc_wfanat_fit_wf&#45;&gt;anat_preproc_wfsurface_derivatives_wf -->
<g id="edge12" class="edge">
<title>anat_preproc_wfanat_fit_wf:e&#45;&gt;anat_preproc_wfsurface_derivatives_wf:w</title>
<path fill="none" stroke="black" d="M1451.31,-707C1517.98,-707 1496.19,-605.37 1450.31,-557 1357.78,-459.44 938.99,-618.42 846.31,-521 839.84,-514.2 835.6,-449.79 840.43,-425.88"/>
<polygon fill="black" stroke="black" points="843.56,-427.45 845.31,-417 837.43,-424.08 843.56,-427.45"/>
</g>
<!-- anat_preproc_wfanat_fit_wf&#45;&gt;anat_preproc_wfsurface_derivatives_wf -->
<g id="edge19" class="edge">
<title>anat_preproc_wfanat_fit_wf:e&#45;&gt;anat_preproc_wfsurface_derivatives_wf:w</title>
<path fill="none" stroke="black" d="M1451.31,-638C1487.31,-638 1475.16,-583.05 1450.31,-557 1357.5,-459.71 939.36,-618.07 846.31,-521 839.62,-514.02 835.15,-484.89 838.77,-470.75"/>
<polygon fill="black" stroke="black" points="841.54,-472.9 845.31,-463 836.19,-468.39 841.54,-472.9"/>
</g>
<!-- anat_preproc_wfds_anat_volumes_wf -->
<g id="node5" class="node">
<title>anat_preproc_wfds_anat_volumes_wf</title>
<polygon fill="none" stroke="black" points="168.31,-69.5 168.31,-299.5 568.31,-299.5 568.31,-69.5 168.31,-69.5"/>
<text text-anchor="middle" x="263.31" y="-284.3" font-family="Times,serif" font-size="14.00">IN</text>
<polyline fill="none" stroke="black" points="168.31,-276.5 358.31,-276.5 "/>
<text text-anchor="middle" x="263.31" y="-261.3" font-family="Times,serif" font-size="14.00">inputnode.anat2std_xfm</text>
<polyline fill="none" stroke="black" points="168.31,-253.5 358.31,-253.5 "/>
<text text-anchor="middle" x="263.31" y="-238.3" font-family="Times,serif" font-size="14.00">inputnode.anat_dseg</text>
<polyline fill="none" stroke="black" points="168.31,-230.5 358.31,-230.5 "/>
<text text-anchor="middle" x="263.31" y="-215.3" font-family="Times,serif" font-size="14.00">inputnode.anat_mask</text>
<polyline fill="none" stroke="black" points="168.31,-207.5 358.31,-207.5 "/>
<text text-anchor="middle" x="263.31" y="-192.3" font-family="Times,serif" font-size="14.00">inputnode.anat_preproc</text>
<polyline fill="none" stroke="black" points="168.31,-184.5 358.31,-184.5 "/>
<text text-anchor="middle" x="263.31" y="-169.3" font-family="Times,serif" font-size="14.00">inputnode.anat_tpms</text>
<polyline fill="none" stroke="black" points="168.31,-161.5 358.31,-161.5 "/>
<text text-anchor="middle" x="263.31" y="-146.3" font-family="Times,serif" font-size="14.00">inputnode.ref_file</text>
<polyline fill="none" stroke="black" points="168.31,-138.5 358.31,-138.5 "/>
<text text-anchor="middle" x="263.31" y="-123.3" font-family="Times,serif" font-size="14.00">inputnode.resolution</text>
<polyline fill="none" stroke="black" points="168.31,-115.5 358.31,-115.5 "/>
<text text-anchor="middle" x="263.31" y="-100.3" font-family="Times,serif" font-size="14.00">inputnode.source_files</text>
<polyline fill="none" stroke="black" points="168.31,-92.5 358.31,-92.5 "/>
<text text-anchor="middle" x="263.31" y="-77.3" font-family="Times,serif" font-size="14.00">inputnode.space</text>
<polyline fill="none" stroke="black" points="358.31,-69.5 358.31,-299.5 "/>
<text text-anchor="middle" x="438.81" y="-257.8" font-family="Times,serif" font-size="14.00">ds_anat_volumes_wf</text>
<polyline fill="none" stroke="black" points="358.31,-223.5 519.31,-223.5 "/>
<text text-anchor="middle" x="438.81" y="-181.3" font-family="Times,serif" font-size="14.00"> </text>
<polyline fill="none" stroke="black" points="358.31,-146.5 519.31,-146.5 "/>
<text text-anchor="middle" x="438.81" y="-104.3" font-family="Times,serif" font-size="14.00"> </text>
<polyline fill="none" stroke="black" points="519.31,-69.5 519.31,-299.5 "/>
<text text-anchor="middle" x="543.81" y="-180.8" font-family="Times,serif" font-size="14.00">OUT</text>
</g>
<!-- anat_preproc_wfanat_fit_wf&#45;&gt;anat_preproc_wfds_anat_volumes_wf -->
<g id="edge13" class="edge">
<title>anat_preproc_wfanat_fit_wf:e&#45;&gt;anat_preproc_wfds_anat_volumes_wf:w</title>
<path fill="none" stroke="black" d="M1451.31,-684C1507.76,-684 1489.87,-597.26 1450.31,-557 1395.39,-501.11 95.01,-577.11 40.31,-521 -52.24,-426.06 27.02,-251.64 157.05,-242.85"/>
<polygon fill="black" stroke="black" points="157.43,-246.33 167.31,-242.5 157.2,-239.34 157.43,-246.33"/>
</g>
<!-- anat_preproc_wfanat_fit_wf&#45;&gt;anat_preproc_wfds_anat_volumes_wf -->
<g id="edge15" class="edge">
<title>anat_preproc_wfanat_fit_wf:e&#45;&gt;anat_preproc_wfds_anat_volumes_wf:w</title>
<path fill="none" stroke="black" d="M1451.31,-661C1497.54,-661 1482.72,-589.96 1450.31,-557 1396.85,-502.64 131.52,-575.62 78.31,-521 31.95,-473.4 91.1,-243.58 157.11,-221.25"/>
<polygon fill="black" stroke="black" points="158.04,-224.64 167.31,-219.5 156.86,-217.74 158.04,-224.64"/>
</g>
<!-- anat_preproc_wfanat_fit_wf&#45;&gt;anat_preproc_wfds_anat_volumes_wf -->
<g id="edge17" class="edge">
<title>anat_preproc_wfanat_fit_wf:e&#45;&gt;anat_preproc_wfds_anat_volumes_wf:w</title>
<path fill="none" stroke="black" d="M1451.31,-638C1487.31,-638 1475.58,-582.64 1450.31,-557 1346.23,-451.39 219.73,-627.25 116.31,-521 49.91,-452.78 108.18,-227.27 157.59,-199.34"/>
<polygon fill="black" stroke="black" points="158.7,-202.67 167.31,-196.5 156.73,-195.95 158.7,-202.67"/>
</g>
<!-- anat_preproc_wfanat_fit_wf&#45;&gt;anat_preproc_wfds_anat_volumes_wf -->
<g id="edge20" class="edge">
<title>anat_preproc_wfanat_fit_wf:e&#45;&gt;anat_preproc_wfds_anat_volumes_wf:w</title>
<path fill="none" stroke="black" d="M1451.31,-615C1477.09,-615 1468.45,-575.33 1450.31,-557 1348.99,-454.6 254.75,-624.27 154.31,-521 118.34,-484.01 102.84,-204.39 157.52,-175"/>
<polygon fill="black" stroke="black" points="158.49,-178.36 167.31,-172.5 156.76,-171.58 158.49,-178.36"/>
</g>
<!-- anat_preproc_wfanat_fit_wf&#45;&gt;anat_preproc_wfds_anat_volumes_wf -->
<g id="edge22" class="edge">
<title>anat_preproc_wfanat_fit_wf:e&#45;&gt;anat_preproc_wfds_anat_volumes_wf:w</title>
<path fill="none" stroke="black" d="M1451.31,-592C1466.87,-592 1461.32,-568 1450.31,-557 1351.04,-457.73 289.38,-617.39 187.31,-521 155.92,-491.36 125.47,-155.98 158.66,-108.96"/>
<polygon fill="black" stroke="black" points="160.72,-111.8 167.31,-103.5 156.99,-105.88 160.72,-111.8"/>
</g>
<!-- anat_preproc_wfds_surfaces_wf -->
<g id="node6" class="node">
<title>anat_preproc_wfds_surfaces_wf</title>
<polygon fill="none" stroke="black" points="693.81,-150 693.81,-219 1042.81,-219 1042.81,-150 693.81,-150"/>
<text text-anchor="middle" x="781.81" y="-203.8" font-family="Times,serif" font-size="14.00">IN</text>
<polyline fill="none" stroke="black" points="693.81,-196 869.81,-196 "/>
<text text-anchor="middle" x="781.81" y="-180.8" font-family="Times,serif" font-size="14.00">inputnode.inflated</text>
<polyline fill="none" stroke="black" points="693.81,-173 869.81,-173 "/>
<text text-anchor="middle" x="781.81" y="-157.8" font-family="Times,serif" font-size="14.00">inputnode.source_files</text>
<polyline fill="none" stroke="black" points="869.81,-150 869.81,-219 "/>
<text text-anchor="middle" x="931.81" y="-203.8" font-family="Times,serif" font-size="14.00">ds_surfaces_wf</text>
<polyline fill="none" stroke="black" points="869.81,-196 993.81,-196 "/>
<text text-anchor="middle" x="931.81" y="-180.8" font-family="Times,serif" font-size="14.00"> </text>
<polyline fill="none" stroke="black" points="869.81,-173 993.81,-173 "/>
<text text-anchor="middle" x="931.81" y="-157.8" font-family="Times,serif" font-size="14.00"> </text>
<polyline fill="none" stroke="black" points="993.81,-150 993.81,-219 "/>
<text text-anchor="middle" x="1018.31" y="-180.8" font-family="Times,serif" font-size="14.00">OUT</text>
</g>
<!-- anat_preproc_wfanat_fit_wf&#45;&gt;anat_preproc_wfds_surfaces_wf -->
<g id="edge25" class="edge">
<title>anat_preproc_wfanat_fit_wf:e&#45;&gt;anat_preproc_wfds_surfaces_wf:w</title>
<path fill="none" stroke="black" d="M1451.31,-592C1466.87,-592 1461.16,-568.15 1450.31,-557 1400.49,-505.79 865.99,-563.16 808.31,-521 801.07,-515.71 695.01,-228.3 693.31,-219.5 689.3,-198.73 673.85,-173.01 682.66,-164.43"/>
<polygon fill="black" stroke="black" points="683.76,-167.76 692.31,-161.5 681.73,-161.06 683.76,-167.76"/>
</g>
<!-- anat_preproc_wfds_curv_wf -->
<g id="node7" class="node">
<title>anat_preproc_wfds_curv_wf</title>
<polygon fill="none" stroke="black" points="1061.31,-150 1061.31,-219 1381.31,-219 1381.31,-150 1061.31,-150"/>
<text text-anchor="middle" x="1149.31" y="-203.8" font-family="Times,serif" font-size="14.00">IN</text>
<polyline fill="none" stroke="black" points="1061.31,-196 1237.31,-196 "/>
<text text-anchor="middle" x="1149.31" y="-180.8" font-family="Times,serif" font-size="14.00">inputnode.curv</text>
<polyline fill="none" stroke="black" points="1061.31,-173 1237.31,-173 "/>
<text text-anchor="middle" x="1149.31" y="-157.8" font-family="Times,serif" font-size="14.00">inputnode.source_files</text>
<polyline fill="none" stroke="black" points="1237.31,-150 1237.31,-219 "/>
<text text-anchor="middle" x="1284.81" y="-203.8" font-family="Times,serif" font-size="14.00">ds_curv_wf</text>
<polyline fill="none" stroke="black" points="1237.31,-196 1332.31,-196 "/>
<text text-anchor="middle" x="1284.81" y="-180.8" font-family="Times,serif" font-size="14.00"> </text>
<polyline fill="none" stroke="black" points="1237.31,-173 1332.31,-173 "/>
<text text-anchor="middle" x="1284.81" y="-157.8" font-family="Times,serif" font-size="14.00"> </text>
<polyline fill="none" stroke="black" points="1332.31,-150 1332.31,-219 "/>
<text text-anchor="middle" x="1356.81" y="-180.8" font-family="Times,serif" font-size="14.00">OUT</text>
</g>
<!-- anat_preproc_wfanat_fit_wf&#45;&gt;anat_preproc_wfds_curv_wf -->
<g id="edge23" class="edge">
<title>anat_preproc_wfanat_fit_wf:e&#45;&gt;anat_preproc_wfds_curv_wf:w</title>
<path fill="none" stroke="black" d="M1451.31,-592C1466.87,-592 1461.15,-568.17 1450.31,-557 1355.28,-459.07 930.93,-620.28 837.31,-521 801.94,-483.49 804.02,-444.36 837.31,-405 899.6,-331.36 987.44,-441.27 1051.31,-369 1057.94,-361.5 1051.16,-210.97 1056.77,-171.11"/>
<polygon fill="black" stroke="black" points="1060.14,-172.09 1060.31,-161.5 1053.57,-169.67 1060.14,-172.09"/>
</g>
<!-- anat_preproc_wfds_fs_segs_wf -->
<g id="node8" class="node">
<title>anat_preproc_wfds_fs_segs_wf</title>
<polygon fill="none" stroke="black" points="1399.31,-138.5 1399.31,-230.5 1755.31,-230.5 1755.31,-138.5 1399.31,-138.5"/>
<text text-anchor="middle" x="1494.81" y="-215.3" font-family="Times,serif" font-size="14.00">IN</text>
<polyline fill="none" stroke="black" points="1399.31,-207.5 1590.31,-207.5 "/>
<text text-anchor="middle" x="1494.81" y="-192.3" font-family="Times,serif" font-size="14.00">inputnode.anat_fs_aparc</text>
<polyline fill="none" stroke="black" points="1399.31,-184.5 1590.31,-184.5 "/>
<text text-anchor="middle" x="1494.81" y="-169.3" font-family="Times,serif" font-size="14.00">inputnode.anat_fs_aseg</text>
<polyline fill="none" stroke="black" points="1399.31,-161.5 1590.31,-161.5 "/>
<text text-anchor="middle" x="1494.81" y="-146.3" font-family="Times,serif" font-size="14.00">inputnode.source_files</text>
<polyline fill="none" stroke="black" points="1590.31,-138.5 1590.31,-230.5 "/>
<text text-anchor="middle" x="1648.31" y="-211.8" font-family="Times,serif" font-size="14.00">ds_fs_segs_wf</text>
<polyline fill="none" stroke="black" points="1590.31,-200.5 1706.31,-200.5 "/>
<text text-anchor="middle" x="1648.31" y="-181.3" font-family="Times,serif" font-size="14.00"> </text>
<polyline fill="none" stroke="black" points="1590.31,-169.5 1706.31,-169.5 "/>
<text text-anchor="middle" x="1648.31" y="-150.3" font-family="Times,serif" font-size="14.00"> </text>
<polyline fill="none" stroke="black" points="1706.31,-138.5 1706.31,-230.5 "/>
<text text-anchor="middle" x="1730.81" y="-180.8" font-family="Times,serif" font-size="14.00">OUT</text>
</g>
<!-- anat_preproc_wfanat_fit_wf&#45;&gt;anat_preproc_wfds_fs_segs_wf -->
<g id="edge24" class="edge">
<title>anat_preproc_wfanat_fit_wf:e&#45;&gt;anat_preproc_wfds_fs_segs_wf:w</title>
<path fill="none" stroke="black" d="M1451.31,-592C1491.84,-592 1403.24,-271.33 1399.31,-231 1398.63,-224.03 1392.99,-179.09 1394.66,-159.08"/>
<polygon fill="black" stroke="black" points="1398.02,-160.09 1398.31,-149.5 1391.48,-157.6 1398.02,-160.09"/>
</g>
<!-- anat_preproc_wfoutputnode -->
<g id="node9" class="node">
<title>anat_preproc_wfoutputnode</title>
<polygon fill="none" stroke="black" points="1773.31,-0.5 1773.31,-368.5 2063.31,-368.5 2063.31,-0.5 1773.31,-0.5"/>
<text text-anchor="middle" x="1844.81" y="-353.3" font-family="Times,serif" font-size="14.00">IN</text>
<polyline fill="none" stroke="black" points="1773.31,-345.5 1916.31,-345.5 "/>
<text text-anchor="middle" x="1844.81" y="-330.3" font-family="Times,serif" font-size="14.00">anat2std_xfm</text>
<polyline fill="none" stroke="black" points="1773.31,-322.5 1916.31,-322.5 "/>
<text text-anchor="middle" x="1844.81" y="-307.3" font-family="Times,serif" font-size="14.00">anat_ribbon</text>
<polyline fill="none" stroke="black" points="1773.31,-299.5 1916.31,-299.5 "/>
<text text-anchor="middle" x="1844.81" y="-284.3" font-family="Times,serif" font-size="14.00">fsnative2t1w_xfm</text>
<polyline fill="none" stroke="black" points="1773.31,-276.5 1916.31,-276.5 "/>
<text text-anchor="middle" x="1844.81" y="-261.3" font-family="Times,serif" font-size="14.00">sphere_reg</text>
<polyline fill="none" stroke="black" points="1773.31,-253.5 1916.31,-253.5 "/>
<text text-anchor="middle" x="1844.81" y="-238.3" font-family="Times,serif" font-size="14.00">sphere_reg_fsLR</text>
<polyline fill="none" stroke="black" points="1773.31,-230.5 1916.31,-230.5 "/>
<text text-anchor="middle" x="1844.81" y="-215.3" font-family="Times,serif" font-size="14.00">std2anat_xfm</text>
<polyline fill="none" stroke="black" points="1773.31,-207.5 1916.31,-207.5 "/>
<text text-anchor="middle" x="1844.81" y="-192.3" font-family="Times,serif" font-size="14.00">subject_id</text>
<polyline fill="none" stroke="black" points="1773.31,-184.5 1916.31,-184.5 "/>
<text text-anchor="middle" x="1844.81" y="-169.3" font-family="Times,serif" font-size="14.00">subjects_dir</text>
<polyline fill="none" stroke="black" points="1773.31,-161.5 1916.31,-161.5 "/>
<text text-anchor="middle" x="1844.81" y="-146.3" font-family="Times,serif" font-size="14.00">t1w_aparc</text>
<polyline fill="none" stroke="black" points="1773.31,-138.5 1916.31,-138.5 "/>
<text text-anchor="middle" x="1844.81" y="-123.3" font-family="Times,serif" font-size="14.00">t1w_aseg</text>
<polyline fill="none" stroke="black" points="1773.31,-115.5 1916.31,-115.5 "/>
<text text-anchor="middle" x="1844.81" y="-100.3" font-family="Times,serif" font-size="14.00">t1w_dseg</text>
<polyline fill="none" stroke="black" points="1773.31,-92.5 1916.31,-92.5 "/>
<text text-anchor="middle" x="1844.81" y="-77.3" font-family="Times,serif" font-size="14.00">t1w_mask</text>
<polyline fill="none" stroke="black" points="1773.31,-69.5 1916.31,-69.5 "/>
<text text-anchor="middle" x="1844.81" y="-54.3" font-family="Times,serif" font-size="14.00">t1w_preproc</text>
<polyline fill="none" stroke="black" points="1773.31,-46.5 1916.31,-46.5 "/>
<text text-anchor="middle" x="1844.81" y="-31.3" font-family="Times,serif" font-size="14.00">t1w_tpms</text>
<polyline fill="none" stroke="black" points="1773.31,-23.5 1916.31,-23.5 "/>
<text text-anchor="middle" x="1844.81" y="-8.3" font-family="Times,serif" font-size="14.00">template</text>
<polyline fill="none" stroke="black" points="1916.31,-0.5 1916.31,-368.5 "/>
<text text-anchor="middle" x="1965.31" y="-303.8" font-family="Times,serif" font-size="14.00">outputnode</text>
<polyline fill="none" stroke="black" points="1916.31,-246.5 2014.31,-246.5 "/>
<text text-anchor="middle" x="1965.31" y="-181.3" font-family="Times,serif" font-size="14.00">utility</text>
<polyline fill="none" stroke="black" points="1916.31,-123.5 2014.31,-123.5 "/>
<text text-anchor="middle" x="1965.31" y="-58.3" font-family="Times,serif" font-size="14.00"> </text>
<polyline fill="none" stroke="black" points="2014.31,-0.5 2014.31,-368.5 "/>
<text text-anchor="middle" x="2038.81" y="-180.8" font-family="Times,serif" font-size="14.00">OUT</text>
</g>
<!-- anat_preproc_wfanat_fit_wf&#45;&gt;anat_preproc_wfoutputnode -->
<g id="edge1" class="edge">
<title>anat_preproc_wfanat_fit_wf:e&#45;&gt;anat_preproc_wfoutputnode:w</title>
<path fill="none" stroke="black" d="M1451.31,-868C1658.87,-868 1366.35,-552.56 1512.31,-405 1591.87,-324.57 1680.95,-445.49 1764.31,-369 1771.65,-362.27 1766.6,-350.24 1765.89,-342.31"/>
<polygon fill="black" stroke="black" points="1768.67,-344.45 1772.31,-334.5 1763.26,-340.01 1768.67,-344.45"/>
</g>
<!-- anat_preproc_wfanat_fit_wf&#45;&gt;anat_preproc_wfoutputnode -->
<g id="edge3" class="edge">
<title>anat_preproc_wfanat_fit_wf:e&#45;&gt;anat_preproc_wfoutputnode:w</title>
<path fill="none" stroke="black" d="M1451.31,-845C1551.53,-845 1477.53,-473.91 1550.31,-405 1620.35,-338.69 1697.09,-438.16 1764.31,-369 1770.91,-362.21 1765.18,-334.38 1766.77,-320.08"/>
<polygon fill="black" stroke="black" points="1769.83,-321.8 1772.31,-311.5 1763.95,-318 1769.83,-321.8"/>
</g>
<!-- anat_preproc_wfanat_fit_wf&#45;&gt;anat_preproc_wfoutputnode -->
<g id="edge4" class="edge">
<title>anat_preproc_wfanat_fit_wf:e&#45;&gt;anat_preproc_wfoutputnode:w</title>
<path fill="none" stroke="black" d="M1451.31,-822C1500.08,-822 1551.89,-437.43 1588.31,-405 1647.94,-351.9 1710.83,-428.28 1764.31,-369 1773.86,-358.42 1761.99,-314 1765.63,-296.06"/>
<polygon fill="black" stroke="black" points="1768.31,-298.31 1772.31,-288.5 1763.07,-293.68 1768.31,-298.31"/>
</g>
<!-- anat_preproc_wfanat_fit_wf&#45;&gt;anat_preproc_wfoutputnode -->
<g id="edge6" class="edge">
<title>anat_preproc_wfanat_fit_wf:e&#45;&gt;anat_preproc_wfoutputnode:w</title>
<path fill="none" stroke="black" d="M1451.31,-799C1588.09,-799 1530.16,-647.02 1583.31,-521 1604.68,-470.34 1585.54,-441.89 1626.31,-405 1673.31,-362.47 1723.65,-417.63 1764.31,-369 1770.29,-361.84 1764.29,-298.59 1767.87,-274.64"/>
<polygon fill="black" stroke="black" points="1771.09,-276.02 1772.31,-265.5 1764.79,-272.96 1771.09,-276.02"/>
</g>
<!-- anat_preproc_wfanat_fit_wf&#45;&gt;anat_preproc_wfoutputnode -->
<g id="edge7" class="edge">
<title>anat_preproc_wfanat_fit_wf:e&#45;&gt;anat_preproc_wfoutputnode:w</title>
<path fill="none" stroke="black" d="M1451.31,-776C1587.03,-776 1557.08,-641.61 1619.31,-521 1644.67,-471.86 1624.73,-443.62 1664.31,-405 1698.12,-372.01 1735.94,-406.77 1764.31,-369 1771.35,-359.63 1762.46,-278.28 1767.39,-251.22"/>
<polygon fill="black" stroke="black" points="1770.44,-252.93 1772.31,-242.5 1764.35,-249.49 1770.44,-252.93"/>
</g>
<!-- anat_preproc_wfanat_fit_wf&#45;&gt;anat_preproc_wfoutputnode -->
<g id="edge8" class="edge">
<title>anat_preproc_wfanat_fit_wf:e&#45;&gt;anat_preproc_wfoutputnode:w</title>
<path fill="none" stroke="black" d="M1451.31,-753C1588.91,-753 1584.32,-638.26 1656.31,-521 1685.33,-473.74 1666.11,-447.02 1702.31,-405 1723.11,-380.86 1747.68,-396.18 1764.31,-369 1771.67,-356.97 1760.35,-257.92 1766.86,-228.01"/>
<polygon fill="black" stroke="black" points="1769.87,-229.81 1772.31,-219.5 1763.97,-226.04 1769.87,-229.81"/>
</g>
<!-- anat_preproc_wfanat_fit_wf&#45;&gt;anat_preproc_wfoutputnode -->
<g id="edge9" class="edge">
<title>anat_preproc_wfanat_fit_wf:e&#45;&gt;anat_preproc_wfoutputnode:w</title>
<path fill="none" stroke="black" d="M1451.31,-730C1593.43,-730 1610.54,-636.52 1693.31,-521 1725.71,-475.78 1714.3,-454.17 1740.31,-405 1749.3,-388 1758.31,-387.27 1764.31,-369 1766.86,-361.24 1763.91,-241.61 1768.91,-206.26"/>
<polygon fill="black" stroke="black" points="1772.32,-207.09 1772.31,-196.5 1765.71,-204.79 1772.32,-207.09"/>
</g>
<!-- anat_preproc_wfanat_fit_wf&#45;&gt;anat_preproc_wfoutputnode -->
<g id="edge11" class="edge">
<title>anat_preproc_wfanat_fit_wf:e&#45;&gt;anat_preproc_wfoutputnode:w</title>
<path fill="none" stroke="black" d="M1451.31,-707C1600.71,-707 1647.06,-644.38 1731.31,-521 1770.29,-463.91 1755.54,-437.57 1764.31,-369 1765.51,-359.64 1762.46,-220 1768.63,-181.99"/>
<polygon fill="black" stroke="black" points="1771.96,-183.09 1772.31,-172.5 1765.43,-180.56 1771.96,-183.09"/>
</g>
<!-- anat_preproc_wfanat_fit_wf&#45;&gt;anat_preproc_wfoutputnode -->
<g id="edge14" class="edge">
<title>anat_preproc_wfanat_fit_wf:e&#45;&gt;anat_preproc_wfoutputnode:w</title>
<path fill="none" stroke="black" d="M1451.31,-684C1606.19,-684 1677.24,-652.35 1759.31,-521 1795.13,-463.68 1762.18,-436.56 1764.31,-369 1764.52,-362.49 1764.84,-160.55 1769.99,-113.32"/>
<polygon fill="black" stroke="black" points="1773.42,-114.04 1772.31,-103.5 1766.61,-112.43 1773.42,-114.04"/>
</g>
<!-- anat_preproc_wfanat_fit_wf&#45;&gt;anat_preproc_wfoutputnode -->
<g id="edge16" class="edge">
<title>anat_preproc_wfanat_fit_wf:e&#45;&gt;anat_preproc_wfoutputnode:w</title>
<path fill="none" stroke="black" d="M1451.31,-661C1610.63,-661 1693.36,-653.85 1781.31,-521 1809.77,-478.01 1786.94,-456.25 1781.31,-405 1779.52,-388.71 1775.13,-385.29 1773.31,-369 1771.73,-354.81 1759.46,-137.05 1768.12,-89.59"/>
<polygon fill="black" stroke="black" points="1771.3,-91.05 1772.31,-80.5 1764.94,-88.11 1771.3,-91.05"/>
</g>
<!-- anat_preproc_wfanat_fit_wf&#45;&gt;anat_preproc_wfoutputnode -->
<g id="edge18" class="edge">
<title>anat_preproc_wfanat_fit_wf:e&#45;&gt;anat_preproc_wfoutputnode:w</title>
<path fill="none" stroke="black" d="M1451.31,-638C1533.32,-638 1753.39,-587.55 1801.31,-521 1831.44,-479.16 1818.04,-453.77 1801.31,-405 1794.73,-385.83 1779.92,-388.16 1773.31,-369 1770.79,-361.7 1765.08,-119.26 1770.03,-67.26"/>
<polygon fill="black" stroke="black" points="1773.45,-68.03 1772.31,-57.5 1766.63,-66.44 1773.45,-68.03"/>
</g>
<!-- anat_preproc_wfanat_fit_wf&#45;&gt;anat_preproc_wfoutputnode -->
<g id="edge21" class="edge">
<title>anat_preproc_wfanat_fit_wf:e&#45;&gt;anat_preproc_wfoutputnode:w</title>
<path fill="none" stroke="black" d="M1451.31,-615C1536.58,-615 1770.92,-588.27 1823.31,-521 1854.99,-480.32 1846.82,-450.89 1823.31,-405 1810.83,-380.63 1785.83,-393.35 1773.31,-369 1769.5,-361.59 1764.25,-98.63 1769.9,-44.27"/>
<polygon fill="black" stroke="black" points="1773.31,-45.05 1772.31,-34.5 1766.52,-43.37 1773.31,-45.05"/>
</g>
<!-- anat_preproc_wfanat_fit_wf&#45;&gt;anat_preproc_wfoutputnode -->
<g id="edge26" class="edge">
<title>anat_preproc_wfanat_fit_wf:e&#45;&gt;anat_preproc_wfoutputnode:w</title>
<path fill="none" stroke="black" d="M1451.31,-569C1495.63,-569 1817.92,-554.17 1847.31,-521 1881.5,-482.41 1874.65,-448.71 1847.31,-405 1827.91,-373.99 1792.75,-399.98 1773.31,-369 1768.56,-361.43 1763.5,-77.66 1769.79,-21.21"/>
<polygon fill="black" stroke="black" points="1773.19,-22.06 1772.31,-11.5 1766.41,-20.3 1773.19,-22.06"/>
</g>
<!-- anat_preproc_wftemplate_iterator_wf&#45;&gt;anat_preproc_wfds_anat_volumes_wf -->
<g id="edge40" class="edge">
<title>anat_preproc_wftemplate_iterator_wf:e&#45;&gt;anat_preproc_wfds_anat_volumes_wf:w</title>
<path fill="none" stroke="black" d="M753.31,-486C771.31,-486 763.94,-418.74 752.31,-405 709.71,-354.69 211.33,-349.96 168.31,-300 161.43,-292.01 156.29,-278.7 158.73,-271.16"/>
<polygon fill="black" stroke="black" points="160.89,-273.93 167.31,-265.5 157.04,-268.08 160.89,-273.93"/>
</g>
<!-- anat_preproc_wftemplate_iterator_wf&#45;&gt;anat_preproc_wfds_anat_volumes_wf -->
<g id="edge41" class="edge">
<title>anat_preproc_wftemplate_iterator_wf:e&#45;&gt;anat_preproc_wfds_anat_volumes_wf:w</title>
<path fill="none" stroke="black" d="M753.31,-463C766.2,-463 760.67,-414.82 752.31,-405 666.86,-304.58 253.19,-400.91 168.31,-300 121,-243.75 92.91,-137.11 157.15,-127.24"/>
<polygon fill="black" stroke="black" points="157.59,-130.71 167.31,-126.5 157.08,-123.73 157.59,-130.71"/>
</g>
<!-- anat_preproc_wftemplate_iterator_wf&#45;&gt;anat_preproc_wfds_anat_volumes_wf -->
<g id="edge42" class="edge">
<title>anat_preproc_wftemplate_iterator_wf:e&#45;&gt;anat_preproc_wfds_anat_volumes_wf:w</title>
<path fill="none" stroke="black" d="M753.31,-440C768.87,-440 762.46,-416.79 752.31,-405 666.29,-305.07 253.13,-400.96 168.31,-300 107.83,-228 72.38,-90.87 157.25,-81.06"/>
<polygon fill="black" stroke="black" points="157.52,-84.55 167.31,-80.5 157.13,-77.56 157.52,-84.55"/>
</g>
<!-- anat_preproc_wftemplate_iterator_wf&#45;&gt;anat_preproc_wfds_anat_volumes_wf -->
<g id="edge43" class="edge">
<title>anat_preproc_wftemplate_iterator_wf:e&#45;&gt;anat_preproc_wfds_anat_volumes_wf:w</title>
<path fill="none" stroke="black" d="M753.31,-417C758.66,-417 755.91,-408.96 752.31,-405 663.59,-307.45 253.23,-400.87 168.31,-300 127.59,-251.63 103.19,-160.22 157.15,-150.37"/>
<polygon fill="black" stroke="black" points="157.65,-153.84 167.31,-149.5 157.05,-146.86 157.65,-153.84"/>
</g>
<!-- anat_preproc_wfsurface_derivatives_wf&#45;&gt;anat_preproc_wfds_surfaces_wf -->
<g id="edge35" class="edge">
<title>anat_preproc_wfsurface_derivatives_wf:e&#45;&gt;anat_preproc_wfds_surfaces_wf:w</title>
<path fill="none" stroke="black" d="M1423.31,-463C1436.2,-463 1431.06,-414.47 1422.31,-405 1366.27,-344.3 1132.44,-389.1 1052.31,-369 881.5,-326.15 527.43,-190.23 681.93,-184.68"/>
<polygon fill="black" stroke="black" points="682.37,-188.17 692.31,-184.5 682.25,-181.17 682.37,-188.17"/>
</g>
<!-- anat_preproc_wfsurface_derivatives_wf&#45;&gt;anat_preproc_wfds_curv_wf -->
<g id="edge34" class="edge">
<title>anat_preproc_wfsurface_derivatives_wf:e&#45;&gt;anat_preproc_wfds_curv_wf:w</title>
<path fill="none" stroke="black" d="M1423.31,-486C1441.31,-486 1431.79,-420.31 1422.31,-405 1374.84,-328.31 1109.4,-295.8 1061.31,-219.5 1055.67,-210.55 1050.05,-197.6 1051.91,-190.22"/>
<polygon fill="black" stroke="black" points="1054.01,-193.02 1060.31,-184.5 1050.08,-187.23 1054.01,-193.02"/>
</g>
<!-- anat_preproc_wfsurface_derivatives_wf&#45;&gt;anat_preproc_wfds_fs_segs_wf -->
<g id="edge36" class="edge">
<title>anat_preproc_wfsurface_derivatives_wf:e&#45;&gt;anat_preproc_wfds_fs_segs_wf:w</title>
<path fill="none" stroke="black" d="M1423.31,-440C1447.43,-440 1387.73,-248.54 1392.86,-205.17"/>
<polygon fill="black" stroke="black" points="1395.95,-206.83 1398.31,-196.5 1390.03,-203.1 1395.95,-206.83"/>
</g>
<!-- anat_preproc_wfsurface_derivatives_wf&#45;&gt;anat_preproc_wfds_fs_segs_wf -->
<g id="edge38" class="edge">
<title>anat_preproc_wfsurface_derivatives_wf:e&#45;&gt;anat_preproc_wfds_fs_segs_wf:w</title>
<path fill="none" stroke="black" d="M1423.31,-417C1447.58,-417 1387.4,-223.91 1392.87,-180.92"/>
<polygon fill="black" stroke="black" points="1395.82,-182.8 1398.31,-172.5 1389.94,-179 1395.82,-182.8"/>
</g>
<!-- anat_preproc_wfsurface_derivatives_wf&#45;&gt;anat_preproc_wfoutputnode -->
<g id="edge37" class="edge">
<title>anat_preproc_wfsurface_derivatives_wf:e&#45;&gt;anat_preproc_wfoutputnode:w</title>
<path fill="none" stroke="black" d="M1423.31,-440C1450.8,-440 1448.61,-414.75 1474.31,-405 1535.03,-381.97 1720.43,-416.87 1764.31,-369 1771.49,-361.16 1762.97,-200.42 1768.72,-159.11"/>
<polygon fill="black" stroke="black" points="1772.09,-160.09 1772.31,-149.5 1765.54,-157.64 1772.09,-160.09"/>
</g>
<!-- anat_preproc_wfsurface_derivatives_wf&#45;&gt;anat_preproc_wfoutputnode -->
<g id="edge39" class="edge">
<title>anat_preproc_wfsurface_derivatives_wf:e&#45;&gt;anat_preproc_wfoutputnode:w</title>
<path fill="none" stroke="black" d="M1423.31,-417C1446.6,-417 1451.39,-409.11 1474.31,-405 1538.23,-393.55 1720.52,-416.95 1764.31,-369 1772.3,-360.25 1762.01,-179.56 1768.56,-135.92"/>
<polygon fill="black" stroke="black" points="1771.86,-137.09 1772.31,-126.5 1765.36,-134.49 1771.86,-137.09"/>
</g>
</g>
</svg>
