<?xml version="1.0" encoding="UTF-8" standalone="no"?>
<!DOCTYPE svg PUBLIC "-//W3C//DTD SVG 1.1//EN"
 "http://www.w3.org/Graphics/SVG/1.1/DTD/svg11.dtd">
<!-- Generated by graphviz version 2.43.0 (0)
 -->
<!-- Title: hcp_morphometrics_wf Pages: 1 -->
<svg width="731pt" height="355pt"
 viewBox="0.00 0.00 730.93 355.00" xmlns="http://www.w3.org/2000/svg" xmlns:xlink="http://www.w3.org/1999/xlink">
<g id="graph0" class="graph" transform="scale(1 1) rotate(0) translate(4 351)">
<title>hcp_morphometrics_wf</title>
<polygon fill="white" stroke="transparent" points="-4,4 -4,-351 726.93,-351 726.93,4 -4,4"/>
<text text-anchor="middle" x="361.46" y="-7.8" font-family="Times,serif" font-size="14.00">hcp_morphometrics_wf</text>
<!-- hcp_morphometrics_wf_inputnode -->
<g id="node1" class="node">
<title>hcp_morphometrics_wf_inputnode</title>
<ellipse fill="none" stroke="black" cx="411.34" cy="-329" rx="94.78" ry="18"/>
<text text-anchor="middle" x="411.34" y="-325.3" font-family="Times,serif" font-size="14.00">inputnode (utility)</text>
</g>
<!-- hcp_morphometrics_wf_select_surfaces -->
<g id="node3" class="node">
<title>hcp_morphometrics_wf_select_surfaces</title>
<ellipse fill="none" stroke="black" cx="411.34" cy="-257" rx="118.88" ry="18"/>
<text text-anchor="middle" x="411.34" y="-253.3" font-family="Times,serif" font-size="14.00">select_surfaces (utility)</text>
</g>
<!-- hcp_morphometrics_wf_inputnode&#45;&gt;hcp_morphometrics_wf_select_surfaces -->
<g id="edge1" class="edge">
<title>hcp_morphometrics_wf_inputnode&#45;&gt;hcp_morphometrics_wf_select_surfaces</title>
<path fill="none" stroke="black" d="M393.71,-311.05C391.23,-303.26 390.51,-293.82 391.56,-285.08"/>
<polygon fill="black" stroke="black" points="394.99,-285.78 393.6,-275.28 388.14,-284.35 394.99,-285.78"/>
</g>
<!-- hcp_morphometrics_wf_inputnode&#45;&gt;hcp_morphometrics_wf_select_surfaces -->
<g id="edge2" class="edge">
<title>hcp_morphometrics_wf_inputnode&#45;&gt;hcp_morphometrics_wf_select_surfaces</title>
<path fill="none" stroke="black" d="M405.43,-310.7C404.63,-302.98 404.4,-293.71 404.75,-285.11"/>
<polygon fill="black" stroke="black" points="408.24,-285.32 405.45,-275.1 401.26,-284.84 408.24,-285.32"/>
</g>
<!-- hcp_morphometrics_wf_inputnode&#45;&gt;hcp_morphometrics_wf_select_surfaces -->
<g id="edge3" class="edge">
<title>hcp_morphometrics_wf_inputnode&#45;&gt;hcp_morphometrics_wf_select_surfaces</title>
<path fill="none" stroke="black" d="M417.26,-310.7C418.05,-302.98 418.28,-293.71 417.94,-285.11"/>
<polygon fill="black" stroke="black" points="421.43,-284.84 417.24,-275.1 414.44,-285.32 421.43,-284.84"/>
</g>
<!-- hcp_morphometrics_wf_inputnode&#45;&gt;hcp_morphometrics_wf_select_surfaces -->
<g id="edge4" class="edge">
<title>hcp_morphometrics_wf_inputnode&#45;&gt;hcp_morphometrics_wf_select_surfaces</title>
<path fill="none" stroke="black" d="M428.98,-311.05C431.46,-303.26 432.17,-293.82 431.12,-285.08"/>
<polygon fill="black" stroke="black" points="434.55,-284.35 429.08,-275.28 427.69,-285.78 434.55,-284.35"/>
</g>
<!-- hcp_morphometrics_wf_invert_curv -->
<g id="node4" class="node">
<title>hcp_morphometrics_wf_invert_curv</title>
<ellipse fill="none" stroke="black" cx="291.34" cy="-185" rx="92.08" ry="18"/>
<text text-anchor="middle" x="291.34" y="-181.3" font-family="Times,serif" font-size="14.00">invert_curv (gifti)</text>
</g>
<!-- hcp_morphometrics_wf_inputnode&#45;&gt;hcp_morphometrics_wf_invert_curv -->
<g id="edge5" class="edge">
<title>hcp_morphometrics_wf_inputnode&#45;&gt;hcp_morphometrics_wf_invert_curv</title>
<path fill="none" stroke="black" d="M344.25,-316.13C320.97,-308.44 297.24,-295.8 283.34,-275 271.14,-256.74 274.88,-231.46 280.66,-212.51"/>
<polygon fill="black" stroke="black" points="283.99,-213.58 283.89,-202.98 277.37,-211.33 283.99,-213.58"/>
</g>
<!-- hcp_morphometrics_wf_invert_sulc -->
<g id="node5" class="node">
<title>hcp_morphometrics_wf_invert_sulc</title>
<ellipse fill="none" stroke="black" cx="90.34" cy="-185" rx="90.18" ry="18"/>
<text text-anchor="middle" x="90.34" y="-181.3" font-family="Times,serif" font-size="14.00">invert_sulc (gifti)</text>
</g>
<!-- hcp_morphometrics_wf_inputnode&#45;&gt;hcp_morphometrics_wf_invert_sulc -->
<g id="edge6" class="edge">
<title>hcp_morphometrics_wf_inputnode&#45;&gt;hcp_morphometrics_wf_invert_sulc</title>
<path fill="none" stroke="black" d="M368.01,-312.98C339.89,-302.92 302.61,-289 270.34,-275 221.02,-253.6 165.8,-225.69 129.69,-206.87"/>
<polygon fill="black" stroke="black" points="130.97,-203.59 120.48,-202.06 127.72,-209.79 130.97,-203.59"/>
</g>
<!-- hcp_morphometrics_wf_abs_thickness -->
<g id="node6" class="node">
<title>hcp_morphometrics_wf_abs_thickness</title>
<ellipse fill="none" stroke="black" cx="543.34" cy="-185" rx="103.98" ry="18"/>
<text text-anchor="middle" x="543.34" y="-181.3" font-family="Times,serif" font-size="14.00">abs_thickness (gifti)</text>
</g>
<!-- hcp_morphometrics_wf_inputnode&#45;&gt;hcp_morphometrics_wf_abs_thickness -->
<g id="edge7" class="edge">
<title>hcp_morphometrics_wf_inputnode&#45;&gt;hcp_morphometrics_wf_abs_thickness</title>
<path fill="none" stroke="black" d="M477.27,-316.02C500.7,-308.31 524.84,-295.68 539.34,-275 551.8,-257.24 551.81,-232.23 549.27,-213.24"/>
<polygon fill="black" stroke="black" points="552.68,-212.42 547.61,-203.12 545.77,-213.56 552.68,-212.42"/>
</g>
<!-- hcp_morphometrics_wf_itersource -->
<g id="node2" class="node">
<title>hcp_morphometrics_wf_itersource</title>
<polygon fill="#d9d9d9" stroke="black" points="261.84,-347 118.84,-347 114.84,-343 114.84,-311 257.84,-311 261.84,-315 261.84,-347"/>
<polyline fill="none" stroke="black" points="257.84,-343 114.84,-343 "/>
<polyline fill="none" stroke="black" points="257.84,-343 257.84,-311 "/>
<polyline fill="none" stroke="black" points="257.84,-343 261.84,-347 "/>
<text text-anchor="middle" x="188.34" y="-325.3" font-family="Times,serif" font-size="14.00">itersource (utility)</text>
</g>
<!-- hcp_morphometrics_wf_itersource&#45;&gt;hcp_morphometrics_wf_select_surfaces -->
<g id="edge8" class="edge">
<title>hcp_morphometrics_wf_itersource&#45;&gt;hcp_morphometrics_wf_select_surfaces</title>
<path fill="none" stroke="black" d="M242.61,-310.97C275.82,-300.54 318.32,-287.2 352.35,-276.52"/>
<polygon fill="black" stroke="black" points="353.68,-279.77 362.17,-273.44 351.58,-273.09 353.68,-279.77"/>
</g>
<!-- hcp_morphometrics_wf_itersource&#45;&gt;hcp_morphometrics_wf_invert_curv -->
<g id="edge9" class="edge">
<title>hcp_morphometrics_wf_itersource&#45;&gt;hcp_morphometrics_wf_invert_curv</title>
<path fill="none" stroke="black" d="M189.42,-310.74C191.37,-291.61 196.87,-260.6 212.34,-239 221.65,-226 235.22,-215.26 248.49,-206.92"/>
<polygon fill="black" stroke="black" points="250.31,-209.91 257.12,-201.79 246.73,-203.89 250.31,-209.91"/>
</g>
<!-- hcp_morphometrics_wf_itersource&#45;&gt;hcp_morphometrics_wf_invert_sulc -->
<g id="edge10" class="edge">
<title>hcp_morphometrics_wf_itersource&#45;&gt;hcp_morphometrics_wf_invert_sulc</title>
<path fill="none" stroke="black" d="M168.85,-310.82C158.41,-301 145.79,-288.05 136.34,-275 122.17,-255.41 109.82,-230.85 101.5,-212.5"/>
<polygon fill="black" stroke="black" points="104.66,-211 97.42,-203.27 98.26,-213.83 104.66,-211"/>
</g>
<!-- hcp_morphometrics_wf_itersource&#45;&gt;hcp_morphometrics_wf_abs_thickness -->
<g id="edge11" class="edge">
<title>hcp_morphometrics_wf_itersource&#45;&gt;hcp_morphometrics_wf_abs_thickness</title>
<path fill="none" stroke="black" d="M201.45,-310.95C218.16,-290.49 249.01,-256.74 283.34,-239 313.01,-223.67 392.48,-208.7 455.81,-198.61"/>
<polygon fill="black" stroke="black" points="456.5,-202.04 465.83,-197.03 455.41,-195.13 456.5,-202.04"/>
</g>
<!-- hcp_morphometrics_wf_select_surfaces&#45;&gt;hcp_morphometrics_wf_invert_curv -->
<g id="edge12" class="edge">
<title>hcp_morphometrics_wf_select_surfaces&#45;&gt;hcp_morphometrics_wf_invert_curv</title>
<path fill="none" stroke="black" d="M382.9,-239.41C366.5,-229.84 345.69,-217.7 328.05,-207.42"/>
<polygon fill="black" stroke="black" points="329.56,-204.24 319.16,-202.23 326.04,-210.29 329.56,-204.24"/>
</g>
<!-- hcp_morphometrics_wf_select_surfaces&#45;&gt;hcp_morphometrics_wf_invert_sulc -->
<g id="edge13" class="edge">
<title>hcp_morphometrics_wf_select_surfaces&#45;&gt;hcp_morphometrics_wf_invert_sulc</title>
<path fill="none" stroke="black" d="M346.38,-241.83C291.97,-229.97 214.52,-213.08 159.08,-200.99"/>
<polygon fill="black" stroke="black" points="159.51,-197.5 148.99,-198.79 158.02,-204.34 159.51,-197.5"/>
</g>
<!-- hcp_morphometrics_wf_select_surfaces&#45;&gt;hcp_morphometrics_wf_abs_thickness -->
<g id="edge14" class="edge">
<title>hcp_morphometrics_wf_select_surfaces&#45;&gt;hcp_morphometrics_wf_abs_thickness</title>
<path fill="none" stroke="black" d="M442.29,-239.59C460.58,-229.89 483.92,-217.51 503.57,-207.09"/>
<polygon fill="black" stroke="black" points="505.39,-210.09 512.59,-202.31 502.11,-203.9 505.39,-210.09"/>
</g>
<!-- hcp_morphometrics_wf_dilate_curv -->
<g id="node7" class="node">
<title>hcp_morphometrics_wf_dilate_curv</title>
<ellipse fill="none" stroke="black" cx="291.34" cy="-113" rx="122.38" ry="18"/>
<text text-anchor="middle" x="291.34" y="-109.3" font-family="Times,serif" font-size="14.00">dilate_curv (workbench)</text>
</g>
<!-- hcp_morphometrics_wf_select_surfaces&#45;&gt;hcp_morphometrics_wf_dilate_curv -->
<g id="edge15" class="edge">
<title>hcp_morphometrics_wf_select_surfaces&#45;&gt;hcp_morphometrics_wf_dilate_curv</title>
<path fill="none" stroke="black" d="M411.83,-238.83C411.51,-219.49 408.29,-188.02 392.34,-167 381.54,-152.76 365.79,-141.97 349.94,-133.97"/>
<polygon fill="black" stroke="black" points="351.16,-130.68 340.62,-129.58 348.17,-137.01 351.16,-130.68"/>
</g>
<!-- hcp_morphometrics_wf_dilate_thickness -->
<g id="node8" class="node">
<title>hcp_morphometrics_wf_dilate_thickness</title>
<ellipse fill="none" stroke="black" cx="577.34" cy="-113" rx="145.67" ry="18"/>
<text text-anchor="middle" x="577.34" y="-109.3" font-family="Times,serif" font-size="14.00">dilate_thickness (workbench)</text>
</g>
<!-- hcp_morphometrics_wf_select_surfaces&#45;&gt;hcp_morphometrics_wf_dilate_thickness -->
<g id="edge16" class="edge">
<title>hcp_morphometrics_wf_select_surfaces&#45;&gt;hcp_morphometrics_wf_dilate_thickness</title>
<path fill="none" stroke="black" d="M510.78,-247.08C570.28,-239.45 637.83,-225.95 656.34,-203 666.39,-190.55 663.87,-181.12 656.34,-167 649.4,-153.98 637.67,-143.59 625.35,-135.58"/>
<polygon fill="black" stroke="black" points="627.15,-132.57 616.78,-130.41 623.54,-138.57 627.15,-132.57"/>
</g>
<!-- hcp_morphometrics_wf_invert_curv&#45;&gt;hcp_morphometrics_wf_dilate_curv -->
<g id="edge17" class="edge">
<title>hcp_morphometrics_wf_invert_curv&#45;&gt;hcp_morphometrics_wf_dilate_curv</title>
<path fill="none" stroke="black" d="M291.34,-166.7C291.34,-158.98 291.34,-149.71 291.34,-141.11"/>
<polygon fill="black" stroke="black" points="294.84,-141.1 291.34,-131.1 287.84,-141.1 294.84,-141.1"/>
</g>
<!-- hcp_morphometrics_wf_outputnode -->
<g id="node9" class="node">
<title>hcp_morphometrics_wf_outputnode</title>
<ellipse fill="none" stroke="black" cx="291.34" cy="-41" rx="101.28" ry="18"/>
<text text-anchor="middle" x="291.34" y="-37.3" font-family="Times,serif" font-size="14.00">outputnode (utility)</text>
</g>
<!-- hcp_morphometrics_wf_invert_sulc&#45;&gt;hcp_morphometrics_wf_outputnode -->
<g id="edge18" class="edge">
<title>hcp_morphometrics_wf_invert_sulc&#45;&gt;hcp_morphometrics_wf_outputnode</title>
<path fill="none" stroke="black" d="M99.9,-167.06C111.78,-147.35 133.78,-114.96 160.34,-95 180.59,-79.78 205.82,-68.22 228.71,-59.84"/>
<polygon fill="black" stroke="black" points="230.09,-63.06 238.36,-56.44 227.76,-56.46 230.09,-63.06"/>
</g>
<!-- hcp_morphometrics_wf_abs_thickness&#45;&gt;hcp_morphometrics_wf_dilate_thickness -->
<g id="edge19" class="edge">
<title>hcp_morphometrics_wf_abs_thickness&#45;&gt;hcp_morphometrics_wf_dilate_thickness</title>
<path fill="none" stroke="black" d="M551.57,-167.05C555.44,-159.09 560.14,-149.41 564.47,-140.51"/>
<polygon fill="black" stroke="black" points="567.73,-141.8 568.95,-131.28 561.43,-138.74 567.73,-141.8"/>
</g>
<!-- hcp_morphometrics_wf_dilate_curv&#45;&gt;hcp_morphometrics_wf_outputnode -->
<g id="edge20" class="edge">
<title>hcp_morphometrics_wf_dilate_curv&#45;&gt;hcp_morphometrics_wf_outputnode</title>
<path fill="none" stroke="black" d="M291.34,-94.7C291.34,-86.98 291.34,-77.71 291.34,-69.11"/>
<polygon fill="black" stroke="black" points="294.84,-69.1 291.34,-59.1 287.84,-69.1 294.84,-69.1"/>
</g>
<!-- hcp_morphometrics_wf_dilate_thickness&#45;&gt;hcp_morphometrics_wf_outputnode -->
<g id="edge21" class="edge">
<title>hcp_morphometrics_wf_dilate_thickness&#45;&gt;hcp_morphometrics_wf_outputnode</title>
<path fill="none" stroke="black" d="M514.93,-96.72C468.59,-85.38 405.49,-69.94 358.13,-58.35"/>
<polygon fill="black" stroke="black" points="358.82,-54.91 348.28,-55.94 357.16,-61.71 358.82,-54.91"/>
</g>
</g>
</svg>
