<?xml version="1.0" encoding="UTF-8" standalone="no"?>
<!DOCTYPE svg PUBLIC "-//W3C//DTD SVG 1.1//EN"
 "http://www.w3.org/Graphics/SVG/1.1/DTD/svg11.dtd">
<!-- Generated by graphviz version 2.43.0 (0)
 -->
<!-- Title: hcp_morphometrics_wf Pages: 1 -->
<svg width="842pt" height="499pt"
 viewBox="0.00 0.00 841.67 499.00" xmlns="http://www.w3.org/2000/svg" xmlns:xlink="http://www.w3.org/1999/xlink">
<g id="graph0" class="graph" transform="scale(1 1) rotate(0) translate(4 495)">
<title>hcp_morphometrics_wf</title>
<polygon fill="white" stroke="transparent" points="-4,4 -4,-495 837.67,-495 837.67,4 -4,4"/>
<text text-anchor="middle" x="416.84" y="-7.8" font-family="Times,serif" font-size="14.00">hcp_morphometrics_wf</text>
<!-- hcp_morphometrics_wf_inputnode -->
<g id="node1" class="node">
<title>hcp_morphometrics_wf_inputnode</title>
<ellipse fill="none" stroke="black" cx="314.19" cy="-473" rx="94.78" ry="18"/>
<text text-anchor="middle" x="314.19" y="-469.3" font-family="Times,serif" font-size="14.00">inputnode (utility)</text>
</g>
<!-- hcp_morphometrics_wf_select_surfaces -->
<g id="node3" class="node">
<title>hcp_morphometrics_wf_select_surfaces</title>
<ellipse fill="none" stroke="black" cx="314.19" cy="-401" rx="118.88" ry="18"/>
<text text-anchor="middle" x="314.19" y="-397.3" font-family="Times,serif" font-size="14.00">select_surfaces (utility)</text>
</g>
<!-- hcp_morphometrics_wf_inputnode&#45;&gt;hcp_morphometrics_wf_select_surfaces -->
<g id="edge1" class="edge">
<title>hcp_morphometrics_wf_inputnode&#45;&gt;hcp_morphometrics_wf_select_surfaces</title>
<path fill="none" stroke="black" d="M296.56,-455.05C294.08,-447.26 293.36,-437.82 294.41,-429.08"/>
<polygon fill="black" stroke="black" points="297.84,-429.78 296.45,-419.28 290.99,-428.35 297.84,-429.78"/>
</g>
<!-- hcp_morphometrics_wf_inputnode&#45;&gt;hcp_morphometrics_wf_select_surfaces -->
<g id="edge2" class="edge">
<title>hcp_morphometrics_wf_inputnode&#45;&gt;hcp_morphometrics_wf_select_surfaces</title>
<path fill="none" stroke="black" d="M308.28,-454.7C307.48,-446.98 307.26,-437.71 307.6,-429.11"/>
<polygon fill="black" stroke="black" points="311.09,-429.32 308.3,-419.1 304.11,-428.84 311.09,-429.32"/>
</g>
<!-- hcp_morphometrics_wf_inputnode&#45;&gt;hcp_morphometrics_wf_select_surfaces -->
<g id="edge3" class="edge">
<title>hcp_morphometrics_wf_inputnode&#45;&gt;hcp_morphometrics_wf_select_surfaces</title>
<path fill="none" stroke="black" d="M320.11,-454.7C320.9,-446.98 321.13,-437.71 320.79,-429.11"/>
<polygon fill="black" stroke="black" points="324.28,-428.84 320.09,-419.1 317.29,-429.32 324.28,-428.84"/>
</g>
<!-- hcp_morphometrics_wf_inputnode&#45;&gt;hcp_morphometrics_wf_select_surfaces -->
<g id="edge4" class="edge">
<title>hcp_morphometrics_wf_inputnode&#45;&gt;hcp_morphometrics_wf_select_surfaces</title>
<path fill="none" stroke="black" d="M331.83,-455.05C334.31,-447.26 335.02,-437.82 333.97,-429.08"/>
<polygon fill="black" stroke="black" points="337.4,-428.35 331.93,-419.28 330.55,-429.78 337.4,-428.35"/>
</g>
<!-- hcp_morphometrics_wf_invert_curv -->
<g id="node4" class="node">
<title>hcp_morphometrics_wf_invert_curv</title>
<ellipse fill="none" stroke="black" cx="118.19" cy="-329" rx="92.08" ry="18"/>
<text text-anchor="middle" x="118.19" y="-325.3" font-family="Times,serif" font-size="14.00">invert_curv (gifti)</text>
</g>
<!-- hcp_morphometrics_wf_inputnode&#45;&gt;hcp_morphometrics_wf_invert_curv -->
<g id="edge5" class="edge">
<title>hcp_morphometrics_wf_inputnode&#45;&gt;hcp_morphometrics_wf_invert_curv</title>
<path fill="none" stroke="black" d="M237.67,-462.18C207.14,-454.78 173.74,-441.79 150.19,-419 133.29,-402.64 125.29,-376.72 121.51,-357.06"/>
<polygon fill="black" stroke="black" points="124.96,-356.45 119.86,-347.16 118.05,-357.6 124.96,-356.45"/>
</g>
<!-- hcp_morphometrics_wf_invert_sulc -->
<g id="node5" class="node">
<title>hcp_morphometrics_wf_invert_sulc</title>
<ellipse fill="none" stroke="black" cx="696.19" cy="-329" rx="90.18" ry="18"/>
<text text-anchor="middle" x="696.19" y="-325.3" font-family="Times,serif" font-size="14.00">invert_sulc (gifti)</text>
</g>
<!-- hcp_morphometrics_wf_inputnode&#45;&gt;hcp_morphometrics_wf_invert_sulc -->
<g id="edge6" class="edge">
<title>hcp_morphometrics_wf_inputnode&#45;&gt;hcp_morphometrics_wf_invert_sulc</title>
<path fill="none" stroke="black" d="M359.18,-457.06C389.98,-446.69 431.7,-432.4 468.19,-419 530.94,-395.97 602.67,-367.63 648.64,-349.21"/>
<polygon fill="black" stroke="black" points="650.07,-352.41 658.05,-345.44 647.47,-345.91 650.07,-352.41"/>
</g>
<!-- hcp_morphometrics_wf_abs_thickness -->
<g id="node6" class="node">
<title>hcp_morphometrics_wf_abs_thickness</title>
<ellipse fill="none" stroke="black" cx="484.19" cy="-329" rx="103.98" ry="18"/>
<text text-anchor="middle" x="484.19" y="-325.3" font-family="Times,serif" font-size="14.00">abs_thickness (gifti)</text>
</g>
<!-- hcp_morphometrics_wf_inputnode&#45;&gt;hcp_morphometrics_wf_abs_thickness -->
<g id="edge7" class="edge">
<title>hcp_morphometrics_wf_inputnode&#45;&gt;hcp_morphometrics_wf_abs_thickness</title>
<path fill="none" stroke="black" d="M370.65,-458.52C395.03,-450.38 422.43,-437.83 442.19,-419 459.81,-402.22 470.82,-376.57 477.13,-357.11"/>
<polygon fill="black" stroke="black" points="480.55,-357.89 480.08,-347.3 473.85,-355.87 480.55,-357.89"/>
</g>
<!-- hcp_morphometrics_wf_initial_roi -->
<g id="node9" class="node">
<title>hcp_morphometrics_wf_initial_roi</title>
<ellipse fill="none" stroke="black" cx="735.19" cy="-257" rx="83.39" ry="18"/>
<text text-anchor="middle" x="735.19" y="-253.3" font-family="Times,serif" font-size="14.00">initial_roi (gifti)</text>
</g>
<!-- hcp_morphometrics_wf_inputnode&#45;&gt;hcp_morphometrics_wf_initial_roi -->
<g id="edge8" class="edge">
<title>hcp_morphometrics_wf_inputnode&#45;&gt;hcp_morphometrics_wf_initial_roi</title>
<path fill="none" stroke="black" d="M244.69,-460.6C135.08,-439.9 -58.1,-390.75 17.19,-311 65.02,-260.34 574.02,-283.35 643.19,-275 650.9,-274.07 658.94,-272.89 666.92,-271.6"/>
<polygon fill="black" stroke="black" points="667.68,-275.02 676.96,-269.9 666.52,-268.12 667.68,-275.02"/>
</g>
<!-- hcp_morphometrics_wf_itersource -->
<g id="node2" class="node">
<title>hcp_morphometrics_wf_itersource</title>
<polygon fill="#d9d9d9" stroke="black" points="573.69,-491 430.69,-491 426.69,-487 426.69,-455 569.69,-455 573.69,-459 573.69,-491"/>
<polyline fill="none" stroke="black" points="569.69,-487 426.69,-487 "/>
<polyline fill="none" stroke="black" points="569.69,-487 569.69,-455 "/>
<polyline fill="none" stroke="black" points="569.69,-487 573.69,-491 "/>
<text text-anchor="middle" x="500.19" y="-469.3" font-family="Times,serif" font-size="14.00">itersource (utility)</text>
</g>
<!-- hcp_morphometrics_wf_itersource&#45;&gt;hcp_morphometrics_wf_select_surfaces -->
<g id="edge9" class="edge">
<title>hcp_morphometrics_wf_itersource&#45;&gt;hcp_morphometrics_wf_select_surfaces</title>
<path fill="none" stroke="black" d="M454.69,-454.88C427.85,-444.77 393.79,-431.96 365.93,-421.47"/>
<polygon fill="black" stroke="black" points="366.95,-418.12 356.36,-417.87 364.48,-424.67 366.95,-418.12"/>
</g>
<!-- hcp_morphometrics_wf_itersource&#45;&gt;hcp_morphometrics_wf_invert_curv -->
<g id="edge10" class="edge">
<title>hcp_morphometrics_wf_itersource&#45;&gt;hcp_morphometrics_wf_invert_curv</title>
<path fill="none" stroke="black" d="M426.47,-456.53C423.68,-456.01 420.91,-455.49 418.19,-455 315.52,-436.4 275.9,-472.3 186.19,-419 172.93,-411.12 149.97,-378.8 134.44,-355.37"/>
<polygon fill="black" stroke="black" points="137.3,-353.34 128.89,-346.9 131.44,-357.18 137.3,-353.34"/>
</g>
<!-- hcp_morphometrics_wf_itersource&#45;&gt;hcp_morphometrics_wf_invert_sulc -->
<g id="edge11" class="edge">
<title>hcp_morphometrics_wf_itersource&#45;&gt;hcp_morphometrics_wf_invert_sulc</title>
<path fill="none" stroke="black" d="M527.93,-454.93C544.01,-444.83 564.51,-431.58 582.19,-419 612.26,-397.61 645.37,-371.45 668.13,-353.05"/>
<polygon fill="black" stroke="black" points="670.46,-355.66 676.02,-346.64 666.05,-350.23 670.46,-355.66"/>
</g>
<!-- hcp_morphometrics_wf_itersource&#45;&gt;hcp_morphometrics_wf_abs_thickness -->
<g id="edge12" class="edge">
<title>hcp_morphometrics_wf_itersource&#45;&gt;hcp_morphometrics_wf_abs_thickness</title>
<path fill="none" stroke="black" d="M498.26,-454.87C495.54,-430.67 490.53,-386.21 487.28,-357.39"/>
<polygon fill="black" stroke="black" points="490.73,-356.73 486.13,-347.19 483.77,-357.52 490.73,-356.73"/>
</g>
<!-- hcp_morphometrics_wf_itersource&#45;&gt;hcp_morphometrics_wf_initial_roi -->
<g id="edge13" class="edge">
<title>hcp_morphometrics_wf_itersource&#45;&gt;hcp_morphometrics_wf_initial_roi</title>
<path fill="none" stroke="black" d="M573.79,-463.58C644.06,-451.19 746.28,-420.85 795.19,-347 804.03,-333.66 801.77,-325.59 795.19,-311 789.78,-299 780.17,-288.63 770.2,-280.32"/>
<polygon fill="black" stroke="black" points="772.24,-277.48 762.2,-274.11 767.95,-283.01 772.24,-277.48"/>
</g>
<!-- hcp_morphometrics_wf_select_surfaces&#45;&gt;hcp_morphometrics_wf_invert_curv -->
<g id="edge14" class="edge">
<title>hcp_morphometrics_wf_select_surfaces&#45;&gt;hcp_morphometrics_wf_invert_curv</title>
<path fill="none" stroke="black" d="M269.72,-384.12C240.16,-373.56 201.24,-359.66 170.24,-348.59"/>
<polygon fill="black" stroke="black" points="171.07,-345.17 160.48,-345.1 168.72,-351.76 171.07,-345.17"/>
</g>
<!-- hcp_morphometrics_wf_select_surfaces&#45;&gt;hcp_morphometrics_wf_invert_sulc -->
<g id="edge15" class="edge">
<title>hcp_morphometrics_wf_select_surfaces&#45;&gt;hcp_morphometrics_wf_invert_sulc</title>
<path fill="none" stroke="black" d="M386.94,-386.67C454.27,-374.33 553.92,-356.07 621.78,-343.64"/>
<polygon fill="black" stroke="black" points="622.77,-347.01 631.97,-341.77 621.5,-340.13 622.77,-347.01"/>
</g>
<!-- hcp_morphometrics_wf_select_surfaces&#45;&gt;hcp_morphometrics_wf_abs_thickness -->
<g id="edge16" class="edge">
<title>hcp_morphometrics_wf_select_surfaces&#45;&gt;hcp_morphometrics_wf_abs_thickness</title>
<path fill="none" stroke="black" d="M353.19,-383.94C377.99,-373.73 410.26,-360.44 436.56,-349.61"/>
<polygon fill="black" stroke="black" points="438.04,-352.79 445.96,-345.74 435.38,-346.31 438.04,-352.79"/>
</g>
<!-- hcp_morphometrics_wf_dilate_curv -->
<g id="node7" class="node">
<title>hcp_morphometrics_wf_dilate_curv</title>
<ellipse fill="none" stroke="black" cx="126.19" cy="-257" rx="122.38" ry="18"/>
<text text-anchor="middle" x="126.19" y="-253.3" font-family="Times,serif" font-size="14.00">dilate_curv (workbench)</text>
</g>
<!-- hcp_morphometrics_wf_select_surfaces&#45;&gt;hcp_morphometrics_wf_dilate_curv -->
<g id="edge17" class="edge">
<title>hcp_morphometrics_wf_select_surfaces&#45;&gt;hcp_morphometrics_wf_dilate_curv</title>
<path fill="none" stroke="black" d="M298.42,-382.99C280.37,-364.08 249.39,-333.27 219.19,-311 203.29,-299.27 184.56,-288.15 168.09,-279.14"/>
<polygon fill="black" stroke="black" points="169.67,-276.02 159.2,-274.37 166.36,-282.19 169.67,-276.02"/>
</g>
<!-- hcp_morphometrics_wf_dilate_thickness -->
<g id="node8" class="node">
<title>hcp_morphometrics_wf_dilate_thickness</title>
<ellipse fill="none" stroke="black" cx="488.19" cy="-257" rx="145.67" ry="18"/>
<text text-anchor="middle" x="488.19" y="-253.3" font-family="Times,serif" font-size="14.00">dilate_thickness (workbench)</text>
</g>
<!-- hcp_morphometrics_wf_select_surfaces&#45;&gt;hcp_morphometrics_wf_dilate_thickness -->
<g id="edge18" class="edge">
<title>hcp_morphometrics_wf_select_surfaces&#45;&gt;hcp_morphometrics_wf_dilate_thickness</title>
<path fill="none" stroke="black" d="M321.5,-382.83C330.62,-363.2 347.88,-331.17 371.19,-311 387.42,-296.96 407.99,-285.98 427.34,-277.75"/>
<polygon fill="black" stroke="black" points="428.77,-280.95 436.71,-273.93 426.13,-274.46 428.77,-280.95"/>
</g>
<!-- hcp_morphometrics_wf_fill_holes -->
<g id="node10" class="node">
<title>hcp_morphometrics_wf_fill_holes</title>
<ellipse fill="none" stroke="black" cx="416.19" cy="-185" rx="111.58" ry="18"/>
<text text-anchor="middle" x="416.19" y="-181.3" font-family="Times,serif" font-size="14.00">fill_holes (workbench)</text>
</g>
<!-- hcp_morphometrics_wf_select_surfaces&#45;&gt;hcp_morphometrics_wf_fill_holes -->
<g id="edge19" class="edge">
<title>hcp_morphometrics_wf_select_surfaces&#45;&gt;hcp_morphometrics_wf_fill_holes</title>
<path fill="none" stroke="black" d="M311.72,-382.94C308.12,-351.75 304.64,-284.55 333.19,-239 341.54,-225.69 354.58,-215.11 367.88,-207.01"/>
<polygon fill="black" stroke="black" points="369.65,-210.03 376.61,-202.04 366.18,-203.95 369.65,-210.03"/>
</g>
<!-- hcp_morphometrics_wf_native_roi -->
<g id="node11" class="node">
<title>hcp_morphometrics_wf_native_roi</title>
<ellipse fill="none" stroke="black" cx="411.19" cy="-113" rx="116.98" ry="18"/>
<text text-anchor="middle" x="411.19" y="-109.3" font-family="Times,serif" font-size="14.00">native_roi (workbench)</text>
</g>
<!-- hcp_morphometrics_wf_select_surfaces&#45;&gt;hcp_morphometrics_wf_native_roi -->
<g id="edge20" class="edge">
<title>hcp_morphometrics_wf_select_surfaces&#45;&gt;hcp_morphometrics_wf_native_roi</title>
<path fill="none" stroke="black" d="M306.23,-382.78C288.51,-341.69 250.77,-236.14 295.19,-167 305.34,-151.2 321.5,-140.06 338.56,-132.21"/>
<polygon fill="black" stroke="black" points="340.25,-135.3 348.1,-128.19 337.53,-128.85 340.25,-135.3"/>
</g>
<!-- hcp_morphometrics_wf_invert_curv&#45;&gt;hcp_morphometrics_wf_dilate_curv -->
<g id="edge21" class="edge">
<title>hcp_morphometrics_wf_invert_curv&#45;&gt;hcp_morphometrics_wf_dilate_curv</title>
<path fill="none" stroke="black" d="M120.17,-310.7C121.05,-302.98 122.11,-293.71 123.09,-285.11"/>
<polygon fill="black" stroke="black" points="126.58,-285.44 124.24,-275.1 119.63,-284.64 126.58,-285.44"/>
</g>
<!-- hcp_morphometrics_wf_outputnode -->
<g id="node12" class="node">
<title>hcp_morphometrics_wf_outputnode</title>
<ellipse fill="none" stroke="black" cx="483.19" cy="-41" rx="101.28" ry="18"/>
<text text-anchor="middle" x="483.19" y="-37.3" font-family="Times,serif" font-size="14.00">outputnode (utility)</text>
</g>
<!-- hcp_morphometrics_wf_invert_sulc&#45;&gt;hcp_morphometrics_wf_outputnode -->
<g id="edge22" class="edge">
<title>hcp_morphometrics_wf_invert_sulc&#45;&gt;hcp_morphometrics_wf_outputnode</title>
<path fill="none" stroke="black" d="M763.44,-316.94C787.7,-309.36 812.66,-296.56 827.19,-275 836.14,-261.73 835.22,-252.84 827.19,-239 767.82,-136.58 632.93,-82.86 550.81,-58.63"/>
<polygon fill="black" stroke="black" points="551.65,-55.23 541.07,-55.82 549.71,-61.95 551.65,-55.23"/>
</g>
<!-- hcp_morphometrics_wf_abs_thickness&#45;&gt;hcp_morphometrics_wf_dilate_thickness -->
<g id="edge23" class="edge">
<title>hcp_morphometrics_wf_abs_thickness&#45;&gt;hcp_morphometrics_wf_dilate_thickness</title>
<path fill="none" stroke="black" d="M485.18,-310.7C485.62,-302.98 486.15,-293.71 486.64,-285.11"/>
<polygon fill="black" stroke="black" points="490.14,-285.29 487.22,-275.1 483.15,-284.89 490.14,-285.29"/>
</g>
<!-- hcp_morphometrics_wf_abs_thickness&#45;&gt;hcp_morphometrics_wf_initial_roi -->
<g id="edge24" class="edge">
<title>hcp_morphometrics_wf_abs_thickness&#45;&gt;hcp_morphometrics_wf_initial_roi</title>
<path fill="none" stroke="black" d="M536.51,-313.41C577.43,-302 634.3,-286.14 676.72,-274.31"/>
<polygon fill="black" stroke="black" points="677.66,-277.68 686.36,-271.62 675.78,-270.93 677.66,-277.68"/>
</g>
<!-- hcp_morphometrics_wf_dilate_curv&#45;&gt;hcp_morphometrics_wf_outputnode -->
<g id="edge25" class="edge">
<title>hcp_morphometrics_wf_dilate_curv&#45;&gt;hcp_morphometrics_wf_outputnode</title>
<path fill="none" stroke="black" d="M138.06,-238.98C161.97,-206.01 219.31,-133.3 285.19,-95 318.94,-75.38 360.11,-62.85 396.16,-54.92"/>
<polygon fill="black" stroke="black" points="397.12,-58.3 406.18,-52.81 395.67,-51.45 397.12,-58.3"/>
</g>
<!-- hcp_morphometrics_wf_dilate_thickness&#45;&gt;hcp_morphometrics_wf_outputnode -->
<g id="edge26" class="edge">
<title>hcp_morphometrics_wf_dilate_thickness&#45;&gt;hcp_morphometrics_wf_outputnode</title>
<path fill="none" stroke="black" d="M510.09,-239.11C520.42,-229.73 531.67,-217.12 537.19,-203 554.69,-158.3 555.77,-139.26 537.19,-95 532.47,-83.76 524.08,-73.7 515.29,-65.45"/>
<polygon fill="black" stroke="black" points="517.39,-62.63 507.56,-58.67 512.78,-67.89 517.39,-62.63"/>
</g>
<!-- hcp_morphometrics_wf_initial_roi&#45;&gt;hcp_morphometrics_wf_fill_holes -->
<g id="edge27" class="edge">
<title>hcp_morphometrics_wf_initial_roi&#45;&gt;hcp_morphometrics_wf_fill_holes</title>
<path fill="none" stroke="black" d="M678.9,-243.65C626.14,-232.07 546.99,-214.7 489.36,-202.06"/>
<polygon fill="black" stroke="black" points="490.1,-198.64 479.59,-199.91 488.6,-205.47 490.1,-198.64"/>
</g>
<!-- hcp_morphometrics_wf_fill_holes&#45;&gt;hcp_morphometrics_wf_native_roi -->
<g id="edge28" class="edge">
<title>hcp_morphometrics_wf_fill_holes&#45;&gt;hcp_morphometrics_wf_native_roi</title>
<path fill="none" stroke="black" d="M414.96,-166.7C414.41,-158.98 413.74,-149.71 413.13,-141.11"/>
<polygon fill="black" stroke="black" points="416.62,-140.83 412.41,-131.1 409.64,-141.33 416.62,-140.83"/>
</g>
<!-- hcp_morphometrics_wf_native_roi&#45;&gt;hcp_morphometrics_wf_outputnode -->
<g id="edge29" class="edge">
<title>hcp_morphometrics_wf_native_roi&#45;&gt;hcp_morphometrics_wf_outputnode</title>
<path fill="none" stroke="black" d="M428.62,-95.05C437.64,-86.28 448.81,-75.43 458.68,-65.83"/>
<polygon fill="black" stroke="black" points="461.19,-68.27 465.92,-58.79 456.31,-63.25 461.19,-68.27"/>
</g>
</g>
</svg>
