<?xml version="1.0" encoding="UTF-8" standalone="no"?>
<!DOCTYPE svg PUBLIC "-//W3C//DTD SVG 1.1//EN"
 "http://www.w3.org/Graphics/SVG/1.1/DTD/svg11.dtd">
<!-- Generated by graphviz version 2.43.0 (0)
 -->
<!-- Title: %3 Pages: 1 -->
<svg width="656pt" height="260pt"
 viewBox="0.00 0.00 655.57 260.00" xmlns="http://www.w3.org/2000/svg" xmlns:xlink="http://www.w3.org/1999/xlink">
<g id="graph0" class="graph" transform="scale(1 1) rotate(0) translate(4 256)">
<title>%3</title>
<polygon fill="white" stroke="transparent" points="-4,4 -4,-256 651.57,-256 651.57,4 -4,4"/>
<!-- inputnode (utility) -->
<g id="node1" class="node">
<title>inputnode (utility)</title>
<ellipse fill="none" stroke="black" cx="323.29" cy="-234" rx="94.78" ry="18"/>
<text text-anchor="middle" x="323.29" y="-230.3" font-family="Times,serif" font-size="14.00">inputnode (utility)</text>
</g>
<!-- create_wm_distvol (workbench) -->
<g id="node2" class="node">
<title>create_wm_distvol (workbench)</title>
<ellipse fill="none" stroke="black" cx="157.29" cy="-162" rx="157.07" ry="18"/>
<text text-anchor="middle" x="157.29" y="-158.3" font-family="Times,serif" font-size="14.00">create_wm_distvol (workbench)</text>
</g>
<!-- inputnode (utility)&#45;&gt;create_wm_distvol (workbench) -->
<g id="edge1" class="edge">
<title>inputnode (utility)&#45;&gt;create_wm_distvol (workbench)</title>
<path fill="none" stroke="black" d="M286.03,-217.29C262.38,-207.32 231.53,-194.31 205.95,-183.52"/>
<polygon fill="black" stroke="black" points="207.01,-180.17 196.44,-179.51 204.29,-186.62 207.01,-180.17"/>
</g>
<!-- create_pial_distvol (workbench) -->
<g id="node3" class="node">
<title>create_pial_distvol (workbench)</title>
<ellipse fill="none" stroke="black" cx="490.29" cy="-162" rx="157.07" ry="18"/>
<text text-anchor="middle" x="490.29" y="-158.3" font-family="Times,serif" font-size="14.00">create_pial_distvol (workbench)</text>
</g>
<!-- inputnode (utility)&#45;&gt;create_pial_distvol (workbench) -->
<g id="edge2" class="edge">
<title>inputnode (utility)&#45;&gt;create_pial_distvol (workbench)</title>
<path fill="none" stroke="black" d="M360.76,-217.29C384.66,-207.27 415.87,-194.19 441.66,-183.38"/>
<polygon fill="black" stroke="black" points="443.03,-186.6 450.9,-179.51 440.32,-180.15 443.03,-186.6"/>
</g>
<!-- make_ribbon (surf) -->
<g id="node4" class="node">
<title>make_ribbon (surf)</title>
<ellipse fill="none" stroke="black" cx="323.29" cy="-90" rx="98.58" ry="18"/>
<text text-anchor="middle" x="323.29" y="-86.3" font-family="Times,serif" font-size="14.00">make_ribbon (surf)</text>
</g>
<!-- create_wm_distvol (workbench)&#45;&gt;make_ribbon (surf) -->
<g id="edge3" class="edge">
<title>create_wm_distvol (workbench)&#45;&gt;make_ribbon (surf)</title>
<path fill="none" stroke="black" d="M196.63,-144.41C220.6,-134.3 251.37,-121.33 276.58,-110.7"/>
<polygon fill="black" stroke="black" points="278.08,-113.86 285.94,-106.75 275.36,-107.41 278.08,-113.86"/>
</g>
<!-- create_pial_distvol (workbench)&#45;&gt;make_ribbon (surf) -->
<g id="edge4" class="edge">
<title>create_pial_distvol (workbench)&#45;&gt;make_ribbon (surf)</title>
<path fill="none" stroke="black" d="M450.71,-144.41C426.59,-134.3 395.64,-121.33 370.28,-110.7"/>
<polygon fill="black" stroke="black" points="371.43,-107.39 360.86,-106.75 368.73,-113.84 371.43,-107.39"/>
</g>
<!-- outputnode (utility) -->
<g id="node5" class="node">
<title>outputnode (utility)</title>
<ellipse fill="none" stroke="black" cx="323.29" cy="-18" rx="101.28" ry="18"/>
<text text-anchor="middle" x="323.29" y="-14.3" font-family="Times,serif" font-size="14.00">outputnode (utility)</text>
</g>
<!-- make_ribbon (surf)&#45;&gt;outputnode (utility) -->
<g id="edge5" class="edge">
<title>make_ribbon (surf)&#45;&gt;outputnode (utility)</title>
<path fill="none" stroke="black" d="M323.29,-71.7C323.29,-63.98 323.29,-54.71 323.29,-46.11"/>
<polygon fill="black" stroke="black" points="326.79,-46.1 323.29,-36.1 319.79,-46.1 326.79,-46.1"/>
</g>
</g>
</svg>
