<?xml version="1.0" encoding="UTF-8" standalone="no"?>
<!DOCTYPE svg PUBLIC "-//W3C//DTD SVG 1.1//EN"
 "http://www.w3.org/Graphics/SVG/1.1/DTD/svg11.dtd">
<!-- Generated by graphviz version 2.43.0 (0)
 -->
<!-- Title: %3 Pages: 1 -->
<svg width="700pt" height="692pt"
 viewBox="0.00 0.00 699.81 692.00" xmlns="http://www.w3.org/2000/svg" xmlns:xlink="http://www.w3.org/1999/xlink">
<g id="graph0" class="graph" transform="scale(1 1) rotate(0) translate(4 688)">
<title>%3</title>
<polygon fill="white" stroke="transparent" points="-4,4 -4,-688 695.81,-688 695.81,4 -4,4"/>
<!-- inputnode (utility) -->
<g id="node1" class="node">
<title>inputnode (utility)</title>
<ellipse fill="none" stroke="black" cx="308.49" cy="-666" rx="94.78" ry="18"/>
<text text-anchor="middle" x="308.49" y="-662.3" font-family="Times,serif" font-size="14.00">inputnode (utility)</text>
</g>
<!-- recon_config (freesurfer) -->
<g id="node2" class="node">
<title>recon_config (freesurfer)</title>
<ellipse fill="none" stroke="black" cx="544.49" cy="-594" rx="125.38" ry="18"/>
<text text-anchor="middle" x="544.49" y="-590.3" font-family="Times,serif" font-size="14.00">recon_config (freesurfer)</text>
</g>
<!-- inputnode (utility)&#45;&gt;recon_config (freesurfer) -->
<g id="edge1" class="edge">
<title>inputnode (utility)&#45;&gt;recon_config (freesurfer)</title>
<path fill="none" stroke="black" d="M357.39,-650.5C393.73,-639.72 443.58,-624.93 482.68,-613.33"/>
<polygon fill="black" stroke="black" points="483.78,-616.66 492.38,-610.46 481.79,-609.94 483.78,-616.66"/>
</g>
<!-- autorecon1 (freesurfer) -->
<g id="node3" class="node">
<title>autorecon1 (freesurfer)</title>
<ellipse fill="none" stroke="black" cx="308.49" cy="-522" rx="119.68" ry="18"/>
<text text-anchor="middle" x="308.49" y="-518.3" font-family="Times,serif" font-size="14.00">autorecon1 (freesurfer)</text>
</g>
<!-- inputnode (utility)&#45;&gt;autorecon1 (freesurfer) -->
<g id="edge2" class="edge">
<title>inputnode (utility)&#45;&gt;autorecon1 (freesurfer)</title>
<path fill="none" stroke="black" d="M256.85,-650.81C237.58,-642.73 217.67,-630.42 206.49,-612 198.18,-598.32 198.18,-589.68 206.49,-576 215.49,-561.17 230.15,-550.3 245.57,-542.41"/>
<polygon fill="black" stroke="black" points="247.15,-545.54 254.71,-538.1 244.17,-539.2 247.15,-545.54"/>
</g>
<!-- fov_check (utility) -->
<g id="node4" class="node">
<title>fov_check (utility)</title>
<ellipse fill="none" stroke="black" cx="308.49" cy="-594" rx="92.88" ry="18"/>
<text text-anchor="middle" x="308.49" y="-590.3" font-family="Times,serif" font-size="14.00">fov_check (utility)</text>
</g>
<!-- inputnode (utility)&#45;&gt;fov_check (utility) -->
<g id="edge3" class="edge">
<title>inputnode (utility)&#45;&gt;fov_check (utility)</title>
<path fill="none" stroke="black" d="M308.49,-647.7C308.49,-639.98 308.49,-630.71 308.49,-622.11"/>
<polygon fill="black" stroke="black" points="311.99,-622.1 308.49,-612.1 304.99,-622.1 311.99,-622.1"/>
</g>
<!-- skull_strip_extern (freesurfer) -->
<g id="node5" class="node">
<title>skull_strip_extern (freesurfer)</title>
<ellipse fill="none" stroke="black" cx="467.49" cy="-450" rx="150.27" ry="18"/>
<text text-anchor="middle" x="467.49" y="-446.3" font-family="Times,serif" font-size="14.00">skull_strip_extern (freesurfer)</text>
</g>
<!-- inputnode (utility)&#45;&gt;skull_strip_extern (freesurfer) -->
<g id="edge4" class="edge">
<title>inputnode (utility)&#45;&gt;skull_strip_extern (freesurfer)</title>
<path fill="none" stroke="black" d="M403.55,-664.97C501.15,-662.68 643.58,-652.27 678.49,-612 731.86,-550.44 610.85,-497.12 530.88,-470.01"/>
<polygon fill="black" stroke="black" points="531.94,-466.68 521.35,-466.84 529.73,-473.32 531.94,-466.68"/>
</g>
<!-- fsnative2t1w_xfm (freesurfer) -->
<g id="node6" class="node">
<title>fsnative2t1w_xfm (freesurfer)</title>
<ellipse fill="none" stroke="black" cx="149.49" cy="-450" rx="149.47" ry="18"/>
<text text-anchor="middle" x="149.49" y="-446.3" font-family="Times,serif" font-size="14.00">fsnative2t1w_xfm (freesurfer)</text>
</g>
<!-- inputnode (utility)&#45;&gt;fsnative2t1w_xfm (freesurfer) -->
<g id="edge5" class="edge">
<title>inputnode (utility)&#45;&gt;fsnative2t1w_xfm (freesurfer)</title>
<path fill="none" stroke="black" d="M256.09,-650.99C234.6,-642.82 211.15,-630.4 195.49,-612 162.84,-573.65 153.31,-513.47 150.56,-478.57"/>
<polygon fill="black" stroke="black" points="154.03,-477.94 149.89,-468.19 147.05,-478.39 154.03,-477.94"/>
</g>
<!-- recon_config (freesurfer)&#45;&gt;autorecon1 (freesurfer) -->
<g id="edge6" class="edge">
<title>recon_config (freesurfer)&#45;&gt;autorecon1 (freesurfer)</title>
<path fill="none" stroke="black" d="M492.4,-577.55C456.27,-566.83 407.99,-552.51 369.96,-541.23"/>
<polygon fill="black" stroke="black" points="370.61,-537.78 360.03,-538.29 368.62,-544.49 370.61,-537.78"/>
</g>
<!-- autorecon_resume_wf -->
<g id="node7" class="node">
<title>autorecon_resume_wf</title>
<ellipse fill="none" stroke="black" cx="467.49" cy="-378" rx="111.58" ry="18"/>
<text text-anchor="middle" x="467.49" y="-374.3" font-family="Times,serif" font-size="14.00">autorecon_resume_wf</text>
</g>
<!-- recon_config (freesurfer)&#45;&gt;autorecon_resume_wf -->
<g id="edge7" class="edge">
<title>recon_config (freesurfer)&#45;&gt;autorecon_resume_wf</title>
<path fill="none" stroke="black" d="M564.98,-576.06C599.29,-545.62 661.33,-480.35 626.49,-432 612.21,-412.19 590.2,-399.67 567.06,-391.79"/>
<polygon fill="black" stroke="black" points="568.04,-388.43 557.45,-388.79 565.96,-395.11 568.04,-388.43"/>
</g>
<!-- autorecon1 (freesurfer)&#45;&gt;skull_strip_extern (freesurfer) -->
<g id="edge8" class="edge">
<title>autorecon1 (freesurfer)&#45;&gt;skull_strip_extern (freesurfer)</title>
<path fill="none" stroke="black" d="M345.36,-504.76C367.8,-494.89 396.66,-482.18 420.69,-471.6"/>
<polygon fill="black" stroke="black" points="422.24,-474.74 429.98,-467.51 419.42,-468.34 422.24,-474.74"/>
</g>
<!-- autorecon1 (freesurfer)&#45;&gt;fsnative2t1w_xfm (freesurfer) -->
<g id="edge9" class="edge">
<title>autorecon1 (freesurfer)&#45;&gt;fsnative2t1w_xfm (freesurfer)</title>
<path fill="none" stroke="black" d="M271.61,-504.76C249.18,-494.89 220.31,-482.18 196.28,-471.6"/>
<polygon fill="black" stroke="black" points="197.55,-468.34 186.99,-467.51 194.73,-474.74 197.55,-468.34"/>
</g>
<!-- fov_check (utility)&#45;&gt;autorecon1 (freesurfer) -->
<g id="edge10" class="edge">
<title>fov_check (utility)&#45;&gt;autorecon1 (freesurfer)</title>
<path fill="none" stroke="black" d="M308.49,-575.7C308.49,-567.98 308.49,-558.71 308.49,-550.11"/>
<polygon fill="black" stroke="black" points="311.99,-550.1 308.49,-540.1 304.99,-550.1 311.99,-550.1"/>
</g>
<!-- skull_strip_extern (freesurfer)&#45;&gt;autorecon_resume_wf -->
<g id="edge11" class="edge">
<title>skull_strip_extern (freesurfer)&#45;&gt;autorecon_resume_wf</title>
<path fill="none" stroke="black" d="M467.49,-431.7C467.49,-423.98 467.49,-414.71 467.49,-406.11"/>
<polygon fill="black" stroke="black" points="470.99,-406.1 467.49,-396.1 463.99,-406.1 470.99,-406.1"/>
</g>
<!-- outputnode (utility) -->
<g id="node12" class="node">
<title>outputnode (utility)</title>
<ellipse fill="none" stroke="black" cx="207.49" cy="-18" rx="101.28" ry="18"/>
<text text-anchor="middle" x="207.49" y="-14.3" font-family="Times,serif" font-size="14.00">outputnode (utility)</text>
</g>
<!-- fsnative2t1w_xfm (freesurfer)&#45;&gt;outputnode (utility) -->
<g id="edge12" class="edge">
<title>fsnative2t1w_xfm (freesurfer)&#45;&gt;outputnode (utility)</title>
<path fill="none" stroke="black" d="M151.26,-431.97C153.89,-405.34 158.49,-352.21 158.49,-307 158.49,-307 158.49,-307 158.49,-161 158.49,-118.78 178.09,-73.16 192.49,-45.33"/>
<polygon fill="black" stroke="black" points="195.71,-46.74 197.33,-36.27 189.54,-43.44 195.71,-46.74"/>
</g>
<!-- get_surfaces (patches) -->
<g id="node8" class="node">
<title>get_surfaces (patches)</title>
<ellipse fill="none" stroke="black" cx="467.49" cy="-306" rx="115.08" ry="18"/>
<text text-anchor="middle" x="467.49" y="-302.3" font-family="Times,serif" font-size="14.00">get_surfaces (patches)</text>
</g>
<!-- autorecon_resume_wf&#45;&gt;get_surfaces (patches) -->
<g id="edge13" class="edge">
<title>autorecon_resume_wf&#45;&gt;get_surfaces (patches)</title>
<path fill="none" stroke="black" d="M467.49,-359.7C467.49,-351.98 467.49,-342.71 467.49,-334.11"/>
<polygon fill="black" stroke="black" points="470.99,-334.1 467.49,-324.1 463.99,-334.1 470.99,-334.1"/>
</g>
<!-- save_midthickness (io) -->
<g id="node9" class="node">
<title>save_midthickness (io)</title>
<ellipse fill="none" stroke="black" cx="310.49" cy="-162" rx="115.88" ry="18"/>
<text text-anchor="middle" x="310.49" y="-158.3" font-family="Times,serif" font-size="14.00">save_midthickness (io)</text>
</g>
<!-- autorecon_resume_wf&#45;&gt;save_midthickness (io) -->
<g id="edge14" class="edge">
<title>autorecon_resume_wf&#45;&gt;save_midthickness (io)</title>
<path fill="none" stroke="black" d="M404.54,-363.08C382.23,-355.15 358.88,-342.86 343.49,-324 312.23,-285.7 308.17,-225.5 308.8,-190.59"/>
<polygon fill="black" stroke="black" points="312.32,-190.31 309.15,-180.2 305.32,-190.08 312.32,-190.31"/>
</g>
<!-- midthickness (freesurfer) -->
<g id="node10" class="node">
<title>midthickness (freesurfer)</title>
<ellipse fill="none" stroke="black" cx="467.49" cy="-234" rx="128.88" ry="18"/>
<text text-anchor="middle" x="467.49" y="-230.3" font-family="Times,serif" font-size="14.00">midthickness (freesurfer)</text>
</g>
<!-- get_surfaces (patches)&#45;&gt;midthickness (freesurfer) -->
<g id="edge15" class="edge">
<title>get_surfaces (patches)&#45;&gt;midthickness (freesurfer)</title>
<path fill="none" stroke="black" d="M467.49,-287.7C467.49,-279.98 467.49,-270.71 467.49,-262.11"/>
<polygon fill="black" stroke="black" points="470.99,-262.1 467.49,-252.1 463.99,-262.1 470.99,-262.1"/>
</g>
<!-- sync (utility) -->
<g id="node11" class="node">
<title>sync (utility)</title>
<ellipse fill="none" stroke="black" cx="279.49" cy="-90" rx="69.59" ry="18"/>
<text text-anchor="middle" x="279.49" y="-86.3" font-family="Times,serif" font-size="14.00">sync (utility)</text>
</g>
<!-- save_midthickness (io)&#45;&gt;sync (utility) -->
<g id="edge16" class="edge">
<title>save_midthickness (io)&#45;&gt;sync (utility)</title>
<path fill="none" stroke="black" d="M302.82,-143.7C299.3,-135.73 295.03,-126.1 291.12,-117.26"/>
<polygon fill="black" stroke="black" points="294.31,-115.83 287.06,-108.1 287.91,-118.67 294.31,-115.83"/>
</g>
<!-- midthickness (freesurfer)&#45;&gt;save_midthickness (io) -->
<g id="edge17" class="edge">
<title>midthickness (freesurfer)&#45;&gt;save_midthickness (io)</title>
<path fill="none" stroke="black" d="M430.68,-216.59C408.35,-206.63 379.69,-193.86 355.96,-183.27"/>
<polygon fill="black" stroke="black" points="357.35,-180.06 346.79,-179.19 354.5,-186.46 357.35,-180.06"/>
</g>
<!-- sync (utility)&#45;&gt;outputnode (utility) -->
<g id="edge18" class="edge">
<title>sync (utility)&#45;&gt;outputnode (utility)</title>
<path fill="none" stroke="black" d="M262.42,-72.41C253.41,-63.65 242.18,-52.73 232.23,-43.06"/>
<polygon fill="black" stroke="black" points="234.54,-40.42 224.93,-35.96 229.66,-45.44 234.54,-40.42"/>
</g>
</g>
</svg>
