<?xml version="1.0" encoding="UTF-8" standalone="no"?>
<!DOCTYPE svg PUBLIC "-//W3C//DTD SVG 1.1//EN"
 "http://www.w3.org/Graphics/SVG/1.1/DTD/svg11.dtd">
<!-- Generated by graphviz version 2.43.0 (0)
 -->
<!-- Title: structs Pages: 1 -->
<svg width="1026pt" height="419pt"
 viewBox="0.00 0.00 1026.00 419.00" xmlns="http://www.w3.org/2000/svg" xmlns:xlink="http://www.w3.org/1999/xlink">
<g id="graph0" class="graph" transform="scale(1 1) rotate(0) translate(4 415)">
<title>structs</title>
<polygon fill="white" stroke="transparent" points="-4,4 -4,-415 1022,-415 1022,4 -4,4"/>
<!-- anat_ribbon_wfinputnode -->
<g id="node1" class="node">
<title>anat_ribbon_wfinputnode</title>
<polygon fill="none" stroke="black" points="0,-318.5 0,-410.5 188,-410.5 188,-318.5 0,-318.5"/>
<text text-anchor="middle" x="17" y="-360.8" font-family="Times,serif" font-size="14.00">IN</text>
<polyline fill="none" stroke="black" points="34,-318.5 34,-410.5 "/>
<text text-anchor="middle" x="78.5" y="-391.8" font-family="Times,serif" font-size="14.00">inputnode</text>
<polyline fill="none" stroke="black" points="34,-380.5 123,-380.5 "/>
<text text-anchor="middle" x="78.5" y="-361.3" font-family="Times,serif" font-size="14.00">utility</text>
<polyline fill="none" stroke="black" points="34,-349.5 123,-349.5 "/>
<text text-anchor="middle" x="78.5" y="-330.3" font-family="Times,serif" font-size="14.00"> </text>
<polyline fill="none" stroke="black" points="123,-318.5 123,-410.5 "/>
<text text-anchor="middle" x="155.5" y="-395.3" font-family="Times,serif" font-size="14.00">OUT</text>
<polyline fill="none" stroke="black" points="123,-387.5 188,-387.5 "/>
<text text-anchor="middle" x="155.5" y="-372.3" font-family="Times,serif" font-size="14.00">pial</text>
<polyline fill="none" stroke="black" points="123,-364.5 188,-364.5 "/>
<text text-anchor="middle" x="155.5" y="-349.3" font-family="Times,serif" font-size="14.00">ref_file</text>
<polyline fill="none" stroke="black" points="123,-341.5 188,-341.5 "/>
<text text-anchor="middle" x="155.5" y="-326.3" font-family="Times,serif" font-size="14.00">white</text>
</g>
<!-- anat_ribbon_wfcreate_wm_distvol -->
<g id="node2" class="node">
<title>anat_ribbon_wfcreate_wm_distvol</title>
<polygon fill="none" stroke="black" points="34.5,-212.5 34.5,-281.5 325.5,-281.5 325.5,-212.5 34.5,-212.5"/>
<text text-anchor="middle" x="71.5" y="-266.3" font-family="Times,serif" font-size="14.00">IN</text>
<polyline fill="none" stroke="black" points="34.5,-258.5 108.5,-258.5 "/>
<text text-anchor="middle" x="71.5" y="-243.3" font-family="Times,serif" font-size="14.00">ref_file</text>
<polyline fill="none" stroke="black" points="34.5,-235.5 108.5,-235.5 "/>
<text text-anchor="middle" x="71.5" y="-220.3" font-family="Times,serif" font-size="14.00">surf_file</text>
<polyline fill="none" stroke="black" points="108.5,-212.5 108.5,-281.5 "/>
<text text-anchor="middle" x="183" y="-266.3" font-family="Times,serif" font-size="14.00">create_wm_distvol</text>
<polyline fill="none" stroke="black" points="108.5,-258.5 257.5,-258.5 "/>
<text text-anchor="middle" x="183" y="-243.3" font-family="Times,serif" font-size="14.00">workbench</text>
<polyline fill="none" stroke="black" points="108.5,-235.5 257.5,-235.5 "/>
<text text-anchor="middle" x="183" y="-220.3" font-family="Times,serif" font-size="14.00"> </text>
<polyline fill="none" stroke="black" points="257.5,-212.5 257.5,-281.5 "/>
<text text-anchor="middle" x="291.5" y="-260.8" font-family="Times,serif" font-size="14.00">OUT</text>
<polyline fill="none" stroke="black" points="257.5,-247.5 325.5,-247.5 "/>
<text text-anchor="middle" x="291.5" y="-226.3" font-family="Times,serif" font-size="14.00">out_file</text>
</g>
<!-- anat_ribbon_wfinputnode&#45;&gt;anat_ribbon_wfcreate_wm_distvol -->
<g id="edge5" class="edge">
<title>anat_ribbon_wfinputnode:e&#45;&gt;anat_ribbon_wfcreate_wm_distvol:w</title>
<path fill="none" stroke="black" d="M189,-352.5C204.34,-352.5 197.71,-329.88 188,-318 143.53,-263.57 78.46,-336.44 34,-282 27.23,-273.71 21.94,-260.28 24.35,-252.69"/>
<polygon fill="black" stroke="black" points="26.57,-255.42 33,-247 22.72,-249.57 26.57,-255.42"/>
</g>
<!-- anat_ribbon_wfinputnode&#45;&gt;anat_ribbon_wfcreate_wm_distvol -->
<g id="edge6" class="edge">
<title>anat_ribbon_wfinputnode:e&#45;&gt;anat_ribbon_wfcreate_wm_distvol:w</title>
<path fill="none" stroke="black" d="M189,-329.5C194.13,-329.5 191.36,-321.88 188,-318 141.97,-264.88 78.15,-336.69 34,-282 20.46,-265.23 10.84,-235.97 23.11,-226.82"/>
<polygon fill="black" stroke="black" points="24.34,-230.11 33,-224 22.42,-223.37 24.34,-230.11"/>
</g>
<!-- anat_ribbon_wfcreate_pial_distvol -->
<g id="node3" class="node">
<title>anat_ribbon_wfcreate_pial_distvol</title>
<polygon fill="none" stroke="black" points="343.5,-212.5 343.5,-281.5 634.5,-281.5 634.5,-212.5 343.5,-212.5"/>
<text text-anchor="middle" x="380.5" y="-266.3" font-family="Times,serif" font-size="14.00">IN</text>
<polyline fill="none" stroke="black" points="343.5,-258.5 417.5,-258.5 "/>
<text text-anchor="middle" x="380.5" y="-243.3" font-family="Times,serif" font-size="14.00">ref_file</text>
<polyline fill="none" stroke="black" points="343.5,-235.5 417.5,-235.5 "/>
<text text-anchor="middle" x="380.5" y="-220.3" font-family="Times,serif" font-size="14.00">surf_file</text>
<polyline fill="none" stroke="black" points="417.5,-212.5 417.5,-281.5 "/>
<text text-anchor="middle" x="492" y="-266.3" font-family="Times,serif" font-size="14.00">create_pial_distvol</text>
<polyline fill="none" stroke="black" points="417.5,-258.5 566.5,-258.5 "/>
<text text-anchor="middle" x="492" y="-243.3" font-family="Times,serif" font-size="14.00">workbench</text>
<polyline fill="none" stroke="black" points="417.5,-235.5 566.5,-235.5 "/>
<text text-anchor="middle" x="492" y="-220.3" font-family="Times,serif" font-size="14.00"> </text>
<polyline fill="none" stroke="black" points="566.5,-212.5 566.5,-281.5 "/>
<text text-anchor="middle" x="600.5" y="-260.8" font-family="Times,serif" font-size="14.00">OUT</text>
<polyline fill="none" stroke="black" points="566.5,-247.5 634.5,-247.5 "/>
<text text-anchor="middle" x="600.5" y="-226.3" font-family="Times,serif" font-size="14.00">out_file</text>
</g>
<!-- anat_ribbon_wfinputnode&#45;&gt;anat_ribbon_wfcreate_pial_distvol -->
<g id="edge3" class="edge">
<title>anat_ribbon_wfinputnode:e&#45;&gt;anat_ribbon_wfcreate_pial_distvol:w</title>
<path fill="none" stroke="black" d="M189,-376.5C265.92,-376.5 292.81,-346.96 334,-282 339.12,-273.93 334.02,-246.43 336.1,-232.39"/>
<polygon fill="black" stroke="black" points="339.11,-234.19 342,-224 333.39,-230.17 339.11,-234.19"/>
</g>
<!-- anat_ribbon_wfinputnode&#45;&gt;anat_ribbon_wfcreate_pial_distvol -->
<g id="edge4" class="edge">
<title>anat_ribbon_wfinputnode:e&#45;&gt;anat_ribbon_wfcreate_pial_distvol:w</title>
<path fill="none" stroke="black" d="M189,-352.5C260.66,-352.5 289.42,-338.1 334,-282 340.36,-274 335.31,-261.88 335.05,-254.21"/>
<polygon fill="black" stroke="black" points="337.58,-256.63 342,-247 332.54,-251.77 337.58,-256.63"/>
</g>
<!-- anat_ribbon_wfmake_ribbon -->
<g id="node4" class="node">
<title>anat_ribbon_wfmake_ribbon</title>
<polygon fill="none" stroke="black" points="480,-106.5 480,-175.5 770,-175.5 770,-106.5 480,-106.5"/>
<text text-anchor="middle" x="539.5" y="-160.3" font-family="Times,serif" font-size="14.00">IN</text>
<polyline fill="none" stroke="black" points="480,-152.5 599,-152.5 "/>
<text text-anchor="middle" x="539.5" y="-137.3" font-family="Times,serif" font-size="14.00">pial_distvols</text>
<polyline fill="none" stroke="black" points="480,-129.5 599,-129.5 "/>
<text text-anchor="middle" x="539.5" y="-114.3" font-family="Times,serif" font-size="14.00">white_distvols</text>
<polyline fill="none" stroke="black" points="599,-106.5 599,-175.5 "/>
<text text-anchor="middle" x="653" y="-160.3" font-family="Times,serif" font-size="14.00">make_ribbon</text>
<polyline fill="none" stroke="black" points="599,-152.5 707,-152.5 "/>
<text text-anchor="middle" x="653" y="-137.3" font-family="Times,serif" font-size="14.00">surf</text>
<polyline fill="none" stroke="black" points="599,-129.5 707,-129.5 "/>
<text text-anchor="middle" x="653" y="-114.3" font-family="Times,serif" font-size="14.00"> </text>
<polyline fill="none" stroke="black" points="707,-106.5 707,-175.5 "/>
<text text-anchor="middle" x="738.5" y="-154.8" font-family="Times,serif" font-size="14.00">OUT</text>
<polyline fill="none" stroke="black" points="707,-141.5 770,-141.5 "/>
<text text-anchor="middle" x="738.5" y="-120.3" font-family="Times,serif" font-size="14.00">ribbon</text>
</g>
<!-- anat_ribbon_wfcreate_wm_distvol&#45;&gt;anat_ribbon_wfmake_ribbon -->
<g id="edge2" class="edge">
<title>anat_ribbon_wfcreate_wm_distvol:e&#45;&gt;anat_ribbon_wfmake_ribbon:w</title>
<path fill="none" stroke="black" d="M327,-230C335.58,-230 328.58,-218.66 334,-212 380.31,-155.11 400.37,-121.14 468.99,-118.21"/>
<polygon fill="black" stroke="black" points="469.07,-121.71 479,-118 468.93,-114.71 469.07,-121.71"/>
</g>
<!-- anat_ribbon_wfcreate_pial_distvol&#45;&gt;anat_ribbon_wfmake_ribbon -->
<g id="edge1" class="edge">
<title>anat_ribbon_wfcreate_pial_distvol:e&#45;&gt;anat_ribbon_wfmake_ribbon:w</title>
<path fill="none" stroke="black" d="M636,-230C644.01,-230 640.16,-218.13 635,-212 589.49,-157.86 524.78,-230.74 480,-176 473.23,-167.72 467.94,-154.28 470.35,-146.69"/>
<polygon fill="black" stroke="black" points="472.57,-149.42 479,-141 468.72,-143.57 472.57,-149.42"/>
</g>
<!-- anat_ribbon_wfoutputnode -->
<g id="node5" class="node">
<title>anat_ribbon_wfoutputnode</title>
<polygon fill="none" stroke="black" points="770,-0.5 770,-69.5 1018,-69.5 1018,-0.5 770,-0.5"/>
<text text-anchor="middle" x="820.5" y="-48.8" font-family="Times,serif" font-size="14.00">IN</text>
<polyline fill="none" stroke="black" points="770,-35.5 871,-35.5 "/>
<text text-anchor="middle" x="820.5" y="-14.3" font-family="Times,serif" font-size="14.00">anat_ribbon</text>
<polyline fill="none" stroke="black" points="871,-0.5 871,-69.5 "/>
<text text-anchor="middle" x="920" y="-54.3" font-family="Times,serif" font-size="14.00">outputnode</text>
<polyline fill="none" stroke="black" points="871,-46.5 969,-46.5 "/>
<text text-anchor="middle" x="920" y="-31.3" font-family="Times,serif" font-size="14.00">utility</text>
<polyline fill="none" stroke="black" points="871,-23.5 969,-23.5 "/>
<text text-anchor="middle" x="920" y="-8.3" font-family="Times,serif" font-size="14.00"> </text>
<polyline fill="none" stroke="black" points="969,-0.5 969,-69.5 "/>
<text text-anchor="middle" x="993.5" y="-31.3" font-family="Times,serif" font-size="14.00">OUT</text>
</g>
<!-- anat_ribbon_wfmake_ribbon&#45;&gt;anat_ribbon_wfoutputnode -->
<g id="edge7" class="edge">
<title>anat_ribbon_wfmake_ribbon:e&#45;&gt;anat_ribbon_wfoutputnode:w</title>
<path fill="none" stroke="black" d="M771,-124C813.7,-124 738.67,-36.94 759.29,-20.62"/>
<polygon fill="black" stroke="black" points="760.26,-23.98 769,-18 758.43,-17.23 760.26,-23.98"/>
</g>
</g>
</svg>
