<?xml version="1.0" encoding="UTF-8" standalone="no"?>
<!DOCTYPE svg PUBLIC "-//W3C//DTD SVG 1.1//EN"
 "http://www.w3.org/Graphics/SVG/1.1/DTD/svg11.dtd">
<!-- Generated by graphviz version 2.43.0 (0)
 -->
<!-- Title: structs Pages: 1 -->
<svg width="1420pt" height="709pt"
 viewBox="0.00 0.00 1419.86 709.00" xmlns="http://www.w3.org/2000/svg" xmlns:xlink="http://www.w3.org/1999/xlink">
<g id="graph0" class="graph" transform="scale(1 1) rotate(0) translate(4 705)">
<title>structs</title>
<polygon fill="white" stroke="transparent" points="-4,4 -4,-705 1415.86,-705 1415.86,4 -4,4"/>
<!-- register_template_wfinputnode -->
<g id="node1" class="node">
<title>register_template_wfinputnode</title>
<polygon fill="none" stroke="black" points="227.86,-585.5 227.86,-700.5 469.86,-700.5 469.86,-585.5 227.86,-585.5"/>
<text text-anchor="middle" x="244.86" y="-639.3" font-family="Times,serif" font-size="14.00">IN</text>
<polyline fill="none" stroke="black" points="261.86,-585.5 261.86,-700.5 "/>
<text text-anchor="middle" x="306.36" y="-677.8" font-family="Times,serif" font-size="14.00">inputnode</text>
<polyline fill="none" stroke="black" points="261.86,-662.5 350.86,-662.5 "/>
<text text-anchor="middle" x="306.36" y="-639.8" font-family="Times,serif" font-size="14.00">utility</text>
<polyline fill="none" stroke="black" points="261.86,-624.5 350.86,-624.5 "/>
<text text-anchor="middle" x="306.36" y="-601.3" font-family="Times,serif" font-size="14.00"> </text>
<polyline fill="none" stroke="black" points="350.86,-585.5 350.86,-700.5 "/>
<text text-anchor="middle" x="410.36" y="-685.3" font-family="Times,serif" font-size="14.00">OUT</text>
<polyline fill="none" stroke="black" points="350.86,-677.5 469.86,-677.5 "/>
<text text-anchor="middle" x="410.36" y="-662.3" font-family="Times,serif" font-size="14.00">lesion_mask</text>
<polyline fill="none" stroke="black" points="350.86,-654.5 469.86,-654.5 "/>
<text text-anchor="middle" x="410.36" y="-639.3" font-family="Times,serif" font-size="14.00">moving_image</text>
<polyline fill="none" stroke="black" points="350.86,-631.5 469.86,-631.5 "/>
<text text-anchor="middle" x="410.36" y="-616.3" font-family="Times,serif" font-size="14.00">moving_mask</text>
<polyline fill="none" stroke="black" points="350.86,-608.5 469.86,-608.5 "/>
<text text-anchor="middle" x="410.36" y="-593.3" font-family="Times,serif" font-size="14.00">template</text>
</g>
<!-- register_template_wfsplit_desc -->
<g id="node2" class="node">
<title>register_template_wfsplit_desc</title>
<polygon fill="none" stroke="black" points="66.86,-479.5 66.86,-548.5 312.86,-548.5 312.86,-479.5 66.86,-479.5"/>
<text text-anchor="middle" x="106.86" y="-527.8" font-family="Times,serif" font-size="14.00">IN</text>
<polyline fill="none" stroke="black" points="66.86,-514.5 146.86,-514.5 "/>
<text text-anchor="middle" x="106.86" y="-493.3" font-family="Times,serif" font-size="14.00">template</text>
<polyline fill="none" stroke="black" points="146.86,-479.5 146.86,-548.5 "/>
<text text-anchor="middle" x="201.86" y="-533.3" font-family="Times,serif" font-size="14.00">split_desc</text>
<polyline fill="none" stroke="black" points="146.86,-525.5 256.86,-525.5 "/>
<text text-anchor="middle" x="201.86" y="-510.3" font-family="Times,serif" font-size="14.00">templateflow</text>
<polyline fill="none" stroke="black" points="146.86,-502.5 256.86,-502.5 "/>
<text text-anchor="middle" x="201.86" y="-487.3" font-family="Times,serif" font-size="14.00"> </text>
<polyline fill="none" stroke="black" points="256.86,-479.5 256.86,-548.5 "/>
<text text-anchor="middle" x="284.86" y="-533.3" font-family="Times,serif" font-size="14.00">OUT</text>
<polyline fill="none" stroke="black" points="256.86,-525.5 312.86,-525.5 "/>
<text text-anchor="middle" x="284.86" y="-510.3" font-family="Times,serif" font-size="14.00">name</text>
<polyline fill="none" stroke="black" points="256.86,-502.5 312.86,-502.5 "/>
<text text-anchor="middle" x="284.86" y="-487.3" font-family="Times,serif" font-size="14.00">spec</text>
</g>
<!-- register_template_wfinputnode&#45;&gt;register_template_wfsplit_desc -->
<g id="edge6" class="edge">
<title>register_template_wfinputnode:e&#45;&gt;register_template_wfsplit_desc:w</title>
<path fill="none" stroke="black" d="M470.86,-597C476.22,-597 473.64,-588.8 469.86,-585 406.48,-521.23 128.18,-614.76 66.86,-549 53.93,-535.13 45.99,-509.02 56.31,-500.09"/>
<polygon fill="black" stroke="black" points="57.43,-503.41 65.86,-497 55.27,-496.75 57.43,-503.41"/>
</g>
<!-- register_template_wftrunc_mov -->
<g id="node3" class="node">
<title>register_template_wftrunc_mov</title>
<polygon fill="none" stroke="black" points="331.36,-479.5 331.36,-548.5 580.36,-548.5 580.36,-479.5 331.36,-479.5"/>
<text text-anchor="middle" x="352.86" y="-527.8" font-family="Times,serif" font-size="14.00">IN</text>
<polyline fill="none" stroke="black" points="331.36,-514.5 374.36,-514.5 "/>
<text text-anchor="middle" x="352.86" y="-493.3" font-family="Times,serif" font-size="14.00">op1</text>
<polyline fill="none" stroke="black" points="374.36,-479.5 374.36,-548.5 "/>
<text text-anchor="middle" x="420.36" y="-533.3" font-family="Times,serif" font-size="14.00">trunc_mov</text>
<polyline fill="none" stroke="black" points="374.36,-525.5 466.36,-525.5 "/>
<text text-anchor="middle" x="420.36" y="-510.3" font-family="Times,serif" font-size="14.00">ants</text>
<polyline fill="none" stroke="black" points="374.36,-502.5 466.36,-502.5 "/>
<text text-anchor="middle" x="420.36" y="-487.3" font-family="Times,serif" font-size="14.00"> </text>
<polyline fill="none" stroke="black" points="466.36,-479.5 466.36,-548.5 "/>
<text text-anchor="middle" x="523.36" y="-527.8" font-family="Times,serif" font-size="14.00">OUT</text>
<polyline fill="none" stroke="black" points="466.36,-514.5 580.36,-514.5 "/>
<text text-anchor="middle" x="523.36" y="-493.3" font-family="Times,serif" font-size="14.00">output_image</text>
</g>
<!-- register_template_wfinputnode&#45;&gt;register_template_wftrunc_mov -->
<g id="edge4" class="edge">
<title>register_template_wfinputnode:e&#45;&gt;register_template_wftrunc_mov:w</title>
<path fill="none" stroke="black" d="M470.86,-643C496.65,-643 485.82,-605.25 469.86,-585 430.37,-534.87 370.41,-599.09 330.86,-549 325.66,-542.41 321.39,-517.95 323.88,-505.06"/>
<polygon fill="black" stroke="black" points="326.71,-507.11 329.86,-497 321.09,-502.94 326.71,-507.11"/>
</g>
<!-- register_template_wfregistration -->
<g id="node6" class="node">
<title>register_template_wfregistration</title>
<polygon fill="none" stroke="black" points="585.36,-304.5 585.36,-442.5 1032.36,-442.5 1032.36,-304.5 585.36,-304.5"/>
<text text-anchor="middle" x="644.86" y="-427.3" font-family="Times,serif" font-size="14.00">IN</text>
<polyline fill="none" stroke="black" points="585.36,-419.5 704.36,-419.5 "/>
<text text-anchor="middle" x="644.86" y="-404.3" font-family="Times,serif" font-size="14.00">lesion_mask</text>
<polyline fill="none" stroke="black" points="585.36,-396.5 704.36,-396.5 "/>
<text text-anchor="middle" x="644.86" y="-381.3" font-family="Times,serif" font-size="14.00">moving_image</text>
<polyline fill="none" stroke="black" points="585.36,-373.5 704.36,-373.5 "/>
<text text-anchor="middle" x="644.86" y="-358.3" font-family="Times,serif" font-size="14.00">moving_mask</text>
<polyline fill="none" stroke="black" points="585.36,-350.5 704.36,-350.5 "/>
<text text-anchor="middle" x="644.86" y="-335.3" font-family="Times,serif" font-size="14.00">template</text>
<polyline fill="none" stroke="black" points="585.36,-327.5 704.36,-327.5 "/>
<text text-anchor="middle" x="644.86" y="-312.3" font-family="Times,serif" font-size="14.00">template_spec</text>
<polyline fill="none" stroke="black" points="704.36,-304.5 704.36,-442.5 "/>
<text text-anchor="middle" x="754.86" y="-415.8" font-family="Times,serif" font-size="14.00">registration</text>
<polyline fill="none" stroke="black" points="704.36,-396.5 805.36,-396.5 "/>
<text text-anchor="middle" x="754.86" y="-369.8" font-family="Times,serif" font-size="14.00">norm</text>
<polyline fill="none" stroke="black" points="704.36,-350.5 805.36,-350.5 "/>
<text text-anchor="middle" x="754.86" y="-323.8" font-family="Times,serif" font-size="14.00"> </text>
<polyline fill="none" stroke="black" points="805.36,-304.5 805.36,-442.5 "/>
<text text-anchor="middle" x="918.86" y="-415.8" font-family="Times,serif" font-size="14.00">OUT</text>
<polyline fill="none" stroke="black" points="805.36,-396.5 1032.36,-396.5 "/>
<text text-anchor="middle" x="918.86" y="-369.8" font-family="Times,serif" font-size="14.00">composite_transform</text>
<polyline fill="none" stroke="black" points="805.36,-350.5 1032.36,-350.5 "/>
<text text-anchor="middle" x="918.86" y="-323.8" font-family="Times,serif" font-size="14.00">inverse_composite_transform</text>
</g>
<!-- register_template_wfinputnode&#45;&gt;register_template_wfregistration -->
<g id="edge3" class="edge">
<title>register_template_wfinputnode:e&#45;&gt;register_template_wfregistration:w</title>
<path fill="none" stroke="black" d="M470.86,-666C544.72,-666 560.46,-617.17 588.86,-549 607,-505.48 588.15,-490.03 584.86,-443 584.22,-433.79 578.44,-423.18 577.27,-416.18"/>
<polygon fill="black" stroke="black" points="580.01,-418.37 583.86,-408.5 574.7,-413.81 580.01,-418.37"/>
</g>
<!-- register_template_wfinputnode&#45;&gt;register_template_wfregistration -->
<g id="edge5" class="edge">
<title>register_template_wfinputnode:e&#45;&gt;register_template_wfregistration:w</title>
<path fill="none" stroke="black" d="M470.86,-620C538.66,-620 570.82,-607.03 605.86,-549 621.95,-522.37 613.98,-509.03 605.86,-479 601.03,-461.12 589.81,-460.85 584.86,-443 582.99,-436.22 577.95,-390.73 580.06,-370.81"/>
<polygon fill="black" stroke="black" points="583.32,-372.08 583.86,-361.5 576.84,-369.43 583.32,-372.08"/>
</g>
<!-- register_template_wftf_select -->
<g id="node4" class="node">
<title>register_template_wftf_select</title>
<polygon fill="none" stroke="black" points="16.86,-339 16.86,-408 294.86,-408 294.86,-339 16.86,-339"/>
<text text-anchor="middle" x="76.36" y="-392.8" font-family="Times,serif" font-size="14.00">IN</text>
<polyline fill="none" stroke="black" points="16.86,-385 135.86,-385 "/>
<text text-anchor="middle" x="76.36" y="-369.8" font-family="Times,serif" font-size="14.00">template</text>
<polyline fill="none" stroke="black" points="16.86,-362 135.86,-362 "/>
<text text-anchor="middle" x="76.36" y="-346.8" font-family="Times,serif" font-size="14.00">template_spec</text>
<polyline fill="none" stroke="black" points="135.86,-339 135.86,-408 "/>
<text text-anchor="middle" x="190.86" y="-392.8" font-family="Times,serif" font-size="14.00">tf_select</text>
<polyline fill="none" stroke="black" points="135.86,-385 245.86,-385 "/>
<text text-anchor="middle" x="190.86" y="-369.8" font-family="Times,serif" font-size="14.00">templateflow</text>
<polyline fill="none" stroke="black" points="135.86,-362 245.86,-362 "/>
<text text-anchor="middle" x="190.86" y="-346.8" font-family="Times,serif" font-size="14.00"> </text>
<polyline fill="none" stroke="black" points="245.86,-339 245.86,-408 "/>
<text text-anchor="middle" x="270.36" y="-369.8" font-family="Times,serif" font-size="14.00">OUT</text>
</g>
<!-- register_template_wfsplit_desc&#45;&gt;register_template_wftf_select -->
<g id="edge15" class="edge">
<title>register_template_wfsplit_desc:e&#45;&gt;register_template_wftf_select:w</title>
<path fill="none" stroke="black" d="M313.86,-514C321.65,-514 317.77,-485.04 312.86,-479 227.54,-374.08 102.19,-513.42 16.86,-408.5 10.11,-400.2 4.82,-386.77 7.22,-379.19"/>
<polygon fill="black" stroke="black" points="9.43,-381.92 15.86,-373.5 5.59,-376.07 9.43,-381.92"/>
</g>
<!-- register_template_wfsplit_desc&#45;&gt;register_template_wftf_select -->
<g id="edge18" class="edge">
<title>register_template_wfsplit_desc:e&#45;&gt;register_template_wftf_select:w</title>
<path fill="none" stroke="black" d="M313.86,-491C319.22,-491 316.35,-483.06 312.86,-479 224.71,-376.45 101.6,-513.9 16.86,-408.5 3.36,-391.7 -6.28,-362.46 5.98,-353.31"/>
<polygon fill="black" stroke="black" points="7.21,-356.6 15.86,-350.5 5.29,-349.87 7.21,-356.6"/>
</g>
<!-- register_template_wffmt_cohort -->
<g id="node5" class="node">
<title>register_template_wffmt_cohort</title>
<polygon fill="none" stroke="black" points="312.86,-339 312.86,-408 566.86,-408 566.86,-339 312.86,-339"/>
<text text-anchor="middle" x="352.86" y="-392.8" font-family="Times,serif" font-size="14.00">IN</text>
<polyline fill="none" stroke="black" points="312.86,-385 392.86,-385 "/>
<text text-anchor="middle" x="352.86" y="-369.8" font-family="Times,serif" font-size="14.00">spec</text>
<polyline fill="none" stroke="black" points="312.86,-362 392.86,-362 "/>
<text text-anchor="middle" x="352.86" y="-346.8" font-family="Times,serif" font-size="14.00">template</text>
<polyline fill="none" stroke="black" points="392.86,-339 392.86,-408 "/>
<text text-anchor="middle" x="439.86" y="-392.8" font-family="Times,serif" font-size="14.00">fmt_cohort</text>
<polyline fill="none" stroke="black" points="392.86,-385 486.86,-385 "/>
<text text-anchor="middle" x="439.86" y="-369.8" font-family="Times,serif" font-size="14.00">utility</text>
<polyline fill="none" stroke="black" points="392.86,-362 486.86,-362 "/>
<text text-anchor="middle" x="439.86" y="-346.8" font-family="Times,serif" font-size="14.00"> </text>
<polyline fill="none" stroke="black" points="486.86,-339 486.86,-408 "/>
<text text-anchor="middle" x="526.86" y="-392.8" font-family="Times,serif" font-size="14.00">OUT</text>
<polyline fill="none" stroke="black" points="486.86,-385 566.86,-385 "/>
<text text-anchor="middle" x="526.86" y="-369.8" font-family="Times,serif" font-size="14.00">spec</text>
<polyline fill="none" stroke="black" points="486.86,-362 566.86,-362 "/>
<text text-anchor="middle" x="526.86" y="-346.8" font-family="Times,serif" font-size="14.00">template</text>
</g>
<!-- register_template_wfsplit_desc&#45;&gt;register_template_wffmt_cohort -->
<g id="edge13" class="edge">
<title>register_template_wfsplit_desc:e&#45;&gt;register_template_wffmt_cohort:w</title>
<path fill="none" stroke="black" d="M313.86,-514C329.41,-514 303.6,-394.35 307.19,-359.76"/>
<polygon fill="black" stroke="black" points="310.48,-361 311.86,-350.5 304.23,-357.85 310.48,-361"/>
</g>
<!-- register_template_wfsplit_desc&#45;&gt;register_template_wffmt_cohort -->
<g id="edge16" class="edge">
<title>register_template_wfsplit_desc:e&#45;&gt;register_template_wffmt_cohort:w</title>
<path fill="none" stroke="black" d="M313.86,-491C336,-491 300.41,-406.57 304.96,-380.85"/>
<polygon fill="black" stroke="black" points="307.57,-383.18 311.86,-373.5 302.47,-378.39 307.57,-383.18"/>
</g>
<!-- register_template_wfsplit_desc&#45;&gt;register_template_wfregistration -->
<g id="edge14" class="edge">
<title>register_template_wfsplit_desc:e&#45;&gt;register_template_wfregistration:w</title>
<path fill="none" stroke="black" d="M313.86,-514C329.82,-514 310.12,-489.8 321.86,-479 405.8,-401.83 497.88,-526.18 575.86,-443 582.31,-436.13 575.95,-372.05 579.43,-347.76"/>
<polygon fill="black" stroke="black" points="582.71,-349.03 583.86,-338.5 576.39,-346.01 582.71,-349.03"/>
</g>
<!-- register_template_wfsplit_desc&#45;&gt;register_template_wfregistration -->
<g id="edge17" class="edge">
<title>register_template_wfsplit_desc:e&#45;&gt;register_template_wfregistration:w</title>
<path fill="none" stroke="black" d="M313.86,-491C320.27,-491 316.44,-482.41 321.86,-479 418.36,-418.26 498.45,-526.71 575.86,-443 583.88,-434.33 574.27,-351.82 578.99,-324.35"/>
<polygon fill="black" stroke="black" points="582.11,-325.95 583.86,-315.5 575.97,-322.57 582.11,-325.95"/>
</g>
<!-- register_template_wftrunc_mov&#45;&gt;register_template_wfregistration -->
<g id="edge19" class="edge">
<title>register_template_wftrunc_mov:e&#45;&gt;register_template_wfregistration:w</title>
<path fill="none" stroke="black" d="M581.86,-497C602.77,-497 572.18,-417.62 577,-392.82"/>
<polygon fill="black" stroke="black" points="579.57,-395.19 583.86,-385.5 574.47,-390.39 579.57,-395.19"/>
</g>
<!-- register_template_wfpoutputnode -->
<g id="node7" class="node">
<title>register_template_wfpoutputnode</title>
<polygon fill="none" stroke="black" points="800.36,-152.5 800.36,-267.5 1145.36,-267.5 1145.36,-152.5 800.36,-152.5"/>
<text text-anchor="middle" x="859.86" y="-252.3" font-family="Times,serif" font-size="14.00">IN</text>
<polyline fill="none" stroke="black" points="800.36,-244.5 919.36,-244.5 "/>
<text text-anchor="middle" x="859.86" y="-229.3" font-family="Times,serif" font-size="14.00">anat2std_xfm</text>
<polyline fill="none" stroke="black" points="800.36,-221.5 919.36,-221.5 "/>
<text text-anchor="middle" x="859.86" y="-206.3" font-family="Times,serif" font-size="14.00">std2anat_xfm</text>
<polyline fill="none" stroke="black" points="800.36,-198.5 919.36,-198.5 "/>
<text text-anchor="middle" x="859.86" y="-183.3" font-family="Times,serif" font-size="14.00">template</text>
<polyline fill="none" stroke="black" points="800.36,-175.5 919.36,-175.5 "/>
<text text-anchor="middle" x="859.86" y="-160.3" font-family="Times,serif" font-size="14.00">template_spec</text>
<polyline fill="none" stroke="black" points="919.36,-152.5 919.36,-267.5 "/>
<text text-anchor="middle" x="972.86" y="-244.8" font-family="Times,serif" font-size="14.00">poutputnode</text>
<polyline fill="none" stroke="black" points="919.36,-229.5 1026.36,-229.5 "/>
<text text-anchor="middle" x="972.86" y="-206.8" font-family="Times,serif" font-size="14.00">utility</text>
<polyline fill="none" stroke="black" points="919.36,-191.5 1026.36,-191.5 "/>
<text text-anchor="middle" x="972.86" y="-168.3" font-family="Times,serif" font-size="14.00"> </text>
<polyline fill="none" stroke="black" points="1026.36,-152.5 1026.36,-267.5 "/>
<text text-anchor="middle" x="1085.86" y="-252.3" font-family="Times,serif" font-size="14.00">OUT</text>
<polyline fill="none" stroke="black" points="1026.36,-244.5 1145.36,-244.5 "/>
<text text-anchor="middle" x="1085.86" y="-229.3" font-family="Times,serif" font-size="14.00">anat2std_xfm</text>
<polyline fill="none" stroke="black" points="1026.36,-221.5 1145.36,-221.5 "/>
<text text-anchor="middle" x="1085.86" y="-206.3" font-family="Times,serif" font-size="14.00">std2anat_xfm</text>
<polyline fill="none" stroke="black" points="1026.36,-198.5 1145.36,-198.5 "/>
<text text-anchor="middle" x="1085.86" y="-183.3" font-family="Times,serif" font-size="14.00">template</text>
<polyline fill="none" stroke="black" points="1026.36,-175.5 1145.36,-175.5 "/>
<text text-anchor="middle" x="1085.86" y="-160.3" font-family="Times,serif" font-size="14.00">template_spec</text>
</g>
<!-- register_template_wffmt_cohort&#45;&gt;register_template_wfpoutputnode -->
<g id="edge1" class="edge">
<title>register_template_wffmt_cohort:e&#45;&gt;register_template_wfpoutputnode:w</title>
<path fill="none" stroke="black" d="M567.86,-373.5C583.41,-373.5 567.58,-317.15 575.86,-304 636.44,-207.9 679.27,-166.45 788.77,-164.11"/>
<polygon fill="black" stroke="black" points="788.9,-167.6 798.86,-164 788.83,-160.61 788.9,-167.6"/>
</g>
<!-- register_template_wffmt_cohort&#45;&gt;register_template_wfpoutputnode -->
<g id="edge2" class="edge">
<title>register_template_wffmt_cohort:e&#45;&gt;register_template_wfpoutputnode:w</title>
<path fill="none" stroke="black" d="M567.86,-350.5C578.35,-350.5 569.7,-312.48 575.86,-304 639.66,-216.32 684.09,-188.72 788.56,-187.08"/>
<polygon fill="black" stroke="black" points="788.89,-190.58 798.86,-187 788.84,-183.58 788.89,-190.58"/>
</g>
<!-- register_template_wfregistration&#45;&gt;register_template_wfpoutputnode -->
<g id="edge11" class="edge">
<title>register_template_wfregistration:e&#45;&gt;register_template_wfpoutputnode:w</title>
<path fill="none" stroke="black" d="M1033.86,-373.5C1064.76,-373.5 1053.14,-327.31 1032.86,-304 964.09,-224.94 869.2,-346.57 799.86,-268 792.62,-259.8 787.38,-245.83 790.31,-238.25"/>
<polygon fill="black" stroke="black" points="792.18,-241.22 798.86,-233 788.51,-235.25 792.18,-241.22"/>
</g>
<!-- register_template_wfregistration&#45;&gt;register_template_wfpoutputnode -->
<g id="edge12" class="edge">
<title>register_template_wfregistration:e&#45;&gt;register_template_wfpoutputnode:w</title>
<path fill="none" stroke="black" d="M1033.86,-327.5C1044.32,-327.5 1039.84,-311.79 1032.86,-304 962.99,-225.92 868.75,-346.96 799.86,-268 785.7,-251.76 776.5,-222.14 788.93,-212.86"/>
<polygon fill="black" stroke="black" points="790.22,-216.13 798.86,-210 788.29,-209.4 790.22,-216.13"/>
</g>
<!-- register_template_wfoutputnode -->
<g id="node8" class="node">
<title>register_template_wfoutputnode</title>
<polygon fill="none" stroke="black" points="1145.86,-0.5 1145.86,-115.5 1411.86,-115.5 1411.86,-0.5 1145.86,-0.5"/>
<text text-anchor="middle" x="1205.36" y="-100.3" font-family="Times,serif" font-size="14.00">IN</text>
<polyline fill="none" stroke="black" points="1145.86,-92.5 1264.86,-92.5 "/>
<text text-anchor="middle" x="1205.36" y="-77.3" font-family="Times,serif" font-size="14.00">anat2std_xfm</text>
<polyline fill="none" stroke="black" points="1145.86,-69.5 1264.86,-69.5 "/>
<text text-anchor="middle" x="1205.36" y="-54.3" font-family="Times,serif" font-size="14.00">std2anat_xfm</text>
<polyline fill="none" stroke="black" points="1145.86,-46.5 1264.86,-46.5 "/>
<text text-anchor="middle" x="1205.36" y="-31.3" font-family="Times,serif" font-size="14.00">template</text>
<polyline fill="none" stroke="black" points="1145.86,-23.5 1264.86,-23.5 "/>
<text text-anchor="middle" x="1205.36" y="-8.3" font-family="Times,serif" font-size="14.00">template_spec</text>
<polyline fill="none" stroke="black" points="1264.86,-0.5 1264.86,-115.5 "/>
<text text-anchor="middle" x="1313.86" y="-92.8" font-family="Times,serif" font-size="14.00">outputnode</text>
<polyline fill="none" stroke="black" points="1264.86,-77.5 1362.86,-77.5 "/>
<text text-anchor="middle" x="1313.86" y="-54.8" font-family="Times,serif" font-size="14.00">utility</text>
<polyline fill="none" stroke="black" points="1264.86,-39.5 1362.86,-39.5 "/>
<text text-anchor="middle" x="1313.86" y="-16.3" font-family="Times,serif" font-size="14.00"> </text>
<polyline fill="none" stroke="black" points="1362.86,-0.5 1362.86,-115.5 "/>
<text text-anchor="middle" x="1387.36" y="-54.3" font-family="Times,serif" font-size="14.00">OUT</text>
</g>
<!-- register_template_wfpoutputnode&#45;&gt;register_template_wfoutputnode -->
<g id="edge7" class="edge">
<title>register_template_wfpoutputnode:e&#45;&gt;register_template_wfoutputnode:w</title>
<path fill="none" stroke="black" d="M1146.86,-233C1182.87,-233 1146.34,-188 1145.86,-152 1145.51,-124.88 1121.72,-91.94 1135.06,-83.21"/>
<polygon fill="black" stroke="black" points="1135.88,-86.61 1144.86,-81 1134.34,-79.78 1135.88,-86.61"/>
</g>
<!-- register_template_wfpoutputnode&#45;&gt;register_template_wfoutputnode -->
<g id="edge8" class="edge">
<title>register_template_wfpoutputnode:e&#45;&gt;register_template_wfoutputnode:w</title>
<path fill="none" stroke="black" d="M1146.86,-210C1210.34,-210 1093.16,-75.85 1134.75,-59.6"/>
<polygon fill="black" stroke="black" points="1135.54,-63.02 1144.86,-58 1134.44,-56.11 1135.54,-63.02"/>
</g>
<!-- register_template_wfpoutputnode&#45;&gt;register_template_wfoutputnode -->
<g id="edge9" class="edge">
<title>register_template_wfpoutputnode:e&#45;&gt;register_template_wfoutputnode:w</title>
<path fill="none" stroke="black" d="M1146.86,-187C1178.42,-187 1146.28,-147.56 1145.86,-116 1145.44,-84.22 1116.93,-45.42 1135.02,-36.77"/>
<polygon fill="black" stroke="black" points="1135.64,-40.21 1144.86,-35 1134.4,-33.32 1135.64,-40.21"/>
</g>
<!-- register_template_wfpoutputnode&#45;&gt;register_template_wfoutputnode -->
<g id="edge10" class="edge">
<title>register_template_wfpoutputnode:e&#45;&gt;register_template_wfoutputnode:w</title>
<path fill="none" stroke="black" d="M1146.86,-164C1168.2,-164 1146.19,-137.34 1145.86,-116 1145.22,-73.75 1106.3,-21.85 1134.91,-13.24"/>
<polygon fill="black" stroke="black" points="1135.37,-16.71 1144.86,-12 1134.51,-9.76 1135.37,-16.71"/>
</g>
</g>
</svg>
