<?xml version="1.0" encoding="UTF-8" standalone="no"?>
<!DOCTYPE svg PUBLIC "-//W3C//DTD SVG 1.1//EN"
 "http://www.w3.org/Graphics/SVG/1.1/DTD/svg11.dtd">
<!-- Generated by graphviz version 2.43.0 (0)
 -->
<!-- Title: %3 Pages: 1 -->
<svg width="377pt" height="476pt"
 viewBox="0.00 0.00 376.53 476.00" xmlns="http://www.w3.org/2000/svg" xmlns:xlink="http://www.w3.org/1999/xlink">
<g id="graph0" class="graph" transform="scale(1 1) rotate(0) translate(4 472)">
<title>%3</title>
<polygon fill="white" stroke="transparent" points="-4,4 -4,-472 372.53,-472 372.53,4 -4,4"/>
<!-- inputnode (utility) -->
<g id="node1" class="node">
<title>inputnode (utility)</title>
<ellipse fill="none" stroke="black" cx="173.59" cy="-450" rx="94.78" ry="18"/>
<text text-anchor="middle" x="173.59" y="-446.3" font-family="Times,serif" font-size="14.00">inputnode (utility)</text>
</g>
<!-- get_surfaces (utility) -->
<g id="node2" class="node">
<title>get_surfaces (utility)</title>
<ellipse fill="none" stroke="black" cx="106.59" cy="-378" rx="106.68" ry="18"/>
<text text-anchor="middle" x="106.59" y="-374.3" font-family="Times,serif" font-size="14.00">get_surfaces (utility)</text>
</g>
<!-- inputnode (utility)&#45;&gt;get_surfaces (utility) -->
<g id="edge1" class="edge">
<title>inputnode (utility)&#45;&gt;get_surfaces (utility)</title>
<path fill="none" stroke="black" d="M157.37,-432.05C149.18,-423.5 139.09,-412.96 130.07,-403.54"/>
<polygon fill="black" stroke="black" points="132.57,-401.08 123.13,-396.28 127.51,-405.92 132.57,-401.08"/>
</g>
<!-- fix_surfs (surf) -->
<g id="node3" class="node">
<title>fix_surfs (surf)</title>
<ellipse fill="none" stroke="black" cx="175.59" cy="-162" rx="77.99" ry="18"/>
<text text-anchor="middle" x="175.59" y="-158.3" font-family="Times,serif" font-size="14.00">fix_surfs (surf)</text>
</g>
<!-- inputnode (utility)&#45;&gt;fix_surfs (surf) -->
<g id="edge2" class="edge">
<title>inputnode (utility)&#45;&gt;fix_surfs (surf)</title>
<path fill="none" stroke="black" d="M195.23,-432.34C205.63,-422.94 217.02,-410.24 222.59,-396 234.91,-364.52 259.68,-330.45 217.59,-216 213.78,-205.65 207.11,-195.75 200.19,-187.38"/>
<polygon fill="black" stroke="black" points="202.8,-185.04 193.57,-179.84 197.54,-189.66 202.8,-185.04"/>
</g>
<!-- surface_list (utility) -->
<g id="node4" class="node">
<title>surface_list (utility)</title>
<ellipse fill="none" stroke="black" cx="109.59" cy="-306" rx="101.28" ry="18"/>
<text text-anchor="middle" x="109.59" y="-302.3" font-family="Times,serif" font-size="14.00">surface_list (utility)</text>
</g>
<!-- get_surfaces (utility)&#45;&gt;surface_list (utility) -->
<g id="edge3" class="edge">
<title>get_surfaces (utility)&#45;&gt;surface_list (utility)</title>
<path fill="none" stroke="black" d="M107.33,-359.7C107.66,-351.98 108.06,-342.71 108.43,-334.11"/>
<polygon fill="black" stroke="black" points="111.93,-334.25 108.86,-324.1 104.93,-333.95 111.93,-334.25"/>
</g>
<!-- outputnode (utility) -->
<g id="node5" class="node">
<title>outputnode (utility)</title>
<ellipse fill="none" stroke="black" cx="175.59" cy="-18" rx="101.28" ry="18"/>
<text text-anchor="middle" x="175.59" y="-14.3" font-family="Times,serif" font-size="14.00">outputnode (utility)</text>
</g>
<!-- fix_surfs (surf)&#45;&gt;outputnode (utility) -->
<g id="edge4" class="edge">
<title>fix_surfs (surf)&#45;&gt;outputnode (utility)</title>
<path fill="none" stroke="black" d="M151.79,-144.78C140.35,-135.51 127.79,-122.78 121.59,-108 115.4,-93.25 115.4,-86.75 121.59,-72 126.31,-60.76 134.7,-50.7 143.49,-42.45"/>
<polygon fill="black" stroke="black" points="146.01,-44.89 151.23,-35.67 141.4,-39.63 146.01,-44.89"/>
</g>
<!-- surface_groups (utility) -->
<g id="node6" class="node">
<title>surface_groups (utility)</title>
<ellipse fill="none" stroke="black" cx="249.59" cy="-90" rx="118.88" ry="18"/>
<text text-anchor="middle" x="249.59" y="-86.3" font-family="Times,serif" font-size="14.00">surface_groups (utility)</text>
</g>
<!-- fix_surfs (surf)&#45;&gt;surface_groups (utility) -->
<g id="edge5" class="edge">
<title>fix_surfs (surf)&#45;&gt;surface_groups (utility)</title>
<path fill="none" stroke="black" d="M193.13,-144.41C202.39,-135.65 213.93,-124.73 224.16,-115.06"/>
<polygon fill="black" stroke="black" points="226.81,-117.37 231.67,-107.96 222,-112.29 226.81,-117.37"/>
</g>
<!-- fs2gii (freesurfer) -->
<g id="node7" class="node">
<title>fs2gii (freesurfer)</title>
<ellipse fill="none" stroke="black" cx="115.59" cy="-234" rx="92.88" ry="18"/>
<text text-anchor="middle" x="115.59" y="-230.3" font-family="Times,serif" font-size="14.00">fs2gii (freesurfer)</text>
</g>
<!-- surface_list (utility)&#45;&gt;fs2gii (freesurfer) -->
<g id="edge6" class="edge">
<title>surface_list (utility)&#45;&gt;fs2gii (freesurfer)</title>
<path fill="none" stroke="black" d="M111.07,-287.7C111.73,-279.98 112.53,-270.71 113.27,-262.11"/>
<polygon fill="black" stroke="black" points="116.76,-262.37 114.12,-252.1 109.78,-261.77 116.76,-262.37"/>
</g>
<!-- surface_groups (utility)&#45;&gt;outputnode (utility) -->
<g id="edge7" class="edge">
<title>surface_groups (utility)&#45;&gt;outputnode (utility)</title>
<path fill="none" stroke="black" d="M231.68,-72.05C222.41,-63.28 210.93,-52.43 200.78,-42.83"/>
<polygon fill="black" stroke="black" points="203.01,-40.12 193.34,-35.79 198.2,-45.2 203.01,-40.12"/>
</g>
<!-- fs2gii (freesurfer)&#45;&gt;fix_surfs (surf) -->
<g id="edge8" class="edge">
<title>fs2gii (freesurfer)&#45;&gt;fix_surfs (surf)</title>
<path fill="none" stroke="black" d="M130.11,-216.05C137.48,-207.46 146.57,-196.86 154.68,-187.4"/>
<polygon fill="black" stroke="black" points="157.35,-189.66 161.2,-179.79 152.03,-185.1 157.35,-189.66"/>
</g>
</g>
</svg>
