<?xml version="1.0" encoding="UTF-8" standalone="no"?>
<!DOCTYPE svg PUBLIC "-//W3C//DTD SVG 1.1//EN"
 "http://www.w3.org/Graphics/SVG/1.1/DTD/svg11.dtd">
<!-- Generated by graphviz version 2.43.0 (0)
 -->
<!-- Title: %3 Pages: 1 -->
<svg width="632pt" height="260pt"
 viewBox="0.00 0.00 631.74 260.00" xmlns="http://www.w3.org/2000/svg" xmlns:xlink="http://www.w3.org/1999/xlink">
<g id="graph0" class="graph" transform="scale(1 1) rotate(0) translate(4 256)">
<title>%3</title>
<polygon fill="white" stroke="transparent" points="-4,4 -4,-256 627.74,-256 627.74,4 -4,4"/>
<!-- inputnode (utility) -->
<g id="node1" class="node">
<title>inputnode (utility)</title>
<ellipse fill="none" stroke="black" cx="120.95" cy="-162" rx="94.78" ry="18"/>
<text text-anchor="middle" x="120.95" y="-158.3" font-family="Times,serif" font-size="14.00">inputnode (utility)</text>
</g>
<!-- anat_preproc_wf -->
<g id="node2" class="node">
<title>anat_preproc_wf</title>
<ellipse fill="none" stroke="black" cx="111.95" cy="-90" rx="87.18" ry="18"/>
<text text-anchor="middle" x="111.95" y="-86.3" font-family="Times,serif" font-size="14.00">anat_preproc_wf</text>
</g>
<!-- inputnode (utility)&#45;&gt;anat_preproc_wf -->
<g id="edge1" class="edge">
<title>inputnode (utility)&#45;&gt;anat_preproc_wf</title>
<path fill="none" stroke="black" d="M118.72,-143.7C117.73,-135.98 116.54,-126.71 115.43,-118.11"/>
<polygon fill="black" stroke="black" points="118.89,-117.58 114.14,-108.1 111.95,-118.47 118.89,-117.58"/>
</g>
<!-- summary (reports) -->
<g id="node3" class="node">
<title>summary (reports)</title>
<ellipse fill="none" stroke="black" cx="314.95" cy="-90" rx="98.28" ry="18"/>
<text text-anchor="middle" x="314.95" y="-86.3" font-family="Times,serif" font-size="14.00">summary (reports)</text>
</g>
<!-- inputnode (utility)&#45;&gt;summary (reports) -->
<g id="edge2" class="edge">
<title>inputnode (utility)&#45;&gt;summary (reports)</title>
<path fill="none" stroke="black" d="M163.04,-145.81C192.43,-135.21 231.84,-120.99 263.16,-109.69"/>
<polygon fill="black" stroke="black" points="264.38,-112.97 272.6,-106.28 262,-106.38 264.38,-112.97"/>
</g>
<!-- ds_report_summary -->
<g id="node6" class="node">
<title>ds_report_summary</title>
<ellipse fill="none" stroke="black" cx="136.95" cy="-18" rx="102.88" ry="18"/>
<text text-anchor="middle" x="136.95" y="-14.3" font-family="Times,serif" font-size="14.00">ds_report_summary</text>
</g>
<!-- summary (reports)&#45;&gt;ds_report_summary -->
<g id="edge3" class="edge">
<title>summary (reports)&#45;&gt;ds_report_summary</title>
<path fill="none" stroke="black" d="M275.44,-73.46C249.15,-63.12 214.4,-49.46 186.29,-38.4"/>
<polygon fill="black" stroke="black" points="187.23,-35.02 176.65,-34.61 184.67,-41.53 187.23,-35.02"/>
</g>
<!-- bidssrc (bids) -->
<g id="node4" class="node">
<title>bidssrc (bids)</title>
<ellipse fill="none" stroke="black" cx="314.95" cy="-234" rx="73.39" ry="18"/>
<text text-anchor="middle" x="314.95" y="-230.3" font-family="Times,serif" font-size="14.00">bidssrc (bids)</text>
</g>
<!-- bidssrc (bids)&#45;&gt;anat_preproc_wf -->
<g id="edge6" class="edge">
<title>bidssrc (bids)&#45;&gt;anat_preproc_wf</title>
<path fill="none" stroke="black" d="M242.86,-230.47C164.06,-226.01 45.21,-213.73 16.95,-180 6.67,-167.74 8.84,-157.8 16.95,-144 25.82,-128.89 40.74,-117.77 56.16,-109.73"/>
<polygon fill="black" stroke="black" points="57.77,-112.84 65.26,-105.35 54.73,-106.54 57.77,-112.84"/>
</g>
<!-- bidssrc (bids)&#45;&gt;summary (reports) -->
<g id="edge5" class="edge">
<title>bidssrc (bids)&#45;&gt;summary (reports)</title>
<path fill="none" stroke="black" d="M356.89,-219.17C375.05,-210.86 394.51,-198.26 404.95,-180 412.89,-166.11 412.89,-157.89 404.95,-144 396.75,-129.66 382.99,-118.81 368.66,-110.79"/>
<polygon fill="black" stroke="black" points="370.21,-107.65 359.72,-106.16 366.99,-113.86 370.21,-107.65"/>
</g>
<!-- bids_info (bids) -->
<g id="node5" class="node">
<title>bids_info (bids)</title>
<ellipse fill="none" stroke="black" cx="314.95" cy="-162" rx="81.49" ry="18"/>
<text text-anchor="middle" x="314.95" y="-158.3" font-family="Times,serif" font-size="14.00">bids_info (bids)</text>
</g>
<!-- bidssrc (bids)&#45;&gt;bids_info (bids) -->
<g id="edge4" class="edge">
<title>bidssrc (bids)&#45;&gt;bids_info (bids)</title>
<path fill="none" stroke="black" d="M314.95,-215.7C314.95,-207.98 314.95,-198.71 314.95,-190.11"/>
<polygon fill="black" stroke="black" points="318.45,-190.1 314.95,-180.1 311.45,-190.1 318.45,-190.1"/>
</g>
<!-- bidssrc (bids)&#45;&gt;ds_report_summary -->
<g id="edge7" class="edge">
<title>bidssrc (bids)&#45;&gt;ds_report_summary</title>
<path fill="none" stroke="black" d="M242.28,-230.93C160.89,-226.89 36.45,-215.01 6.95,-180 -6.53,-164.01 2.78,-89.65 15.95,-72 28.32,-55.42 47.01,-43.94 66.02,-36.03"/>
<polygon fill="black" stroke="black" points="67.28,-39.29 75.35,-32.42 64.76,-32.76 67.28,-39.29"/>
</g>
<!-- ds_report_about -->
<g id="node7" class="node">
<title>ds_report_about</title>
<ellipse fill="none" stroke="black" cx="537.95" cy="-162" rx="85.59" ry="18"/>
<text text-anchor="middle" x="537.95" y="-158.3" font-family="Times,serif" font-size="14.00">ds_report_about</text>
</g>
<!-- bidssrc (bids)&#45;&gt;ds_report_about -->
<g id="edge8" class="edge">
<title>bidssrc (bids)&#45;&gt;ds_report_about</title>
<path fill="none" stroke="black" d="M358.21,-219.42C393.55,-208.33 443.76,-192.56 482.14,-180.52"/>
<polygon fill="black" stroke="black" points="483.63,-183.72 492.12,-177.38 481.53,-177.04 483.63,-183.72"/>
</g>
<!-- bids_info (bids)&#45;&gt;anat_preproc_wf -->
<g id="edge10" class="edge">
<title>bids_info (bids)&#45;&gt;anat_preproc_wf</title>
<path fill="none" stroke="black" d="M272.88,-146.5C241.39,-135.63 198.1,-120.71 164.35,-109.07"/>
<polygon fill="black" stroke="black" points="165.25,-105.68 154.65,-105.73 162.96,-112.3 165.25,-105.68"/>
</g>
<!-- bids_info (bids)&#45;&gt;summary (reports) -->
<g id="edge9" class="edge">
<title>bids_info (bids)&#45;&gt;summary (reports)</title>
<path fill="none" stroke="black" d="M314.95,-143.7C314.95,-135.98 314.95,-126.71 314.95,-118.11"/>
<polygon fill="black" stroke="black" points="318.45,-118.1 314.95,-108.1 311.45,-118.1 318.45,-118.1"/>
</g>
<!-- about (reports) -->
<g id="node8" class="node">
<title>about (reports)</title>
<ellipse fill="none" stroke="black" cx="537.95" cy="-234" rx="81.49" ry="18"/>
<text text-anchor="middle" x="537.95" y="-230.3" font-family="Times,serif" font-size="14.00">about (reports)</text>
</g>
<!-- about (reports)&#45;&gt;ds_report_about -->
<g id="edge11" class="edge">
<title>about (reports)&#45;&gt;ds_report_about</title>
<path fill="none" stroke="black" d="M537.95,-215.7C537.95,-207.98 537.95,-198.71 537.95,-190.11"/>
<polygon fill="black" stroke="black" points="541.45,-190.1 537.95,-180.1 534.45,-190.1 541.45,-190.1"/>
</g>
</g>
</svg>
