<?xml version="1.0" encoding="UTF-8" standalone="no"?>
<!DOCTYPE svg PUBLIC "-//W3C//DTD SVG 1.1//EN"
 "http://www.w3.org/Graphics/SVG/1.1/DTD/svg11.dtd">
<!-- Generated by graphviz version 2.43.0 (0)
 -->
<!-- Title: %3 Pages: 1 -->
<svg width="354pt" height="548pt"
 viewBox="0.00 0.00 354.28 548.00" xmlns="http://www.w3.org/2000/svg" xmlns:xlink="http://www.w3.org/1999/xlink">
<g id="graph0" class="graph" transform="scale(1 1) rotate(0) translate(4 544)">
<title>%3</title>
<polygon fill="white" stroke="transparent" points="-4,4 -4,-544 350.28,-544 350.28,4 -4,4"/>
<!-- inputnode (utility) -->
<g id="node1" class="node">
<title>inputnode (utility)</title>
<ellipse fill="none" stroke="black" cx="97.59" cy="-522" rx="94.78" ry="18"/>
<text text-anchor="middle" x="97.59" y="-518.3" font-family="Times,serif" font-size="14.00">inputnode (utility)</text>
</g>
<!-- cortribbon (freesurfer) -->
<g id="node2" class="node">
<title>cortribbon (freesurfer)</title>
<ellipse fill="none" stroke="black" cx="119.59" cy="-234" rx="116.18" ry="18"/>
<text text-anchor="middle" x="119.59" y="-230.3" font-family="Times,serif" font-size="14.00">cortribbon (freesurfer)</text>
</g>
<!-- inputnode (utility)&#45;&gt;cortribbon (freesurfer) -->
<g id="edge1" class="edge">
<title>inputnode (utility)&#45;&gt;cortribbon (freesurfer)</title>
<path fill="none" stroke="black" d="M87.58,-503.99C65.58,-464.2 17.73,-362.8 53.59,-288 59.46,-275.75 69.7,-265.44 80.38,-257.26"/>
<polygon fill="black" stroke="black" points="82.46,-260.08 88.58,-251.42 78.4,-254.38 82.46,-260.08"/>
</g>
<!-- gcareg (freesurfer) -->
<g id="node3" class="node">
<title>gcareg (freesurfer)</title>
<ellipse fill="none" stroke="black" cx="180.59" cy="-450" rx="98.58" ry="18"/>
<text text-anchor="middle" x="180.59" y="-446.3" font-family="Times,serif" font-size="14.00">gcareg (freesurfer)</text>
</g>
<!-- inputnode (utility)&#45;&gt;gcareg (freesurfer) -->
<g id="edge2" class="edge">
<title>inputnode (utility)&#45;&gt;gcareg (freesurfer)</title>
<path fill="none" stroke="black" d="M117.68,-504.05C128.28,-495.11 141.45,-484.01 153,-474.27"/>
<polygon fill="black" stroke="black" points="155.29,-476.91 160.68,-467.79 150.78,-471.56 155.29,-476.91"/>
</g>
<!-- parcstats (freesurfer) -->
<g id="node4" class="node">
<title>parcstats (freesurfer)</title>
<ellipse fill="none" stroke="black" cx="119.59" cy="-162" rx="110.48" ry="18"/>
<text text-anchor="middle" x="119.59" y="-158.3" font-family="Times,serif" font-size="14.00">parcstats (freesurfer)</text>
</g>
<!-- cortribbon (freesurfer)&#45;&gt;parcstats (freesurfer) -->
<g id="edge3" class="edge">
<title>cortribbon (freesurfer)&#45;&gt;parcstats (freesurfer)</title>
<path fill="none" stroke="black" d="M119.59,-215.7C119.59,-207.98 119.59,-198.71 119.59,-190.11"/>
<polygon fill="black" stroke="black" points="123.09,-190.1 119.59,-180.1 116.09,-190.1 123.09,-190.1"/>
</g>
<!-- autorecon2_vol (freesurfer) -->
<g id="node5" class="node">
<title>autorecon2_vol (freesurfer)</title>
<ellipse fill="none" stroke="black" cx="202.59" cy="-378" rx="137.58" ry="18"/>
<text text-anchor="middle" x="202.59" y="-374.3" font-family="Times,serif" font-size="14.00">autorecon2_vol (freesurfer)</text>
</g>
<!-- gcareg (freesurfer)&#45;&gt;autorecon2_vol (freesurfer) -->
<g id="edge4" class="edge">
<title>gcareg (freesurfer)&#45;&gt;autorecon2_vol (freesurfer)</title>
<path fill="none" stroke="black" d="M186.03,-431.7C188.48,-423.9 191.43,-414.51 194.16,-405.83"/>
<polygon fill="black" stroke="black" points="197.55,-406.69 197.21,-396.1 190.88,-404.59 197.55,-406.69"/>
</g>
<!-- autorecon3 (freesurfer) -->
<g id="node7" class="node">
<title>autorecon3 (freesurfer)</title>
<ellipse fill="none" stroke="black" cx="119.59" cy="-90" rx="119.68" ry="18"/>
<text text-anchor="middle" x="119.59" y="-86.3" font-family="Times,serif" font-size="14.00">autorecon3 (freesurfer)</text>
</g>
<!-- parcstats (freesurfer)&#45;&gt;autorecon3 (freesurfer) -->
<g id="edge5" class="edge">
<title>parcstats (freesurfer)&#45;&gt;autorecon3 (freesurfer)</title>
<path fill="none" stroke="black" d="M119.59,-143.7C119.59,-135.98 119.59,-126.71 119.59,-118.11"/>
<polygon fill="black" stroke="black" points="123.09,-118.1 119.59,-108.1 116.09,-118.1 123.09,-118.1"/>
</g>
<!-- autorecon_surfs (freesurfer) -->
<g id="node6" class="node">
<title>autorecon_surfs (freesurfer)</title>
<ellipse fill="none" stroke="black" cx="204.59" cy="-306" rx="141.88" ry="18"/>
<text text-anchor="middle" x="204.59" y="-302.3" font-family="Times,serif" font-size="14.00">autorecon_surfs (freesurfer)</text>
</g>
<!-- autorecon2_vol (freesurfer)&#45;&gt;autorecon_surfs (freesurfer) -->
<g id="edge6" class="edge">
<title>autorecon2_vol (freesurfer)&#45;&gt;autorecon_surfs (freesurfer)</title>
<path fill="none" stroke="black" d="M203.08,-359.7C203.3,-351.98 203.57,-342.71 203.81,-334.11"/>
<polygon fill="black" stroke="black" points="207.31,-334.2 204.1,-324.1 200.32,-334 207.31,-334.2"/>
</g>
<!-- autorecon_surfs (freesurfer)&#45;&gt;cortribbon (freesurfer) -->
<g id="edge7" class="edge">
<title>autorecon_surfs (freesurfer)&#45;&gt;cortribbon (freesurfer)</title>
<path fill="none" stroke="black" d="M184.01,-288.05C173.15,-279.11 159.67,-268.01 147.84,-258.27"/>
<polygon fill="black" stroke="black" points="149.92,-255.44 139.98,-251.79 145.47,-260.85 149.92,-255.44"/>
</g>
<!-- outputnode (utility) -->
<g id="node8" class="node">
<title>outputnode (utility)</title>
<ellipse fill="none" stroke="black" cx="119.59" cy="-18" rx="101.28" ry="18"/>
<text text-anchor="middle" x="119.59" y="-14.3" font-family="Times,serif" font-size="14.00">outputnode (utility)</text>
</g>
<!-- autorecon3 (freesurfer)&#45;&gt;outputnode (utility) -->
<g id="edge8" class="edge">
<title>autorecon3 (freesurfer)&#45;&gt;outputnode (utility)</title>
<path fill="none" stroke="black" d="M119.59,-71.7C119.59,-63.98 119.59,-54.71 119.59,-46.11"/>
<polygon fill="black" stroke="black" points="123.09,-46.1 119.59,-36.1 116.09,-46.1 123.09,-46.1"/>
</g>
</g>
</svg>
