<?xml version="1.0" encoding="UTF-8" standalone="no"?>
<!DOCTYPE svg PUBLIC "-//W3C//DTD SVG 1.1//EN"
 "http://www.w3.org/Graphics/SVG/1.1/DTD/svg11.dtd">
<!-- Generated by graphviz version 2.43.0 (0)
 -->
<!-- Title: structs Pages: 1 -->
<svg width="1540pt" height="944pt"
 viewBox="0.00 0.00 1539.50 944.00" xmlns="http://www.w3.org/2000/svg" xmlns:xlink="http://www.w3.org/1999/xlink">
<g id="graph0" class="graph" transform="scale(1 1) rotate(0) translate(4 940)">
<title>structs</title>
<polygon fill="white" stroke="transparent" points="-4,4 -4,-940 1535.5,-940 1535.5,4 -4,4"/>
<!-- gifti_surface_wfinputnode -->
<g id="node1" class="node">
<title>gifti_surface_wfinputnode</title>
<polygon fill="none" stroke="black" points="0,-843.5 0,-935.5 271,-935.5 271,-843.5 0,-843.5"/>
<text text-anchor="middle" x="17" y="-885.8" font-family="Times,serif" font-size="14.00">IN</text>
<polyline fill="none" stroke="black" points="34,-843.5 34,-935.5 "/>
<text text-anchor="middle" x="78.5" y="-916.8" font-family="Times,serif" font-size="14.00">inputnode</text>
<polyline fill="none" stroke="black" points="34,-905.5 123,-905.5 "/>
<text text-anchor="middle" x="78.5" y="-886.3" font-family="Times,serif" font-size="14.00">utility</text>
<polyline fill="none" stroke="black" points="34,-874.5 123,-874.5 "/>
<text text-anchor="middle" x="78.5" y="-855.3" font-family="Times,serif" font-size="14.00"> </text>
<polyline fill="none" stroke="black" points="123,-843.5 123,-935.5 "/>
<text text-anchor="middle" x="197" y="-920.3" font-family="Times,serif" font-size="14.00">OUT</text>
<polyline fill="none" stroke="black" points="123,-912.5 271,-912.5 "/>
<text text-anchor="middle" x="197" y="-897.3" font-family="Times,serif" font-size="14.00">fsnative2anat_xfm</text>
<polyline fill="none" stroke="black" points="123,-889.5 271,-889.5 "/>
<text text-anchor="middle" x="197" y="-874.3" font-family="Times,serif" font-size="14.00">subject_id</text>
<polyline fill="none" stroke="black" points="123,-866.5 271,-866.5 "/>
<text text-anchor="middle" x="197" y="-851.3" font-family="Times,serif" font-size="14.00">subjects_dir</text>
</g>
<!-- gifti_surface_wfget_surfaces -->
<g id="node2" class="node">
<title>gifti_surface_wfget_surfaces</title>
<polygon fill="none" stroke="black" points="272,-691.5 272,-806.5 593,-806.5 593,-691.5 272,-691.5"/>
<text text-anchor="middle" x="323.5" y="-783.8" font-family="Times,serif" font-size="14.00">IN</text>
<polyline fill="none" stroke="black" points="272,-768.5 375,-768.5 "/>
<text text-anchor="middle" x="323.5" y="-745.8" font-family="Times,serif" font-size="14.00">subject_id</text>
<polyline fill="none" stroke="black" points="272,-730.5 375,-730.5 "/>
<text text-anchor="middle" x="323.5" y="-707.3" font-family="Times,serif" font-size="14.00">subjects_dir</text>
<polyline fill="none" stroke="black" points="375,-691.5 375,-806.5 "/>
<text text-anchor="middle" x="428.5" y="-783.8" font-family="Times,serif" font-size="14.00">get_surfaces</text>
<polyline fill="none" stroke="black" points="375,-768.5 482,-768.5 "/>
<text text-anchor="middle" x="428.5" y="-745.8" font-family="Times,serif" font-size="14.00">utility</text>
<polyline fill="none" stroke="black" points="375,-730.5 482,-730.5 "/>
<text text-anchor="middle" x="428.5" y="-707.3" font-family="Times,serif" font-size="14.00"> </text>
<polyline fill="none" stroke="black" points="482,-691.5 482,-806.5 "/>
<text text-anchor="middle" x="537.5" y="-791.3" font-family="Times,serif" font-size="14.00">OUT</text>
<polyline fill="none" stroke="black" points="482,-783.5 593,-783.5 "/>
<text text-anchor="middle" x="537.5" y="-768.3" font-family="Times,serif" font-size="14.00">inflated</text>
<polyline fill="none" stroke="black" points="482,-760.5 593,-760.5 "/>
<text text-anchor="middle" x="537.5" y="-745.3" font-family="Times,serif" font-size="14.00">midthickness</text>
<polyline fill="none" stroke="black" points="482,-737.5 593,-737.5 "/>
<text text-anchor="middle" x="537.5" y="-722.3" font-family="Times,serif" font-size="14.00">pial</text>
<polyline fill="none" stroke="black" points="482,-714.5 593,-714.5 "/>
<text text-anchor="middle" x="537.5" y="-699.3" font-family="Times,serif" font-size="14.00">white</text>
</g>
<!-- gifti_surface_wfinputnode&#45;&gt;gifti_surface_wfget_surfaces -->
<g id="edge9" class="edge">
<title>gifti_surface_wfinputnode:e&#45;&gt;gifti_surface_wfget_surfaces:w</title>
<path fill="none" stroke="black" d="M272.5,-877.5C324.97,-877.5 230,-768.22 260.58,-752"/>
<polygon fill="black" stroke="black" points="261.39,-755.41 270.5,-750 260.01,-748.55 261.39,-755.41"/>
</g>
<!-- gifti_surface_wfinputnode&#45;&gt;gifti_surface_wfget_surfaces -->
<g id="edge10" class="edge">
<title>gifti_surface_wfinputnode:e&#45;&gt;gifti_surface_wfget_surfaces:w</title>
<path fill="none" stroke="black" d="M272.5,-854.5C293.62,-854.5 271.83,-828.11 271.5,-807 270.89,-768.5 235.83,-721.32 260.33,-712.47"/>
<polygon fill="black" stroke="black" points="261.1,-715.89 270.5,-711 260.1,-708.96 261.1,-715.89"/>
</g>
<!-- gifti_surface_wffix_surfs -->
<g id="node5" class="node">
<title>gifti_surface_wffix_surfs</title>
<polygon fill="none" stroke="black" points="912,-327.5 912,-396.5 1173,-396.5 1173,-327.5 912,-327.5"/>
<text text-anchor="middle" x="970" y="-381.3" font-family="Times,serif" font-size="14.00">IN</text>
<polyline fill="none" stroke="black" points="912,-373.5 1028,-373.5 "/>
<text text-anchor="middle" x="970" y="-358.3" font-family="Times,serif" font-size="14.00">in_file</text>
<polyline fill="none" stroke="black" points="912,-350.5 1028,-350.5 "/>
<text text-anchor="middle" x="970" y="-335.3" font-family="Times,serif" font-size="14.00">transform_file</text>
<polyline fill="none" stroke="black" points="1028,-327.5 1028,-396.5 "/>
<text text-anchor="middle" x="1066.5" y="-381.3" font-family="Times,serif" font-size="14.00">fix_surfs</text>
<polyline fill="none" stroke="black" points="1028,-373.5 1105,-373.5 "/>
<text text-anchor="middle" x="1066.5" y="-358.3" font-family="Times,serif" font-size="14.00">surf</text>
<polyline fill="none" stroke="black" points="1028,-350.5 1105,-350.5 "/>
<text text-anchor="middle" x="1066.5" y="-335.3" font-family="Times,serif" font-size="14.00"> </text>
<polyline fill="none" stroke="black" points="1105,-327.5 1105,-396.5 "/>
<text text-anchor="middle" x="1139" y="-375.8" font-family="Times,serif" font-size="14.00">OUT</text>
<polyline fill="none" stroke="black" points="1105,-362.5 1173,-362.5 "/>
<text text-anchor="middle" x="1139" y="-341.3" font-family="Times,serif" font-size="14.00">out_file</text>
</g>
<!-- gifti_surface_wfinputnode&#45;&gt;gifti_surface_wffix_surfs -->
<g id="edge8" class="edge">
<title>gifti_surface_wfinputnode:e&#45;&gt;gifti_surface_wffix_surfs:w</title>
<path fill="none" stroke="black" d="M272.5,-901.5C526.66,-901.5 610.81,-836.72 788.5,-655 848.29,-593.85 877.8,-583.56 906.5,-503 907.8,-499.36 906.49,-384.05 908.84,-349.01"/>
<polygon fill="black" stroke="black" points="912.32,-349.44 910.5,-339 905.41,-348.29 912.32,-349.44"/>
</g>
<!-- gifti_surface_wfsurface_list -->
<g id="node3" class="node">
<title>gifti_surface_wfsurface_list</title>
<polygon fill="none" stroke="black" points="593.5,-539.5 593.5,-654.5 779.5,-654.5 779.5,-539.5 593.5,-539.5"/>
<text text-anchor="middle" x="613" y="-639.3" font-family="Times,serif" font-size="14.00">IN</text>
<polyline fill="none" stroke="black" points="593.5,-631.5 632.5,-631.5 "/>
<text text-anchor="middle" x="613" y="-616.3" font-family="Times,serif" font-size="14.00">in1</text>
<polyline fill="none" stroke="black" points="593.5,-608.5 632.5,-608.5 "/>
<text text-anchor="middle" x="613" y="-593.3" font-family="Times,serif" font-size="14.00">in2</text>
<polyline fill="none" stroke="black" points="593.5,-585.5 632.5,-585.5 "/>
<text text-anchor="middle" x="613" y="-570.3" font-family="Times,serif" font-size="14.00">in3</text>
<polyline fill="none" stroke="black" points="593.5,-562.5 632.5,-562.5 "/>
<text text-anchor="middle" x="613" y="-547.3" font-family="Times,serif" font-size="14.00">in4</text>
<polyline fill="none" stroke="black" points="632.5,-539.5 632.5,-654.5 "/>
<text text-anchor="middle" x="681.5" y="-631.8" font-family="Times,serif" font-size="14.00">surface_list</text>
<polyline fill="none" stroke="black" points="632.5,-616.5 730.5,-616.5 "/>
<text text-anchor="middle" x="681.5" y="-593.8" font-family="Times,serif" font-size="14.00">utility</text>
<polyline fill="none" stroke="black" points="632.5,-578.5 730.5,-578.5 "/>
<text text-anchor="middle" x="681.5" y="-555.3" font-family="Times,serif" font-size="14.00"> </text>
<polyline fill="none" stroke="black" points="730.5,-539.5 730.5,-654.5 "/>
<text text-anchor="middle" x="755" y="-622.3" font-family="Times,serif" font-size="14.00">OUT</text>
<polyline fill="none" stroke="black" points="730.5,-597.5 779.5,-597.5 "/>
<text text-anchor="middle" x="755" y="-564.8" font-family="Times,serif" font-size="14.00">out</text>
</g>
<!-- gifti_surface_wfget_surfaces&#45;&gt;gifti_surface_wfsurface_list -->
<g id="edge4" class="edge">
<title>gifti_surface_wfget_surfaces:e&#45;&gt;gifti_surface_wfsurface_list:w</title>
<path fill="none" stroke="black" d="M594.5,-772C678.55,-772 519.95,-591.39 582.2,-575.16"/>
<polygon fill="black" stroke="black" points="582.96,-578.6 592.5,-574 582.17,-571.64 582.96,-578.6"/>
</g>
<!-- gifti_surface_wfget_surfaces&#45;&gt;gifti_surface_wfsurface_list -->
<g id="edge5" class="edge">
<title>gifti_surface_wfget_surfaces:e&#45;&gt;gifti_surface_wfsurface_list:w</title>
<path fill="none" stroke="black" d="M594.5,-749C657.97,-749 540.79,-614.85 582.39,-598.6"/>
<polygon fill="black" stroke="black" points="583.17,-602.02 592.5,-597 582.08,-595.11 583.17,-602.02"/>
</g>
<!-- gifti_surface_wfget_surfaces&#45;&gt;gifti_surface_wfsurface_list -->
<g id="edge6" class="edge">
<title>gifti_surface_wfget_surfaces:e&#45;&gt;gifti_surface_wfsurface_list:w</title>
<path fill="none" stroke="black" d="M594.5,-726C637.2,-726 562.17,-638.94 582.79,-622.62"/>
<polygon fill="black" stroke="black" points="583.76,-625.98 592.5,-620 581.93,-619.23 583.76,-625.98"/>
</g>
<!-- gifti_surface_wfget_surfaces&#45;&gt;gifti_surface_wfsurface_list -->
<g id="edge7" class="edge">
<title>gifti_surface_wfget_surfaces:e&#45;&gt;gifti_surface_wfsurface_list:w</title>
<path fill="none" stroke="black" d="M594.5,-703C615.84,-703 593.82,-676.34 593.5,-655 592.86,-612.75 553.93,-560.85 582.55,-552.24"/>
<polygon fill="black" stroke="black" points="583.01,-555.71 592.5,-551 582.14,-548.76 583.01,-555.71"/>
</g>
<!-- gifti_surface_wffs2gii -->
<g id="node4" class="node">
<title>gifti_surface_wffs2gii</title>
<polygon fill="none" stroke="black" points="661.5,-433.5 661.5,-502.5 897.5,-502.5 897.5,-433.5 661.5,-433.5"/>
<text text-anchor="middle" x="691" y="-481.8" font-family="Times,serif" font-size="14.00">IN</text>
<polyline fill="none" stroke="black" points="661.5,-468.5 720.5,-468.5 "/>
<text text-anchor="middle" x="691" y="-447.3" font-family="Times,serif" font-size="14.00">in_file</text>
<polyline fill="none" stroke="black" points="720.5,-433.5 720.5,-502.5 "/>
<text text-anchor="middle" x="765" y="-487.3" font-family="Times,serif" font-size="14.00">fs2gii</text>
<polyline fill="none" stroke="black" points="720.5,-479.5 809.5,-479.5 "/>
<text text-anchor="middle" x="765" y="-464.3" font-family="Times,serif" font-size="14.00">freesurfer</text>
<polyline fill="none" stroke="black" points="720.5,-456.5 809.5,-456.5 "/>
<text text-anchor="middle" x="765" y="-441.3" font-family="Times,serif" font-size="14.00"> </text>
<polyline fill="none" stroke="black" points="809.5,-433.5 809.5,-502.5 "/>
<text text-anchor="middle" x="853.5" y="-481.8" font-family="Times,serif" font-size="14.00">OUT</text>
<polyline fill="none" stroke="black" points="809.5,-468.5 897.5,-468.5 "/>
<text text-anchor="middle" x="853.5" y="-447.3" font-family="Times,serif" font-size="14.00">converted</text>
</g>
<!-- gifti_surface_wfsurface_list&#45;&gt;gifti_surface_wffs2gii -->
<g id="edge15" class="edge">
<title>gifti_surface_wfsurface_list:e&#45;&gt;gifti_surface_wffs2gii:w</title>
<path fill="none" stroke="black" d="M780.5,-568C793.4,-568 787.35,-549.23 779.5,-539 746.12,-495.5 694.55,-546.75 661.5,-503 650.18,-488.01 641.33,-463.05 650.81,-454.22"/>
<polygon fill="black" stroke="black" points="652.11,-457.47 660.5,-451 649.91,-450.83 652.11,-457.47"/>
</g>
<!-- gifti_surface_wffs2gii&#45;&gt;gifti_surface_wffix_surfs -->
<g id="edge3" class="edge">
<title>gifti_surface_wffs2gii:e&#45;&gt;gifti_surface_wffix_surfs:w</title>
<path fill="none" stroke="black" d="M898.5,-451C914.87,-451 899.03,-391.11 903.82,-369.59"/>
<polygon fill="black" stroke="black" points="906.52,-371.82 910.5,-362 901.27,-367.2 906.52,-371.82"/>
</g>
<!-- gifti_surface_wfsurface_groups -->
<g id="node6" class="node">
<title>gifti_surface_wfsurface_groups</title>
<polygon fill="none" stroke="black" points="1046,-175.5 1046,-290.5 1273,-290.5 1273,-175.5 1046,-175.5"/>
<text text-anchor="middle" x="1072.5" y="-258.3" font-family="Times,serif" font-size="14.00">IN</text>
<polyline fill="none" stroke="black" points="1046,-233.5 1099,-233.5 "/>
<text text-anchor="middle" x="1072.5" y="-200.8" font-family="Times,serif" font-size="14.00">inlist</text>
<polyline fill="none" stroke="black" points="1099,-175.5 1099,-290.5 "/>
<text text-anchor="middle" x="1161.5" y="-267.8" font-family="Times,serif" font-size="14.00">surface_groups</text>
<polyline fill="none" stroke="black" points="1099,-252.5 1224,-252.5 "/>
<text text-anchor="middle" x="1161.5" y="-229.8" font-family="Times,serif" font-size="14.00">utility</text>
<polyline fill="none" stroke="black" points="1099,-214.5 1224,-214.5 "/>
<text text-anchor="middle" x="1161.5" y="-191.3" font-family="Times,serif" font-size="14.00"> </text>
<polyline fill="none" stroke="black" points="1224,-175.5 1224,-290.5 "/>
<text text-anchor="middle" x="1248.5" y="-275.3" font-family="Times,serif" font-size="14.00">OUT</text>
<polyline fill="none" stroke="black" points="1224,-267.5 1273,-267.5 "/>
<text text-anchor="middle" x="1248.5" y="-252.3" font-family="Times,serif" font-size="14.00">out1</text>
<polyline fill="none" stroke="black" points="1224,-244.5 1273,-244.5 "/>
<text text-anchor="middle" x="1248.5" y="-229.3" font-family="Times,serif" font-size="14.00">out2</text>
<polyline fill="none" stroke="black" points="1224,-221.5 1273,-221.5 "/>
<text text-anchor="middle" x="1248.5" y="-206.3" font-family="Times,serif" font-size="14.00">out3</text>
<polyline fill="none" stroke="black" points="1224,-198.5 1273,-198.5 "/>
<text text-anchor="middle" x="1248.5" y="-183.3" font-family="Times,serif" font-size="14.00">out4</text>
</g>
<!-- gifti_surface_wffix_surfs&#45;&gt;gifti_surface_wfsurface_groups -->
<g id="edge2" class="edge">
<title>gifti_surface_wffix_surfs:e&#45;&gt;gifti_surface_wfsurface_groups:w</title>
<path fill="none" stroke="black" d="M1174.5,-345C1182.51,-345 1178.51,-333.25 1173.5,-327 1136.52,-280.9 1081.45,-337.9 1045.5,-291 1024.36,-263.43 1009.19,-215.17 1034.36,-205.66"/>
<polygon fill="black" stroke="black" points="1035.2,-209.07 1044.5,-204 1034.07,-202.16 1035.2,-209.07"/>
</g>
<!-- gifti_surface_wfoutputnode -->
<g id="node7" class="node">
<title>gifti_surface_wfoutputnode</title>
<polygon fill="none" stroke="black" points="1273.5,-0.5 1273.5,-138.5 1531.5,-138.5 1531.5,-0.5 1273.5,-0.5"/>
<text text-anchor="middle" x="1329" y="-123.3" font-family="Times,serif" font-size="14.00">IN</text>
<polyline fill="none" stroke="black" points="1273.5,-115.5 1384.5,-115.5 "/>
<text text-anchor="middle" x="1329" y="-100.3" font-family="Times,serif" font-size="14.00">inflated</text>
<polyline fill="none" stroke="black" points="1273.5,-92.5 1384.5,-92.5 "/>
<text text-anchor="middle" x="1329" y="-77.3" font-family="Times,serif" font-size="14.00">midthickness</text>
<polyline fill="none" stroke="black" points="1273.5,-69.5 1384.5,-69.5 "/>
<text text-anchor="middle" x="1329" y="-54.3" font-family="Times,serif" font-size="14.00">pial</text>
<polyline fill="none" stroke="black" points="1273.5,-46.5 1384.5,-46.5 "/>
<text text-anchor="middle" x="1329" y="-31.3" font-family="Times,serif" font-size="14.00">surfaces</text>
<polyline fill="none" stroke="black" points="1273.5,-23.5 1384.5,-23.5 "/>
<text text-anchor="middle" x="1329" y="-8.3" font-family="Times,serif" font-size="14.00">white</text>
<polyline fill="none" stroke="black" points="1384.5,-0.5 1384.5,-138.5 "/>
<text text-anchor="middle" x="1433.5" y="-111.8" font-family="Times,serif" font-size="14.00">outputnode</text>
<polyline fill="none" stroke="black" points="1384.5,-92.5 1482.5,-92.5 "/>
<text text-anchor="middle" x="1433.5" y="-65.8" font-family="Times,serif" font-size="14.00">utility</text>
<polyline fill="none" stroke="black" points="1384.5,-46.5 1482.5,-46.5 "/>
<text text-anchor="middle" x="1433.5" y="-19.8" font-family="Times,serif" font-size="14.00"> </text>
<polyline fill="none" stroke="black" points="1482.5,-0.5 1482.5,-138.5 "/>
<text text-anchor="middle" x="1507" y="-65.8" font-family="Times,serif" font-size="14.00">OUT</text>
</g>
<!-- gifti_surface_wffix_surfs&#45;&gt;gifti_surface_wfoutputnode -->
<g id="edge1" class="edge">
<title>gifti_surface_wffix_surfs:e&#45;&gt;gifti_surface_wfoutputnode:w</title>
<path fill="none" stroke="black" d="M1174.5,-345C1228.17,-345 1254.29,-336.65 1282.5,-291 1309.6,-247.14 1288.8,-226.17 1282.5,-175 1280.48,-158.63 1275.59,-155.36 1273.5,-139 1268.11,-96.89 1232.93,-44.45 1262.4,-35.75"/>
<polygon fill="black" stroke="black" points="1263.01,-39.2 1272.5,-34.5 1262.15,-32.25 1263.01,-39.2"/>
</g>
<!-- gifti_surface_wfsurface_groups&#45;&gt;gifti_surface_wfoutputnode -->
<g id="edge11" class="edge">
<title>gifti_surface_wfsurface_groups:e&#45;&gt;gifti_surface_wfoutputnode:w</title>
<path fill="none" stroke="black" d="M1274.5,-256C1314.48,-256 1244.12,-92.97 1263.41,-62.41"/>
<polygon fill="black" stroke="black" points="1265.36,-65.33 1272.5,-57.5 1262.04,-59.17 1265.36,-65.33"/>
</g>
<!-- gifti_surface_wfsurface_groups&#45;&gt;gifti_surface_wfoutputnode -->
<g id="edge12" class="edge">
<title>gifti_surface_wfsurface_groups:e&#45;&gt;gifti_surface_wfoutputnode:w</title>
<path fill="none" stroke="black" d="M1274.5,-233C1304.09,-233 1254.11,-115.97 1264.43,-87.63"/>
<polygon fill="black" stroke="black" points="1266.65,-90.34 1272.5,-81.5 1262.42,-84.76 1266.65,-90.34"/>
</g>
<!-- gifti_surface_wfsurface_groups&#45;&gt;gifti_surface_wfoutputnode -->
<g id="edge13" class="edge">
<title>gifti_surface_wfsurface_groups:e&#45;&gt;gifti_surface_wfoutputnode:w</title>
<path fill="none" stroke="black" d="M1274.5,-210C1294.01,-210 1263.44,-136.96 1266.12,-112.43"/>
<polygon fill="black" stroke="black" points="1268.96,-114.49 1272.5,-104.5 1263.51,-110.1 1268.96,-114.49"/>
</g>
<!-- gifti_surface_wfsurface_groups&#45;&gt;gifti_surface_wfoutputnode -->
<g id="edge14" class="edge">
<title>gifti_surface_wfsurface_groups:e&#45;&gt;gifti_surface_wfoutputnode:w</title>
<path fill="none" stroke="black" d="M1274.5,-187C1295.84,-187 1273.81,-160.34 1273.5,-139 1272.74,-86.32 1223.55,-21.39 1262.17,-12.52"/>
<polygon fill="black" stroke="black" points="1262.89,-15.97 1272.5,-11.5 1262.2,-9 1262.89,-15.97"/>
</g>
</g>
</svg>
