<?xml version="1.0" encoding="UTF-8" standalone="no"?>
<!DOCTYPE svg PUBLIC "-//W3C//DTD SVG 1.1//EN"
 "http://www.w3.org/Graphics/SVG/1.1/DTD/svg11.dtd">
<!-- Generated by graphviz version 2.40.1 (20161225.0304)
 -->
<!-- Title: %3 Pages: 1 -->
<svg width="1123pt" height="548pt"
 viewBox="0.00 0.00 1123.28 548.00" xmlns="http://www.w3.org/2000/svg" xmlns:xlink="http://www.w3.org/1999/xlink">
<g id="graph0" class="graph" transform="scale(1 1) rotate(0) translate(4 544)">
<title>%3</title>
<polygon fill="#ffffff" stroke="transparent" points="-4,4 -4,-544 1119.277,-544 1119.277,4 -4,4"/>
<!-- inputnode (utility) -->
<g id="node1" class="node">
<title>inputnode (utility)</title>
<ellipse fill="none" stroke="#000000" cx="613.1367" cy="-522" rx="94.7833" ry="18"/>
<text text-anchor="middle" x="613.1367" y="-518.3" font-family="Times,serif" font-size="14.00" fill="#000000">inputnode (utility)</text>
</g>
<!-- recon_config (freesurfer) -->
<g id="node2" class="node">
<title>recon_config (freesurfer)</title>
<ellipse fill="none" stroke="#000000" cx="830.1367" cy="-450" rx="127.2775" ry="18"/>
<text text-anchor="middle" x="830.1367" y="-446.3" font-family="Times,serif" font-size="14.00" fill="#000000">recon_config (freesurfer)</text>
</g>
<!-- inputnode (utility)&#45;&gt;recon_config (freesurfer) -->
<g id="edge1" class="edge">
<title>inputnode (utility)&#45;&gt;recon_config (freesurfer)</title>
<path fill="none" stroke="#000000" d="M660.4901,-506.2883C692.7492,-495.5848 735.7157,-481.3286 770.3357,-469.8418"/>
<polygon fill="#000000" stroke="#000000" points="771.4741,-473.1518 779.8631,-466.6806 769.2697,-466.5079 771.4741,-473.1518"/>
</g>
<!-- autorecon1 (freesurfer) -->
<g id="node3" class="node">
<title>autorecon1 (freesurfer)</title>
<ellipse fill="none" stroke="#000000" cx="527.1367" cy="-378" rx="120.4791" ry="18"/>
<text text-anchor="middle" x="527.1367" y="-374.3" font-family="Times,serif" font-size="14.00" fill="#000000">autorecon1 (freesurfer)</text>
</g>
<!-- inputnode (utility)&#45;&gt;autorecon1 (freesurfer) -->
<g id="edge2" class="edge">
<title>inputnode (utility)&#45;&gt;autorecon1 (freesurfer)</title>
<path fill="none" stroke="#000000" d="M548.0652,-508.8902C507.3365,-499.2146 460.3431,-484.8383 448.1367,-468 438.7459,-455.0457 440.6689,-446.1503 448.1367,-432 454.9378,-419.1129 466.3523,-408.7176 478.4204,-400.6194"/>
<polygon fill="#000000" stroke="#000000" points="480.618,-403.3747 487.2668,-395.1258 476.9251,-397.428 480.618,-403.3747"/>
</g>
<!-- fov_check (utility) -->
<g id="node4" class="node">
<title>fov_check (utility)</title>
<ellipse fill="none" stroke="#000000" cx="552.1367" cy="-450" rx="94.7833" ry="18"/>
<text text-anchor="middle" x="552.1367" y="-446.3" font-family="Times,serif" font-size="14.00" fill="#000000">fov_check (utility)</text>
</g>
<!-- inputnode (utility)&#45;&gt;fov_check (utility) -->
<g id="edge3" class="edge">
<title>inputnode (utility)&#45;&gt;fov_check (utility)</title>
<path fill="none" stroke="#000000" d="M598.058,-504.2022C590.7262,-495.5483 581.781,-484.99 573.7399,-475.4988"/>
<polygon fill="#000000" stroke="#000000" points="576.3879,-473.2099 567.2533,-467.8425 571.047,-477.7349 576.3879,-473.2099"/>
</g>
<!-- skull_strip_extern (freesurfer) -->
<g id="node5" class="node">
<title>skull_strip_extern (freesurfer)</title>
<ellipse fill="none" stroke="#000000" cx="675.1367" cy="-306" rx="151.3732" ry="18"/>
<text text-anchor="middle" x="675.1367" y="-302.3" font-family="Times,serif" font-size="14.00" fill="#000000">skull_strip_extern (freesurfer)</text>
</g>
<!-- inputnode (utility)&#45;&gt;skull_strip_extern (freesurfer) -->
<g id="edge4" class="edge">
<title>inputnode (utility)&#45;&gt;skull_strip_extern (freesurfer)</title>
<path fill="none" stroke="#000000" d="M631.5271,-504.197C640.4864,-494.3938 650.5157,-481.497 656.1367,-468 674.4274,-424.0804 676.8938,-368.0339 676.4284,-334.6941"/>
<polygon fill="#000000" stroke="#000000" points="679.9181,-334.2207 676.1768,-324.3084 672.9201,-334.3903 679.9181,-334.2207"/>
</g>
<!-- fsnative2t1w_xfm (freesurfer) -->
<g id="node6" class="node">
<title>fsnative2t1w_xfm (freesurfer)</title>
<ellipse fill="none" stroke="#000000" cx="557.1367" cy="-234" rx="150.2735" ry="18"/>
<text text-anchor="middle" x="557.1367" y="-230.3" font-family="Times,serif" font-size="14.00" fill="#000000">fsnative2t1w_xfm (freesurfer)</text>
</g>
<!-- inputnode (utility)&#45;&gt;fsnative2t1w_xfm (freesurfer) -->
<g id="edge5" class="edge">
<title>inputnode (utility)&#45;&gt;fsnative2t1w_xfm (freesurfer)</title>
<path fill="none" stroke="#000000" d="M526.6231,-514.5702C463.4103,-507.138 385.3526,-493.0914 365.1367,-468 302.2975,-390.0056 439.4575,-298.4387 513.6411,-256.7429"/>
<polygon fill="#000000" stroke="#000000" points="515.7428,-259.5798 522.7934,-251.6716 512.3501,-253.4569 515.7428,-259.5798"/>
</g>
<!-- refine (freesurfer) -->
<g id="node7" class="node">
<title>refine (freesurfer)</title>
<ellipse fill="none" stroke="#000000" cx="1007.1367" cy="-90" rx="94.7833" ry="18"/>
<text text-anchor="middle" x="1007.1367" y="-86.3" font-family="Times,serif" font-size="14.00" fill="#000000">refine (freesurfer)</text>
</g>
<!-- inputnode (utility)&#45;&gt;refine (freesurfer) -->
<g id="edge6" class="edge">
<title>inputnode (utility)&#45;&gt;refine (freesurfer)</title>
<path fill="none" stroke="#000000" d="M699.5993,-514.4772C794.1263,-505.3987 938.9695,-488.7372 990.1367,-468 1053.2478,-442.4221 1114.1367,-446.0972 1114.1367,-378 1114.1367,-378 1114.1367,-378 1114.1367,-234 1114.1367,-193.1184 1118.6981,-177.4091 1095.1367,-144 1085.555,-130.4135 1071.365,-119.5836 1057.1636,-111.2963"/>
<polygon fill="#000000" stroke="#000000" points="1058.811,-108.208 1048.3609,-106.463 1055.4419,-114.3439 1058.811,-108.208"/>
</g>
<!-- segs_to_native_aseg -->
<g id="node8" class="node">
<title>segs_to_native_aseg</title>
<ellipse fill="none" stroke="#000000" cx="980.1367" cy="-162" rx="105.8812" ry="18"/>
<text text-anchor="middle" x="980.1367" y="-158.3" font-family="Times,serif" font-size="14.00" fill="#000000">segs_to_native_aseg</text>
</g>
<!-- inputnode (utility)&#45;&gt;segs_to_native_aseg -->
<g id="edge7" class="edge">
<title>inputnode (utility)&#45;&gt;segs_to_native_aseg</title>
<path fill="none" stroke="#000000" d="M698.5352,-514.0279C796.726,-504.0791 946.9322,-486.1534 966.1367,-468 995.846,-439.9168 985.1367,-418.8816 985.1367,-378 985.1367,-378 985.1367,-378 985.1367,-306 985.1367,-265.8518 983.1714,-219.4451 981.7051,-190.4076"/>
<polygon fill="#000000" stroke="#000000" points="985.1878,-189.9829 981.1727,-180.1784 978.1973,-190.3468 985.1878,-189.9829"/>
</g>
<!-- segs_to_native_aparc_aseg -->
<g id="node9" class="node">
<title>segs_to_native_aparc_aseg</title>
<ellipse fill="none" stroke="#000000" cx="493.1367" cy="-162" rx="137.2758" ry="18"/>
<text text-anchor="middle" x="493.1367" y="-158.3" font-family="Times,serif" font-size="14.00" fill="#000000">segs_to_native_aparc_aseg</text>
</g>
<!-- inputnode (utility)&#45;&gt;segs_to_native_aparc_aseg -->
<g id="edge8" class="edge">
<title>inputnode (utility)&#45;&gt;segs_to_native_aparc_aseg</title>
<path fill="none" stroke="#000000" d="M538.0086,-510.9904C504.5993,-503.2218 466.3139,-490.0895 437.1367,-468 399.1967,-439.2763 379.1367,-425.5867 379.1367,-378 379.1367,-378 379.1367,-378 379.1367,-306 379.1367,-265.1184 374.0188,-249.0097 398.1367,-216 408.0538,-202.4265 422.4873,-191.7799 437.1225,-183.6602"/>
<polygon fill="#000000" stroke="#000000" points="438.9656,-186.6468 446.2225,-178.9275 435.7357,-180.4364 438.9656,-186.6468"/>
</g>
<!-- recon_config (freesurfer)&#45;&gt;autorecon1 (freesurfer) -->
<g id="edge9" class="edge">
<title>recon_config (freesurfer)&#45;&gt;autorecon1 (freesurfer)</title>
<path fill="none" stroke="#000000" d="M764.7632,-434.4657C716.6491,-423.0327 651.1805,-407.4758 601.1442,-395.586"/>
<polygon fill="#000000" stroke="#000000" points="601.8908,-392.166 591.3525,-393.2592 600.2724,-398.9763 601.8908,-392.166"/>
</g>
<!-- autorecon_resume_wf -->
<g id="node10" class="node">
<title>autorecon_resume_wf</title>
<ellipse fill="none" stroke="#000000" cx="841.1367" cy="-234" rx="113.18" ry="18"/>
<text text-anchor="middle" x="841.1367" y="-230.3" font-family="Times,serif" font-size="14.00" fill="#000000">autorecon_resume_wf</text>
</g>
<!-- recon_config (freesurfer)&#45;&gt;autorecon_resume_wf -->
<g id="edge10" class="edge">
<title>recon_config (freesurfer)&#45;&gt;autorecon_resume_wf</title>
<path fill="none" stroke="#000000" d="M831.0556,-431.9555C832.9685,-394.3938 837.3909,-307.5541 839.6899,-262.4103"/>
<polygon fill="#000000" stroke="#000000" points="843.1994,-262.3102 840.2126,-252.1451 836.2085,-261.9541 843.1994,-262.3102"/>
</g>
<!-- autorecon1 (freesurfer)&#45;&gt;skull_strip_extern (freesurfer) -->
<g id="edge11" class="edge">
<title>autorecon1 (freesurfer)&#45;&gt;skull_strip_extern (freesurfer)</title>
<path fill="none" stroke="#000000" d="M562.5864,-360.7542C582.7897,-350.9256 608.3118,-338.5094 629.9428,-327.9862"/>
<polygon fill="#000000" stroke="#000000" points="631.4869,-331.1273 638.9481,-323.6053 628.4246,-324.8327 631.4869,-331.1273"/>
</g>
<!-- autorecon1 (freesurfer)&#45;&gt;fsnative2t1w_xfm (freesurfer) -->
<g id="edge12" class="edge">
<title>autorecon1 (freesurfer)&#45;&gt;fsnative2t1w_xfm (freesurfer)</title>
<path fill="none" stroke="#000000" d="M520.0029,-359.9341C513.77,-341.4134 506.9003,-312.0052 515.1367,-288 518.6057,-277.8894 524.8266,-268.2137 531.4357,-259.9166"/>
<polygon fill="#000000" stroke="#000000" points="534.2631,-261.9949 538.0867,-252.1141 528.9359,-257.4539 534.2631,-261.9949"/>
</g>
<!-- fov_check (utility)&#45;&gt;autorecon1 (freesurfer) -->
<g id="edge13" class="edge">
<title>fov_check (utility)&#45;&gt;autorecon1 (freesurfer)</title>
<path fill="none" stroke="#000000" d="M545.8281,-431.8314C543.125,-424.0463 539.9051,-414.7729 536.9057,-406.1347"/>
<polygon fill="#000000" stroke="#000000" points="540.1167,-404.7119 533.5302,-396.4133 533.504,-407.0081 540.1167,-404.7119"/>
</g>
<!-- skull_strip_extern (freesurfer)&#45;&gt;autorecon_resume_wf -->
<g id="edge14" class="edge">
<title>skull_strip_extern (freesurfer)&#45;&gt;autorecon_resume_wf</title>
<path fill="none" stroke="#000000" d="M715.3206,-288.5708C738.5309,-278.5037 767.8925,-265.7686 792.4126,-255.1333"/>
<polygon fill="#000000" stroke="#000000" points="794.1141,-258.2104 801.8956,-251.0202 791.3286,-251.7885 794.1141,-258.2104"/>
</g>
<!-- fsnative2t1w_xfm (freesurfer)&#45;&gt;segs_to_native_aseg -->
<g id="edge17" class="edge">
<title>fsnative2t1w_xfm (freesurfer)&#45;&gt;segs_to_native_aseg</title>
<path fill="none" stroke="#000000" d="M643.7578,-219.256C717.1679,-206.7606 821.8496,-188.9425 894.8713,-176.5133"/>
<polygon fill="#000000" stroke="#000000" points="895.6874,-179.9248 904.9583,-174.7963 894.5128,-173.024 895.6874,-179.9248"/>
</g>
<!-- fsnative2t1w_xfm (freesurfer)&#45;&gt;segs_to_native_aparc_aseg -->
<g id="edge18" class="edge">
<title>fsnative2t1w_xfm (freesurfer)&#45;&gt;segs_to_native_aparc_aseg</title>
<path fill="none" stroke="#000000" d="M540.9868,-215.8314C533.3493,-207.2392 524.1002,-196.834 515.7774,-187.4708"/>
<polygon fill="#000000" stroke="#000000" points="518.3193,-185.0622 509.0597,-179.9134 513.0874,-189.7128 518.3193,-185.0622"/>
</g>
<!-- gifti_surface_wf -->
<g id="node11" class="node">
<title>gifti_surface_wf</title>
<ellipse fill="none" stroke="#000000" cx="733.1367" cy="-162" rx="85.2851" ry="18"/>
<text text-anchor="middle" x="733.1367" y="-158.3" font-family="Times,serif" font-size="14.00" fill="#000000">gifti_surface_wf</text>
</g>
<!-- fsnative2t1w_xfm (freesurfer)&#45;&gt;gifti_surface_wf -->
<g id="edge15" class="edge">
<title>fsnative2t1w_xfm (freesurfer)&#45;&gt;gifti_surface_wf</title>
<path fill="none" stroke="#000000" d="M599.7414,-216.5708C625.2924,-206.1181 657.8747,-192.789 684.4416,-181.9207"/>
<polygon fill="#000000" stroke="#000000" points="686.0029,-185.0636 693.9331,-178.0378 683.3524,-178.5848 686.0029,-185.0636"/>
</g>
<!-- outputnode (utility) -->
<g id="node12" class="node">
<title>outputnode (utility)</title>
<ellipse fill="none" stroke="#000000" cx="733.1367" cy="-18" rx="101.2821" ry="18"/>
<text text-anchor="middle" x="733.1367" y="-14.3" font-family="Times,serif" font-size="14.00" fill="#000000">outputnode (utility)</text>
</g>
<!-- fsnative2t1w_xfm (freesurfer)&#45;&gt;outputnode (utility) -->
<g id="edge19" class="edge">
<title>fsnative2t1w_xfm (freesurfer)&#45;&gt;outputnode (utility)</title>
<path fill="none" stroke="#000000" d="M442.8618,-222.3144C377.8395,-210.7504 315.1671,-188.0654 347.1367,-144 383.343,-94.0949 550.2932,-53.5608 652.4077,-32.8919"/>
<polygon fill="#000000" stroke="#000000" points="653.2679,-36.2892 662.3859,-30.8936 651.8933,-29.4255 653.2679,-36.2892"/>
</g>
<!-- t1w2fsnative_xfm (freesurfer) -->
<g id="node13" class="node">
<title>t1w2fsnative_xfm (freesurfer)</title>
<ellipse fill="none" stroke="#000000" cx="150.1367" cy="-90" rx="150.2735" ry="18"/>
<text text-anchor="middle" x="150.1367" y="-86.3" font-family="Times,serif" font-size="14.00" fill="#000000">t1w2fsnative_xfm (freesurfer)</text>
</g>
<!-- fsnative2t1w_xfm (freesurfer)&#45;&gt;t1w2fsnative_xfm (freesurfer) -->
<g id="edge16" class="edge">
<title>fsnative2t1w_xfm (freesurfer)&#45;&gt;t1w2fsnative_xfm (freesurfer)</title>
<path fill="none" stroke="#000000" d="M464.482,-219.7889C418.3886,-211.128 362.3637,-198.1686 314.1367,-180 267.4651,-162.4173 217.7745,-133.5445 185.4805,-113.2531"/>
<polygon fill="#000000" stroke="#000000" points="187.1685,-110.179 176.8502,-107.774 183.4166,-116.0886 187.1685,-110.179"/>
</g>
<!-- refine (freesurfer)&#45;&gt;outputnode (utility) -->
<g id="edge20" class="edge">
<title>refine (freesurfer)&#45;&gt;outputnode (utility)</title>
<path fill="none" stroke="#000000" d="M951.3584,-75.3429C907.5341,-63.8271 846.3555,-47.7509 799.9231,-35.5497"/>
<polygon fill="#000000" stroke="#000000" points="800.8115,-32.1644 790.2503,-33.008 799.0325,-38.9346 800.8115,-32.1644"/>
</g>
<!-- segs_to_native_aseg&#45;&gt;refine (freesurfer) -->
<g id="edge21" class="edge">
<title>segs_to_native_aseg&#45;&gt;refine (freesurfer)</title>
<path fill="none" stroke="#000000" d="M986.9499,-143.8314C989.901,-135.9617 993.4225,-126.5712 996.6917,-117.8533"/>
<polygon fill="#000000" stroke="#000000" points="999.9976,-119.0055 1000.2317,-108.4133 993.4433,-116.5476 999.9976,-119.0055"/>
</g>
<!-- segs_to_native_aseg&#45;&gt;outputnode (utility) -->
<g id="edge22" class="edge">
<title>segs_to_native_aseg&#45;&gt;outputnode (utility)</title>
<path fill="none" stroke="#000000" d="M954.074,-144.5398C938.9698,-134.2197 919.7198,-120.7197 903.1367,-108 883.3598,-92.8306 881.3916,-85.0178 860.1367,-72 838.0579,-58.4777 811.9894,-46.7494 789.2336,-37.7101"/>
<polygon fill="#000000" stroke="#000000" points="790.2938,-34.3671 779.7052,-34.0034 787.7559,-40.8909 790.2938,-34.3671"/>
</g>
<!-- segs_to_native_aparc_aseg&#45;&gt;outputnode (utility) -->
<g id="edge23" class="edge">
<title>segs_to_native_aparc_aseg&#45;&gt;outputnode (utility)</title>
<path fill="none" stroke="#000000" d="M522.5654,-144.3428C566.0741,-118.2375 647.5604,-69.3458 695.4047,-40.6392"/>
<polygon fill="#000000" stroke="#000000" points="697.4427,-43.4981 704.2169,-35.3519 693.8412,-37.4956 697.4427,-43.4981"/>
</g>
<!-- autorecon_resume_wf&#45;&gt;segs_to_native_aseg -->
<g id="edge25" class="edge">
<title>autorecon_resume_wf&#45;&gt;segs_to_native_aseg</title>
<path fill="none" stroke="#000000" d="M874.4306,-216.7542C893.5145,-206.869 917.6515,-194.3664 938.0414,-183.8048"/>
<polygon fill="#000000" stroke="#000000" points="939.8447,-186.8124 947.1144,-179.1051 936.6251,-180.5967 939.8447,-186.8124"/>
</g>
<!-- autorecon_resume_wf&#45;&gt;segs_to_native_aparc_aseg -->
<g id="edge26" class="edge">
<title>autorecon_resume_wf&#45;&gt;segs_to_native_aparc_aseg</title>
<path fill="none" stroke="#000000" d="M771.967,-219.689C715.8475,-208.0781 636.533,-191.6682 576.8359,-179.3171"/>
<polygon fill="#000000" stroke="#000000" points="577.1823,-175.8147 566.6806,-177.216 575.764,-182.6695 577.1823,-175.8147"/>
</g>
<!-- autorecon_resume_wf&#45;&gt;gifti_surface_wf -->
<g id="edge24" class="edge">
<title>autorecon_resume_wf&#45;&gt;gifti_surface_wf</title>
<path fill="none" stroke="#000000" d="M814.7169,-216.3868C800.5178,-206.9208 782.8411,-195.1363 767.5758,-184.9594"/>
<polygon fill="#000000" stroke="#000000" points="769.173,-181.8178 758.911,-179.1829 765.2901,-187.6421 769.173,-181.8178"/>
</g>
<!-- autorecon_resume_wf&#45;&gt;outputnode (utility) -->
<g id="edge27" class="edge">
<title>autorecon_resume_wf&#45;&gt;outputnode (utility)</title>
<path fill="none" stroke="#000000" d="M840.8567,-215.714C839.991,-197.018 836.9954,-167.4725 827.1367,-144 810.805,-105.1162 779.9386,-67.2642 758.0358,-43.3667"/>
<polygon fill="#000000" stroke="#000000" points="760.3684,-40.7364 750.9854,-35.816 755.252,-45.5138 760.3684,-40.7364"/>
</g>
<!-- gifti_surface_wf&#45;&gt;outputnode (utility) -->
<g id="edge28" class="edge">
<title>gifti_surface_wf&#45;&gt;outputnode (utility)</title>
<path fill="none" stroke="#000000" d="M733.1367,-143.7623C733.1367,-119.201 733.1367,-75.2474 733.1367,-46.3541"/>
<polygon fill="#000000" stroke="#000000" points="736.6368,-46.0896 733.1367,-36.0896 729.6368,-46.0897 736.6368,-46.0896"/>
</g>
<!-- t1w2fsnative_xfm (freesurfer)&#45;&gt;outputnode (utility) -->
<g id="edge29" class="edge">
<title>t1w2fsnative_xfm (freesurfer)&#45;&gt;outputnode (utility)</title>
<path fill="none" stroke="#000000" d="M255.0387,-77.0447C364.6059,-63.5132 534.8508,-42.4881 639.8685,-29.5185"/>
<polygon fill="#000000" stroke="#000000" points="640.3281,-32.9885 649.8237,-28.2891 639.47,-26.0412 640.3281,-32.9885"/>
</g>
</g>
</svg>
