<?xml version="1.0" encoding="UTF-8" standalone="no"?>
<!DOCTYPE svg PUBLIC "-//W3C//DTD SVG 1.1//EN"
 "http://www.w3.org/Graphics/SVG/1.1/DTD/svg11.dtd">
<!-- Generated by graphviz version 2.40.1 (20161225.0304)
 -->
<!-- Title: structs Pages: 1 -->
<svg width="1351pt" height="958pt"
 viewBox="0.00 0.00 1350.84 958.00" xmlns="http://www.w3.org/2000/svg" xmlns:xlink="http://www.w3.org/1999/xlink">
<g id="graph0" class="graph" transform="scale(1 1) rotate(0) translate(4 954)">
<title>structs</title>
<polygon fill="#ffffff" stroke="transparent" points="-4,4 -4,-954 1346.8392,-954 1346.8392,4 -4,4"/>
<!-- gifti_surface_wfinputnode -->
<g id="node1" class="node">
<title>gifti_surface_wfinputnode</title>
<polygon fill="none" stroke="#000000" points="355.3392,-857.5 355.3392,-949.5 623.3392,-949.5 623.3392,-857.5 355.3392,-857.5"/>
<text text-anchor="middle" x="372.8392" y="-899.8" font-family="Times,serif" font-size="14.00" fill="#000000">IN</text>
<polyline fill="none" stroke="#000000" points="390.3392,-857.5 390.3392,-949.5 "/>
<text text-anchor="middle" x="434.8392" y="-930.8" font-family="Times,serif" font-size="14.00" fill="#000000">inputnode</text>
<polyline fill="none" stroke="#000000" points="390.3392,-919.5 479.3392,-919.5 "/>
<text text-anchor="middle" x="434.8392" y="-900.3" font-family="Times,serif" font-size="14.00" fill="#000000">utility</text>
<polyline fill="none" stroke="#000000" points="390.3392,-888.5 479.3392,-888.5 "/>
<text text-anchor="middle" x="434.8392" y="-869.3" font-family="Times,serif" font-size="14.00" fill="#000000"> </text>
<polyline fill="none" stroke="#000000" points="479.3392,-857.5 479.3392,-949.5 "/>
<text text-anchor="middle" x="551.3392" y="-934.3" font-family="Times,serif" font-size="14.00" fill="#000000">OUT</text>
<polyline fill="none" stroke="#000000" points="479.3392,-926.5 623.3392,-926.5 "/>
<text text-anchor="middle" x="551.3392" y="-911.3" font-family="Times,serif" font-size="14.00" fill="#000000">fsnative2t1w_xfm</text>
<polyline fill="none" stroke="#000000" points="479.3392,-903.5 623.3392,-903.5 "/>
<text text-anchor="middle" x="551.3392" y="-888.3" font-family="Times,serif" font-size="14.00" fill="#000000">subject_id</text>
<polyline fill="none" stroke="#000000" points="479.3392,-880.5 623.3392,-880.5 "/>
<text text-anchor="middle" x="551.3392" y="-865.3" font-family="Times,serif" font-size="14.00" fill="#000000">subjects_dir</text>
</g>
<!-- gifti_surface_wfget_surfaces -->
<g id="node2" class="node">
<title>gifti_surface_wfget_surfaces</title>
<polygon fill="none" stroke="#000000" points="27.8392,-705.5 27.8392,-820.5 334.8392,-820.5 334.8392,-705.5 27.8392,-705.5"/>
<text text-anchor="middle" x="79.8392" y="-797.8" font-family="Times,serif" font-size="14.00" fill="#000000">IN</text>
<polyline fill="none" stroke="#000000" points="27.8392,-782.5 131.8392,-782.5 "/>
<text text-anchor="middle" x="79.8392" y="-759.8" font-family="Times,serif" font-size="14.00" fill="#000000">subject_id</text>
<polyline fill="none" stroke="#000000" points="27.8392,-744.5 131.8392,-744.5 "/>
<text text-anchor="middle" x="79.8392" y="-721.3" font-family="Times,serif" font-size="14.00" fill="#000000">subjects_dir</text>
<polyline fill="none" stroke="#000000" points="131.8392,-705.5 131.8392,-820.5 "/>
<text text-anchor="middle" x="185.8392" y="-797.8" font-family="Times,serif" font-size="14.00" fill="#000000">get_surfaces</text>
<polyline fill="none" stroke="#000000" points="131.8392,-782.5 239.8392,-782.5 "/>
<text text-anchor="middle" x="185.8392" y="-759.8" font-family="Times,serif" font-size="14.00" fill="#000000">io</text>
<polyline fill="none" stroke="#000000" points="131.8392,-744.5 239.8392,-744.5 "/>
<text text-anchor="middle" x="185.8392" y="-721.3" font-family="Times,serif" font-size="14.00" fill="#000000"> </text>
<polyline fill="none" stroke="#000000" points="239.8392,-705.5 239.8392,-820.5 "/>
<text text-anchor="middle" x="287.3392" y="-805.3" font-family="Times,serif" font-size="14.00" fill="#000000">OUT</text>
<polyline fill="none" stroke="#000000" points="239.8392,-797.5 334.8392,-797.5 "/>
<text text-anchor="middle" x="287.3392" y="-782.3" font-family="Times,serif" font-size="14.00" fill="#000000">graymid</text>
<polyline fill="none" stroke="#000000" points="239.8392,-774.5 334.8392,-774.5 "/>
<text text-anchor="middle" x="287.3392" y="-759.3" font-family="Times,serif" font-size="14.00" fill="#000000">inflated</text>
<polyline fill="none" stroke="#000000" points="239.8392,-751.5 334.8392,-751.5 "/>
<text text-anchor="middle" x="287.3392" y="-736.3" font-family="Times,serif" font-size="14.00" fill="#000000">pial</text>
<polyline fill="none" stroke="#000000" points="239.8392,-728.5 334.8392,-728.5 "/>
<text text-anchor="middle" x="287.3392" y="-713.3" font-family="Times,serif" font-size="14.00" fill="#000000">smoothwm</text>
</g>
<!-- gifti_surface_wfinputnode&#45;&gt;gifti_surface_wfget_surfaces -->
<g id="edge9" class="edge">
<title>gifti_surface_wfinputnode:e&#45;&gt;gifti_surface_wfget_surfaces:w</title>
<path fill="none" stroke="#000000" d="M623.3392,-891.5C638.6725,-891.5 633.8495,-868.1644 623.3392,-857 532.3885,-760.3899 118.2898,-917.6101 27.3392,-821 12.8231,-805.5807 4.8734,-776.1094 17.4539,-766.8542"/>
<polygon fill="#000000" stroke="#000000" points="18.7025,-770.1367 27.3392,-764 16.7607,-763.4115 18.7025,-770.1367"/>
</g>
<!-- gifti_surface_wfinputnode&#45;&gt;gifti_surface_wfget_surfaces -->
<g id="edge11" class="edge">
<title>gifti_surface_wfinputnode:e&#45;&gt;gifti_surface_wfget_surfaces:w</title>
<path fill="none" stroke="#000000" d="M623.3392,-868.5C628.4503,-868.5 626.8426,-860.7215 623.3392,-857 532.3885,-760.3899 118.2898,-917.6101 27.3392,-821 .7205,-792.725 -12.7883,-736.3944 17.1681,-726.5008"/>
<polygon fill="#000000" stroke="#000000" points="17.9572,-729.9223 27.3392,-725 16.9353,-722.9973 17.9572,-729.9223"/>
</g>
<!-- gifti_surface_wfsave_midthickness -->
<g id="node4" class="node">
<title>gifti_surface_wfsave_midthickness</title>
<polygon fill="none" stroke="#000000" points="543.8392,-470.5 543.8392,-562.5 888.8392,-562.5 888.8392,-470.5 543.8392,-470.5"/>
<text text-anchor="middle" x="605.3392" y="-547.3" font-family="Times,serif" font-size="14.00" fill="#000000">IN</text>
<polyline fill="none" stroke="#000000" points="543.8392,-539.5 666.8392,-539.5 "/>
<text text-anchor="middle" x="605.3392" y="-524.3" font-family="Times,serif" font-size="14.00" fill="#000000">base_directory</text>
<polyline fill="none" stroke="#000000" points="543.8392,-516.5 666.8392,-516.5 "/>
<text text-anchor="middle" x="605.3392" y="-501.3" font-family="Times,serif" font-size="14.00" fill="#000000">container</text>
<polyline fill="none" stroke="#000000" points="543.8392,-493.5 666.8392,-493.5 "/>
<text text-anchor="middle" x="605.3392" y="-478.3" font-family="Times,serif" font-size="14.00" fill="#000000">surf.@graymid</text>
<polyline fill="none" stroke="#000000" points="666.8392,-470.5 666.8392,-562.5 "/>
<text text-anchor="middle" x="742.8392" y="-543.8" font-family="Times,serif" font-size="14.00" fill="#000000">save_midthickness</text>
<polyline fill="none" stroke="#000000" points="666.8392,-532.5 818.8392,-532.5 "/>
<text text-anchor="middle" x="742.8392" y="-513.3" font-family="Times,serif" font-size="14.00" fill="#000000">io</text>
<polyline fill="none" stroke="#000000" points="666.8392,-501.5 818.8392,-501.5 "/>
<text text-anchor="middle" x="742.8392" y="-482.3" font-family="Times,serif" font-size="14.00" fill="#000000"> </text>
<polyline fill="none" stroke="#000000" points="818.8392,-470.5 818.8392,-562.5 "/>
<text text-anchor="middle" x="853.8392" y="-535.8" font-family="Times,serif" font-size="14.00" fill="#000000">OUT</text>
<polyline fill="none" stroke="#000000" points="818.8392,-516.5 888.8392,-516.5 "/>
<text text-anchor="middle" x="853.8392" y="-489.8" font-family="Times,serif" font-size="14.00" fill="#000000">out_file</text>
</g>
<!-- gifti_surface_wfinputnode&#45;&gt;gifti_surface_wfsave_midthickness -->
<g id="edge10" class="edge">
<title>gifti_surface_wfinputnode:e&#45;&gt;gifti_surface_wfsave_midthickness:w</title>
<path fill="none" stroke="#000000" d="M623.3392,-891.5C632.5539,-891.5 670.1286,-704.9747 604.3392,-599 587.7354,-572.2544 558.9489,-590.3377 543.3392,-563 532.562,-544.1258 521.6343,-515.9276 533.5266,-507.1831"/>
<polygon fill="#000000" stroke="#000000" points="534.6164,-510.5137 543.3392,-504.5 532.7701,-503.7615 534.6164,-510.5137"/>
</g>
<!-- gifti_surface_wfinputnode&#45;&gt;gifti_surface_wfsave_midthickness -->
<g id="edge12" class="edge">
<title>gifti_surface_wfinputnode:e&#45;&gt;gifti_surface_wfsave_midthickness:w</title>
<path fill="none" stroke="#000000" d="M623.3392,-868.5C743.1697,-868.5 705.3896,-693.2119 631.3392,-599 605.2258,-565.7769 566.8929,-598.0842 543.3392,-563 537.4633,-554.2478 532.4194,-541.2232 534.8233,-533.9376"/>
<polygon fill="#000000" stroke="#000000" points="536.7944,-536.8317 543.3392,-528.5 533.0272,-530.9318 536.7944,-536.8317"/>
</g>
<!-- gifti_surface_wffix_surfs -->
<g id="node7" class="node">
<title>gifti_surface_wffix_surfs</title>
<polygon fill="none" stroke="#000000" points="851.3392,-106.5 851.3392,-175.5 1117.3392,-175.5 1117.3392,-106.5 851.3392,-106.5"/>
<text text-anchor="middle" x="910.3392" y="-160.3" font-family="Times,serif" font-size="14.00" fill="#000000">IN</text>
<polyline fill="none" stroke="#000000" points="851.3392,-152.5 969.3392,-152.5 "/>
<text text-anchor="middle" x="910.3392" y="-137.3" font-family="Times,serif" font-size="14.00" fill="#000000">in_file</text>
<polyline fill="none" stroke="#000000" points="851.3392,-129.5 969.3392,-129.5 "/>
<text text-anchor="middle" x="910.3392" y="-114.3" font-family="Times,serif" font-size="14.00" fill="#000000">transform_file</text>
<polyline fill="none" stroke="#000000" points="969.3392,-106.5 969.3392,-175.5 "/>
<text text-anchor="middle" x="1008.3392" y="-160.3" font-family="Times,serif" font-size="14.00" fill="#000000">fix_surfs</text>
<polyline fill="none" stroke="#000000" points="969.3392,-152.5 1047.3392,-152.5 "/>
<text text-anchor="middle" x="1008.3392" y="-137.3" font-family="Times,serif" font-size="14.00" fill="#000000">surf</text>
<polyline fill="none" stroke="#000000" points="969.3392,-129.5 1047.3392,-129.5 "/>
<text text-anchor="middle" x="1008.3392" y="-114.3" font-family="Times,serif" font-size="14.00" fill="#000000"> </text>
<polyline fill="none" stroke="#000000" points="1047.3392,-106.5 1047.3392,-175.5 "/>
<text text-anchor="middle" x="1082.3392" y="-154.8" font-family="Times,serif" font-size="14.00" fill="#000000">OUT</text>
<polyline fill="none" stroke="#000000" points="1047.3392,-141.5 1117.3392,-141.5 "/>
<text text-anchor="middle" x="1082.3392" y="-120.3" font-family="Times,serif" font-size="14.00" fill="#000000">out_file</text>
</g>
<!-- gifti_surface_wfinputnode&#45;&gt;gifti_surface_wffix_surfs -->
<g id="edge8" class="edge">
<title>gifti_surface_wfinputnode:e&#45;&gt;gifti_surface_wffix_surfs:w</title>
<path fill="none" stroke="#000000" d="M623.3392,-915.5C803.9233,-915.5 916.3392,-814.5841 916.3392,-634 916.3392,-634 916.3392,-634 916.3392,-376 916.3392,-321.0323 809.0557,-145.2759 841.4785,-120.8319"/>
<polygon fill="#000000" stroke="#000000" points="842.6938,-124.1244 851.3392,-118 840.7615,-117.3964 842.6938,-124.1244"/>
</g>
<!-- gifti_surface_wfmidthickness -->
<g id="node3" class="node">
<title>gifti_surface_wfmidthickness</title>
<polygon fill="none" stroke="#000000" points="335.8392,-599.5 335.8392,-668.5 594.8392,-668.5 594.8392,-599.5 335.8392,-599.5"/>
<text text-anchor="middle" x="373.8392" y="-653.3" font-family="Times,serif" font-size="14.00" fill="#000000">IN</text>
<polyline fill="none" stroke="#000000" points="335.8392,-645.5 411.8392,-645.5 "/>
<text text-anchor="middle" x="373.8392" y="-630.3" font-family="Times,serif" font-size="14.00" fill="#000000">graymid</text>
<polyline fill="none" stroke="#000000" points="335.8392,-622.5 411.8392,-622.5 "/>
<text text-anchor="middle" x="373.8392" y="-607.3" font-family="Times,serif" font-size="14.00" fill="#000000">in_file</text>
<polyline fill="none" stroke="#000000" points="411.8392,-599.5 411.8392,-668.5 "/>
<text text-anchor="middle" x="468.3392" y="-653.3" font-family="Times,serif" font-size="14.00" fill="#000000">midthickness</text>
<polyline fill="none" stroke="#000000" points="411.8392,-645.5 524.8392,-645.5 "/>
<text text-anchor="middle" x="468.3392" y="-630.3" font-family="Times,serif" font-size="14.00" fill="#000000">freesurfer</text>
<polyline fill="none" stroke="#000000" points="411.8392,-622.5 524.8392,-622.5 "/>
<text text-anchor="middle" x="468.3392" y="-607.3" font-family="Times,serif" font-size="14.00" fill="#000000"> </text>
<polyline fill="none" stroke="#000000" points="524.8392,-599.5 524.8392,-668.5 "/>
<text text-anchor="middle" x="559.8392" y="-647.8" font-family="Times,serif" font-size="14.00" fill="#000000">OUT</text>
<polyline fill="none" stroke="#000000" points="524.8392,-634.5 594.8392,-634.5 "/>
<text text-anchor="middle" x="559.8392" y="-613.3" font-family="Times,serif" font-size="14.00" fill="#000000">out_file</text>
</g>
<!-- gifti_surface_wfget_surfaces&#45;&gt;gifti_surface_wfmidthickness -->
<g id="edge3" class="edge">
<title>gifti_surface_wfget_surfaces:e&#45;&gt;gifti_surface_wfmidthickness:w</title>
<path fill="none" stroke="#000000" d="M335.3392,-786C335.3392,-786 335.3392,-678.7887 335.3392,-644.4476"/>
<polygon fill="#000000" stroke="#000000" points="338.8392,-644 335.3392,-634 331.8392,-644 338.8392,-644"/>
</g>
<!-- gifti_surface_wfget_surfaces&#45;&gt;gifti_surface_wfmidthickness -->
<g id="edge6" class="edge">
<title>gifti_surface_wfget_surfaces:e&#45;&gt;gifti_surface_wfmidthickness:w</title>
<path fill="none" stroke="#000000" d="M335.3392,-717C335.3392,-717 335.3392,-647.6947 335.3392,-621.1637"/>
<polygon fill="#000000" stroke="#000000" points="338.8393,-621 335.3392,-611 331.8393,-621 338.8393,-621"/>
</g>
<!-- gifti_surface_wfsurface_list -->
<g id="node5" class="node">
<title>gifti_surface_wfsurface_list</title>
<polygon fill="none" stroke="#000000" points="307.8392,-318.5 307.8392,-433.5 496.8392,-433.5 496.8392,-318.5 307.8392,-318.5"/>
<text text-anchor="middle" x="327.3392" y="-418.3" font-family="Times,serif" font-size="14.00" fill="#000000">IN</text>
<polyline fill="none" stroke="#000000" points="307.8392,-410.5 346.8392,-410.5 "/>
<text text-anchor="middle" x="327.3392" y="-395.3" font-family="Times,serif" font-size="14.00" fill="#000000">in1</text>
<polyline fill="none" stroke="#000000" points="307.8392,-387.5 346.8392,-387.5 "/>
<text text-anchor="middle" x="327.3392" y="-372.3" font-family="Times,serif" font-size="14.00" fill="#000000">in2</text>
<polyline fill="none" stroke="#000000" points="307.8392,-364.5 346.8392,-364.5 "/>
<text text-anchor="middle" x="327.3392" y="-349.3" font-family="Times,serif" font-size="14.00" fill="#000000">in3</text>
<polyline fill="none" stroke="#000000" points="307.8392,-341.5 346.8392,-341.5 "/>
<text text-anchor="middle" x="327.3392" y="-326.3" font-family="Times,serif" font-size="14.00" fill="#000000">in4</text>
<polyline fill="none" stroke="#000000" points="346.8392,-318.5 346.8392,-433.5 "/>
<text text-anchor="middle" x="396.8392" y="-410.8" font-family="Times,serif" font-size="14.00" fill="#000000">surface_list</text>
<polyline fill="none" stroke="#000000" points="346.8392,-395.5 446.8392,-395.5 "/>
<text text-anchor="middle" x="396.8392" y="-372.8" font-family="Times,serif" font-size="14.00" fill="#000000">utility</text>
<polyline fill="none" stroke="#000000" points="346.8392,-357.5 446.8392,-357.5 "/>
<text text-anchor="middle" x="396.8392" y="-334.3" font-family="Times,serif" font-size="14.00" fill="#000000"> </text>
<polyline fill="none" stroke="#000000" points="446.8392,-318.5 446.8392,-433.5 "/>
<text text-anchor="middle" x="471.8392" y="-401.3" font-family="Times,serif" font-size="14.00" fill="#000000">OUT</text>
<polyline fill="none" stroke="#000000" points="446.8392,-376.5 496.8392,-376.5 "/>
<text text-anchor="middle" x="471.8392" y="-343.8" font-family="Times,serif" font-size="14.00" fill="#000000">out</text>
</g>
<!-- gifti_surface_wfget_surfaces&#45;&gt;gifti_surface_wfsurface_list -->
<g id="edge4" class="edge">
<title>gifti_surface_wfget_surfaces:e&#45;&gt;gifti_surface_wfsurface_list:w</title>
<path fill="none" stroke="#000000" d="M335.3392,-763C361.1169,-763 349.3357,-726.6469 335.3392,-705 314.1689,-672.2583 276.5094,-701.7417 255.3392,-669 179.9431,-552.3935 165.6814,-362.5477 297.1909,-353.3473"/>
<polygon fill="#000000" stroke="#000000" points="297.4648,-356.8401 307.3392,-353 297.2252,-349.8442 297.4648,-356.8401"/>
</g>
<!-- gifti_surface_wfget_surfaces&#45;&gt;gifti_surface_wfsurface_list -->
<g id="edge5" class="edge">
<title>gifti_surface_wfget_surfaces:e&#45;&gt;gifti_surface_wfsurface_list:w</title>
<path fill="none" stroke="#000000" d="M335.3392,-740C350.8947,-740 341.8391,-719.1324 335.3392,-705 325.066,-682.6638 303.6124,-691.3362 293.3392,-669 240.3524,-553.7951 180.3477,-385.5041 297.0719,-376.3868"/>
<polygon fill="#000000" stroke="#000000" points="297.478,-379.8741 307.3392,-376 297.2144,-372.8791 297.478,-379.8741"/>
</g>
<!-- gifti_surface_wfget_surfaces&#45;&gt;gifti_surface_wfsurface_list -->
<g id="edge7" class="edge">
<title>gifti_surface_wfget_surfaces:e&#45;&gt;gifti_surface_wfsurface_list:w</title>
<path fill="none" stroke="#000000" d="M335.3392,-717C340.6725,-717 335.9908,-710.2934 335.3392,-705 333.3241,-688.6311 329.0127,-685.2743 326.3392,-669 307.4284,-553.888 194.2037,-408.1305 297.0644,-399.4109"/>
<polygon fill="#000000" stroke="#000000" points="297.487,-402.8969 307.3392,-399 297.2073,-395.9025 297.487,-402.8969"/>
</g>
<!-- gifti_surface_wfmidthickness&#45;&gt;gifti_surface_wfsave_midthickness -->
<g id="edge13" class="edge">
<title>gifti_surface_wfmidthickness:e&#45;&gt;gifti_surface_wfsave_midthickness:w</title>
<path fill="none" stroke="#000000" d="M595.3392,-617C603.3392,-617 599.052,-606.0862 595.3392,-599 582.2935,-574.1015 556.3848,-587.8985 543.3392,-563 528.3669,-534.4244 511.332,-492.1022 533.3742,-483.1861"/>
<polygon fill="#000000" stroke="#000000" points="534.0632,-486.6194 543.3392,-481.5 532.8954,-479.7175 534.0632,-486.6194"/>
</g>
<!-- gifti_surface_wfsave_midthickness&#45;&gt;gifti_surface_wfsurface_list -->
<g id="edge14" class="edge">
<title>gifti_surface_wfsave_midthickness:e&#45;&gt;gifti_surface_wfsurface_list:w</title>
<path fill="none" stroke="#000000" d="M889.3392,-493.5C899.7836,-493.5 896.4929,-477.6099 889.3392,-470 800.5854,-375.5867 396.0929,-528.4133 307.3392,-434 278.2771,-403.0848 263.6212,-341.2906 297.1671,-331.3606"/>
<polygon fill="#000000" stroke="#000000" points="297.8915,-334.7949 307.3392,-330 296.9634,-327.8567 297.8915,-334.7949"/>
</g>
<!-- gifti_surface_wffs2gii -->
<g id="node6" class="node">
<title>gifti_surface_wffs2gii</title>
<polygon fill="none" stroke="#000000" points="599.3392,-212.5 599.3392,-281.5 837.3392,-281.5 837.3392,-212.5 599.3392,-212.5"/>
<text text-anchor="middle" x="629.3392" y="-260.8" font-family="Times,serif" font-size="14.00" fill="#000000">IN</text>
<polyline fill="none" stroke="#000000" points="599.3392,-247.5 659.3392,-247.5 "/>
<text text-anchor="middle" x="629.3392" y="-226.3" font-family="Times,serif" font-size="14.00" fill="#000000">in_file</text>
<polyline fill="none" stroke="#000000" points="659.3392,-212.5 659.3392,-281.5 "/>
<text text-anchor="middle" x="703.8392" y="-266.3" font-family="Times,serif" font-size="14.00" fill="#000000">fs2gii</text>
<polyline fill="none" stroke="#000000" points="659.3392,-258.5 748.3392,-258.5 "/>
<text text-anchor="middle" x="703.8392" y="-243.3" font-family="Times,serif" font-size="14.00" fill="#000000">freesurfer</text>
<polyline fill="none" stroke="#000000" points="659.3392,-235.5 748.3392,-235.5 "/>
<text text-anchor="middle" x="703.8392" y="-220.3" font-family="Times,serif" font-size="14.00" fill="#000000"> </text>
<polyline fill="none" stroke="#000000" points="748.3392,-212.5 748.3392,-281.5 "/>
<text text-anchor="middle" x="792.8392" y="-260.8" font-family="Times,serif" font-size="14.00" fill="#000000">OUT</text>
<polyline fill="none" stroke="#000000" points="748.3392,-247.5 837.3392,-247.5 "/>
<text text-anchor="middle" x="792.8392" y="-226.3" font-family="Times,serif" font-size="14.00" fill="#000000">converted</text>
</g>
<!-- gifti_surface_wfsurface_list&#45;&gt;gifti_surface_wffs2gii -->
<g id="edge15" class="edge">
<title>gifti_surface_wfsurface_list:e&#45;&gt;gifti_surface_wffs2gii:w</title>
<path fill="none" stroke="#000000" d="M497.3392,-347C562.6875,-347 533.8549,-242.0145 589.2702,-230.9418"/>
<polygon fill="#000000" stroke="#000000" points="589.7086,-234.4161 599.3392,-230 589.0566,-227.4466 589.7086,-234.4161"/>
</g>
<!-- gifti_surface_wffs2gii&#45;&gt;gifti_surface_wffix_surfs -->
<g id="edge2" class="edge">
<title>gifti_surface_wffs2gii:e&#45;&gt;gifti_surface_wffix_surfs:w</title>
<path fill="none" stroke="#000000" d="M837.3392,-230C873.0015,-230 824.4835,-159.4041 841.7314,-143.9612"/>
<polygon fill="#000000" stroke="#000000" points="842.8136,-147.2902 851.3392,-141 840.7518,-140.6007 842.8136,-147.2902"/>
</g>
<!-- gifti_surface_wfoutputnode -->
<g id="node8" class="node">
<title>gifti_surface_wfoutputnode</title>
<polygon fill="none" stroke="#000000" points="1117.8392,-.5 1117.8392,-69.5 1342.8392,-69.5 1342.8392,-.5 1117.8392,-.5"/>
<text text-anchor="middle" x="1156.3392" y="-48.8" font-family="Times,serif" font-size="14.00" fill="#000000">IN</text>
<polyline fill="none" stroke="#000000" points="1117.8392,-35.5 1194.8392,-35.5 "/>
<text text-anchor="middle" x="1156.3392" y="-14.3" font-family="Times,serif" font-size="14.00" fill="#000000">surfaces</text>
<polyline fill="none" stroke="#000000" points="1194.8392,-.5 1194.8392,-69.5 "/>
<text text-anchor="middle" x="1243.8392" y="-54.3" font-family="Times,serif" font-size="14.00" fill="#000000">outputnode</text>
<polyline fill="none" stroke="#000000" points="1194.8392,-46.5 1292.8392,-46.5 "/>
<text text-anchor="middle" x="1243.8392" y="-31.3" font-family="Times,serif" font-size="14.00" fill="#000000">utility</text>
<polyline fill="none" stroke="#000000" points="1194.8392,-23.5 1292.8392,-23.5 "/>
<text text-anchor="middle" x="1243.8392" y="-8.3" font-family="Times,serif" font-size="14.00" fill="#000000"> </text>
<polyline fill="none" stroke="#000000" points="1292.8392,-.5 1292.8392,-69.5 "/>
<text text-anchor="middle" x="1317.8392" y="-31.3" font-family="Times,serif" font-size="14.00" fill="#000000">OUT</text>
</g>
<!-- gifti_surface_wffix_surfs&#45;&gt;gifti_surface_wfoutputnode -->
<g id="edge1" class="edge">
<title>gifti_surface_wffix_surfs:e&#45;&gt;gifti_surface_wfoutputnode:w</title>
<path fill="none" stroke="#000000" d="M1117.3392,-124C1160.0336,-124 1086.6525,-36.9434 1107.5828,-20.6202"/>
<polygon fill="#000000" stroke="#000000" points="1108.5892,-23.9741 1117.3392,-18 1106.7735,-17.2136 1108.5892,-23.9741"/>
</g>
</g>
</svg>
