<?xml version="1.0" encoding="UTF-8" standalone="no"?>
<!DOCTYPE svg PUBLIC "-//W3C//DTD SVG 1.1//EN"
 "http://www.w3.org/Graphics/SVG/1.1/DTD/svg11.dtd">
<!-- Generated by graphviz version 2.43.0 (0)
 -->
<!-- Title: structs Pages: 1 -->
<svg width="1061pt" height="534pt"
 viewBox="0.00 0.00 1061.16 534.00" xmlns="http://www.w3.org/2000/svg" xmlns:xlink="http://www.w3.org/1999/xlink">
<g id="graph0" class="graph" transform="scale(1 1) rotate(0) translate(4 530)">
<title>structs</title>
<polygon fill="white" stroke="transparent" points="-4,4 -4,-530 1057.16,-530 1057.16,4 -4,4"/>
<!-- single_subject_wfinputnode -->
<g id="node1" class="node">
<title>single_subject_wfinputnode</title>
<polygon fill="none" stroke="black" points="122.66,-304.5 122.66,-373.5 348.66,-373.5 348.66,-304.5 122.66,-304.5"/>
<text text-anchor="middle" x="139.66" y="-335.3" font-family="Times,serif" font-size="14.00">IN</text>
<polyline fill="none" stroke="black" points="156.66,-304.5 156.66,-373.5 "/>
<text text-anchor="middle" x="201.16" y="-358.3" font-family="Times,serif" font-size="14.00">inputnode</text>
<polyline fill="none" stroke="black" points="156.66,-350.5 245.66,-350.5 "/>
<text text-anchor="middle" x="201.16" y="-335.3" font-family="Times,serif" font-size="14.00">utility</text>
<polyline fill="none" stroke="black" points="156.66,-327.5 245.66,-327.5 "/>
<text text-anchor="middle" x="201.16" y="-312.3" font-family="Times,serif" font-size="14.00"> </text>
<polyline fill="none" stroke="black" points="245.66,-304.5 245.66,-373.5 "/>
<text text-anchor="middle" x="297.16" y="-352.8" font-family="Times,serif" font-size="14.00">OUT</text>
<polyline fill="none" stroke="black" points="245.66,-339.5 348.66,-339.5 "/>
<text text-anchor="middle" x="297.16" y="-318.3" font-family="Times,serif" font-size="14.00">subjects_dir</text>
</g>
<!-- single_subject_wfsummary -->
<g id="node6" class="node">
<title>single_subject_wfsummary</title>
<polygon fill="none" stroke="black" points="94.66,-129.5 94.66,-244.5 372.66,-244.5 372.66,-129.5 94.66,-129.5"/>
<text text-anchor="middle" x="146.16" y="-229.3" font-family="Times,serif" font-size="14.00">IN</text>
<polyline fill="none" stroke="black" points="94.66,-221.5 197.66,-221.5 "/>
<text text-anchor="middle" x="146.16" y="-206.3" font-family="Times,serif" font-size="14.00">subject_id</text>
<polyline fill="none" stroke="black" points="94.66,-198.5 197.66,-198.5 "/>
<text text-anchor="middle" x="146.16" y="-183.3" font-family="Times,serif" font-size="14.00">subjects_dir</text>
<polyline fill="none" stroke="black" points="94.66,-175.5 197.66,-175.5 "/>
<text text-anchor="middle" x="146.16" y="-160.3" font-family="Times,serif" font-size="14.00">t1w</text>
<polyline fill="none" stroke="black" points="94.66,-152.5 197.66,-152.5 "/>
<text text-anchor="middle" x="146.16" y="-137.3" font-family="Times,serif" font-size="14.00">t2w</text>
<polyline fill="none" stroke="black" points="197.66,-129.5 197.66,-244.5 "/>
<text text-anchor="middle" x="239.16" y="-221.8" font-family="Times,serif" font-size="14.00">summary</text>
<polyline fill="none" stroke="black" points="197.66,-206.5 280.66,-206.5 "/>
<text text-anchor="middle" x="239.16" y="-183.8" font-family="Times,serif" font-size="14.00">reports</text>
<polyline fill="none" stroke="black" points="197.66,-168.5 280.66,-168.5 "/>
<text text-anchor="middle" x="239.16" y="-145.3" font-family="Times,serif" font-size="14.00"> </text>
<polyline fill="none" stroke="black" points="280.66,-129.5 280.66,-244.5 "/>
<text text-anchor="middle" x="326.66" y="-212.3" font-family="Times,serif" font-size="14.00">OUT</text>
<polyline fill="none" stroke="black" points="280.66,-187.5 372.66,-187.5 "/>
<text text-anchor="middle" x="326.66" y="-154.8" font-family="Times,serif" font-size="14.00">out_report</text>
</g>
<!-- single_subject_wfinputnode&#45;&gt;single_subject_wfsummary -->
<g id="edge14" class="edge">
<title>single_subject_wfinputnode:e&#45;&gt;single_subject_wfsummary:w</title>
<path fill="none" stroke="black" d="M349.66,-322C357.67,-322 353.82,-310.13 348.66,-304 274.09,-215.29 167.52,-335.12 94.66,-245 81.11,-228.24 71.5,-198.97 83.77,-189.82"/>
<polygon fill="black" stroke="black" points="85,-193.11 93.66,-187 83.08,-186.37 85,-193.11"/>
</g>
<!-- single_subject_wfanat_preproc_wf -->
<g id="node7" class="node">
<title>single_subject_wfanat_preproc_wf</title>
<polygon fill="none" stroke="black" points="621.66,-106.5 621.66,-267.5 983.66,-267.5 983.66,-106.5 621.66,-106.5"/>
<text text-anchor="middle" x="711.16" y="-252.3" font-family="Times,serif" font-size="14.00">IN</text>
<polyline fill="none" stroke="black" points="621.66,-244.5 800.66,-244.5 "/>
<text text-anchor="middle" x="711.16" y="-229.3" font-family="Times,serif" font-size="14.00">inputnode.flair</text>
<polyline fill="none" stroke="black" points="621.66,-221.5 800.66,-221.5 "/>
<text text-anchor="middle" x="711.16" y="-206.3" font-family="Times,serif" font-size="14.00">inputnode.roi</text>
<polyline fill="none" stroke="black" points="621.66,-198.5 800.66,-198.5 "/>
<text text-anchor="middle" x="711.16" y="-183.3" font-family="Times,serif" font-size="14.00">inputnode.subject_id</text>
<polyline fill="none" stroke="black" points="621.66,-175.5 800.66,-175.5 "/>
<text text-anchor="middle" x="711.16" y="-160.3" font-family="Times,serif" font-size="14.00">inputnode.subjects_dir</text>
<polyline fill="none" stroke="black" points="621.66,-152.5 800.66,-152.5 "/>
<text text-anchor="middle" x="711.16" y="-137.3" font-family="Times,serif" font-size="14.00">inputnode.t1w</text>
<polyline fill="none" stroke="black" points="621.66,-129.5 800.66,-129.5 "/>
<text text-anchor="middle" x="711.16" y="-114.3" font-family="Times,serif" font-size="14.00">inputnode.t2w</text>
<polyline fill="none" stroke="black" points="800.66,-106.5 800.66,-267.5 "/>
<text text-anchor="middle" x="867.66" y="-237.3" font-family="Times,serif" font-size="14.00">anat_preproc_wf</text>
<polyline fill="none" stroke="black" points="800.66,-214.5 934.66,-214.5 "/>
<text text-anchor="middle" x="867.66" y="-183.8" font-family="Times,serif" font-size="14.00"> </text>
<polyline fill="none" stroke="black" points="800.66,-160.5 934.66,-160.5 "/>
<text text-anchor="middle" x="867.66" y="-129.8" font-family="Times,serif" font-size="14.00"> </text>
<polyline fill="none" stroke="black" points="934.66,-106.5 934.66,-267.5 "/>
<text text-anchor="middle" x="959.16" y="-183.3" font-family="Times,serif" font-size="14.00">OUT</text>
</g>
<!-- single_subject_wfinputnode&#45;&gt;single_subject_wfanat_preproc_wf -->
<g id="edge13" class="edge">
<title>single_subject_wfinputnode:e&#45;&gt;single_subject_wfanat_preproc_wf:w</title>
<path fill="none" stroke="black" d="M349.66,-322C358.6,-322 352.42,-310.41 358.66,-304 448.32,-211.88 486.6,-166.43 610.41,-164.09"/>
<polygon fill="black" stroke="black" points="610.69,-167.59 620.66,-164 610.63,-160.59 610.69,-167.59"/>
</g>
<!-- single_subject_wfbidssrc -->
<g id="node2" class="node">
<title>single_subject_wfbidssrc</title>
<polygon fill="none" stroke="black" points="433.16,-410.5 433.16,-525.5 584.16,-525.5 584.16,-410.5 433.16,-410.5"/>
<text text-anchor="middle" x="450.16" y="-464.3" font-family="Times,serif" font-size="14.00">IN</text>
<polyline fill="none" stroke="black" points="467.16,-410.5 467.16,-525.5 "/>
<text text-anchor="middle" x="501.16" y="-502.8" font-family="Times,serif" font-size="14.00">bidssrc</text>
<polyline fill="none" stroke="black" points="467.16,-487.5 535.16,-487.5 "/>
<text text-anchor="middle" x="501.16" y="-464.8" font-family="Times,serif" font-size="14.00">bids</text>
<polyline fill="none" stroke="black" points="467.16,-449.5 535.16,-449.5 "/>
<text text-anchor="middle" x="501.16" y="-426.3" font-family="Times,serif" font-size="14.00"> </text>
<polyline fill="none" stroke="black" points="535.16,-410.5 535.16,-525.5 "/>
<text text-anchor="middle" x="559.66" y="-510.3" font-family="Times,serif" font-size="14.00">OUT</text>
<polyline fill="none" stroke="black" points="535.16,-502.5 584.16,-502.5 "/>
<text text-anchor="middle" x="559.66" y="-487.3" font-family="Times,serif" font-size="14.00">flair</text>
<polyline fill="none" stroke="black" points="535.16,-479.5 584.16,-479.5 "/>
<text text-anchor="middle" x="559.66" y="-464.3" font-family="Times,serif" font-size="14.00">roi</text>
<polyline fill="none" stroke="black" points="535.16,-456.5 584.16,-456.5 "/>
<text text-anchor="middle" x="559.66" y="-441.3" font-family="Times,serif" font-size="14.00">t1w</text>
<polyline fill="none" stroke="black" points="535.16,-433.5 584.16,-433.5 "/>
<text text-anchor="middle" x="559.66" y="-418.3" font-family="Times,serif" font-size="14.00">t2w</text>
</g>
<!-- single_subject_wfbids_info -->
<g id="node4" class="node">
<title>single_subject_wfbids_info</title>
<polygon fill="none" stroke="black" points="367.16,-304.5 367.16,-373.5 574.16,-373.5 574.16,-304.5 367.16,-304.5"/>
<text text-anchor="middle" x="396.66" y="-352.8" font-family="Times,serif" font-size="14.00">IN</text>
<polyline fill="none" stroke="black" points="367.16,-339.5 426.16,-339.5 "/>
<text text-anchor="middle" x="396.66" y="-318.3" font-family="Times,serif" font-size="14.00">in_file</text>
<polyline fill="none" stroke="black" points="426.16,-304.5 426.16,-373.5 "/>
<text text-anchor="middle" x="466.16" y="-358.3" font-family="Times,serif" font-size="14.00">bids_info</text>
<polyline fill="none" stroke="black" points="426.16,-350.5 506.16,-350.5 "/>
<text text-anchor="middle" x="466.16" y="-335.3" font-family="Times,serif" font-size="14.00">bids</text>
<polyline fill="none" stroke="black" points="426.16,-327.5 506.16,-327.5 "/>
<text text-anchor="middle" x="466.16" y="-312.3" font-family="Times,serif" font-size="14.00"> </text>
<polyline fill="none" stroke="black" points="506.16,-304.5 506.16,-373.5 "/>
<text text-anchor="middle" x="540.16" y="-352.8" font-family="Times,serif" font-size="14.00">OUT</text>
<polyline fill="none" stroke="black" points="506.16,-339.5 574.16,-339.5 "/>
<text text-anchor="middle" x="540.16" y="-318.3" font-family="Times,serif" font-size="14.00">subject</text>
</g>
<!-- single_subject_wfbidssrc&#45;&gt;single_subject_wfbids_info -->
<g id="edge7" class="edge">
<title>single_subject_wfbidssrc:e&#45;&gt;single_subject_wfbids_info:w</title>
<path fill="none" stroke="black" d="M585.66,-445C593.44,-445 589.78,-415.86 584.66,-410 520.07,-336.03 430.91,-448.27 366.66,-374 361.17,-367.65 357.03,-343.08 359.61,-330.11"/>
<polygon fill="black" stroke="black" points="362.49,-332.11 365.66,-322 356.87,-327.92 362.49,-332.11"/>
</g>
<!-- single_subject_wfds_report_about -->
<g id="node5" class="node">
<title>single_subject_wfds_report_about</title>
<polygon fill="none" stroke="black" points="780.16,-304.5 780.16,-373.5 1053.16,-373.5 1053.16,-304.5 780.16,-304.5"/>
<text text-anchor="middle" x="826.16" y="-358.3" font-family="Times,serif" font-size="14.00">IN</text>
<polyline fill="none" stroke="black" points="780.16,-350.5 872.16,-350.5 "/>
<text text-anchor="middle" x="826.16" y="-335.3" font-family="Times,serif" font-size="14.00">in_file</text>
<polyline fill="none" stroke="black" points="780.16,-327.5 872.16,-327.5 "/>
<text text-anchor="middle" x="826.16" y="-312.3" font-family="Times,serif" font-size="14.00">source_file</text>
<polyline fill="none" stroke="black" points="872.16,-304.5 872.16,-373.5 "/>
<text text-anchor="middle" x="938.16" y="-358.3" font-family="Times,serif" font-size="14.00">ds_report_about</text>
<polyline fill="none" stroke="black" points="872.16,-350.5 1004.16,-350.5 "/>
<text text-anchor="middle" x="938.16" y="-335.3" font-family="Times,serif" font-size="14.00"> </text>
<polyline fill="none" stroke="black" points="872.16,-327.5 1004.16,-327.5 "/>
<text text-anchor="middle" x="938.16" y="-312.3" font-family="Times,serif" font-size="14.00"> </text>
<polyline fill="none" stroke="black" points="1004.16,-304.5 1004.16,-373.5 "/>
<text text-anchor="middle" x="1028.66" y="-335.3" font-family="Times,serif" font-size="14.00">OUT</text>
</g>
<!-- single_subject_wfbidssrc&#45;&gt;single_subject_wfds_report_about -->
<g id="edge8" class="edge">
<title>single_subject_wfbidssrc:e&#45;&gt;single_subject_wfds_report_about:w</title>
<path fill="none" stroke="black" d="M585.66,-445C601.62,-445 582.56,-421.46 593.66,-410 637.45,-364.77 677.6,-407.88 730.66,-374 755.56,-358.1 747.83,-325.07 768.7,-317.55"/>
<polygon fill="black" stroke="black" points="769.32,-320.99 778.66,-316 768.24,-314.08 769.32,-320.99"/>
</g>
<!-- single_subject_wfbidssrc&#45;&gt;single_subject_wfsummary -->
<g id="edge10" class="edge">
<title>single_subject_wfbidssrc:e&#45;&gt;single_subject_wfsummary:w</title>
<path fill="none" stroke="black" d="M585.66,-445C593.44,-445 590.03,-415.63 584.66,-410 512.23,-334.02 190.44,-445.59 113.66,-374 82.05,-344.53 51.89,-190.93 84.09,-167.11"/>
<polygon fill="black" stroke="black" points="85.23,-170.42 93.66,-164 83.07,-163.76 85.23,-170.42"/>
</g>
<!-- single_subject_wfbidssrc&#45;&gt;single_subject_wfsummary -->
<g id="edge12" class="edge">
<title>single_subject_wfbidssrc:e&#45;&gt;single_subject_wfsummary:w</title>
<path fill="none" stroke="black" d="M585.66,-422C591.01,-422 588.47,-413.76 584.66,-410 504.47,-330.77 155.49,-456.49 78.66,-374 52.62,-346.04 41.39,-167.2 83.78,-143.58"/>
<polygon fill="black" stroke="black" points="84.87,-146.91 93.66,-141 83.1,-140.14 84.87,-146.91"/>
</g>
<!-- single_subject_wfbidssrc&#45;&gt;single_subject_wfanat_preproc_wf -->
<g id="edge4" class="edge">
<title>single_subject_wfbidssrc:e&#45;&gt;single_subject_wfanat_preproc_wf:w</title>
<path fill="none" stroke="black" d="M585.66,-491C603.75,-491 582.57,-424.29 593.66,-410 622.37,-373.02 665.8,-412.35 692.66,-374 710.51,-348.52 708.94,-330.51 692.66,-304 674.14,-273.85 640.6,-297.88 621.66,-268 616,-259.07 610.38,-246.11 612.25,-238.72"/>
<polygon fill="black" stroke="black" points="614.36,-241.52 620.66,-233 610.42,-235.73 614.36,-241.52"/>
</g>
<!-- single_subject_wfbidssrc&#45;&gt;single_subject_wfanat_preproc_wf -->
<g id="edge5" class="edge">
<title>single_subject_wfbidssrc:e&#45;&gt;single_subject_wfanat_preproc_wf:w</title>
<path fill="none" stroke="black" d="M585.66,-468C598.67,-468 586.45,-420.83 593.66,-410 611.11,-383.8 639.05,-401.34 654.66,-374 670.09,-346.98 665.94,-332.99 654.66,-304 646.79,-283.77 629.7,-288.16 621.66,-268 613.75,-248.17 600.57,-221.41 610.92,-212.79"/>
<polygon fill="black" stroke="black" points="612.01,-216.12 620.66,-210 610.08,-209.39 612.01,-216.12"/>
</g>
<!-- single_subject_wfbidssrc&#45;&gt;single_subject_wfanat_preproc_wf -->
<g id="edge6" class="edge">
<title>single_subject_wfbidssrc:e&#45;&gt;single_subject_wfanat_preproc_wf:w</title>
<path fill="none" stroke="black" d="M585.66,-445C601.62,-445 587.5,-424.72 593.66,-410 600.99,-392.49 611.18,-392.18 616.66,-374 645.51,-278.32 526,-150.37 610.58,-141.49"/>
<polygon fill="black" stroke="black" points="610.84,-144.98 620.66,-141 610.5,-137.99 610.84,-144.98"/>
</g>
<!-- single_subject_wfbidssrc&#45;&gt;single_subject_wfanat_preproc_wf -->
<g id="edge11" class="edge">
<title>single_subject_wfbidssrc:e&#45;&gt;single_subject_wfanat_preproc_wf:w</title>
<path fill="none" stroke="black" d="M585.66,-422C600.9,-422 603.28,-177.68 615.86,-127.1"/>
<polygon fill="black" stroke="black" points="619.09,-128.48 620.66,-118 612.9,-125.21 619.09,-128.48"/>
</g>
<!-- single_subject_wfds_report_summary -->
<g id="node8" class="node">
<title>single_subject_wfds_report_summary</title>
<polygon fill="none" stroke="black" points="196.16,-0.5 196.16,-69.5 495.16,-69.5 495.16,-0.5 196.16,-0.5"/>
<text text-anchor="middle" x="242.16" y="-54.3" font-family="Times,serif" font-size="14.00">IN</text>
<polyline fill="none" stroke="black" points="196.16,-46.5 288.16,-46.5 "/>
<text text-anchor="middle" x="242.16" y="-31.3" font-family="Times,serif" font-size="14.00">in_file</text>
<polyline fill="none" stroke="black" points="196.16,-23.5 288.16,-23.5 "/>
<text text-anchor="middle" x="242.16" y="-8.3" font-family="Times,serif" font-size="14.00">source_file</text>
<polyline fill="none" stroke="black" points="288.16,-0.5 288.16,-69.5 "/>
<text text-anchor="middle" x="367.16" y="-54.3" font-family="Times,serif" font-size="14.00">ds_report_summary</text>
<polyline fill="none" stroke="black" points="288.16,-46.5 446.16,-46.5 "/>
<text text-anchor="middle" x="367.16" y="-31.3" font-family="Times,serif" font-size="14.00"> </text>
<polyline fill="none" stroke="black" points="288.16,-23.5 446.16,-23.5 "/>
<text text-anchor="middle" x="367.16" y="-8.3" font-family="Times,serif" font-size="14.00"> </text>
<polyline fill="none" stroke="black" points="446.16,-0.5 446.16,-69.5 "/>
<text text-anchor="middle" x="470.66" y="-31.3" font-family="Times,serif" font-size="14.00">OUT</text>
</g>
<!-- single_subject_wfbidssrc&#45;&gt;single_subject_wfds_report_summary -->
<g id="edge9" class="edge">
<title>single_subject_wfbidssrc:e&#45;&gt;single_subject_wfds_report_summary:w</title>
<path fill="none" stroke="black" d="M585.66,-445C593.44,-445 590.05,-415.61 584.66,-410 502.84,-324.9 135.26,-460.26 54.66,-374 -60.81,-250.42 18.91,-21.18 184.65,-12.27"/>
<polygon fill="black" stroke="black" points="184.76,-15.77 194.66,-12 184.57,-8.77 184.76,-15.77"/>
</g>
<!-- single_subject_wfabout -->
<g id="node3" class="node">
<title>single_subject_wfabout</title>
<polygon fill="none" stroke="black" points="602.16,-433.5 602.16,-502.5 797.16,-502.5 797.16,-433.5 602.16,-433.5"/>
<text text-anchor="middle" x="619.16" y="-464.3" font-family="Times,serif" font-size="14.00">IN</text>
<polyline fill="none" stroke="black" points="636.16,-433.5 636.16,-502.5 "/>
<text text-anchor="middle" x="670.66" y="-487.3" font-family="Times,serif" font-size="14.00">about</text>
<polyline fill="none" stroke="black" points="636.16,-479.5 705.16,-479.5 "/>
<text text-anchor="middle" x="670.66" y="-464.3" font-family="Times,serif" font-size="14.00">reports</text>
<polyline fill="none" stroke="black" points="636.16,-456.5 705.16,-456.5 "/>
<text text-anchor="middle" x="670.66" y="-441.3" font-family="Times,serif" font-size="14.00"> </text>
<polyline fill="none" stroke="black" points="705.16,-433.5 705.16,-502.5 "/>
<text text-anchor="middle" x="751.16" y="-481.8" font-family="Times,serif" font-size="14.00">OUT</text>
<polyline fill="none" stroke="black" points="705.16,-468.5 797.16,-468.5 "/>
<text text-anchor="middle" x="751.16" y="-447.3" font-family="Times,serif" font-size="14.00">out_report</text>
</g>
<!-- single_subject_wfabout&#45;&gt;single_subject_wfds_report_about -->
<g id="edge1" class="edge">
<title>single_subject_wfabout:e&#45;&gt;single_subject_wfds_report_about:w</title>
<path fill="none" stroke="black" d="M798.66,-451C844.68,-451 748.47,-358.22 768.94,-341.55"/>
<polygon fill="black" stroke="black" points="769.88,-344.92 778.66,-339 768.1,-338.15 769.88,-344.92"/>
</g>
<!-- single_subject_wfbids_info&#45;&gt;single_subject_wfsummary -->
<g id="edge3" class="edge">
<title>single_subject_wfbids_info:e&#45;&gt;single_subject_wfsummary:w</title>
<path fill="none" stroke="black" d="M575.66,-322C583.67,-322 580.13,-309.85 574.66,-304 427.84,-147.02 239.36,-403.94 94.66,-245 87.29,-236.91 82.1,-222.89 85.07,-215.28"/>
<polygon fill="black" stroke="black" points="86.98,-218.22 93.66,-210 83.31,-212.26 86.98,-218.22"/>
</g>
<!-- single_subject_wfbids_info&#45;&gt;single_subject_wfanat_preproc_wf -->
<g id="edge2" class="edge">
<title>single_subject_wfbids_info:e&#45;&gt;single_subject_wfanat_preproc_wf:w</title>
<path fill="none" stroke="black" d="M575.66,-322C589.19,-322 600.93,-223.2 613.94,-194.64"/>
<polygon fill="black" stroke="black" points="616.69,-196.82 620.66,-187 611.43,-192.2 616.69,-196.82"/>
</g>
<!-- single_subject_wfsummary&#45;&gt;single_subject_wfds_report_summary -->
<g id="edge15" class="edge">
<title>single_subject_wfsummary:e&#45;&gt;single_subject_wfds_report_summary:w</title>
<path fill="none" stroke="black" d="M373.66,-158C386.56,-158 380.38,-139.33 372.66,-129 323.02,-62.58 245.1,-136.57 195.66,-70 189.28,-61.41 183.85,-48.09 186.13,-40.6"/>
<polygon fill="black" stroke="black" points="188.22,-43.41 194.66,-35 184.38,-37.56 188.22,-43.41"/>
</g>
</g>
</svg>
