<?xml version="1.0" encoding="UTF-8" standalone="no"?>
<!DOCTYPE svg PUBLIC "-//W3C//DTD SVG 1.1//EN"
 "http://www.w3.org/Graphics/SVG/1.1/DTD/svg11.dtd">
<!-- Generated by graphviz version 2.40.1 (20161225.0304)
 -->
<!-- Title: structs Pages: 1 -->
<svg width="963pt" height="465pt"
 viewBox="0.00 0.00 963.00 465.00" xmlns="http://www.w3.org/2000/svg" xmlns:xlink="http://www.w3.org/1999/xlink">
<g id="graph0" class="graph" transform="scale(1 1) rotate(0) translate(4 461)">
<title>structs</title>
<polygon fill="#ffffff" stroke="transparent" points="-4,4 -4,-461 959,-461 959,4 -4,4"/>
<!-- segs_to_native_aseginputnode -->
<g id="node1" class="node">
<title>segs_to_native_aseginputnode</title>
<polygon fill="none" stroke="#000000" points="0,-341.5 0,-456.5 268,-456.5 268,-341.5 0,-341.5"/>
<text text-anchor="middle" x="17.5" y="-395.3" font-family="Times,serif" font-size="14.00" fill="#000000">IN</text>
<polyline fill="none" stroke="#000000" points="35,-341.5 35,-456.5 "/>
<text text-anchor="middle" x="79.5" y="-433.8" font-family="Times,serif" font-size="14.00" fill="#000000">inputnode</text>
<polyline fill="none" stroke="#000000" points="35,-418.5 124,-418.5 "/>
<text text-anchor="middle" x="79.5" y="-395.8" font-family="Times,serif" font-size="14.00" fill="#000000">utility</text>
<polyline fill="none" stroke="#000000" points="35,-380.5 124,-380.5 "/>
<text text-anchor="middle" x="79.5" y="-357.3" font-family="Times,serif" font-size="14.00" fill="#000000"> </text>
<polyline fill="none" stroke="#000000" points="124,-341.5 124,-456.5 "/>
<text text-anchor="middle" x="196" y="-441.3" font-family="Times,serif" font-size="14.00" fill="#000000">OUT</text>
<polyline fill="none" stroke="#000000" points="124,-433.5 268,-433.5 "/>
<text text-anchor="middle" x="196" y="-418.3" font-family="Times,serif" font-size="14.00" fill="#000000">fsnative2t1w_xfm</text>
<polyline fill="none" stroke="#000000" points="124,-410.5 268,-410.5 "/>
<text text-anchor="middle" x="196" y="-395.3" font-family="Times,serif" font-size="14.00" fill="#000000">in_file</text>
<polyline fill="none" stroke="#000000" points="124,-387.5 268,-387.5 "/>
<text text-anchor="middle" x="196" y="-372.3" font-family="Times,serif" font-size="14.00" fill="#000000">subject_id</text>
<polyline fill="none" stroke="#000000" points="124,-364.5 268,-364.5 "/>
<text text-anchor="middle" x="196" y="-349.3" font-family="Times,serif" font-size="14.00" fill="#000000">subjects_dir</text>
</g>
<!-- segs_to_native_asegfs_datasource -->
<g id="node2" class="node">
<title>segs_to_native_asegfs_datasource</title>
<polygon fill="none" stroke="#000000" points="119,-235.5 119,-304.5 389,-304.5 389,-235.5 119,-235.5"/>
<text text-anchor="middle" x="171" y="-289.3" font-family="Times,serif" font-size="14.00" fill="#000000">IN</text>
<polyline fill="none" stroke="#000000" points="119,-281.5 223,-281.5 "/>
<text text-anchor="middle" x="171" y="-266.3" font-family="Times,serif" font-size="14.00" fill="#000000">subject_id</text>
<polyline fill="none" stroke="#000000" points="119,-258.5 223,-258.5 "/>
<text text-anchor="middle" x="171" y="-243.3" font-family="Times,serif" font-size="14.00" fill="#000000">subjects_dir</text>
<polyline fill="none" stroke="#000000" points="223,-235.5 223,-304.5 "/>
<text text-anchor="middle" x="281" y="-289.3" font-family="Times,serif" font-size="14.00" fill="#000000">fs_datasource</text>
<polyline fill="none" stroke="#000000" points="223,-281.5 339,-281.5 "/>
<text text-anchor="middle" x="281" y="-266.3" font-family="Times,serif" font-size="14.00" fill="#000000">io</text>
<polyline fill="none" stroke="#000000" points="223,-258.5 339,-258.5 "/>
<text text-anchor="middle" x="281" y="-243.3" font-family="Times,serif" font-size="14.00" fill="#000000"> </text>
<polyline fill="none" stroke="#000000" points="339,-235.5 339,-304.5 "/>
<text text-anchor="middle" x="364" y="-283.8" font-family="Times,serif" font-size="14.00" fill="#000000">OUT</text>
<polyline fill="none" stroke="#000000" points="339,-270.5 389,-270.5 "/>
<text text-anchor="middle" x="364" y="-249.3" font-family="Times,serif" font-size="14.00" fill="#000000">aseg</text>
</g>
<!-- segs_to_native_aseginputnode&#45;&gt;segs_to_native_asegfs_datasource -->
<g id="edge4" class="edge">
<title>segs_to_native_aseginputnode:e&#45;&gt;segs_to_native_asegfs_datasource:w</title>
<path fill="none" stroke="#000000" d="M268,-376C283.5556,-376 277.6215,-353.223 268,-341 225.8613,-287.4676 161.1387,-358.5324 119,-305 112.2349,-296.4057 107.2928,-282.5937 110.362,-275.1502"/>
<polygon fill="#000000" stroke="#000000" points="112.2032,-278.1274 119,-270 108.6184,-272.1149 112.2032,-278.1274"/>
</g>
<!-- segs_to_native_aseginputnode&#45;&gt;segs_to_native_asegfs_datasource -->
<g id="edge5" class="edge">
<title>segs_to_native_aseginputnode:e&#45;&gt;segs_to_native_asegfs_datasource:w</title>
<path fill="none" stroke="#000000" d="M268,-353C273.3333,-353 271.2988,-345.1907 268,-341 225.8613,-287.4676 161.1387,-358.5324 119,-305 105.6716,-288.0679 96.6133,-258.9142 109.0578,-249.804"/>
<polygon fill="#000000" stroke="#000000" points="110.3255,-253.083 119,-247 108.4254,-246.3459 110.3255,-253.083"/>
</g>
<!-- segs_to_native_asegresample -->
<g id="node3" class="node">
<title>segs_to_native_asegresample</title>
<polygon fill="none" stroke="#000000" points="417.5,-106.5 417.5,-198.5 736.5,-198.5 736.5,-106.5 417.5,-106.5"/>
<text text-anchor="middle" x="465" y="-183.3" font-family="Times,serif" font-size="14.00" fill="#000000">IN</text>
<polyline fill="none" stroke="#000000" points="417.5,-175.5 512.5,-175.5 "/>
<text text-anchor="middle" x="465" y="-160.3" font-family="Times,serif" font-size="14.00" fill="#000000">lta_file</text>
<polyline fill="none" stroke="#000000" points="417.5,-152.5 512.5,-152.5 "/>
<text text-anchor="middle" x="465" y="-137.3" font-family="Times,serif" font-size="14.00" fill="#000000">source_file</text>
<polyline fill="none" stroke="#000000" points="417.5,-129.5 512.5,-129.5 "/>
<text text-anchor="middle" x="465" y="-114.3" font-family="Times,serif" font-size="14.00" fill="#000000">target_file</text>
<polyline fill="none" stroke="#000000" points="512.5,-106.5 512.5,-198.5 "/>
<text text-anchor="middle" x="557" y="-179.8" font-family="Times,serif" font-size="14.00" fill="#000000">resample</text>
<polyline fill="none" stroke="#000000" points="512.5,-168.5 601.5,-168.5 "/>
<text text-anchor="middle" x="557" y="-149.3" font-family="Times,serif" font-size="14.00" fill="#000000">freesurfer</text>
<polyline fill="none" stroke="#000000" points="512.5,-137.5 601.5,-137.5 "/>
<text text-anchor="middle" x="557" y="-118.3" font-family="Times,serif" font-size="14.00" fill="#000000"> </text>
<polyline fill="none" stroke="#000000" points="601.5,-106.5 601.5,-198.5 "/>
<text text-anchor="middle" x="669" y="-171.8" font-family="Times,serif" font-size="14.00" fill="#000000">OUT</text>
<polyline fill="none" stroke="#000000" points="601.5,-152.5 736.5,-152.5 "/>
<text text-anchor="middle" x="669" y="-125.8" font-family="Times,serif" font-size="14.00" fill="#000000">transformed_file</text>
</g>
<!-- segs_to_native_aseginputnode&#45;&gt;segs_to_native_asegresample -->
<g id="edge2" class="edge">
<title>segs_to_native_aseginputnode:e&#45;&gt;segs_to_native_asegresample:w</title>
<path fill="none" stroke="#000000" d="M268,-422C345.7321,-422 361.6783,-373.7241 398,-305 425.6612,-252.6625 362.5051,-174.6609 407.002,-165.4072"/>
<polygon fill="#000000" stroke="#000000" points="407.3572,-168.8895 417,-164.5 406.7246,-161.9181 407.3572,-168.8895"/>
</g>
<!-- segs_to_native_aseginputnode&#45;&gt;segs_to_native_asegresample -->
<g id="edge3" class="edge">
<title>segs_to_native_aseginputnode:e&#45;&gt;segs_to_native_asegresample:w</title>
<path fill="none" stroke="#000000" d="M268,-399C345.9237,-399 378.2906,-373.1916 416,-305 454.5163,-235.3493 344.357,-127.7097 406.983,-118.1795"/>
<polygon fill="#000000" stroke="#000000" points="407.2598,-121.6688 417,-117.5 406.786,-114.6849 407.2598,-121.6688"/>
</g>
<!-- segs_to_native_asegfs_datasource&#45;&gt;segs_to_native_asegresample -->
<g id="edge1" class="edge">
<title>segs_to_native_asegfs_datasource:e&#45;&gt;segs_to_native_asegresample:w</title>
<path fill="none" stroke="#000000" d="M389,-253C411.1398,-253 396.8791,-169.9159 408.7813,-146.5485"/>
<polygon fill="#000000" stroke="#000000" points="411.0205,-149.2462 417,-140.5 406.8714,-143.6084 411.0205,-149.2462"/>
</g>
<!-- segs_to_native_asegoutputnode -->
<g id="node4" class="node">
<title>segs_to_native_asegoutputnode</title>
<polygon fill="none" stroke="#000000" points="737,-.5 737,-69.5 955,-69.5 955,-.5 737,-.5"/>
<text text-anchor="middle" x="772" y="-48.8" font-family="Times,serif" font-size="14.00" fill="#000000">IN</text>
<polyline fill="none" stroke="#000000" points="737,-35.5 807,-35.5 "/>
<text text-anchor="middle" x="772" y="-14.3" font-family="Times,serif" font-size="14.00" fill="#000000">out_file</text>
<polyline fill="none" stroke="#000000" points="807,-.5 807,-69.5 "/>
<text text-anchor="middle" x="856" y="-54.3" font-family="Times,serif" font-size="14.00" fill="#000000">outputnode</text>
<polyline fill="none" stroke="#000000" points="807,-46.5 905,-46.5 "/>
<text text-anchor="middle" x="856" y="-31.3" font-family="Times,serif" font-size="14.00" fill="#000000">utility</text>
<polyline fill="none" stroke="#000000" points="807,-23.5 905,-23.5 "/>
<text text-anchor="middle" x="856" y="-8.3" font-family="Times,serif" font-size="14.00" fill="#000000"> </text>
<polyline fill="none" stroke="#000000" points="905,-.5 905,-69.5 "/>
<text text-anchor="middle" x="930" y="-31.3" font-family="Times,serif" font-size="14.00" fill="#000000">OUT</text>
</g>
<!-- segs_to_native_asegresample&#45;&gt;segs_to_native_asegoutputnode -->
<g id="edge6" class="edge">
<title>segs_to_native_asegresample:e&#45;&gt;segs_to_native_asegoutputnode:w</title>
<path fill="none" stroke="#000000" d="M737,-129.5C782.1033,-129.5 704.0534,-37.1351 727.0277,-20.5383"/>
<polygon fill="#000000" stroke="#000000" points="728.1724,-23.8586 737,-18 726.4456,-17.0749 728.1724,-23.8586"/>
</g>
</g>
</svg>
