<?xml version="1.0" encoding="UTF-8" standalone="no"?>
<!DOCTYPE svg PUBLIC "-//W3C//DTD SVG 1.1//EN"
 "http://www.w3.org/Graphics/SVG/1.1/DTD/svg11.dtd">
<!-- Generated by graphviz version 2.40.1 (20161225.0304)
 -->
<!-- Title: structs Pages: 1 -->
<svg width="1729pt" height="806pt"
 viewBox="0.00 0.00 1729.00 806.00" xmlns="http://www.w3.org/2000/svg" xmlns:xlink="http://www.w3.org/1999/xlink">
<g id="graph0" class="graph" transform="scale(1 1) rotate(0) translate(4 802)">
<title>structs</title>
<polygon fill="#ffffff" stroke="transparent" points="-4,4 -4,-802 1725,-802 1725,4 -4,4"/>
<!-- autorecon_resume_wfinputnode -->
<g id="node1" class="node">
<title>autorecon_resume_wfinputnode</title>
<polygon fill="none" stroke="#000000" points="0,-682.5 0,-797.5 228,-797.5 228,-682.5 0,-682.5"/>
<text text-anchor="middle" x="17.5" y="-736.3" font-family="Times,serif" font-size="14.00" fill="#000000">IN</text>
<polyline fill="none" stroke="#000000" points="35,-682.5 35,-797.5 "/>
<text text-anchor="middle" x="79.5" y="-774.8" font-family="Times,serif" font-size="14.00" fill="#000000">inputnode</text>
<polyline fill="none" stroke="#000000" points="35,-759.5 124,-759.5 "/>
<text text-anchor="middle" x="79.5" y="-736.8" font-family="Times,serif" font-size="14.00" fill="#000000">utility</text>
<polyline fill="none" stroke="#000000" points="35,-721.5 124,-721.5 "/>
<text text-anchor="middle" x="79.5" y="-698.3" font-family="Times,serif" font-size="14.00" fill="#000000"> </text>
<polyline fill="none" stroke="#000000" points="124,-682.5 124,-797.5 "/>
<text text-anchor="middle" x="176" y="-782.3" font-family="Times,serif" font-size="14.00" fill="#000000">OUT</text>
<polyline fill="none" stroke="#000000" points="124,-774.5 228,-774.5 "/>
<text text-anchor="middle" x="176" y="-759.3" font-family="Times,serif" font-size="14.00" fill="#000000">subject_id</text>
<polyline fill="none" stroke="#000000" points="124,-751.5 228,-751.5 "/>
<text text-anchor="middle" x="176" y="-736.3" font-family="Times,serif" font-size="14.00" fill="#000000">subjects_dir</text>
<polyline fill="none" stroke="#000000" points="124,-728.5 228,-728.5 "/>
<text text-anchor="middle" x="176" y="-713.3" font-family="Times,serif" font-size="14.00" fill="#000000">use_FLAIR</text>
<polyline fill="none" stroke="#000000" points="124,-705.5 228,-705.5 "/>
<text text-anchor="middle" x="176" y="-690.3" font-family="Times,serif" font-size="14.00" fill="#000000">use_T2</text>
</g>
<!-- autorecon_resume_wfautorecon2_vol -->
<g id="node2" class="node">
<title>autorecon_resume_wfautorecon2_vol</title>
<polygon fill="none" stroke="#000000" points="47,-576.5 47,-645.5 381,-645.5 381,-576.5 47,-576.5"/>
<text text-anchor="middle" x="99" y="-630.3" font-family="Times,serif" font-size="14.00" fill="#000000">IN</text>
<polyline fill="none" stroke="#000000" points="47,-622.5 151,-622.5 "/>
<text text-anchor="middle" x="99" y="-607.3" font-family="Times,serif" font-size="14.00" fill="#000000">subject_id</text>
<polyline fill="none" stroke="#000000" points="47,-599.5 151,-599.5 "/>
<text text-anchor="middle" x="99" y="-584.3" font-family="Times,serif" font-size="14.00" fill="#000000">subjects_dir</text>
<polyline fill="none" stroke="#000000" points="151,-576.5 151,-645.5 "/>
<text text-anchor="middle" x="214" y="-630.3" font-family="Times,serif" font-size="14.00" fill="#000000">autorecon2_vol</text>
<polyline fill="none" stroke="#000000" points="151,-622.5 277,-622.5 "/>
<text text-anchor="middle" x="214" y="-607.3" font-family="Times,serif" font-size="14.00" fill="#000000">freesurfer</text>
<polyline fill="none" stroke="#000000" points="151,-599.5 277,-599.5 "/>
<text text-anchor="middle" x="214" y="-584.3" font-family="Times,serif" font-size="14.00" fill="#000000"> </text>
<polyline fill="none" stroke="#000000" points="277,-576.5 277,-645.5 "/>
<text text-anchor="middle" x="329" y="-630.3" font-family="Times,serif" font-size="14.00" fill="#000000">OUT</text>
<polyline fill="none" stroke="#000000" points="277,-622.5 381,-622.5 "/>
<text text-anchor="middle" x="329" y="-607.3" font-family="Times,serif" font-size="14.00" fill="#000000">subject_id</text>
<polyline fill="none" stroke="#000000" points="277,-599.5 381,-599.5 "/>
<text text-anchor="middle" x="329" y="-584.3" font-family="Times,serif" font-size="14.00" fill="#000000">subjects_dir</text>
</g>
<!-- autorecon_resume_wfinputnode&#45;&gt;autorecon_resume_wfautorecon2_vol -->
<g id="edge9" class="edge">
<title>autorecon_resume_wfinputnode:e&#45;&gt;autorecon_resume_wfautorecon2_vol:w</title>
<path fill="none" stroke="#000000" d="M228,-763C264,-763 250.8384,-709.8282 228,-682 175.9664,-618.598 99.0336,-709.402 47,-646 40.0613,-637.5453 35.1897,-623.6765 38.3161,-616.1871"/>
<polygon fill="#000000" stroke="#000000" points="40.2098,-619.1329 47,-611 36.6201,-613.1233 40.2098,-619.1329"/>
</g>
<!-- autorecon_resume_wfinputnode&#45;&gt;autorecon_resume_wfautorecon2_vol -->
<g id="edge10" class="edge">
<title>autorecon_resume_wfinputnode:e&#45;&gt;autorecon_resume_wfautorecon2_vol:w</title>
<path fill="none" stroke="#000000" d="M228,-740C253.7778,-740 244.3534,-701.9264 228,-682 175.9664,-618.598 99.0336,-709.402 47,-646 33.3296,-629.3428 24.5011,-600.0045 37.0302,-590.8262"/>
<polygon fill="#000000" stroke="#000000" points="38.3336,-594.0947 47,-588 36.4245,-587.36 38.3336,-594.0947"/>
</g>
<!-- autorecon_resume_wfcortribbon -->
<g id="node4" class="node">
<title>autorecon_resume_wfcortribbon</title>
<polygon fill="none" stroke="#000000" points="565,-318.5 565,-433.5 865,-433.5 865,-318.5 565,-318.5"/>
<text text-anchor="middle" x="617" y="-418.3" font-family="Times,serif" font-size="14.00" fill="#000000">IN</text>
<polyline fill="none" stroke="#000000" points="565,-410.5 669,-410.5 "/>
<text text-anchor="middle" x="617" y="-395.3" font-family="Times,serif" font-size="14.00" fill="#000000">subject_id</text>
<polyline fill="none" stroke="#000000" points="565,-387.5 669,-387.5 "/>
<text text-anchor="middle" x="617" y="-372.3" font-family="Times,serif" font-size="14.00" fill="#000000">subjects_dir</text>
<polyline fill="none" stroke="#000000" points="565,-364.5 669,-364.5 "/>
<text text-anchor="middle" x="617" y="-349.3" font-family="Times,serif" font-size="14.00" fill="#000000">use_FLAIR</text>
<polyline fill="none" stroke="#000000" points="565,-341.5 669,-341.5 "/>
<text text-anchor="middle" x="617" y="-326.3" font-family="Times,serif" font-size="14.00" fill="#000000">use_T2</text>
<polyline fill="none" stroke="#000000" points="669,-318.5 669,-433.5 "/>
<text text-anchor="middle" x="715" y="-410.8" font-family="Times,serif" font-size="14.00" fill="#000000">cortribbon</text>
<polyline fill="none" stroke="#000000" points="669,-395.5 761,-395.5 "/>
<text text-anchor="middle" x="715" y="-372.8" font-family="Times,serif" font-size="14.00" fill="#000000">freesurfer</text>
<polyline fill="none" stroke="#000000" points="669,-357.5 761,-357.5 "/>
<text text-anchor="middle" x="715" y="-334.3" font-family="Times,serif" font-size="14.00" fill="#000000"> </text>
<polyline fill="none" stroke="#000000" points="761,-318.5 761,-433.5 "/>
<text text-anchor="middle" x="813" y="-410.8" font-family="Times,serif" font-size="14.00" fill="#000000">OUT</text>
<polyline fill="none" stroke="#000000" points="761,-395.5 865,-395.5 "/>
<text text-anchor="middle" x="813" y="-372.8" font-family="Times,serif" font-size="14.00" fill="#000000">subject_id</text>
<polyline fill="none" stroke="#000000" points="761,-357.5 865,-357.5 "/>
<text text-anchor="middle" x="813" y="-334.3" font-family="Times,serif" font-size="14.00" fill="#000000">subjects_dir</text>
</g>
<!-- autorecon_resume_wfinputnode&#45;&gt;autorecon_resume_wfcortribbon -->
<g id="edge11" class="edge">
<title>autorecon_resume_wfinputnode:e&#45;&gt;autorecon_resume_wfcortribbon:w</title>
<path fill="none" stroke="#000000" d="M228,-717C395.2157,-717 476.9148,-685.1135 560,-540 599.4548,-471.0897 492.2667,-363.2323 554.989,-353.681"/>
<polygon fill="#000000" stroke="#000000" points="555.2606,-357.1707 565,-353 554.7855,-350.1868 555.2606,-357.1707"/>
</g>
<!-- autorecon_resume_wfinputnode&#45;&gt;autorecon_resume_wfcortribbon -->
<g id="edge12" class="edge">
<title>autorecon_resume_wfinputnode:e&#45;&gt;autorecon_resume_wfcortribbon:w</title>
<path fill="none" stroke="#000000" d="M228,-694C294.1984,-694 468.2498,-684.6412 522,-646 565.2622,-614.8986 565.1788,-591.7159 578,-540 585.4863,-509.803 583.3637,-500.6453 578,-470 575.0672,-453.2435 567.9328,-450.7565 565,-434 557.7159,-392.3826 525.1289,-339.9539 554.8821,-331.2501"/>
<polygon fill="#000000" stroke="#000000" points="555.5047,-334.6999 565,-330 554.6463,-327.7527 555.5047,-334.6999"/>
</g>
<!-- autorecon_resume_wfautorecon_surfs -->
<g id="node3" class="node">
<title>autorecon_resume_wfautorecon_surfs</title>
<polygon fill="none" stroke="#000000" points="211,-470.5 211,-539.5 551,-539.5 551,-470.5 211,-470.5"/>
<text text-anchor="middle" x="263" y="-524.3" font-family="Times,serif" font-size="14.00" fill="#000000">IN</text>
<polyline fill="none" stroke="#000000" points="211,-516.5 315,-516.5 "/>
<text text-anchor="middle" x="263" y="-501.3" font-family="Times,serif" font-size="14.00" fill="#000000">subject_id</text>
<polyline fill="none" stroke="#000000" points="211,-493.5 315,-493.5 "/>
<text text-anchor="middle" x="263" y="-478.3" font-family="Times,serif" font-size="14.00" fill="#000000">subjects_dir</text>
<polyline fill="none" stroke="#000000" points="315,-470.5 315,-539.5 "/>
<text text-anchor="middle" x="381" y="-524.3" font-family="Times,serif" font-size="14.00" fill="#000000">autorecon_surfs</text>
<polyline fill="none" stroke="#000000" points="315,-516.5 447,-516.5 "/>
<text text-anchor="middle" x="381" y="-501.3" font-family="Times,serif" font-size="14.00" fill="#000000">freesurfer</text>
<polyline fill="none" stroke="#000000" points="315,-493.5 447,-493.5 "/>
<text text-anchor="middle" x="381" y="-478.3" font-family="Times,serif" font-size="14.00" fill="#000000"> </text>
<polyline fill="none" stroke="#000000" points="447,-470.5 447,-539.5 "/>
<text text-anchor="middle" x="499" y="-524.3" font-family="Times,serif" font-size="14.00" fill="#000000">OUT</text>
<polyline fill="none" stroke="#000000" points="447,-516.5 551,-516.5 "/>
<text text-anchor="middle" x="499" y="-501.3" font-family="Times,serif" font-size="14.00" fill="#000000">subject_id</text>
<polyline fill="none" stroke="#000000" points="447,-493.5 551,-493.5 "/>
<text text-anchor="middle" x="499" y="-478.3" font-family="Times,serif" font-size="14.00" fill="#000000">subjects_dir</text>
</g>
<!-- autorecon_resume_wfautorecon2_vol&#45;&gt;autorecon_resume_wfautorecon_surfs -->
<g id="edge1" class="edge">
<title>autorecon_resume_wfautorecon2_vol:e&#45;&gt;autorecon_resume_wfautorecon_surfs:w</title>
<path fill="none" stroke="#000000" d="M381,-611C396.5556,-611 390.794,-588.0852 381,-576 332.3742,-515.9986 259.6258,-600.0014 211,-540 204.1136,-531.5026 199.2208,-517.6512 202.3299,-510.1758"/>
<polygon fill="#000000" stroke="#000000" points="204.2077,-513.1311 211,-505 200.6196,-507.1207 204.2077,-513.1311"/>
</g>
<!-- autorecon_resume_wfautorecon2_vol&#45;&gt;autorecon_resume_wfautorecon_surfs -->
<g id="edge2" class="edge">
<title>autorecon_resume_wfautorecon2_vol:e&#45;&gt;autorecon_resume_wfautorecon_surfs:w</title>
<path fill="none" stroke="#000000" d="M381,-588C386.3333,-588 384.3579,-580.1435 381,-576 332.3742,-515.9986 259.6258,-600.0014 211,-540 197.4327,-523.2587 188.5349,-493.9769 201.0385,-484.8194"/>
<polygon fill="#000000" stroke="#000000" points="202.3311,-488.0911 211,-482 200.4248,-481.3557 202.3311,-488.0911"/>
</g>
<!-- autorecon_resume_wfautorecon_surfs&#45;&gt;autorecon_resume_wfcortribbon -->
<g id="edge5" class="edge">
<title>autorecon_resume_wfautorecon_surfs:e&#45;&gt;autorecon_resume_wfcortribbon:w</title>
<path fill="none" stroke="#000000" d="M551,-505C571.0476,-505 550.3165,-429.5371 557.6208,-405.955"/>
<polygon fill="#000000" stroke="#000000" points="560.1234,-408.4058 565,-399 555.3222,-403.3118 560.1234,-408.4058"/>
</g>
<!-- autorecon_resume_wfautorecon_surfs&#45;&gt;autorecon_resume_wfcortribbon -->
<g id="edge6" class="edge">
<title>autorecon_resume_wfautorecon_surfs:e&#45;&gt;autorecon_resume_wfcortribbon:w</title>
<path fill="none" stroke="#000000" d="M551,-482C571.0476,-482 550.3165,-406.5371 557.6208,-382.955"/>
<polygon fill="#000000" stroke="#000000" points="560.1234,-385.4058 565,-376 555.3222,-380.3118 560.1234,-385.4058"/>
</g>
<!-- autorecon_resume_wfparcstats -->
<g id="node5" class="node">
<title>autorecon_resume_wfparcstats</title>
<polygon fill="none" stroke="#000000" points="865.5,-212.5 865.5,-281.5 1162.5,-281.5 1162.5,-212.5 865.5,-212.5"/>
<text text-anchor="middle" x="917.5" y="-266.3" font-family="Times,serif" font-size="14.00" fill="#000000">IN</text>
<polyline fill="none" stroke="#000000" points="865.5,-258.5 969.5,-258.5 "/>
<text text-anchor="middle" x="917.5" y="-243.3" font-family="Times,serif" font-size="14.00" fill="#000000">subject_id</text>
<polyline fill="none" stroke="#000000" points="865.5,-235.5 969.5,-235.5 "/>
<text text-anchor="middle" x="917.5" y="-220.3" font-family="Times,serif" font-size="14.00" fill="#000000">subjects_dir</text>
<polyline fill="none" stroke="#000000" points="969.5,-212.5 969.5,-281.5 "/>
<text text-anchor="middle" x="1014" y="-266.3" font-family="Times,serif" font-size="14.00" fill="#000000">parcstats</text>
<polyline fill="none" stroke="#000000" points="969.5,-258.5 1058.5,-258.5 "/>
<text text-anchor="middle" x="1014" y="-243.3" font-family="Times,serif" font-size="14.00" fill="#000000">freesurfer</text>
<polyline fill="none" stroke="#000000" points="969.5,-235.5 1058.5,-235.5 "/>
<text text-anchor="middle" x="1014" y="-220.3" font-family="Times,serif" font-size="14.00" fill="#000000"> </text>
<polyline fill="none" stroke="#000000" points="1058.5,-212.5 1058.5,-281.5 "/>
<text text-anchor="middle" x="1110.5" y="-266.3" font-family="Times,serif" font-size="14.00" fill="#000000">OUT</text>
<polyline fill="none" stroke="#000000" points="1058.5,-258.5 1162.5,-258.5 "/>
<text text-anchor="middle" x="1110.5" y="-243.3" font-family="Times,serif" font-size="14.00" fill="#000000">subject_id</text>
<polyline fill="none" stroke="#000000" points="1058.5,-235.5 1162.5,-235.5 "/>
<text text-anchor="middle" x="1110.5" y="-220.3" font-family="Times,serif" font-size="14.00" fill="#000000">subjects_dir</text>
</g>
<!-- autorecon_resume_wfcortribbon&#45;&gt;autorecon_resume_wfparcstats -->
<g id="edge7" class="edge">
<title>autorecon_resume_wfcortribbon:e&#45;&gt;autorecon_resume_wfparcstats:w</title>
<path fill="none" stroke="#000000" d="M865,-377C918.4896,-377 823.4202,-265.5808 854.8581,-249.042"/>
<polygon fill="#000000" stroke="#000000" points="855.8876,-252.405 865,-247 854.5059,-245.5427 855.8876,-252.405"/>
</g>
<!-- autorecon_resume_wfcortribbon&#45;&gt;autorecon_resume_wfparcstats -->
<g id="edge8" class="edge">
<title>autorecon_resume_wfcortribbon:e&#45;&gt;autorecon_resume_wfparcstats:w</title>
<path fill="none" stroke="#000000" d="M865,-338C865,-338 865,-262.0168 865,-234.1167"/>
<polygon fill="#000000" stroke="#000000" points="868.5001,-234 865,-224 861.5001,-234 868.5001,-234"/>
</g>
<!-- autorecon_resume_wfautorecon3 -->
<g id="node6" class="node">
<title>autorecon_resume_wfautorecon3</title>
<polygon fill="none" stroke="#000000" points="1163,-106.5 1163,-175.5 1469,-175.5 1469,-106.5 1163,-106.5"/>
<text text-anchor="middle" x="1215" y="-160.3" font-family="Times,serif" font-size="14.00" fill="#000000">IN</text>
<polyline fill="none" stroke="#000000" points="1163,-152.5 1267,-152.5 "/>
<text text-anchor="middle" x="1215" y="-137.3" font-family="Times,serif" font-size="14.00" fill="#000000">subject_id</text>
<polyline fill="none" stroke="#000000" points="1163,-129.5 1267,-129.5 "/>
<text text-anchor="middle" x="1215" y="-114.3" font-family="Times,serif" font-size="14.00" fill="#000000">subjects_dir</text>
<polyline fill="none" stroke="#000000" points="1267,-106.5 1267,-175.5 "/>
<text text-anchor="middle" x="1316" y="-160.3" font-family="Times,serif" font-size="14.00" fill="#000000">autorecon3</text>
<polyline fill="none" stroke="#000000" points="1267,-152.5 1365,-152.5 "/>
<text text-anchor="middle" x="1316" y="-137.3" font-family="Times,serif" font-size="14.00" fill="#000000">freesurfer</text>
<polyline fill="none" stroke="#000000" points="1267,-129.5 1365,-129.5 "/>
<text text-anchor="middle" x="1316" y="-114.3" font-family="Times,serif" font-size="14.00" fill="#000000"> </text>
<polyline fill="none" stroke="#000000" points="1365,-106.5 1365,-175.5 "/>
<text text-anchor="middle" x="1417" y="-160.3" font-family="Times,serif" font-size="14.00" fill="#000000">OUT</text>
<polyline fill="none" stroke="#000000" points="1365,-152.5 1469,-152.5 "/>
<text text-anchor="middle" x="1417" y="-137.3" font-family="Times,serif" font-size="14.00" fill="#000000">subject_id</text>
<polyline fill="none" stroke="#000000" points="1365,-129.5 1469,-129.5 "/>
<text text-anchor="middle" x="1417" y="-114.3" font-family="Times,serif" font-size="14.00" fill="#000000">subjects_dir</text>
</g>
<!-- autorecon_resume_wfparcstats&#45;&gt;autorecon_resume_wfautorecon3 -->
<g id="edge13" class="edge">
<title>autorecon_resume_wfparcstats:e&#45;&gt;autorecon_resume_wfautorecon3:w</title>
<path fill="none" stroke="#000000" d="M1163,-247C1205.6944,-247 1132.3134,-159.9434 1153.2437,-143.6202"/>
<polygon fill="#000000" stroke="#000000" points="1154.2501,-146.9741 1163,-141 1152.4344,-140.2136 1154.2501,-146.9741"/>
</g>
<!-- autorecon_resume_wfparcstats&#45;&gt;autorecon_resume_wfautorecon3 -->
<g id="edge14" class="edge">
<title>autorecon_resume_wfparcstats:e&#45;&gt;autorecon_resume_wfautorecon3:w</title>
<path fill="none" stroke="#000000" d="M1163,-224C1163,-224 1163,-154.6947 1163,-128.1637"/>
<polygon fill="#000000" stroke="#000000" points="1166.5001,-128 1163,-118 1159.5001,-128 1166.5001,-128"/>
</g>
<!-- autorecon_resume_wfoutputnode -->
<g id="node7" class="node">
<title>autorecon_resume_wfoutputnode</title>
<polygon fill="none" stroke="#000000" points="1469,-.5 1469,-69.5 1721,-69.5 1721,-.5 1469,-.5"/>
<text text-anchor="middle" x="1521" y="-54.3" font-family="Times,serif" font-size="14.00" fill="#000000">IN</text>
<polyline fill="none" stroke="#000000" points="1469,-46.5 1573,-46.5 "/>
<text text-anchor="middle" x="1521" y="-31.3" font-family="Times,serif" font-size="14.00" fill="#000000">subject_id</text>
<polyline fill="none" stroke="#000000" points="1469,-23.5 1573,-23.5 "/>
<text text-anchor="middle" x="1521" y="-8.3" font-family="Times,serif" font-size="14.00" fill="#000000">subjects_dir</text>
<polyline fill="none" stroke="#000000" points="1573,-.5 1573,-69.5 "/>
<text text-anchor="middle" x="1622" y="-54.3" font-family="Times,serif" font-size="14.00" fill="#000000">outputnode</text>
<polyline fill="none" stroke="#000000" points="1573,-46.5 1671,-46.5 "/>
<text text-anchor="middle" x="1622" y="-31.3" font-family="Times,serif" font-size="14.00" fill="#000000">utility</text>
<polyline fill="none" stroke="#000000" points="1573,-23.5 1671,-23.5 "/>
<text text-anchor="middle" x="1622" y="-8.3" font-family="Times,serif" font-size="14.00" fill="#000000"> </text>
<polyline fill="none" stroke="#000000" points="1671,-.5 1671,-69.5 "/>
<text text-anchor="middle" x="1696" y="-31.3" font-family="Times,serif" font-size="14.00" fill="#000000">OUT</text>
</g>
<!-- autorecon_resume_wfautorecon3&#45;&gt;autorecon_resume_wfoutputnode -->
<g id="edge3" class="edge">
<title>autorecon_resume_wfautorecon3:e&#45;&gt;autorecon_resume_wfoutputnode:w</title>
<path fill="none" stroke="#000000" d="M1469,-141C1511.6944,-141 1438.3134,-53.9434 1459.2437,-37.6202"/>
<polygon fill="#000000" stroke="#000000" points="1460.2501,-40.9741 1469,-35 1458.4344,-34.2136 1460.2501,-40.9741"/>
</g>
<!-- autorecon_resume_wfautorecon3&#45;&gt;autorecon_resume_wfoutputnode -->
<g id="edge4" class="edge">
<title>autorecon_resume_wfautorecon3:e&#45;&gt;autorecon_resume_wfoutputnode:w</title>
<path fill="none" stroke="#000000" d="M1469,-118C1469,-118 1469,-48.6947 1469,-22.1637"/>
<polygon fill="#000000" stroke="#000000" points="1472.5001,-22 1469,-12 1465.5001,-22 1472.5001,-22"/>
</g>
</g>
</svg>
