<?xml version="1.0" encoding="UTF-8" standalone="no"?>
<!DOCTYPE svg PUBLIC "-//W3C//DTD SVG 1.1//EN"
 "http://www.w3.org/Graphics/SVG/1.1/DTD/svg11.dtd">
<!-- Generated by graphviz version 2.43.0 (0)
 -->
<!-- Title: %3 Pages: 1 -->
<svg width="705pt" height="332pt"
 viewBox="0.00 0.00 704.83 332.00" xmlns="http://www.w3.org/2000/svg" xmlns:xlink="http://www.w3.org/1999/xlink">
<g id="graph0" class="graph" transform="scale(1 1) rotate(0) translate(4 328)">
<title>%3</title>
<polygon fill="white" stroke="transparent" points="-4,4 -4,-328 700.83,-328 700.83,4 -4,4"/>
<!-- poutputnode (utility) -->
<g id="node1" class="node">
<title>poutputnode (utility)</title>
<ellipse fill="none" stroke="black" cx="360.04" cy="-90" rx="107.48" ry="18"/>
<text text-anchor="middle" x="360.04" y="-86.3" font-family="Times,serif" font-size="14.00">poutputnode (utility)</text>
</g>
<!-- outputnode (utility) -->
<g id="node2" class="node">
<title>outputnode (utility)</title>
<ellipse fill="none" stroke="black" cx="360.04" cy="-18" rx="101.28" ry="18"/>
<text text-anchor="middle" x="360.04" y="-14.3" font-family="Times,serif" font-size="14.00">outputnode (utility)</text>
</g>
<!-- poutputnode (utility)&#45;&gt;outputnode (utility) -->
<g id="edge1" class="edge">
<title>poutputnode (utility)&#45;&gt;outputnode (utility)</title>
<path fill="none" stroke="black" d="M360.04,-71.7C360.04,-63.98 360.04,-54.71 360.04,-46.11"/>
<polygon fill="black" stroke="black" points="363.54,-46.1 360.04,-36.1 356.54,-46.1 363.54,-46.1"/>
</g>
<!-- inputnode (utility) -->
<g id="node3" class="node">
<title>inputnode (utility)</title>
<ellipse fill="none" stroke="black" cx="206.04" cy="-306" rx="94.78" ry="18"/>
<text text-anchor="middle" x="206.04" y="-302.3" font-family="Times,serif" font-size="14.00">inputnode (utility)</text>
</g>
<!-- split_desc (templateflow) -->
<g id="node4" class="node">
<title>split_desc (templateflow)</title>
<ellipse fill="none" stroke="black" cx="361.04" cy="-234" rx="126.98" ry="18"/>
<text text-anchor="middle" x="361.04" y="-230.3" font-family="Times,serif" font-size="14.00">split_desc (templateflow)</text>
</g>
<!-- inputnode (utility)&#45;&gt;split_desc (templateflow) -->
<g id="edge2" class="edge">
<title>inputnode (utility)&#45;&gt;split_desc (templateflow)</title>
<path fill="none" stroke="black" d="M241.21,-289.12C263.29,-279.14 291.98,-266.19 315.75,-255.45"/>
<polygon fill="black" stroke="black" points="317.26,-258.61 324.93,-251.31 314.38,-252.23 317.26,-258.61"/>
</g>
<!-- trunc_mov (ants) -->
<g id="node5" class="node">
<title>trunc_mov (ants)</title>
<ellipse fill="none" stroke="black" cx="89.04" cy="-234" rx="89.08" ry="18"/>
<text text-anchor="middle" x="89.04" y="-230.3" font-family="Times,serif" font-size="14.00">trunc_mov (ants)</text>
</g>
<!-- inputnode (utility)&#45;&gt;trunc_mov (ants) -->
<g id="edge3" class="edge">
<title>inputnode (utility)&#45;&gt;trunc_mov (ants)</title>
<path fill="none" stroke="black" d="M178.61,-288.59C162.62,-279.02 142.27,-266.85 125.01,-256.52"/>
<polygon fill="black" stroke="black" points="126.68,-253.44 116.3,-251.31 123.09,-259.45 126.68,-253.44"/>
</g>
<!-- registration (norm) -->
<g id="node6" class="node">
<title>registration (norm)</title>
<ellipse fill="none" stroke="black" cx="123.04" cy="-162" rx="100.18" ry="18"/>
<text text-anchor="middle" x="123.04" y="-158.3" font-family="Times,serif" font-size="14.00">registration (norm)</text>
</g>
<!-- inputnode (utility)&#45;&gt;registration (norm) -->
<g id="edge4" class="edge">
<title>inputnode (utility)&#45;&gt;registration (norm)</title>
<path fill="none" stroke="black" d="M205.67,-287.71C204.54,-268.82 200.55,-238.3 187.04,-216 179.89,-204.2 169.16,-193.82 158.51,-185.45"/>
<polygon fill="black" stroke="black" points="160.55,-182.61 150.44,-179.45 156.37,-188.22 160.55,-182.61"/>
</g>
<!-- split_desc (templateflow)&#45;&gt;registration (norm) -->
<g id="edge6" class="edge">
<title>split_desc (templateflow)&#45;&gt;registration (norm)</title>
<path fill="none" stroke="black" d="M308.52,-217.55C271.45,-206.65 221.7,-192.02 183.07,-180.65"/>
<polygon fill="black" stroke="black" points="183.57,-177.15 172.99,-177.69 181.6,-183.87 183.57,-177.15"/>
</g>
<!-- tf_select (templateflow) -->
<g id="node7" class="node">
<title>tf_select (templateflow)</title>
<ellipse fill="none" stroke="black" cx="361.04" cy="-162" rx="120.48" ry="18"/>
<text text-anchor="middle" x="361.04" y="-158.3" font-family="Times,serif" font-size="14.00">tf_select (templateflow)</text>
</g>
<!-- split_desc (templateflow)&#45;&gt;tf_select (templateflow) -->
<g id="edge5" class="edge">
<title>split_desc (templateflow)&#45;&gt;tf_select (templateflow)</title>
<path fill="none" stroke="black" d="M361.04,-215.7C361.04,-207.98 361.04,-198.71 361.04,-190.11"/>
<polygon fill="black" stroke="black" points="364.54,-190.1 361.04,-180.1 357.54,-190.1 364.54,-190.1"/>
</g>
<!-- fmt_cohort (utility) -->
<g id="node8" class="node">
<title>fmt_cohort (utility)</title>
<ellipse fill="none" stroke="black" cx="598.04" cy="-162" rx="98.58" ry="18"/>
<text text-anchor="middle" x="598.04" y="-158.3" font-family="Times,serif" font-size="14.00">fmt_cohort (utility)</text>
</g>
<!-- split_desc (templateflow)&#45;&gt;fmt_cohort (utility) -->
<g id="edge7" class="edge">
<title>split_desc (templateflow)&#45;&gt;fmt_cohort (utility)</title>
<path fill="none" stroke="black" d="M413.35,-217.55C450.26,-206.65 499.79,-192.02 538.27,-180.65"/>
<polygon fill="black" stroke="black" points="539.71,-183.88 548.3,-177.69 537.72,-177.17 539.71,-183.88"/>
</g>
<!-- trunc_mov (ants)&#45;&gt;registration (norm) -->
<g id="edge8" class="edge">
<title>trunc_mov (ants)&#45;&gt;registration (norm)</title>
<path fill="none" stroke="black" d="M97.27,-216.05C101.14,-208.09 105.84,-198.41 110.17,-189.51"/>
<polygon fill="black" stroke="black" points="113.43,-190.8 114.65,-180.28 107.13,-187.74 113.43,-190.8"/>
</g>
<!-- registration (norm)&#45;&gt;poutputnode (utility) -->
<g id="edge9" class="edge">
<title>registration (norm)&#45;&gt;poutputnode (utility)</title>
<path fill="none" stroke="black" d="M172.73,-146.33C209.76,-135.39 260.53,-120.39 299.87,-108.77"/>
<polygon fill="black" stroke="black" points="301.01,-112.09 309.61,-105.9 299.03,-105.37 301.01,-112.09"/>
</g>
<!-- fmt_cohort (utility)&#45;&gt;poutputnode (utility) -->
<g id="edge10" class="edge">
<title>fmt_cohort (utility)&#45;&gt;poutputnode (utility)</title>
<path fill="none" stroke="black" d="M548.44,-146.41C511.26,-135.48 460.2,-120.46 420.61,-108.82"/>
<polygon fill="black" stroke="black" points="421.39,-105.4 410.81,-105.93 419.42,-112.11 421.39,-105.4"/>
</g>
</g>
</svg>
