<?xml version="1.0" encoding="UTF-8" standalone="no"?>
<!DOCTYPE svg PUBLIC "-//W3C//DTD SVG 1.1//EN"
 "http://www.w3.org/Graphics/SVG/1.1/DTD/svg11.dtd">
<!-- Generated by graphviz version 2.43.0 (0)
 -->
<!-- Title: structs Pages: 1 -->
<svg width="2277pt" height="428pt"
 viewBox="0.00 0.00 2277.30 428.00" xmlns="http://www.w3.org/2000/svg" xmlns:xlink="http://www.w3.org/1999/xlink">
<g id="graph0" class="graph" transform="scale(1 1) rotate(0) translate(4 424)">
<title>structs</title>
<polygon fill="white" stroke="transparent" points="-4,4 -4,-424 2273.3,-424 2273.3,4 -4,4"/>
<!-- surface_derivatives_wfinputnode -->
<g id="node1" class="node">
<title>surface_derivatives_wfinputnode</title>
<polygon fill="none" stroke="black" points="796.69,-304.5 796.69,-419.5 1067.69,-419.5 1067.69,-304.5 796.69,-304.5"/>
<text text-anchor="middle" x="813.69" y="-358.3" font-family="Times,serif" font-size="14.00">IN</text>
<polyline fill="none" stroke="black" points="830.69,-304.5 830.69,-419.5 "/>
<text text-anchor="middle" x="875.19" y="-396.8" font-family="Times,serif" font-size="14.00">inputnode</text>
<polyline fill="none" stroke="black" points="830.69,-381.5 919.69,-381.5 "/>
<text text-anchor="middle" x="875.19" y="-358.8" font-family="Times,serif" font-size="14.00">utility</text>
<polyline fill="none" stroke="black" points="830.69,-343.5 919.69,-343.5 "/>
<text text-anchor="middle" x="875.19" y="-320.3" font-family="Times,serif" font-size="14.00"> </text>
<polyline fill="none" stroke="black" points="919.69,-304.5 919.69,-419.5 "/>
<text text-anchor="middle" x="993.69" y="-404.3" font-family="Times,serif" font-size="14.00">OUT</text>
<polyline fill="none" stroke="black" points="919.69,-396.5 1067.69,-396.5 "/>
<text text-anchor="middle" x="993.69" y="-381.3" font-family="Times,serif" font-size="14.00">fsnative2anat_xfm</text>
<polyline fill="none" stroke="black" points="919.69,-373.5 1067.69,-373.5 "/>
<text text-anchor="middle" x="993.69" y="-358.3" font-family="Times,serif" font-size="14.00">reference</text>
<polyline fill="none" stroke="black" points="919.69,-350.5 1067.69,-350.5 "/>
<text text-anchor="middle" x="993.69" y="-335.3" font-family="Times,serif" font-size="14.00">subject_id</text>
<polyline fill="none" stroke="black" points="919.69,-327.5 1067.69,-327.5 "/>
<text text-anchor="middle" x="993.69" y="-312.3" font-family="Times,serif" font-size="14.00">subjects_dir</text>
</g>
<!-- surface_derivatives_wfgifti_surface_wf -->
<g id="node2" class="node">
<title>surface_derivatives_wfgifti_surface_wf</title>
<polygon fill="none" stroke="black" points="24.19,-164 24.19,-256 534.19,-256 534.19,-164 24.19,-164"/>
<text text-anchor="middle" x="136.19" y="-240.8" font-family="Times,serif" font-size="14.00">IN</text>
<polyline fill="none" stroke="black" points="24.19,-233 248.19,-233 "/>
<text text-anchor="middle" x="136.19" y="-217.8" font-family="Times,serif" font-size="14.00">inputnode.fsnative2anat_xfm</text>
<polyline fill="none" stroke="black" points="24.19,-210 248.19,-210 "/>
<text text-anchor="middle" x="136.19" y="-194.8" font-family="Times,serif" font-size="14.00">inputnode.subject_id</text>
<polyline fill="none" stroke="black" points="24.19,-187 248.19,-187 "/>
<text text-anchor="middle" x="136.19" y="-171.8" font-family="Times,serif" font-size="14.00">inputnode.subjects_dir</text>
<polyline fill="none" stroke="black" points="248.19,-164 248.19,-256 "/>
<text text-anchor="middle" x="312.69" y="-237.3" font-family="Times,serif" font-size="14.00">gifti_surface_wf</text>
<polyline fill="none" stroke="black" points="248.19,-226 377.19,-226 "/>
<text text-anchor="middle" x="312.69" y="-206.8" font-family="Times,serif" font-size="14.00"> </text>
<polyline fill="none" stroke="black" points="248.19,-195 377.19,-195 "/>
<text text-anchor="middle" x="312.69" y="-175.8" font-family="Times,serif" font-size="14.00"> </text>
<polyline fill="none" stroke="black" points="377.19,-164 377.19,-256 "/>
<text text-anchor="middle" x="455.69" y="-229.3" font-family="Times,serif" font-size="14.00">OUT</text>
<polyline fill="none" stroke="black" points="377.19,-210 534.19,-210 "/>
<text text-anchor="middle" x="455.69" y="-183.3" font-family="Times,serif" font-size="14.00">outputnode.inflated</text>
</g>
<!-- surface_derivatives_wfinputnode&#45;&gt;surface_derivatives_wfgifti_surface_wf -->
<g id="edge3" class="edge">
<title>surface_derivatives_wfinputnode:e&#45;&gt;surface_derivatives_wfgifti_surface_wf:w</title>
<path fill="none" stroke="black" d="M1069.19,-385C1105.2,-385 1093.23,-329.88 1068.19,-304 987.46,-220.54 105.62,-339.28 24.19,-256.5 16.63,-248.81 11.62,-234.88 14.65,-227.28"/>
<polygon fill="black" stroke="black" points="16.53,-230.24 23.19,-222 12.85,-224.28 16.53,-230.24"/>
</g>
<!-- surface_derivatives_wfinputnode&#45;&gt;surface_derivatives_wfgifti_surface_wf -->
<g id="edge9" class="edge">
<title>surface_derivatives_wfinputnode:e&#45;&gt;surface_derivatives_wfgifti_surface_wf:w</title>
<path fill="none" stroke="black" d="M1069.19,-339C1084.76,-339 1079.1,-315.1 1068.19,-304 986.78,-221.2 105.13,-339.77 24.19,-256.5 8.9,-240.77 0.19,-209.94 13.46,-200.69"/>
<polygon fill="black" stroke="black" points="14.49,-204.03 23.19,-198 12.62,-197.29 14.49,-204.03"/>
</g>
<!-- surface_derivatives_wfinputnode&#45;&gt;surface_derivatives_wfgifti_surface_wf -->
<g id="edge13" class="edge">
<title>surface_derivatives_wfinputnode:e&#45;&gt;surface_derivatives_wfgifti_surface_wf:w</title>
<path fill="none" stroke="black" d="M1069.19,-316C1074.55,-316 1072.05,-307.71 1068.19,-304 984.55,-223.45 104.93,-339.96 24.19,-256.5 1.66,-233.21 -10.35,-186.37 13.3,-176.75"/>
<polygon fill="black" stroke="black" points="13.96,-180.19 23.19,-175 12.74,-173.3 13.96,-180.19"/>
</g>
<!-- surface_derivatives_wfgifti_morphometrics_wf -->
<g id="node3" class="node">
<title>surface_derivatives_wfgifti_morphometrics_wf</title>
<polygon fill="none" stroke="black" points="552.19,-175.5 552.19,-244.5 1050.19,-244.5 1050.19,-175.5 552.19,-175.5"/>
<text text-anchor="middle" x="641.69" y="-229.3" font-family="Times,serif" font-size="14.00">IN</text>
<polyline fill="none" stroke="black" points="552.19,-221.5 731.19,-221.5 "/>
<text text-anchor="middle" x="641.69" y="-206.3" font-family="Times,serif" font-size="14.00">inputnode.subject_id</text>
<polyline fill="none" stroke="black" points="552.19,-198.5 731.19,-198.5 "/>
<text text-anchor="middle" x="641.69" y="-183.3" font-family="Times,serif" font-size="14.00">inputnode.subjects_dir</text>
<polyline fill="none" stroke="black" points="731.19,-175.5 731.19,-244.5 "/>
<text text-anchor="middle" x="823.69" y="-229.3" font-family="Times,serif" font-size="14.00">gifti_morphometrics_wf</text>
<polyline fill="none" stroke="black" points="731.19,-221.5 916.19,-221.5 "/>
<text text-anchor="middle" x="823.69" y="-206.3" font-family="Times,serif" font-size="14.00"> </text>
<polyline fill="none" stroke="black" points="731.19,-198.5 916.19,-198.5 "/>
<text text-anchor="middle" x="823.69" y="-183.3" font-family="Times,serif" font-size="14.00"> </text>
<polyline fill="none" stroke="black" points="916.19,-175.5 916.19,-244.5 "/>
<text text-anchor="middle" x="983.19" y="-223.8" font-family="Times,serif" font-size="14.00">OUT</text>
<polyline fill="none" stroke="black" points="916.19,-210.5 1050.19,-210.5 "/>
<text text-anchor="middle" x="983.19" y="-189.3" font-family="Times,serif" font-size="14.00">outputnode.curv</text>
</g>
<!-- surface_derivatives_wfinputnode&#45;&gt;surface_derivatives_wfgifti_morphometrics_wf -->
<g id="edge8" class="edge">
<title>surface_derivatives_wfinputnode:e&#45;&gt;surface_derivatives_wfgifti_morphometrics_wf:w</title>
<path fill="none" stroke="black" d="M1069.19,-339C1084.76,-339 1078.72,-315.46 1068.19,-304 912.08,-133.97 708.31,-415.03 552.19,-245 548.86,-241.37 546.23,-228.32 546.72,-219.22"/>
<polygon fill="black" stroke="black" points="549.98,-220.52 551.19,-210 543.68,-217.47 549.98,-220.52"/>
</g>
<!-- surface_derivatives_wfinputnode&#45;&gt;surface_derivatives_wfgifti_morphometrics_wf -->
<g id="edge12" class="edge">
<title>surface_derivatives_wfinputnode:e&#45;&gt;surface_derivatives_wfgifti_morphometrics_wf:w</title>
<path fill="none" stroke="black" d="M1069.19,-316C1074.55,-316 1071.92,-307.84 1068.19,-304 907.5,-138.29 707.34,-415.91 552.19,-245 545.7,-237.84 541.13,-208.8 544.69,-194.72"/>
<polygon fill="black" stroke="black" points="547.43,-196.9 551.19,-187 542.08,-192.4 547.43,-196.9"/>
</g>
<!-- surface_derivatives_wfsegs_to_native_wf_aseg -->
<g id="node4" class="node">
<title>surface_derivatives_wfsegs_to_native_wf_aseg</title>
<polygon fill="none" stroke="black" points="1068.19,-152.5 1068.19,-267.5 1632.19,-267.5 1632.19,-152.5 1068.19,-152.5"/>
<text text-anchor="middle" x="1180.19" y="-252.3" font-family="Times,serif" font-size="14.00">IN</text>
<polyline fill="none" stroke="black" points="1068.19,-244.5 1292.19,-244.5 "/>
<text text-anchor="middle" x="1180.19" y="-229.3" font-family="Times,serif" font-size="14.00">inputnode.fsnative2anat_xfm</text>
<polyline fill="none" stroke="black" points="1068.19,-221.5 1292.19,-221.5 "/>
<text text-anchor="middle" x="1180.19" y="-206.3" font-family="Times,serif" font-size="14.00">inputnode.in_file</text>
<polyline fill="none" stroke="black" points="1068.19,-198.5 1292.19,-198.5 "/>
<text text-anchor="middle" x="1180.19" y="-183.3" font-family="Times,serif" font-size="14.00">inputnode.subject_id</text>
<polyline fill="none" stroke="black" points="1068.19,-175.5 1292.19,-175.5 "/>
<text text-anchor="middle" x="1180.19" y="-160.3" font-family="Times,serif" font-size="14.00">inputnode.subjects_dir</text>
<polyline fill="none" stroke="black" points="1292.19,-152.5 1292.19,-267.5 "/>
<text text-anchor="middle" x="1384.69" y="-244.8" font-family="Times,serif" font-size="14.00">segs_to_native_wf_aseg</text>
<polyline fill="none" stroke="black" points="1292.19,-229.5 1477.19,-229.5 "/>
<text text-anchor="middle" x="1384.69" y="-206.8" font-family="Times,serif" font-size="14.00"> </text>
<polyline fill="none" stroke="black" points="1292.19,-191.5 1477.19,-191.5 "/>
<text text-anchor="middle" x="1384.69" y="-168.3" font-family="Times,serif" font-size="14.00"> </text>
<polyline fill="none" stroke="black" points="1477.19,-152.5 1477.19,-267.5 "/>
<text text-anchor="middle" x="1554.69" y="-235.3" font-family="Times,serif" font-size="14.00">OUT</text>
<polyline fill="none" stroke="black" points="1477.19,-210.5 1632.19,-210.5 "/>
<text text-anchor="middle" x="1554.69" y="-177.8" font-family="Times,serif" font-size="14.00">outputnode.out_file</text>
</g>
<!-- surface_derivatives_wfinputnode&#45;&gt;surface_derivatives_wfsegs_to_native_wf_aseg -->
<g id="edge5" class="edge">
<title>surface_derivatives_wfinputnode:e&#45;&gt;surface_derivatives_wfsegs_to_native_wf_aseg:w</title>
<path fill="none" stroke="black" d="M1069.19,-385C1105.2,-385 1068.67,-340 1068.19,-304 1068.03,-291.92 1058.28,-256.72 1060.8,-240.88"/>
<polygon fill="black" stroke="black" points="1063.61,-242.97 1067.19,-233 1058.18,-238.56 1063.61,-242.97"/>
</g>
<!-- surface_derivatives_wfinputnode&#45;&gt;surface_derivatives_wfsegs_to_native_wf_aseg -->
<g id="edge7" class="edge">
<title>surface_derivatives_wfinputnode:e&#45;&gt;surface_derivatives_wfsegs_to_native_wf_aseg:w</title>
<path fill="none" stroke="black" d="M1069.19,-362C1083.58,-362 1059.77,-251.78 1062.81,-219.05"/>
<polygon fill="black" stroke="black" points="1065.99,-220.53 1067.19,-210 1059.69,-217.47 1065.99,-220.53"/>
</g>
<!-- surface_derivatives_wfinputnode&#45;&gt;surface_derivatives_wfsegs_to_native_wf_aseg -->
<g id="edge11" class="edge">
<title>surface_derivatives_wfinputnode:e&#45;&gt;surface_derivatives_wfsegs_to_native_wf_aseg:w</title>
<path fill="none" stroke="black" d="M1069.19,-339C1100.75,-339 1068.61,-299.56 1068.19,-268 1068.01,-253.8 1056.28,-211.58 1060.19,-194.4"/>
<polygon fill="black" stroke="black" points="1062.86,-196.67 1067.19,-187 1057.78,-191.85 1062.86,-196.67"/>
</g>
<!-- surface_derivatives_wfinputnode&#45;&gt;surface_derivatives_wfsegs_to_native_wf_aseg -->
<g id="edge15" class="edge">
<title>surface_derivatives_wfinputnode:e&#45;&gt;surface_derivatives_wfsegs_to_native_wf_aseg:w</title>
<path fill="none" stroke="black" d="M1069.19,-316C1090.53,-316 1068.52,-289.34 1068.19,-268 1068.05,-258.7 1060.01,-197.03 1062.89,-173.29"/>
<polygon fill="black" stroke="black" points="1066.17,-174.55 1067.19,-164 1059.82,-171.6 1066.17,-174.55"/>
</g>
<!-- surface_derivatives_wfsegs_to_native_wf_aparc_aseg -->
<g id="node5" class="node">
<title>surface_derivatives_wfsegs_to_native_wf_aparc_aseg</title>
<polygon fill="none" stroke="black" points="1650.19,-152.5 1650.19,-267.5 2260.19,-267.5 2260.19,-152.5 1650.19,-152.5"/>
<text text-anchor="middle" x="1762.19" y="-252.3" font-family="Times,serif" font-size="14.00">IN</text>
<polyline fill="none" stroke="black" points="1650.19,-244.5 1874.19,-244.5 "/>
<text text-anchor="middle" x="1762.19" y="-229.3" font-family="Times,serif" font-size="14.00">inputnode.fsnative2anat_xfm</text>
<polyline fill="none" stroke="black" points="1650.19,-221.5 1874.19,-221.5 "/>
<text text-anchor="middle" x="1762.19" y="-206.3" font-family="Times,serif" font-size="14.00">inputnode.in_file</text>
<polyline fill="none" stroke="black" points="1650.19,-198.5 1874.19,-198.5 "/>
<text text-anchor="middle" x="1762.19" y="-183.3" font-family="Times,serif" font-size="14.00">inputnode.subject_id</text>
<polyline fill="none" stroke="black" points="1650.19,-175.5 1874.19,-175.5 "/>
<text text-anchor="middle" x="1762.19" y="-160.3" font-family="Times,serif" font-size="14.00">inputnode.subjects_dir</text>
<polyline fill="none" stroke="black" points="1874.19,-152.5 1874.19,-267.5 "/>
<text text-anchor="middle" x="1989.69" y="-244.8" font-family="Times,serif" font-size="14.00">segs_to_native_wf_aparc_aseg</text>
<polyline fill="none" stroke="black" points="1874.19,-229.5 2105.19,-229.5 "/>
<text text-anchor="middle" x="1989.69" y="-206.8" font-family="Times,serif" font-size="14.00"> </text>
<polyline fill="none" stroke="black" points="1874.19,-191.5 2105.19,-191.5 "/>
<text text-anchor="middle" x="1989.69" y="-168.3" font-family="Times,serif" font-size="14.00"> </text>
<polyline fill="none" stroke="black" points="2105.19,-152.5 2105.19,-267.5 "/>
<text text-anchor="middle" x="2182.69" y="-235.3" font-family="Times,serif" font-size="14.00">OUT</text>
<polyline fill="none" stroke="black" points="2105.19,-210.5 2260.19,-210.5 "/>
<text text-anchor="middle" x="2182.69" y="-177.8" font-family="Times,serif" font-size="14.00">outputnode.out_file</text>
</g>
<!-- surface_derivatives_wfinputnode&#45;&gt;surface_derivatives_wfsegs_to_native_wf_aparc_aseg -->
<g id="edge4" class="edge">
<title>surface_derivatives_wfinputnode:e&#45;&gt;surface_derivatives_wfsegs_to_native_wf_aparc_aseg:w</title>
<path fill="none" stroke="black" d="M1069.19,-385C1198.94,-385 1548.41,-358.68 1641.19,-268 1648.5,-260.86 1643.18,-248.5 1642.61,-240.54"/>
<polygon fill="black" stroke="black" points="1645.25,-242.84 1649.19,-233 1639.98,-238.23 1645.25,-242.84"/>
</g>
<!-- surface_derivatives_wfinputnode&#45;&gt;surface_derivatives_wfsegs_to_native_wf_aparc_aseg -->
<g id="edge6" class="edge">
<title>surface_derivatives_wfinputnode:e&#45;&gt;surface_derivatives_wfsegs_to_native_wf_aparc_aseg:w</title>
<path fill="none" stroke="black" d="M1069.19,-362C1198.01,-362 1551.29,-360.25 1641.19,-268 1647.86,-261.16 1642.03,-233.08 1643.62,-218.65"/>
<polygon fill="black" stroke="black" points="1646.72,-220.3 1649.19,-210 1640.84,-216.51 1646.72,-220.3"/>
</g>
<!-- surface_derivatives_wfinputnode&#45;&gt;surface_derivatives_wfsegs_to_native_wf_aparc_aseg -->
<g id="edge10" class="edge">
<title>surface_derivatives_wfinputnode:e&#45;&gt;surface_derivatives_wfsegs_to_native_wf_aparc_aseg:w</title>
<path fill="none" stroke="black" d="M1069.19,-339C1133.24,-339 1596.48,-313.85 1641.19,-268 1651.21,-257.73 1639,-212.82 1642.53,-194.66"/>
<polygon fill="black" stroke="black" points="1645.27,-196.84 1649.19,-187 1639.99,-192.25 1645.27,-196.84"/>
</g>
<!-- surface_derivatives_wfinputnode&#45;&gt;surface_derivatives_wfsegs_to_native_wf_aparc_aseg -->
<g id="edge14" class="edge">
<title>surface_derivatives_wfinputnode:e&#45;&gt;surface_derivatives_wfsegs_to_native_wf_aparc_aseg:w</title>
<path fill="none" stroke="black" d="M1069.19,-316C1132.97,-316 1596.25,-313.25 1641.19,-268 1647.8,-261.35 1641.37,-197.46 1644.8,-173.24"/>
<polygon fill="black" stroke="black" points="1648.06,-174.53 1649.19,-164 1641.74,-171.53 1648.06,-174.53"/>
</g>
<!-- surface_derivatives_wfoutputnode -->
<g id="node6" class="node">
<title>surface_derivatives_wfoutputnode</title>
<polygon fill="none" stroke="black" points="1341.69,-0.5 1341.69,-115.5 1574.69,-115.5 1574.69,-0.5 1341.69,-0.5"/>
<text text-anchor="middle" x="1384.69" y="-100.3" font-family="Times,serif" font-size="14.00">IN</text>
<polyline fill="none" stroke="black" points="1341.69,-92.5 1427.69,-92.5 "/>
<text text-anchor="middle" x="1384.69" y="-77.3" font-family="Times,serif" font-size="14.00">curv</text>
<polyline fill="none" stroke="black" points="1341.69,-69.5 1427.69,-69.5 "/>
<text text-anchor="middle" x="1384.69" y="-54.3" font-family="Times,serif" font-size="14.00">inflated</text>
<polyline fill="none" stroke="black" points="1341.69,-46.5 1427.69,-46.5 "/>
<text text-anchor="middle" x="1384.69" y="-31.3" font-family="Times,serif" font-size="14.00">out_aparc</text>
<polyline fill="none" stroke="black" points="1341.69,-23.5 1427.69,-23.5 "/>
<text text-anchor="middle" x="1384.69" y="-8.3" font-family="Times,serif" font-size="14.00">out_aseg</text>
<polyline fill="none" stroke="black" points="1427.69,-0.5 1427.69,-115.5 "/>
<text text-anchor="middle" x="1476.69" y="-92.8" font-family="Times,serif" font-size="14.00">outputnode</text>
<polyline fill="none" stroke="black" points="1427.69,-77.5 1525.69,-77.5 "/>
<text text-anchor="middle" x="1476.69" y="-54.8" font-family="Times,serif" font-size="14.00">utility</text>
<polyline fill="none" stroke="black" points="1427.69,-39.5 1525.69,-39.5 "/>
<text text-anchor="middle" x="1476.69" y="-16.3" font-family="Times,serif" font-size="14.00"> </text>
<polyline fill="none" stroke="black" points="1525.69,-0.5 1525.69,-115.5 "/>
<text text-anchor="middle" x="1550.19" y="-54.3" font-family="Times,serif" font-size="14.00">OUT</text>
</g>
<!-- surface_derivatives_wfgifti_surface_wf&#45;&gt;surface_derivatives_wfoutputnode -->
<g id="edge2" class="edge">
<title>surface_derivatives_wfgifti_surface_wf:e&#45;&gt;surface_derivatives_wfoutputnode:w</title>
<path fill="none" stroke="black" d="M535.19,-187C551.15,-187 531.32,-162.66 543.19,-152 607.4,-94.34 1210.28,-60.24 1329.89,-58.11"/>
<polygon fill="black" stroke="black" points="1330.23,-61.6 1340.19,-58 1330.16,-54.6 1330.23,-61.6"/>
</g>
<!-- surface_derivatives_wfgifti_morphometrics_wf&#45;&gt;surface_derivatives_wfoutputnode -->
<g id="edge1" class="edge">
<title>surface_derivatives_wfgifti_morphometrics_wf:e&#45;&gt;surface_derivatives_wfoutputnode:w</title>
<path fill="none" stroke="black" d="M1051.19,-193C1069.76,-193 1046.43,-165.48 1059.19,-152 1101.31,-107.51 1259.26,-83.42 1330.01,-81.17"/>
<polygon fill="black" stroke="black" points="1330.25,-84.67 1340.19,-81 1330.14,-77.67 1330.25,-84.67"/>
</g>
<!-- surface_derivatives_wfsegs_to_native_wf_aseg&#45;&gt;surface_derivatives_wfoutputnode -->
<g id="edge17" class="edge">
<title>surface_derivatives_wfsegs_to_native_wf_aseg:e&#45;&gt;surface_derivatives_wfoutputnode:w</title>
<path fill="none" stroke="black" d="M1633.19,-181C1646.09,-181 1640.9,-161.51 1632.19,-152 1544.22,-55.86 1427.97,-213.23 1341.19,-116 1312.94,-84.34 1296.76,-23.17 1330.06,-13.35"/>
<polygon fill="black" stroke="black" points="1330.74,-16.79 1340.19,-12 1329.82,-9.85 1330.74,-16.79"/>
</g>
<!-- surface_derivatives_wfsegs_to_native_wf_aparc_aseg&#45;&gt;surface_derivatives_wfoutputnode -->
<g id="edge16" class="edge">
<title>surface_derivatives_wfsegs_to_native_wf_aparc_aseg:e&#45;&gt;surface_derivatives_wfoutputnode:w</title>
<path fill="none" stroke="black" d="M2261.19,-181C2274.09,-181 2269.29,-161.14 2260.19,-152 2188.1,-79.57 1412.48,-189.22 1341.19,-116 1318.83,-93.02 1306.95,-46.72 1330.05,-36.87"/>
<polygon fill="black" stroke="black" points="1330.99,-40.26 1340.19,-35 1329.72,-33.37 1330.99,-40.26"/>
</g>
</g>
</svg>
