<?xml version="1.0" encoding="UTF-8" standalone="no"?>
<!DOCTYPE svg PUBLIC "-//W3C//DTD SVG 1.1//EN"
 "http://www.w3.org/Graphics/SVG/1.1/DTD/svg11.dtd">
<!-- Generated by graphviz version 2.40.1 (20161225.0304)
 -->
<!-- Title: structs Pages: 1 -->
<svg width="1557pt" height="534pt"
 viewBox="0.00 0.00 1556.50 534.00" xmlns="http://www.w3.org/2000/svg" xmlns:xlink="http://www.w3.org/1999/xlink">
<g id="graph0" class="graph" transform="scale(1 1) rotate(0) translate(4 530)">
<title>structs</title>
<polygon fill="#ffffff" stroke="transparent" points="-4,4 -4,-530 1552.5,-530 1552.5,4 -4,4"/>
<!-- single_subject_wfabout -->
<g id="node1" class="node">
<title>single_subject_wfabout</title>
<polygon fill="none" stroke="#000000" points="0,-433.5 0,-502.5 196,-502.5 196,-433.5 0,-433.5"/>
<text text-anchor="middle" x="17.5" y="-464.3" font-family="Times,serif" font-size="14.00" fill="#000000">IN</text>
<polyline fill="none" stroke="#000000" points="35,-433.5 35,-502.5 "/>
<text text-anchor="middle" x="69.5" y="-487.3" font-family="Times,serif" font-size="14.00" fill="#000000">about</text>
<polyline fill="none" stroke="#000000" points="35,-479.5 104,-479.5 "/>
<text text-anchor="middle" x="69.5" y="-464.3" font-family="Times,serif" font-size="14.00" fill="#000000">reports</text>
<polyline fill="none" stroke="#000000" points="35,-456.5 104,-456.5 "/>
<text text-anchor="middle" x="69.5" y="-441.3" font-family="Times,serif" font-size="14.00" fill="#000000"> </text>
<polyline fill="none" stroke="#000000" points="104,-433.5 104,-502.5 "/>
<text text-anchor="middle" x="150" y="-481.8" font-family="Times,serif" font-size="14.00" fill="#000000">OUT</text>
<polyline fill="none" stroke="#000000" points="104,-468.5 196,-468.5 "/>
<text text-anchor="middle" x="150" y="-447.3" font-family="Times,serif" font-size="14.00" fill="#000000">out_report</text>
</g>
<!-- single_subject_wfds_report_about -->
<g id="node3" class="node">
<title>single_subject_wfds_report_about</title>
<polygon fill="none" stroke="#000000" points="196.5,-304.5 196.5,-373.5 475.5,-373.5 475.5,-304.5 196.5,-304.5"/>
<text text-anchor="middle" x="244" y="-358.3" font-family="Times,serif" font-size="14.00" fill="#000000">IN</text>
<polyline fill="none" stroke="#000000" points="196.5,-350.5 291.5,-350.5 "/>
<text text-anchor="middle" x="244" y="-335.3" font-family="Times,serif" font-size="14.00" fill="#000000">in_file</text>
<polyline fill="none" stroke="#000000" points="196.5,-327.5 291.5,-327.5 "/>
<text text-anchor="middle" x="244" y="-312.3" font-family="Times,serif" font-size="14.00" fill="#000000">source_file</text>
<polyline fill="none" stroke="#000000" points="291.5,-304.5 291.5,-373.5 "/>
<text text-anchor="middle" x="358.5" y="-358.3" font-family="Times,serif" font-size="14.00" fill="#000000">ds_report_about</text>
<polyline fill="none" stroke="#000000" points="291.5,-350.5 425.5,-350.5 "/>
<text text-anchor="middle" x="358.5" y="-335.3" font-family="Times,serif" font-size="14.00" fill="#000000"> </text>
<polyline fill="none" stroke="#000000" points="291.5,-327.5 425.5,-327.5 "/>
<text text-anchor="middle" x="358.5" y="-312.3" font-family="Times,serif" font-size="14.00" fill="#000000"> </text>
<polyline fill="none" stroke="#000000" points="425.5,-304.5 425.5,-373.5 "/>
<text text-anchor="middle" x="450.5" y="-335.3" font-family="Times,serif" font-size="14.00" fill="#000000">OUT</text>
</g>
<!-- single_subject_wfabout&#45;&gt;single_subject_wfds_report_about -->
<g id="edge1" class="edge">
<title>single_subject_wfabout:e&#45;&gt;single_subject_wfds_report_about:w</title>
<path fill="none" stroke="#000000" d="M196,-451C241.3056,-451 162.9057,-358.2209 185.9829,-341.5497"/>
<polygon fill="#000000" stroke="#000000" points="187.1724,-344.8586 196,-339 185.4456,-338.0749 187.1724,-344.8586"/>
</g>
<!-- single_subject_wfbidssrc -->
<g id="node2" class="node">
<title>single_subject_wfbidssrc</title>
<polygon fill="none" stroke="#000000" points="900,-410.5 900,-525.5 1054,-525.5 1054,-410.5 900,-410.5"/>
<text text-anchor="middle" x="917.5" y="-464.3" font-family="Times,serif" font-size="14.00" fill="#000000">IN</text>
<polyline fill="none" stroke="#000000" points="935,-410.5 935,-525.5 "/>
<text text-anchor="middle" x="969.5" y="-502.8" font-family="Times,serif" font-size="14.00" fill="#000000">bidssrc</text>
<polyline fill="none" stroke="#000000" points="935,-487.5 1004,-487.5 "/>
<text text-anchor="middle" x="969.5" y="-464.8" font-family="Times,serif" font-size="14.00" fill="#000000">bids</text>
<polyline fill="none" stroke="#000000" points="935,-449.5 1004,-449.5 "/>
<text text-anchor="middle" x="969.5" y="-426.3" font-family="Times,serif" font-size="14.00" fill="#000000"> </text>
<polyline fill="none" stroke="#000000" points="1004,-410.5 1004,-525.5 "/>
<text text-anchor="middle" x="1029" y="-510.3" font-family="Times,serif" font-size="14.00" fill="#000000">OUT</text>
<polyline fill="none" stroke="#000000" points="1004,-502.5 1054,-502.5 "/>
<text text-anchor="middle" x="1029" y="-487.3" font-family="Times,serif" font-size="14.00" fill="#000000">flair</text>
<polyline fill="none" stroke="#000000" points="1004,-479.5 1054,-479.5 "/>
<text text-anchor="middle" x="1029" y="-464.3" font-family="Times,serif" font-size="14.00" fill="#000000">roi</text>
<polyline fill="none" stroke="#000000" points="1004,-456.5 1054,-456.5 "/>
<text text-anchor="middle" x="1029" y="-441.3" font-family="Times,serif" font-size="14.00" fill="#000000">t1w</text>
<polyline fill="none" stroke="#000000" points="1004,-433.5 1054,-433.5 "/>
<text text-anchor="middle" x="1029" y="-418.3" font-family="Times,serif" font-size="14.00" fill="#000000">t2w</text>
</g>
<!-- single_subject_wfbidssrc&#45;&gt;single_subject_wfds_report_about -->
<g id="edge8" class="edge">
<title>single_subject_wfbidssrc:e&#45;&gt;single_subject_wfds_report_about:w</title>
<path fill="none" stroke="#000000" d="M1054,-445C1069.5556,-445 1064.7664,-421.2276 1054,-410 987.9592,-341.1301 262.0408,-442.8699 196,-374 180.9462,-358.3014 172.9441,-327.8032 186.2951,-318.6557"/>
<polygon fill="#000000" stroke="#000000" points="187.2785,-322.0154 196,-316 185.4308,-315.2637 187.2785,-322.0154"/>
</g>
<!-- single_subject_wfbids_info -->
<g id="node4" class="node">
<title>single_subject_wfbids_info</title>
<polygon fill="none" stroke="#000000" points="816,-304.5 816,-373.5 1026,-373.5 1026,-304.5 816,-304.5"/>
<text text-anchor="middle" x="846" y="-352.8" font-family="Times,serif" font-size="14.00" fill="#000000">IN</text>
<polyline fill="none" stroke="#000000" points="816,-339.5 876,-339.5 "/>
<text text-anchor="middle" x="846" y="-318.3" font-family="Times,serif" font-size="14.00" fill="#000000">in_file</text>
<polyline fill="none" stroke="#000000" points="876,-304.5 876,-373.5 "/>
<text text-anchor="middle" x="916.5" y="-358.3" font-family="Times,serif" font-size="14.00" fill="#000000">bids_info</text>
<polyline fill="none" stroke="#000000" points="876,-350.5 957,-350.5 "/>
<text text-anchor="middle" x="916.5" y="-335.3" font-family="Times,serif" font-size="14.00" fill="#000000">bids</text>
<polyline fill="none" stroke="#000000" points="876,-327.5 957,-327.5 "/>
<text text-anchor="middle" x="916.5" y="-312.3" font-family="Times,serif" font-size="14.00" fill="#000000"> </text>
<polyline fill="none" stroke="#000000" points="957,-304.5 957,-373.5 "/>
<text text-anchor="middle" x="991.5" y="-352.8" font-family="Times,serif" font-size="14.00" fill="#000000">OUT</text>
<polyline fill="none" stroke="#000000" points="957,-339.5 1026,-339.5 "/>
<text text-anchor="middle" x="991.5" y="-318.3" font-family="Times,serif" font-size="14.00" fill="#000000">subject</text>
</g>
<!-- single_subject_wfbidssrc&#45;&gt;single_subject_wfbids_info -->
<g id="edge7" class="edge">
<title>single_subject_wfbidssrc:e&#45;&gt;single_subject_wfbids_info:w</title>
<path fill="none" stroke="#000000" d="M1054,-445C1069.5556,-445 1064.1436,-421.7933 1054,-410 984.2388,-328.8932 885.7612,-455.1068 816,-374 810.5252,-367.6348 806.9059,-343.0686 809.768,-330.1099"/>
<polygon fill="#000000" stroke="#000000" points="812.682,-332.0619 816,-322 807.1315,-327.7966 812.682,-332.0619"/>
</g>
<!-- single_subject_wfsummary -->
<g id="node6" class="node">
<title>single_subject_wfsummary</title>
<polygon fill="none" stroke="#000000" points="756.5,-129.5 756.5,-244.5 1035.5,-244.5 1035.5,-129.5 756.5,-129.5"/>
<text text-anchor="middle" x="808.5" y="-229.3" font-family="Times,serif" font-size="14.00" fill="#000000">IN</text>
<polyline fill="none" stroke="#000000" points="756.5,-221.5 860.5,-221.5 "/>
<text text-anchor="middle" x="808.5" y="-206.3" font-family="Times,serif" font-size="14.00" fill="#000000">subject_id</text>
<polyline fill="none" stroke="#000000" points="756.5,-198.5 860.5,-198.5 "/>
<text text-anchor="middle" x="808.5" y="-183.3" font-family="Times,serif" font-size="14.00" fill="#000000">subjects_dir</text>
<polyline fill="none" stroke="#000000" points="756.5,-175.5 860.5,-175.5 "/>
<text text-anchor="middle" x="808.5" y="-160.3" font-family="Times,serif" font-size="14.00" fill="#000000">t1w</text>
<polyline fill="none" stroke="#000000" points="756.5,-152.5 860.5,-152.5 "/>
<text text-anchor="middle" x="808.5" y="-137.3" font-family="Times,serif" font-size="14.00" fill="#000000">t2w</text>
<polyline fill="none" stroke="#000000" points="860.5,-129.5 860.5,-244.5 "/>
<text text-anchor="middle" x="902" y="-221.8" font-family="Times,serif" font-size="14.00" fill="#000000">summary</text>
<polyline fill="none" stroke="#000000" points="860.5,-206.5 943.5,-206.5 "/>
<text text-anchor="middle" x="902" y="-183.8" font-family="Times,serif" font-size="14.00" fill="#000000">reports</text>
<polyline fill="none" stroke="#000000" points="860.5,-168.5 943.5,-168.5 "/>
<text text-anchor="middle" x="902" y="-145.3" font-family="Times,serif" font-size="14.00" fill="#000000"> </text>
<polyline fill="none" stroke="#000000" points="943.5,-129.5 943.5,-244.5 "/>
<text text-anchor="middle" x="989.5" y="-212.3" font-family="Times,serif" font-size="14.00" fill="#000000">OUT</text>
<polyline fill="none" stroke="#000000" points="943.5,-187.5 1035.5,-187.5 "/>
<text text-anchor="middle" x="989.5" y="-154.8" font-family="Times,serif" font-size="14.00" fill="#000000">out_report</text>
</g>
<!-- single_subject_wfbidssrc&#45;&gt;single_subject_wfsummary -->
<g id="edge10" class="edge">
<title>single_subject_wfbidssrc:e&#45;&gt;single_subject_wfsummary:w</title>
<path fill="none" stroke="#000000" d="M1054,-445C1069.5556,-445 1064.6173,-421.3688 1054,-410 974.0322,-324.372 607.9678,-459.628 528,-374 455.7905,-296.6795 627.0264,-171.3466 745.7594,-164.3097"/>
<polygon fill="#000000" stroke="#000000" points="746.1104,-167.8008 756,-164 745.8987,-160.804 746.1104,-167.8008"/>
</g>
<!-- single_subject_wfbidssrc&#45;&gt;single_subject_wfsummary -->
<g id="edge12" class="edge">
<title>single_subject_wfbidssrc:e&#45;&gt;single_subject_wfsummary:w</title>
<path fill="none" stroke="#000000" d="M1054,-422C1059.3333,-422 1057.6313,-413.9061 1054,-410 979.2081,-329.5475 635.7919,-454.4525 561,-374 497.7292,-305.9405 649.1012,-152.003 745.9361,-141.5595"/>
<polygon fill="#000000" stroke="#000000" points="746.2097,-145.0498 756,-141 745.8211,-138.0605 746.2097,-145.0498"/>
</g>
<!-- single_subject_wfds_report_summary -->
<g id="node7" class="node">
<title>single_subject_wfds_report_summary</title>
<polygon fill="none" stroke="#000000" points="1243.5,-.5 1243.5,-69.5 1548.5,-69.5 1548.5,-.5 1243.5,-.5"/>
<text text-anchor="middle" x="1291" y="-54.3" font-family="Times,serif" font-size="14.00" fill="#000000">IN</text>
<polyline fill="none" stroke="#000000" points="1243.5,-46.5 1338.5,-46.5 "/>
<text text-anchor="middle" x="1291" y="-31.3" font-family="Times,serif" font-size="14.00" fill="#000000">in_file</text>
<polyline fill="none" stroke="#000000" points="1243.5,-23.5 1338.5,-23.5 "/>
<text text-anchor="middle" x="1291" y="-8.3" font-family="Times,serif" font-size="14.00" fill="#000000">source_file</text>
<polyline fill="none" stroke="#000000" points="1338.5,-.5 1338.5,-69.5 "/>
<text text-anchor="middle" x="1418.5" y="-54.3" font-family="Times,serif" font-size="14.00" fill="#000000">ds_report_summary</text>
<polyline fill="none" stroke="#000000" points="1338.5,-46.5 1498.5,-46.5 "/>
<text text-anchor="middle" x="1418.5" y="-31.3" font-family="Times,serif" font-size="14.00" fill="#000000"> </text>
<polyline fill="none" stroke="#000000" points="1338.5,-23.5 1498.5,-23.5 "/>
<text text-anchor="middle" x="1418.5" y="-8.3" font-family="Times,serif" font-size="14.00" fill="#000000"> </text>
<polyline fill="none" stroke="#000000" points="1498.5,-.5 1498.5,-69.5 "/>
<text text-anchor="middle" x="1523.5" y="-31.3" font-family="Times,serif" font-size="14.00" fill="#000000">OUT</text>
</g>
<!-- single_subject_wfbidssrc&#45;&gt;single_subject_wfds_report_summary -->
<g id="edge9" class="edge">
<title>single_subject_wfbidssrc:e&#45;&gt;single_subject_wfds_report_summary:w</title>
<path fill="none" stroke="#000000" d="M1054,-445C1239.1035,-445 1331.7482,-424.2447 1431,-268 1469.6061,-207.2253 1476.875,-161.4931 1431,-106 1376.7951,-40.4305 1297.2049,-135.5695 1243,-70 1229.2702,-53.3917 1220.4816,-24.0205 1233.0254,-14.8301"/>
<polygon fill="#000000" stroke="#000000" points="1234.3351,-18.0967 1243,-12 1232.4244,-11.3625 1234.3351,-18.0967"/>
</g>
<!-- single_subject_wfanat_preproc_wf -->
<g id="node8" class="node">
<title>single_subject_wfanat_preproc_wf</title>
<polygon fill="none" stroke="#000000" points="1054,-106.5 1054,-267.5 1422,-267.5 1422,-106.5 1054,-106.5"/>
<text text-anchor="middle" x="1144.5" y="-252.3" font-family="Times,serif" font-size="14.00" fill="#000000">IN</text>
<polyline fill="none" stroke="#000000" points="1054,-244.5 1235,-244.5 "/>
<text text-anchor="middle" x="1144.5" y="-229.3" font-family="Times,serif" font-size="14.00" fill="#000000">inputnode.flair</text>
<polyline fill="none" stroke="#000000" points="1054,-221.5 1235,-221.5 "/>
<text text-anchor="middle" x="1144.5" y="-206.3" font-family="Times,serif" font-size="14.00" fill="#000000">inputnode.roi</text>
<polyline fill="none" stroke="#000000" points="1054,-198.5 1235,-198.5 "/>
<text text-anchor="middle" x="1144.5" y="-183.3" font-family="Times,serif" font-size="14.00" fill="#000000">inputnode.subject_id</text>
<polyline fill="none" stroke="#000000" points="1054,-175.5 1235,-175.5 "/>
<text text-anchor="middle" x="1144.5" y="-160.3" font-family="Times,serif" font-size="14.00" fill="#000000">inputnode.subjects_dir</text>
<polyline fill="none" stroke="#000000" points="1054,-152.5 1235,-152.5 "/>
<text text-anchor="middle" x="1144.5" y="-137.3" font-family="Times,serif" font-size="14.00" fill="#000000">inputnode.t1w</text>
<polyline fill="none" stroke="#000000" points="1054,-129.5 1235,-129.5 "/>
<text text-anchor="middle" x="1144.5" y="-114.3" font-family="Times,serif" font-size="14.00" fill="#000000">inputnode.t2w</text>
<polyline fill="none" stroke="#000000" points="1235,-106.5 1235,-267.5 "/>
<text text-anchor="middle" x="1303.5" y="-237.3" font-family="Times,serif" font-size="14.00" fill="#000000">anat_preproc_wf</text>
<polyline fill="none" stroke="#000000" points="1235,-214.5 1372,-214.5 "/>
<text text-anchor="middle" x="1303.5" y="-183.8" font-family="Times,serif" font-size="14.00" fill="#000000"> </text>
<polyline fill="none" stroke="#000000" points="1235,-160.5 1372,-160.5 "/>
<text text-anchor="middle" x="1303.5" y="-129.8" font-family="Times,serif" font-size="14.00" fill="#000000"> </text>
<polyline fill="none" stroke="#000000" points="1372,-106.5 1372,-267.5 "/>
<text text-anchor="middle" x="1397" y="-183.3" font-family="Times,serif" font-size="14.00" fill="#000000">OUT</text>
</g>
<!-- single_subject_wfbidssrc&#45;&gt;single_subject_wfanat_preproc_wf -->
<g id="edge4" class="edge">
<title>single_subject_wfbidssrc:e&#45;&gt;single_subject_wfanat_preproc_wf:w</title>
<path fill="none" stroke="#000000" d="M1054,-491C1079.6432,-491 1036.4704,-284.552 1047.5978,-241.0043"/>
<polygon fill="#000000" stroke="#000000" points="1050.487,-242.9955 1054,-233 1045.0205,-238.6231 1050.487,-242.9955"/>
</g>
<!-- single_subject_wfbidssrc&#45;&gt;single_subject_wfanat_preproc_wf -->
<g id="edge5" class="edge">
<title>single_subject_wfbidssrc:e&#45;&gt;single_subject_wfanat_preproc_wf:w</title>
<path fill="none" stroke="#000000" d="M1054,-468C1127.0838,-468 1077.7067,-376.1401 1066,-304 1063.2984,-287.3523 1056.7016,-284.6477 1054,-268 1052.4838,-258.6569 1046.2435,-231.7567 1048.1399,-218.1252"/>
<polygon fill="#000000" stroke="#000000" points="1050.9891,-220.158 1054,-210 1045.3117,-216.0633 1050.9891,-220.158"/>
</g>
<!-- single_subject_wfbidssrc&#45;&gt;single_subject_wfanat_preproc_wf -->
<g id="edge6" class="edge">
<title>single_subject_wfbidssrc:e&#45;&gt;single_subject_wfanat_preproc_wf:w</title>
<path fill="none" stroke="#000000" d="M1054,-445C1088.9871,-445 1080.2521,-408.1184 1088,-374 1094.8896,-343.6613 1099.494,-332.91 1088,-304 1079.8692,-283.5492 1062.1308,-288.4508 1054,-268 1049.6623,-257.0898 1042.774,-176.4158 1048.7103,-149.6222"/>
<polygon fill="#000000" stroke="#000000" points="1051.754,-151.354 1054,-141 1045.7873,-147.6935 1051.754,-151.354"/>
</g>
<!-- single_subject_wfbidssrc&#45;&gt;single_subject_wfanat_preproc_wf -->
<g id="edge11" class="edge">
<title>single_subject_wfbidssrc:e&#45;&gt;single_subject_wfanat_preproc_wf:w</title>
<path fill="none" stroke="#000000" d="M1054,-422C1111.1332,-422 1131.2849,-354.7277 1105,-304 1092.2356,-279.3657 1066.7644,-292.6343 1054,-268 1047.5004,-255.4563 1040.0443,-156.3999 1048.0744,-126.5098"/>
<polygon fill="#000000" stroke="#000000" points="1051.1578,-128.2065 1054,-118 1045.4133,-124.2064 1051.1578,-128.2065"/>
</g>
<!-- single_subject_wfbids_info&#45;&gt;single_subject_wfsummary -->
<g id="edge3" class="edge">
<title>single_subject_wfbids_info:e&#45;&gt;single_subject_wfsummary:w</title>
<path fill="none" stroke="#000000" d="M1026,-322C1034,-322 1031.0168,-310.2315 1026,-304 948.9718,-208.3221 833.0282,-340.6779 756,-245 749.141,-236.4804 744.2371,-222.638 747.3372,-215.17"/>
<polygon fill="#000000" stroke="#000000" points="749.2066,-218.1303 756,-210 745.6193,-212.1193 749.2066,-218.1303"/>
</g>
<!-- single_subject_wfbids_info&#45;&gt;single_subject_wfanat_preproc_wf -->
<g id="edge2" class="edge">
<title>single_subject_wfbids_info:e&#45;&gt;single_subject_wfanat_preproc_wf:w</title>
<path fill="none" stroke="#000000" d="M1026,-322C1038.6491,-322 1041.2113,-280.3379 1044,-268 1045.5619,-261.0897 1045.252,-215.5383 1049.3658,-195.9402"/>
<polygon fill="#000000" stroke="#000000" points="1052.5052,-197.4889 1054,-187 1046.2905,-194.2674 1052.5052,-197.4889"/>
</g>
<!-- single_subject_wfinputnode -->
<g id="node5" class="node">
<title>single_subject_wfinputnode</title>
<polygon fill="none" stroke="#000000" points="570,-304.5 570,-373.5 798,-373.5 798,-304.5 570,-304.5"/>
<text text-anchor="middle" x="587.5" y="-335.3" font-family="Times,serif" font-size="14.00" fill="#000000">IN</text>
<polyline fill="none" stroke="#000000" points="605,-304.5 605,-373.5 "/>
<text text-anchor="middle" x="649.5" y="-358.3" font-family="Times,serif" font-size="14.00" fill="#000000">inputnode</text>
<polyline fill="none" stroke="#000000" points="605,-350.5 694,-350.5 "/>
<text text-anchor="middle" x="649.5" y="-335.3" font-family="Times,serif" font-size="14.00" fill="#000000">utility</text>
<polyline fill="none" stroke="#000000" points="605,-327.5 694,-327.5 "/>
<text text-anchor="middle" x="649.5" y="-312.3" font-family="Times,serif" font-size="14.00" fill="#000000"> </text>
<polyline fill="none" stroke="#000000" points="694,-304.5 694,-373.5 "/>
<text text-anchor="middle" x="746" y="-352.8" font-family="Times,serif" font-size="14.00" fill="#000000">OUT</text>
<polyline fill="none" stroke="#000000" points="694,-339.5 798,-339.5 "/>
<text text-anchor="middle" x="746" y="-318.3" font-family="Times,serif" font-size="14.00" fill="#000000">subjects_dir</text>
</g>
<!-- single_subject_wfinputnode&#45;&gt;single_subject_wfsummary -->
<g id="edge14" class="edge">
<title>single_subject_wfinputnode:e&#45;&gt;single_subject_wfsummary:w</title>
<path fill="none" stroke="#000000" d="M798,-322C806,-322 800.4353,-311.6203 798,-304 788.2016,-273.3399 765.7984,-275.6601 756,-245 749.5016,-224.6659 736.088,-198.2343 746.3088,-189.7491"/>
<polygon fill="#000000" stroke="#000000" points="747.3348,-193.0962 756,-187 745.4244,-186.3619 747.3348,-193.0962"/>
</g>
<!-- single_subject_wfinputnode&#45;&gt;single_subject_wfanat_preproc_wf -->
<g id="edge13" class="edge">
<title>single_subject_wfinputnode:e&#45;&gt;single_subject_wfanat_preproc_wf:w</title>
<path fill="none" stroke="#000000" d="M798,-322C806.9443,-322 799.7672,-309.2619 807,-304 893.1546,-241.3222 970.7593,-345.3752 1044,-268 1057.2798,-253.9705 1039.3109,-191.2903 1046.2731,-170.6294"/>
<polygon fill="#000000" stroke="#000000" points="1048.6895,-173.1679 1054,-164 1044.1315,-167.8552 1048.6895,-173.1679"/>
</g>
<!-- single_subject_wfsummary&#45;&gt;single_subject_wfds_report_summary -->
<g id="edge15" class="edge">
<title>single_subject_wfsummary:e&#45;&gt;single_subject_wfds_report_summary:w</title>
<path fill="none" stroke="#000000" d="M1036,-158C1047.7274,-158 1037.4546,-114.9776 1045,-106 1073.0777,-72.593 1180.564,-39.6797 1232.7516,-35.4557"/>
<polygon fill="#000000" stroke="#000000" points="1233.1654,-38.9409 1243,-35 1232.8543,-31.9478 1233.1654,-38.9409"/>
</g>
</g>
</svg>
