<?xml version="1.0" encoding="UTF-8" standalone="no"?>
<!DOCTYPE svg PUBLIC "-//W3C//DTD SVG 1.1//EN"
 "http://www.w3.org/Graphics/SVG/1.1/DTD/svg11.dtd">
<!-- Generated by graphviz version 2.43.0 (0)
 -->
<!-- Title: %3 Pages: 1 -->
<svg width="618pt" height="476pt"
 viewBox="0.00 0.00 617.91 476.00" xmlns="http://www.w3.org/2000/svg" xmlns:xlink="http://www.w3.org/1999/xlink">
<g id="graph0" class="graph" transform="scale(1 1) rotate(0) translate(4 472)">
<title>%3</title>
<polygon fill="white" stroke="transparent" points="-4,4 -4,-472 613.91,-472 613.91,4 -4,4"/>
<!-- poutputnode (utility) -->
<g id="node1" class="node">
<title>poutputnode (utility)</title>
<ellipse fill="none" stroke="black" cx="206.79" cy="-90" rx="107.48" ry="18"/>
<text text-anchor="middle" x="206.79" y="-86.3" font-family="Times,serif" font-size="14.00">poutputnode (utility)</text>
</g>
<!-- outputnode (utility) -->
<g id="node2" class="node">
<title>outputnode (utility)</title>
<ellipse fill="none" stroke="black" cx="206.79" cy="-18" rx="101.28" ry="18"/>
<text text-anchor="middle" x="206.79" y="-14.3" font-family="Times,serif" font-size="14.00">outputnode (utility)</text>
</g>
<!-- poutputnode (utility)&#45;&gt;outputnode (utility) -->
<g id="edge1" class="edge">
<title>poutputnode (utility)&#45;&gt;outputnode (utility)</title>
<path fill="none" stroke="black" d="M206.79,-71.7C206.79,-63.98 206.79,-54.71 206.79,-46.11"/>
<polygon fill="black" stroke="black" points="210.29,-46.1 206.79,-36.1 203.29,-46.1 210.29,-46.1"/>
</g>
<!-- inputnode (utility) -->
<g id="node3" class="node">
<title>inputnode (utility)</title>
<ellipse fill="none" stroke="black" cx="493.79" cy="-450" rx="94.78" ry="18"/>
<text text-anchor="middle" x="493.79" y="-446.3" font-family="Times,serif" font-size="14.00">inputnode (utility)</text>
</g>
<!-- split_desc (templateflow) -->
<g id="node4" class="node">
<title>split_desc (templateflow)</title>
<ellipse fill="none" stroke="black" cx="210.79" cy="-378" rx="126.98" ry="18"/>
<text text-anchor="middle" x="210.79" y="-374.3" font-family="Times,serif" font-size="14.00">split_desc (templateflow)</text>
</g>
<!-- inputnode (utility)&#45;&gt;split_desc (templateflow) -->
<g id="edge2" class="edge">
<title>inputnode (utility)&#45;&gt;split_desc (templateflow)</title>
<path fill="none" stroke="black" d="M438.55,-435.34C393.56,-424.21 329.74,-408.42 281.1,-396.39"/>
<polygon fill="black" stroke="black" points="281.83,-392.97 271.28,-393.96 280.15,-399.76 281.83,-392.97"/>
</g>
<!-- trunc_mov (ants) -->
<g id="node5" class="node">
<title>trunc_mov (ants)</title>
<ellipse fill="none" stroke="black" cx="493.79" cy="-234" rx="89.08" ry="18"/>
<text text-anchor="middle" x="493.79" y="-230.3" font-family="Times,serif" font-size="14.00">trunc_mov (ants)</text>
</g>
<!-- inputnode (utility)&#45;&gt;trunc_mov (ants) -->
<g id="edge3" class="edge">
<title>inputnode (utility)&#45;&gt;trunc_mov (ants)</title>
<path fill="none" stroke="black" d="M493.79,-431.85C493.79,-394.83 493.79,-307.18 493.79,-262.39"/>
<polygon fill="black" stroke="black" points="497.29,-262.23 493.79,-252.23 490.29,-262.23 497.29,-262.23"/>
</g>
<!-- registration (norm) -->
<g id="node6" class="node">
<title>registration (norm)</title>
<ellipse fill="none" stroke="black" cx="315.79" cy="-162" rx="100.18" ry="18"/>
<text text-anchor="middle" x="315.79" y="-158.3" font-family="Times,serif" font-size="14.00">registration (norm)</text>
</g>
<!-- inputnode (utility)&#45;&gt;registration (norm) -->
<g id="edge4" class="edge">
<title>inputnode (utility)&#45;&gt;registration (norm)</title>
<path fill="none" stroke="black" d="M511.64,-432.31C553.2,-391.47 648.67,-284.84 591.79,-216 569.87,-189.47 488.31,-176.09 419.48,-169.41"/>
<polygon fill="black" stroke="black" points="419.71,-165.92 409.43,-168.48 419.06,-172.89 419.71,-165.92"/>
</g>
<!-- split_desc (templateflow)&#45;&gt;registration (norm) -->
<g id="edge6" class="edge">
<title>split_desc (templateflow)&#45;&gt;registration (norm)</title>
<path fill="none" stroke="black" d="M185.7,-360.19C174.28,-351 161.96,-338.52 155.79,-324 137.01,-279.83 127.69,-254.91 155.79,-216 166.6,-201.03 205.65,-187.94 242.46,-178.51"/>
<polygon fill="black" stroke="black" points="243.39,-181.88 252.25,-176.07 241.7,-175.09 243.39,-181.88"/>
</g>
<!-- tf_select (templateflow) -->
<g id="node7" class="node">
<title>tf_select (templateflow)</title>
<ellipse fill="none" stroke="black" cx="284.79" cy="-306" rx="120.48" ry="18"/>
<text text-anchor="middle" x="284.79" y="-302.3" font-family="Times,serif" font-size="14.00">tf_select (templateflow)</text>
</g>
<!-- split_desc (templateflow)&#45;&gt;tf_select (templateflow) -->
<g id="edge5" class="edge">
<title>split_desc (templateflow)&#45;&gt;tf_select (templateflow)</title>
<path fill="none" stroke="black" d="M228.7,-360.05C237.91,-351.35 249.28,-340.59 259.37,-331.04"/>
<polygon fill="black" stroke="black" points="261.93,-333.45 266.79,-324.03 257.12,-328.36 261.93,-333.45"/>
</g>
<!-- fmt_cohort (utility) -->
<g id="node8" class="node">
<title>fmt_cohort (utility)</title>
<ellipse fill="none" stroke="black" cx="98.79" cy="-162" rx="98.58" ry="18"/>
<text text-anchor="middle" x="98.79" y="-158.3" font-family="Times,serif" font-size="14.00">fmt_cohort (utility)</text>
</g>
<!-- split_desc (templateflow)&#45;&gt;fmt_cohort (utility) -->
<g id="edge7" class="edge">
<title>split_desc (templateflow)&#45;&gt;fmt_cohort (utility)</title>
<path fill="none" stroke="black" d="M179.1,-360.44C164.8,-351.46 148.89,-339.09 138.79,-324 111.18,-282.75 102.62,-224.07 99.97,-190.12"/>
<polygon fill="black" stroke="black" points="103.45,-189.77 99.3,-180.03 96.47,-190.24 103.45,-189.77"/>
</g>
<!-- trunc_mov (ants)&#45;&gt;registration (norm) -->
<g id="edge8" class="edge">
<title>trunc_mov (ants)&#45;&gt;registration (norm)</title>
<path fill="none" stroke="black" d="M454.73,-217.64C428.25,-207.22 393.05,-193.38 364.7,-182.24"/>
<polygon fill="black" stroke="black" points="365.97,-178.97 355.38,-178.57 363.4,-185.48 365.97,-178.97"/>
</g>
<!-- registration (norm)&#45;&gt;poutputnode (utility) -->
<g id="edge9" class="edge">
<title>registration (norm)&#45;&gt;poutputnode (utility)</title>
<path fill="none" stroke="black" d="M290.24,-144.59C275.58,-135.18 257,-123.24 241.09,-113.02"/>
<polygon fill="black" stroke="black" points="242.87,-110.01 232.56,-107.55 239.09,-115.9 242.87,-110.01"/>
</g>
<!-- set_reference (utility) -->
<g id="node9" class="node">
<title>set_reference (utility)</title>
<ellipse fill="none" stroke="black" cx="275.79" cy="-234" rx="111.28" ry="18"/>
<text text-anchor="middle" x="275.79" y="-230.3" font-family="Times,serif" font-size="14.00">set_reference (utility)</text>
</g>
<!-- tf_select (templateflow)&#45;&gt;set_reference (utility) -->
<g id="edge10" class="edge">
<title>tf_select (templateflow)&#45;&gt;set_reference (utility)</title>
<path fill="none" stroke="black" d="M282.57,-287.7C281.57,-279.98 280.38,-270.71 279.28,-262.11"/>
<polygon fill="black" stroke="black" points="282.74,-261.58 277.99,-252.1 275.79,-262.47 282.74,-261.58"/>
</g>
<!-- fmt_cohort (utility)&#45;&gt;poutputnode (utility) -->
<g id="edge11" class="edge">
<title>fmt_cohort (utility)&#45;&gt;poutputnode (utility)</title>
<path fill="none" stroke="black" d="M124.11,-144.59C138.63,-135.18 157.05,-123.24 172.81,-113.02"/>
<polygon fill="black" stroke="black" points="174.77,-115.93 181.25,-107.55 170.96,-110.05 174.77,-115.93"/>
</g>
<!-- set_reference (utility)&#45;&gt;registration (norm) -->
<g id="edge12" class="edge">
<title>set_reference (utility)&#45;&gt;registration (norm)</title>
<path fill="none" stroke="black" d="M285.47,-216.05C290.07,-208.01 295.67,-198.2 300.81,-189.23"/>
<polygon fill="black" stroke="black" points="304,-190.69 305.92,-180.28 297.92,-187.22 304,-190.69"/>
</g>
</g>
</svg>
