<?xml version="1.0" encoding="UTF-8" standalone="no"?>
<!DOCTYPE svg PUBLIC "-//W3C//DTD SVG 1.1//EN"
 "http://www.w3.org/Graphics/SVG/1.1/DTD/svg11.dtd">
<!-- Generated by graphviz version 2.40.1 (20161225.0304)
 -->
<!-- Title: structs Pages: 1 -->
<svg width="1642pt" height="1068pt"
 viewBox="0.00 0.00 1641.79 1068.00" xmlns="http://www.w3.org/2000/svg" xmlns:xlink="http://www.w3.org/1999/xlink">
<g id="graph0" class="graph" transform="scale(1 1) rotate(0) translate(4 1064)">
<title>structs</title>
<polygon fill="#ffffff" stroke="transparent" points="-4,4 -4,-1064 1637.7868,-1064 1637.7868,4 -4,4"/>
<!-- anat_norm_wfinputnode -->
<g id="node1" class="node">
<title>anat_norm_wfinputnode</title>
<polygon fill="none" stroke="#000000" points="220.2868,-898.5 220.2868,-1059.5 518.2868,-1059.5 518.2868,-898.5 220.2868,-898.5"/>
<text text-anchor="middle" x="237.7868" y="-975.3" font-family="Times,serif" font-size="14.00" fill="#000000">IN</text>
<polyline fill="none" stroke="#000000" points="255.2868,-898.5 255.2868,-1059.5 "/>
<text text-anchor="middle" x="299.7868" y="-1029.3" font-family="Times,serif" font-size="14.00" fill="#000000">inputnode</text>
<polyline fill="none" stroke="#000000" points="255.2868,-1006.5 344.2868,-1006.5 "/>
<text text-anchor="middle" x="299.7868" y="-975.8" font-family="Times,serif" font-size="14.00" fill="#000000">utility</text>
<polyline fill="none" stroke="#000000" points="255.2868,-952.5 344.2868,-952.5 "/>
<text text-anchor="middle" x="299.7868" y="-921.8" font-family="Times,serif" font-size="14.00" fill="#000000"> </text>
<polyline fill="none" stroke="#000000" points="344.2868,-898.5 344.2868,-1059.5 "/>
<text text-anchor="middle" x="431.2868" y="-1044.3" font-family="Times,serif" font-size="14.00" fill="#000000">OUT</text>
<polyline fill="none" stroke="#000000" points="344.2868,-1036.5 518.2868,-1036.5 "/>
<text text-anchor="middle" x="431.2868" y="-1021.3" font-family="Times,serif" font-size="14.00" fill="#000000">lesion_mask</text>
<polyline fill="none" stroke="#000000" points="344.2868,-1013.5 518.2868,-1013.5 "/>
<text text-anchor="middle" x="431.2868" y="-998.3" font-family="Times,serif" font-size="14.00" fill="#000000">moving_image</text>
<polyline fill="none" stroke="#000000" points="344.2868,-990.5 518.2868,-990.5 "/>
<text text-anchor="middle" x="431.2868" y="-975.3" font-family="Times,serif" font-size="14.00" fill="#000000">moving_mask</text>
<polyline fill="none" stroke="#000000" points="344.2868,-967.5 518.2868,-967.5 "/>
<text text-anchor="middle" x="431.2868" y="-952.3" font-family="Times,serif" font-size="14.00" fill="#000000">moving_segmentation</text>
<polyline fill="none" stroke="#000000" points="344.2868,-944.5 518.2868,-944.5 "/>
<text text-anchor="middle" x="431.2868" y="-929.3" font-family="Times,serif" font-size="14.00" fill="#000000">moving_tpms</text>
<polyline fill="none" stroke="#000000" points="344.2868,-921.5 518.2868,-921.5 "/>
<text text-anchor="middle" x="431.2868" y="-906.3" font-family="Times,serif" font-size="14.00" fill="#000000">template</text>
</g>
<!-- anat_norm_wftrunc_mov -->
<g id="node2" class="node">
<title>anat_norm_wftrunc_mov</title>
<polygon fill="none" stroke="#000000" points="177.7868,-792.5 177.7868,-861.5 428.7868,-861.5 428.7868,-792.5 177.7868,-792.5"/>
<text text-anchor="middle" x="199.2868" y="-840.8" font-family="Times,serif" font-size="14.00" fill="#000000">IN</text>
<polyline fill="none" stroke="#000000" points="177.7868,-827.5 220.7868,-827.5 "/>
<text text-anchor="middle" x="199.2868" y="-806.3" font-family="Times,serif" font-size="14.00" fill="#000000">op1</text>
<polyline fill="none" stroke="#000000" points="220.7868,-792.5 220.7868,-861.5 "/>
<text text-anchor="middle" x="267.2868" y="-846.3" font-family="Times,serif" font-size="14.00" fill="#000000">trunc_mov</text>
<polyline fill="none" stroke="#000000" points="220.7868,-838.5 313.7868,-838.5 "/>
<text text-anchor="middle" x="267.2868" y="-823.3" font-family="Times,serif" font-size="14.00" fill="#000000">ants</text>
<polyline fill="none" stroke="#000000" points="220.7868,-815.5 313.7868,-815.5 "/>
<text text-anchor="middle" x="267.2868" y="-800.3" font-family="Times,serif" font-size="14.00" fill="#000000"> </text>
<polyline fill="none" stroke="#000000" points="313.7868,-792.5 313.7868,-861.5 "/>
<text text-anchor="middle" x="371.2868" y="-840.8" font-family="Times,serif" font-size="14.00" fill="#000000">OUT</text>
<polyline fill="none" stroke="#000000" points="313.7868,-827.5 428.7868,-827.5 "/>
<text text-anchor="middle" x="371.2868" y="-806.3" font-family="Times,serif" font-size="14.00" fill="#000000">output_image</text>
</g>
<!-- anat_norm_wfinputnode&#45;&gt;anat_norm_wftrunc_mov -->
<g id="edge3" class="edge">
<title>anat_norm_wfinputnode:e&#45;&gt;anat_norm_wftrunc_mov:w</title>
<path fill="none" stroke="#000000" d="M518.2868,-1002C564.5091,-1002 549.2076,-932.357 518.2868,-898 467.3129,-841.3614 228.2607,-918.6386 177.2868,-862 164.6045,-847.9083 157.1774,-821.9443 167.675,-813.0685"/>
<polygon fill="#000000" stroke="#000000" points="168.825,-816.3755 177.2868,-810 166.696,-809.7071 168.825,-816.3755"/>
</g>
<!-- anat_norm_wfsplit_desc -->
<g id="node3" class="node">
<title>anat_norm_wfsplit_desc</title>
<polygon fill="none" stroke="#000000" points="546.2868,-792.5 546.2868,-861.5 792.2868,-861.5 792.2868,-792.5 546.2868,-792.5"/>
<text text-anchor="middle" x="586.2868" y="-840.8" font-family="Times,serif" font-size="14.00" fill="#000000">IN</text>
<polyline fill="none" stroke="#000000" points="546.2868,-827.5 626.2868,-827.5 "/>
<text text-anchor="middle" x="586.2868" y="-806.3" font-family="Times,serif" font-size="14.00" fill="#000000">template</text>
<polyline fill="none" stroke="#000000" points="626.2868,-792.5 626.2868,-861.5 "/>
<text text-anchor="middle" x="681.2868" y="-846.3" font-family="Times,serif" font-size="14.00" fill="#000000">split_desc</text>
<polyline fill="none" stroke="#000000" points="626.2868,-838.5 736.2868,-838.5 "/>
<text text-anchor="middle" x="681.2868" y="-823.3" font-family="Times,serif" font-size="14.00" fill="#000000">templateflow</text>
<polyline fill="none" stroke="#000000" points="626.2868,-815.5 736.2868,-815.5 "/>
<text text-anchor="middle" x="681.2868" y="-800.3" font-family="Times,serif" font-size="14.00" fill="#000000"> </text>
<polyline fill="none" stroke="#000000" points="736.2868,-792.5 736.2868,-861.5 "/>
<text text-anchor="middle" x="764.2868" y="-846.3" font-family="Times,serif" font-size="14.00" fill="#000000">OUT</text>
<polyline fill="none" stroke="#000000" points="736.2868,-838.5 792.2868,-838.5 "/>
<text text-anchor="middle" x="764.2868" y="-823.3" font-family="Times,serif" font-size="14.00" fill="#000000">name</text>
<polyline fill="none" stroke="#000000" points="736.2868,-815.5 792.2868,-815.5 "/>
<text text-anchor="middle" x="764.2868" y="-800.3" font-family="Times,serif" font-size="14.00" fill="#000000">spec</text>
</g>
<!-- anat_norm_wfinputnode&#45;&gt;anat_norm_wfsplit_desc -->
<g id="edge9" class="edge">
<title>anat_norm_wfinputnode:e&#45;&gt;anat_norm_wfsplit_desc:w</title>
<path fill="none" stroke="#000000" d="M518.2868,-910C540.5091,-910 526.2868,-883.3969 532.2868,-862 537.5374,-843.2758 527.6978,-820.6503 536.661,-812.824"/>
<polygon fill="#000000" stroke="#000000" points="537.6766,-816.1737 546.2868,-810 535.7059,-809.4567 537.6766,-816.1737"/>
</g>
<!-- anat_norm_wfregistration -->
<g id="node4" class="node">
<title>anat_norm_wfregistration</title>
<polygon fill="none" stroke="#000000" points="47.7868,-617.5 47.7868,-755.5 498.7868,-755.5 498.7868,-617.5 47.7868,-617.5"/>
<text text-anchor="middle" x="108.2868" y="-740.3" font-family="Times,serif" font-size="14.00" fill="#000000">IN</text>
<polyline fill="none" stroke="#000000" points="47.7868,-732.5 168.7868,-732.5 "/>
<text text-anchor="middle" x="108.2868" y="-717.3" font-family="Times,serif" font-size="14.00" fill="#000000">lesion_mask</text>
<polyline fill="none" stroke="#000000" points="47.7868,-709.5 168.7868,-709.5 "/>
<text text-anchor="middle" x="108.2868" y="-694.3" font-family="Times,serif" font-size="14.00" fill="#000000">moving_image</text>
<polyline fill="none" stroke="#000000" points="47.7868,-686.5 168.7868,-686.5 "/>
<text text-anchor="middle" x="108.2868" y="-671.3" font-family="Times,serif" font-size="14.00" fill="#000000">moving_mask</text>
<polyline fill="none" stroke="#000000" points="47.7868,-663.5 168.7868,-663.5 "/>
<text text-anchor="middle" x="108.2868" y="-648.3" font-family="Times,serif" font-size="14.00" fill="#000000">template</text>
<polyline fill="none" stroke="#000000" points="47.7868,-640.5 168.7868,-640.5 "/>
<text text-anchor="middle" x="108.2868" y="-625.3" font-family="Times,serif" font-size="14.00" fill="#000000">template_spec</text>
<polyline fill="none" stroke="#000000" points="168.7868,-617.5 168.7868,-755.5 "/>
<text text-anchor="middle" x="219.2868" y="-728.8" font-family="Times,serif" font-size="14.00" fill="#000000">registration</text>
<polyline fill="none" stroke="#000000" points="168.7868,-709.5 269.7868,-709.5 "/>
<text text-anchor="middle" x="219.2868" y="-682.8" font-family="Times,serif" font-size="14.00" fill="#000000">mni</text>
<polyline fill="none" stroke="#000000" points="168.7868,-663.5 269.7868,-663.5 "/>
<text text-anchor="middle" x="219.2868" y="-636.8" font-family="Times,serif" font-size="14.00" fill="#000000"> </text>
<polyline fill="none" stroke="#000000" points="269.7868,-617.5 269.7868,-755.5 "/>
<text text-anchor="middle" x="384.2868" y="-728.8" font-family="Times,serif" font-size="14.00" fill="#000000">OUT</text>
<polyline fill="none" stroke="#000000" points="269.7868,-709.5 498.7868,-709.5 "/>
<text text-anchor="middle" x="384.2868" y="-682.8" font-family="Times,serif" font-size="14.00" fill="#000000">composite_transform</text>
<polyline fill="none" stroke="#000000" points="269.7868,-663.5 498.7868,-663.5 "/>
<text text-anchor="middle" x="384.2868" y="-636.8" font-family="Times,serif" font-size="14.00" fill="#000000">inverse_composite_transform</text>
</g>
<!-- anat_norm_wfinputnode&#45;&gt;anat_norm_wfregistration -->
<g id="edge1" class="edge">
<title>anat_norm_wfinputnode:e&#45;&gt;anat_norm_wfregistration:w</title>
<path fill="none" stroke="#000000" d="M518.2868,-1025C574.7313,-1025 556.096,-939.9099 518.2868,-898 466.0607,-840.1096 240.8211,-893.0114 169.2868,-862 103.3835,-833.4298 77.0822,-821.3586 47.2868,-756 43.0632,-746.735 37.6874,-734.5613 39.0424,-727.4277"/>
<polygon fill="#000000" stroke="#000000" points="41.2108,-730.1794 47.2868,-721.5 37.1244,-724.496 41.2108,-730.1794"/>
</g>
<!-- anat_norm_wfinputnode&#45;&gt;anat_norm_wfregistration -->
<g id="edge4" class="edge">
<title>anat_norm_wfinputnode:e&#45;&gt;anat_norm_wfregistration:w</title>
<path fill="none" stroke="#000000" d="M518.2868,-979C554.2868,-979 529.7225,-932.1354 518.2868,-898 508.9124,-870.0173 464.0707,-806.3564 438.2868,-792 362.0513,-749.5521 106.09,-820.466 47.2868,-756 37.37,-745.1282 31.6119,-698.1203 39.5156,-680.8746"/>
<polygon fill="#000000" stroke="#000000" points="41.7749,-683.5482 47.2868,-674.5 37.3354,-678.1361 41.7749,-683.5482"/>
</g>
<!-- anat_norm_wfstd_tpms -->
<g id="node6" class="node">
<title>anat_norm_wfstd_tpms</title>
<polygon fill="none" stroke="#000000" points="1209.7868,-488.5 1209.7868,-580.5 1544.7868,-580.5 1544.7868,-488.5 1209.7868,-488.5"/>
<text text-anchor="middle" x="1278.2868" y="-565.3" font-family="Times,serif" font-size="14.00" fill="#000000">IN</text>
<polyline fill="none" stroke="#000000" points="1209.7868,-557.5 1346.7868,-557.5 "/>
<text text-anchor="middle" x="1278.2868" y="-542.3" font-family="Times,serif" font-size="14.00" fill="#000000">input_image</text>
<polyline fill="none" stroke="#000000" points="1209.7868,-534.5 1346.7868,-534.5 "/>
<text text-anchor="middle" x="1278.2868" y="-519.3" font-family="Times,serif" font-size="14.00" fill="#000000">reference_image</text>
<polyline fill="none" stroke="#000000" points="1209.7868,-511.5 1346.7868,-511.5 "/>
<text text-anchor="middle" x="1278.2868" y="-496.3" font-family="Times,serif" font-size="14.00" fill="#000000">transforms</text>
<polyline fill="none" stroke="#000000" points="1346.7868,-488.5 1346.7868,-580.5 "/>
<text text-anchor="middle" x="1388.2868" y="-561.8" font-family="Times,serif" font-size="14.00" fill="#000000">std_tpms</text>
<polyline fill="none" stroke="#000000" points="1346.7868,-550.5 1429.7868,-550.5 "/>
<text text-anchor="middle" x="1388.2868" y="-531.3" font-family="Times,serif" font-size="14.00" fill="#000000">fixes</text>
<polyline fill="none" stroke="#000000" points="1346.7868,-519.5 1429.7868,-519.5 "/>
<text text-anchor="middle" x="1388.2868" y="-500.3" font-family="Times,serif" font-size="14.00" fill="#000000"> </text>
<polyline fill="none" stroke="#000000" points="1429.7868,-488.5 1429.7868,-580.5 "/>
<text text-anchor="middle" x="1487.2868" y="-553.8" font-family="Times,serif" font-size="14.00" fill="#000000">OUT</text>
<polyline fill="none" stroke="#000000" points="1429.7868,-534.5 1544.7868,-534.5 "/>
<text text-anchor="middle" x="1487.2868" y="-507.8" font-family="Times,serif" font-size="14.00" fill="#000000">output_image</text>
</g>
<!-- anat_norm_wfinputnode&#45;&gt;anat_norm_wfstd_tpms -->
<g id="edge7" class="edge">
<title>anat_norm_wfinputnode:e&#45;&gt;anat_norm_wfstd_tpms:w</title>
<path fill="none" stroke="#000000" d="M518.2868,-933C670.9178,-933 716.4855,-927.6277 854.2868,-862 1033.4539,-776.6719 1096.0449,-749.2434 1201.2868,-581 1206.5692,-572.5555 1202.0665,-560.983 1202.0364,-553.623"/>
<polygon fill="#000000" stroke="#000000" points="1204.6061,-556.0048 1209.2868,-546.5 1199.7005,-551.0113 1204.6061,-556.0048"/>
</g>
<!-- anat_norm_wfstd_dseg -->
<g id="node7" class="node">
<title>anat_norm_wfstd_dseg</title>
<polygon fill="none" stroke="#000000" points="504.2868,-488.5 504.2868,-580.5 836.2868,-580.5 836.2868,-488.5 504.2868,-488.5"/>
<text text-anchor="middle" x="572.7868" y="-565.3" font-family="Times,serif" font-size="14.00" fill="#000000">IN</text>
<polyline fill="none" stroke="#000000" points="504.2868,-557.5 641.2868,-557.5 "/>
<text text-anchor="middle" x="572.7868" y="-542.3" font-family="Times,serif" font-size="14.00" fill="#000000">input_image</text>
<polyline fill="none" stroke="#000000" points="504.2868,-534.5 641.2868,-534.5 "/>
<text text-anchor="middle" x="572.7868" y="-519.3" font-family="Times,serif" font-size="14.00" fill="#000000">reference_image</text>
<polyline fill="none" stroke="#000000" points="504.2868,-511.5 641.2868,-511.5 "/>
<text text-anchor="middle" x="572.7868" y="-496.3" font-family="Times,serif" font-size="14.00" fill="#000000">transforms</text>
<polyline fill="none" stroke="#000000" points="641.2868,-488.5 641.2868,-580.5 "/>
<text text-anchor="middle" x="681.2868" y="-561.8" font-family="Times,serif" font-size="14.00" fill="#000000">std_dseg</text>
<polyline fill="none" stroke="#000000" points="641.2868,-550.5 721.2868,-550.5 "/>
<text text-anchor="middle" x="681.2868" y="-531.3" font-family="Times,serif" font-size="14.00" fill="#000000">fixes</text>
<polyline fill="none" stroke="#000000" points="641.2868,-519.5 721.2868,-519.5 "/>
<text text-anchor="middle" x="681.2868" y="-500.3" font-family="Times,serif" font-size="14.00" fill="#000000"> </text>
<polyline fill="none" stroke="#000000" points="721.2868,-488.5 721.2868,-580.5 "/>
<text text-anchor="middle" x="778.7868" y="-553.8" font-family="Times,serif" font-size="14.00" fill="#000000">OUT</text>
<polyline fill="none" stroke="#000000" points="721.2868,-534.5 836.2868,-534.5 "/>
<text text-anchor="middle" x="778.7868" y="-507.8" font-family="Times,serif" font-size="14.00" fill="#000000">output_image</text>
</g>
<!-- anat_norm_wfinputnode&#45;&gt;anat_norm_wfstd_dseg -->
<g id="edge6" class="edge">
<title>anat_norm_wfinputnode:e&#45;&gt;anat_norm_wfstd_dseg:w</title>
<path fill="none" stroke="#000000" d="M518.2868,-956C524.1404,-956 529.5392,-907.1536 508.2868,-617 507.4182,-605.1403 496.5574,-570.7687 498.1768,-554.8156"/>
<polygon fill="#000000" stroke="#000000" points="501.1861,-556.631 504.2868,-546.5 495.5451,-552.4861 501.1861,-556.631"/>
</g>
<!-- anat_norm_wfstd_mask -->
<g id="node8" class="node">
<title>anat_norm_wfstd_mask</title>
<polygon fill="none" stroke="#000000" points="854.7868,-488.5 854.7868,-580.5 1191.7868,-580.5 1191.7868,-488.5 854.7868,-488.5"/>
<text text-anchor="middle" x="923.2868" y="-565.3" font-family="Times,serif" font-size="14.00" fill="#000000">IN</text>
<polyline fill="none" stroke="#000000" points="854.7868,-557.5 991.7868,-557.5 "/>
<text text-anchor="middle" x="923.2868" y="-542.3" font-family="Times,serif" font-size="14.00" fill="#000000">input_image</text>
<polyline fill="none" stroke="#000000" points="854.7868,-534.5 991.7868,-534.5 "/>
<text text-anchor="middle" x="923.2868" y="-519.3" font-family="Times,serif" font-size="14.00" fill="#000000">reference_image</text>
<polyline fill="none" stroke="#000000" points="854.7868,-511.5 991.7868,-511.5 "/>
<text text-anchor="middle" x="923.2868" y="-496.3" font-family="Times,serif" font-size="14.00" fill="#000000">transforms</text>
<polyline fill="none" stroke="#000000" points="991.7868,-488.5 991.7868,-580.5 "/>
<text text-anchor="middle" x="1034.2868" y="-561.8" font-family="Times,serif" font-size="14.00" fill="#000000">std_mask</text>
<polyline fill="none" stroke="#000000" points="991.7868,-550.5 1076.7868,-550.5 "/>
<text text-anchor="middle" x="1034.2868" y="-531.3" font-family="Times,serif" font-size="14.00" fill="#000000">fixes</text>
<polyline fill="none" stroke="#000000" points="991.7868,-519.5 1076.7868,-519.5 "/>
<text text-anchor="middle" x="1034.2868" y="-500.3" font-family="Times,serif" font-size="14.00" fill="#000000"> </text>
<polyline fill="none" stroke="#000000" points="1076.7868,-488.5 1076.7868,-580.5 "/>
<text text-anchor="middle" x="1134.2868" y="-553.8" font-family="Times,serif" font-size="14.00" fill="#000000">OUT</text>
<polyline fill="none" stroke="#000000" points="1076.7868,-534.5 1191.7868,-534.5 "/>
<text text-anchor="middle" x="1134.2868" y="-507.8" font-family="Times,serif" font-size="14.00" fill="#000000">output_image</text>
</g>
<!-- anat_norm_wfinputnode&#45;&gt;anat_norm_wfstd_mask -->
<g id="edge5" class="edge">
<title>anat_norm_wfinputnode:e&#45;&gt;anat_norm_wfstd_mask:w</title>
<path fill="none" stroke="#000000" d="M518.2868,-979C703.1084,-979 817.2889,-933.3562 869.2868,-756 886.6675,-696.7176 881.4025,-677.5781 869.2868,-617 865.8875,-600.0033 857.6862,-597.9967 854.2868,-581 852.3839,-571.4853 846.7491,-560.1971 846.7533,-553.1901"/>
<polygon fill="#000000" stroke="#000000" points="849.1336,-555.7572 854.2868,-546.5 844.4855,-550.5231 849.1336,-555.7572"/>
</g>
<!-- anat_norm_wftpl_moving -->
<g id="node9" class="node">
<title>anat_norm_wftpl_moving</title>
<polygon fill="none" stroke="#000000" points="138.2868,-488.5 138.2868,-580.5 486.2868,-580.5 486.2868,-488.5 138.2868,-488.5"/>
<text text-anchor="middle" x="206.7868" y="-565.3" font-family="Times,serif" font-size="14.00" fill="#000000">IN</text>
<polyline fill="none" stroke="#000000" points="138.2868,-557.5 275.2868,-557.5 "/>
<text text-anchor="middle" x="206.7868" y="-542.3" font-family="Times,serif" font-size="14.00" fill="#000000">input_image</text>
<polyline fill="none" stroke="#000000" points="138.2868,-534.5 275.2868,-534.5 "/>
<text text-anchor="middle" x="206.7868" y="-519.3" font-family="Times,serif" font-size="14.00" fill="#000000">reference_image</text>
<polyline fill="none" stroke="#000000" points="138.2868,-511.5 275.2868,-511.5 "/>
<text text-anchor="middle" x="206.7868" y="-496.3" font-family="Times,serif" font-size="14.00" fill="#000000">transforms</text>
<polyline fill="none" stroke="#000000" points="275.2868,-488.5 275.2868,-580.5 "/>
<text text-anchor="middle" x="323.2868" y="-561.8" font-family="Times,serif" font-size="14.00" fill="#000000">tpl_moving</text>
<polyline fill="none" stroke="#000000" points="275.2868,-550.5 371.2868,-550.5 "/>
<text text-anchor="middle" x="323.2868" y="-531.3" font-family="Times,serif" font-size="14.00" fill="#000000">fixes</text>
<polyline fill="none" stroke="#000000" points="275.2868,-519.5 371.2868,-519.5 "/>
<text text-anchor="middle" x="323.2868" y="-500.3" font-family="Times,serif" font-size="14.00" fill="#000000"> </text>
<polyline fill="none" stroke="#000000" points="371.2868,-488.5 371.2868,-580.5 "/>
<text text-anchor="middle" x="428.7868" y="-553.8" font-family="Times,serif" font-size="14.00" fill="#000000">OUT</text>
<polyline fill="none" stroke="#000000" points="371.2868,-534.5 486.2868,-534.5 "/>
<text text-anchor="middle" x="428.7868" y="-507.8" font-family="Times,serif" font-size="14.00" fill="#000000">output_image</text>
</g>
<!-- anat_norm_wfinputnode&#45;&gt;anat_norm_wftpl_moving -->
<g id="edge2" class="edge">
<title>anat_norm_wfinputnode:e&#45;&gt;anat_norm_wftpl_moving:w</title>
<path fill="none" stroke="#000000" d="M518.2868,-1002C564.5091,-1002 549.6584,-931.9458 518.2868,-898 449.2968,-823.3487 138.8437,-928.8692 62.2868,-862 -43.6906,-769.4332 -7.83,-557.1974 127.9092,-546.8895"/>
<polygon fill="#000000" stroke="#000000" points="128.4252,-550.3726 138.2868,-546.5 128.1626,-543.3776 128.4252,-550.3726"/>
</g>
<!-- anat_norm_wfpoutputnode -->
<g id="node10" class="node">
<title>anat_norm_wfpoutputnode</title>
<polygon fill="none" stroke="#000000" points="1014.7868,-244.5 1014.7868,-451.5 1363.7868,-451.5 1363.7868,-244.5 1014.7868,-244.5"/>
<text text-anchor="middle" x="1075.2868" y="-436.3" font-family="Times,serif" font-size="14.00" fill="#000000">IN</text>
<polyline fill="none" stroke="#000000" points="1014.7868,-428.5 1135.7868,-428.5 "/>
<text text-anchor="middle" x="1075.2868" y="-413.3" font-family="Times,serif" font-size="14.00" fill="#000000">anat2std_xfm</text>
<polyline fill="none" stroke="#000000" points="1014.7868,-405.5 1135.7868,-405.5 "/>
<text text-anchor="middle" x="1075.2868" y="-390.3" font-family="Times,serif" font-size="14.00" fill="#000000">standardized</text>
<polyline fill="none" stroke="#000000" points="1014.7868,-382.5 1135.7868,-382.5 "/>
<text text-anchor="middle" x="1075.2868" y="-367.3" font-family="Times,serif" font-size="14.00" fill="#000000">std2anat_xfm</text>
<polyline fill="none" stroke="#000000" points="1014.7868,-359.5 1135.7868,-359.5 "/>
<text text-anchor="middle" x="1075.2868" y="-344.3" font-family="Times,serif" font-size="14.00" fill="#000000">std_dseg</text>
<polyline fill="none" stroke="#000000" points="1014.7868,-336.5 1135.7868,-336.5 "/>
<text text-anchor="middle" x="1075.2868" y="-321.3" font-family="Times,serif" font-size="14.00" fill="#000000">std_mask</text>
<polyline fill="none" stroke="#000000" points="1014.7868,-313.5 1135.7868,-313.5 "/>
<text text-anchor="middle" x="1075.2868" y="-298.3" font-family="Times,serif" font-size="14.00" fill="#000000">std_tpms</text>
<polyline fill="none" stroke="#000000" points="1014.7868,-290.5 1135.7868,-290.5 "/>
<text text-anchor="middle" x="1075.2868" y="-275.3" font-family="Times,serif" font-size="14.00" fill="#000000">template</text>
<polyline fill="none" stroke="#000000" points="1014.7868,-267.5 1135.7868,-267.5 "/>
<text text-anchor="middle" x="1075.2868" y="-252.3" font-family="Times,serif" font-size="14.00" fill="#000000">template_spec</text>
<polyline fill="none" stroke="#000000" points="1135.7868,-244.5 1135.7868,-451.5 "/>
<text text-anchor="middle" x="1189.2868" y="-413.3" font-family="Times,serif" font-size="14.00" fill="#000000">poutputnode</text>
<polyline fill="none" stroke="#000000" points="1135.7868,-382.5 1242.7868,-382.5 "/>
<text text-anchor="middle" x="1189.2868" y="-344.3" font-family="Times,serif" font-size="14.00" fill="#000000">utility</text>
<polyline fill="none" stroke="#000000" points="1135.7868,-313.5 1242.7868,-313.5 "/>
<text text-anchor="middle" x="1189.2868" y="-275.3" font-family="Times,serif" font-size="14.00" fill="#000000"> </text>
<polyline fill="none" stroke="#000000" points="1242.7868,-244.5 1242.7868,-451.5 "/>
<text text-anchor="middle" x="1303.2868" y="-436.3" font-family="Times,serif" font-size="14.00" fill="#000000">OUT</text>
<polyline fill="none" stroke="#000000" points="1242.7868,-428.5 1363.7868,-428.5 "/>
<text text-anchor="middle" x="1303.2868" y="-413.3" font-family="Times,serif" font-size="14.00" fill="#000000">anat2std_xfm</text>
<polyline fill="none" stroke="#000000" points="1242.7868,-405.5 1363.7868,-405.5 "/>
<text text-anchor="middle" x="1303.2868" y="-390.3" font-family="Times,serif" font-size="14.00" fill="#000000">standardized</text>
<polyline fill="none" stroke="#000000" points="1242.7868,-382.5 1363.7868,-382.5 "/>
<text text-anchor="middle" x="1303.2868" y="-367.3" font-family="Times,serif" font-size="14.00" fill="#000000">std2anat_xfm</text>
<polyline fill="none" stroke="#000000" points="1242.7868,-359.5 1363.7868,-359.5 "/>
<text text-anchor="middle" x="1303.2868" y="-344.3" font-family="Times,serif" font-size="14.00" fill="#000000">std_dseg</text>
<polyline fill="none" stroke="#000000" points="1242.7868,-336.5 1363.7868,-336.5 "/>
<text text-anchor="middle" x="1303.2868" y="-321.3" font-family="Times,serif" font-size="14.00" fill="#000000">std_mask</text>
<polyline fill="none" stroke="#000000" points="1242.7868,-313.5 1363.7868,-313.5 "/>
<text text-anchor="middle" x="1303.2868" y="-298.3" font-family="Times,serif" font-size="14.00" fill="#000000">std_tpms</text>
<polyline fill="none" stroke="#000000" points="1242.7868,-290.5 1363.7868,-290.5 "/>
<text text-anchor="middle" x="1303.2868" y="-275.3" font-family="Times,serif" font-size="14.00" fill="#000000">template</text>
<polyline fill="none" stroke="#000000" points="1242.7868,-267.5 1363.7868,-267.5 "/>
<text text-anchor="middle" x="1303.2868" y="-252.3" font-family="Times,serif" font-size="14.00" fill="#000000">template_spec</text>
</g>
<!-- anat_norm_wfinputnode&#45;&gt;anat_norm_wfpoutputnode -->
<g id="edge8" class="edge">
<title>anat_norm_wfinputnode:e&#45;&gt;anat_norm_wfpoutputnode:w</title>
<path fill="none" stroke="#000000" d="M518.2868,-910C612.0069,-910 846.8111,-886.4459 937.2868,-862 1237.1867,-780.9693 1407.4212,-841.0991 1577.2868,-581 1599.8879,-546.3931 1605.566,-518.1452 1577.2868,-488 1491.5143,-396.5677 1100.0594,-543.4323 1014.2868,-452 964.1474,-398.552 939.7368,-289.8279 1004.1337,-279.7524"/>
<polygon fill="#000000" stroke="#000000" points="1004.5729,-283.2296 1014.2868,-279 1004.0555,-276.2487 1004.5729,-283.2296"/>
</g>
<!-- anat_norm_wftrunc_mov&#45;&gt;anat_norm_wfregistration -->
<g id="edge37" class="edge">
<title>anat_norm_wftrunc_mov:e&#45;&gt;anat_norm_wfregistration:w</title>
<path fill="none" stroke="#000000" d="M429.2868,-810C437.2868,-810 434.6718,-797.9163 429.2868,-792 371.8934,-728.9435 104.6802,-819.0565 47.2868,-756 40.8361,-748.9128 36.874,-720.1126 40.6867,-706.1555"/>
<polygon fill="#000000" stroke="#000000" points="43.4079,-708.3593 47.2868,-698.5 38.1062,-703.7884 43.4079,-708.3593"/>
</g>
<!-- anat_norm_wfsplit_desc&#45;&gt;anat_norm_wfregistration -->
<g id="edge24" class="edge">
<title>anat_norm_wfsplit_desc:e&#45;&gt;anat_norm_wfregistration:w</title>
<path fill="none" stroke="#000000" d="M792.2868,-827C807.8424,-827 803.0175,-803.2618 792.2868,-792 735.1175,-732.0014 104.4562,-815.9986 47.2868,-756 40.7789,-749.17 37.1812,-684.4524 42.2888,-660.4235"/>
<polygon fill="#000000" stroke="#000000" points="45.4537,-661.9351 47.2868,-651.5 39.3464,-658.5143 45.4537,-661.9351"/>
</g>
<!-- anat_norm_wfsplit_desc&#45;&gt;anat_norm_wfregistration -->
<g id="edge27" class="edge">
<title>anat_norm_wfsplit_desc:e&#45;&gt;anat_norm_wfregistration:w</title>
<path fill="none" stroke="#000000" d="M792.2868,-804C797.6202,-804 795.9659,-795.8612 792.2868,-792 735.1175,-732.0014 104.4562,-815.9986 47.2868,-756 39.1175,-747.4264 34.7067,-664.0909 41.7547,-636.9772"/>
<polygon fill="#000000" stroke="#000000" points="44.7528,-638.7873 47.2868,-628.5 38.8906,-634.9617 44.7528,-638.7873"/>
</g>
<!-- anat_norm_wftf_select -->
<g id="node5" class="node">
<title>anat_norm_wftf_select</title>
<polygon fill="none" stroke="#000000" points="554.7868,-652 554.7868,-721 859.7868,-721 859.7868,-652 554.7868,-652"/>
<text text-anchor="middle" x="615.2868" y="-705.8" font-family="Times,serif" font-size="14.00" fill="#000000">IN</text>
<polyline fill="none" stroke="#000000" points="554.7868,-698 675.7868,-698 "/>
<text text-anchor="middle" x="615.2868" y="-682.8" font-family="Times,serif" font-size="14.00" fill="#000000">template</text>
<polyline fill="none" stroke="#000000" points="554.7868,-675 675.7868,-675 "/>
<text text-anchor="middle" x="615.2868" y="-659.8" font-family="Times,serif" font-size="14.00" fill="#000000">template_spec</text>
<polyline fill="none" stroke="#000000" points="675.7868,-652 675.7868,-721 "/>
<text text-anchor="middle" x="730.7868" y="-705.8" font-family="Times,serif" font-size="14.00" fill="#000000">tf_select</text>
<polyline fill="none" stroke="#000000" points="675.7868,-698 785.7868,-698 "/>
<text text-anchor="middle" x="730.7868" y="-682.8" font-family="Times,serif" font-size="14.00" fill="#000000">templateflow</text>
<polyline fill="none" stroke="#000000" points="675.7868,-675 785.7868,-675 "/>
<text text-anchor="middle" x="730.7868" y="-659.8" font-family="Times,serif" font-size="14.00" fill="#000000"> </text>
<polyline fill="none" stroke="#000000" points="785.7868,-652 785.7868,-721 "/>
<text text-anchor="middle" x="822.7868" y="-700.3" font-family="Times,serif" font-size="14.00" fill="#000000">OUT</text>
<polyline fill="none" stroke="#000000" points="785.7868,-687 859.7868,-687 "/>
<text text-anchor="middle" x="822.7868" y="-665.8" font-family="Times,serif" font-size="14.00" fill="#000000">t1w_file</text>
</g>
<!-- anat_norm_wfsplit_desc&#45;&gt;anat_norm_wftf_select -->
<g id="edge25" class="edge">
<title>anat_norm_wfsplit_desc:e&#45;&gt;anat_norm_wftf_select:w</title>
<path fill="none" stroke="#000000" d="M792.2868,-827C807.8424,-827 801.5941,-804.464 792.2868,-792 726.2793,-703.6048 620.2944,-809.8952 554.2868,-721.5 547.8881,-712.931 542.9352,-699.6014 545.5193,-692.1072"/>
<polygon fill="#000000" stroke="#000000" points="547.7481,-694.8364 554.2868,-686.5 543.9766,-688.9393 547.7481,-694.8364"/>
</g>
<!-- anat_norm_wfsplit_desc&#45;&gt;anat_norm_wftf_select -->
<g id="edge28" class="edge">
<title>anat_norm_wfsplit_desc:e&#45;&gt;anat_norm_wftf_select:w</title>
<path fill="none" stroke="#000000" d="M792.2868,-804C797.6202,-804 795.4779,-796.2734 792.2868,-792 726.2793,-703.6048 620.2944,-809.8952 554.2868,-721.5 548.503,-713.7545 544.1449,-685.0023 547.7649,-671.1102"/>
<polygon fill="#000000" stroke="#000000" points="550.4371,-673.3707 554.2868,-663.5 545.1219,-668.8156 550.4371,-673.3707"/>
</g>
<!-- anat_norm_wfsplit_desc&#45;&gt;anat_norm_wfpoutputnode -->
<g id="edge26" class="edge">
<title>anat_norm_wfsplit_desc:e&#45;&gt;anat_norm_wfpoutputnode:w</title>
<path fill="none" stroke="#000000" d="M792.2868,-804C968.7225,-804 1448.4895,-722.1965 1554.2868,-581 1579.0718,-547.9221 1582.5251,-518.1835 1554.2868,-488 1472.1228,-400.1759 1096.4509,-539.8241 1014.2868,-452 957.2149,-390.9966 929.4933,-266.7442 1004.1413,-256.6543"/>
<polygon fill="#000000" stroke="#000000" points="1004.5328,-260.1364 1014.2868,-256 1004.0823,-253.1509 1004.5328,-260.1364"/>
</g>
<!-- anat_norm_wfregistration&#45;&gt;anat_norm_wfstd_tpms -->
<g id="edge21" class="edge">
<title>anat_norm_wfregistration:e&#45;&gt;anat_norm_wfstd_tpms:w</title>
<path fill="none" stroke="#000000" d="M499.2868,-686.5C536.5758,-686.5 513.8445,-635.3838 546.2868,-617 609.7008,-581.0658 1148.6529,-631.421 1201.2868,-581 1211.7075,-571.0175 1199.189,-525.6194 1202.6329,-507.2497"/>
<polygon fill="#000000" stroke="#000000" points="1205.428,-509.3671 1209.2868,-499.5 1200.117,-504.8071 1205.428,-509.3671"/>
</g>
<!-- anat_norm_wfregistration&#45;&gt;anat_norm_wfstd_dseg -->
<g id="edge19" class="edge">
<title>anat_norm_wfregistration:e&#45;&gt;anat_norm_wfstd_dseg:w</title>
<path fill="none" stroke="#000000" d="M499.2868,-686.5C517.3927,-686.5 491.9769,-544.6036 498.8623,-508.0209"/>
<polygon fill="#000000" stroke="#000000" points="501.869,-509.8153 504.2868,-499.5 495.964,-506.0561 501.869,-509.8153"/>
</g>
<!-- anat_norm_wfregistration&#45;&gt;anat_norm_wfstd_mask -->
<g id="edge20" class="edge">
<title>anat_norm_wfregistration:e&#45;&gt;anat_norm_wfstd_mask:w</title>
<path fill="none" stroke="#000000" d="M499.2868,-686.5C536.5758,-686.5 514.4582,-636.427 546.2868,-617 603.4112,-582.1335 798.1976,-628.5549 845.2868,-581 855.5034,-570.6824 843.5818,-525.0552 847.5374,-506.9448"/>
<polygon fill="#000000" stroke="#000000" points="850.1632,-509.2594 854.2868,-499.5 844.9772,-504.5578 850.1632,-509.2594"/>
</g>
<!-- anat_norm_wfregistration&#45;&gt;anat_norm_wftpl_moving -->
<g id="edge22" class="edge">
<title>anat_norm_wfregistration:e&#45;&gt;anat_norm_wftpl_moving:w</title>
<path fill="none" stroke="#000000" d="M499.2868,-686.5C514.7313,-686.5 509.6517,-628.4499 499.2868,-617 445.1821,-557.2314 192.3916,-640.7686 138.2868,-581 128.4113,-570.0907 122.6273,-523.1063 130.5199,-505.8706"/>
<polygon fill="#000000" stroke="#000000" points="132.7747,-508.548 138.2868,-499.5 128.3353,-503.1358 132.7747,-508.548"/>
</g>
<!-- anat_norm_wfregistration&#45;&gt;anat_norm_wfpoutputnode -->
<g id="edge18" class="edge">
<title>anat_norm_wfregistration:e&#45;&gt;anat_norm_wfpoutputnode:w</title>
<path fill="none" stroke="#000000" d="M499.2868,-686.5C514.7313,-686.5 509.7105,-628.3964 499.2868,-617 438.6036,-550.6543 156.97,-647.3457 96.2868,-581 68.3903,-550.5004 68.2092,-518.333 96.2868,-488 129.6092,-452.0009 896.2177,-419.7517 1004.1603,-417.1668"/>
<polygon fill="#000000" stroke="#000000" points="1004.3459,-420.6644 1014.2868,-417 1004.2305,-413.6653 1004.3459,-420.6644"/>
</g>
<!-- anat_norm_wfregistration&#45;&gt;anat_norm_wfpoutputnode -->
<g id="edge23" class="edge">
<title>anat_norm_wfregistration:e&#45;&gt;anat_norm_wfpoutputnode:w</title>
<path fill="none" stroke="#000000" d="M499.2868,-640.5C509.7313,-640.5 506.3055,-624.7347 499.2868,-617 443.7728,-555.8225 184.8008,-642.1775 129.2868,-581 101.511,-550.3904 102.0423,-519.0834 129.2868,-488 192.751,-415.5934 873.4474,-373.5125 1004.0015,-371.1089"/>
<polygon fill="#000000" stroke="#000000" points="1004.3245,-374.6058 1014.2868,-371 1004.2503,-367.6062 1004.3245,-374.6058"/>
</g>
<!-- anat_norm_wftf_select&#45;&gt;anat_norm_wfstd_tpms -->
<g id="edge34" class="edge">
<title>anat_norm_wftf_select:e&#45;&gt;anat_norm_wfstd_tpms:w</title>
<path fill="none" stroke="#000000" d="M860.2868,-669.5C938.5751,-669.5 1149.2898,-639.5266 1201.2868,-581 1207.6866,-573.7965 1201.9249,-545.6237 1203.6091,-531.1652"/>
<polygon fill="#000000" stroke="#000000" points="1206.7337,-532.7826 1209.2868,-522.5 1200.8786,-528.9461 1206.7337,-532.7826"/>
</g>
<!-- anat_norm_wftf_select&#45;&gt;anat_norm_wfstd_dseg -->
<g id="edge32" class="edge">
<title>anat_norm_wftf_select:e&#45;&gt;anat_norm_wfstd_dseg:w</title>
<path fill="none" stroke="#000000" d="M860.2868,-669.5C868.2868,-669.5 865.3646,-657.6819 860.2868,-651.5 757.9097,-526.8606 606.6639,-705.6394 504.2868,-581 498.0983,-573.4658 493.8801,-544.3266 497.6421,-530.228"/>
<polygon fill="#000000" stroke="#000000" points="500.421,-532.3644 504.2868,-522.5 495.1133,-527.8006 500.421,-532.3644"/>
</g>
<!-- anat_norm_wftf_select&#45;&gt;anat_norm_wfstd_mask -->
<g id="edge33" class="edge">
<title>anat_norm_wftf_select:e&#45;&gt;anat_norm_wfstd_mask:w</title>
<path fill="none" stroke="#000000" d="M860.2868,-669.5C888.894,-669.5 837.8136,-556.9531 846.4989,-528.8164"/>
<polygon fill="#000000" stroke="#000000" points="848.7249,-531.5175 854.2868,-522.5 844.3154,-526.0808 848.7249,-531.5175"/>
</g>
<!-- anat_norm_wftf_select&#45;&gt;anat_norm_wftpl_moving -->
<g id="edge35" class="edge">
<title>anat_norm_wftf_select:e&#45;&gt;anat_norm_wftpl_moving:w</title>
<path fill="none" stroke="#000000" d="M860.2868,-669.5C868.2868,-669.5 865.6607,-657.4263 860.2868,-651.5 806.1425,-591.7894 192.4523,-640.6914 138.2868,-581 131.7349,-573.7796 127.6983,-544.4836 131.574,-530.2868"/>
<polygon fill="#000000" stroke="#000000" points="134.4083,-532.3594 138.2868,-522.5 129.1064,-527.7887 134.4083,-532.3594"/>
</g>
<!-- anat_norm_wfstd_tpms&#45;&gt;anat_norm_wfpoutputnode -->
<g id="edge31" class="edge">
<title>anat_norm_wfstd_tpms:e&#45;&gt;anat_norm_wfpoutputnode:w</title>
<path fill="none" stroke="#000000" d="M1545.2868,-511.5C1555.7313,-511.5 1552.418,-495.631 1545.2868,-488 1464.5346,-401.5877 1095.039,-538.4123 1014.2868,-452 971.2579,-405.9551 950.0062,-312.9215 1004.1268,-302.8836"/>
<polygon fill="#000000" stroke="#000000" points="1004.6277,-306.3534 1014.2868,-302 1004.0211,-299.3797 1004.6277,-306.3534"/>
</g>
<!-- anat_norm_wfstd_dseg&#45;&gt;anat_norm_wfpoutputnode -->
<g id="edge29" class="edge">
<title>anat_norm_wfstd_dseg:e&#45;&gt;anat_norm_wfpoutputnode:w</title>
<path fill="none" stroke="#000000" d="M836.2868,-511.5C847.6376,-511.5 839.5156,-497.1099 846.2868,-488 902.1726,-412.8125 916.1068,-352.5009 1004.0755,-348.2406"/>
<polygon fill="#000000" stroke="#000000" points="1004.3721,-351.7347 1014.2868,-348 1004.2071,-344.7367 1004.3721,-351.7347"/>
</g>
<!-- anat_norm_wfstd_mask&#45;&gt;anat_norm_wfpoutputnode -->
<g id="edge30" class="edge">
<title>anat_norm_wfstd_mask:e&#45;&gt;anat_norm_wfpoutputnode:w</title>
<path fill="none" stroke="#000000" d="M1192.2868,-511.5C1202.7313,-511.5 1198.8998,-496.0843 1192.2868,-488 1141.1832,-425.5261 1065.3905,-514.4739 1014.2868,-452 980.8523,-411.1264 960.574,-335.5747 1004.3176,-326.0054"/>
<polygon fill="#000000" stroke="#000000" points="1004.6885,-329.4858 1014.2868,-325 1003.9861,-322.5211 1004.6885,-329.4858"/>
</g>
<!-- anat_norm_wftpl_moving&#45;&gt;anat_norm_wfpoutputnode -->
<g id="edge36" class="edge">
<title>anat_norm_wftpl_moving:e&#45;&gt;anat_norm_wfpoutputnode:w</title>
<path fill="none" stroke="#000000" d="M486.2868,-511.5C497.471,-511.5 486.6761,-495.1374 495.2868,-488 583.0591,-415.2462 880.2046,-395.0916 1004.2446,-394.0438"/>
<polygon fill="#000000" stroke="#000000" points="1004.3022,-397.5437 1014.2868,-394 1004.2716,-390.5438 1004.3022,-397.5437"/>
</g>
<!-- anat_norm_wfoutputnode -->
<g id="node11" class="node">
<title>anat_norm_wfoutputnode</title>
<polygon fill="none" stroke="#000000" points="1364.7868,-.5 1364.7868,-207.5 1633.7868,-207.5 1633.7868,-.5 1364.7868,-.5"/>
<text text-anchor="middle" x="1425.2868" y="-192.3" font-family="Times,serif" font-size="14.00" fill="#000000">IN</text>
<polyline fill="none" stroke="#000000" points="1364.7868,-184.5 1485.7868,-184.5 "/>
<text text-anchor="middle" x="1425.2868" y="-169.3" font-family="Times,serif" font-size="14.00" fill="#000000">anat2std_xfm</text>
<polyline fill="none" stroke="#000000" points="1364.7868,-161.5 1485.7868,-161.5 "/>
<text text-anchor="middle" x="1425.2868" y="-146.3" font-family="Times,serif" font-size="14.00" fill="#000000">standardized</text>
<polyline fill="none" stroke="#000000" points="1364.7868,-138.5 1485.7868,-138.5 "/>
<text text-anchor="middle" x="1425.2868" y="-123.3" font-family="Times,serif" font-size="14.00" fill="#000000">std2anat_xfm</text>
<polyline fill="none" stroke="#000000" points="1364.7868,-115.5 1485.7868,-115.5 "/>
<text text-anchor="middle" x="1425.2868" y="-100.3" font-family="Times,serif" font-size="14.00" fill="#000000">std_dseg</text>
<polyline fill="none" stroke="#000000" points="1364.7868,-92.5 1485.7868,-92.5 "/>
<text text-anchor="middle" x="1425.2868" y="-77.3" font-family="Times,serif" font-size="14.00" fill="#000000">std_mask</text>
<polyline fill="none" stroke="#000000" points="1364.7868,-69.5 1485.7868,-69.5 "/>
<text text-anchor="middle" x="1425.2868" y="-54.3" font-family="Times,serif" font-size="14.00" fill="#000000">std_tpms</text>
<polyline fill="none" stroke="#000000" points="1364.7868,-46.5 1485.7868,-46.5 "/>
<text text-anchor="middle" x="1425.2868" y="-31.3" font-family="Times,serif" font-size="14.00" fill="#000000">template</text>
<polyline fill="none" stroke="#000000" points="1364.7868,-23.5 1485.7868,-23.5 "/>
<text text-anchor="middle" x="1425.2868" y="-8.3" font-family="Times,serif" font-size="14.00" fill="#000000">template_spec</text>
<polyline fill="none" stroke="#000000" points="1485.7868,-.5 1485.7868,-207.5 "/>
<text text-anchor="middle" x="1534.7868" y="-169.3" font-family="Times,serif" font-size="14.00" fill="#000000">outputnode</text>
<polyline fill="none" stroke="#000000" points="1485.7868,-138.5 1583.7868,-138.5 "/>
<text text-anchor="middle" x="1534.7868" y="-100.3" font-family="Times,serif" font-size="14.00" fill="#000000">utility</text>
<polyline fill="none" stroke="#000000" points="1485.7868,-69.5 1583.7868,-69.5 "/>
<text text-anchor="middle" x="1534.7868" y="-31.3" font-family="Times,serif" font-size="14.00" fill="#000000"> </text>
<polyline fill="none" stroke="#000000" points="1583.7868,-.5 1583.7868,-207.5 "/>
<text text-anchor="middle" x="1608.7868" y="-100.3" font-family="Times,serif" font-size="14.00" fill="#000000">OUT</text>
</g>
<!-- anat_norm_wfpoutputnode&#45;&gt;anat_norm_wfoutputnode -->
<g id="edge10" class="edge">
<title>anat_norm_wfpoutputnode:e&#45;&gt;anat_norm_wfoutputnode:w</title>
<path fill="none" stroke="#000000" d="M1364.2868,-417C1364.2868,-417 1364.2868,-229.3526 1364.2868,-183.1737"/>
<polygon fill="#000000" stroke="#000000" points="1367.7869,-183 1364.2868,-173 1360.7869,-183 1367.7869,-183"/>
</g>
<!-- anat_norm_wfpoutputnode&#45;&gt;anat_norm_wfoutputnode -->
<g id="edge11" class="edge">
<title>anat_norm_wfpoutputnode:e&#45;&gt;anat_norm_wfoutputnode:w</title>
<path fill="none" stroke="#000000" d="M1364.2868,-394C1364.2868,-394 1364.2868,-206.3526 1364.2868,-160.1737"/>
<polygon fill="#000000" stroke="#000000" points="1367.7869,-160 1364.2868,-150 1360.7869,-160 1367.7869,-160"/>
</g>
<!-- anat_norm_wfpoutputnode&#45;&gt;anat_norm_wfoutputnode -->
<g id="edge12" class="edge">
<title>anat_norm_wfpoutputnode:e&#45;&gt;anat_norm_wfoutputnode:w</title>
<path fill="none" stroke="#000000" d="M1364.2868,-371C1364.2868,-371 1364.2868,-183.3526 1364.2868,-137.1737"/>
<polygon fill="#000000" stroke="#000000" points="1367.7869,-137 1364.2868,-127 1360.7869,-137 1367.7869,-137"/>
</g>
<!-- anat_norm_wfpoutputnode&#45;&gt;anat_norm_wfoutputnode -->
<g id="edge13" class="edge">
<title>anat_norm_wfpoutputnode:e&#45;&gt;anat_norm_wfoutputnode:w</title>
<path fill="none" stroke="#000000" d="M1364.2868,-348C1469.0247,-348 1270.2887,-120.3946 1354.2813,-104.8357"/>
<polygon fill="#000000" stroke="#000000" points="1354.6129,-108.3203 1364.2868,-104 1354.0302,-101.3445 1354.6129,-108.3203"/>
</g>
<!-- anat_norm_wfpoutputnode&#45;&gt;anat_norm_wfoutputnode -->
<g id="edge14" class="edge">
<title>anat_norm_wfpoutputnode:e&#45;&gt;anat_norm_wfoutputnode:w</title>
<path fill="none" stroke="#000000" d="M1364.2868,-325C1364.2868,-325 1364.2868,-137.3526 1364.2868,-91.1737"/>
<polygon fill="#000000" stroke="#000000" points="1367.7869,-91 1364.2868,-81 1360.7869,-91 1367.7869,-91"/>
</g>
<!-- anat_norm_wfpoutputnode&#45;&gt;anat_norm_wfoutputnode -->
<g id="edge15" class="edge">
<title>anat_norm_wfpoutputnode:e&#45;&gt;anat_norm_wfoutputnode:w</title>
<path fill="none" stroke="#000000" d="M1364.2868,-302C1364.2868,-302 1364.2868,-114.3526 1364.2868,-68.1737"/>
<polygon fill="#000000" stroke="#000000" points="1367.7869,-68 1364.2868,-58 1360.7869,-68 1367.7869,-68"/>
</g>
<!-- anat_norm_wfpoutputnode&#45;&gt;anat_norm_wfoutputnode -->
<g id="edge16" class="edge">
<title>anat_norm_wfpoutputnode:e&#45;&gt;anat_norm_wfoutputnode:w</title>
<path fill="none" stroke="#000000" d="M1364.2868,-279C1364.2868,-279 1364.2868,-91.3526 1364.2868,-45.1737"/>
<polygon fill="#000000" stroke="#000000" points="1367.7869,-45 1364.2868,-35 1360.7869,-45 1367.7869,-45"/>
</g>
<!-- anat_norm_wfpoutputnode&#45;&gt;anat_norm_wfoutputnode -->
<g id="edge17" class="edge">
<title>anat_norm_wfpoutputnode:e&#45;&gt;anat_norm_wfoutputnode:w</title>
<path fill="none" stroke="#000000" d="M1364.2868,-256C1364.2868,-256 1364.2868,-68.3526 1364.2868,-22.1737"/>
<polygon fill="#000000" stroke="#000000" points="1367.7869,-22 1364.2868,-12 1360.7869,-22 1367.7869,-22"/>
</g>
</g>
</svg>
