<?xml version="1.0" encoding="UTF-8" standalone="no"?>
<!DOCTYPE svg PUBLIC "-//W3C//DTD SVG 1.1//EN"
 "http://www.w3.org/Graphics/SVG/1.1/DTD/svg11.dtd">
<!-- Generated by graphviz version 2.43.0 (0)
 -->
<!-- Title: %3 Pages: 1 -->
<svg width="430pt" height="332pt"
 viewBox="0.00 0.00 429.75 332.00" xmlns="http://www.w3.org/2000/svg" xmlns:xlink="http://www.w3.org/1999/xlink">
<g id="graph0" class="graph" transform="scale(1 1) rotate(0) translate(4 328)">
<title>%3</title>
<polygon fill="white" stroke="transparent" points="-4,4 -4,-328 425.75,-328 425.75,4 -4,4"/>
<!-- inputnode (utility) -->
<g id="node1" class="node">
<title>inputnode (utility)</title>
<ellipse fill="none" stroke="black" cx="266.94" cy="-306" rx="94.78" ry="18"/>
<text text-anchor="middle" x="266.94" y="-302.3" font-family="Times,serif" font-size="14.00">inputnode (utility)</text>
</g>
<!-- fs_datasource (patches) -->
<g id="node2" class="node">
<title>fs_datasource (patches)</title>
<ellipse fill="none" stroke="black" cx="266.94" cy="-234" rx="120.48" ry="18"/>
<text text-anchor="middle" x="266.94" y="-230.3" font-family="Times,serif" font-size="14.00">fs_datasource (patches)</text>
</g>
<!-- inputnode (utility)&#45;&gt;fs_datasource (patches) -->
<g id="edge1" class="edge">
<title>inputnode (utility)&#45;&gt;fs_datasource (patches)</title>
<path fill="none" stroke="black" d="M266.94,-287.7C266.94,-279.98 266.94,-270.71 266.94,-262.11"/>
<polygon fill="black" stroke="black" points="270.44,-262.1 266.94,-252.1 263.44,-262.1 270.44,-262.1"/>
</g>
<!-- lta (nitransforms) -->
<g id="node3" class="node">
<title>lta (nitransforms)</title>
<ellipse fill="none" stroke="black" cx="92.94" cy="-162" rx="92.88" ry="18"/>
<text text-anchor="middle" x="92.94" y="-158.3" font-family="Times,serif" font-size="14.00">lta (nitransforms)</text>
</g>
<!-- inputnode (utility)&#45;&gt;lta (nitransforms) -->
<g id="edge2" class="edge">
<title>inputnode (utility)&#45;&gt;lta (nitransforms)</title>
<path fill="none" stroke="black" d="M210.61,-291.47C186.01,-283.3 158.21,-270.74 137.94,-252 119.75,-235.18 107.84,-209.37 100.87,-189.86"/>
<polygon fill="black" stroke="black" points="104.17,-188.69 97.67,-180.32 97.53,-190.91 104.17,-188.69"/>
</g>
<!-- resample (freesurfer) -->
<g id="node4" class="node">
<title>resample (freesurfer)</title>
<ellipse fill="none" stroke="black" cx="299.94" cy="-90" rx="110.48" ry="18"/>
<text text-anchor="middle" x="299.94" y="-86.3" font-family="Times,serif" font-size="14.00">resample (freesurfer)</text>
</g>
<!-- inputnode (utility)&#45;&gt;resample (freesurfer) -->
<g id="edge3" class="edge">
<title>inputnode (utility)&#45;&gt;resample (freesurfer)</title>
<path fill="none" stroke="black" d="M331.85,-292.74C355.56,-284.98 380.36,-272.39 395.94,-252 425.19,-213.73 430.19,-185.02 404.94,-144 395.59,-128.81 380.4,-117.81 364.44,-109.92"/>
<polygon fill="black" stroke="black" points="365.54,-106.58 354.99,-105.62 362.64,-112.95 365.54,-106.58"/>
</g>
<!-- fs_datasource (patches)&#45;&gt;lta (nitransforms) -->
<g id="edge4" class="edge">
<title>fs_datasource (patches)&#45;&gt;lta (nitransforms)</title>
<path fill="none" stroke="black" d="M227.02,-216.94C201.35,-206.61 167.86,-193.14 140.77,-182.24"/>
<polygon fill="black" stroke="black" points="142.06,-178.99 131.48,-178.5 139.45,-185.48 142.06,-178.99"/>
</g>
<!-- select_seg (utility) -->
<g id="node5" class="node">
<title>select_seg (utility)</title>
<ellipse fill="none" stroke="black" cx="299.94" cy="-162" rx="96.38" ry="18"/>
<text text-anchor="middle" x="299.94" y="-158.3" font-family="Times,serif" font-size="14.00">select_seg (utility)</text>
</g>
<!-- fs_datasource (patches)&#45;&gt;select_seg (utility) -->
<g id="edge5" class="edge">
<title>fs_datasource (patches)&#45;&gt;select_seg (utility)</title>
<path fill="none" stroke="black" d="M275.1,-215.7C278.86,-207.73 283.39,-198.1 287.56,-189.26"/>
<polygon fill="black" stroke="black" points="290.78,-190.64 291.88,-180.1 284.45,-187.66 290.78,-190.64"/>
</g>
<!-- lta (nitransforms)&#45;&gt;resample (freesurfer) -->
<g id="edge6" class="edge">
<title>lta (nitransforms)&#45;&gt;resample (freesurfer)</title>
<path fill="none" stroke="black" d="M137.09,-146.07C168.43,-135.47 210.74,-121.16 244.38,-109.79"/>
<polygon fill="black" stroke="black" points="245.71,-113.03 254.06,-106.51 243.47,-106.4 245.71,-113.03"/>
</g>
<!-- outputnode (utility) -->
<g id="node6" class="node">
<title>outputnode (utility)</title>
<ellipse fill="none" stroke="black" cx="299.94" cy="-18" rx="101.28" ry="18"/>
<text text-anchor="middle" x="299.94" y="-14.3" font-family="Times,serif" font-size="14.00">outputnode (utility)</text>
</g>
<!-- resample (freesurfer)&#45;&gt;outputnode (utility) -->
<g id="edge7" class="edge">
<title>resample (freesurfer)&#45;&gt;outputnode (utility)</title>
<path fill="none" stroke="black" d="M299.94,-71.7C299.94,-63.98 299.94,-54.71 299.94,-46.11"/>
<polygon fill="black" stroke="black" points="303.44,-46.1 299.94,-36.1 296.44,-46.1 303.44,-46.1"/>
</g>
<!-- select_seg (utility)&#45;&gt;resample (freesurfer) -->
<g id="edge8" class="edge">
<title>select_seg (utility)&#45;&gt;resample (freesurfer)</title>
<path fill="none" stroke="black" d="M299.94,-143.7C299.94,-135.98 299.94,-126.71 299.94,-118.11"/>
<polygon fill="black" stroke="black" points="303.44,-118.1 299.94,-108.1 296.44,-118.1 303.44,-118.1"/>
</g>
</g>
</svg>
