<?xml version="1.0" encoding="UTF-8" standalone="no"?>
<!DOCTYPE svg PUBLIC "-//W3C//DTD SVG 1.1//EN"
 "http://www.w3.org/Graphics/SVG/1.1/DTD/svg11.dtd">
<!-- Generated by graphviz version 2.40.1 (20161225.0304)
 -->
<!-- Title: %3 Pages: 1 -->
<svg width="273pt" height="260pt"
 viewBox="0.00 0.00 273.08 260.00" xmlns="http://www.w3.org/2000/svg" xmlns:xlink="http://www.w3.org/1999/xlink">
<g id="graph0" class="graph" transform="scale(1 1) rotate(0) translate(4 256)">
<title>%3</title>
<polygon fill="#ffffff" stroke="transparent" points="-4,4 -4,-256 269.0819,-256 269.0819,4 -4,4"/>
<!-- inputnode (utility) -->
<g id="node1" class="node">
<title>inputnode (utility)</title>
<ellipse fill="none" stroke="#000000" cx="154.5917" cy="-234" rx="94.7833" ry="18"/>
<text text-anchor="middle" x="154.5917" y="-230.3" font-family="Times,serif" font-size="14.00" fill="#000000">inputnode (utility)</text>
</g>
<!-- fs_datasource (io) -->
<g id="node2" class="node">
<title>fs_datasource (io)</title>
<ellipse fill="none" stroke="#000000" cx="93.5917" cy="-162" rx="93.6835" ry="18"/>
<text text-anchor="middle" x="93.5917" y="-158.3" font-family="Times,serif" font-size="14.00" fill="#000000">fs_datasource (io)</text>
</g>
<!-- inputnode (utility)&#45;&gt;fs_datasource (io) -->
<g id="edge1" class="edge">
<title>inputnode (utility)&#45;&gt;fs_datasource (io)</title>
<path fill="none" stroke="#000000" d="M139.513,-216.2022C132.1812,-207.5483 123.236,-196.99 115.1949,-187.4988"/>
<polygon fill="#000000" stroke="#000000" points="117.843,-185.2099 108.7083,-179.8425 112.5021,-189.7349 117.843,-185.2099"/>
</g>
<!-- resample (freesurfer) -->
<g id="node3" class="node">
<title>resample (freesurfer)</title>
<ellipse fill="none" stroke="#000000" cx="154.5917" cy="-90" rx="110.4804" ry="18"/>
<text text-anchor="middle" x="154.5917" y="-86.3" font-family="Times,serif" font-size="14.00" fill="#000000">resample (freesurfer)</text>
</g>
<!-- inputnode (utility)&#45;&gt;resample (freesurfer) -->
<g id="edge2" class="edge">
<title>inputnode (utility)&#45;&gt;resample (freesurfer)</title>
<path fill="none" stroke="#000000" d="M173.6417,-215.8859C182.4487,-206.1885 191.9663,-193.4808 196.5917,-180 201.7843,-164.866 201.7843,-159.134 196.5917,-144 193.1227,-133.8894 186.9018,-124.2137 180.2927,-115.9166"/>
<polygon fill="#000000" stroke="#000000" points="182.7925,-113.4539 173.6417,-108.1141 177.4652,-117.9949 182.7925,-113.4539"/>
</g>
<!-- fs_datasource (io)&#45;&gt;resample (freesurfer) -->
<g id="edge3" class="edge">
<title>fs_datasource (io)&#45;&gt;resample (freesurfer)</title>
<path fill="none" stroke="#000000" d="M108.6704,-144.2022C116.0022,-135.5483 124.9474,-124.99 132.9885,-115.4988"/>
<polygon fill="#000000" stroke="#000000" points="135.6813,-117.7349 139.4751,-107.8425 130.3404,-113.2099 135.6813,-117.7349"/>
</g>
<!-- outputnode (utility) -->
<g id="node4" class="node">
<title>outputnode (utility)</title>
<ellipse fill="none" stroke="#000000" cx="154.5917" cy="-18" rx="101.2821" ry="18"/>
<text text-anchor="middle" x="154.5917" y="-14.3" font-family="Times,serif" font-size="14.00" fill="#000000">outputnode (utility)</text>
</g>
<!-- resample (freesurfer)&#45;&gt;outputnode (utility) -->
<g id="edge4" class="edge">
<title>resample (freesurfer)&#45;&gt;outputnode (utility)</title>
<path fill="none" stroke="#000000" d="M154.5917,-71.8314C154.5917,-64.131 154.5917,-54.9743 154.5917,-46.4166"/>
<polygon fill="#000000" stroke="#000000" points="158.0918,-46.4132 154.5917,-36.4133 151.0918,-46.4133 158.0918,-46.4132"/>
</g>
</g>
</svg>
