<?xml version="1.0" encoding="UTF-8" standalone="no"?>
<!DOCTYPE svg PUBLIC "-//W3C//DTD SVG 1.1//EN"
 "http://www.w3.org/Graphics/SVG/1.1/DTD/svg11.dtd">
<!-- Generated by graphviz version 2.40.1 (20161225.0304)
 -->
<!-- Title: %3 Pages: 1 -->
<svg width="850pt" height="692pt"
 viewBox="0.00 0.00 850.44 692.00" xmlns="http://www.w3.org/2000/svg" xmlns:xlink="http://www.w3.org/1999/xlink">
<g id="graph0" class="graph" transform="scale(1 1) rotate(0) translate(4 688)">
<title>%3</title>
<polygon fill="#ffffff" stroke="transparent" points="-4,4 -4,-688 846.4423,-688 846.4423,4 -4,4"/>
<!-- outputnode (utility) -->
<g id="node1" class="node">
<title>outputnode (utility)</title>
<ellipse fill="none" stroke="#000000" cx="426" cy="-90" rx="101.2821" ry="18"/>
<text text-anchor="middle" x="426" y="-86.3" font-family="Times,serif" font-size="14.00" fill="#000000">outputnode (utility)</text>
</g>
<!-- anat_reports_wf -->
<g id="node2" class="node">
<title>anat_reports_wf</title>
<ellipse fill="none" stroke="#000000" cx="756" cy="-18" rx="86.3847" ry="18"/>
<text text-anchor="middle" x="756" y="-14.3" font-family="Times,serif" font-size="14.00" fill="#000000">anat_reports_wf</text>
</g>
<!-- outputnode (utility)&#45;&gt;anat_reports_wf -->
<g id="edge1" class="edge">
<title>outputnode (utility)&#45;&gt;anat_reports_wf</title>
<path fill="none" stroke="#000000" d="M490.0186,-76.0323C546.3628,-63.739 628.2333,-45.8764 686.2329,-33.2219"/>
<polygon fill="#000000" stroke="#000000" points="687.0256,-36.6314 696.0497,-31.0801 685.5334,-29.7923 687.0256,-36.6314"/>
</g>
<!-- anat_derivatives_wf -->
<g id="node3" class="node">
<title>anat_derivatives_wf</title>
<ellipse fill="none" stroke="#000000" cx="142" cy="-18" rx="103.9815" ry="18"/>
<text text-anchor="middle" x="142" y="-14.3" font-family="Times,serif" font-size="14.00" fill="#000000">anat_derivatives_wf</text>
</g>
<!-- outputnode (utility)&#45;&gt;anat_derivatives_wf -->
<g id="edge2" class="edge">
<title>outputnode (utility)&#45;&gt;anat_derivatives_wf</title>
<path fill="none" stroke="#000000" d="M367.4994,-75.1689C322.021,-63.6391 258.8202,-47.6164 210.8953,-35.4664"/>
<polygon fill="#000000" stroke="#000000" points="211.4658,-32.0004 200.9123,-32.9355 209.7455,-38.7857 211.4658,-32.0004"/>
</g>
<!-- inputnode (utility) -->
<g id="node4" class="node">
<title>inputnode (utility)</title>
<ellipse fill="none" stroke="#000000" cx="341" cy="-666" rx="94.7833" ry="18"/>
<text text-anchor="middle" x="341" y="-662.3" font-family="Times,serif" font-size="14.00" fill="#000000">inputnode (utility)</text>
</g>
<!-- inputnode (utility)&#45;&gt;anat_reports_wf -->
<g id="edge5" class="edge">
<title>inputnode (utility)&#45;&gt;anat_reports_wf</title>
<path fill="none" stroke="#000000" d="M427.369,-658.5048C568.2558,-643.8675 832,-605.3369 832,-522 832,-522 832,-522 832,-162 832,-116.3998 801.8234,-71.0908 779.5005,-43.812"/>
<polygon fill="#000000" stroke="#000000" points="781.9888,-41.3336 772.8669,-35.9447 776.6373,-45.8459 781.9888,-41.3336"/>
</g>
<!-- anat_template_wf -->
<g id="node5" class="node">
<title>anat_template_wf</title>
<ellipse fill="none" stroke="#000000" cx="581" cy="-594" rx="93.6835" ry="18"/>
<text text-anchor="middle" x="581" y="-590.3" font-family="Times,serif" font-size="14.00" fill="#000000">anat_template_wf</text>
</g>
<!-- inputnode (utility)&#45;&gt;anat_template_wf -->
<g id="edge3" class="edge">
<title>inputnode (utility)&#45;&gt;anat_template_wf</title>
<path fill="none" stroke="#000000" d="M391.8978,-650.7307C429.4447,-639.4666 480.6833,-624.095 520.3543,-612.1937"/>
<polygon fill="#000000" stroke="#000000" points="521.603,-615.4733 530.1755,-609.2473 519.5915,-608.7685 521.603,-615.4733"/>
</g>
<!-- anat_norm_wf -->
<g id="node6" class="node">
<title>anat_norm_wf</title>
<ellipse fill="none" stroke="#000000" cx="226" cy="-162" rx="76.8869" ry="18"/>
<text text-anchor="middle" x="226" y="-158.3" font-family="Times,serif" font-size="14.00" fill="#000000">anat_norm_wf</text>
</g>
<!-- inputnode (utility)&#45;&gt;anat_norm_wf -->
<g id="edge4" class="edge">
<title>inputnode (utility)&#45;&gt;anat_norm_wf</title>
<path fill="none" stroke="#000000" d="M276.8605,-652.6319C178.0811,-630.1741 0,-581.4438 0,-522 0,-522 0,-522 0,-378 0,-280.3589 111.6098,-213.2798 177.9632,-182.0282"/>
<polygon fill="#000000" stroke="#000000" points="179.788,-185.0411 187.406,-177.6779 176.859,-178.6833 179.788,-185.0411"/>
</g>
<!-- fs_isrunning (utility) -->
<g id="node7" class="node">
<title>fs_isrunning (utility)</title>
<ellipse fill="none" stroke="#000000" cx="341" cy="-522" rx="105.8812" ry="18"/>
<text text-anchor="middle" x="341" y="-518.3" font-family="Times,serif" font-size="14.00" fill="#000000">fs_isrunning (utility)</text>
</g>
<!-- inputnode (utility)&#45;&gt;fs_isrunning (utility) -->
<g id="edge6" class="edge">
<title>inputnode (utility)&#45;&gt;fs_isrunning (utility)</title>
<path fill="none" stroke="#000000" d="M341,-647.7623C341,-623.201 341,-579.2474 341,-550.3541"/>
<polygon fill="#000000" stroke="#000000" points="344.5001,-550.0896 341,-540.0896 337.5001,-550.0897 344.5001,-550.0896"/>
</g>
<!-- surface_recon_wf -->
<g id="node8" class="node">
<title>surface_recon_wf</title>
<ellipse fill="none" stroke="#000000" cx="414" cy="-378" rx="92.8835" ry="18"/>
<text text-anchor="middle" x="414" y="-374.3" font-family="Times,serif" font-size="14.00" fill="#000000">surface_recon_wf</text>
</g>
<!-- inputnode (utility)&#45;&gt;surface_recon_wf -->
<g id="edge7" class="edge">
<title>inputnode (utility)&#45;&gt;surface_recon_wf</title>
<path fill="none" stroke="#000000" d="M312.7858,-648.7516C269.7918,-620.1496 195.8793,-560.4472 226,-504 253.976,-451.572 314.5143,-417.1138 359.3753,-397.6917"/>
<polygon fill="#000000" stroke="#000000" points="360.8309,-400.8765 368.6929,-393.7744 358.118,-394.4236 360.8309,-400.8765"/>
</g>
<!-- anat_template_wf&#45;&gt;outputnode (utility) -->
<g id="edge9" class="edge">
<title>anat_template_wf&#45;&gt;outputnode (utility)</title>
<path fill="none" stroke="#000000" d="M635.2722,-579.2827C659.0485,-570.7733 686.0215,-558.0867 706,-540 739.9222,-509.2899 756,-495.7584 756,-450 756,-450 756,-450 756,-306 756,-186.675 603.0833,-129.7136 505.4377,-105.5045"/>
<polygon fill="#000000" stroke="#000000" points="506.1234,-102.0695 495.5813,-103.1249 504.4806,-108.874 506.1234,-102.0695"/>
</g>
<!-- anat_template_wf&#45;&gt;anat_reports_wf -->
<g id="edge10" class="edge">
<title>anat_template_wf&#45;&gt;anat_reports_wf</title>
<path fill="none" stroke="#000000" d="M648.1026,-581.3093C677.6484,-573.2091 711.3853,-560.2824 737,-540 774.1197,-510.6077 794,-497.3474 794,-450 794,-450 794,-450 794,-162 794,-120.3681 778.9672,-74.14 767.8119,-45.567"/>
<polygon fill="#000000" stroke="#000000" points="771.0368,-44.2055 764.0588,-36.2332 764.5422,-46.817 771.0368,-44.2055"/>
</g>
<!-- anat_template_wf&#45;&gt;anat_derivatives_wf -->
<g id="edge11" class="edge">
<title>anat_template_wf&#45;&gt;anat_derivatives_wf</title>
<path fill="none" stroke="#000000" d="M489.3701,-590.2936C397.9616,-584.8335 265.5942,-571.5899 226,-540 93.49,-434.2782 123.4352,-347.8892 100,-180 93.2917,-131.942 100.1066,-117.8472 116,-72 119.12,-62.9999 123.3334,-53.5312 127.4593,-45.0799"/>
<polygon fill="#000000" stroke="#000000" points="130.6357,-46.5541 132.0174,-36.0498 124.3867,-43.3998 130.6357,-46.5541"/>
</g>
<!-- anat_validate (images) -->
<g id="node9" class="node">
<title>anat_validate (images)</title>
<ellipse fill="none" stroke="#000000" cx="581" cy="-522" rx="116.1796" ry="18"/>
<text text-anchor="middle" x="581" y="-518.3" font-family="Times,serif" font-size="14.00" fill="#000000">anat_validate (images)</text>
</g>
<!-- anat_template_wf&#45;&gt;anat_validate (images) -->
<g id="edge8" class="edge">
<title>anat_template_wf&#45;&gt;anat_validate (images)</title>
<path fill="none" stroke="#000000" d="M581,-575.8314C581,-568.131 581,-558.9743 581,-550.4166"/>
<polygon fill="#000000" stroke="#000000" points="584.5001,-550.4132 581,-540.4133 577.5001,-550.4133 584.5001,-550.4132"/>
</g>
<!-- anat_norm_wf&#45;&gt;outputnode (utility) -->
<g id="edge12" class="edge">
<title>anat_norm_wf&#45;&gt;outputnode (utility)</title>
<path fill="none" stroke="#000000" d="M267.9266,-146.9064C297.9263,-136.1065 338.597,-121.4651 371.1716,-109.7382"/>
<polygon fill="#000000" stroke="#000000" points="372.7769,-112.8803 381.0002,-106.1999 370.4058,-106.2941 372.7769,-112.8803"/>
</g>
<!-- anat_norm_wf&#45;&gt;anat_reports_wf -->
<g id="edge13" class="edge">
<title>anat_norm_wf&#45;&gt;anat_reports_wf</title>
<path fill="none" stroke="#000000" d="M238.2153,-143.9285C253.6269,-122.7515 282.2363,-88.4665 316,-72 374.9464,-43.252 550.4191,-28.848 661.1401,-22.4307"/>
<polygon fill="#000000" stroke="#000000" points="661.5295,-25.9144 671.3149,-21.8529 661.1325,-18.9256 661.5295,-25.9144"/>
</g>
<!-- anat_norm_wf&#45;&gt;anat_derivatives_wf -->
<g id="edge14" class="edge">
<title>anat_norm_wf&#45;&gt;anat_derivatives_wf</title>
<path fill="none" stroke="#000000" d="M215.5312,-144.0535C201.0065,-119.154 174.6256,-73.9295 157.727,-44.9606"/>
<polygon fill="#000000" stroke="#000000" points="160.6627,-43.0469 152.6007,-36.1727 154.6163,-46.5741 160.6627,-43.0469"/>
</g>
<!-- fs_isrunning (utility)&#45;&gt;surface_recon_wf -->
<g id="edge15" class="edge">
<title>fs_isrunning (utility)&#45;&gt;surface_recon_wf</title>
<path fill="none" stroke="#000000" d="M350.0979,-504.0535C362.6659,-479.2618 385.4485,-434.3207 400.1413,-405.3378"/>
<polygon fill="#000000" stroke="#000000" points="403.3876,-406.6747 404.7874,-396.1727 397.144,-403.5095 403.3876,-406.6747"/>
</g>
<!-- surface_recon_wf&#45;&gt;outputnode (utility) -->
<g id="edge18" class="edge">
<title>surface_recon_wf&#45;&gt;outputnode (utility)</title>
<path fill="none" stroke="#000000" d="M414.7507,-359.9843C416.7794,-311.2939 422.3835,-176.7961 424.8309,-118.0573"/>
<polygon fill="#000000" stroke="#000000" points="428.3302,-118.146 425.2496,-108.0089 421.3363,-117.8545 428.3302,-118.146"/>
</g>
<!-- surface_recon_wf&#45;&gt;anat_reports_wf -->
<g id="edge20" class="edge">
<title>surface_recon_wf&#45;&gt;anat_reports_wf</title>
<path fill="none" stroke="#000000" d="M432.1976,-360.1934C442.7635,-349.7579 456.2635,-336.2579 468,-324 483.0108,-308.3224 482.219,-298.8804 501,-288 564.0695,-251.462 605.4034,-299.1361 661,-252 724.4049,-198.2439 746.0006,-95.7695 752.9382,-46.2196"/>
<polygon fill="#000000" stroke="#000000" points="756.4214,-46.5751 754.2394,-36.2074 749.4798,-45.673 756.4214,-46.5751"/>
</g>
<!-- surface_recon_wf&#45;&gt;anat_derivatives_wf -->
<g id="edge21" class="edge">
<title>surface_recon_wf&#45;&gt;anat_derivatives_wf</title>
<path fill="none" stroke="#000000" d="M331.1723,-369.812C264.009,-361.6283 176.1921,-346.9251 149,-324 116.1871,-296.3361 114,-276.9182 114,-234 114,-234 114,-234 114,-162 114,-121.1713 124.9803,-75.0082 133.1887,-46.2028"/>
<polygon fill="#000000" stroke="#000000" points="136.6027,-46.9987 136.0619,-36.4177 129.8862,-45.0265 136.6027,-46.9987"/>
</g>
<!-- applyrefined (fsl) -->
<g id="node11" class="node">
<title>applyrefined (fsl)</title>
<ellipse fill="none" stroke="#000000" cx="600" cy="-306" rx="90.1842" ry="18"/>
<text text-anchor="middle" x="600" y="-302.3" font-family="Times,serif" font-size="14.00" fill="#000000">applyrefined (fsl)</text>
</g>
<!-- surface_recon_wf&#45;&gt;applyrefined (fsl) -->
<g id="edge16" class="edge">
<title>surface_recon_wf&#45;&gt;applyrefined (fsl)</title>
<path fill="none" stroke="#000000" d="M455.742,-361.8418C483.2636,-351.1883 519.4947,-337.1633 548.7616,-325.8342"/>
<polygon fill="#000000" stroke="#000000" points="550.3351,-328.9783 558.3973,-322.1043 547.8081,-322.4503 550.3351,-328.9783"/>
</g>
<!-- buffernode (utility) -->
<g id="node12" class="node">
<title>buffernode (utility)</title>
<ellipse fill="none" stroke="#000000" cx="553" cy="-234" rx="98.5829" ry="18"/>
<text text-anchor="middle" x="553" y="-230.3" font-family="Times,serif" font-size="14.00" fill="#000000">buffernode (utility)</text>
</g>
<!-- surface_recon_wf&#45;&gt;buffernode (utility) -->
<g id="edge19" class="edge">
<title>surface_recon_wf&#45;&gt;buffernode (utility)</title>
<path fill="none" stroke="#000000" d="M421.8278,-359.7749C430.8458,-340.3166 447.1407,-309.3991 468,-288 480.0261,-275.6626 495.3892,-264.8217 509.7379,-256.1534"/>
<polygon fill="#000000" stroke="#000000" points="511.6265,-259.1038 518.5021,-251.043 508.1003,-253.0568 511.6265,-259.1038"/>
</g>
<!-- lut_t1w_dseg (utility) -->
<g id="node13" class="node">
<title>lut_t1w_dseg (utility)</title>
<ellipse fill="none" stroke="#000000" cx="268" cy="-306" rx="110.4804" ry="18"/>
<text text-anchor="middle" x="268" y="-302.3" font-family="Times,serif" font-size="14.00" fill="#000000">lut_t1w_dseg (utility)</text>
</g>
<!-- surface_recon_wf&#45;&gt;lut_t1w_dseg (utility) -->
<g id="edge17" class="edge">
<title>surface_recon_wf&#45;&gt;lut_t1w_dseg (utility)</title>
<path fill="none" stroke="#000000" d="M379.7695,-361.1192C359.4887,-351.1177 333.5839,-338.3427 311.8208,-327.6102"/>
<polygon fill="#000000" stroke="#000000" points="313.2925,-324.4336 302.7757,-323.1497 310.1964,-330.7117 313.2925,-324.4336"/>
</g>
<!-- anat_validate (images)&#45;&gt;surface_recon_wf -->
<g id="edge23" class="edge">
<title>anat_validate (images)&#45;&gt;surface_recon_wf</title>
<path fill="none" stroke="#000000" d="M531.3447,-505.6346C510.1088,-496.8806 486.0952,-484.4591 468,-468 448.8578,-450.5886 434.3362,-424.7999 425.1992,-405.2858"/>
<polygon fill="#000000" stroke="#000000" points="428.3208,-403.6931 421.0329,-396.003 421.9345,-406.5594 428.3208,-403.6931"/>
</g>
<!-- brain_extraction_wf -->
<g id="node10" class="node">
<title>brain_extraction_wf</title>
<ellipse fill="none" stroke="#000000" cx="581" cy="-450" rx="103.9815" ry="18"/>
<text text-anchor="middle" x="581" y="-446.3" font-family="Times,serif" font-size="14.00" fill="#000000">brain_extraction_wf</text>
</g>
<!-- anat_validate (images)&#45;&gt;brain_extraction_wf -->
<g id="edge22" class="edge">
<title>anat_validate (images)&#45;&gt;brain_extraction_wf</title>
<path fill="none" stroke="#000000" d="M581,-503.8314C581,-496.131 581,-486.9743 581,-478.4166"/>
<polygon fill="#000000" stroke="#000000" points="584.5001,-478.4132 581,-468.4133 577.5001,-478.4133 584.5001,-478.4132"/>
</g>
<!-- brain_extraction_wf&#45;&gt;outputnode (utility) -->
<g id="edge24" class="edge">
<title>brain_extraction_wf&#45;&gt;outputnode (utility)</title>
<path fill="none" stroke="#000000" d="M608.6957,-432.6255C648.1615,-405.417 714.2259,-349.4694 699,-288 690.3004,-252.8781 686.5017,-241.669 661,-216 610.32,-164.9874 534.6231,-129.4915 482.9267,-109.4633"/>
<polygon fill="#000000" stroke="#000000" points="484.1556,-106.1861 473.5645,-105.9033 481.6676,-112.7291 484.1556,-106.1861"/>
</g>
<!-- brain_extraction_wf&#45;&gt;anat_norm_wf -->
<g id="edge25" class="edge">
<title>brain_extraction_wf&#45;&gt;anat_norm_wf</title>
<path fill="none" stroke="#000000" d="M499.0559,-438.782C384.8135,-421.1654 187.3281,-382.831 149,-324 135.9183,-303.9206 155.5899,-227.085 162,-216 168.9012,-204.0658 179.4713,-193.5635 190.0452,-185.0698"/>
<polygon fill="#000000" stroke="#000000" points="192.2235,-187.8105 198.0713,-178.9757 187.9904,-182.2355 192.2235,-187.8105"/>
</g>
<!-- brain_extraction_wf&#45;&gt;surface_recon_wf -->
<g id="edge26" class="edge">
<title>brain_extraction_wf&#45;&gt;surface_recon_wf</title>
<path fill="none" stroke="#000000" d="M541.8459,-433.1192C517.91,-422.7995 487.1251,-409.527 461.7623,-398.5921"/>
<polygon fill="#000000" stroke="#000000" points="462.9014,-395.2719 452.3328,-394.5267 460.13,-401.6999 462.9014,-395.2719"/>
</g>
<!-- brain_extraction_wf&#45;&gt;applyrefined (fsl) -->
<g id="edge27" class="edge">
<title>brain_extraction_wf&#45;&gt;applyrefined (fsl)</title>
<path fill="none" stroke="#000000" d="M583.4064,-431.7623C586.6471,-407.201 592.4465,-363.2474 596.2588,-334.3541"/>
<polygon fill="#000000" stroke="#000000" points="599.7749,-334.4616 597.6132,-324.0896 592.8351,-333.5458 599.7749,-334.4616"/>
</g>
<!-- applyrefined (fsl)&#45;&gt;buffernode (utility) -->
<g id="edge28" class="edge">
<title>applyrefined (fsl)&#45;&gt;buffernode (utility)</title>
<path fill="none" stroke="#000000" d="M588.1399,-287.8314C582.6994,-279.497 576.1453,-269.4567 570.1786,-260.3162"/>
<polygon fill="#000000" stroke="#000000" points="573.0906,-258.374 564.6935,-251.9134 567.2289,-262.2004 573.0906,-258.374"/>
</g>
<!-- buffernode (utility)&#45;&gt;outputnode (utility) -->
<g id="edge29" class="edge">
<title>buffernode (utility)&#45;&gt;outputnode (utility)</title>
<path fill="none" stroke="#000000" d="M537.1721,-216.0535C514.927,-190.8306 474.2877,-144.7514 448.7897,-115.8403"/>
<polygon fill="#000000" stroke="#000000" points="451.2668,-113.3576 442.0273,-108.1727 446.0169,-117.9877 451.2668,-113.3576"/>
</g>
<!-- buffernode (utility)&#45;&gt;anat_norm_wf -->
<g id="edge30" class="edge">
<title>buffernode (utility)&#45;&gt;anat_norm_wf</title>
<path fill="none" stroke="#000000" d="M489.9511,-220.1177C433.1381,-207.6084 349.9055,-189.2819 292.1546,-176.5661"/>
<polygon fill="#000000" stroke="#000000" points="292.5577,-173.0711 282.039,-174.3389 291.0525,-179.9074 292.5577,-173.0711"/>
</g>
<!-- lut_t1w_dseg (utility)&#45;&gt;outputnode (utility) -->
<g id="edge32" class="edge">
<title>lut_t1w_dseg (utility)&#45;&gt;outputnode (utility)</title>
<path fill="none" stroke="#000000" d="M314.9279,-289.6577C333.9203,-281.0164 354.6939,-268.6756 369,-252 386.6356,-231.4435 407.9489,-158.4687 418.837,-117.8326"/>
<polygon fill="#000000" stroke="#000000" points="422.2611,-118.5742 421.4341,-108.0117 415.4938,-116.7845 422.2611,-118.5742"/>
</g>
<!-- lut_t1w_dseg (utility)&#45;&gt;anat_norm_wf -->
<g id="edge31" class="edge">
<title>lut_t1w_dseg (utility)&#45;&gt;anat_norm_wf</title>
<path fill="none" stroke="#000000" d="M217.0174,-289.8915C199.2436,-281.5495 181.2066,-269.3637 171,-252 162.892,-238.2065 164.8093,-230.7538 171,-216 175.8135,-204.5283 184.3845,-194.2669 193.3491,-185.8497"/>
<polygon fill="#000000" stroke="#000000" points="195.6891,-188.4529 200.898,-179.227 191.0726,-183.1909 195.6891,-188.4529"/>
</g>
<!-- split_seg (utility) -->
<g id="node14" class="node">
<title>split_seg (utility)</title>
<ellipse fill="none" stroke="#000000" cx="270" cy="-234" rx="89.8845" ry="18"/>
<text text-anchor="middle" x="270" y="-230.3" font-family="Times,serif" font-size="14.00" fill="#000000">split_seg (utility)</text>
</g>
<!-- lut_t1w_dseg (utility)&#45;&gt;split_seg (utility) -->
<g id="edge33" class="edge">
<title>lut_t1w_dseg (utility)&#45;&gt;split_seg (utility)</title>
<path fill="none" stroke="#000000" d="M268.5047,-287.8314C268.7186,-280.131 268.9729,-270.9743 269.2106,-262.4166"/>
<polygon fill="#000000" stroke="#000000" points="272.7094,-262.5066 269.4885,-252.4133 265.7121,-262.3122 272.7094,-262.5066"/>
</g>
<!-- split_seg (utility)&#45;&gt;outputnode (utility) -->
<g id="edge35" class="edge">
<title>split_seg (utility)&#45;&gt;outputnode (utility)</title>
<path fill="none" stroke="#000000" d="M289.1287,-216.3428C316.7302,-190.8645 367.8457,-143.6809 399.1965,-114.7417"/>
<polygon fill="#000000" stroke="#000000" points="401.7408,-117.1563 406.7149,-107.8017 396.9928,-112.0127 401.7408,-117.1563"/>
</g>
<!-- split_seg (utility)&#45;&gt;anat_norm_wf -->
<g id="edge34" class="edge">
<title>split_seg (utility)&#45;&gt;anat_norm_wf</title>
<path fill="none" stroke="#000000" d="M258.8969,-215.8314C253.8562,-207.5829 247.7944,-197.6635 242.2551,-188.5992"/>
<polygon fill="#000000" stroke="#000000" points="245.1481,-186.6212 236.9471,-179.9134 239.1751,-190.2713 245.1481,-186.6212"/>
</g>
</g>
</svg>
