<?xml version="1.0" encoding="UTF-8" standalone="no"?>
<!DOCTYPE svg PUBLIC "-//W3C//DTD SVG 1.1//EN"
 "http://www.w3.org/Graphics/SVG/1.1/DTD/svg11.dtd">
<!-- Generated by graphviz version 2.40.1 (20161225.0304)
 -->
<!-- Title: %3 Pages: 1 -->
<svg width="637pt" height="260pt"
 viewBox="0.00 0.00 636.63 260.00" xmlns="http://www.w3.org/2000/svg" xmlns:xlink="http://www.w3.org/1999/xlink">
<g id="graph0" class="graph" transform="scale(1 1) rotate(0) translate(4 256)">
<title>%3</title>
<polygon fill="#ffffff" stroke="transparent" points="-4,4 -4,-256 632.6295,-256 632.6295,4 -4,4"/>
<!-- inputnode (utility) -->
<g id="node1" class="node">
<title>inputnode (utility)</title>
<ellipse fill="none" stroke="#000000" cx="121.5373" cy="-162" rx="94.7833" ry="18"/>
<text text-anchor="middle" x="121.5373" y="-158.3" font-family="Times,serif" font-size="14.00" fill="#000000">inputnode (utility)</text>
</g>
<!-- anat_preproc_wf -->
<g id="node2" class="node">
<title>anat_preproc_wf</title>
<ellipse fill="none" stroke="#000000" cx="111.5373" cy="-90" rx="89.0842" ry="18"/>
<text text-anchor="middle" x="111.5373" y="-86.3" font-family="Times,serif" font-size="14.00" fill="#000000">anat_preproc_wf</text>
</g>
<!-- inputnode (utility)&#45;&gt;anat_preproc_wf -->
<g id="edge1" class="edge">
<title>inputnode (utility)&#45;&gt;anat_preproc_wf</title>
<path fill="none" stroke="#000000" d="M119.0138,-143.8314C117.9443,-136.131 116.6726,-126.9743 115.484,-118.4166"/>
<polygon fill="#000000" stroke="#000000" points="118.9372,-117.8367 114.0947,-108.4133 112.0037,-118.7997 118.9372,-117.8367"/>
</g>
<!-- summary (reports) -->
<g id="node3" class="node">
<title>summary (reports)</title>
<ellipse fill="none" stroke="#000000" cx="316.5373" cy="-90" rx="98.2828" ry="18"/>
<text text-anchor="middle" x="316.5373" y="-86.3" font-family="Times,serif" font-size="14.00" fill="#000000">summary (reports)</text>
</g>
<!-- inputnode (utility)&#45;&gt;summary (reports) -->
<g id="edge2" class="edge">
<title>inputnode (utility)&#45;&gt;summary (reports)</title>
<path fill="none" stroke="#000000" d="M165.2991,-145.8418C194.1765,-135.1794 232.2001,-121.1399 262.8965,-109.8058"/>
<polygon fill="#000000" stroke="#000000" points="264.416,-112.9758 272.5846,-106.2287 261.9913,-106.4091 264.416,-112.9758"/>
</g>
<!-- ds_report_summary -->
<g id="node6" class="node">
<title>ds_report_summary</title>
<ellipse fill="none" stroke="#000000" cx="138.5373" cy="-18" rx="103.9815" ry="18"/>
<text text-anchor="middle" x="138.5373" y="-14.3" font-family="Times,serif" font-size="14.00" fill="#000000">ds_report_summary</text>
</g>
<!-- summary (reports)&#45;&gt;ds_report_summary -->
<g id="edge3" class="edge">
<title>summary (reports)&#45;&gt;ds_report_summary</title>
<path fill="none" stroke="#000000" d="M275.7005,-73.4817C249.9005,-63.0458 216.3734,-49.4843 188.9247,-38.3814"/>
<polygon fill="#000000" stroke="#000000" points="190.0747,-35.0711 179.4919,-34.5659 187.4498,-41.5604 190.0747,-35.0711"/>
</g>
<!-- bidssrc (bids) -->
<g id="node4" class="node">
<title>bidssrc (bids)</title>
<ellipse fill="none" stroke="#000000" cx="316.5373" cy="-234" rx="74.187" ry="18"/>
<text text-anchor="middle" x="316.5373" y="-230.3" font-family="Times,serif" font-size="14.00" fill="#000000">bidssrc (bids)</text>
</g>
<!-- bidssrc (bids)&#45;&gt;anat_preproc_wf -->
<g id="edge6" class="edge">
<title>bidssrc (bids)&#45;&gt;anat_preproc_wf</title>
<path fill="none" stroke="#000000" d="M243.1342,-231.1923C164.0596,-226.4431 45.7371,-213.749 17.5373,-180 7.2781,-167.722 9.5223,-157.8477 17.5373,-144 26.0474,-129.2967 40.243,-118.2485 55.0565,-110.1059"/>
<polygon fill="#000000" stroke="#000000" points="56.9829,-113.0531 64.3146,-105.4047 53.8135,-106.8117 56.9829,-113.0531"/>
</g>
<!-- bidssrc (bids)&#45;&gt;summary (reports) -->
<g id="edge5" class="edge">
<title>bidssrc (bids)&#45;&gt;summary (reports)</title>
<path fill="none" stroke="#000000" d="M359.9072,-219.3865C377.9955,-210.8981 397.1745,-198.1992 407.5373,-180 415.4543,-166.096 415.4543,-157.904 407.5373,-144 399.4073,-129.722 385.8509,-118.8294 371.652,-110.6995"/>
<polygon fill="#000000" stroke="#000000" points="373.2451,-107.5827 362.7709,-105.989 369.9651,-113.7667 373.2451,-107.5827"/>
</g>
<!-- bids_info (bids) -->
<g id="node5" class="node">
<title>bids_info (bids)</title>
<ellipse fill="none" stroke="#000000" cx="316.5373" cy="-162" rx="81.7856" ry="18"/>
<text text-anchor="middle" x="316.5373" y="-158.3" font-family="Times,serif" font-size="14.00" fill="#000000">bids_info (bids)</text>
</g>
<!-- bidssrc (bids)&#45;&gt;bids_info (bids) -->
<g id="edge4" class="edge">
<title>bidssrc (bids)&#45;&gt;bids_info (bids)</title>
<path fill="none" stroke="#000000" d="M316.5373,-215.8314C316.5373,-208.131 316.5373,-198.9743 316.5373,-190.4166"/>
<polygon fill="#000000" stroke="#000000" points="320.0374,-190.4132 316.5373,-180.4133 313.0374,-190.4133 320.0374,-190.4132"/>
</g>
<!-- bidssrc (bids)&#45;&gt;ds_report_summary -->
<g id="edge7" class="edge">
<title>bidssrc (bids)&#45;&gt;ds_report_summary</title>
<path fill="none" stroke="#000000" d="M242.8992,-231.6781C161.2154,-227.3691 37.0123,-215.0727 7.5373,-180 -4.3937,-165.8032 -1.0786,-92.3404 13.5373,-72 25.5699,-55.2546 43.9148,-43.6513 62.8735,-35.63"/>
<polygon fill="#000000" stroke="#000000" points="64.1713,-38.8807 72.2049,-31.9732 61.6172,-32.3633 64.1713,-38.8807"/>
</g>
<!-- ds_report_about -->
<g id="node7" class="node">
<title>ds_report_about</title>
<ellipse fill="none" stroke="#000000" cx="541.5373" cy="-162" rx="87.1846" ry="18"/>
<text text-anchor="middle" x="541.5373" y="-158.3" font-family="Times,serif" font-size="14.00" fill="#000000">ds_report_about</text>
</g>
<!-- bidssrc (bids)&#45;&gt;ds_report_about -->
<g id="edge8" class="edge">
<title>bidssrc (bids)&#45;&gt;ds_report_about</title>
<path fill="none" stroke="#000000" d="M361.5286,-219.6028C396.728,-208.339 445.9191,-192.5978 483.985,-180.4167"/>
<polygon fill="#000000" stroke="#000000" points="485.4479,-183.6235 493.9055,-177.2422 483.3145,-176.9565 485.4479,-183.6235"/>
</g>
<!-- bids_info (bids)&#45;&gt;anat_preproc_wf -->
<g id="edge10" class="edge">
<title>bids_info (bids)&#45;&gt;anat_preproc_wf</title>
<path fill="none" stroke="#000000" d="M273.062,-146.7307C241.7194,-135.7225 199.207,-120.7913 165.6633,-109.0101"/>
<polygon fill="#000000" stroke="#000000" points="166.6062,-105.6317 156.0113,-105.6202 164.2865,-112.2362 166.6062,-105.6317"/>
</g>
<!-- bids_info (bids)&#45;&gt;summary (reports) -->
<g id="edge9" class="edge">
<title>bids_info (bids)&#45;&gt;summary (reports)</title>
<path fill="none" stroke="#000000" d="M316.5373,-143.8314C316.5373,-136.131 316.5373,-126.9743 316.5373,-118.4166"/>
<polygon fill="#000000" stroke="#000000" points="320.0374,-118.4132 316.5373,-108.4133 313.0374,-118.4133 320.0374,-118.4132"/>
</g>
<!-- about (reports) -->
<g id="node8" class="node">
<title>about (reports)</title>
<ellipse fill="none" stroke="#000000" cx="541.5373" cy="-234" rx="81.4863" ry="18"/>
<text text-anchor="middle" x="541.5373" y="-230.3" font-family="Times,serif" font-size="14.00" fill="#000000">about (reports)</text>
</g>
<!-- about (reports)&#45;&gt;ds_report_about -->
<g id="edge11" class="edge">
<title>about (reports)&#45;&gt;ds_report_about</title>
<path fill="none" stroke="#000000" d="M541.5373,-215.8314C541.5373,-208.131 541.5373,-198.9743 541.5373,-190.4166"/>
<polygon fill="#000000" stroke="#000000" points="545.0374,-190.4132 541.5373,-180.4133 538.0374,-190.4133 545.0374,-190.4132"/>
</g>
</g>
</svg>
