<?xml version="1.0" encoding="UTF-8" standalone="no"?>
<!DOCTYPE svg PUBLIC "-//W3C//DTD SVG 1.1//EN"
 "http://www.w3.org/Graphics/SVG/1.1/DTD/svg11.dtd">
<!-- Generated by graphviz version 2.43.0 (0)
 -->
<!-- Title: %3 Pages: 1 -->
<svg width="304pt" height="260pt"
 viewBox="0.00 0.00 303.63 260.00" xmlns="http://www.w3.org/2000/svg" xmlns:xlink="http://www.w3.org/1999/xlink">
<g id="graph0" class="graph" transform="scale(1 1) rotate(0) translate(4 256)">
<title>%3</title>
<polygon fill="white" stroke="transparent" points="-4,4 -4,-256 299.63,-256 299.63,4 -4,4"/>
<!-- inputnode (utility) -->
<g id="node1" class="node">
<title>inputnode (utility)</title>
<ellipse fill="none" stroke="black" cx="194.24" cy="-234" rx="94.78" ry="18"/>
<text text-anchor="middle" x="194.24" y="-230.3" font-family="Times,serif" font-size="14.00">inputnode (utility)</text>
</g>
<!-- segs_to_native_wf_aseg -->
<g id="node2" class="node">
<title>segs_to_native_wf_aseg</title>
<ellipse fill="none" stroke="black" cx="120.24" cy="-162" rx="120.48" ry="18"/>
<text text-anchor="middle" x="120.24" y="-158.3" font-family="Times,serif" font-size="14.00">segs_to_native_wf_aseg</text>
</g>
<!-- inputnode (utility)&#45;&gt;segs_to_native_wf_aseg -->
<g id="edge1" class="edge">
<title>inputnode (utility)&#45;&gt;segs_to_native_wf_aseg</title>
<path fill="none" stroke="black" d="M176.33,-216.05C167.12,-207.35 155.75,-196.59 145.66,-187.04"/>
<polygon fill="black" stroke="black" points="147.91,-184.36 138.24,-180.03 143.1,-189.45 147.91,-184.36"/>
</g>
<!-- refine (freesurfer) -->
<g id="node3" class="node">
<title>refine (freesurfer)</title>
<ellipse fill="none" stroke="black" cx="194.24" cy="-90" rx="94.48" ry="18"/>
<text text-anchor="middle" x="194.24" y="-86.3" font-family="Times,serif" font-size="14.00">refine (freesurfer)</text>
</g>
<!-- inputnode (utility)&#45;&gt;refine (freesurfer) -->
<g id="edge2" class="edge">
<title>inputnode (utility)&#45;&gt;refine (freesurfer)</title>
<path fill="none" stroke="black" d="M219.04,-216.42C230.54,-207.21 243.01,-194.64 249.24,-180 255.5,-165.28 255.5,-158.72 249.24,-144 244.38,-132.56 235.7,-122.39 226.65,-114.1"/>
<polygon fill="black" stroke="black" points="228.92,-111.43 219.04,-107.58 224.36,-116.74 228.92,-111.43"/>
</g>
<!-- segs_to_native_wf_aseg&#45;&gt;refine (freesurfer) -->
<g id="edge3" class="edge">
<title>segs_to_native_wf_aseg&#45;&gt;refine (freesurfer)</title>
<path fill="none" stroke="black" d="M138.15,-144.05C147.42,-135.28 158.9,-124.43 169.05,-114.83"/>
<polygon fill="black" stroke="black" points="171.63,-117.2 176.49,-107.79 166.82,-112.12 171.63,-117.2"/>
</g>
<!-- outputnode (utility) -->
<g id="node4" class="node">
<title>outputnode (utility)</title>
<ellipse fill="none" stroke="black" cx="194.24" cy="-18" rx="101.28" ry="18"/>
<text text-anchor="middle" x="194.24" y="-14.3" font-family="Times,serif" font-size="14.00">outputnode (utility)</text>
</g>
<!-- refine (freesurfer)&#45;&gt;outputnode (utility) -->
<g id="edge4" class="edge">
<title>refine (freesurfer)&#45;&gt;outputnode (utility)</title>
<path fill="none" stroke="black" d="M194.24,-71.7C194.24,-63.98 194.24,-54.71 194.24,-46.11"/>
<polygon fill="black" stroke="black" points="197.74,-46.1 194.24,-36.1 190.74,-46.1 197.74,-46.1"/>
</g>
</g>
</svg>
