<?xml version="1.0" encoding="UTF-8" standalone="no"?>
<!DOCTYPE svg PUBLIC "-//W3C//DTD SVG 1.1//EN"
 "http://www.w3.org/Graphics/SVG/1.1/DTD/svg11.dtd">
<!-- Generated by graphviz version 2.43.0 (0)
 -->
<!-- Title: %3 Pages: 1 -->
<svg width="1010pt" height="188pt"
 viewBox="0.00 0.00 1009.98 188.00" xmlns="http://www.w3.org/2000/svg" xmlns:xlink="http://www.w3.org/1999/xlink">
<g id="graph0" class="graph" transform="scale(1 1) rotate(0) translate(4 184)">
<title>%3</title>
<polygon fill="white" stroke="transparent" points="-4,4 -4,-184 1005.98,-184 1005.98,4 -4,4"/>
<!-- inputnode (utility) -->
<g id="node1" class="node">
<title>inputnode (utility)</title>
<ellipse fill="none" stroke="black" cx="434.84" cy="-162" rx="94.78" ry="18"/>
<text text-anchor="middle" x="434.84" y="-158.3" font-family="Times,serif" font-size="14.00">inputnode (utility)</text>
</g>
<!-- gifti_surface_wf -->
<g id="node2" class="node">
<title>gifti_surface_wf</title>
<ellipse fill="none" stroke="black" cx="83.84" cy="-90" rx="83.69" ry="18"/>
<text text-anchor="middle" x="83.84" y="-86.3" font-family="Times,serif" font-size="14.00">gifti_surface_wf</text>
</g>
<!-- inputnode (utility)&#45;&gt;gifti_surface_wf -->
<g id="edge1" class="edge">
<title>inputnode (utility)&#45;&gt;gifti_surface_wf</title>
<path fill="none" stroke="black" d="M372.09,-148.49C310.51,-136.2 216.81,-117.52 153.09,-104.81"/>
<polygon fill="black" stroke="black" points="153.62,-101.35 143.13,-102.82 152.25,-108.21 153.62,-101.35"/>
</g>
<!-- gifti_morphometrics_wf -->
<g id="node3" class="node">
<title>gifti_morphometrics_wf</title>
<ellipse fill="none" stroke="black" cx="305.84" cy="-90" rx="120.48" ry="18"/>
<text text-anchor="middle" x="305.84" y="-86.3" font-family="Times,serif" font-size="14.00">gifti_morphometrics_wf</text>
</g>
<!-- inputnode (utility)&#45;&gt;gifti_morphometrics_wf -->
<g id="edge2" class="edge">
<title>inputnode (utility)&#45;&gt;gifti_morphometrics_wf</title>
<path fill="none" stroke="black" d="M404.92,-144.76C387.19,-135.14 364.5,-122.83 345.32,-112.42"/>
<polygon fill="black" stroke="black" points="346.95,-109.33 336.5,-107.63 343.62,-115.48 346.95,-109.33"/>
</g>
<!-- segs_to_native_wf_aseg -->
<g id="node4" class="node">
<title>segs_to_native_wf_aseg</title>
<ellipse fill="none" stroke="black" cx="563.84" cy="-90" rx="120.48" ry="18"/>
<text text-anchor="middle" x="563.84" y="-86.3" font-family="Times,serif" font-size="14.00">segs_to_native_wf_aseg</text>
</g>
<!-- inputnode (utility)&#45;&gt;segs_to_native_wf_aseg -->
<g id="edge3" class="edge">
<title>inputnode (utility)&#45;&gt;segs_to_native_wf_aseg</title>
<path fill="none" stroke="black" d="M464.76,-144.76C482.5,-135.14 505.18,-122.83 524.37,-112.42"/>
<polygon fill="black" stroke="black" points="526.07,-115.48 533.19,-107.63 522.73,-109.33 526.07,-115.48"/>
</g>
<!-- segs_to_native_wf_aparc_aseg -->
<g id="node5" class="node">
<title>segs_to_native_wf_aparc_aseg</title>
<ellipse fill="none" stroke="black" cx="851.84" cy="-90" rx="150.27" ry="18"/>
<text text-anchor="middle" x="851.84" y="-86.3" font-family="Times,serif" font-size="14.00">segs_to_native_wf_aparc_aseg</text>
</g>
<!-- inputnode (utility)&#45;&gt;segs_to_native_wf_aparc_aseg -->
<g id="edge4" class="edge">
<title>inputnode (utility)&#45;&gt;segs_to_native_wf_aparc_aseg</title>
<path fill="none" stroke="black" d="M503.23,-149.52C572.67,-137.86 680.69,-119.73 758.08,-106.74"/>
<polygon fill="black" stroke="black" points="759.03,-110.13 768.31,-105.02 757.87,-103.23 759.03,-110.13"/>
</g>
<!-- outputnode (utility) -->
<g id="node6" class="node">
<title>outputnode (utility)</title>
<ellipse fill="none" stroke="black" cx="434.84" cy="-18" rx="101.28" ry="18"/>
<text text-anchor="middle" x="434.84" y="-14.3" font-family="Times,serif" font-size="14.00">outputnode (utility)</text>
</g>
<!-- gifti_surface_wf&#45;&gt;outputnode (utility) -->
<g id="edge5" class="edge">
<title>gifti_surface_wf&#45;&gt;outputnode (utility)</title>
<path fill="none" stroke="black" d="M142.99,-77.2C202.7,-65.3 295.13,-46.86 359.93,-33.94"/>
<polygon fill="black" stroke="black" points="360.97,-37.3 370.09,-31.91 359.6,-30.44 360.97,-37.3"/>
</g>
<!-- gifti_morphometrics_wf&#45;&gt;outputnode (utility) -->
<g id="edge6" class="edge">
<title>gifti_morphometrics_wf&#45;&gt;outputnode (utility)</title>
<path fill="none" stroke="black" d="M336.41,-72.41C354.21,-62.75 376.83,-50.48 395.9,-40.13"/>
<polygon fill="black" stroke="black" points="397.82,-43.07 404.94,-35.23 394.48,-36.92 397.82,-43.07"/>
</g>
<!-- segs_to_native_wf_aseg&#45;&gt;outputnode (utility) -->
<g id="edge7" class="edge">
<title>segs_to_native_wf_aseg&#45;&gt;outputnode (utility)</title>
<path fill="none" stroke="black" d="M533.27,-72.41C515.47,-62.75 492.85,-50.48 473.79,-40.13"/>
<polygon fill="black" stroke="black" points="475.21,-36.92 464.75,-35.23 471.87,-43.07 475.21,-36.92"/>
</g>
<!-- segs_to_native_wf_aparc_aseg&#45;&gt;outputnode (utility) -->
<g id="edge8" class="edge">
<title>segs_to_native_wf_aparc_aseg&#45;&gt;outputnode (utility)</title>
<path fill="none" stroke="black" d="M768.46,-75C695.02,-62.68 588.73,-44.83 515.98,-32.62"/>
<polygon fill="black" stroke="black" points="516.38,-29.14 505.94,-30.93 515.22,-36.04 516.38,-29.14"/>
</g>
</g>
</svg>
