<?xml version="1.0" encoding="UTF-8" standalone="no"?>
<!DOCTYPE svg PUBLIC "-//W3C//DTD SVG 1.1//EN"
 "http://www.w3.org/Graphics/SVG/1.1/DTD/svg11.dtd">
<!-- Generated by graphviz version 2.43.0 (0)
 -->
<!-- Title: %3 Pages: 1 -->
<svg width="587pt" height="476pt"
 viewBox="0.00 0.00 586.93 476.00" xmlns="http://www.w3.org/2000/svg" xmlns:xlink="http://www.w3.org/1999/xlink">
<g id="graph0" class="graph" transform="scale(1 1) rotate(0) translate(4 472)">
<title>%3</title>
<polygon fill="white" stroke="transparent" points="-4,4 -4,-472 582.93,-472 582.93,4 -4,4"/>
<!-- inputnode (utility) -->
<g id="node1" class="node">
<title>inputnode (utility)</title>
<ellipse fill="none" stroke="black" cx="303.54" cy="-450" rx="94.78" ry="18"/>
<text text-anchor="middle" x="303.54" y="-446.3" font-family="Times,serif" font-size="14.00">inputnode (utility)</text>
</g>
<!-- select_surfaces (utility) -->
<g id="node2" class="node">
<title>select_surfaces (utility)</title>
<ellipse fill="none" stroke="black" cx="273.54" cy="-378" rx="118.88" ry="18"/>
<text text-anchor="middle" x="273.54" y="-374.3" font-family="Times,serif" font-size="14.00">select_surfaces (utility)</text>
</g>
<!-- inputnode (utility)&#45;&gt;select_surfaces (utility) -->
<g id="edge1" class="edge">
<title>inputnode (utility)&#45;&gt;select_surfaces (utility)</title>
<path fill="none" stroke="black" d="M296.13,-431.7C292.75,-423.81 288.67,-414.3 284.92,-405.55"/>
<polygon fill="black" stroke="black" points="288.03,-403.92 280.87,-396.1 281.59,-406.67 288.03,-403.92"/>
</g>
<!-- abs_thickness (gifti) -->
<g id="node3" class="node">
<title>abs_thickness (gifti)</title>
<ellipse fill="none" stroke="black" cx="126.54" cy="-306" rx="103.98" ry="18"/>
<text text-anchor="middle" x="126.54" y="-302.3" font-family="Times,serif" font-size="14.00">abs_thickness (gifti)</text>
</g>
<!-- select_surfaces (utility)&#45;&gt;abs_thickness (gifti) -->
<g id="edge2" class="edge">
<title>select_surfaces (utility)&#45;&gt;abs_thickness (gifti)</title>
<path fill="none" stroke="black" d="M239.08,-360.59C218.29,-350.69 191.62,-337.99 169.47,-327.44"/>
<polygon fill="black" stroke="black" points="170.82,-324.21 160.28,-323.07 167.81,-330.53 170.82,-324.21"/>
</g>
<!-- fill_holes (workbench) -->
<g id="node4" class="node">
<title>fill_holes (workbench)</title>
<ellipse fill="none" stroke="black" cx="156.54" cy="-162" rx="111.58" ry="18"/>
<text text-anchor="middle" x="156.54" y="-158.3" font-family="Times,serif" font-size="14.00">fill_holes (workbench)</text>
</g>
<!-- select_surfaces (utility)&#45;&gt;fill_holes (workbench) -->
<g id="edge3" class="edge">
<title>select_surfaces (utility)&#45;&gt;fill_holes (workbench)</title>
<path fill="none" stroke="black" d="M270.74,-359.67C265.09,-328.63 250.06,-262.43 218.54,-216 210.89,-204.72 200.22,-194.43 189.89,-185.98"/>
<polygon fill="black" stroke="black" points="191.78,-183.01 181.74,-179.61 187.47,-188.53 191.78,-183.01"/>
</g>
<!-- native_roi (workbench) -->
<g id="node5" class="node">
<title>native_roi (workbench)</title>
<ellipse fill="none" stroke="black" cx="296.54" cy="-90" rx="116.98" ry="18"/>
<text text-anchor="middle" x="296.54" y="-86.3" font-family="Times,serif" font-size="14.00">native_roi (workbench)</text>
</g>
<!-- select_surfaces (utility)&#45;&gt;native_roi (workbench) -->
<g id="edge4" class="edge">
<title>select_surfaces (utility)&#45;&gt;native_roi (workbench)</title>
<path fill="none" stroke="black" d="M274.91,-359.97C278.75,-312.29 289.61,-177.18 294.32,-118.63"/>
<polygon fill="black" stroke="black" points="297.84,-118.55 295.15,-108.31 290.86,-117.99 297.84,-118.55"/>
</g>
<!-- combine_sources (utility) -->
<g id="node6" class="node">
<title>combine_sources (utility)</title>
<ellipse fill="none" stroke="black" cx="451.54" cy="-234" rx="127.28" ry="18"/>
<text text-anchor="middle" x="451.54" y="-230.3" font-family="Times,serif" font-size="14.00">combine_sources (utility)</text>
</g>
<!-- select_surfaces (utility)&#45;&gt;combine_sources (utility) -->
<g id="edge5" class="edge">
<title>select_surfaces (utility)&#45;&gt;combine_sources (utility)</title>
<path fill="none" stroke="black" d="M294.66,-360.15C326.37,-334.85 386.4,-286.96 422.31,-258.32"/>
<polygon fill="black" stroke="black" points="424.82,-260.8 430.45,-251.82 420.45,-255.33 424.82,-260.8"/>
</g>
<!-- initial_roi (gifti) -->
<g id="node8" class="node">
<title>initial_roi (gifti)</title>
<ellipse fill="none" stroke="black" cx="126.54" cy="-234" rx="83.39" ry="18"/>
<text text-anchor="middle" x="126.54" y="-230.3" font-family="Times,serif" font-size="14.00">initial_roi (gifti)</text>
</g>
<!-- abs_thickness (gifti)&#45;&gt;initial_roi (gifti) -->
<g id="edge6" class="edge">
<title>abs_thickness (gifti)&#45;&gt;initial_roi (gifti)</title>
<path fill="none" stroke="black" d="M126.54,-287.7C126.54,-279.98 126.54,-270.71 126.54,-262.11"/>
<polygon fill="black" stroke="black" points="130.04,-262.1 126.54,-252.1 123.04,-262.1 130.04,-262.1"/>
</g>
<!-- fill_holes (workbench)&#45;&gt;native_roi (workbench) -->
<g id="edge7" class="edge">
<title>fill_holes (workbench)&#45;&gt;native_roi (workbench)</title>
<path fill="none" stroke="black" d="M189.01,-144.76C208.57,-134.98 233.69,-122.43 254.72,-111.91"/>
<polygon fill="black" stroke="black" points="256.38,-114.99 263.76,-107.39 253.25,-108.73 256.38,-114.99"/>
</g>
<!-- outputnode (utility) -->
<g id="node9" class="node">
<title>outputnode (utility)</title>
<ellipse fill="none" stroke="black" cx="368.54" cy="-18" rx="101.28" ry="18"/>
<text text-anchor="middle" x="368.54" y="-14.3" font-family="Times,serif" font-size="14.00">outputnode (utility)</text>
</g>
<!-- native_roi (workbench)&#45;&gt;outputnode (utility) -->
<g id="edge8" class="edge">
<title>native_roi (workbench)&#45;&gt;outputnode (utility)</title>
<path fill="none" stroke="black" d="M313.97,-72.05C322.99,-63.28 334.15,-52.43 344.03,-42.83"/>
<polygon fill="black" stroke="black" points="346.54,-45.27 351.27,-35.79 341.66,-40.25 346.54,-45.27"/>
</g>
<!-- combine_sources (utility)&#45;&gt;outputnode (utility) -->
<g id="edge9" class="edge">
<title>combine_sources (utility)&#45;&gt;outputnode (utility)</title>
<path fill="none" stroke="black" d="M451.78,-215.93C451.52,-185.28 447.77,-119.7 422.54,-72 416.75,-61.04 407.89,-50.96 399.01,-42.6"/>
<polygon fill="black" stroke="black" points="401.08,-39.75 391.28,-35.72 396.42,-44.98 401.08,-39.75"/>
</g>
<!-- itersource (utility) -->
<g id="node7" class="node">
<title>itersource (utility)</title>
<ellipse fill="none" stroke="black" cx="95.54" cy="-450" rx="95.58" ry="18"/>
<text text-anchor="middle" x="95.54" y="-446.3" font-family="Times,serif" font-size="14.00">itersource (utility)</text>
</g>
<!-- itersource (utility)&#45;&gt;select_surfaces (utility) -->
<g id="edge10" class="edge">
<title>itersource (utility)&#45;&gt;select_surfaces (utility)</title>
<path fill="none" stroke="black" d="M135.05,-433.46C161.07,-423.23 195.36,-409.74 223.32,-398.75"/>
<polygon fill="black" stroke="black" points="224.89,-401.89 232.91,-394.98 222.33,-395.38 224.89,-401.89"/>
</g>
<!-- itersource (utility)&#45;&gt;abs_thickness (gifti) -->
<g id="edge11" class="edge">
<title>itersource (utility)&#45;&gt;abs_thickness (gifti)</title>
<path fill="none" stroke="black" d="M99.28,-431.87C104.59,-407.56 114.36,-362.82 120.64,-334.01"/>
<polygon fill="black" stroke="black" points="124.08,-334.71 122.79,-324.19 117.24,-333.21 124.08,-334.71"/>
</g>
<!-- itersource (utility)&#45;&gt;initial_roi (gifti) -->
<g id="edge12" class="edge">
<title>itersource (utility)&#45;&gt;initial_roi (gifti)</title>
<path fill="none" stroke="black" d="M75.36,-432.21C41.91,-402.28 -18.34,-338.17 13.54,-288 24.48,-270.79 42.64,-259.07 61.24,-251.13"/>
<polygon fill="black" stroke="black" points="62.65,-254.34 70.68,-247.42 60.09,-247.83 62.65,-254.34"/>
</g>
<!-- initial_roi (gifti)&#45;&gt;fill_holes (workbench) -->
<g id="edge13" class="edge">
<title>initial_roi (gifti)&#45;&gt;fill_holes (workbench)</title>
<path fill="none" stroke="black" d="M133.8,-216.05C137.22,-208.09 141.37,-198.41 145.18,-189.51"/>
<polygon fill="black" stroke="black" points="148.42,-190.85 149.14,-180.28 141.98,-188.09 148.42,-190.85"/>
</g>
</g>
</svg>
