<?xml version="1.0" encoding="UTF-8" standalone="no"?>
<!DOCTYPE svg PUBLIC "-//W3C//DTD SVG 1.1//EN"
 "http://www.w3.org/Graphics/SVG/1.1/DTD/svg11.dtd">
<!-- Generated by graphviz version 2.43.0 (0)
 -->
<!-- Title: structs Pages: 1 -->
<svg width="1369pt" height="534pt"
 viewBox="0.00 0.00 1369.00 534.00" xmlns="http://www.w3.org/2000/svg" xmlns:xlink="http://www.w3.org/1999/xlink">
<g id="graph0" class="graph" transform="scale(1 1) rotate(0) translate(4 530)">
<title>structs</title>
<polygon fill="white" stroke="transparent" points="-4,4 -4,-530 1365,-530 1365,4 -4,4"/>
<!-- refinement_wfinputnode -->
<g id="node1" class="node">
<title>refinement_wfinputnode</title>
<polygon fill="none" stroke="black" points="0,-387.5 0,-525.5 271,-525.5 271,-387.5 0,-387.5"/>
<text text-anchor="middle" x="17" y="-452.8" font-family="Times,serif" font-size="14.00">IN</text>
<polyline fill="none" stroke="black" points="34,-387.5 34,-525.5 "/>
<text text-anchor="middle" x="78.5" y="-498.8" font-family="Times,serif" font-size="14.00">inputnode</text>
<polyline fill="none" stroke="black" points="34,-479.5 123,-479.5 "/>
<text text-anchor="middle" x="78.5" y="-452.8" font-family="Times,serif" font-size="14.00">utility</text>
<polyline fill="none" stroke="black" points="34,-433.5 123,-433.5 "/>
<text text-anchor="middle" x="78.5" y="-406.8" font-family="Times,serif" font-size="14.00"> </text>
<polyline fill="none" stroke="black" points="123,-387.5 123,-525.5 "/>
<text text-anchor="middle" x="197" y="-510.3" font-family="Times,serif" font-size="14.00">OUT</text>
<polyline fill="none" stroke="black" points="123,-502.5 271,-502.5 "/>
<text text-anchor="middle" x="197" y="-487.3" font-family="Times,serif" font-size="14.00">ants_segs</text>
<polyline fill="none" stroke="black" points="123,-479.5 271,-479.5 "/>
<text text-anchor="middle" x="197" y="-464.3" font-family="Times,serif" font-size="14.00">fsnative2anat_xfm</text>
<polyline fill="none" stroke="black" points="123,-456.5 271,-456.5 "/>
<text text-anchor="middle" x="197" y="-441.3" font-family="Times,serif" font-size="14.00">reference_image</text>
<polyline fill="none" stroke="black" points="123,-433.5 271,-433.5 "/>
<text text-anchor="middle" x="197" y="-418.3" font-family="Times,serif" font-size="14.00">subject_id</text>
<polyline fill="none" stroke="black" points="123,-410.5 271,-410.5 "/>
<text text-anchor="middle" x="197" y="-395.3" font-family="Times,serif" font-size="14.00">subjects_dir</text>
</g>
<!-- refinement_wfsegs_to_native_wf_aseg -->
<g id="node2" class="node">
<title>refinement_wfsegs_to_native_wf_aseg</title>
<polygon fill="none" stroke="black" points="271.5,-235.5 271.5,-350.5 835.5,-350.5 835.5,-235.5 271.5,-235.5"/>
<text text-anchor="middle" x="383.5" y="-335.3" font-family="Times,serif" font-size="14.00">IN</text>
<polyline fill="none" stroke="black" points="271.5,-327.5 495.5,-327.5 "/>
<text text-anchor="middle" x="383.5" y="-312.3" font-family="Times,serif" font-size="14.00">inputnode.fsnative2anat_xfm</text>
<polyline fill="none" stroke="black" points="271.5,-304.5 495.5,-304.5 "/>
<text text-anchor="middle" x="383.5" y="-289.3" font-family="Times,serif" font-size="14.00">inputnode.in_file</text>
<polyline fill="none" stroke="black" points="271.5,-281.5 495.5,-281.5 "/>
<text text-anchor="middle" x="383.5" y="-266.3" font-family="Times,serif" font-size="14.00">inputnode.subject_id</text>
<polyline fill="none" stroke="black" points="271.5,-258.5 495.5,-258.5 "/>
<text text-anchor="middle" x="383.5" y="-243.3" font-family="Times,serif" font-size="14.00">inputnode.subjects_dir</text>
<polyline fill="none" stroke="black" points="495.5,-235.5 495.5,-350.5 "/>
<text text-anchor="middle" x="588" y="-327.8" font-family="Times,serif" font-size="14.00">segs_to_native_wf_aseg</text>
<polyline fill="none" stroke="black" points="495.5,-312.5 680.5,-312.5 "/>
<text text-anchor="middle" x="588" y="-289.8" font-family="Times,serif" font-size="14.00"> </text>
<polyline fill="none" stroke="black" points="495.5,-274.5 680.5,-274.5 "/>
<text text-anchor="middle" x="588" y="-251.3" font-family="Times,serif" font-size="14.00"> </text>
<polyline fill="none" stroke="black" points="680.5,-235.5 680.5,-350.5 "/>
<text text-anchor="middle" x="758" y="-318.3" font-family="Times,serif" font-size="14.00">OUT</text>
<polyline fill="none" stroke="black" points="680.5,-293.5 835.5,-293.5 "/>
<text text-anchor="middle" x="758" y="-260.8" font-family="Times,serif" font-size="14.00">outputnode.out_file</text>
</g>
<!-- refinement_wfinputnode&#45;&gt;refinement_wfsegs_to_native_wf_aseg -->
<g id="edge2" class="edge">
<title>refinement_wfinputnode:e&#45;&gt;refinement_wfsegs_to_native_wf_aseg:w</title>
<path fill="none" stroke="black" d="M272.5,-468.5C308.72,-468.5 271.98,-423.22 271.5,-387 271.14,-359.88 247.35,-326.94 260.7,-318.21"/>
<polygon fill="black" stroke="black" points="261.51,-321.61 270.5,-316 259.98,-314.78 261.51,-321.61"/>
</g>
<!-- refinement_wfinputnode&#45;&gt;refinement_wfsegs_to_native_wf_aseg -->
<g id="edge4" class="edge">
<title>refinement_wfinputnode:e&#45;&gt;refinement_wfsegs_to_native_wf_aseg:w</title>
<path fill="none" stroke="black" d="M272.5,-444.5C335.76,-444.5 218.96,-310.79 260.42,-294.6"/>
<polygon fill="black" stroke="black" points="261.17,-298.02 270.5,-293 260.08,-291.11 261.17,-298.02"/>
</g>
<!-- refinement_wfinputnode&#45;&gt;refinement_wfsegs_to_native_wf_aseg -->
<g id="edge5" class="edge">
<title>refinement_wfinputnode:e&#45;&gt;refinement_wfsegs_to_native_wf_aseg:w</title>
<path fill="none" stroke="black" d="M272.5,-421.5C303.84,-421.5 271.92,-382.33 271.5,-351 271.08,-319.22 242.56,-280.42 260.66,-271.77"/>
<polygon fill="black" stroke="black" points="261.28,-275.21 270.5,-270 260.04,-268.32 261.28,-275.21"/>
</g>
<!-- refinement_wfinputnode&#45;&gt;refinement_wfsegs_to_native_wf_aseg -->
<g id="edge6" class="edge">
<title>refinement_wfinputnode:e&#45;&gt;refinement_wfsegs_to_native_wf_aseg:w</title>
<path fill="none" stroke="black" d="M272.5,-398.5C293.62,-398.5 271.82,-372.11 271.5,-351 270.85,-308.75 231.93,-256.85 260.55,-248.24"/>
<polygon fill="black" stroke="black" points="261.01,-251.71 270.5,-247 260.14,-244.76 261.01,-251.71"/>
</g>
<!-- refinement_wfrefine -->
<g id="node3" class="node">
<title>refinement_wfrefine</title>
<polygon fill="none" stroke="black" points="864,-106.5 864,-198.5 1091,-198.5 1091,-106.5 864,-106.5"/>
<text text-anchor="middle" x="899" y="-183.3" font-family="Times,serif" font-size="14.00">IN</text>
<polyline fill="none" stroke="black" points="864,-175.5 934,-175.5 "/>
<text text-anchor="middle" x="899" y="-160.3" font-family="Times,serif" font-size="14.00">in_anat</text>
<polyline fill="none" stroke="black" points="864,-152.5 934,-152.5 "/>
<text text-anchor="middle" x="899" y="-137.3" font-family="Times,serif" font-size="14.00">in_ants</text>
<polyline fill="none" stroke="black" points="864,-129.5 934,-129.5 "/>
<text text-anchor="middle" x="899" y="-114.3" font-family="Times,serif" font-size="14.00">in_aseg</text>
<polyline fill="none" stroke="black" points="934,-106.5 934,-198.5 "/>
<text text-anchor="middle" x="978.5" y="-179.8" font-family="Times,serif" font-size="14.00">refine</text>
<polyline fill="none" stroke="black" points="934,-168.5 1023,-168.5 "/>
<text text-anchor="middle" x="978.5" y="-149.3" font-family="Times,serif" font-size="14.00">freesurfer</text>
<polyline fill="none" stroke="black" points="934,-137.5 1023,-137.5 "/>
<text text-anchor="middle" x="978.5" y="-118.3" font-family="Times,serif" font-size="14.00"> </text>
<polyline fill="none" stroke="black" points="1023,-106.5 1023,-198.5 "/>
<text text-anchor="middle" x="1057" y="-171.8" font-family="Times,serif" font-size="14.00">OUT</text>
<polyline fill="none" stroke="black" points="1023,-152.5 1091,-152.5 "/>
<text text-anchor="middle" x="1057" y="-125.8" font-family="Times,serif" font-size="14.00">out_file</text>
</g>
<!-- refinement_wfinputnode&#45;&gt;refinement_wfrefine -->
<g id="edge1" class="edge">
<title>refinement_wfinputnode:e&#45;&gt;refinement_wfrefine:w</title>
<path fill="none" stroke="black" d="M272.5,-491.5C403.39,-491.5 759.42,-450.46 844.5,-351 903.03,-282.57 779.5,-151.8 852.08,-141.19"/>
<polygon fill="black" stroke="black" points="852.75,-144.65 862.5,-140.5 852.29,-137.67 852.75,-144.65"/>
</g>
<!-- refinement_wfinputnode&#45;&gt;refinement_wfrefine -->
<g id="edge3" class="edge">
<title>refinement_wfinputnode:e&#45;&gt;refinement_wfrefine:w</title>
<path fill="none" stroke="black" d="M272.5,-444.5C339.42,-444.5 824.01,-401.86 867.5,-351 911.42,-299.64 868.21,-266.41 863.5,-199 862.86,-189.79 857.07,-179.18 855.91,-172.18"/>
<polygon fill="black" stroke="black" points="858.64,-174.37 862.5,-164.5 853.33,-169.81 858.64,-174.37"/>
</g>
<!-- refinement_wfsegs_to_native_wf_aseg&#45;&gt;refinement_wfrefine -->
<g id="edge8" class="edge">
<title>refinement_wfsegs_to_native_wf_aseg:e&#45;&gt;refinement_wfrefine:w</title>
<path fill="none" stroke="black" d="M836.5,-264C850.64,-264 847.52,-156.79 856.67,-125.8"/>
<polygon fill="black" stroke="black" points="859.61,-127.69 862.5,-117.5 853.89,-123.67 859.61,-127.69"/>
</g>
<!-- refinement_wfoutputnode -->
<g id="node4" class="node">
<title>refinement_wfoutputnode</title>
<polygon fill="none" stroke="black" points="1092,-0.5 1092,-69.5 1361,-69.5 1361,-0.5 1092,-0.5"/>
<text text-anchor="middle" x="1153" y="-48.8" font-family="Times,serif" font-size="14.00">IN</text>
<polyline fill="none" stroke="black" points="1092,-35.5 1214,-35.5 "/>
<text text-anchor="middle" x="1153" y="-14.3" font-family="Times,serif" font-size="14.00">out_brainmask</text>
<polyline fill="none" stroke="black" points="1214,-0.5 1214,-69.5 "/>
<text text-anchor="middle" x="1263" y="-54.3" font-family="Times,serif" font-size="14.00">outputnode</text>
<polyline fill="none" stroke="black" points="1214,-46.5 1312,-46.5 "/>
<text text-anchor="middle" x="1263" y="-31.3" font-family="Times,serif" font-size="14.00">utility</text>
<polyline fill="none" stroke="black" points="1214,-23.5 1312,-23.5 "/>
<text text-anchor="middle" x="1263" y="-8.3" font-family="Times,serif" font-size="14.00"> </text>
<polyline fill="none" stroke="black" points="1312,-0.5 1312,-69.5 "/>
<text text-anchor="middle" x="1336.5" y="-31.3" font-family="Times,serif" font-size="14.00">OUT</text>
</g>
<!-- refinement_wfrefine&#45;&gt;refinement_wfoutputnode -->
<g id="edge7" class="edge">
<title>refinement_wfrefine:e&#45;&gt;refinement_wfoutputnode:w</title>
<path fill="none" stroke="black" d="M1092.5,-129.5C1137.61,-129.5 1057.89,-37.14 1080.57,-20.54"/>
<polygon fill="black" stroke="black" points="1081.68,-23.87 1090.5,-18 1079.94,-17.09 1081.68,-23.87"/>
</g>
</g>
</svg>
