<?xml version="1.0" encoding="UTF-8" standalone="no"?>
<!DOCTYPE svg PUBLIC "-//W3C//DTD SVG 1.1//EN"
 "http://www.w3.org/Graphics/SVG/1.1/DTD/svg11.dtd">
<!-- Generated by graphviz version 2.43.0 (0)
 -->
<!-- Title: structs Pages: 1 -->
<svg width="1934pt" height="1469pt"
 viewBox="0.00 0.00 1933.94 1469.00" xmlns="http://www.w3.org/2000/svg" xmlns:xlink="http://www.w3.org/1999/xlink">
<g id="graph0" class="graph" transform="scale(1 1) rotate(0) translate(4 1465)">
<title>structs</title>
<polygon fill="white" stroke="transparent" points="-4,4 -4,-1465 1929.94,-1465 1929.94,4 -4,4"/>
<!-- surface_recon_wfinputnode -->
<g id="node1" class="node">
<title>surface_recon_wfinputnode</title>
<polygon fill="none" stroke="black" points="214.55,-1299.5 214.55,-1460.5 469.55,-1460.5 469.55,-1299.5 214.55,-1299.5"/>
<text text-anchor="middle" x="231.55" y="-1376.3" font-family="Times,serif" font-size="14.00">IN</text>
<polyline fill="none" stroke="black" points="248.55,-1299.5 248.55,-1460.5 "/>
<text text-anchor="middle" x="293.05" y="-1430.3" font-family="Times,serif" font-size="14.00">inputnode</text>
<polyline fill="none" stroke="black" points="248.55,-1407.5 337.55,-1407.5 "/>
<text text-anchor="middle" x="293.05" y="-1376.8" font-family="Times,serif" font-size="14.00">utility</text>
<polyline fill="none" stroke="black" points="248.55,-1353.5 337.55,-1353.5 "/>
<text text-anchor="middle" x="293.05" y="-1322.8" font-family="Times,serif" font-size="14.00"> </text>
<polyline fill="none" stroke="black" points="337.55,-1299.5 337.55,-1460.5 "/>
<text text-anchor="middle" x="403.55" y="-1445.3" font-family="Times,serif" font-size="14.00">OUT</text>
<polyline fill="none" stroke="black" points="337.55,-1437.5 469.55,-1437.5 "/>
<text text-anchor="middle" x="403.55" y="-1422.3" font-family="Times,serif" font-size="14.00">flair</text>
<polyline fill="none" stroke="black" points="337.55,-1414.5 469.55,-1414.5 "/>
<text text-anchor="middle" x="403.55" y="-1399.3" font-family="Times,serif" font-size="14.00">skullstripped_t1</text>
<polyline fill="none" stroke="black" points="337.55,-1391.5 469.55,-1391.5 "/>
<text text-anchor="middle" x="403.55" y="-1376.3" font-family="Times,serif" font-size="14.00">subject_id</text>
<polyline fill="none" stroke="black" points="337.55,-1368.5 469.55,-1368.5 "/>
<text text-anchor="middle" x="403.55" y="-1353.3" font-family="Times,serif" font-size="14.00">subjects_dir</text>
<polyline fill="none" stroke="black" points="337.55,-1345.5 469.55,-1345.5 "/>
<text text-anchor="middle" x="403.55" y="-1330.3" font-family="Times,serif" font-size="14.00">t1w</text>
<polyline fill="none" stroke="black" points="337.55,-1322.5 469.55,-1322.5 "/>
<text text-anchor="middle" x="403.55" y="-1307.3" font-family="Times,serif" font-size="14.00">t2w</text>
</g>
<!-- surface_recon_wfrecon_config -->
<g id="node2" class="node">
<title>surface_recon_wfrecon_config</title>
<polygon fill="none" stroke="black" points="536.55,-1101.5 536.55,-1262.5 817.55,-1262.5 817.55,-1101.5 536.55,-1101.5"/>
<text text-anchor="middle" x="573.55" y="-1238.8" font-family="Times,serif" font-size="14.00">IN</text>
<polyline fill="none" stroke="black" points="536.55,-1222.5 610.55,-1222.5 "/>
<text text-anchor="middle" x="573.55" y="-1198.8" font-family="Times,serif" font-size="14.00">flair_list</text>
<polyline fill="none" stroke="black" points="536.55,-1182.5 610.55,-1182.5 "/>
<text text-anchor="middle" x="573.55" y="-1158.8" font-family="Times,serif" font-size="14.00">t1w_list</text>
<polyline fill="none" stroke="black" points="536.55,-1142.5 610.55,-1142.5 "/>
<text text-anchor="middle" x="573.55" y="-1118.3" font-family="Times,serif" font-size="14.00">t2w_list</text>
<polyline fill="none" stroke="black" points="610.55,-1101.5 610.55,-1262.5 "/>
<text text-anchor="middle" x="663.55" y="-1232.3" font-family="Times,serif" font-size="14.00">recon_config</text>
<polyline fill="none" stroke="black" points="610.55,-1209.5 716.55,-1209.5 "/>
<text text-anchor="middle" x="663.55" y="-1178.8" font-family="Times,serif" font-size="14.00">freesurfer</text>
<polyline fill="none" stroke="black" points="610.55,-1155.5 716.55,-1155.5 "/>
<text text-anchor="middle" x="663.55" y="-1124.8" font-family="Times,serif" font-size="14.00"> </text>
<polyline fill="none" stroke="black" points="716.55,-1101.5 716.55,-1262.5 "/>
<text text-anchor="middle" x="767.05" y="-1247.3" font-family="Times,serif" font-size="14.00">OUT</text>
<polyline fill="none" stroke="black" points="716.55,-1239.5 817.55,-1239.5 "/>
<text text-anchor="middle" x="767.05" y="-1224.3" font-family="Times,serif" font-size="14.00">flair</text>
<polyline fill="none" stroke="black" points="716.55,-1216.5 817.55,-1216.5 "/>
<text text-anchor="middle" x="767.05" y="-1201.3" font-family="Times,serif" font-size="14.00">hires</text>
<polyline fill="none" stroke="black" points="716.55,-1193.5 817.55,-1193.5 "/>
<text text-anchor="middle" x="767.05" y="-1178.3" font-family="Times,serif" font-size="14.00">mris_inflate</text>
<polyline fill="none" stroke="black" points="716.55,-1170.5 817.55,-1170.5 "/>
<text text-anchor="middle" x="767.05" y="-1155.3" font-family="Times,serif" font-size="14.00">t2w</text>
<polyline fill="none" stroke="black" points="716.55,-1147.5 817.55,-1147.5 "/>
<text text-anchor="middle" x="767.05" y="-1132.3" font-family="Times,serif" font-size="14.00">use_flair</text>
<polyline fill="none" stroke="black" points="716.55,-1124.5 817.55,-1124.5 "/>
<text text-anchor="middle" x="767.05" y="-1109.3" font-family="Times,serif" font-size="14.00">use_t2w</text>
</g>
<!-- surface_recon_wfinputnode&#45;&gt;surface_recon_wfrecon_config -->
<g id="edge12" class="edge">
<title>surface_recon_wfinputnode:e&#45;&gt;surface_recon_wfrecon_config:w</title>
<path fill="none" stroke="black" d="M471.05,-1426C546.96,-1426 502.66,-1336.39 522.05,-1263 524.69,-1253 522.96,-1223.7 527.9,-1210.09"/>
<polygon fill="black" stroke="black" points="530.42,-1212.53 535.05,-1203 525.49,-1207.56 530.42,-1212.53"/>
</g>
<!-- surface_recon_wfinputnode&#45;&gt;surface_recon_wfrecon_config -->
<g id="edge19" class="edge">
<title>surface_recon_wfinputnode:e&#45;&gt;surface_recon_wfrecon_config:w</title>
<path fill="none" stroke="black" d="M471.05,-1334C509.9,-1334 507.8,-1299.15 522.05,-1263 528.98,-1245.4 517.59,-1186.65 526.89,-1167.84"/>
<polygon fill="black" stroke="black" points="528.96,-1170.67 535.05,-1162 524.88,-1164.98 528.96,-1170.67"/>
</g>
<!-- surface_recon_wfinputnode&#45;&gt;surface_recon_wfrecon_config -->
<g id="edge20" class="edge">
<title>surface_recon_wfinputnode:e&#45;&gt;surface_recon_wfrecon_config:w</title>
<path fill="none" stroke="black" d="M471.05,-1311C502.17,-1311 508.4,-1290.98 522.05,-1263 527.87,-1251.07 521.92,-1158.89 529.37,-1130.38"/>
<polygon fill="black" stroke="black" points="532.34,-1132.24 535.05,-1122 526.54,-1128.31 532.34,-1132.24"/>
</g>
<!-- surface_recon_wffov_check -->
<g id="node3" class="node">
<title>surface_recon_wffov_check</title>
<polygon fill="none" stroke="black" points="240.55,-1147.5 240.55,-1216.5 441.55,-1216.5 441.55,-1147.5 240.55,-1147.5"/>
<text text-anchor="middle" x="273.55" y="-1195.8" font-family="Times,serif" font-size="14.00">IN</text>
<polyline fill="none" stroke="black" points="240.55,-1182.5 306.55,-1182.5 "/>
<text text-anchor="middle" x="273.55" y="-1161.3" font-family="Times,serif" font-size="14.00">in_files</text>
<polyline fill="none" stroke="black" points="306.55,-1147.5 306.55,-1216.5 "/>
<text text-anchor="middle" x="349.55" y="-1201.3" font-family="Times,serif" font-size="14.00">fov_check</text>
<polyline fill="none" stroke="black" points="306.55,-1193.5 392.55,-1193.5 "/>
<text text-anchor="middle" x="349.55" y="-1178.3" font-family="Times,serif" font-size="14.00">utility</text>
<polyline fill="none" stroke="black" points="306.55,-1170.5 392.55,-1170.5 "/>
<text text-anchor="middle" x="349.55" y="-1155.3" font-family="Times,serif" font-size="14.00"> </text>
<polyline fill="none" stroke="black" points="392.55,-1147.5 392.55,-1216.5 "/>
<text text-anchor="middle" x="417.05" y="-1195.8" font-family="Times,serif" font-size="14.00">OUT</text>
<polyline fill="none" stroke="black" points="392.55,-1182.5 441.55,-1182.5 "/>
<text text-anchor="middle" x="417.05" y="-1161.3" font-family="Times,serif" font-size="14.00">out</text>
</g>
<!-- surface_recon_wfinputnode&#45;&gt;surface_recon_wffov_check -->
<g id="edge17" class="edge">
<title>surface_recon_wfinputnode:e&#45;&gt;surface_recon_wffov_check:w</title>
<path fill="none" stroke="black" d="M471.05,-1334C486.61,-1334 479.2,-1311.59 470.05,-1299 406.25,-1211.21 303.44,-1305.09 240.05,-1217 235.2,-1210.26 230.83,-1186.34 233.05,-1173.43"/>
<polygon fill="black" stroke="black" points="236.1,-1175.18 239.05,-1165 230.4,-1171.12 236.1,-1175.18"/>
</g>
<!-- surface_recon_wfautorecon1 -->
<g id="node4" class="node">
<title>surface_recon_wfautorecon1</title>
<polygon fill="none" stroke="black" points="470.55,-857.5 470.55,-1064.5 773.55,-1064.5 773.55,-857.5 470.55,-857.5"/>
<text text-anchor="middle" x="522.05" y="-1049.3" font-family="Times,serif" font-size="14.00">IN</text>
<polyline fill="none" stroke="black" points="470.55,-1041.5 573.55,-1041.5 "/>
<text text-anchor="middle" x="522.05" y="-1026.3" font-family="Times,serif" font-size="14.00">FLAIR_file</text>
<polyline fill="none" stroke="black" points="470.55,-1018.5 573.55,-1018.5 "/>
<text text-anchor="middle" x="522.05" y="-1003.3" font-family="Times,serif" font-size="14.00">T1_files</text>
<polyline fill="none" stroke="black" points="470.55,-995.5 573.55,-995.5 "/>
<text text-anchor="middle" x="522.05" y="-980.3" font-family="Times,serif" font-size="14.00">T2_file</text>
<polyline fill="none" stroke="black" points="470.55,-972.5 573.55,-972.5 "/>
<text text-anchor="middle" x="522.05" y="-957.3" font-family="Times,serif" font-size="14.00">flags</text>
<polyline fill="none" stroke="black" points="470.55,-949.5 573.55,-949.5 "/>
<text text-anchor="middle" x="522.05" y="-934.3" font-family="Times,serif" font-size="14.00">hires</text>
<polyline fill="none" stroke="black" points="470.55,-926.5 573.55,-926.5 "/>
<text text-anchor="middle" x="522.05" y="-911.3" font-family="Times,serif" font-size="14.00">mris_inflate</text>
<polyline fill="none" stroke="black" points="470.55,-903.5 573.55,-903.5 "/>
<text text-anchor="middle" x="522.05" y="-888.3" font-family="Times,serif" font-size="14.00">subject_id</text>
<polyline fill="none" stroke="black" points="470.55,-880.5 573.55,-880.5 "/>
<text text-anchor="middle" x="522.05" y="-865.3" font-family="Times,serif" font-size="14.00">subjects_dir</text>
<polyline fill="none" stroke="black" points="573.55,-857.5 573.55,-1064.5 "/>
<text text-anchor="middle" x="622.05" y="-1026.3" font-family="Times,serif" font-size="14.00">autorecon1</text>
<polyline fill="none" stroke="black" points="573.55,-995.5 670.55,-995.5 "/>
<text text-anchor="middle" x="622.05" y="-957.3" font-family="Times,serif" font-size="14.00">freesurfer</text>
<polyline fill="none" stroke="black" points="573.55,-926.5 670.55,-926.5 "/>
<text text-anchor="middle" x="622.05" y="-888.3" font-family="Times,serif" font-size="14.00"> </text>
<polyline fill="none" stroke="black" points="670.55,-857.5 670.55,-1064.5 "/>
<text text-anchor="middle" x="722.05" y="-1035.3" font-family="Times,serif" font-size="14.00">OUT</text>
<polyline fill="none" stroke="black" points="670.55,-1013.5 773.55,-1013.5 "/>
<text text-anchor="middle" x="722.05" y="-983.8" font-family="Times,serif" font-size="14.00">T1</text>
<polyline fill="none" stroke="black" points="670.55,-961.5 773.55,-961.5 "/>
<text text-anchor="middle" x="722.05" y="-931.8" font-family="Times,serif" font-size="14.00">subject_id</text>
<polyline fill="none" stroke="black" points="670.55,-909.5 773.55,-909.5 "/>
<text text-anchor="middle" x="722.05" y="-879.8" font-family="Times,serif" font-size="14.00">subjects_dir</text>
</g>
<!-- surface_recon_wfinputnode&#45;&gt;surface_recon_wfautorecon1 -->
<g id="edge14" class="edge">
<title>surface_recon_wfinputnode:e&#45;&gt;surface_recon_wfautorecon1:w</title>
<path fill="none" stroke="black" d="M471.05,-1380C521.78,-1380 428.38,-952.88 460.53,-897.82"/>
<polygon fill="black" stroke="black" points="462.76,-900.53 469.05,-892 458.82,-894.75 462.76,-900.53"/>
</g>
<!-- surface_recon_wfinputnode&#45;&gt;surface_recon_wfautorecon1 -->
<g id="edge15" class="edge">
<title>surface_recon_wfinputnode:e&#45;&gt;surface_recon_wfautorecon1:w</title>
<path fill="none" stroke="black" d="M471.05,-1357C513.5,-1357 484.25,-1305.29 488.05,-1263 494.48,-1191.29 504.59,-1171.07 488.05,-1101 483.94,-1083.59 474.2,-1082.4 470.05,-1065 450.69,-983.91 387.68,-878.51 458.66,-869.61"/>
<polygon fill="black" stroke="black" points="459.27,-873.08 469.05,-869 458.86,-866.09 459.27,-873.08"/>
</g>
<!-- surface_recon_wfinputnode&#45;&gt;surface_recon_wfautorecon1 -->
<g id="edge16" class="edge">
<title>surface_recon_wfinputnode:e&#45;&gt;surface_recon_wfautorecon1:w</title>
<path fill="none" stroke="black" d="M471.05,-1334C486.61,-1334 480.37,-1310.65 470.05,-1299 398.82,-1218.59 301.12,-1344.42 231.05,-1263 184.08,-1208.43 190.55,-1160.53 231.05,-1101 261.28,-1056.55 396.22,-1012.14 458.92,-1007.41"/>
<polygon fill="black" stroke="black" points="459.2,-1010.91 469.05,-1007 458.91,-1003.91 459.2,-1010.91"/>
</g>
<!-- surface_recon_wfskull_strip_extern -->
<g id="node5" class="node">
<title>surface_recon_wfskull_strip_extern</title>
<polygon fill="none" stroke="black" points="488.05,-728.5 488.05,-820.5 838.05,-820.5 838.05,-728.5 488.05,-728.5"/>
<text text-anchor="middle" x="539.55" y="-805.3" font-family="Times,serif" font-size="14.00">IN</text>
<polyline fill="none" stroke="black" points="488.05,-797.5 591.05,-797.5 "/>
<text text-anchor="middle" x="539.55" y="-782.3" font-family="Times,serif" font-size="14.00">in_brain</text>
<polyline fill="none" stroke="black" points="488.05,-774.5 591.05,-774.5 "/>
<text text-anchor="middle" x="539.55" y="-759.3" font-family="Times,serif" font-size="14.00">subject_id</text>
<polyline fill="none" stroke="black" points="488.05,-751.5 591.05,-751.5 "/>
<text text-anchor="middle" x="539.55" y="-736.3" font-family="Times,serif" font-size="14.00">subjects_dir</text>
<polyline fill="none" stroke="black" points="591.05,-728.5 591.05,-820.5 "/>
<text text-anchor="middle" x="663.05" y="-801.8" font-family="Times,serif" font-size="14.00">skull_strip_extern</text>
<polyline fill="none" stroke="black" points="591.05,-790.5 735.05,-790.5 "/>
<text text-anchor="middle" x="663.05" y="-771.3" font-family="Times,serif" font-size="14.00">freesurfer</text>
<polyline fill="none" stroke="black" points="591.05,-759.5 735.05,-759.5 "/>
<text text-anchor="middle" x="663.05" y="-740.3" font-family="Times,serif" font-size="14.00"> </text>
<polyline fill="none" stroke="black" points="735.05,-728.5 735.05,-820.5 "/>
<text text-anchor="middle" x="786.55" y="-801.8" font-family="Times,serif" font-size="14.00">OUT</text>
<polyline fill="none" stroke="black" points="735.05,-790.5 838.05,-790.5 "/>
<text text-anchor="middle" x="786.55" y="-771.3" font-family="Times,serif" font-size="14.00">subject_id</text>
<polyline fill="none" stroke="black" points="735.05,-759.5 838.05,-759.5 "/>
<text text-anchor="middle" x="786.55" y="-740.3" font-family="Times,serif" font-size="14.00">subjects_dir</text>
</g>
<!-- surface_recon_wfinputnode&#45;&gt;surface_recon_wfskull_strip_extern -->
<g id="edge13" class="edge">
<title>surface_recon_wfinputnode:e&#45;&gt;surface_recon_wfskull_strip_extern:w</title>
<path fill="none" stroke="black" d="M471.05,-1403C517.27,-1403 500.7,-1333.6 470.05,-1299 388.3,-1206.75 276.36,-1355.65 195.05,-1263 147.56,-1208.88 167.26,-1167.42 195.05,-1101 263.46,-937.48 392.49,-975.68 479.05,-821 483.97,-812.2 479.41,-800.52 479.63,-793.26"/>
<polygon fill="black" stroke="black" points="482.01,-795.82 487.05,-786.5 477.3,-790.65 482.01,-795.82"/>
</g>
<!-- surface_recon_wffsnative2t1w_xfm -->
<g id="node6" class="node">
<title>surface_recon_wffsnative2t1w_xfm</title>
<polygon fill="none" stroke="black" points="136.05,-740 136.05,-809 470.05,-809 470.05,-740 136.05,-740"/>
<text text-anchor="middle" x="182.05" y="-793.8" font-family="Times,serif" font-size="14.00">IN</text>
<polyline fill="none" stroke="black" points="136.05,-786 228.05,-786 "/>
<text text-anchor="middle" x="182.05" y="-770.8" font-family="Times,serif" font-size="14.00">source_file</text>
<polyline fill="none" stroke="black" points="136.05,-763 228.05,-763 "/>
<text text-anchor="middle" x="182.05" y="-747.8" font-family="Times,serif" font-size="14.00">target_file</text>
<polyline fill="none" stroke="black" points="228.05,-740 228.05,-809 "/>
<text text-anchor="middle" x="299.55" y="-793.8" font-family="Times,serif" font-size="14.00">fsnative2t1w_xfm</text>
<polyline fill="none" stroke="black" points="228.05,-786 371.05,-786 "/>
<text text-anchor="middle" x="299.55" y="-770.8" font-family="Times,serif" font-size="14.00">freesurfer</text>
<polyline fill="none" stroke="black" points="228.05,-763 371.05,-763 "/>
<text text-anchor="middle" x="299.55" y="-747.8" font-family="Times,serif" font-size="14.00"> </text>
<polyline fill="none" stroke="black" points="371.05,-740 371.05,-809 "/>
<text text-anchor="middle" x="420.55" y="-788.3" font-family="Times,serif" font-size="14.00">OUT</text>
<polyline fill="none" stroke="black" points="371.05,-775 470.05,-775 "/>
<text text-anchor="middle" x="420.55" y="-753.8" font-family="Times,serif" font-size="14.00">out_reg_file</text>
</g>
<!-- surface_recon_wfinputnode&#45;&gt;surface_recon_wffsnative2t1w_xfm -->
<g id="edge18" class="edge">
<title>surface_recon_wfinputnode:e&#45;&gt;surface_recon_wffsnative2t1w_xfm:w</title>
<path fill="none" stroke="black" d="M471.05,-1334C486.61,-1334 480.56,-1310.47 470.05,-1299 376.33,-1196.75 255,-1364.11 160.05,-1263 6.59,-1099.6 -89.61,-761.92 124.93,-751.74"/>
<polygon fill="black" stroke="black" points="125.13,-755.23 135.05,-751.5 124.97,-748.23 125.13,-755.23"/>
</g>
<!-- surface_recon_wfrecon_config&#45;&gt;surface_recon_wfautorecon1 -->
<g id="edge22" class="edge">
<title>surface_recon_wfrecon_config:e&#45;&gt;surface_recon_wfautorecon1:w</title>
<path fill="none" stroke="black" d="M819.05,-1228C875.49,-1228 856.02,-1142.77 818.05,-1101 765.75,-1043.47 522.94,-1121.98 470.05,-1065 462.6,-1056.98 457.44,-1042.93 460.44,-1035.3"/>
<polygon fill="black" stroke="black" points="462.37,-1038.22 469.05,-1030 458.7,-1032.26 462.37,-1038.22"/>
</g>
<!-- surface_recon_wfrecon_config&#45;&gt;surface_recon_wfautorecon1 -->
<g id="edge23" class="edge">
<title>surface_recon_wfrecon_config:e&#45;&gt;surface_recon_wfautorecon1:w</title>
<path fill="none" stroke="black" d="M819.05,-1205C865.27,-1205 849.17,-1135.18 818.05,-1101 765.7,-1043.52 522.34,-1122.53 470.05,-1065 434.53,-1025.92 415.19,-948.81 459.06,-939.03"/>
<polygon fill="black" stroke="black" points="459.46,-942.51 469.05,-938 458.74,-935.54 459.46,-942.51"/>
</g>
<!-- surface_recon_wfrecon_config&#45;&gt;surface_recon_wfautorecon1 -->
<g id="edge24" class="edge">
<title>surface_recon_wfrecon_config:e&#45;&gt;surface_recon_wfautorecon1:w</title>
<path fill="none" stroke="black" d="M819.05,-1182C855.05,-1182 842.32,-1127.59 818.05,-1101 765.62,-1043.59 522.31,-1122.56 470.05,-1065 427.68,-1018.34 404.94,-925.85 458.9,-915.88"/>
<polygon fill="black" stroke="black" points="459.39,-919.35 469.05,-915 458.78,-912.38 459.39,-919.35"/>
</g>
<!-- surface_recon_wfrecon_config&#45;&gt;surface_recon_wfautorecon1 -->
<g id="edge25" class="edge">
<title>surface_recon_wfrecon_config:e&#45;&gt;surface_recon_wfautorecon1:w</title>
<path fill="none" stroke="black" d="M819.05,-1159C844.83,-1159 835.48,-1120 818.05,-1101 765.48,-1043.72 522.47,-1122.41 470.05,-1065 448.43,-1041.32 435.97,-995.57 458.93,-985.85"/>
<polygon fill="black" stroke="black" points="459.84,-989.24 469.05,-984 458.58,-982.35 459.84,-989.24"/>
</g>
<!-- surface_recon_wfautorecon_resume_wf -->
<g id="node7" class="node">
<title>surface_recon_wfautorecon_resume_wf</title>
<polygon fill="none" stroke="black" points="838.05,-576.5 838.05,-691.5 1378.05,-691.5 1378.05,-576.5 838.05,-576.5"/>
<text text-anchor="middle" x="927.55" y="-676.3" font-family="Times,serif" font-size="14.00">IN</text>
<polyline fill="none" stroke="black" points="838.05,-668.5 1017.05,-668.5 "/>
<text text-anchor="middle" x="927.55" y="-653.3" font-family="Times,serif" font-size="14.00">inputnode.subject_id</text>
<polyline fill="none" stroke="black" points="838.05,-645.5 1017.05,-645.5 "/>
<text text-anchor="middle" x="927.55" y="-630.3" font-family="Times,serif" font-size="14.00">inputnode.subjects_dir</text>
<polyline fill="none" stroke="black" points="838.05,-622.5 1017.05,-622.5 "/>
<text text-anchor="middle" x="927.55" y="-607.3" font-family="Times,serif" font-size="14.00">inputnode.use_FLAIR</text>
<polyline fill="none" stroke="black" points="838.05,-599.5 1017.05,-599.5 "/>
<text text-anchor="middle" x="927.55" y="-584.3" font-family="Times,serif" font-size="14.00">inputnode.use_T2</text>
<polyline fill="none" stroke="black" points="1017.05,-576.5 1017.05,-691.5 "/>
<text text-anchor="middle" x="1103.05" y="-668.8" font-family="Times,serif" font-size="14.00">autorecon_resume_wf</text>
<polyline fill="none" stroke="black" points="1017.05,-653.5 1189.05,-653.5 "/>
<text text-anchor="middle" x="1103.05" y="-630.8" font-family="Times,serif" font-size="14.00"> </text>
<polyline fill="none" stroke="black" points="1017.05,-615.5 1189.05,-615.5 "/>
<text text-anchor="middle" x="1103.05" y="-592.3" font-family="Times,serif" font-size="14.00"> </text>
<polyline fill="none" stroke="black" points="1189.05,-576.5 1189.05,-691.5 "/>
<text text-anchor="middle" x="1283.55" y="-668.8" font-family="Times,serif" font-size="14.00">OUT</text>
<polyline fill="none" stroke="black" points="1189.05,-653.5 1378.05,-653.5 "/>
<text text-anchor="middle" x="1283.55" y="-630.8" font-family="Times,serif" font-size="14.00">outputnode.subject_id</text>
<polyline fill="none" stroke="black" points="1189.05,-615.5 1378.05,-615.5 "/>
<text text-anchor="middle" x="1283.55" y="-592.3" font-family="Times,serif" font-size="14.00">outputnode.subjects_dir</text>
</g>
<!-- surface_recon_wfrecon_config&#45;&gt;surface_recon_wfautorecon_resume_wf -->
<g id="edge26" class="edge">
<title>surface_recon_wfrecon_config:e&#45;&gt;surface_recon_wfautorecon_resume_wf:w</title>
<path fill="none" stroke="black" d="M819.05,-1136C909.93,-1136 858.15,-818.2 847.05,-728 841.17,-680.25 793.28,-621.11 826.72,-612.16"/>
<polygon fill="black" stroke="black" points="827.5,-615.59 837.05,-611 826.72,-608.63 827.5,-615.59"/>
</g>
<!-- surface_recon_wfrecon_config&#45;&gt;surface_recon_wfautorecon_resume_wf -->
<g id="edge27" class="edge">
<title>surface_recon_wfrecon_config:e&#45;&gt;surface_recon_wfautorecon_resume_wf:w</title>
<path fill="none" stroke="black" d="M819.05,-1113C991.43,-1113 931.33,-887.54 866.05,-728 858.37,-709.24 844.72,-711.14 838.05,-692 824.14,-652.1 796.2,-598.25 826.8,-589.29"/>
<polygon fill="black" stroke="black" points="827.56,-592.72 837.05,-588 826.69,-585.78 827.56,-592.72"/>
</g>
<!-- surface_recon_wffov_check&#45;&gt;surface_recon_wfautorecon1 -->
<g id="edge8" class="edge">
<title>surface_recon_wffov_check:e&#45;&gt;surface_recon_wfautorecon1:w</title>
<path fill="none" stroke="black" d="M443.05,-1165C463.22,-1165 450.23,-1006.01 462.63,-968.75"/>
<polygon fill="black" stroke="black" points="465.36,-970.93 469.05,-961 459.97,-966.47 465.36,-970.93"/>
</g>
<!-- surface_recon_wfautorecon1&#45;&gt;surface_recon_wfskull_strip_extern -->
<g id="edge2" class="edge">
<title>surface_recon_wfautorecon1:e&#45;&gt;surface_recon_wfskull_strip_extern:w</title>
<path fill="none" stroke="black" d="M775.05,-935C809.72,-935 797.15,-882.85 774.05,-857 688.69,-761.46 573.61,-916.35 488.05,-821 481.54,-813.74 476.92,-784.46 480.5,-770.28"/>
<polygon fill="black" stroke="black" points="483.28,-772.4 487.05,-762.5 477.93,-767.9 483.28,-772.4"/>
</g>
<!-- surface_recon_wfautorecon1&#45;&gt;surface_recon_wfskull_strip_extern -->
<g id="edge3" class="edge">
<title>surface_recon_wfautorecon1:e&#45;&gt;surface_recon_wfskull_strip_extern:w</title>
<path fill="none" stroke="black" d="M775.05,-883C786.61,-883 781.86,-865.52 774.05,-857 687.47,-762.57 573.38,-916.56 488.05,-821 483.34,-815.72 479.85,-768.95 482.87,-748.74"/>
<polygon fill="black" stroke="black" points="486.11,-750.05 487.05,-739.5 479.73,-747.17 486.11,-750.05"/>
</g>
<!-- surface_recon_wfautorecon1&#45;&gt;surface_recon_wffsnative2t1w_xfm -->
<g id="edge1" class="edge">
<title>surface_recon_wfautorecon1:e&#45;&gt;surface_recon_wffsnative2t1w_xfm:w</title>
<path fill="none" stroke="black" d="M775.05,-988C833.27,-988 813.82,-899.52 774.05,-857 725.49,-805.09 185.15,-860.9 136.05,-809.5 128.49,-801.59 123.37,-787.5 126.41,-779.83"/>
<polygon fill="black" stroke="black" points="128.38,-782.73 135.05,-774.5 124.7,-776.77 128.38,-782.73"/>
</g>
<!-- surface_recon_wfskull_strip_extern&#45;&gt;surface_recon_wfautorecon_resume_wf -->
<g id="edge29" class="edge">
<title>surface_recon_wfskull_strip_extern:e&#45;&gt;surface_recon_wfautorecon_resume_wf:w</title>
<path fill="none" stroke="black" d="M839.05,-775.5C861.37,-775.5 825.49,-690.36 830.08,-664.41"/>
<polygon fill="black" stroke="black" points="832.75,-666.68 837.05,-657 827.65,-661.89 832.75,-666.68"/>
</g>
<!-- surface_recon_wfskull_strip_extern&#45;&gt;surface_recon_wfautorecon_resume_wf -->
<g id="edge30" class="edge">
<title>surface_recon_wfskull_strip_extern:e&#45;&gt;surface_recon_wfautorecon_resume_wf:w</title>
<path fill="none" stroke="black" d="M839.05,-743.5C861.94,-743.5 838.47,-714.89 838.05,-692 837.66,-671.06 820.22,-645.86 827.53,-637.14"/>
<polygon fill="black" stroke="black" points="828.65,-640.46 837.05,-634 826.45,-633.81 828.65,-640.46"/>
</g>
<!-- surface_recon_wfoutputnode -->
<g id="node12" class="node">
<title>surface_recon_wfoutputnode</title>
<polygon fill="none" stroke="black" points="1408.05,-0.5 1408.05,-92.5 1698.05,-92.5 1698.05,-0.5 1408.05,-0.5"/>
<text text-anchor="middle" x="1479.55" y="-77.3" font-family="Times,serif" font-size="14.00">IN</text>
<polyline fill="none" stroke="black" points="1408.05,-69.5 1551.05,-69.5 "/>
<text text-anchor="middle" x="1479.55" y="-54.3" font-family="Times,serif" font-size="14.00">fsnative2t1w_xfm</text>
<polyline fill="none" stroke="black" points="1408.05,-46.5 1551.05,-46.5 "/>
<text text-anchor="middle" x="1479.55" y="-31.3" font-family="Times,serif" font-size="14.00">subject_id</text>
<polyline fill="none" stroke="black" points="1408.05,-23.5 1551.05,-23.5 "/>
<text text-anchor="middle" x="1479.55" y="-8.3" font-family="Times,serif" font-size="14.00">subjects_dir</text>
<polyline fill="none" stroke="black" points="1551.05,-0.5 1551.05,-92.5 "/>
<text text-anchor="middle" x="1600.05" y="-73.8" font-family="Times,serif" font-size="14.00">outputnode</text>
<polyline fill="none" stroke="black" points="1551.05,-62.5 1649.05,-62.5 "/>
<text text-anchor="middle" x="1600.05" y="-43.3" font-family="Times,serif" font-size="14.00">utility</text>
<polyline fill="none" stroke="black" points="1551.05,-31.5 1649.05,-31.5 "/>
<text text-anchor="middle" x="1600.05" y="-12.3" font-family="Times,serif" font-size="14.00"> </text>
<polyline fill="none" stroke="black" points="1649.05,-0.5 1649.05,-92.5 "/>
<text text-anchor="middle" x="1673.55" y="-42.8" font-family="Times,serif" font-size="14.00">OUT</text>
</g>
<!-- surface_recon_wffsnative2t1w_xfm&#45;&gt;surface_recon_wfoutputnode -->
<g id="edge9" class="edge">
<title>surface_recon_wffsnative2t1w_xfm:e&#45;&gt;surface_recon_wfoutputnode:w</title>
<path fill="none" stroke="black" d="M471.05,-757.5C484.63,-757.5 473.19,-740.26 479.05,-728 531.64,-618.05 640.05,-627.88 640.05,-506 640.05,-506 640.05,-506 640.05,-280.5 640.05,-106.27 1208.5,-60.15 1397.03,-58.54"/>
<polygon fill="black" stroke="black" points="1397.06,-62.04 1407.05,-58.5 1397.03,-55.04 1397.06,-62.04"/>
</g>
<!-- surface_recon_wfget_surfaces -->
<g id="node8" class="node">
<title>surface_recon_wfget_surfaces</title>
<polygon fill="none" stroke="black" points="1378.05,-470.5 1378.05,-539.5 1664.05,-539.5 1664.05,-470.5 1378.05,-470.5"/>
<text text-anchor="middle" x="1429.55" y="-524.3" font-family="Times,serif" font-size="14.00">IN</text>
<polyline fill="none" stroke="black" points="1378.05,-516.5 1481.05,-516.5 "/>
<text text-anchor="middle" x="1429.55" y="-501.3" font-family="Times,serif" font-size="14.00">subject_id</text>
<polyline fill="none" stroke="black" points="1378.05,-493.5 1481.05,-493.5 "/>
<text text-anchor="middle" x="1429.55" y="-478.3" font-family="Times,serif" font-size="14.00">subjects_dir</text>
<polyline fill="none" stroke="black" points="1481.05,-470.5 1481.05,-539.5 "/>
<text text-anchor="middle" x="1534.55" y="-524.3" font-family="Times,serif" font-size="14.00">get_surfaces</text>
<polyline fill="none" stroke="black" points="1481.05,-516.5 1588.05,-516.5 "/>
<text text-anchor="middle" x="1534.55" y="-501.3" font-family="Times,serif" font-size="14.00">patches</text>
<polyline fill="none" stroke="black" points="1481.05,-493.5 1588.05,-493.5 "/>
<text text-anchor="middle" x="1534.55" y="-478.3" font-family="Times,serif" font-size="14.00"> </text>
<polyline fill="none" stroke="black" points="1588.05,-470.5 1588.05,-539.5 "/>
<text text-anchor="middle" x="1626.05" y="-524.3" font-family="Times,serif" font-size="14.00">OUT</text>
<polyline fill="none" stroke="black" points="1588.05,-516.5 1664.05,-516.5 "/>
<text text-anchor="middle" x="1626.05" y="-501.3" font-family="Times,serif" font-size="14.00">graymid</text>
<polyline fill="none" stroke="black" points="1588.05,-493.5 1664.05,-493.5 "/>
<text text-anchor="middle" x="1626.05" y="-478.3" font-family="Times,serif" font-size="14.00">white</text>
</g>
<!-- surface_recon_wfautorecon_resume_wf&#45;&gt;surface_recon_wfget_surfaces -->
<g id="edge4" class="edge">
<title>surface_recon_wfautorecon_resume_wf:e&#45;&gt;surface_recon_wfget_surfaces:w</title>
<path fill="none" stroke="black" d="M1379.05,-635C1403.88,-635 1363.22,-538.99 1369.63,-511.99"/>
<polygon fill="black" stroke="black" points="1372.17,-514.4 1377.05,-505 1367.37,-509.31 1372.17,-514.4"/>
</g>
<!-- surface_recon_wfautorecon_resume_wf&#45;&gt;surface_recon_wfget_surfaces -->
<g id="edge6" class="edge">
<title>surface_recon_wfautorecon_resume_wf:e&#45;&gt;surface_recon_wfget_surfaces:w</title>
<path fill="none" stroke="black" d="M1379.05,-596C1403.94,-596 1378.48,-564.89 1378.05,-540 1377.68,-519.06 1360.23,-493.86 1367.53,-485.14"/>
<polygon fill="black" stroke="black" points="1368.65,-488.46 1377.05,-482 1366.45,-481.81 1368.65,-488.46"/>
</g>
<!-- surface_recon_wfsave_midthickness -->
<g id="node10" class="node">
<title>surface_recon_wfsave_midthickness</title>
<polygon fill="none" stroke="black" points="1331.05,-235.5 1331.05,-327.5 1671.05,-327.5 1671.05,-235.5 1331.05,-235.5"/>
<text text-anchor="middle" x="1392.05" y="-312.3" font-family="Times,serif" font-size="14.00">IN</text>
<polyline fill="none" stroke="black" points="1331.05,-304.5 1453.05,-304.5 "/>
<text text-anchor="middle" x="1392.05" y="-289.3" font-family="Times,serif" font-size="14.00">base_directory</text>
<polyline fill="none" stroke="black" points="1331.05,-281.5 1453.05,-281.5 "/>
<text text-anchor="middle" x="1392.05" y="-266.3" font-family="Times,serif" font-size="14.00">container</text>
<polyline fill="none" stroke="black" points="1331.05,-258.5 1453.05,-258.5 "/>
<text text-anchor="middle" x="1392.05" y="-243.3" font-family="Times,serif" font-size="14.00">surf.@graymid</text>
<polyline fill="none" stroke="black" points="1453.05,-235.5 1453.05,-327.5 "/>
<text text-anchor="middle" x="1528.05" y="-308.8" font-family="Times,serif" font-size="14.00">save_midthickness</text>
<polyline fill="none" stroke="black" points="1453.05,-297.5 1603.05,-297.5 "/>
<text text-anchor="middle" x="1528.05" y="-278.3" font-family="Times,serif" font-size="14.00">io</text>
<polyline fill="none" stroke="black" points="1453.05,-266.5 1603.05,-266.5 "/>
<text text-anchor="middle" x="1528.05" y="-247.3" font-family="Times,serif" font-size="14.00"> </text>
<polyline fill="none" stroke="black" points="1603.05,-235.5 1603.05,-327.5 "/>
<text text-anchor="middle" x="1637.05" y="-300.8" font-family="Times,serif" font-size="14.00">OUT</text>
<polyline fill="none" stroke="black" points="1603.05,-281.5 1671.05,-281.5 "/>
<text text-anchor="middle" x="1637.05" y="-254.8" font-family="Times,serif" font-size="14.00">out_file</text>
</g>
<!-- surface_recon_wfautorecon_resume_wf&#45;&gt;surface_recon_wfsave_midthickness -->
<g id="edge5" class="edge">
<title>surface_recon_wfautorecon_resume_wf:e&#45;&gt;surface_recon_wfsave_midthickness:w</title>
<path fill="none" stroke="black" d="M1379.05,-635C1421.5,-635 1377.95,-581.51 1369.05,-540 1363.35,-513.44 1312.34,-317.95 1323.38,-277.01"/>
<polygon fill="black" stroke="black" points="1326.02,-279.3 1330.05,-269.5 1320.79,-274.65 1326.02,-279.3"/>
</g>
<!-- surface_recon_wfautorecon_resume_wf&#45;&gt;surface_recon_wfsave_midthickness -->
<g id="edge7" class="edge">
<title>surface_recon_wfautorecon_resume_wf:e&#45;&gt;surface_recon_wfsave_midthickness:w</title>
<path fill="none" stroke="black" d="M1379.05,-596C1387.95,-596 1381.22,-584.32 1378.05,-576 1370.73,-556.8 1357.91,-558.54 1349.05,-540 1303.19,-444.06 1225.38,-302.95 1320.01,-293.95"/>
<polygon fill="black" stroke="black" points="1320.22,-297.45 1330.05,-293.5 1319.9,-290.45 1320.22,-297.45"/>
</g>
<!-- surface_recon_wfmidthickness -->
<g id="node9" class="node">
<title>surface_recon_wfmidthickness</title>
<polygon fill="none" stroke="black" points="1664.55,-364.5 1664.55,-433.5 1919.55,-433.5 1919.55,-364.5 1664.55,-364.5"/>
<text text-anchor="middle" x="1702.55" y="-418.3" font-family="Times,serif" font-size="14.00">IN</text>
<polyline fill="none" stroke="black" points="1664.55,-410.5 1740.55,-410.5 "/>
<text text-anchor="middle" x="1702.55" y="-395.3" font-family="Times,serif" font-size="14.00">graymid</text>
<polyline fill="none" stroke="black" points="1664.55,-387.5 1740.55,-387.5 "/>
<text text-anchor="middle" x="1702.55" y="-372.3" font-family="Times,serif" font-size="14.00">in_file</text>
<polyline fill="none" stroke="black" points="1740.55,-364.5 1740.55,-433.5 "/>
<text text-anchor="middle" x="1796.05" y="-418.3" font-family="Times,serif" font-size="14.00">midthickness</text>
<polyline fill="none" stroke="black" points="1740.55,-410.5 1851.55,-410.5 "/>
<text text-anchor="middle" x="1796.05" y="-395.3" font-family="Times,serif" font-size="14.00">freesurfer</text>
<polyline fill="none" stroke="black" points="1740.55,-387.5 1851.55,-387.5 "/>
<text text-anchor="middle" x="1796.05" y="-372.3" font-family="Times,serif" font-size="14.00"> </text>
<polyline fill="none" stroke="black" points="1851.55,-364.5 1851.55,-433.5 "/>
<text text-anchor="middle" x="1885.55" y="-412.8" font-family="Times,serif" font-size="14.00">OUT</text>
<polyline fill="none" stroke="black" points="1851.55,-399.5 1919.55,-399.5 "/>
<text text-anchor="middle" x="1885.55" y="-378.3" font-family="Times,serif" font-size="14.00">out_file</text>
</g>
<!-- surface_recon_wfget_surfaces&#45;&gt;surface_recon_wfmidthickness -->
<g id="edge10" class="edge">
<title>surface_recon_wfget_surfaces:e&#45;&gt;surface_recon_wfmidthickness:w</title>
<path fill="none" stroke="black" d="M1665.05,-505C1707.75,-505 1632.71,-417.94 1653.34,-401.62"/>
<polygon fill="black" stroke="black" points="1654.31,-404.98 1663.05,-399 1652.48,-398.23 1654.31,-404.98"/>
</g>
<!-- surface_recon_wfget_surfaces&#45;&gt;surface_recon_wfmidthickness -->
<g id="edge11" class="edge">
<title>surface_recon_wfget_surfaces:e&#45;&gt;surface_recon_wfmidthickness:w</title>
<path fill="none" stroke="black" d="M1665.05,-482C1686.39,-482 1664.45,-455.33 1664.05,-434 1663.65,-413.06 1646.22,-387.86 1653.52,-379.14"/>
<polygon fill="black" stroke="black" points="1654.65,-382.46 1663.05,-376 1652.45,-375.81 1654.65,-382.46"/>
</g>
<!-- surface_recon_wfmidthickness&#45;&gt;surface_recon_wfsave_midthickness -->
<g id="edge21" class="edge">
<title>surface_recon_wfmidthickness:e&#45;&gt;surface_recon_wfsave_midthickness:w</title>
<path fill="none" stroke="black" d="M1921.05,-382C1929.06,-382 1925.7,-369.68 1920.05,-364 1827.58,-271.02 1421.48,-422.96 1331.05,-328 1308.7,-304.53 1296.55,-257.84 1320.16,-248.25"/>
<polygon fill="black" stroke="black" points="1320.81,-251.69 1330.05,-246.5 1319.59,-244.79 1320.81,-251.69"/>
</g>
<!-- surface_recon_wfsync -->
<g id="node11" class="node">
<title>surface_recon_wfsync</title>
<polygon fill="none" stroke="black" points="1160.55,-129.5 1160.55,-198.5 1407.55,-198.5 1407.55,-129.5 1160.55,-129.5"/>
<text text-anchor="middle" x="1203.05" y="-177.8" font-family="Times,serif" font-size="14.00">IN</text>
<polyline fill="none" stroke="black" points="1160.55,-164.5 1245.55,-164.5 "/>
<text text-anchor="middle" x="1203.05" y="-143.3" font-family="Times,serif" font-size="14.00">filenames</text>
<polyline fill="none" stroke="black" points="1245.55,-129.5 1245.55,-198.5 "/>
<text text-anchor="middle" x="1275.05" y="-183.3" font-family="Times,serif" font-size="14.00">sync</text>
<polyline fill="none" stroke="black" points="1245.55,-175.5 1304.55,-175.5 "/>
<text text-anchor="middle" x="1275.05" y="-160.3" font-family="Times,serif" font-size="14.00">utility</text>
<polyline fill="none" stroke="black" points="1245.55,-152.5 1304.55,-152.5 "/>
<text text-anchor="middle" x="1275.05" y="-137.3" font-family="Times,serif" font-size="14.00"> </text>
<polyline fill="none" stroke="black" points="1304.55,-129.5 1304.55,-198.5 "/>
<text text-anchor="middle" x="1356.05" y="-183.3" font-family="Times,serif" font-size="14.00">OUT</text>
<polyline fill="none" stroke="black" points="1304.55,-175.5 1407.55,-175.5 "/>
<text text-anchor="middle" x="1356.05" y="-160.3" font-family="Times,serif" font-size="14.00">subject_id</text>
<polyline fill="none" stroke="black" points="1304.55,-152.5 1407.55,-152.5 "/>
<text text-anchor="middle" x="1356.05" y="-137.3" font-family="Times,serif" font-size="14.00">subjects_dir</text>
</g>
<!-- surface_recon_wfsave_midthickness&#45;&gt;surface_recon_wfsync -->
<g id="edge28" class="edge">
<title>surface_recon_wfsave_midthickness:e&#45;&gt;surface_recon_wfsync:w</title>
<path fill="none" stroke="black" d="M1672.05,-258.5C1682.5,-258.5 1678.34,-242.49 1671.05,-235 1591.68,-153.39 1238.46,-281.53 1160.05,-199 1146.99,-185.25 1139.13,-159.07 1149.48,-150.1"/>
<polygon fill="black" stroke="black" points="1150.62,-153.41 1159.05,-147 1148.46,-146.76 1150.62,-153.41"/>
</g>
<!-- surface_recon_wfsync&#45;&gt;surface_recon_wfoutputnode -->
<g id="edge31" class="edge">
<title>surface_recon_wfsync:e&#45;&gt;surface_recon_wfoutputnode:w</title>
<path fill="none" stroke="black" d="M1409.05,-164C1462.34,-164 1365.91,-53.01 1396.97,-36.53"/>
<polygon fill="black" stroke="black" points="1397.94,-39.91 1407.05,-34.5 1396.55,-33.05 1397.94,-39.91"/>
</g>
<!-- surface_recon_wfsync&#45;&gt;surface_recon_wfoutputnode -->
<g id="edge32" class="edge">
<title>surface_recon_wfsync:e&#45;&gt;surface_recon_wfoutputnode:w</title>
<path fill="none" stroke="black" d="M1409.05,-141C1430.39,-141 1408.4,-114.34 1408.05,-93 1407.52,-61.02 1378.91,-21.99 1397.14,-13.28"/>
<polygon fill="black" stroke="black" points="1397.82,-16.71 1407.05,-11.5 1396.59,-9.82 1397.82,-16.71"/>
</g>
</g>
</svg>
