<?xml version="1.0" encoding="UTF-8" standalone="no"?>
<!DOCTYPE svg PUBLIC "-//W3C//DTD SVG 1.1//EN"
 "http://www.w3.org/Graphics/SVG/1.1/DTD/svg11.dtd">
<!-- Generated by graphviz version 2.43.0 (0)
 -->
<!-- Title: %3 Pages: 1 -->
<svg width="964pt" height="260pt"
 viewBox="0.00 0.00 964.03 260.00" xmlns="http://www.w3.org/2000/svg" xmlns:xlink="http://www.w3.org/1999/xlink">
<g id="graph0" class="graph" transform="scale(1 1) rotate(0) translate(4 256)">
<title>%3</title>
<polygon fill="white" stroke="transparent" points="-4,4 -4,-256 960.03,-256 960.03,4 -4,4"/>
<!-- inputnode (utility) -->
<g id="node1" class="node">
<title>inputnode (utility)</title>
<ellipse fill="none" stroke="black" cx="559.39" cy="-234" rx="94.78" ry="18"/>
<text text-anchor="middle" x="559.39" y="-230.3" font-family="Times,serif" font-size="14.00">inputnode (utility)</text>
</g>
<!-- anat_fit_wf -->
<g id="node2" class="node">
<title>anat_fit_wf</title>
<ellipse fill="none" stroke="black" cx="559.39" cy="-162" rx="61.19" ry="18"/>
<text text-anchor="middle" x="559.39" y="-158.3" font-family="Times,serif" font-size="14.00">anat_fit_wf</text>
</g>
<!-- inputnode (utility)&#45;&gt;anat_fit_wf -->
<g id="edge1" class="edge">
<title>inputnode (utility)&#45;&gt;anat_fit_wf</title>
<path fill="none" stroke="black" d="M559.39,-215.7C559.39,-207.98 559.39,-198.71 559.39,-190.11"/>
<polygon fill="black" stroke="black" points="562.89,-190.1 559.39,-180.1 555.89,-190.1 562.89,-190.1"/>
</g>
<!-- outputnode (utility) -->
<g id="node3" class="node">
<title>outputnode (utility)</title>
<ellipse fill="none" stroke="black" cx="101.39" cy="-18" rx="101.28" ry="18"/>
<text text-anchor="middle" x="101.39" y="-14.3" font-family="Times,serif" font-size="14.00">outputnode (utility)</text>
</g>
<!-- anat_fit_wf&#45;&gt;outputnode (utility) -->
<g id="edge2" class="edge">
<title>anat_fit_wf&#45;&gt;outputnode (utility)</title>
<path fill="none" stroke="black" d="M502.76,-155.03C445.16,-147.88 353.87,-133.53 278.39,-108 227.1,-90.65 171.95,-60.98 137.09,-40.71"/>
<polygon fill="black" stroke="black" points="138.64,-37.56 128.25,-35.51 135.1,-43.59 138.64,-37.56"/>
</g>
<!-- template_iterator_wf -->
<g id="node4" class="node">
<title>template_iterator_wf</title>
<ellipse fill="none" stroke="black" cx="733.39" cy="-90" rx="107.78" ry="18"/>
<text text-anchor="middle" x="733.39" y="-86.3" font-family="Times,serif" font-size="14.00">template_iterator_wf</text>
</g>
<!-- anat_fit_wf&#45;&gt;template_iterator_wf -->
<g id="edge3" class="edge">
<title>anat_fit_wf&#45;&gt;template_iterator_wf</title>
<path fill="none" stroke="black" d="M594.18,-147C620.11,-136.57 655.86,-122.19 684.64,-110.61"/>
<polygon fill="black" stroke="black" points="686.13,-113.78 694.1,-106.81 683.52,-107.29 686.13,-113.78"/>
</g>
<!-- ds_anat_volumes_wf -->
<g id="node5" class="node">
<title>ds_anat_volumes_wf</title>
<ellipse fill="none" stroke="black" cx="851.39" cy="-18" rx="104.78" ry="18"/>
<text text-anchor="middle" x="851.39" y="-14.3" font-family="Times,serif" font-size="14.00">ds_anat_volumes_wf</text>
</g>
<!-- anat_fit_wf&#45;&gt;ds_anat_volumes_wf -->
<g id="edge4" class="edge">
<title>anat_fit_wf&#45;&gt;ds_anat_volumes_wf</title>
<path fill="none" stroke="black" d="M619.65,-158.75C696.07,-154.5 821.41,-142.34 850.39,-108 864.58,-91.18 863.3,-65.54 859.36,-46.09"/>
<polygon fill="black" stroke="black" points="862.75,-45.22 857.05,-36.29 855.94,-46.82 862.75,-45.22"/>
</g>
<!-- surface_derivatives_wf -->
<g id="node6" class="node">
<title>surface_derivatives_wf</title>
<ellipse fill="none" stroke="black" cx="415.39" cy="-90" rx="116.18" ry="18"/>
<text text-anchor="middle" x="415.39" y="-86.3" font-family="Times,serif" font-size="14.00">surface_derivatives_wf</text>
</g>
<!-- anat_fit_wf&#45;&gt;surface_derivatives_wf -->
<g id="edge5" class="edge">
<title>anat_fit_wf&#45;&gt;surface_derivatives_wf</title>
<path fill="none" stroke="black" d="M529.2,-146.33C508.55,-136.28 480.86,-122.83 457.97,-111.7"/>
<polygon fill="black" stroke="black" points="459.33,-108.47 448.81,-107.24 456.27,-114.76 459.33,-108.47"/>
</g>
<!-- ds_surfaces_wf -->
<g id="node7" class="node">
<title>ds_surfaces_wf</title>
<ellipse fill="none" stroke="black" cx="301.39" cy="-18" rx="80.69" ry="18"/>
<text text-anchor="middle" x="301.39" y="-14.3" font-family="Times,serif" font-size="14.00">ds_surfaces_wf</text>
</g>
<!-- anat_fit_wf&#45;&gt;ds_surfaces_wf -->
<g id="edge6" class="edge">
<title>anat_fit_wf&#45;&gt;ds_surfaces_wf</title>
<path fill="none" stroke="black" d="M499.91,-157.84C428.88,-152.68 316.39,-139.62 290.39,-108 276.25,-90.8 281.35,-65.03 288.6,-45.64"/>
<polygon fill="black" stroke="black" points="291.93,-46.74 292.5,-36.16 285.46,-44.07 291.93,-46.74"/>
</g>
<!-- ds_curv_wf -->
<g id="node8" class="node">
<title>ds_curv_wf</title>
<ellipse fill="none" stroke="black" cx="461.39" cy="-18" rx="61.99" ry="18"/>
<text text-anchor="middle" x="461.39" y="-14.3" font-family="Times,serif" font-size="14.00">ds_curv_wf</text>
</g>
<!-- anat_fit_wf&#45;&gt;ds_curv_wf -->
<g id="edge7" class="edge">
<title>anat_fit_wf&#45;&gt;ds_curv_wf</title>
<path fill="none" stroke="black" d="M559.45,-143.79C558.72,-124.69 555.09,-93.72 540.39,-72 531.05,-58.2 516.8,-47.05 502.96,-38.59"/>
<polygon fill="black" stroke="black" points="504.4,-35.38 493.98,-33.43 500.91,-41.45 504.4,-35.38"/>
</g>
<!-- ds_fs_segs_wf -->
<g id="node9" class="node">
<title>ds_fs_segs_wf</title>
<ellipse fill="none" stroke="black" cx="616.39" cy="-18" rx="75.29" ry="18"/>
<text text-anchor="middle" x="616.39" y="-14.3" font-family="Times,serif" font-size="14.00">ds_fs_segs_wf</text>
</g>
<!-- anat_fit_wf&#45;&gt;ds_fs_segs_wf -->
<g id="edge8" class="edge">
<title>anat_fit_wf&#45;&gt;ds_fs_segs_wf</title>
<path fill="none" stroke="black" d="M566.27,-143.87C576.07,-119.46 594.14,-74.43 605.7,-45.64"/>
<polygon fill="black" stroke="black" points="609.01,-46.77 609.49,-36.19 602.52,-44.17 609.01,-46.77"/>
</g>
<!-- template_iterator_wf&#45;&gt;ds_anat_volumes_wf -->
<g id="edge9" class="edge">
<title>template_iterator_wf&#45;&gt;ds_anat_volumes_wf</title>
<path fill="none" stroke="black" d="M761.06,-72.59C777.07,-63.09 797.41,-51.02 814.74,-40.74"/>
<polygon fill="black" stroke="black" points="816.67,-43.66 823.49,-35.55 813.1,-37.64 816.67,-43.66"/>
</g>
<!-- surface_derivatives_wf&#45;&gt;outputnode (utility) -->
<g id="edge13" class="edge">
<title>surface_derivatives_wf&#45;&gt;outputnode (utility)</title>
<path fill="none" stroke="black" d="M351.85,-74.83C299.64,-63.19 225.74,-46.72 171.75,-34.68"/>
<polygon fill="black" stroke="black" points="172.43,-31.25 161.91,-32.49 170.91,-38.08 172.43,-31.25"/>
</g>
<!-- surface_derivatives_wf&#45;&gt;ds_surfaces_wf -->
<g id="edge10" class="edge">
<title>surface_derivatives_wf&#45;&gt;ds_surfaces_wf</title>
<path fill="none" stroke="black" d="M388.37,-72.41C372.93,-62.93 353.38,-50.92 336.73,-40.7"/>
<polygon fill="black" stroke="black" points="338.17,-37.48 327.82,-35.23 334.51,-43.44 338.17,-37.48"/>
</g>
<!-- surface_derivatives_wf&#45;&gt;ds_curv_wf -->
<g id="edge11" class="edge">
<title>surface_derivatives_wf&#45;&gt;ds_curv_wf</title>
<path fill="none" stroke="black" d="M426.53,-72.05C432.01,-63.71 438.73,-53.49 444.8,-44.25"/>
<polygon fill="black" stroke="black" points="447.79,-46.07 450.36,-35.79 441.94,-42.22 447.79,-46.07"/>
</g>
<!-- surface_derivatives_wf&#45;&gt;ds_fs_segs_wf -->
<g id="edge12" class="edge">
<title>surface_derivatives_wf&#45;&gt;ds_fs_segs_wf</title>
<path fill="none" stroke="black" d="M460.25,-73.38C491.5,-62.5 533.22,-47.96 565.68,-36.66"/>
<polygon fill="black" stroke="black" points="567.14,-39.86 575.43,-33.26 564.84,-33.25 567.14,-39.86"/>
</g>
</g>
</svg>
