<?xml version="1.0" encoding="UTF-8" standalone="no"?>
<!DOCTYPE svg PUBLIC "-//W3C//DTD SVG 1.1//EN"
 "http://www.w3.org/Graphics/SVG/1.1/DTD/svg11.dtd">
<!-- Generated by graphviz version 2.40.1 (20161225.0304)
 -->
<!-- Title: %3 Pages: 1 -->
<svg width="405pt" height="548pt"
 viewBox="0.00 0.00 404.88 548.00" xmlns="http://www.w3.org/2000/svg" xmlns:xlink="http://www.w3.org/1999/xlink">
<g id="graph0" class="graph" transform="scale(1 1) rotate(0) translate(4 544)">
<title>%3</title>
<polygon fill="#ffffff" stroke="transparent" points="-4,4 -4,-544 400.8828,-544 400.8828,4 -4,4"/>
<!-- inputnode (utility) -->
<g id="node1" class="node">
<title>inputnode (utility)</title>
<ellipse fill="none" stroke="#000000" cx="301.9912" cy="-522" rx="94.7833" ry="18"/>
<text text-anchor="middle" x="301.9912" y="-518.3" font-family="Times,serif" font-size="14.00" fill="#000000">inputnode (utility)</text>
</g>
<!-- get_surfaces (io) -->
<g id="node2" class="node">
<title>get_surfaces (io)</title>
<ellipse fill="none" stroke="#000000" cx="143.9912" cy="-450" rx="88.2844" ry="18"/>
<text text-anchor="middle" x="143.9912" y="-446.3" font-family="Times,serif" font-size="14.00" fill="#000000">get_surfaces (io)</text>
</g>
<!-- inputnode (utility)&#45;&gt;get_surfaces (io) -->
<g id="edge1" class="edge">
<title>inputnode (utility)&#45;&gt;get_surfaces (io)</title>
<path fill="none" stroke="#000000" d="M265.3457,-505.3008C242.7312,-494.9954 213.5424,-481.6942 189.4589,-470.7195"/>
<polygon fill="#000000" stroke="#000000" points="190.7164,-467.4463 180.1653,-466.4844 187.8136,-473.8161 190.7164,-467.4463"/>
</g>
<!-- save_midthickness (io) -->
<g id="node3" class="node">
<title>save_midthickness (io)</title>
<ellipse fill="none" stroke="#000000" cx="162.9912" cy="-306" rx="116.9792" ry="18"/>
<text text-anchor="middle" x="162.9912" y="-302.3" font-family="Times,serif" font-size="14.00" fill="#000000">save_midthickness (io)</text>
</g>
<!-- inputnode (utility)&#45;&gt;save_midthickness (io) -->
<g id="edge2" class="edge">
<title>inputnode (utility)&#45;&gt;save_midthickness (io)</title>
<path fill="none" stroke="#000000" d="M305.1947,-503.9031C309.8541,-471.6148 314.7913,-403.4004 282.9912,-360 271.4354,-344.2288 254.1947,-332.9673 236.3617,-324.963"/>
<polygon fill="#000000" stroke="#000000" points="237.5861,-321.6815 227.0091,-321.0674 234.8946,-328.1434 237.5861,-321.6815"/>
</g>
<!-- fix_surfs (surf) -->
<g id="node4" class="node">
<title>fix_surfs (surf)</title>
<ellipse fill="none" stroke="#000000" cx="241.9912" cy="-90" rx="79.0865" ry="18"/>
<text text-anchor="middle" x="241.9912" y="-86.3" font-family="Times,serif" font-size="14.00" fill="#000000">fix_surfs (surf)</text>
</g>
<!-- inputnode (utility)&#45;&gt;fix_surfs (surf) -->
<g id="edge3" class="edge">
<title>inputnode (utility)&#45;&gt;fix_surfs (surf)</title>
<path fill="none" stroke="#000000" d="M310.05,-503.7668C321.2046,-476.8248 339.9912,-424.5405 339.9912,-378 339.9912,-378 339.9912,-378 339.9912,-234 339.9912,-185.0746 300.8491,-140.4748 272.0395,-114.2744"/>
<polygon fill="#000000" stroke="#000000" points="274.0434,-111.3749 264.2289,-107.3842 269.4126,-116.6243 274.0434,-111.3749"/>
</g>
<!-- midthickness (freesurfer) -->
<g id="node5" class="node">
<title>midthickness (freesurfer)</title>
<ellipse fill="none" stroke="#000000" cx="143.9912" cy="-378" rx="129.9769" ry="18"/>
<text text-anchor="middle" x="143.9912" y="-374.3" font-family="Times,serif" font-size="14.00" fill="#000000">midthickness (freesurfer)</text>
</g>
<!-- get_surfaces (io)&#45;&gt;midthickness (freesurfer) -->
<g id="edge4" class="edge">
<title>get_surfaces (io)&#45;&gt;midthickness (freesurfer)</title>
<path fill="none" stroke="#000000" d="M143.9912,-431.8314C143.9912,-424.131 143.9912,-414.9743 143.9912,-406.4166"/>
<polygon fill="#000000" stroke="#000000" points="147.4913,-406.4132 143.9912,-396.4133 140.4913,-406.4133 147.4913,-406.4132"/>
</g>
<!-- surface_list (utility) -->
<g id="node6" class="node">
<title>surface_list (utility)</title>
<ellipse fill="none" stroke="#000000" cx="162.9912" cy="-234" rx="102.8821" ry="18"/>
<text text-anchor="middle" x="162.9912" y="-230.3" font-family="Times,serif" font-size="14.00" fill="#000000">surface_list (utility)</text>
</g>
<!-- get_surfaces (io)&#45;&gt;surface_list (utility) -->
<g id="edge5" class="edge">
<title>get_surfaces (io)&#45;&gt;surface_list (utility)</title>
<path fill="none" stroke="#000000" d="M89.7956,-435.7767C55.2586,-425.4928 15.1526,-410.8489 4.9912,-396 -4.0448,-382.7958 1.6697,-375.6514 4.9912,-360 12.2607,-325.7447 12.0651,-312.596 36.9912,-288 53.0773,-272.1269 74.5658,-260.5996 95.2356,-252.3782"/>
<polygon fill="#000000" stroke="#000000" points="96.5291,-255.6311 104.6526,-248.8296 94.0607,-249.0807 96.5291,-255.6311"/>
</g>
<!-- save_midthickness (io)&#45;&gt;surface_list (utility) -->
<g id="edge6" class="edge">
<title>save_midthickness (io)&#45;&gt;surface_list (utility)</title>
<path fill="none" stroke="#000000" d="M162.9912,-287.8314C162.9912,-280.131 162.9912,-270.9743 162.9912,-262.4166"/>
<polygon fill="#000000" stroke="#000000" points="166.4913,-262.4132 162.9912,-252.4133 159.4913,-262.4133 166.4913,-262.4132"/>
</g>
<!-- outputnode (utility) -->
<g id="node8" class="node">
<title>outputnode (utility)</title>
<ellipse fill="none" stroke="#000000" cx="241.9912" cy="-18" rx="101.2821" ry="18"/>
<text text-anchor="middle" x="241.9912" y="-14.3" font-family="Times,serif" font-size="14.00" fill="#000000">outputnode (utility)</text>
</g>
<!-- fix_surfs (surf)&#45;&gt;outputnode (utility) -->
<g id="edge7" class="edge">
<title>fix_surfs (surf)&#45;&gt;outputnode (utility)</title>
<path fill="none" stroke="#000000" d="M241.9912,-71.8314C241.9912,-64.131 241.9912,-54.9743 241.9912,-46.4166"/>
<polygon fill="#000000" stroke="#000000" points="245.4913,-46.4132 241.9912,-36.4133 238.4913,-46.4133 245.4913,-46.4132"/>
</g>
<!-- midthickness (freesurfer)&#45;&gt;save_midthickness (io) -->
<g id="edge8" class="edge">
<title>midthickness (freesurfer)&#45;&gt;save_midthickness (io)</title>
<path fill="none" stroke="#000000" d="M148.7857,-359.8314C150.8401,-352.0463 153.2872,-342.7729 155.5667,-334.1347"/>
<polygon fill="#000000" stroke="#000000" points="158.9647,-334.9753 158.1321,-324.4133 152.1964,-333.1892 158.9647,-334.9753"/>
</g>
<!-- fs2gii (freesurfer) -->
<g id="node7" class="node">
<title>fs2gii (freesurfer)</title>
<ellipse fill="none" stroke="#000000" cx="181.9912" cy="-162" rx="92.8835" ry="18"/>
<text text-anchor="middle" x="181.9912" y="-158.3" font-family="Times,serif" font-size="14.00" fill="#000000">fs2gii (freesurfer)</text>
</g>
<!-- surface_list (utility)&#45;&gt;fs2gii (freesurfer) -->
<g id="edge9" class="edge">
<title>surface_list (utility)&#45;&gt;fs2gii (freesurfer)</title>
<path fill="none" stroke="#000000" d="M167.7857,-215.8314C169.8401,-208.0463 172.2872,-198.7729 174.5667,-190.1347"/>
<polygon fill="#000000" stroke="#000000" points="177.9647,-190.9753 177.1321,-180.4133 171.1964,-189.1892 177.9647,-190.9753"/>
</g>
<!-- fs2gii (freesurfer)&#45;&gt;fix_surfs (surf) -->
<g id="edge10" class="edge">
<title>fs2gii (freesurfer)&#45;&gt;fix_surfs (surf)</title>
<path fill="none" stroke="#000000" d="M196.8226,-144.2022C203.9622,-135.6348 212.6571,-125.2009 220.5046,-115.7839"/>
<polygon fill="#000000" stroke="#000000" points="223.4093,-117.7654 227.1224,-107.8425 218.0317,-113.2841 223.4093,-117.7654"/>
</g>
</g>
</svg>
