<?xml version="1.0" encoding="UTF-8" standalone="no"?>
<!DOCTYPE svg PUBLIC "-//W3C//DTD SVG 1.1//EN"
 "http://www.w3.org/Graphics/SVG/1.1/DTD/svg11.dtd">
<!-- Generated by graphviz version 2.40.1 (20161225.0304)
 -->
<!-- Title: %3 Pages: 1 -->
<svg width="340pt" height="332pt"
 viewBox="0.00 0.00 340.28 332.00" xmlns="http://www.w3.org/2000/svg" xmlns:xlink="http://www.w3.org/1999/xlink">
<g id="graph0" class="graph" transform="scale(1 1) rotate(0) translate(4 328)">
<title>%3</title>
<polygon fill="#ffffff" stroke="transparent" points="-4,4 -4,-328 336.2768,-328 336.2768,4 -4,4"/>
<!-- inputnode (utility) -->
<g id="node1" class="node">
<title>inputnode (utility)</title>
<ellipse fill="none" stroke="#000000" cx="185.3899" cy="-306" rx="94.7833" ry="18"/>
<text text-anchor="middle" x="185.3899" y="-302.3" font-family="Times,serif" font-size="14.00" fill="#000000">inputnode (utility)</text>
</g>
<!-- t1w_ref_dimensions (images) -->
<g id="node2" class="node">
<title>t1w_ref_dimensions (images)</title>
<ellipse fill="none" stroke="#000000" cx="185.3899" cy="-234" rx="146.774" ry="18"/>
<text text-anchor="middle" x="185.3899" y="-230.3" font-family="Times,serif" font-size="14.00" fill="#000000">t1w_ref_dimensions (images)</text>
</g>
<!-- inputnode (utility)&#45;&gt;t1w_ref_dimensions (images) -->
<g id="edge1" class="edge">
<title>inputnode (utility)&#45;&gt;t1w_ref_dimensions (images)</title>
<path fill="none" stroke="#000000" d="M185.3899,-287.8314C185.3899,-280.131 185.3899,-270.9743 185.3899,-262.4166"/>
<polygon fill="#000000" stroke="#000000" points="188.89,-262.4132 185.3899,-252.4133 181.89,-262.4133 188.89,-262.4132"/>
</g>
<!-- t1w_conform (images) -->
<g id="node3" class="node">
<title>t1w_conform (images)</title>
<ellipse fill="none" stroke="#000000" cx="114.3899" cy="-162" rx="114.2798" ry="18"/>
<text text-anchor="middle" x="114.3899" y="-158.3" font-family="Times,serif" font-size="14.00" fill="#000000">t1w_conform (images)</text>
</g>
<!-- t1w_ref_dimensions (images)&#45;&gt;t1w_conform (images) -->
<g id="edge2" class="edge">
<title>t1w_ref_dimensions (images)&#45;&gt;t1w_conform (images)</title>
<path fill="none" stroke="#000000" d="M167.4736,-215.8314C158.916,-207.1533 148.5347,-196.6257 139.2302,-187.1902"/>
<polygon fill="#000000" stroke="#000000" points="141.5681,-184.5763 132.0545,-179.9134 136.5838,-189.4913 141.5681,-184.5763"/>
</g>
<!-- outputnode (utility) -->
<g id="node4" class="node">
<title>outputnode (utility)</title>
<ellipse fill="none" stroke="#000000" cx="185.3899" cy="-18" rx="101.2821" ry="18"/>
<text text-anchor="middle" x="185.3899" y="-14.3" font-family="Times,serif" font-size="14.00" fill="#000000">outputnode (utility)</text>
</g>
<!-- t1w_ref_dimensions (images)&#45;&gt;outputnode (utility) -->
<g id="edge3" class="edge">
<title>t1w_ref_dimensions (images)&#45;&gt;outputnode (utility)</title>
<path fill="none" stroke="#000000" d="M209.6968,-216.019C220.3445,-206.6159 231.6955,-194.1228 237.3899,-180 256.1697,-133.4237 227.0701,-77.2605 205.4038,-44.7871"/>
<polygon fill="#000000" stroke="#000000" points="208.0963,-42.5264 199.5359,-36.2838 202.3349,-46.5022 208.0963,-42.5264"/>
</g>
<!-- get1st (utility) -->
<g id="node5" class="node">
<title>get1st (utility)</title>
<ellipse fill="none" stroke="#000000" cx="132.3899" cy="-90" rx="77.9862" ry="18"/>
<text text-anchor="middle" x="132.3899" y="-86.3" font-family="Times,serif" font-size="14.00" fill="#000000">get1st (utility)</text>
</g>
<!-- t1w_conform (images)&#45;&gt;get1st (utility) -->
<g id="edge4" class="edge">
<title>t1w_conform (images)&#45;&gt;get1st (utility)</title>
<path fill="none" stroke="#000000" d="M118.932,-143.8314C120.8783,-136.0463 123.1966,-126.7729 125.3562,-118.1347"/>
<polygon fill="#000000" stroke="#000000" points="128.7566,-118.9636 127.7865,-108.4133 121.9656,-117.2658 128.7566,-118.9636"/>
</g>
<!-- get1st (utility)&#45;&gt;outputnode (utility) -->
<g id="edge5" class="edge">
<title>get1st (utility)&#45;&gt;outputnode (utility)</title>
<path fill="none" stroke="#000000" d="M145.491,-72.2022C151.6869,-63.7851 159.209,-53.5665 166.0445,-44.2805"/>
<polygon fill="#000000" stroke="#000000" points="168.9618,-46.2214 172.0713,-36.0931 163.3244,-42.0716 168.9618,-46.2214"/>
</g>
</g>
</svg>
