<?xml version="1.0" encoding="UTF-8" standalone="no"?>
<!DOCTYPE svg PUBLIC "-//W3C//DTD SVG 1.1//EN"
 "http://www.w3.org/Graphics/SVG/1.1/DTD/svg11.dtd">
<!-- Generated by graphviz version 2.40.1 (20161225.0304)
 -->
<!-- Title: %3 Pages: 1 -->
<svg width="829pt" height="404pt"
 viewBox="0.00 0.00 829.17 404.00" xmlns="http://www.w3.org/2000/svg" xmlns:xlink="http://www.w3.org/1999/xlink">
<g id="graph0" class="graph" transform="scale(1 1) rotate(0) translate(4 400)">
<title>%3</title>
<polygon fill="#ffffff" stroke="transparent" points="-4,4 -4,-400 825.173,-400 825.173,4 -4,4"/>
<!-- inputnode (utility) -->
<g id="node1" class="node">
<title>inputnode (utility)</title>
<ellipse fill="none" stroke="#000000" cx="535.1564" cy="-378" rx="94.7833" ry="18"/>
<text text-anchor="middle" x="535.1564" y="-374.3" font-family="Times,serif" font-size="14.00" fill="#000000">inputnode (utility)</text>
</g>
<!-- split_desc (templateflow) -->
<g id="node2" class="node">
<title>split_desc (templateflow)</title>
<ellipse fill="none" stroke="#000000" cx="240.1564" cy="-306" rx="128.0773" ry="18"/>
<text text-anchor="middle" x="240.1564" y="-302.3" font-family="Times,serif" font-size="14.00" fill="#000000">split_desc (templateflow)</text>
</g>
<!-- inputnode (utility)&#45;&gt;split_desc (templateflow) -->
<g id="edge1" class="edge">
<title>inputnode (utility)&#45;&gt;split_desc (templateflow)</title>
<path fill="none" stroke="#000000" d="M476.8739,-363.7751C430.199,-352.3833 364.4323,-336.3317 314.0612,-324.0378"/>
<polygon fill="#000000" stroke="#000000" points="314.7473,-320.6026 304.2025,-321.6316 313.0875,-327.4029 314.7473,-320.6026"/>
</g>
<!-- poutputnode (utility) -->
<g id="node3" class="node">
<title>poutputnode (utility)</title>
<ellipse fill="none" stroke="#000000" cx="486.1564" cy="-90" rx="107.4815" ry="18"/>
<text text-anchor="middle" x="486.1564" y="-86.3" font-family="Times,serif" font-size="14.00" fill="#000000">poutputnode (utility)</text>
</g>
<!-- inputnode (utility)&#45;&gt;poutputnode (utility) -->
<g id="edge2" class="edge">
<title>inputnode (utility)&#45;&gt;poutputnode (utility)</title>
<path fill="none" stroke="#000000" d="M581.2513,-362.2012C677.0364,-327.0016 882.3395,-237.8124 803.1564,-144 789.1355,-127.3887 674.8415,-111.0023 587.4741,-100.7156"/>
<polygon fill="#000000" stroke="#000000" points="587.8379,-97.2343 577.5001,-99.5537 587.0279,-104.1873 587.8379,-97.2343"/>
</g>
<!-- trunc_mov (ants) -->
<g id="node4" class="node">
<title>trunc_mov (ants)</title>
<ellipse fill="none" stroke="#000000" cx="476.1564" cy="-306" rx="90.1842" ry="18"/>
<text text-anchor="middle" x="476.1564" y="-302.3" font-family="Times,serif" font-size="14.00" fill="#000000">trunc_mov (ants)</text>
</g>
<!-- inputnode (utility)&#45;&gt;trunc_mov (ants) -->
<g id="edge3" class="edge">
<title>inputnode (utility)&#45;&gt;trunc_mov (ants)</title>
<path fill="none" stroke="#000000" d="M520.5721,-360.2022C513.5516,-351.6348 505.0016,-341.2009 497.2849,-331.7839"/>
<polygon fill="#000000" stroke="#000000" points="499.8228,-329.359 490.7774,-323.8425 494.4085,-333.7957 499.8228,-329.359"/>
</g>
<!-- registration (mni) -->
<g id="node5" class="node">
<title>registration (mni)</title>
<ellipse fill="none" stroke="#000000" cx="490.1564" cy="-234" rx="92.8835" ry="18"/>
<text text-anchor="middle" x="490.1564" y="-230.3" font-family="Times,serif" font-size="14.00" fill="#000000">registration (mni)</text>
</g>
<!-- inputnode (utility)&#45;&gt;registration (mni) -->
<g id="edge4" class="edge">
<title>inputnode (utility)&#45;&gt;registration (mni)</title>
<path fill="none" stroke="#000000" d="M553.07,-359.9844C569.1742,-341.5038 588.4128,-312.127 575.1564,-288 567.5597,-274.1738 554.7579,-263.3854 541.3641,-255.2112"/>
<polygon fill="#000000" stroke="#000000" points="542.953,-252.0888 532.5258,-250.2114 539.5063,-258.1815 542.953,-252.0888"/>
</g>
<!-- tpl_moving (fixes) -->
<g id="node6" class="node">
<title>tpl_moving (fixes)</title>
<ellipse fill="none" stroke="#000000" cx="683.1564" cy="-162" rx="94.4839" ry="18"/>
<text text-anchor="middle" x="683.1564" y="-158.3" font-family="Times,serif" font-size="14.00" fill="#000000">tpl_moving (fixes)</text>
</g>
<!-- inputnode (utility)&#45;&gt;tpl_moving (fixes) -->
<g id="edge5" class="edge">
<title>inputnode (utility)&#45;&gt;tpl_moving (fixes)</title>
<path fill="none" stroke="#000000" d="M566.6795,-360.9661C581.6814,-351.6251 598.9609,-338.9086 611.1564,-324 644.5345,-283.1965 665.4791,-224.4741 675.6861,-190.0764"/>
<polygon fill="#000000" stroke="#000000" points="679.1178,-190.8064 678.511,-180.229 672.3892,-188.8762 679.1178,-190.8064"/>
</g>
<!-- std_mask (fixes) -->
<g id="node7" class="node">
<title>std_mask (fixes)</title>
<ellipse fill="none" stroke="#000000" cx="110.1564" cy="-162" rx="87.1846" ry="18"/>
<text text-anchor="middle" x="110.1564" y="-158.3" font-family="Times,serif" font-size="14.00" fill="#000000">std_mask (fixes)</text>
</g>
<!-- inputnode (utility)&#45;&gt;std_mask (fixes) -->
<g id="edge6" class="edge">
<title>inputnode (utility)&#45;&gt;std_mask (fixes)</title>
<path fill="none" stroke="#000000" d="M443.6713,-373.205C321.0287,-365.8258 115.9753,-349.7764 93.1564,-324 60.3448,-286.9357 80.3518,-224.8179 96.2872,-189.2364"/>
<polygon fill="#000000" stroke="#000000" points="99.5652,-190.4887 100.6265,-179.9472 93.2231,-187.5261 99.5652,-190.4887"/>
</g>
<!-- std_dseg (fixes) -->
<g id="node8" class="node">
<title>std_dseg (fixes)</title>
<ellipse fill="none" stroke="#000000" cx="299.1564" cy="-162" rx="83.6854" ry="18"/>
<text text-anchor="middle" x="299.1564" y="-158.3" font-family="Times,serif" font-size="14.00" fill="#000000">std_dseg (fixes)</text>
</g>
<!-- inputnode (utility)&#45;&gt;std_dseg (fixes) -->
<g id="edge7" class="edge">
<title>inputnode (utility)&#45;&gt;std_dseg (fixes)</title>
<path fill="none" stroke="#000000" d="M443.9611,-372.9421C323.8917,-365.3352 125.3222,-349.109 103.1564,-324 81.2846,-299.224 118.1063,-224.8927 127.1564,-216 142.1088,-201.3077 188.5073,-187.2059 229.3488,-177.0994"/>
<polygon fill="#000000" stroke="#000000" points="230.4232,-180.4403 239.3171,-174.6828 228.774,-173.6374 230.4232,-180.4403"/>
</g>
<!-- std_tpms (fixes) -->
<g id="node9" class="node">
<title>std_tpms (fixes)</title>
<ellipse fill="none" stroke="#000000" cx="486.1564" cy="-162" rx="85.2851" ry="18"/>
<text text-anchor="middle" x="486.1564" y="-158.3" font-family="Times,serif" font-size="14.00" fill="#000000">std_tpms (fixes)</text>
</g>
<!-- inputnode (utility)&#45;&gt;std_tpms (fixes) -->
<g id="edge8" class="edge">
<title>inputnode (utility)&#45;&gt;std_tpms (fixes)</title>
<path fill="none" stroke="#000000" d="M560.9091,-360.5913C572.4295,-351.2398 584.8223,-338.6243 591.1564,-324 610.2347,-279.9521 617.2389,-256.9276 592.1564,-216 582.2768,-199.8792 565.9077,-188.3826 548.954,-180.2644"/>
<polygon fill="#000000" stroke="#000000" points="550.0742,-176.933 539.5126,-176.094 547.2458,-183.3362 550.0742,-176.933"/>
</g>
<!-- split_desc (templateflow)&#45;&gt;poutputnode (utility) -->
<g id="edge11" class="edge">
<title>split_desc (templateflow)&#45;&gt;poutputnode (utility)</title>
<path fill="none" stroke="#000000" d="M180.8107,-289.9699C95.7179,-264.2302 -44.5742,-209.8329 14.1564,-144 37.6184,-117.7007 240.1572,-102.4477 372.1875,-95.2142"/>
<polygon fill="#000000" stroke="#000000" points="372.5617,-98.6992 382.3585,-94.6651 372.1843,-91.7094 372.5617,-98.6992"/>
</g>
<!-- split_desc (templateflow)&#45;&gt;registration (mni) -->
<g id="edge10" class="edge">
<title>split_desc (templateflow)&#45;&gt;registration (mni)</title>
<path fill="none" stroke="#000000" d="M296.573,-289.752C335.8209,-278.4486 388.134,-263.3825 428.4835,-251.7618"/>
<polygon fill="#000000" stroke="#000000" points="429.5655,-255.0925 438.2062,-248.9616 427.6282,-248.3659 429.5655,-255.0925"/>
</g>
<!-- tf_select (templateflow) -->
<g id="node10" class="node">
<title>tf_select (templateflow)</title>
<ellipse fill="none" stroke="#000000" cx="258.1564" cy="-234" rx="121.5784" ry="18"/>
<text text-anchor="middle" x="258.1564" y="-230.3" font-family="Times,serif" font-size="14.00" fill="#000000">tf_select (templateflow)</text>
</g>
<!-- split_desc (templateflow)&#45;&gt;tf_select (templateflow) -->
<g id="edge9" class="edge">
<title>split_desc (templateflow)&#45;&gt;tf_select (templateflow)</title>
<path fill="none" stroke="#000000" d="M244.6986,-287.8314C246.6448,-280.0463 248.9632,-270.7729 251.1227,-262.1347"/>
<polygon fill="#000000" stroke="#000000" points="254.5232,-262.9636 253.5531,-252.4133 247.7322,-261.2658 254.5232,-262.9636"/>
</g>
<!-- outputnode (utility) -->
<g id="node11" class="node">
<title>outputnode (utility)</title>
<ellipse fill="none" stroke="#000000" cx="486.1564" cy="-18" rx="101.2821" ry="18"/>
<text text-anchor="middle" x="486.1564" y="-14.3" font-family="Times,serif" font-size="14.00" fill="#000000">outputnode (utility)</text>
</g>
<!-- poutputnode (utility)&#45;&gt;outputnode (utility) -->
<g id="edge12" class="edge">
<title>poutputnode (utility)&#45;&gt;outputnode (utility)</title>
<path fill="none" stroke="#000000" d="M486.1564,-71.8314C486.1564,-64.131 486.1564,-54.9743 486.1564,-46.4166"/>
<polygon fill="#000000" stroke="#000000" points="489.6565,-46.4132 486.1564,-36.4133 482.6565,-46.4133 489.6565,-46.4132"/>
</g>
<!-- trunc_mov (ants)&#45;&gt;registration (mni) -->
<g id="edge13" class="edge">
<title>trunc_mov (ants)&#45;&gt;registration (mni)</title>
<path fill="none" stroke="#000000" d="M479.6892,-287.8314C481.1865,-280.131 482.967,-270.9743 484.631,-262.4166"/>
<polygon fill="#000000" stroke="#000000" points="488.1029,-262.8975 486.5761,-252.4133 481.2316,-261.5614 488.1029,-262.8975"/>
</g>
<!-- registration (mni)&#45;&gt;poutputnode (utility) -->
<g id="edge18" class="edge">
<title>registration (mni)&#45;&gt;poutputnode (utility)</title>
<path fill="none" stroke="#000000" d="M580.6627,-229.8793C657.8482,-224.2417 760.3095,-210.9889 786.1564,-180 796.4047,-167.7129 796.4192,-156.275 786.1564,-144 762.3686,-115.5481 674.7041,-102.0642 600.237,-95.687"/>
<polygon fill="#000000" stroke="#000000" points="600.0776,-92.1623 589.825,-94.8335 599.5056,-99.1389 600.0776,-92.1623"/>
</g>
<!-- registration (mni)&#45;&gt;tpl_moving (fixes) -->
<g id="edge14" class="edge">
<title>registration (mni)&#45;&gt;tpl_moving (fixes)</title>
<path fill="none" stroke="#000000" d="M532.9894,-218.0209C561.7492,-207.2918 599.8339,-193.084 630.4525,-181.6616"/>
<polygon fill="#000000" stroke="#000000" points="631.964,-184.8334 640.1099,-178.0588 629.5173,-178.2749 631.964,-184.8334"/>
</g>
<!-- registration (mni)&#45;&gt;std_mask (fixes) -->
<g id="edge15" class="edge">
<title>registration (mni)&#45;&gt;std_mask (fixes)</title>
<path fill="none" stroke="#000000" d="M423.5306,-221.3762C356.6821,-208.7101 253.9363,-189.2425 184.4826,-176.0829"/>
<polygon fill="#000000" stroke="#000000" points="184.9619,-172.6115 174.4851,-174.1886 183.6587,-179.4891 184.9619,-172.6115"/>
</g>
<!-- registration (mni)&#45;&gt;std_dseg (fixes) -->
<g id="edge16" class="edge">
<title>registration (mni)&#45;&gt;std_dseg (fixes)</title>
<path fill="none" stroke="#000000" d="M447.2923,-217.8418C418.6103,-207.0297 380.7164,-192.7451 350.4351,-181.3302"/>
<polygon fill="#000000" stroke="#000000" points="351.4842,-177.9853 340.8924,-177.7329 349.015,-184.5354 351.4842,-177.9853"/>
</g>
<!-- registration (mni)&#45;&gt;std_tpms (fixes) -->
<g id="edge17" class="edge">
<title>registration (mni)&#45;&gt;std_tpms (fixes)</title>
<path fill="none" stroke="#000000" d="M489.147,-215.8314C488.7192,-208.131 488.2105,-198.9743 487.7351,-190.4166"/>
<polygon fill="#000000" stroke="#000000" points="491.2288,-190.2037 487.1794,-180.4133 484.2396,-190.592 491.2288,-190.2037"/>
</g>
<!-- tpl_moving (fixes)&#45;&gt;poutputnode (utility) -->
<g id="edge19" class="edge">
<title>tpl_moving (fixes)&#45;&gt;poutputnode (utility)</title>
<path fill="none" stroke="#000000" d="M639.4357,-146.0209C610.261,-135.358 571.6851,-121.2592 540.532,-109.8733"/>
<polygon fill="#000000" stroke="#000000" points="541.7145,-106.5791 531.1207,-106.4336 539.3116,-113.1538 541.7145,-106.5791"/>
</g>
<!-- std_mask (fixes)&#45;&gt;poutputnode (utility) -->
<g id="edge20" class="edge">
<title>std_mask (fixes)&#45;&gt;poutputnode (utility)</title>
<path fill="none" stroke="#000000" d="M174.3659,-149.7046C238.1386,-137.4928 336.1218,-118.73 405.1949,-105.5033"/>
<polygon fill="#000000" stroke="#000000" points="406.0055,-108.9117 415.1688,-103.5934 404.6889,-102.0366 406.0055,-108.9117"/>
</g>
<!-- std_dseg (fixes)&#45;&gt;poutputnode (utility) -->
<g id="edge21" class="edge">
<title>std_dseg (fixes)&#45;&gt;poutputnode (utility)</title>
<path fill="none" stroke="#000000" d="M340.1944,-146.1993C367.7462,-135.5911 404.2839,-121.5231 433.91,-110.1163"/>
<polygon fill="#000000" stroke="#000000" points="435.1913,-113.3735 443.2658,-106.514 432.676,-106.841 435.1913,-113.3735"/>
</g>
<!-- std_tpms (fixes)&#45;&gt;poutputnode (utility) -->
<g id="edge22" class="edge">
<title>std_tpms (fixes)&#45;&gt;poutputnode (utility)</title>
<path fill="none" stroke="#000000" d="M486.1564,-143.8314C486.1564,-136.131 486.1564,-126.9743 486.1564,-118.4166"/>
<polygon fill="#000000" stroke="#000000" points="489.6565,-118.4132 486.1564,-108.4133 482.6565,-118.4133 489.6565,-118.4132"/>
</g>
<!-- tf_select (templateflow)&#45;&gt;tpl_moving (fixes) -->
<g id="edge23" class="edge">
<title>tf_select (templateflow)&#45;&gt;tpl_moving (fixes)</title>
<path fill="none" stroke="#000000" d="M339.237,-220.5606C404.3656,-209.7272 498.1667,-194.0389 580.1564,-180 587.7677,-178.6967 595.6936,-177.3296 603.6192,-175.9557"/>
<polygon fill="#000000" stroke="#000000" points="604.381,-179.3759 613.6346,-174.2163 603.1831,-172.4792 604.381,-179.3759"/>
</g>
<!-- tf_select (templateflow)&#45;&gt;std_mask (fixes) -->
<g id="edge24" class="edge">
<title>tf_select (templateflow)&#45;&gt;std_mask (fixes)</title>
<path fill="none" stroke="#000000" d="M222.7067,-216.7542C201.9048,-206.6344 175.4642,-193.7713 153.4381,-183.0559"/>
<polygon fill="#000000" stroke="#000000" points="154.8214,-179.8368 144.2979,-178.6094 151.7591,-186.1314 154.8214,-179.8368"/>
</g>
<!-- tf_select (templateflow)&#45;&gt;std_dseg (fixes) -->
<g id="edge25" class="edge">
<title>tf_select (templateflow)&#45;&gt;std_dseg (fixes)</title>
<path fill="none" stroke="#000000" d="M268.5024,-215.8314C273.1506,-207.6688 278.7304,-197.87 283.8482,-188.8827"/>
<polygon fill="#000000" stroke="#000000" points="287.0487,-190.3352 288.9557,-179.9134 280.9658,-186.8713 287.0487,-190.3352"/>
</g>
<!-- tf_select (templateflow)&#45;&gt;std_tpms (fixes) -->
<g id="edge26" class="edge">
<title>tf_select (templateflow)&#45;&gt;std_tpms (fixes)</title>
<path fill="none" stroke="#000000" d="M309.8931,-217.6621C345.3519,-206.4646 392.4038,-191.6061 428.9747,-180.0574"/>
<polygon fill="#000000" stroke="#000000" points="430.0301,-183.3945 438.512,-177.0456 427.9222,-176.7195 430.0301,-183.3945"/>
</g>
</g>
</svg>
