<?xml version="1.0" encoding="UTF-8" standalone="no"?>
<!DOCTYPE svg PUBLIC "-//W3C//DTD SVG 1.1//EN"
 "http://www.w3.org/Graphics/SVG/1.1/DTD/svg11.dtd">
<!-- Generated by graphviz version 2.43.0 (0)
 -->
<!-- Title: structs Pages: 1 -->
<svg width="1275pt" height="594pt"
 viewBox="0.00 0.00 1275.00 594.00" xmlns="http://www.w3.org/2000/svg" xmlns:xlink="http://www.w3.org/1999/xlink">
<g id="graph0" class="graph" transform="scale(1 1) rotate(0) translate(4 590)">
<title>structs</title>
<polygon fill="white" stroke="transparent" points="-4,4 -4,-590 1271,-590 1271,4 -4,4"/>
<!-- segs_to_native_wf_aseginputnode -->
<g id="node1" class="node">
<title>segs_to_native_wf_aseginputnode</title>
<polygon fill="none" stroke="black" points="0,-470.5 0,-585.5 271,-585.5 271,-470.5 0,-470.5"/>
<text text-anchor="middle" x="17" y="-524.3" font-family="Times,serif" font-size="14.00">IN</text>
<polyline fill="none" stroke="black" points="34,-470.5 34,-585.5 "/>
<text text-anchor="middle" x="78.5" y="-562.8" font-family="Times,serif" font-size="14.00">inputnode</text>
<polyline fill="none" stroke="black" points="34,-547.5 123,-547.5 "/>
<text text-anchor="middle" x="78.5" y="-524.8" font-family="Times,serif" font-size="14.00">utility</text>
<polyline fill="none" stroke="black" points="34,-509.5 123,-509.5 "/>
<text text-anchor="middle" x="78.5" y="-486.3" font-family="Times,serif" font-size="14.00"> </text>
<polyline fill="none" stroke="black" points="123,-470.5 123,-585.5 "/>
<text text-anchor="middle" x="197" y="-570.3" font-family="Times,serif" font-size="14.00">OUT</text>
<polyline fill="none" stroke="black" points="123,-562.5 271,-562.5 "/>
<text text-anchor="middle" x="197" y="-547.3" font-family="Times,serif" font-size="14.00">fsnative2anat_xfm</text>
<polyline fill="none" stroke="black" points="123,-539.5 271,-539.5 "/>
<text text-anchor="middle" x="197" y="-524.3" font-family="Times,serif" font-size="14.00">in_file</text>
<polyline fill="none" stroke="black" points="123,-516.5 271,-516.5 "/>
<text text-anchor="middle" x="197" y="-501.3" font-family="Times,serif" font-size="14.00">subject_id</text>
<polyline fill="none" stroke="black" points="123,-493.5 271,-493.5 "/>
<text text-anchor="middle" x="197" y="-478.3" font-family="Times,serif" font-size="14.00">subjects_dir</text>
</g>
<!-- segs_to_native_wf_asegfs_datasource -->
<g id="node2" class="node">
<title>segs_to_native_wf_asegfs_datasource</title>
<polygon fill="none" stroke="black" points="271.5,-364.5 271.5,-433.5 539.5,-433.5 539.5,-364.5 271.5,-364.5"/>
<text text-anchor="middle" x="323" y="-418.3" font-family="Times,serif" font-size="14.00">IN</text>
<polyline fill="none" stroke="black" points="271.5,-410.5 374.5,-410.5 "/>
<text text-anchor="middle" x="323" y="-395.3" font-family="Times,serif" font-size="14.00">subject_id</text>
<polyline fill="none" stroke="black" points="271.5,-387.5 374.5,-387.5 "/>
<text text-anchor="middle" x="323" y="-372.3" font-family="Times,serif" font-size="14.00">subjects_dir</text>
<polyline fill="none" stroke="black" points="374.5,-364.5 374.5,-433.5 "/>
<text text-anchor="middle" x="432" y="-418.3" font-family="Times,serif" font-size="14.00">fs_datasource</text>
<polyline fill="none" stroke="black" points="374.5,-410.5 489.5,-410.5 "/>
<text text-anchor="middle" x="432" y="-395.3" font-family="Times,serif" font-size="14.00">patches</text>
<polyline fill="none" stroke="black" points="374.5,-387.5 489.5,-387.5 "/>
<text text-anchor="middle" x="432" y="-372.3" font-family="Times,serif" font-size="14.00"> </text>
<polyline fill="none" stroke="black" points="489.5,-364.5 489.5,-433.5 "/>
<text text-anchor="middle" x="514.5" y="-418.3" font-family="Times,serif" font-size="14.00">OUT</text>
<polyline fill="none" stroke="black" points="489.5,-410.5 539.5,-410.5 "/>
<text text-anchor="middle" x="514.5" y="-395.3" font-family="Times,serif" font-size="14.00">T1</text>
<polyline fill="none" stroke="black" points="489.5,-387.5 539.5,-387.5 "/>
<text text-anchor="middle" x="514.5" y="-372.3" font-family="Times,serif" font-size="14.00">aseg</text>
</g>
<!-- segs_to_native_wf_aseginputnode&#45;&gt;segs_to_native_wf_asegfs_datasource -->
<g id="edge6" class="edge">
<title>segs_to_native_wf_aseginputnode:e&#45;&gt;segs_to_native_wf_asegfs_datasource:w</title>
<path fill="none" stroke="black" d="M272.5,-505C292.1,-505 261.39,-431.62 264.09,-406.97"/>
<polygon fill="black" stroke="black" points="266.96,-408.99 270.5,-399 261.5,-404.6 266.96,-408.99"/>
</g>
<!-- segs_to_native_wf_aseginputnode&#45;&gt;segs_to_native_wf_asegfs_datasource -->
<g id="edge7" class="edge">
<title>segs_to_native_wf_aseginputnode:e&#45;&gt;segs_to_native_wf_asegfs_datasource:w</title>
<path fill="none" stroke="black" d="M272.5,-482C293.84,-482 271.91,-455.33 271.5,-434 271.1,-413.06 253.67,-387.86 260.98,-379.14"/>
<polygon fill="black" stroke="black" points="262.1,-382.46 270.5,-376 259.91,-375.81 262.1,-382.46"/>
</g>
<!-- segs_to_native_wf_aseglta -->
<g id="node3" class="node">
<title>segs_to_native_wf_aseglta</title>
<polygon fill="none" stroke="black" points="243.5,-235.5 243.5,-327.5 511.5,-327.5 511.5,-235.5 243.5,-235.5"/>
<text text-anchor="middle" x="286" y="-312.3" font-family="Times,serif" font-size="14.00">IN</text>
<polyline fill="none" stroke="black" points="243.5,-304.5 328.5,-304.5 "/>
<text text-anchor="middle" x="286" y="-289.3" font-family="Times,serif" font-size="14.00">in_xfms</text>
<polyline fill="none" stroke="black" points="243.5,-281.5 328.5,-281.5 "/>
<text text-anchor="middle" x="286" y="-266.3" font-family="Times,serif" font-size="14.00">moving</text>
<polyline fill="none" stroke="black" points="243.5,-258.5 328.5,-258.5 "/>
<text text-anchor="middle" x="286" y="-243.3" font-family="Times,serif" font-size="14.00">reference</text>
<polyline fill="none" stroke="black" points="328.5,-235.5 328.5,-327.5 "/>
<text text-anchor="middle" x="383" y="-308.8" font-family="Times,serif" font-size="14.00">lta</text>
<polyline fill="none" stroke="black" points="328.5,-297.5 437.5,-297.5 "/>
<text text-anchor="middle" x="383" y="-278.3" font-family="Times,serif" font-size="14.00">nitransforms</text>
<polyline fill="none" stroke="black" points="328.5,-266.5 437.5,-266.5 "/>
<text text-anchor="middle" x="383" y="-247.3" font-family="Times,serif" font-size="14.00"> </text>
<polyline fill="none" stroke="black" points="437.5,-235.5 437.5,-327.5 "/>
<text text-anchor="middle" x="474.5" y="-300.8" font-family="Times,serif" font-size="14.00">OUT</text>
<polyline fill="none" stroke="black" points="437.5,-281.5 511.5,-281.5 "/>
<text text-anchor="middle" x="474.5" y="-254.8" font-family="Times,serif" font-size="14.00">out_xfm</text>
</g>
<!-- segs_to_native_wf_aseginputnode&#45;&gt;segs_to_native_wf_aseglta -->
<g id="edge3" class="edge">
<title>segs_to_native_wf_aseginputnode:e&#45;&gt;segs_to_native_wf_aseglta:w</title>
<path fill="none" stroke="black" d="M272.5,-551C308.5,-551 286.75,-502.62 271.5,-470 261.09,-447.73 239.77,-456.34 229.5,-434 204.83,-380.36 182.55,-303.2 232.35,-294.34"/>
<polygon fill="black" stroke="black" points="232.82,-297.81 242.5,-293.5 232.25,-290.83 232.82,-297.81"/>
</g>
<!-- segs_to_native_wf_aseginputnode&#45;&gt;segs_to_native_wf_aseglta -->
<g id="edge4" class="edge">
<title>segs_to_native_wf_aseginputnode:e&#45;&gt;segs_to_native_wf_aseglta:w</title>
<path fill="none" stroke="black" d="M272.5,-528C298.28,-528 274.87,-495.56 271.5,-470 269.34,-453.65 265.96,-450.13 262.5,-434 252.47,-387.2 248.03,-375.65 243.5,-328 240.47,-296.16 213.78,-257.02 232.49,-248.28"/>
<polygon fill="black" stroke="black" points="233.27,-251.7 242.5,-246.5 232.04,-244.81 233.27,-251.7"/>
</g>
<!-- segs_to_native_wf_asegresample -->
<g id="node5" class="node">
<title>segs_to_native_wf_asegresample</title>
<polygon fill="none" stroke="black" points="736,-106.5 736,-198.5 1051,-198.5 1051,-106.5 736,-106.5"/>
<text text-anchor="middle" x="782" y="-183.3" font-family="Times,serif" font-size="14.00">IN</text>
<polyline fill="none" stroke="black" points="736,-175.5 828,-175.5 "/>
<text text-anchor="middle" x="782" y="-160.3" font-family="Times,serif" font-size="14.00">lta_file</text>
<polyline fill="none" stroke="black" points="736,-152.5 828,-152.5 "/>
<text text-anchor="middle" x="782" y="-137.3" font-family="Times,serif" font-size="14.00">source_file</text>
<polyline fill="none" stroke="black" points="736,-129.5 828,-129.5 "/>
<text text-anchor="middle" x="782" y="-114.3" font-family="Times,serif" font-size="14.00">target_file</text>
<polyline fill="none" stroke="black" points="828,-106.5 828,-198.5 "/>
<text text-anchor="middle" x="872.5" y="-179.8" font-family="Times,serif" font-size="14.00">resample</text>
<polyline fill="none" stroke="black" points="828,-168.5 917,-168.5 "/>
<text text-anchor="middle" x="872.5" y="-149.3" font-family="Times,serif" font-size="14.00">freesurfer</text>
<polyline fill="none" stroke="black" points="828,-137.5 917,-137.5 "/>
<text text-anchor="middle" x="872.5" y="-118.3" font-family="Times,serif" font-size="14.00"> </text>
<polyline fill="none" stroke="black" points="917,-106.5 917,-198.5 "/>
<text text-anchor="middle" x="984" y="-171.8" font-family="Times,serif" font-size="14.00">OUT</text>
<polyline fill="none" stroke="black" points="917,-152.5 1051,-152.5 "/>
<text text-anchor="middle" x="984" y="-125.8" font-family="Times,serif" font-size="14.00">transformed_file</text>
</g>
<!-- segs_to_native_wf_aseginputnode&#45;&gt;segs_to_native_wf_asegresample -->
<g id="edge5" class="edge">
<title>segs_to_native_wf_aseginputnode:e&#45;&gt;segs_to_native_wf_asegresample:w</title>
<path fill="none" stroke="black" d="M272.5,-528C500.33,-528 627.85,-523.7 744.5,-328 765.66,-292.5 749.55,-276.02 744.5,-235 742.48,-218.63 737.62,-215.36 735.5,-199 731.4,-167.28 705.53,-128.05 724.44,-119.29"/>
<polygon fill="black" stroke="black" points="725.27,-122.7 734.5,-117.5 724.04,-115.81 725.27,-122.7"/>
</g>
<!-- segs_to_native_wf_asegfs_datasource&#45;&gt;segs_to_native_wf_aseglta -->
<g id="edge1" class="edge">
<title>segs_to_native_wf_asegfs_datasource:e&#45;&gt;segs_to_native_wf_aseglta:w</title>
<path fill="none" stroke="black" d="M540.5,-399C556.06,-399 549.98,-375.5 539.5,-364 450.22,-266.06 332.22,-426.45 243.5,-328 228.81,-311.7 219.69,-281.26 232.81,-272.14"/>
<polygon fill="black" stroke="black" points="233.77,-275.51 242.5,-269.5 231.93,-268.76 233.77,-275.51"/>
</g>
<!-- segs_to_native_wf_asegselect_seg -->
<g id="node4" class="node">
<title>segs_to_native_wf_asegselect_seg</title>
<polygon fill="none" stroke="black" points="530,-247 530,-316 735,-316 735,-247 530,-247"/>
<text text-anchor="middle" x="563" y="-295.3" font-family="Times,serif" font-size="14.00">IN</text>
<polyline fill="none" stroke="black" points="530,-282 596,-282 "/>
<text text-anchor="middle" x="563" y="-260.8" font-family="Times,serif" font-size="14.00">in_files</text>
<polyline fill="none" stroke="black" points="596,-247 596,-316 "/>
<text text-anchor="middle" x="641" y="-300.8" font-family="Times,serif" font-size="14.00">select_seg</text>
<polyline fill="none" stroke="black" points="596,-293 686,-293 "/>
<text text-anchor="middle" x="641" y="-277.8" font-family="Times,serif" font-size="14.00">utility</text>
<polyline fill="none" stroke="black" points="596,-270 686,-270 "/>
<text text-anchor="middle" x="641" y="-254.8" font-family="Times,serif" font-size="14.00"> </text>
<polyline fill="none" stroke="black" points="686,-247 686,-316 "/>
<text text-anchor="middle" x="710.5" y="-295.3" font-family="Times,serif" font-size="14.00">OUT</text>
<polyline fill="none" stroke="black" points="686,-282 735,-282 "/>
<text text-anchor="middle" x="710.5" y="-260.8" font-family="Times,serif" font-size="14.00">out</text>
</g>
<!-- segs_to_native_wf_asegfs_datasource&#45;&gt;segs_to_native_wf_asegselect_seg -->
<g id="edge2" class="edge">
<title>segs_to_native_wf_asegfs_datasource:e&#45;&gt;segs_to_native_wf_asegselect_seg:w</title>
<path fill="none" stroke="black" d="M540.5,-376C545.85,-376 540.27,-369.3 539.5,-364 536.38,-342.65 531.94,-337.94 529.5,-316.5 528.58,-308.43 522.75,-286 523.38,-273.39"/>
<polygon fill="black" stroke="black" points="526.54,-274.91 528.5,-264.5 520.48,-271.42 526.54,-274.91"/>
</g>
<!-- segs_to_native_wf_aseglta&#45;&gt;segs_to_native_wf_asegresample -->
<g id="edge8" class="edge">
<title>segs_to_native_wf_aseglta:e&#45;&gt;segs_to_native_wf_asegresample:w</title>
<path fill="none" stroke="black" d="M512.5,-258.5C523.68,-258.5 513.41,-242.72 521.5,-235 591.15,-168.49 631.93,-164.69 724.48,-164.51"/>
<polygon fill="black" stroke="black" points="724.5,-168.01 734.5,-164.5 724.5,-161.01 724.5,-168.01"/>
</g>
<!-- segs_to_native_wf_asegselect_seg&#45;&gt;segs_to_native_wf_asegresample -->
<g id="edge10" class="edge">
<title>segs_to_native_wf_asegselect_seg:e&#45;&gt;segs_to_native_wf_asegresample:w</title>
<path fill="none" stroke="black" d="M736.5,-264.5C760.08,-264.5 721.68,-173.75 727.35,-147.52"/>
<polygon fill="black" stroke="black" points="729.81,-150 734.5,-140.5 724.91,-145.01 729.81,-150"/>
</g>
<!-- segs_to_native_wf_asegoutputnode -->
<g id="node6" class="node">
<title>segs_to_native_wf_asegoutputnode</title>
<polygon fill="none" stroke="black" points="1052,-0.5 1052,-69.5 1267,-69.5 1267,-0.5 1052,-0.5"/>
<text text-anchor="middle" x="1086" y="-48.8" font-family="Times,serif" font-size="14.00">IN</text>
<polyline fill="none" stroke="black" points="1052,-35.5 1120,-35.5 "/>
<text text-anchor="middle" x="1086" y="-14.3" font-family="Times,serif" font-size="14.00">out_file</text>
<polyline fill="none" stroke="black" points="1120,-0.5 1120,-69.5 "/>
<text text-anchor="middle" x="1169" y="-54.3" font-family="Times,serif" font-size="14.00">outputnode</text>
<polyline fill="none" stroke="black" points="1120,-46.5 1218,-46.5 "/>
<text text-anchor="middle" x="1169" y="-31.3" font-family="Times,serif" font-size="14.00">utility</text>
<polyline fill="none" stroke="black" points="1120,-23.5 1218,-23.5 "/>
<text text-anchor="middle" x="1169" y="-8.3" font-family="Times,serif" font-size="14.00"> </text>
<polyline fill="none" stroke="black" points="1218,-0.5 1218,-69.5 "/>
<text text-anchor="middle" x="1242.5" y="-31.3" font-family="Times,serif" font-size="14.00">OUT</text>
</g>
<!-- segs_to_native_wf_asegresample&#45;&gt;segs_to_native_wf_asegoutputnode -->
<g id="edge9" class="edge">
<title>segs_to_native_wf_asegresample:e&#45;&gt;segs_to_native_wf_asegoutputnode:w</title>
<path fill="none" stroke="black" d="M1052.5,-129.5C1097.61,-129.5 1017.89,-37.14 1040.57,-20.54"/>
<polygon fill="black" stroke="black" points="1041.68,-23.87 1050.5,-18 1039.94,-17.09 1041.68,-23.87"/>
</g>
</g>
</svg>
