<?xml version="1.0" encoding="UTF-8" standalone="no"?>
<!DOCTYPE svg PUBLIC "-//W3C//DTD SVG 1.1//EN"
 "http://www.w3.org/Graphics/SVG/1.1/DTD/svg11.dtd">
<!-- Generated by graphviz version 2.40.1 (20161225.0304)
 -->
<!-- Title: structs Pages: 1 -->
<svg width="766pt" height="184pt"
 viewBox="0.00 0.00 765.50 184.00" xmlns="http://www.w3.org/2000/svg" xmlns:xlink="http://www.w3.org/1999/xlink">
<g id="graph0" class="graph" transform="scale(1 1) rotate(0) translate(4 180)">
<title>structs</title>
<polygon fill="#ffffff" stroke="transparent" points="-4,4 -4,-180 761.5,-180 761.5,4 -4,4"/>
<!-- smriprep_wffsdir_run_testrun -->
<g id="node1" class="node">
<title>smriprep_wffsdir_run_testrun</title>
<polygon fill="none" stroke="#000000" points="0,-106.5 0,-175.5 281,-175.5 281,-106.5 0,-106.5"/>
<text text-anchor="middle" x="17.5" y="-137.3" font-family="Times,serif" font-size="14.00" fill="#000000">IN</text>
<polyline fill="none" stroke="#000000" points="35,-106.5 35,-175.5 "/>
<text text-anchor="middle" x="106" y="-160.3" font-family="Times,serif" font-size="14.00" fill="#000000">fsdir_run_testrun</text>
<polyline fill="none" stroke="#000000" points="35,-152.5 177,-152.5 "/>
<text text-anchor="middle" x="106" y="-137.3" font-family="Times,serif" font-size="14.00" fill="#000000">bids</text>
<polyline fill="none" stroke="#000000" points="35,-129.5 177,-129.5 "/>
<text text-anchor="middle" x="106" y="-114.3" font-family="Times,serif" font-size="14.00" fill="#000000"> </text>
<polyline fill="none" stroke="#000000" points="177,-106.5 177,-175.5 "/>
<text text-anchor="middle" x="229" y="-154.8" font-family="Times,serif" font-size="14.00" fill="#000000">OUT</text>
<polyline fill="none" stroke="#000000" points="177,-141.5 281,-141.5 "/>
<text text-anchor="middle" x="229" y="-120.3" font-family="Times,serif" font-size="14.00" fill="#000000">subjects_dir</text>
</g>
<!-- smriprep_wfsingle_subject_smripreptest_wf -->
<g id="node2" class="node">
<title>smriprep_wfsingle_subject_smripreptest_wf</title>
<polygon fill="none" stroke="#000000" points="281.5,-.5 281.5,-69.5 757.5,-69.5 757.5,-.5 281.5,-.5"/>
<text text-anchor="middle" x="372" y="-48.8" font-family="Times,serif" font-size="14.00" fill="#000000">IN</text>
<polyline fill="none" stroke="#000000" points="281.5,-35.5 462.5,-35.5 "/>
<text text-anchor="middle" x="372" y="-14.3" font-family="Times,serif" font-size="14.00" fill="#000000">inputnode.subjects_dir</text>
<polyline fill="none" stroke="#000000" points="462.5,-.5 462.5,-69.5 "/>
<text text-anchor="middle" x="585" y="-54.3" font-family="Times,serif" font-size="14.00" fill="#000000">single_subject_smripreptest_wf</text>
<polyline fill="none" stroke="#000000" points="462.5,-46.5 707.5,-46.5 "/>
<text text-anchor="middle" x="585" y="-31.3" font-family="Times,serif" font-size="14.00" fill="#000000"> </text>
<polyline fill="none" stroke="#000000" points="462.5,-23.5 707.5,-23.5 "/>
<text text-anchor="middle" x="585" y="-8.3" font-family="Times,serif" font-size="14.00" fill="#000000"> </text>
<polyline fill="none" stroke="#000000" points="707.5,-.5 707.5,-69.5 "/>
<text text-anchor="middle" x="732.5" y="-31.3" font-family="Times,serif" font-size="14.00" fill="#000000">OUT</text>
</g>
<!-- smriprep_wffsdir_run_testrun&#45;&gt;smriprep_wfsingle_subject_smripreptest_wf -->
<g id="edge1" class="edge">
<title>smriprep_wffsdir_run_testrun:e&#45;&gt;smriprep_wfsingle_subject_smripreptest_wf:w</title>
<path fill="none" stroke="#000000" d="M281.5,-124C324.1944,-124 250.8134,-36.9434 271.7437,-20.6202"/>
<polygon fill="#000000" stroke="#000000" points="272.7501,-23.9741 281.5,-18 270.9344,-17.2136 272.7501,-23.9741"/>
</g>
</g>
</svg>
