<?xml version="1.0" encoding="UTF-8" standalone="no"?>
<!DOCTYPE svg PUBLIC "-//W3C//DTD SVG 1.1//EN"
 "http://www.w3.org/Graphics/SVG/1.1/DTD/svg11.dtd">
<!-- Generated by graphviz version 2.43.0 (0)
 -->
<!-- Title: structs Pages: 1 -->
<svg width="1865pt" height="912pt"
 viewBox="0.00 0.00 1865.00 912.00" xmlns="http://www.w3.org/2000/svg" xmlns:xlink="http://www.w3.org/1999/xlink">
<g id="graph0" class="graph" transform="scale(1 1) rotate(0) translate(4 908)">
<title>structs</title>
<polygon fill="white" stroke="transparent" points="-4,4 -4,-908 1861,-908 1861,4 -4,4"/>
<!-- autorecon_resume_wfinputnode -->
<g id="node1" class="node">
<title>autorecon_resume_wfinputnode</title>
<polygon fill="none" stroke="black" points="0,-788.5 0,-903.5 226,-903.5 226,-788.5 0,-788.5"/>
<text text-anchor="middle" x="17" y="-842.3" font-family="Times,serif" font-size="14.00">IN</text>
<polyline fill="none" stroke="black" points="34,-788.5 34,-903.5 "/>
<text text-anchor="middle" x="78.5" y="-880.8" font-family="Times,serif" font-size="14.00">inputnode</text>
<polyline fill="none" stroke="black" points="34,-865.5 123,-865.5 "/>
<text text-anchor="middle" x="78.5" y="-842.8" font-family="Times,serif" font-size="14.00">utility</text>
<polyline fill="none" stroke="black" points="34,-827.5 123,-827.5 "/>
<text text-anchor="middle" x="78.5" y="-804.3" font-family="Times,serif" font-size="14.00"> </text>
<polyline fill="none" stroke="black" points="123,-788.5 123,-903.5 "/>
<text text-anchor="middle" x="174.5" y="-888.3" font-family="Times,serif" font-size="14.00">OUT</text>
<polyline fill="none" stroke="black" points="123,-880.5 226,-880.5 "/>
<text text-anchor="middle" x="174.5" y="-865.3" font-family="Times,serif" font-size="14.00">subject_id</text>
<polyline fill="none" stroke="black" points="123,-857.5 226,-857.5 "/>
<text text-anchor="middle" x="174.5" y="-842.3" font-family="Times,serif" font-size="14.00">subjects_dir</text>
<polyline fill="none" stroke="black" points="123,-834.5 226,-834.5 "/>
<text text-anchor="middle" x="174.5" y="-819.3" font-family="Times,serif" font-size="14.00">use_FLAIR</text>
<polyline fill="none" stroke="black" points="123,-811.5 226,-811.5 "/>
<text text-anchor="middle" x="174.5" y="-796.3" font-family="Times,serif" font-size="14.00">use_T2</text>
</g>
<!-- autorecon_resume_wfgcareg -->
<g id="node2" class="node">
<title>autorecon_resume_wfgcareg</title>
<polygon fill="none" stroke="black" points="64.5,-682.5 64.5,-751.5 359.5,-751.5 359.5,-682.5 64.5,-682.5"/>
<text text-anchor="middle" x="116" y="-736.3" font-family="Times,serif" font-size="14.00">IN</text>
<polyline fill="none" stroke="black" points="64.5,-728.5 167.5,-728.5 "/>
<text text-anchor="middle" x="116" y="-713.3" font-family="Times,serif" font-size="14.00">subject_id</text>
<polyline fill="none" stroke="black" points="64.5,-705.5 167.5,-705.5 "/>
<text text-anchor="middle" x="116" y="-690.3" font-family="Times,serif" font-size="14.00">subjects_dir</text>
<polyline fill="none" stroke="black" points="167.5,-682.5 167.5,-751.5 "/>
<text text-anchor="middle" x="212" y="-736.3" font-family="Times,serif" font-size="14.00">gcareg</text>
<polyline fill="none" stroke="black" points="167.5,-728.5 256.5,-728.5 "/>
<text text-anchor="middle" x="212" y="-713.3" font-family="Times,serif" font-size="14.00">freesurfer</text>
<polyline fill="none" stroke="black" points="167.5,-705.5 256.5,-705.5 "/>
<text text-anchor="middle" x="212" y="-690.3" font-family="Times,serif" font-size="14.00"> </text>
<polyline fill="none" stroke="black" points="256.5,-682.5 256.5,-751.5 "/>
<text text-anchor="middle" x="308" y="-736.3" font-family="Times,serif" font-size="14.00">OUT</text>
<polyline fill="none" stroke="black" points="256.5,-728.5 359.5,-728.5 "/>
<text text-anchor="middle" x="308" y="-713.3" font-family="Times,serif" font-size="14.00">subject_id</text>
<polyline fill="none" stroke="black" points="256.5,-705.5 359.5,-705.5 "/>
<text text-anchor="middle" x="308" y="-690.3" font-family="Times,serif" font-size="14.00">subjects_dir</text>
</g>
<!-- autorecon_resume_wfinputnode&#45;&gt;autorecon_resume_wfgcareg -->
<g id="edge11" class="edge">
<title>autorecon_resume_wfinputnode:e&#45;&gt;autorecon_resume_wfgcareg:w</title>
<path fill="none" stroke="black" d="M227,-869C263,-869 248.7,-815.94 226,-788 179.49,-730.75 110.97,-808.87 64,-752 57.19,-743.75 51.91,-730.3 54.34,-722.7"/>
<polygon fill="black" stroke="black" points="56.57,-725.42 63,-717 52.72,-719.58 56.57,-725.42"/>
</g>
<!-- autorecon_resume_wfinputnode&#45;&gt;autorecon_resume_wfgcareg -->
<g id="edge12" class="edge">
<title>autorecon_resume_wfinputnode:e&#45;&gt;autorecon_resume_wfgcareg:w</title>
<path fill="none" stroke="black" d="M227,-846C252.78,-846 242.31,-807.97 226,-788 179.35,-730.87 110.65,-809.13 64,-752 50.37,-735.31 40.81,-705.99 53.1,-696.82"/>
<polygon fill="black" stroke="black" points="54.34,-700.11 63,-694 52.42,-693.38 54.34,-700.11"/>
</g>
<!-- autorecon_resume_wfcortribbon -->
<g id="node5" class="node">
<title>autorecon_resume_wfcortribbon</title>
<polygon fill="none" stroke="black" points="709,-318.5 709,-433.5 1007,-433.5 1007,-318.5 709,-318.5"/>
<text text-anchor="middle" x="760.5" y="-418.3" font-family="Times,serif" font-size="14.00">IN</text>
<polyline fill="none" stroke="black" points="709,-410.5 812,-410.5 "/>
<text text-anchor="middle" x="760.5" y="-395.3" font-family="Times,serif" font-size="14.00">subject_id</text>
<polyline fill="none" stroke="black" points="709,-387.5 812,-387.5 "/>
<text text-anchor="middle" x="760.5" y="-372.3" font-family="Times,serif" font-size="14.00">subjects_dir</text>
<polyline fill="none" stroke="black" points="709,-364.5 812,-364.5 "/>
<text text-anchor="middle" x="760.5" y="-349.3" font-family="Times,serif" font-size="14.00">use_FLAIR</text>
<polyline fill="none" stroke="black" points="709,-341.5 812,-341.5 "/>
<text text-anchor="middle" x="760.5" y="-326.3" font-family="Times,serif" font-size="14.00">use_T2</text>
<polyline fill="none" stroke="black" points="812,-318.5 812,-433.5 "/>
<text text-anchor="middle" x="858" y="-410.8" font-family="Times,serif" font-size="14.00">cortribbon</text>
<polyline fill="none" stroke="black" points="812,-395.5 904,-395.5 "/>
<text text-anchor="middle" x="858" y="-372.8" font-family="Times,serif" font-size="14.00">freesurfer</text>
<polyline fill="none" stroke="black" points="812,-357.5 904,-357.5 "/>
<text text-anchor="middle" x="858" y="-334.3" font-family="Times,serif" font-size="14.00"> </text>
<polyline fill="none" stroke="black" points="904,-318.5 904,-433.5 "/>
<text text-anchor="middle" x="955.5" y="-410.8" font-family="Times,serif" font-size="14.00">OUT</text>
<polyline fill="none" stroke="black" points="904,-395.5 1007,-395.5 "/>
<text text-anchor="middle" x="955.5" y="-372.8" font-family="Times,serif" font-size="14.00">subject_id</text>
<polyline fill="none" stroke="black" points="904,-357.5 1007,-357.5 "/>
<text text-anchor="middle" x="955.5" y="-334.3" font-family="Times,serif" font-size="14.00">subjects_dir</text>
</g>
<!-- autorecon_resume_wfinputnode&#45;&gt;autorecon_resume_wfcortribbon -->
<g id="edge13" class="edge">
<title>autorecon_resume_wfinputnode:e&#45;&gt;autorecon_resume_wfcortribbon:w</title>
<path fill="none" stroke="black" d="M227,-823C344.53,-823 636.78,-656.55 703,-540 742.22,-470.96 635.25,-363.22 697.99,-353.68"/>
<polygon fill="black" stroke="black" points="698.26,-357.17 708,-353 697.79,-350.19 698.26,-357.17"/>
</g>
<!-- autorecon_resume_wfinputnode&#45;&gt;autorecon_resume_wfcortribbon -->
<g id="edge14" class="edge">
<title>autorecon_resume_wfinputnode:e&#45;&gt;autorecon_resume_wfcortribbon:w</title>
<path fill="none" stroke="black" d="M227,-800C429.16,-800 516.24,-793.02 655,-646 693.25,-605.47 706.5,-593.53 722,-540 730.65,-510.12 727.36,-500.65 722,-470 719.07,-453.24 712.01,-450.74 709,-434 701.52,-392.42 668.26,-339.96 697.9,-331.25"/>
<polygon fill="black" stroke="black" points="698.51,-334.7 708,-330 697.65,-327.76 698.51,-334.7"/>
</g>
<!-- autorecon_resume_wfautorecon2_vol -->
<g id="node3" class="node">
<title>autorecon_resume_wfautorecon2_vol</title>
<polygon fill="none" stroke="black" points="192.5,-576.5 192.5,-645.5 523.5,-645.5 523.5,-576.5 192.5,-576.5"/>
<text text-anchor="middle" x="244" y="-630.3" font-family="Times,serif" font-size="14.00">IN</text>
<polyline fill="none" stroke="black" points="192.5,-622.5 295.5,-622.5 "/>
<text text-anchor="middle" x="244" y="-607.3" font-family="Times,serif" font-size="14.00">subject_id</text>
<polyline fill="none" stroke="black" points="192.5,-599.5 295.5,-599.5 "/>
<text text-anchor="middle" x="244" y="-584.3" font-family="Times,serif" font-size="14.00">subjects_dir</text>
<polyline fill="none" stroke="black" points="295.5,-576.5 295.5,-645.5 "/>
<text text-anchor="middle" x="358" y="-630.3" font-family="Times,serif" font-size="14.00">autorecon2_vol</text>
<polyline fill="none" stroke="black" points="295.5,-622.5 420.5,-622.5 "/>
<text text-anchor="middle" x="358" y="-607.3" font-family="Times,serif" font-size="14.00">freesurfer</text>
<polyline fill="none" stroke="black" points="295.5,-599.5 420.5,-599.5 "/>
<text text-anchor="middle" x="358" y="-584.3" font-family="Times,serif" font-size="14.00"> </text>
<polyline fill="none" stroke="black" points="420.5,-576.5 420.5,-645.5 "/>
<text text-anchor="middle" x="472" y="-630.3" font-family="Times,serif" font-size="14.00">OUT</text>
<polyline fill="none" stroke="black" points="420.5,-622.5 523.5,-622.5 "/>
<text text-anchor="middle" x="472" y="-607.3" font-family="Times,serif" font-size="14.00">subject_id</text>
<polyline fill="none" stroke="black" points="420.5,-599.5 523.5,-599.5 "/>
<text text-anchor="middle" x="472" y="-584.3" font-family="Times,serif" font-size="14.00">subjects_dir</text>
</g>
<!-- autorecon_resume_wfgcareg&#45;&gt;autorecon_resume_wfautorecon2_vol -->
<g id="edge9" class="edge">
<title>autorecon_resume_wfgcareg:e&#45;&gt;autorecon_resume_wfautorecon2_vol:w</title>
<path fill="none" stroke="black" d="M361,-717C376.56,-717 369.96,-693.96 360,-682 311.15,-623.31 240.85,-704.69 192,-646 185.16,-637.78 179.89,-624.32 182.33,-616.71"/>
<polygon fill="black" stroke="black" points="184.57,-619.42 191,-611 180.72,-613.58 184.57,-619.42"/>
</g>
<!-- autorecon_resume_wfgcareg&#45;&gt;autorecon_resume_wfautorecon2_vol -->
<g id="edge10" class="edge">
<title>autorecon_resume_wfgcareg:e&#45;&gt;autorecon_resume_wfautorecon2_vol:w</title>
<path fill="none" stroke="black" d="M361,-694C366.35,-694 363.53,-686.02 360,-682 309.57,-624.66 240.52,-704.97 192,-646 178.31,-629.36 168.79,-600.01 181.1,-590.83"/>
<polygon fill="black" stroke="black" points="182.35,-594.11 191,-588 180.42,-587.38 182.35,-594.11"/>
</g>
<!-- autorecon_resume_wfautorecon_surfs -->
<g id="node4" class="node">
<title>autorecon_resume_wfautorecon_surfs</title>
<polygon fill="none" stroke="black" points="357.5,-470.5 357.5,-539.5 694.5,-539.5 694.5,-470.5 357.5,-470.5"/>
<text text-anchor="middle" x="409" y="-524.3" font-family="Times,serif" font-size="14.00">IN</text>
<polyline fill="none" stroke="black" points="357.5,-516.5 460.5,-516.5 "/>
<text text-anchor="middle" x="409" y="-501.3" font-family="Times,serif" font-size="14.00">subject_id</text>
<polyline fill="none" stroke="black" points="357.5,-493.5 460.5,-493.5 "/>
<text text-anchor="middle" x="409" y="-478.3" font-family="Times,serif" font-size="14.00">subjects_dir</text>
<polyline fill="none" stroke="black" points="460.5,-470.5 460.5,-539.5 "/>
<text text-anchor="middle" x="526" y="-524.3" font-family="Times,serif" font-size="14.00">autorecon_surfs</text>
<polyline fill="none" stroke="black" points="460.5,-516.5 591.5,-516.5 "/>
<text text-anchor="middle" x="526" y="-501.3" font-family="Times,serif" font-size="14.00">freesurfer</text>
<polyline fill="none" stroke="black" points="460.5,-493.5 591.5,-493.5 "/>
<text text-anchor="middle" x="526" y="-478.3" font-family="Times,serif" font-size="14.00"> </text>
<polyline fill="none" stroke="black" points="591.5,-470.5 591.5,-539.5 "/>
<text text-anchor="middle" x="643" y="-524.3" font-family="Times,serif" font-size="14.00">OUT</text>
<polyline fill="none" stroke="black" points="591.5,-516.5 694.5,-516.5 "/>
<text text-anchor="middle" x="643" y="-501.3" font-family="Times,serif" font-size="14.00">subject_id</text>
<polyline fill="none" stroke="black" points="591.5,-493.5 694.5,-493.5 "/>
<text text-anchor="middle" x="643" y="-478.3" font-family="Times,serif" font-size="14.00">subjects_dir</text>
</g>
<!-- autorecon_resume_wfautorecon2_vol&#45;&gt;autorecon_resume_wfautorecon_surfs -->
<g id="edge1" class="edge">
<title>autorecon_resume_wfautorecon2_vol:e&#45;&gt;autorecon_resume_wfautorecon_surfs:w</title>
<path fill="none" stroke="black" d="M525,-611C540.56,-611 533.95,-587.97 524,-576 475.46,-517.61 405.54,-598.39 357,-540 350.16,-531.77 344.9,-518.31 347.33,-510.71"/>
<polygon fill="black" stroke="black" points="349.57,-513.42 356,-505 345.72,-507.58 349.57,-513.42"/>
</g>
<!-- autorecon_resume_wfautorecon2_vol&#45;&gt;autorecon_resume_wfautorecon_surfs -->
<g id="edge2" class="edge">
<title>autorecon_resume_wfautorecon2_vol:e&#45;&gt;autorecon_resume_wfautorecon_surfs:w</title>
<path fill="none" stroke="black" d="M525,-588C530.35,-588 527.53,-580.02 524,-576 473.89,-518.96 405.2,-598.66 357,-540 343.32,-523.35 333.8,-494.01 346.1,-484.83"/>
<polygon fill="black" stroke="black" points="347.35,-488.11 356,-482 345.42,-481.38 347.35,-488.11"/>
</g>
<!-- autorecon_resume_wfautorecon_surfs&#45;&gt;autorecon_resume_wfcortribbon -->
<g id="edge5" class="edge">
<title>autorecon_resume_wfautorecon_surfs:e&#45;&gt;autorecon_resume_wfcortribbon:w</title>
<path fill="none" stroke="black" d="M696,-505C716,-505 693.92,-429.54 700.77,-405.95"/>
<polygon fill="black" stroke="black" points="703.22,-408.45 708,-399 698.37,-403.41 703.22,-408.45"/>
</g>
<!-- autorecon_resume_wfautorecon_surfs&#45;&gt;autorecon_resume_wfcortribbon -->
<g id="edge6" class="edge">
<title>autorecon_resume_wfautorecon_surfs:e&#45;&gt;autorecon_resume_wfcortribbon:w</title>
<path fill="none" stroke="black" d="M696,-482C716,-482 693.92,-406.54 700.77,-382.95"/>
<polygon fill="black" stroke="black" points="703.22,-385.45 708,-376 698.37,-380.41 703.22,-385.45"/>
</g>
<!-- autorecon_resume_wfparcstats -->
<g id="node6" class="node">
<title>autorecon_resume_wfparcstats</title>
<polygon fill="none" stroke="black" points="1007.5,-212.5 1007.5,-281.5 1302.5,-281.5 1302.5,-212.5 1007.5,-212.5"/>
<text text-anchor="middle" x="1059" y="-266.3" font-family="Times,serif" font-size="14.00">IN</text>
<polyline fill="none" stroke="black" points="1007.5,-258.5 1110.5,-258.5 "/>
<text text-anchor="middle" x="1059" y="-243.3" font-family="Times,serif" font-size="14.00">subject_id</text>
<polyline fill="none" stroke="black" points="1007.5,-235.5 1110.5,-235.5 "/>
<text text-anchor="middle" x="1059" y="-220.3" font-family="Times,serif" font-size="14.00">subjects_dir</text>
<polyline fill="none" stroke="black" points="1110.5,-212.5 1110.5,-281.5 "/>
<text text-anchor="middle" x="1155" y="-266.3" font-family="Times,serif" font-size="14.00">parcstats</text>
<polyline fill="none" stroke="black" points="1110.5,-258.5 1199.5,-258.5 "/>
<text text-anchor="middle" x="1155" y="-243.3" font-family="Times,serif" font-size="14.00">freesurfer</text>
<polyline fill="none" stroke="black" points="1110.5,-235.5 1199.5,-235.5 "/>
<text text-anchor="middle" x="1155" y="-220.3" font-family="Times,serif" font-size="14.00"> </text>
<polyline fill="none" stroke="black" points="1199.5,-212.5 1199.5,-281.5 "/>
<text text-anchor="middle" x="1251" y="-266.3" font-family="Times,serif" font-size="14.00">OUT</text>
<polyline fill="none" stroke="black" points="1199.5,-258.5 1302.5,-258.5 "/>
<text text-anchor="middle" x="1251" y="-243.3" font-family="Times,serif" font-size="14.00">subject_id</text>
<polyline fill="none" stroke="black" points="1199.5,-235.5 1302.5,-235.5 "/>
<text text-anchor="middle" x="1251" y="-220.3" font-family="Times,serif" font-size="14.00">subjects_dir</text>
</g>
<!-- autorecon_resume_wfcortribbon&#45;&gt;autorecon_resume_wfparcstats -->
<g id="edge7" class="edge">
<title>autorecon_resume_wfcortribbon:e&#45;&gt;autorecon_resume_wfparcstats:w</title>
<path fill="none" stroke="black" d="M1008,-377C1061.5,-377 964.7,-265.58 995.89,-249.04"/>
<polygon fill="black" stroke="black" points="996.89,-252.41 1006,-247 995.51,-245.55 996.89,-252.41"/>
</g>
<!-- autorecon_resume_wfcortribbon&#45;&gt;autorecon_resume_wfparcstats -->
<g id="edge8" class="edge">
<title>autorecon_resume_wfcortribbon:e&#45;&gt;autorecon_resume_wfparcstats:w</title>
<path fill="none" stroke="black" d="M1008,-338C1032.89,-338 1007.44,-306.89 1007,-282 1006.63,-261.06 989.18,-235.86 996.48,-227.14"/>
<polygon fill="black" stroke="black" points="997.6,-230.46 1006,-224 995.41,-223.81 997.6,-230.46"/>
</g>
<!-- autorecon_resume_wfautorecon3 -->
<g id="node7" class="node">
<title>autorecon_resume_wfautorecon3</title>
<polygon fill="none" stroke="black" points="1303.5,-106.5 1303.5,-175.5 1606.5,-175.5 1606.5,-106.5 1303.5,-106.5"/>
<text text-anchor="middle" x="1355" y="-160.3" font-family="Times,serif" font-size="14.00">IN</text>
<polyline fill="none" stroke="black" points="1303.5,-152.5 1406.5,-152.5 "/>
<text text-anchor="middle" x="1355" y="-137.3" font-family="Times,serif" font-size="14.00">subject_id</text>
<polyline fill="none" stroke="black" points="1303.5,-129.5 1406.5,-129.5 "/>
<text text-anchor="middle" x="1355" y="-114.3" font-family="Times,serif" font-size="14.00">subjects_dir</text>
<polyline fill="none" stroke="black" points="1406.5,-106.5 1406.5,-175.5 "/>
<text text-anchor="middle" x="1455" y="-160.3" font-family="Times,serif" font-size="14.00">autorecon3</text>
<polyline fill="none" stroke="black" points="1406.5,-152.5 1503.5,-152.5 "/>
<text text-anchor="middle" x="1455" y="-137.3" font-family="Times,serif" font-size="14.00">freesurfer</text>
<polyline fill="none" stroke="black" points="1406.5,-129.5 1503.5,-129.5 "/>
<text text-anchor="middle" x="1455" y="-114.3" font-family="Times,serif" font-size="14.00"> </text>
<polyline fill="none" stroke="black" points="1503.5,-106.5 1503.5,-175.5 "/>
<text text-anchor="middle" x="1555" y="-160.3" font-family="Times,serif" font-size="14.00">OUT</text>
<polyline fill="none" stroke="black" points="1503.5,-152.5 1606.5,-152.5 "/>
<text text-anchor="middle" x="1555" y="-137.3" font-family="Times,serif" font-size="14.00">subject_id</text>
<polyline fill="none" stroke="black" points="1503.5,-129.5 1606.5,-129.5 "/>
<text text-anchor="middle" x="1555" y="-114.3" font-family="Times,serif" font-size="14.00">subjects_dir</text>
</g>
<!-- autorecon_resume_wfparcstats&#45;&gt;autorecon_resume_wfautorecon3 -->
<g id="edge15" class="edge">
<title>autorecon_resume_wfparcstats:e&#45;&gt;autorecon_resume_wfautorecon3:w</title>
<path fill="none" stroke="black" d="M1304,-247C1346.7,-247 1271.67,-159.94 1292.29,-143.62"/>
<polygon fill="black" stroke="black" points="1293.26,-146.98 1302,-141 1291.43,-140.23 1293.26,-146.98"/>
</g>
<!-- autorecon_resume_wfparcstats&#45;&gt;autorecon_resume_wfautorecon3 -->
<g id="edge16" class="edge">
<title>autorecon_resume_wfparcstats:e&#45;&gt;autorecon_resume_wfautorecon3:w</title>
<path fill="none" stroke="black" d="M1304,-224C1325.34,-224 1303.41,-197.33 1303,-176 1302.6,-155.06 1285.17,-129.86 1292.48,-121.14"/>
<polygon fill="black" stroke="black" points="1293.6,-124.46 1302,-118 1291.41,-117.81 1293.6,-124.46"/>
</g>
<!-- autorecon_resume_wfoutputnode -->
<g id="node8" class="node">
<title>autorecon_resume_wfoutputnode</title>
<polygon fill="none" stroke="black" points="1607,-0.5 1607,-69.5 1857,-69.5 1857,-0.5 1607,-0.5"/>
<text text-anchor="middle" x="1658.5" y="-54.3" font-family="Times,serif" font-size="14.00">IN</text>
<polyline fill="none" stroke="black" points="1607,-46.5 1710,-46.5 "/>
<text text-anchor="middle" x="1658.5" y="-31.3" font-family="Times,serif" font-size="14.00">subject_id</text>
<polyline fill="none" stroke="black" points="1607,-23.5 1710,-23.5 "/>
<text text-anchor="middle" x="1658.5" y="-8.3" font-family="Times,serif" font-size="14.00">subjects_dir</text>
<polyline fill="none" stroke="black" points="1710,-0.5 1710,-69.5 "/>
<text text-anchor="middle" x="1759" y="-54.3" font-family="Times,serif" font-size="14.00">outputnode</text>
<polyline fill="none" stroke="black" points="1710,-46.5 1808,-46.5 "/>
<text text-anchor="middle" x="1759" y="-31.3" font-family="Times,serif" font-size="14.00">utility</text>
<polyline fill="none" stroke="black" points="1710,-23.5 1808,-23.5 "/>
<text text-anchor="middle" x="1759" y="-8.3" font-family="Times,serif" font-size="14.00"> </text>
<polyline fill="none" stroke="black" points="1808,-0.5 1808,-69.5 "/>
<text text-anchor="middle" x="1832.5" y="-31.3" font-family="Times,serif" font-size="14.00">OUT</text>
</g>
<!-- autorecon_resume_wfautorecon3&#45;&gt;autorecon_resume_wfoutputnode -->
<g id="edge3" class="edge">
<title>autorecon_resume_wfautorecon3:e&#45;&gt;autorecon_resume_wfoutputnode:w</title>
<path fill="none" stroke="black" d="M1608,-141C1650.7,-141 1575.67,-53.94 1596.29,-37.62"/>
<polygon fill="black" stroke="black" points="1597.26,-40.98 1606,-35 1595.43,-34.23 1597.26,-40.98"/>
</g>
<!-- autorecon_resume_wfautorecon3&#45;&gt;autorecon_resume_wfoutputnode -->
<g id="edge4" class="edge">
<title>autorecon_resume_wfautorecon3:e&#45;&gt;autorecon_resume_wfoutputnode:w</title>
<path fill="none" stroke="black" d="M1608,-118C1629.34,-118 1607.41,-91.33 1607,-70 1606.6,-49.06 1589.17,-23.86 1596.48,-15.14"/>
<polygon fill="black" stroke="black" points="1597.6,-18.46 1606,-12 1595.41,-11.81 1597.6,-18.46"/>
</g>
</g>
</svg>
