<?xml version="1.0" encoding="UTF-8" standalone="no"?>
<!DOCTYPE svg PUBLIC "-//W3C//DTD SVG 1.1//EN"
 "http://www.w3.org/Graphics/SVG/1.1/DTD/svg11.dtd">
<!-- Generated by graphviz version 2.43.0 (0)
 -->
<!-- Title: structs Pages: 1 -->
<svg width="1099pt" height="700pt"
 viewBox="0.00 0.00 1098.50 700.00" xmlns="http://www.w3.org/2000/svg" xmlns:xlink="http://www.w3.org/1999/xlink">
<g id="graph0" class="graph" transform="scale(1 1) rotate(0) translate(4 696)">
<title>structs</title>
<polygon fill="white" stroke="transparent" points="-4,4 -4,-696 1094.5,-696 1094.5,4 -4,4"/>
<!-- anat_template_wfinputnode -->
<g id="node1" class="node">
<title>anat_template_wfinputnode</title>
<polygon fill="none" stroke="black" points="0,-622.5 0,-691.5 207,-691.5 207,-622.5 0,-622.5"/>
<text text-anchor="middle" x="17" y="-653.3" font-family="Times,serif" font-size="14.00">IN</text>
<polyline fill="none" stroke="black" points="34,-622.5 34,-691.5 "/>
<text text-anchor="middle" x="78.5" y="-676.3" font-family="Times,serif" font-size="14.00">inputnode</text>
<polyline fill="none" stroke="black" points="34,-668.5 123,-668.5 "/>
<text text-anchor="middle" x="78.5" y="-653.3" font-family="Times,serif" font-size="14.00">utility</text>
<polyline fill="none" stroke="black" points="34,-645.5 123,-645.5 "/>
<text text-anchor="middle" x="78.5" y="-630.3" font-family="Times,serif" font-size="14.00"> </text>
<polyline fill="none" stroke="black" points="123,-622.5 123,-691.5 "/>
<text text-anchor="middle" x="165" y="-670.8" font-family="Times,serif" font-size="14.00">OUT</text>
<polyline fill="none" stroke="black" points="123,-657.5 207,-657.5 "/>
<text text-anchor="middle" x="165" y="-636.3" font-family="Times,serif" font-size="14.00">anat_files</text>
</g>
<!-- anat_template_wfanat_ref_dimensions -->
<g id="node2" class="node">
<title>anat_template_wfanat_ref_dimensions</title>
<polygon fill="none" stroke="black" points="208,-470.5 208,-585.5 567,-585.5 567,-470.5 208,-470.5"/>
<text text-anchor="middle" x="246.5" y="-553.3" font-family="Times,serif" font-size="14.00">IN</text>
<polyline fill="none" stroke="black" points="208,-528.5 285,-528.5 "/>
<text text-anchor="middle" x="246.5" y="-495.8" font-family="Times,serif" font-size="14.00">anat_list</text>
<polyline fill="none" stroke="black" points="285,-470.5 285,-585.5 "/>
<text text-anchor="middle" x="366.5" y="-562.8" font-family="Times,serif" font-size="14.00">anat_ref_dimensions</text>
<polyline fill="none" stroke="black" points="285,-547.5 448,-547.5 "/>
<text text-anchor="middle" x="366.5" y="-524.8" font-family="Times,serif" font-size="14.00">images</text>
<polyline fill="none" stroke="black" points="285,-509.5 448,-509.5 "/>
<text text-anchor="middle" x="366.5" y="-486.3" font-family="Times,serif" font-size="14.00"> </text>
<polyline fill="none" stroke="black" points="448,-470.5 448,-585.5 "/>
<text text-anchor="middle" x="507.5" y="-570.3" font-family="Times,serif" font-size="14.00">OUT</text>
<polyline fill="none" stroke="black" points="448,-562.5 567,-562.5 "/>
<text text-anchor="middle" x="507.5" y="-547.3" font-family="Times,serif" font-size="14.00">anat_valid_list</text>
<polyline fill="none" stroke="black" points="448,-539.5 567,-539.5 "/>
<text text-anchor="middle" x="507.5" y="-524.3" font-family="Times,serif" font-size="14.00">out_report</text>
<polyline fill="none" stroke="black" points="448,-516.5 567,-516.5 "/>
<text text-anchor="middle" x="507.5" y="-501.3" font-family="Times,serif" font-size="14.00">target_shape</text>
<polyline fill="none" stroke="black" points="448,-493.5 567,-493.5 "/>
<text text-anchor="middle" x="507.5" y="-478.3" font-family="Times,serif" font-size="14.00">target_zooms</text>
</g>
<!-- anat_template_wfinputnode&#45;&gt;anat_template_wfanat_ref_dimensions -->
<g id="edge9" class="edge">
<title>anat_template_wfinputnode:e&#45;&gt;anat_template_wfanat_ref_dimensions:w</title>
<path fill="none" stroke="black" d="M208.5,-640C232.5,-640 207.86,-610 207.5,-586 206.98,-551.56 175.92,-509.46 196.45,-500.66"/>
<polygon fill="black" stroke="black" points="197.2,-504.08 206.5,-499 196.06,-497.18 197.2,-504.08"/>
</g>
<!-- anat_template_wfdenoise -->
<g id="node3" class="node">
<title>anat_template_wfdenoise</title>
<polygon fill="none" stroke="black" points="213,-364.5 213,-433.5 502,-433.5 502,-364.5 213,-364.5"/>
<text text-anchor="middle" x="265" y="-412.8" font-family="Times,serif" font-size="14.00">IN</text>
<polyline fill="none" stroke="black" points="213,-399.5 317,-399.5 "/>
<text text-anchor="middle" x="265" y="-378.3" font-family="Times,serif" font-size="14.00">input_image</text>
<polyline fill="none" stroke="black" points="317,-364.5 317,-433.5 "/>
<text text-anchor="middle" x="352.5" y="-418.3" font-family="Times,serif" font-size="14.00">denoise</text>
<polyline fill="none" stroke="black" points="317,-410.5 388,-410.5 "/>
<text text-anchor="middle" x="352.5" y="-395.3" font-family="Times,serif" font-size="14.00">ants</text>
<polyline fill="none" stroke="black" points="317,-387.5 388,-387.5 "/>
<text text-anchor="middle" x="352.5" y="-372.3" font-family="Times,serif" font-size="14.00"> </text>
<polyline fill="none" stroke="black" points="388,-364.5 388,-433.5 "/>
<text text-anchor="middle" x="445" y="-412.8" font-family="Times,serif" font-size="14.00">OUT</text>
<polyline fill="none" stroke="black" points="388,-399.5 502,-399.5 "/>
<text text-anchor="middle" x="445" y="-378.3" font-family="Times,serif" font-size="14.00">output_image</text>
</g>
<!-- anat_template_wfanat_ref_dimensions&#45;&gt;anat_template_wfdenoise -->
<g id="edge2" class="edge">
<title>anat_template_wfanat_ref_dimensions:e&#45;&gt;anat_template_wfdenoise:w</title>
<path fill="none" stroke="black" d="M568.5,-551C604.5,-551 591.8,-496.56 567.5,-470 513.97,-411.5 266.23,-492.32 212.5,-434 199.65,-420.05 191.66,-394 201.96,-385.08"/>
<polygon fill="black" stroke="black" points="203.06,-388.4 211.5,-382 200.91,-381.74 203.06,-388.4"/>
</g>
<!-- anat_template_wfanat_conform -->
<g id="node4" class="node">
<title>anat_template_wfanat_conform</title>
<polygon fill="none" stroke="black" points="502.5,-235.5 502.5,-327.5 796.5,-327.5 796.5,-235.5 502.5,-235.5"/>
<text text-anchor="middle" x="559" y="-312.3" font-family="Times,serif" font-size="14.00">IN</text>
<polyline fill="none" stroke="black" points="502.5,-304.5 615.5,-304.5 "/>
<text text-anchor="middle" x="559" y="-289.3" font-family="Times,serif" font-size="14.00">in_file</text>
<polyline fill="none" stroke="black" points="502.5,-281.5 615.5,-281.5 "/>
<text text-anchor="middle" x="559" y="-266.3" font-family="Times,serif" font-size="14.00">target_shape</text>
<polyline fill="none" stroke="black" points="502.5,-258.5 615.5,-258.5 "/>
<text text-anchor="middle" x="559" y="-243.3" font-family="Times,serif" font-size="14.00">target_zooms</text>
<polyline fill="none" stroke="black" points="615.5,-235.5 615.5,-327.5 "/>
<text text-anchor="middle" x="672" y="-308.8" font-family="Times,serif" font-size="14.00">anat_conform</text>
<polyline fill="none" stroke="black" points="615.5,-297.5 728.5,-297.5 "/>
<text text-anchor="middle" x="672" y="-278.3" font-family="Times,serif" font-size="14.00">images</text>
<polyline fill="none" stroke="black" points="615.5,-266.5 728.5,-266.5 "/>
<text text-anchor="middle" x="672" y="-247.3" font-family="Times,serif" font-size="14.00"> </text>
<polyline fill="none" stroke="black" points="728.5,-235.5 728.5,-327.5 "/>
<text text-anchor="middle" x="762.5" y="-300.8" font-family="Times,serif" font-size="14.00">OUT</text>
<polyline fill="none" stroke="black" points="728.5,-281.5 796.5,-281.5 "/>
<text text-anchor="middle" x="762.5" y="-254.8" font-family="Times,serif" font-size="14.00">out_file</text>
</g>
<!-- anat_template_wfanat_ref_dimensions&#45;&gt;anat_template_wfanat_conform -->
<g id="edge5" class="edge">
<title>anat_template_wfanat_ref_dimensions:e&#45;&gt;anat_template_wfanat_conform:w</title>
<path fill="none" stroke="black" d="M568.5,-505C584.06,-505 571.03,-485.16 567.5,-470 559.62,-436.2 510.18,-361.84 502.5,-328 497.78,-307.2 482.63,-281.16 491.7,-272.47"/>
<polygon fill="black" stroke="black" points="492.95,-275.75 501.5,-269.5 490.91,-269.05 492.95,-275.75"/>
</g>
<!-- anat_template_wfanat_ref_dimensions&#45;&gt;anat_template_wfanat_conform -->
<g id="edge6" class="edge">
<title>anat_template_wfanat_ref_dimensions:e&#45;&gt;anat_template_wfanat_conform:w</title>
<path fill="none" stroke="black" d="M568.5,-482C574.99,-482 613.04,-469.36 549.5,-364 535.91,-341.47 514.29,-351.52 502.5,-328 488.04,-299.16 469.81,-257.04 491.59,-248.18"/>
<polygon fill="black" stroke="black" points="492.22,-251.62 501.5,-246.5 491.06,-244.72 492.22,-251.62"/>
</g>
<!-- anat_template_wfoutputnode -->
<g id="node6" class="node">
<title>anat_template_wfoutputnode</title>
<polygon fill="none" stroke="black" points="824.5,-0.5 824.5,-92.5 1090.5,-92.5 1090.5,-0.5 824.5,-0.5"/>
<text text-anchor="middle" x="884" y="-77.3" font-family="Times,serif" font-size="14.00">IN</text>
<polyline fill="none" stroke="black" points="824.5,-69.5 943.5,-69.5 "/>
<text text-anchor="middle" x="884" y="-54.3" font-family="Times,serif" font-size="14.00">anat_ref</text>
<polyline fill="none" stroke="black" points="824.5,-46.5 943.5,-46.5 "/>
<text text-anchor="middle" x="884" y="-31.3" font-family="Times,serif" font-size="14.00">anat_valid_list</text>
<polyline fill="none" stroke="black" points="824.5,-23.5 943.5,-23.5 "/>
<text text-anchor="middle" x="884" y="-8.3" font-family="Times,serif" font-size="14.00">out_report</text>
<polyline fill="none" stroke="black" points="943.5,-0.5 943.5,-92.5 "/>
<text text-anchor="middle" x="992.5" y="-73.8" font-family="Times,serif" font-size="14.00">outputnode</text>
<polyline fill="none" stroke="black" points="943.5,-62.5 1041.5,-62.5 "/>
<text text-anchor="middle" x="992.5" y="-43.3" font-family="Times,serif" font-size="14.00">utility</text>
<polyline fill="none" stroke="black" points="943.5,-31.5 1041.5,-31.5 "/>
<text text-anchor="middle" x="992.5" y="-12.3" font-family="Times,serif" font-size="14.00"> </text>
<polyline fill="none" stroke="black" points="1041.5,-0.5 1041.5,-92.5 "/>
<text text-anchor="middle" x="1066" y="-42.8" font-family="Times,serif" font-size="14.00">OUT</text>
</g>
<!-- anat_template_wfanat_ref_dimensions&#45;&gt;anat_template_wfoutputnode -->
<g id="edge3" class="edge">
<title>anat_template_wfanat_ref_dimensions:e&#45;&gt;anat_template_wfoutputnode:w</title>
<path fill="none" stroke="black" d="M568.5,-551C713.13,-551 744.09,-458.95 805.5,-328 818.07,-301.19 795.81,-81.93 815.84,-41.05"/>
<polygon fill="black" stroke="black" points="818.17,-43.66 823.5,-34.5 813.62,-38.34 818.17,-43.66"/>
</g>
<!-- anat_template_wfanat_ref_dimensions&#45;&gt;anat_template_wfoutputnode -->
<g id="edge4" class="edge">
<title>anat_template_wfanat_ref_dimensions:e&#45;&gt;anat_template_wfoutputnode:w</title>
<path fill="none" stroke="black" d="M568.5,-528C673.2,-528 713.28,-510.74 784.5,-434 818.44,-397.42 813.01,-377.17 821.5,-328 821.83,-326.07 821.41,-75.43 822.88,-21.61"/>
<polygon fill="black" stroke="black" points="826.38,-21.69 823.5,-11.5 819.4,-21.27 826.38,-21.69"/>
</g>
<!-- anat_template_wfdenoise&#45;&gt;anat_template_wfanat_conform -->
<g id="edge7" class="edge">
<title>anat_template_wfdenoise:e&#45;&gt;anat_template_wfanat_conform:w</title>
<path fill="none" stroke="black" d="M503.5,-382C537.93,-382 480.45,-314.24 491.9,-297.3"/>
<polygon fill="black" stroke="black" points="493.49,-300.44 501.5,-293.5 490.91,-293.93 493.49,-300.44"/>
</g>
<!-- anat_template_wfget1st -->
<g id="node5" class="node">
<title>anat_template_wfget1st</title>
<polygon fill="none" stroke="black" points="632.5,-129.5 632.5,-198.5 796.5,-198.5 796.5,-129.5 632.5,-129.5"/>
<text text-anchor="middle" x="659" y="-177.8" font-family="Times,serif" font-size="14.00">IN</text>
<polyline fill="none" stroke="black" points="632.5,-164.5 685.5,-164.5 "/>
<text text-anchor="middle" x="659" y="-143.3" font-family="Times,serif" font-size="14.00">inlist</text>
<polyline fill="none" stroke="black" points="685.5,-129.5 685.5,-198.5 "/>
<text text-anchor="middle" x="716.5" y="-183.3" font-family="Times,serif" font-size="14.00">get1st</text>
<polyline fill="none" stroke="black" points="685.5,-175.5 747.5,-175.5 "/>
<text text-anchor="middle" x="716.5" y="-160.3" font-family="Times,serif" font-size="14.00">utility</text>
<polyline fill="none" stroke="black" points="685.5,-152.5 747.5,-152.5 "/>
<text text-anchor="middle" x="716.5" y="-137.3" font-family="Times,serif" font-size="14.00"> </text>
<polyline fill="none" stroke="black" points="747.5,-129.5 747.5,-198.5 "/>
<text text-anchor="middle" x="772" y="-177.8" font-family="Times,serif" font-size="14.00">OUT</text>
<polyline fill="none" stroke="black" points="747.5,-164.5 796.5,-164.5 "/>
<text text-anchor="middle" x="772" y="-143.3" font-family="Times,serif" font-size="14.00">out</text>
</g>
<!-- anat_template_wfanat_conform&#45;&gt;anat_template_wfget1st -->
<g id="edge1" class="edge">
<title>anat_template_wfanat_conform:e&#45;&gt;anat_template_wfget1st:w</title>
<path fill="none" stroke="black" d="M797.5,-258.5C807.95,-258.5 803.22,-243 796.5,-235 748.5,-177.86 679.83,-256.7 632.5,-199 620.59,-184.48 612.11,-159.23 621.75,-150.27"/>
<polygon fill="black" stroke="black" points="623.13,-153.5 631.5,-147 620.91,-146.86 623.13,-153.5"/>
</g>
<!-- anat_template_wfget1st&#45;&gt;anat_template_wfoutputnode -->
<g id="edge8" class="edge">
<title>anat_template_wfget1st:e&#45;&gt;anat_template_wfoutputnode:w</title>
<path fill="none" stroke="black" d="M797.5,-147C814.55,-147 807.04,-85.73 815.84,-65.15"/>
<polygon fill="black" stroke="black" points="818.24,-67.7 823.5,-58.5 813.65,-62.41 818.24,-67.7"/>
</g>
</g>
</svg>
