<?xml version="1.0" encoding="UTF-8" standalone="no"?>
<!DOCTYPE svg PUBLIC "-//W3C//DTD SVG 1.1//EN"
 "http://www.w3.org/Graphics/SVG/1.1/DTD/svg11.dtd">
<!-- Generated by graphviz version 2.43.0 (0)
 -->
<!-- Title: morph_grayords_wf Pages: 1 -->
<svg width="1014pt" height="427pt"
 viewBox="0.00 0.00 1014.41 427.00" xmlns="http://www.w3.org/2000/svg" xmlns:xlink="http://www.w3.org/1999/xlink">
<g id="graph0" class="graph" transform="scale(1 1) rotate(0) translate(4 423)">
<title>morph_grayords_wf</title>
<polygon fill="white" stroke="transparent" points="-4,4 -4,-423 1010.41,-423 1010.41,4 -4,4"/>
<text text-anchor="middle" x="503.2" y="-7.8" font-family="Times,serif" font-size="14.00">morph_grayords_wf</text>
<!-- morph_grayords_wf_inputnode -->
<g id="node1" class="node">
<title>morph_grayords_wf_inputnode</title>
<ellipse fill="#ffffc8" stroke="black" cx="471.09" cy="-401" rx="94.78" ry="18"/>
<text text-anchor="middle" x="471.09" y="-397.3" font-family="Times,serif" font-size="14.00">inputnode (utility)</text>
</g>
<!-- morph_grayords_wf_select_surfaces -->
<g id="node3" class="node">
<title>morph_grayords_wf_select_surfaces</title>
<ellipse fill="#ffffc8" stroke="black" cx="471.09" cy="-329" rx="118.88" ry="18"/>
<text text-anchor="middle" x="471.09" y="-325.3" font-family="Times,serif" font-size="14.00">select_surfaces (utility)</text>
</g>
<!-- morph_grayords_wf_inputnode&#45;&gt;morph_grayords_wf_select_surfaces -->
<g id="edge1" class="edge">
<title>morph_grayords_wf_inputnode&#45;&gt;morph_grayords_wf_select_surfaces</title>
<path fill="none" stroke="black" d="M436.52,-384.12C430.66,-375.64 429.14,-365.02 431.96,-355.43"/>
<polygon fill="black" stroke="black" points="435.17,-356.85 436.23,-346.31 428.83,-353.88 435.17,-356.85"/>
</g>
<!-- morph_grayords_wf_inputnode&#45;&gt;morph_grayords_wf_select_surfaces -->
<g id="edge2" class="edge">
<title>morph_grayords_wf_inputnode&#45;&gt;morph_grayords_wf_select_surfaces</title>
<path fill="none" stroke="black" d="M447.73,-383.41C444.24,-375.42 443.26,-365.64 444.78,-356.64"/>
<polygon fill="black" stroke="black" points="448.17,-357.53 447.57,-346.96 441.44,-355.6 448.17,-357.53"/>
</g>
<!-- morph_grayords_wf_inputnode&#45;&gt;morph_grayords_wf_select_surfaces -->
<g id="edge3" class="edge">
<title>morph_grayords_wf_inputnode&#45;&gt;morph_grayords_wf_select_surfaces</title>
<path fill="none" stroke="black" d="M459.33,-383.05C457.7,-375.35 457.21,-366.03 457.88,-357.36"/>
<polygon fill="black" stroke="black" points="461.37,-357.66 459.26,-347.28 454.43,-356.71 461.37,-357.66"/>
</g>
<!-- morph_grayords_wf_inputnode&#45;&gt;morph_grayords_wf_select_surfaces -->
<g id="edge4" class="edge">
<title>morph_grayords_wf_inputnode&#45;&gt;morph_grayords_wf_select_surfaces</title>
<path fill="none" stroke="black" d="M471.09,-382.7C471.09,-374.98 471.09,-365.71 471.09,-357.11"/>
<polygon fill="black" stroke="black" points="474.59,-357.1 471.09,-347.1 467.59,-357.1 474.59,-357.1"/>
</g>
<!-- morph_grayords_wf_inputnode&#45;&gt;morph_grayords_wf_select_surfaces -->
<g id="edge5" class="edge">
<title>morph_grayords_wf_inputnode&#45;&gt;morph_grayords_wf_select_surfaces</title>
<path fill="none" stroke="black" d="M482.84,-383.05C484.48,-375.35 484.96,-366.03 484.3,-357.36"/>
<polygon fill="black" stroke="black" points="487.74,-356.71 482.91,-347.28 480.81,-357.66 487.74,-356.71"/>
</g>
<!-- morph_grayords_wf_inputnode&#45;&gt;morph_grayords_wf_select_surfaces -->
<g id="edge6" class="edge">
<title>morph_grayords_wf_inputnode&#45;&gt;morph_grayords_wf_select_surfaces</title>
<path fill="none" stroke="black" d="M494.45,-383.41C497.94,-375.42 498.92,-365.64 497.39,-356.64"/>
<polygon fill="black" stroke="black" points="500.73,-355.6 494.61,-346.96 494.01,-357.53 500.73,-355.6"/>
</g>
<!-- morph_grayords_wf_inputnode&#45;&gt;morph_grayords_wf_select_surfaces -->
<g id="edge7" class="edge">
<title>morph_grayords_wf_inputnode&#45;&gt;morph_grayords_wf_select_surfaces</title>
<path fill="none" stroke="black" d="M505.65,-384.12C511.51,-375.64 513.03,-365.02 510.21,-355.43"/>
<polygon fill="black" stroke="black" points="513.35,-353.88 505.94,-346.31 507.01,-356.85 513.35,-353.88"/>
</g>
<!-- morph_grayords_wf_hemisource -->
<g id="node2" class="node">
<title>morph_grayords_wf_hemisource</title>
<polygon fill="#d9d9d9" stroke="black" points="740.59,-419 587.59,-419 583.59,-415 583.59,-383 736.59,-383 740.59,-387 740.59,-419"/>
<polyline fill="none" stroke="black" points="736.59,-415 583.59,-415 "/>
<polyline fill="none" stroke="black" points="736.59,-415 736.59,-383 "/>
<polyline fill="none" stroke="black" points="736.59,-415 740.59,-419 "/>
<text text-anchor="middle" x="662.09" y="-397.3" font-family="Times,serif" font-size="14.00">hemisource (utility)</text>
</g>
<!-- morph_grayords_wf_hemisource&#45;&gt;morph_grayords_wf_select_surfaces -->
<g id="edge8" class="edge">
<title>morph_grayords_wf_hemisource&#45;&gt;morph_grayords_wf_select_surfaces</title>
<path fill="none" stroke="black" d="M615.36,-382.88C587.68,-372.73 552.52,-359.85 523.84,-349.33"/>
<polygon fill="black" stroke="black" points="524.98,-346.02 514.39,-345.87 522.57,-352.6 524.98,-346.02"/>
</g>
<!-- morph_grayords_wf_resample_curv -->
<g id="node4" class="node">
<title>morph_grayords_wf_resample_curv</title>
<ellipse fill="#ffffc8" stroke="black" cx="139.09" cy="-257" rx="139.18" ry="18"/>
<text text-anchor="middle" x="139.09" y="-253.3" font-family="Times,serif" font-size="14.00">resample_curv (workbench)</text>
</g>
<!-- morph_grayords_wf_select_surfaces&#45;&gt;morph_grayords_wf_resample_curv -->
<g id="edge9" class="edge">
<title>morph_grayords_wf_select_surfaces&#45;&gt;morph_grayords_wf_resample_curv</title>
<path fill="none" stroke="black" d="M388.24,-316.05C327.99,-305.15 249.56,-288.89 196.03,-276.35"/>
<polygon fill="black" stroke="black" points="196.54,-272.88 186,-273.98 194.92,-279.69 196.54,-272.88"/>
</g>
<!-- morph_grayords_wf_select_surfaces&#45;&gt;morph_grayords_wf_resample_curv -->
<g id="edge10" class="edge">
<title>morph_grayords_wf_select_surfaces&#45;&gt;morph_grayords_wf_resample_curv</title>
<path fill="none" stroke="black" d="M394.1,-315.16C336.81,-304.11 260.02,-288.04 205.42,-275.76"/>
<polygon fill="black" stroke="black" points="206.02,-272.3 195.49,-273.51 204.47,-279.13 206.02,-272.3"/>
</g>
<!-- morph_grayords_wf_select_surfaces&#45;&gt;morph_grayords_wf_resample_curv -->
<g id="edge11" class="edge">
<title>morph_grayords_wf_select_surfaces&#45;&gt;morph_grayords_wf_resample_curv</title>
<path fill="none" stroke="black" d="M401.21,-314.42C346.38,-303.19 270.28,-287.17 214.16,-275.07"/>
<polygon fill="black" stroke="black" points="214.79,-271.63 204.28,-272.94 213.31,-278.47 214.79,-271.63"/>
</g>
<!-- morph_grayords_wf_select_surfaces&#45;&gt;morph_grayords_wf_resample_curv -->
<g id="edge12" class="edge">
<title>morph_grayords_wf_select_surfaces&#45;&gt;morph_grayords_wf_resample_curv</title>
<path fill="none" stroke="black" d="M408.67,-313.67C356,-302.25 280.24,-286.26 222.4,-274.34"/>
<polygon fill="black" stroke="black" points="223.05,-270.9 212.55,-272.32 221.64,-277.76 223.05,-270.9"/>
</g>
<!-- morph_grayords_wf_select_surfaces&#45;&gt;morph_grayords_wf_resample_curv -->
<g id="edge13" class="edge">
<title>morph_grayords_wf_select_surfaces&#45;&gt;morph_grayords_wf_resample_curv</title>
<path fill="none" stroke="black" d="M416.46,-312.9C365.66,-301.29 289.89,-285.3 230.11,-273.57"/>
<polygon fill="black" stroke="black" points="230.77,-270.13 220.28,-271.65 229.43,-277 230.77,-270.13"/>
</g>
<!-- morph_grayords_wf_select_surfaces&#45;&gt;morph_grayords_wf_resample_curv -->
<g id="edge14" class="edge">
<title>morph_grayords_wf_select_surfaces&#45;&gt;morph_grayords_wf_resample_curv</title>
<path fill="none" stroke="black" d="M425.28,-312.29C376.12,-300.47 299.6,-284.37 237.34,-272.78"/>
<polygon fill="black" stroke="black" points="237.94,-269.33 227.47,-270.96 236.67,-276.22 237.94,-269.33"/>
</g>
<!-- morph_grayords_wf_resample_sulc -->
<g id="node5" class="node">
<title>morph_grayords_wf_resample_sulc</title>
<ellipse fill="#ffffc8" stroke="black" cx="471.09" cy="-257" rx="137.28" ry="18"/>
<text text-anchor="middle" x="471.09" y="-253.3" font-family="Times,serif" font-size="14.00">resample_sulc (workbench)</text>
</g>
<!-- morph_grayords_wf_select_surfaces&#45;&gt;morph_grayords_wf_resample_sulc -->
<g id="edge16" class="edge">
<title>morph_grayords_wf_select_surfaces&#45;&gt;morph_grayords_wf_resample_sulc</title>
<path fill="none" stroke="black" d="M441.89,-311.41C437.48,-303.34 436.28,-293.43 438.27,-284.35"/>
<polygon fill="black" stroke="black" points="441.56,-285.55 441.69,-274.96 434.98,-283.16 441.56,-285.55"/>
</g>
<!-- morph_grayords_wf_select_surfaces&#45;&gt;morph_grayords_wf_resample_sulc -->
<g id="edge17" class="edge">
<title>morph_grayords_wf_select_surfaces&#45;&gt;morph_grayords_wf_resample_sulc</title>
<path fill="none" stroke="black" d="M453.45,-311.05C450.97,-303.26 450.26,-293.82 451.31,-285.08"/>
<polygon fill="black" stroke="black" points="454.74,-285.78 453.35,-275.28 447.88,-284.35 454.74,-285.78"/>
</g>
<!-- morph_grayords_wf_select_surfaces&#45;&gt;morph_grayords_wf_resample_sulc -->
<g id="edge18" class="edge">
<title>morph_grayords_wf_select_surfaces&#45;&gt;morph_grayords_wf_resample_sulc</title>
<path fill="none" stroke="black" d="M465.17,-310.7C464.38,-302.98 464.15,-293.71 464.49,-285.11"/>
<polygon fill="black" stroke="black" points="467.99,-285.32 465.19,-275.1 461,-284.84 467.99,-285.32"/>
</g>
<!-- morph_grayords_wf_select_surfaces&#45;&gt;morph_grayords_wf_resample_sulc -->
<g id="edge19" class="edge">
<title>morph_grayords_wf_select_surfaces&#45;&gt;morph_grayords_wf_resample_sulc</title>
<path fill="none" stroke="black" d="M477,-310.7C477.8,-302.98 478.03,-293.71 477.68,-285.11"/>
<polygon fill="black" stroke="black" points="481.17,-284.84 476.98,-275.1 474.19,-285.32 481.17,-284.84"/>
</g>
<!-- morph_grayords_wf_select_surfaces&#45;&gt;morph_grayords_wf_resample_sulc -->
<g id="edge20" class="edge">
<title>morph_grayords_wf_select_surfaces&#45;&gt;morph_grayords_wf_resample_sulc</title>
<path fill="none" stroke="black" d="M488.72,-311.05C491.2,-303.26 491.92,-293.82 490.87,-285.08"/>
<polygon fill="black" stroke="black" points="494.29,-284.35 488.83,-275.28 487.44,-285.78 494.29,-284.35"/>
</g>
<!-- morph_grayords_wf_select_surfaces&#45;&gt;morph_grayords_wf_resample_sulc -->
<g id="edge21" class="edge">
<title>morph_grayords_wf_select_surfaces&#45;&gt;morph_grayords_wf_resample_sulc</title>
<path fill="none" stroke="black" d="M500.29,-311.41C504.69,-303.34 505.9,-293.43 503.91,-284.35"/>
<polygon fill="black" stroke="black" points="507.19,-283.16 500.48,-274.96 500.62,-285.55 507.19,-283.16"/>
</g>
<!-- morph_grayords_wf_resample_thickness -->
<g id="node6" class="node">
<title>morph_grayords_wf_resample_thickness</title>
<ellipse fill="#ffffc8" stroke="black" cx="826.09" cy="-257" rx="162.47" ry="18"/>
<text text-anchor="middle" x="826.09" y="-253.3" font-family="Times,serif" font-size="14.00">resample_thickness (workbench)</text>
</g>
<!-- morph_grayords_wf_select_surfaces&#45;&gt;morph_grayords_wf_resample_thickness -->
<g id="edge23" class="edge">
<title>morph_grayords_wf_select_surfaces&#45;&gt;morph_grayords_wf_resample_thickness</title>
<path fill="none" stroke="black" d="M520.88,-312.55C573.07,-300.89 653.85,-284.97 719.85,-273.33"/>
<polygon fill="black" stroke="black" points="720.64,-276.75 729.89,-271.58 719.44,-269.85 720.64,-276.75"/>
</g>
<!-- morph_grayords_wf_select_surfaces&#45;&gt;morph_grayords_wf_resample_thickness -->
<g id="edge24" class="edge">
<title>morph_grayords_wf_select_surfaces&#45;&gt;morph_grayords_wf_resample_thickness</title>
<path fill="none" stroke="black" d="M529.06,-313.24C583.03,-301.74 663.72,-285.8 727.62,-274"/>
<polygon fill="black" stroke="black" points="728.53,-277.39 737.73,-272.14 727.26,-270.51 728.53,-277.39"/>
</g>
<!-- morph_grayords_wf_select_surfaces&#45;&gt;morph_grayords_wf_resample_thickness -->
<g id="edge25" class="edge">
<title>morph_grayords_wf_select_surfaces&#45;&gt;morph_grayords_wf_resample_thickness</title>
<path fill="none" stroke="black" d="M536.96,-313.92C592.9,-302.59 673.65,-286.65 735.63,-274.68"/>
<polygon fill="black" stroke="black" points="736.65,-278.05 745.8,-272.72 735.32,-271.18 736.65,-278.05"/>
</g>
<!-- morph_grayords_wf_select_surfaces&#45;&gt;morph_grayords_wf_resample_thickness -->
<g id="edge26" class="edge">
<title>morph_grayords_wf_select_surfaces&#45;&gt;morph_grayords_wf_resample_thickness</title>
<path fill="none" stroke="black" d="M544.13,-314.67C602.5,-303.47 684.18,-287.4 744.65,-275.22"/>
<polygon fill="black" stroke="black" points="745.43,-278.64 754.54,-273.23 744.04,-271.77 745.43,-278.64"/>
</g>
<!-- morph_grayords_wf_select_surfaces&#45;&gt;morph_grayords_wf_resample_thickness -->
<g id="edge27" class="edge">
<title>morph_grayords_wf_select_surfaces&#45;&gt;morph_grayords_wf_resample_thickness</title>
<path fill="none" stroke="black" d="M550.5,-315.49C611.58,-304.43 694.66,-288.17 753.87,-275.77"/>
<polygon fill="black" stroke="black" points="754.84,-279.14 763.9,-273.65 753.39,-272.29 754.84,-279.14"/>
</g>
<!-- morph_grayords_wf_select_surfaces&#45;&gt;morph_grayords_wf_resample_thickness -->
<g id="edge28" class="edge">
<title>morph_grayords_wf_select_surfaces&#45;&gt;morph_grayords_wf_resample_thickness</title>
<path fill="none" stroke="black" d="M556,-316.36C620.29,-305.43 705.5,-288.9 763.73,-276.22"/>
<polygon fill="black" stroke="black" points="764.54,-279.62 773.56,-274.06 763.04,-272.79 764.54,-279.62"/>
</g>
<!-- morph_grayords_wf_mask_curv -->
<g id="node7" class="node">
<title>morph_grayords_wf_mask_curv</title>
<ellipse fill="#ffffc8" stroke="black" cx="297.09" cy="-185" rx="120.48" ry="18"/>
<text text-anchor="middle" x="297.09" y="-181.3" font-family="Times,serif" font-size="14.00">mask_curv (workbench)</text>
</g>
<!-- morph_grayords_wf_select_surfaces&#45;&gt;morph_grayords_wf_mask_curv -->
<g id="edge15" class="edge">
<title>morph_grayords_wf_select_surfaces&#45;&gt;morph_grayords_wf_mask_curv</title>
<path fill="none" stroke="black" d="M396.05,-314.87C370.62,-307.07 343.92,-294.67 325.09,-275 309.11,-258.32 302.25,-232.61 299.3,-213.1"/>
<polygon fill="black" stroke="black" points="302.75,-212.49 298.03,-203 295.8,-213.36 302.75,-212.49"/>
</g>
<!-- morph_grayords_wf_mask_sulc -->
<g id="node8" class="node">
<title>morph_grayords_wf_mask_sulc</title>
<ellipse fill="#ffffc8" stroke="black" cx="554.09" cy="-185" rx="118.08" ry="18"/>
<text text-anchor="middle" x="554.09" y="-181.3" font-family="Times,serif" font-size="14.00">mask_sulc (workbench)</text>
</g>
<!-- morph_grayords_wf_select_surfaces&#45;&gt;morph_grayords_wf_mask_sulc -->
<g id="edge22" class="edge">
<title>morph_grayords_wf_select_surfaces&#45;&gt;morph_grayords_wf_mask_sulc</title>
<path fill="none" stroke="black" d="M555.01,-316.13C578.99,-308.42 602.54,-295.76 617.09,-275 626.27,-261.9 623.84,-253.51 617.09,-239 611.52,-227.04 601.77,-216.81 591.59,-208.62"/>
<polygon fill="black" stroke="black" points="593.5,-205.68 583.4,-202.5 589.31,-211.29 593.5,-205.68"/>
</g>
<!-- morph_grayords_wf_mask_thickness -->
<g id="node9" class="node">
<title>morph_grayords_wf_mask_thickness</title>
<ellipse fill="#ffffc8" stroke="black" cx="834.09" cy="-185" rx="143.77" ry="18"/>
<text text-anchor="middle" x="834.09" y="-181.3" font-family="Times,serif" font-size="14.00">mask_thickness (workbench)</text>
</g>
<!-- morph_grayords_wf_select_surfaces&#45;&gt;morph_grayords_wf_mask_thickness -->
<g id="edge29" class="edge">
<title>morph_grayords_wf_select_surfaces&#45;&gt;morph_grayords_wf_mask_thickness</title>
<path fill="none" stroke="black" d="M586.4,-324.43C732.89,-318.69 970.08,-304.87 997.09,-275 1027.94,-240.88 973.77,-217.15 919.76,-202.82"/>
<polygon fill="black" stroke="black" points="920.61,-199.42 910.06,-200.34 918.88,-206.21 920.61,-199.42"/>
</g>
<!-- morph_grayords_wf_resample_curv&#45;&gt;morph_grayords_wf_mask_curv -->
<g id="edge30" class="edge">
<title>morph_grayords_wf_resample_curv&#45;&gt;morph_grayords_wf_mask_curv</title>
<path fill="none" stroke="black" d="M176.13,-239.59C198.6,-229.63 227.44,-216.86 251.33,-206.27"/>
<polygon fill="black" stroke="black" points="252.82,-209.44 260.55,-202.19 249.99,-203.04 252.82,-209.44"/>
</g>
<!-- morph_grayords_wf_resample_sulc&#45;&gt;morph_grayords_wf_mask_sulc -->
<g id="edge31" class="edge">
<title>morph_grayords_wf_resample_sulc&#45;&gt;morph_grayords_wf_mask_sulc</title>
<path fill="none" stroke="black" d="M491.18,-239.05C501.78,-230.11 514.95,-219.01 526.5,-209.27"/>
<polygon fill="black" stroke="black" points="528.79,-211.91 534.18,-202.79 524.28,-206.56 528.79,-211.91"/>
</g>
<!-- morph_grayords_wf_resample_thickness&#45;&gt;morph_grayords_wf_mask_thickness -->
<g id="edge32" class="edge">
<title>morph_grayords_wf_resample_thickness&#45;&gt;morph_grayords_wf_mask_thickness</title>
<path fill="none" stroke="black" d="M828.07,-238.7C828.95,-230.98 830.01,-221.71 830.99,-213.11"/>
<polygon fill="black" stroke="black" points="834.47,-213.44 832.13,-203.1 827.52,-212.64 834.47,-213.44"/>
</g>
<!-- morph_grayords_wf_cifti_curv -->
<g id="node10" class="node">
<title>morph_grayords_wf_cifti_curv</title>
<ellipse fill="#ffffc8" stroke="black" cx="375.09" cy="-113" rx="81.49" ry="18"/>
<text text-anchor="middle" x="375.09" y="-109.3" font-family="Times,serif" font-size="14.00">cifti_curv (cifti)</text>
</g>
<!-- morph_grayords_wf_mask_curv&#45;&gt;morph_grayords_wf_cifti_curv -->
<g id="edge33" class="edge">
<title>morph_grayords_wf_mask_curv&#45;&gt;morph_grayords_wf_cifti_curv</title>
<path fill="none" stroke="black" d="M315.97,-167.05C325.91,-158.13 338.25,-147.06 349.08,-137.34"/>
<polygon fill="black" stroke="black" points="351.54,-139.83 356.65,-130.55 346.87,-134.62 351.54,-139.83"/>
</g>
<!-- morph_grayords_wf_cifti_sulc -->
<g id="node11" class="node">
<title>morph_grayords_wf_cifti_sulc</title>
<ellipse fill="#ffffc8" stroke="black" cx="554.09" cy="-113" rx="79.09" ry="18"/>
<text text-anchor="middle" x="554.09" y="-109.3" font-family="Times,serif" font-size="14.00">cifti_sulc (cifti)</text>
</g>
<!-- morph_grayords_wf_mask_sulc&#45;&gt;morph_grayords_wf_cifti_sulc -->
<g id="edge34" class="edge">
<title>morph_grayords_wf_mask_sulc&#45;&gt;morph_grayords_wf_cifti_sulc</title>
<path fill="none" stroke="black" d="M554.09,-166.7C554.09,-158.98 554.09,-149.71 554.09,-141.11"/>
<polygon fill="black" stroke="black" points="557.59,-141.1 554.09,-131.1 550.59,-141.1 557.59,-141.1"/>
</g>
<!-- morph_grayords_wf_cifti_thickness -->
<g id="node12" class="node">
<title>morph_grayords_wf_cifti_thickness</title>
<ellipse fill="#ffffc8" stroke="black" cx="756.09" cy="-113" rx="104.78" ry="18"/>
<text text-anchor="middle" x="756.09" y="-109.3" font-family="Times,serif" font-size="14.00">cifti_thickness (cifti)</text>
</g>
<!-- morph_grayords_wf_mask_thickness&#45;&gt;morph_grayords_wf_cifti_thickness -->
<g id="edge35" class="edge">
<title>morph_grayords_wf_mask_thickness&#45;&gt;morph_grayords_wf_cifti_thickness</title>
<path fill="none" stroke="black" d="M815.21,-167.05C805.34,-158.2 793.1,-147.22 782.33,-137.55"/>
<polygon fill="black" stroke="black" points="784.58,-134.86 774.8,-130.79 779.9,-140.07 784.58,-134.86"/>
</g>
<!-- morph_grayords_wf_outputnode -->
<g id="node13" class="node">
<title>morph_grayords_wf_outputnode</title>
<ellipse fill="#ffffc8" stroke="black" cx="554.09" cy="-41" rx="101.28" ry="18"/>
<text text-anchor="middle" x="554.09" y="-37.3" font-family="Times,serif" font-size="14.00">outputnode (utility)</text>
</g>
<!-- morph_grayords_wf_cifti_curv&#45;&gt;morph_grayords_wf_outputnode -->
<g id="edge36" class="edge">
<title>morph_grayords_wf_cifti_curv&#45;&gt;morph_grayords_wf_outputnode</title>
<path fill="none" stroke="black" d="M409.09,-96.46C434.8,-85.92 470.47,-71.93 500.04,-60.77"/>
<polygon fill="black" stroke="black" points="501.27,-64.04 509.4,-57.25 498.81,-57.49 501.27,-64.04"/>
</g>
<!-- morph_grayords_wf_cifti_curv&#45;&gt;morph_grayords_wf_outputnode -->
<g id="edge37" class="edge">
<title>morph_grayords_wf_cifti_curv&#45;&gt;morph_grayords_wf_outputnode</title>
<path fill="none" stroke="black" d="M417.77,-97.5C445.48,-87.18 481.43,-73.19 509.5,-61.84"/>
<polygon fill="black" stroke="black" points="511.13,-64.96 519.07,-57.95 508.49,-58.48 511.13,-64.96"/>
</g>
<!-- morph_grayords_wf_cifti_sulc&#45;&gt;morph_grayords_wf_outputnode -->
<g id="edge38" class="edge">
<title>morph_grayords_wf_cifti_sulc&#45;&gt;morph_grayords_wf_outputnode</title>
<path fill="none" stroke="black" d="M548.17,-94.7C547.38,-86.98 547.15,-77.71 547.49,-69.11"/>
<polygon fill="black" stroke="black" points="550.99,-69.32 548.19,-59.1 544,-68.84 550.99,-69.32"/>
</g>
<!-- morph_grayords_wf_cifti_sulc&#45;&gt;morph_grayords_wf_outputnode -->
<g id="edge39" class="edge">
<title>morph_grayords_wf_cifti_sulc&#45;&gt;morph_grayords_wf_outputnode</title>
<path fill="none" stroke="black" d="M560,-94.7C560.8,-86.98 561.03,-77.71 560.68,-69.11"/>
<polygon fill="black" stroke="black" points="564.17,-68.84 559.98,-59.1 557.19,-69.32 564.17,-68.84"/>
</g>
<!-- morph_grayords_wf_cifti_thickness&#45;&gt;morph_grayords_wf_outputnode -->
<g id="edge40" class="edge">
<title>morph_grayords_wf_cifti_thickness&#45;&gt;morph_grayords_wf_outputnode</title>
<path fill="none" stroke="black" d="M707.35,-97.07C675.7,-86.55 634.67,-72.39 602.99,-61.05"/>
<polygon fill="black" stroke="black" points="604.07,-57.72 593.48,-57.64 601.7,-64.31 604.07,-57.72"/>
</g>
<!-- morph_grayords_wf_cifti_thickness&#45;&gt;morph_grayords_wf_outputnode -->
<g id="edge41" class="edge">
<title>morph_grayords_wf_cifti_thickness&#45;&gt;morph_grayords_wf_outputnode</title>
<path fill="none" stroke="black" d="M716.5,-96.29C686.73,-85.54 645.61,-71.26 612.15,-60.04"/>
<polygon fill="black" stroke="black" points="613.08,-56.66 602.48,-56.82 610.86,-63.3 613.08,-56.66"/>
</g>
</g>
</svg>
