<?xml version="1.0" encoding="UTF-8" standalone="no"?>
<!DOCTYPE svg PUBLIC "-//W3C//DTD SVG 1.1//EN"
 "http://www.w3.org/Graphics/SVG/1.1/DTD/svg11.dtd">
<!-- Generated by graphviz version 2.43.0 (0)
 -->
<!-- Title: structs Pages: 1 -->
<svg width="2443pt" height="1132pt"
 viewBox="0.00 0.00 2443.46 1132.00" xmlns="http://www.w3.org/2000/svg" xmlns:xlink="http://www.w3.org/1999/xlink">
<g id="graph0" class="graph" transform="scale(1 1) rotate(0) translate(4 1128)">
<title>structs</title>
<polygon fill="white" stroke="transparent" points="-4,4 -4,-1128 2439.46,-1128 2439.46,4 -4,4"/>
<!-- anat_preproc_wfinputnode -->
<g id="node1" class="node">
<title>anat_preproc_wfinputnode</title>
<polygon fill="none" stroke="black" points="341.46,-962.5 341.46,-1123.5 567.46,-1123.5 567.46,-962.5 341.46,-962.5"/>
<text text-anchor="middle" x="358.46" y="-1039.3" font-family="Times,serif" font-size="14.00">IN</text>
<polyline fill="none" stroke="black" points="375.46,-962.5 375.46,-1123.5 "/>
<text text-anchor="middle" x="419.96" y="-1093.3" font-family="Times,serif" font-size="14.00">inputnode</text>
<polyline fill="none" stroke="black" points="375.46,-1070.5 464.46,-1070.5 "/>
<text text-anchor="middle" x="419.96" y="-1039.8" font-family="Times,serif" font-size="14.00">utility</text>
<polyline fill="none" stroke="black" points="375.46,-1016.5 464.46,-1016.5 "/>
<text text-anchor="middle" x="419.96" y="-985.8" font-family="Times,serif" font-size="14.00"> </text>
<polyline fill="none" stroke="black" points="464.46,-962.5 464.46,-1123.5 "/>
<text text-anchor="middle" x="515.96" y="-1108.3" font-family="Times,serif" font-size="14.00">OUT</text>
<polyline fill="none" stroke="black" points="464.46,-1100.5 567.46,-1100.5 "/>
<text text-anchor="middle" x="515.96" y="-1085.3" font-family="Times,serif" font-size="14.00">flair</text>
<polyline fill="none" stroke="black" points="464.46,-1077.5 567.46,-1077.5 "/>
<text text-anchor="middle" x="515.96" y="-1062.3" font-family="Times,serif" font-size="14.00">roi</text>
<polyline fill="none" stroke="black" points="464.46,-1054.5 567.46,-1054.5 "/>
<text text-anchor="middle" x="515.96" y="-1039.3" font-family="Times,serif" font-size="14.00">subject_id</text>
<polyline fill="none" stroke="black" points="464.46,-1031.5 567.46,-1031.5 "/>
<text text-anchor="middle" x="515.96" y="-1016.3" font-family="Times,serif" font-size="14.00">subjects_dir</text>
<polyline fill="none" stroke="black" points="464.46,-1008.5 567.46,-1008.5 "/>
<text text-anchor="middle" x="515.96" y="-993.3" font-family="Times,serif" font-size="14.00">t1w</text>
<polyline fill="none" stroke="black" points="464.46,-985.5 567.46,-985.5 "/>
<text text-anchor="middle" x="515.96" y="-970.3" font-family="Times,serif" font-size="14.00">t2w</text>
</g>
<!-- anat_preproc_wfanat_fit_wf -->
<g id="node2" class="node">
<title>anat_preproc_wfanat_fit_wf</title>
<polygon fill="none" stroke="black" points="567.96,-580.5 567.96,-925.5 1070.96,-925.5 1070.96,-580.5 567.96,-580.5"/>
<text text-anchor="middle" x="657.46" y="-897.3" font-family="Times,serif" font-size="14.00">IN</text>
<polyline fill="none" stroke="black" points="567.96,-876.5 746.96,-876.5 "/>
<text text-anchor="middle" x="657.46" y="-848.3" font-family="Times,serif" font-size="14.00">inputnode.flair</text>
<polyline fill="none" stroke="black" points="567.96,-827.5 746.96,-827.5 "/>
<text text-anchor="middle" x="657.46" y="-799.3" font-family="Times,serif" font-size="14.00">inputnode.roi</text>
<polyline fill="none" stroke="black" points="567.96,-778.5 746.96,-778.5 "/>
<text text-anchor="middle" x="657.46" y="-749.8" font-family="Times,serif" font-size="14.00">inputnode.subject_id</text>
<polyline fill="none" stroke="black" points="567.96,-728.5 746.96,-728.5 "/>
<text text-anchor="middle" x="657.46" y="-700.3" font-family="Times,serif" font-size="14.00">inputnode.subjects_dir</text>
<polyline fill="none" stroke="black" points="567.96,-679.5 746.96,-679.5 "/>
<text text-anchor="middle" x="657.46" y="-651.3" font-family="Times,serif" font-size="14.00">inputnode.t1w</text>
<polyline fill="none" stroke="black" points="567.96,-630.5 746.96,-630.5 "/>
<text text-anchor="middle" x="657.46" y="-601.8" font-family="Times,serif" font-size="14.00">inputnode.t2w</text>
<polyline fill="none" stroke="black" points="746.96,-580.5 746.96,-925.5 "/>
<text text-anchor="middle" x="793.96" y="-864.3" font-family="Times,serif" font-size="14.00">anat_fit_wf</text>
<polyline fill="none" stroke="black" points="746.96,-810.5 840.96,-810.5 "/>
<text text-anchor="middle" x="793.96" y="-749.3" font-family="Times,serif" font-size="14.00"> </text>
<polyline fill="none" stroke="black" points="746.96,-695.5 840.96,-695.5 "/>
<text text-anchor="middle" x="793.96" y="-634.3" font-family="Times,serif" font-size="14.00"> </text>
<polyline fill="none" stroke="black" points="840.96,-580.5 840.96,-925.5 "/>
<text text-anchor="middle" x="955.96" y="-910.3" font-family="Times,serif" font-size="14.00">OUT</text>
<polyline fill="none" stroke="black" points="840.96,-902.5 1070.96,-902.5 "/>
<text text-anchor="middle" x="955.96" y="-887.3" font-family="Times,serif" font-size="14.00">outputnode.anat2std_xfm</text>
<polyline fill="none" stroke="black" points="840.96,-879.5 1070.96,-879.5 "/>
<text text-anchor="middle" x="955.96" y="-864.3" font-family="Times,serif" font-size="14.00">outputnode.anat_ribbon</text>
<polyline fill="none" stroke="black" points="840.96,-856.5 1070.96,-856.5 "/>
<text text-anchor="middle" x="955.96" y="-841.3" font-family="Times,serif" font-size="14.00">outputnode.fsnative2t1w_xfm</text>
<polyline fill="none" stroke="black" points="840.96,-833.5 1070.96,-833.5 "/>
<text text-anchor="middle" x="955.96" y="-818.3" font-family="Times,serif" font-size="14.00">outputnode.sphere_reg</text>
<polyline fill="none" stroke="black" points="840.96,-810.5 1070.96,-810.5 "/>
<text text-anchor="middle" x="955.96" y="-795.3" font-family="Times,serif" font-size="14.00">outputnode.sphere_reg_fsLR</text>
<polyline fill="none" stroke="black" points="840.96,-787.5 1070.96,-787.5 "/>
<text text-anchor="middle" x="955.96" y="-772.3" font-family="Times,serif" font-size="14.00">outputnode.std2anat_xfm</text>
<polyline fill="none" stroke="black" points="840.96,-764.5 1070.96,-764.5 "/>
<text text-anchor="middle" x="955.96" y="-749.3" font-family="Times,serif" font-size="14.00">outputnode.subject_id</text>
<polyline fill="none" stroke="black" points="840.96,-741.5 1070.96,-741.5 "/>
<text text-anchor="middle" x="955.96" y="-726.3" font-family="Times,serif" font-size="14.00">outputnode.subjects_dir</text>
<polyline fill="none" stroke="black" points="840.96,-718.5 1070.96,-718.5 "/>
<text text-anchor="middle" x="955.96" y="-703.3" font-family="Times,serif" font-size="14.00">outputnode.t1w_dseg</text>
<polyline fill="none" stroke="black" points="840.96,-695.5 1070.96,-695.5 "/>
<text text-anchor="middle" x="955.96" y="-680.3" font-family="Times,serif" font-size="14.00">outputnode.t1w_mask</text>
<polyline fill="none" stroke="black" points="840.96,-672.5 1070.96,-672.5 "/>
<text text-anchor="middle" x="955.96" y="-657.3" font-family="Times,serif" font-size="14.00">outputnode.t1w_preproc</text>
<polyline fill="none" stroke="black" points="840.96,-649.5 1070.96,-649.5 "/>
<text text-anchor="middle" x="955.96" y="-634.3" font-family="Times,serif" font-size="14.00">outputnode.t1w_tpms</text>
<polyline fill="none" stroke="black" points="840.96,-626.5 1070.96,-626.5 "/>
<text text-anchor="middle" x="955.96" y="-611.3" font-family="Times,serif" font-size="14.00">outputnode.t1w_valid_list</text>
<polyline fill="none" stroke="black" points="840.96,-603.5 1070.96,-603.5 "/>
<text text-anchor="middle" x="955.96" y="-588.3" font-family="Times,serif" font-size="14.00">outputnode.template</text>
</g>
<!-- anat_preproc_wfinputnode&#45;&gt;anat_preproc_wfanat_fit_wf -->
<g id="edge28" class="edge">
<title>anat_preproc_wfinputnode:e&#45;&gt;anat_preproc_wfanat_fit_wf:w</title>
<path fill="none" stroke="black" d="M568.46,-1089C624.91,-1089 567.94,-1018.44 567.46,-962 567.08,-917.12 525.36,-861.94 556.34,-853.19"/>
<polygon fill="black" stroke="black" points="556.94,-856.65 566.46,-852 556.12,-849.69 556.94,-856.65"/>
</g>
<!-- anat_preproc_wfinputnode&#45;&gt;anat_preproc_wfanat_fit_wf -->
<g id="edge29" class="edge">
<title>anat_preproc_wfinputnode:e&#45;&gt;anat_preproc_wfanat_fit_wf:w</title>
<path fill="none" stroke="black" d="M568.46,-1066C681.59,-1066 464.4,-819.68 556.24,-803.8"/>
<polygon fill="black" stroke="black" points="556.77,-807.27 566.46,-803 556.22,-800.29 556.77,-807.27"/>
</g>
<!-- anat_preproc_wfinputnode&#45;&gt;anat_preproc_wfanat_fit_wf -->
<g id="edge30" class="edge">
<title>anat_preproc_wfinputnode:e&#45;&gt;anat_preproc_wfanat_fit_wf:w</title>
<path fill="none" stroke="black" d="M568.46,-1043C620.47,-1043 567.84,-978 567.46,-926 566.94,-853.29 497.35,-763.29 556.34,-754.67"/>
<polygon fill="black" stroke="black" points="556.72,-758.15 566.46,-754 556.25,-751.17 556.72,-758.15"/>
</g>
<!-- anat_preproc_wfinputnode&#45;&gt;anat_preproc_wfanat_fit_wf -->
<g id="edge31" class="edge">
<title>anat_preproc_wfinputnode:e&#45;&gt;anat_preproc_wfanat_fit_wf:w</title>
<path fill="none" stroke="black" d="M568.46,-1020C610.24,-1020 567.78,-967.78 567.46,-926 566.74,-831 475,-713.12 556.28,-704.5"/>
<polygon fill="black" stroke="black" points="556.65,-707.99 566.46,-704 556.3,-701 556.65,-707.99"/>
</g>
<!-- anat_preproc_wfinputnode&#45;&gt;anat_preproc_wfanat_fit_wf -->
<g id="edge32" class="edge">
<title>anat_preproc_wfinputnode:e&#45;&gt;anat_preproc_wfanat_fit_wf:w</title>
<path fill="none" stroke="black" d="M568.46,-997C600.02,-997 567.74,-957.56 567.46,-926 566.43,-809.21 453.2,-664.09 556.18,-655.41"/>
<polygon fill="black" stroke="black" points="556.61,-658.89 566.46,-655 556.33,-651.9 556.61,-658.89"/>
</g>
<!-- anat_preproc_wfinputnode&#45;&gt;anat_preproc_wfanat_fit_wf -->
<g id="edge33" class="edge">
<title>anat_preproc_wfinputnode:e&#45;&gt;anat_preproc_wfanat_fit_wf:w</title>
<path fill="none" stroke="black" d="M568.46,-974C589.8,-974 567.72,-947.34 567.46,-926 565.8,-786.97 430.91,-614.03 556.14,-605.34"/>
<polygon fill="black" stroke="black" points="556.58,-608.83 566.46,-605 556.35,-601.83 556.58,-608.83"/>
</g>
<!-- anat_preproc_wftemplate_iterator_wf -->
<g id="node3" class="node">
<title>anat_preproc_wftemplate_iterator_wf</title>
<polygon fill="none" stroke="black" points="1479.46,-405.5 1479.46,-543.5 2035.46,-543.5 2035.46,-405.5 1479.46,-405.5"/>
<text text-anchor="middle" x="1574.46" y="-516.8" font-family="Times,serif" font-size="14.00">IN</text>
<polyline fill="none" stroke="black" points="1479.46,-497.5 1669.46,-497.5 "/>
<text text-anchor="middle" x="1574.46" y="-470.8" font-family="Times,serif" font-size="14.00">inputnode.anat2std_xfm</text>
<polyline fill="none" stroke="black" points="1479.46,-451.5 1669.46,-451.5 "/>
<text text-anchor="middle" x="1574.46" y="-424.8" font-family="Times,serif" font-size="14.00">inputnode.template</text>
<polyline fill="none" stroke="black" points="1669.46,-405.5 1669.46,-543.5 "/>
<text text-anchor="middle" x="1752.46" y="-516.8" font-family="Times,serif" font-size="14.00">template_iterator_wf</text>
<polyline fill="none" stroke="black" points="1669.46,-497.5 1835.46,-497.5 "/>
<text text-anchor="middle" x="1752.46" y="-470.8" font-family="Times,serif" font-size="14.00"> </text>
<polyline fill="none" stroke="black" points="1669.46,-451.5 1835.46,-451.5 "/>
<text text-anchor="middle" x="1752.46" y="-424.8" font-family="Times,serif" font-size="14.00"> </text>
<polyline fill="none" stroke="black" points="1835.46,-405.5 1835.46,-543.5 "/>
<text text-anchor="middle" x="1935.46" y="-528.3" font-family="Times,serif" font-size="14.00">OUT</text>
<polyline fill="none" stroke="black" points="1835.46,-520.5 2035.46,-520.5 "/>
<text text-anchor="middle" x="1935.46" y="-505.3" font-family="Times,serif" font-size="14.00">outputnode.anat2std_xfm</text>
<polyline fill="none" stroke="black" points="1835.46,-497.5 2035.46,-497.5 "/>
<text text-anchor="middle" x="1935.46" y="-482.3" font-family="Times,serif" font-size="14.00">outputnode.cohort</text>
<polyline fill="none" stroke="black" points="1835.46,-474.5 2035.46,-474.5 "/>
<text text-anchor="middle" x="1935.46" y="-459.3" font-family="Times,serif" font-size="14.00">outputnode.resolution</text>
<polyline fill="none" stroke="black" points="1835.46,-451.5 2035.46,-451.5 "/>
<text text-anchor="middle" x="1935.46" y="-436.3" font-family="Times,serif" font-size="14.00">outputnode.space</text>
<polyline fill="none" stroke="black" points="1835.46,-428.5 2035.46,-428.5 "/>
<text text-anchor="middle" x="1935.46" y="-413.3" font-family="Times,serif" font-size="14.00">outputnode.std_t1w</text>
</g>
<!-- anat_preproc_wfanat_fit_wf&#45;&gt;anat_preproc_wftemplate_iterator_wf -->
<g id="edge2" class="edge">
<title>anat_preproc_wfanat_fit_wf:e&#45;&gt;anat_preproc_wftemplate_iterator_wf:w</title>
<path fill="none" stroke="black" d="M1072.46,-891C1305.47,-891 1350.46,-746.65 1465.46,-544 1471.46,-533.43 1466.56,-497.64 1471.3,-481.96"/>
<polygon fill="black" stroke="black" points="1474.06,-484.14 1478.46,-474.5 1469.01,-479.29 1474.06,-484.14"/>
</g>
<!-- anat_preproc_wfanat_fit_wf&#45;&gt;anat_preproc_wftemplate_iterator_wf -->
<g id="edge27" class="edge">
<title>anat_preproc_wfanat_fit_wf:e&#45;&gt;anat_preproc_wftemplate_iterator_wf:w</title>
<path fill="none" stroke="black" d="M1072.46,-592C1116.45,-592 1434.5,-575.25 1465.46,-544 1480.87,-528.45 1460.94,-456.27 1470.24,-434.64"/>
<polygon fill="black" stroke="black" points="1472.55,-437.29 1478.46,-428.5 1468.36,-431.68 1472.55,-437.29"/>
</g>
<!-- anat_preproc_wfsurface_derivatives_wf -->
<g id="node4" class="node">
<title>anat_preproc_wfsurface_derivatives_wf</title>
<polygon fill="none" stroke="black" points="239.46,-417 239.46,-532 815.46,-532 815.46,-417 239.46,-417"/>
<text text-anchor="middle" x="351.46" y="-516.8" font-family="Times,serif" font-size="14.00">IN</text>
<polyline fill="none" stroke="black" points="239.46,-509 463.46,-509 "/>
<text text-anchor="middle" x="351.46" y="-493.8" font-family="Times,serif" font-size="14.00">inputnode.fsnative2anat_xfm</text>
<polyline fill="none" stroke="black" points="239.46,-486 463.46,-486 "/>
<text text-anchor="middle" x="351.46" y="-470.8" font-family="Times,serif" font-size="14.00">inputnode.reference</text>
<polyline fill="none" stroke="black" points="239.46,-463 463.46,-463 "/>
<text text-anchor="middle" x="351.46" y="-447.8" font-family="Times,serif" font-size="14.00">inputnode.subject_id</text>
<polyline fill="none" stroke="black" points="239.46,-440 463.46,-440 "/>
<text text-anchor="middle" x="351.46" y="-424.8" font-family="Times,serif" font-size="14.00">inputnode.subjects_dir</text>
<polyline fill="none" stroke="black" points="463.46,-417 463.46,-532 "/>
<text text-anchor="middle" x="552.96" y="-509.3" font-family="Times,serif" font-size="14.00">surface_derivatives_wf</text>
<polyline fill="none" stroke="black" points="463.46,-494 642.46,-494 "/>
<text text-anchor="middle" x="552.96" y="-471.3" font-family="Times,serif" font-size="14.00"> </text>
<polyline fill="none" stroke="black" points="463.46,-456 642.46,-456 "/>
<text text-anchor="middle" x="552.96" y="-432.8" font-family="Times,serif" font-size="14.00"> </text>
<polyline fill="none" stroke="black" points="642.46,-417 642.46,-532 "/>
<text text-anchor="middle" x="728.96" y="-516.8" font-family="Times,serif" font-size="14.00">OUT</text>
<polyline fill="none" stroke="black" points="642.46,-509 815.46,-509 "/>
<text text-anchor="middle" x="728.96" y="-493.8" font-family="Times,serif" font-size="14.00">outputnode.curv</text>
<polyline fill="none" stroke="black" points="642.46,-486 815.46,-486 "/>
<text text-anchor="middle" x="728.96" y="-470.8" font-family="Times,serif" font-size="14.00">outputnode.inflated</text>
<polyline fill="none" stroke="black" points="642.46,-463 815.46,-463 "/>
<text text-anchor="middle" x="728.96" y="-447.8" font-family="Times,serif" font-size="14.00">outputnode.out_aparc</text>
<polyline fill="none" stroke="black" points="642.46,-440 815.46,-440 "/>
<text text-anchor="middle" x="728.96" y="-424.8" font-family="Times,serif" font-size="14.00">outputnode.out_aseg</text>
</g>
<!-- anat_preproc_wfanat_fit_wf&#45;&gt;anat_preproc_wfsurface_derivatives_wf -->
<g id="edge5" class="edge">
<title>anat_preproc_wfanat_fit_wf:e&#45;&gt;anat_preproc_wfsurface_derivatives_wf:w</title>
<path fill="none" stroke="black" d="M1072.46,-845C1190.24,-845 1152.5,-665.47 1071.46,-580 1007.76,-512.81 304,-598.9 239.46,-532.5 231.84,-524.65 226.75,-510.54 229.81,-502.85"/>
<polygon fill="black" stroke="black" points="231.8,-505.73 238.46,-497.5 228.12,-499.78 231.8,-505.73"/>
</g>
<!-- anat_preproc_wfanat_fit_wf&#45;&gt;anat_preproc_wfsurface_derivatives_wf -->
<g id="edge10" class="edge">
<title>anat_preproc_wfanat_fit_wf:e&#45;&gt;anat_preproc_wfsurface_derivatives_wf:w</title>
<path fill="none" stroke="black" d="M1072.46,-753C1149.35,-753 1124.42,-635.74 1071.46,-580 1007.69,-512.87 303.46,-599.42 239.46,-532.5 229.4,-521.98 223.19,-475.51 230.7,-458.11"/>
<polygon fill="black" stroke="black" points="233.12,-460.65 238.46,-451.5 228.58,-455.32 233.12,-460.65"/>
</g>
<!-- anat_preproc_wfanat_fit_wf&#45;&gt;anat_preproc_wfsurface_derivatives_wf -->
<g id="edge12" class="edge">
<title>anat_preproc_wfanat_fit_wf:e&#45;&gt;anat_preproc_wfsurface_derivatives_wf:w</title>
<path fill="none" stroke="black" d="M1072.46,-730C1139.13,-730 1117.4,-628.31 1071.46,-580 1007.66,-512.9 303.37,-599.51 239.46,-532.5 232.98,-525.71 228.74,-461.3 233.58,-437.38"/>
<polygon fill="black" stroke="black" points="236.71,-438.95 238.46,-428.5 230.58,-435.58 236.71,-438.95"/>
</g>
<!-- anat_preproc_wfanat_fit_wf&#45;&gt;anat_preproc_wfsurface_derivatives_wf -->
<g id="edge19" class="edge">
<title>anat_preproc_wfanat_fit_wf:e&#45;&gt;anat_preproc_wfsurface_derivatives_wf:w</title>
<path fill="none" stroke="black" d="M1072.46,-661C1108.47,-661 1096.35,-606.02 1071.46,-580 1007.47,-513.08 303.62,-599.26 239.46,-532.5 232.76,-525.53 228.3,-496.39 231.93,-482.26"/>
<polygon fill="black" stroke="black" points="234.69,-484.4 238.46,-474.5 229.34,-479.89 234.69,-484.4"/>
</g>
<!-- anat_preproc_wfds_anat_volumes_wf -->
<g id="node5" class="node">
<title>anat_preproc_wfds_anat_volumes_wf</title>
<polygon fill="none" stroke="black" points="2035.46,-58 2035.46,-311 2435.46,-311 2435.46,-58 2035.46,-58"/>
<text text-anchor="middle" x="2130.46" y="-295.8" font-family="Times,serif" font-size="14.00">IN</text>
<polyline fill="none" stroke="black" points="2035.46,-288 2225.46,-288 "/>
<text text-anchor="middle" x="2130.46" y="-272.8" font-family="Times,serif" font-size="14.00">inputnode.anat2std_xfm</text>
<polyline fill="none" stroke="black" points="2035.46,-265 2225.46,-265 "/>
<text text-anchor="middle" x="2130.46" y="-249.8" font-family="Times,serif" font-size="14.00">inputnode.anat_dseg</text>
<polyline fill="none" stroke="black" points="2035.46,-242 2225.46,-242 "/>
<text text-anchor="middle" x="2130.46" y="-226.8" font-family="Times,serif" font-size="14.00">inputnode.anat_mask</text>
<polyline fill="none" stroke="black" points="2035.46,-219 2225.46,-219 "/>
<text text-anchor="middle" x="2130.46" y="-203.8" font-family="Times,serif" font-size="14.00">inputnode.anat_preproc</text>
<polyline fill="none" stroke="black" points="2035.46,-196 2225.46,-196 "/>
<text text-anchor="middle" x="2130.46" y="-180.8" font-family="Times,serif" font-size="14.00">inputnode.anat_tpms</text>
<polyline fill="none" stroke="black" points="2035.46,-173 2225.46,-173 "/>
<text text-anchor="middle" x="2130.46" y="-157.8" font-family="Times,serif" font-size="14.00">inputnode.cohort</text>
<polyline fill="none" stroke="black" points="2035.46,-150 2225.46,-150 "/>
<text text-anchor="middle" x="2130.46" y="-134.8" font-family="Times,serif" font-size="14.00">inputnode.ref_file</text>
<polyline fill="none" stroke="black" points="2035.46,-127 2225.46,-127 "/>
<text text-anchor="middle" x="2130.46" y="-111.8" font-family="Times,serif" font-size="14.00">inputnode.resolution</text>
<polyline fill="none" stroke="black" points="2035.46,-104 2225.46,-104 "/>
<text text-anchor="middle" x="2130.46" y="-88.8" font-family="Times,serif" font-size="14.00">inputnode.source_files</text>
<polyline fill="none" stroke="black" points="2035.46,-81 2225.46,-81 "/>
<text text-anchor="middle" x="2130.46" y="-65.8" font-family="Times,serif" font-size="14.00">inputnode.space</text>
<polyline fill="none" stroke="black" points="2225.46,-58 2225.46,-311 "/>
<text text-anchor="middle" x="2305.96" y="-265.3" font-family="Times,serif" font-size="14.00">ds_anat_volumes_wf</text>
<polyline fill="none" stroke="black" points="2225.46,-227 2386.46,-227 "/>
<text text-anchor="middle" x="2305.96" y="-181.3" font-family="Times,serif" font-size="14.00"> </text>
<polyline fill="none" stroke="black" points="2225.46,-143 2386.46,-143 "/>
<text text-anchor="middle" x="2305.96" y="-96.8" font-family="Times,serif" font-size="14.00"> </text>
<polyline fill="none" stroke="black" points="2386.46,-58 2386.46,-311 "/>
<text text-anchor="middle" x="2410.96" y="-180.8" font-family="Times,serif" font-size="14.00">OUT</text>
</g>
<!-- anat_preproc_wfanat_fit_wf&#45;&gt;anat_preproc_wfds_anat_volumes_wf -->
<g id="edge13" class="edge">
<title>anat_preproc_wfanat_fit_wf:e&#45;&gt;anat_preproc_wfds_anat_volumes_wf:w</title>
<path fill="none" stroke="black" d="M1072.46,-707C1258.24,-707 1201.73,-499.87 1361.46,-405 1490.44,-328.4 1864.62,-256.65 2024.26,-253.6"/>
<polygon fill="black" stroke="black" points="2024.5,-257.1 2034.46,-253.5 2024.43,-250.1 2024.5,-257.1"/>
</g>
<!-- anat_preproc_wfanat_fit_wf&#45;&gt;anat_preproc_wfds_anat_volumes_wf -->
<g id="edge15" class="edge">
<title>anat_preproc_wfanat_fit_wf:e&#45;&gt;anat_preproc_wfds_anat_volumes_wf:w</title>
<path fill="none" stroke="black" d="M1072.46,-684C1198.65,-684 1229.94,-632.93 1319.46,-544 1370.03,-493.76 1343.08,-448.61 1399.46,-405 1512.62,-317.47 1871.5,-234.32 2024.27,-230.63"/>
<polygon fill="black" stroke="black" points="2024.51,-234.13 2034.46,-230.5 2024.42,-227.13 2024.51,-234.13"/>
</g>
<!-- anat_preproc_wfanat_fit_wf&#45;&gt;anat_preproc_wfds_anat_volumes_wf -->
<g id="edge17" class="edge">
<title>anat_preproc_wfanat_fit_wf:e&#45;&gt;anat_preproc_wfds_anat_volumes_wf:w</title>
<path fill="none" stroke="black" d="M1072.46,-661C1215.99,-661 1268.94,-642.36 1373.46,-544 1422.99,-497.39 1386.76,-450.32 1437.46,-405 1643.29,-221.03 1752.31,-207.8 2024.3,-207.51"/>
<polygon fill="black" stroke="black" points="2024.47,-211.01 2034.46,-207.5 2024.46,-204.01 2024.47,-211.01"/>
</g>
<!-- anat_preproc_wfanat_fit_wf&#45;&gt;anat_preproc_wfds_anat_volumes_wf -->
<g id="edge20" class="edge">
<title>anat_preproc_wfanat_fit_wf:e&#45;&gt;anat_preproc_wfds_anat_volumes_wf:w</title>
<path fill="none" stroke="black" d="M1072.46,-638C1152.35,-638 1360.57,-597.98 1419.46,-544 1467.98,-499.54 1424.42,-452.02 1470.46,-405 1656.37,-215.14 1762.6,-185.24 2024.29,-184.51"/>
<polygon fill="black" stroke="black" points="2024.47,-188.01 2034.46,-184.5 2024.46,-181.01 2024.47,-188.01"/>
</g>
<!-- anat_preproc_wfanat_fit_wf&#45;&gt;anat_preproc_wfds_anat_volumes_wf -->
<g id="edge22" class="edge">
<title>anat_preproc_wfanat_fit_wf:e&#45;&gt;anat_preproc_wfds_anat_volumes_wf:w</title>
<path fill="none" stroke="black" d="M1072.46,-615C1126.61,-615 2007.6,-583.66 2044.46,-544 2110.26,-473.22 1947.03,-120.14 2024.42,-94.03"/>
<polygon fill="black" stroke="black" points="2025.1,-97.46 2034.46,-92.5 2024.05,-90.54 2025.1,-97.46"/>
</g>
<!-- anat_preproc_wfds_surfaces_wf -->
<g id="node6" class="node">
<title>anat_preproc_wfds_surfaces_wf</title>
<polygon fill="none" stroke="black" points="348.96,-150 348.96,-219 697.96,-219 697.96,-150 348.96,-150"/>
<text text-anchor="middle" x="436.96" y="-203.8" font-family="Times,serif" font-size="14.00">IN</text>
<polyline fill="none" stroke="black" points="348.96,-196 524.96,-196 "/>
<text text-anchor="middle" x="436.96" y="-180.8" font-family="Times,serif" font-size="14.00">inputnode.inflated</text>
<polyline fill="none" stroke="black" points="348.96,-173 524.96,-173 "/>
<text text-anchor="middle" x="436.96" y="-157.8" font-family="Times,serif" font-size="14.00">inputnode.source_files</text>
<polyline fill="none" stroke="black" points="524.96,-150 524.96,-219 "/>
<text text-anchor="middle" x="586.96" y="-203.8" font-family="Times,serif" font-size="14.00">ds_surfaces_wf</text>
<polyline fill="none" stroke="black" points="524.96,-196 648.96,-196 "/>
<text text-anchor="middle" x="586.96" y="-180.8" font-family="Times,serif" font-size="14.00"> </text>
<polyline fill="none" stroke="black" points="524.96,-173 648.96,-173 "/>
<text text-anchor="middle" x="586.96" y="-157.8" font-family="Times,serif" font-size="14.00"> </text>
<polyline fill="none" stroke="black" points="648.96,-150 648.96,-219 "/>
<text text-anchor="middle" x="673.46" y="-180.8" font-family="Times,serif" font-size="14.00">OUT</text>
</g>
<!-- anat_preproc_wfanat_fit_wf&#45;&gt;anat_preproc_wfds_surfaces_wf -->
<g id="edge25" class="edge">
<title>anat_preproc_wfanat_fit_wf:e&#45;&gt;anat_preproc_wfds_surfaces_wf:w</title>
<path fill="none" stroke="black" d="M1072.46,-615C1088.03,-615 1082.4,-591.07 1071.46,-580 1003.01,-510.69 262.92,-614.28 195.46,-544 152.69,-499.43 157.44,-453.69 195.46,-405 236.06,-353 297.87,-420.21 339.46,-369 345.77,-361.23 338.48,-210.89 343.95,-171.1"/>
<polygon fill="black" stroke="black" points="347.32,-172.09 347.46,-161.5 340.74,-169.69 347.32,-172.09"/>
</g>
<!-- anat_preproc_wfds_curv_wf -->
<g id="node7" class="node">
<title>anat_preproc_wfds_curv_wf</title>
<polygon fill="none" stroke="black" points="10.46,-150 10.46,-219 330.46,-219 330.46,-150 10.46,-150"/>
<text text-anchor="middle" x="98.46" y="-203.8" font-family="Times,serif" font-size="14.00">IN</text>
<polyline fill="none" stroke="black" points="10.46,-196 186.46,-196 "/>
<text text-anchor="middle" x="98.46" y="-180.8" font-family="Times,serif" font-size="14.00">inputnode.curv</text>
<polyline fill="none" stroke="black" points="10.46,-173 186.46,-173 "/>
<text text-anchor="middle" x="98.46" y="-157.8" font-family="Times,serif" font-size="14.00">inputnode.source_files</text>
<polyline fill="none" stroke="black" points="186.46,-150 186.46,-219 "/>
<text text-anchor="middle" x="233.96" y="-203.8" font-family="Times,serif" font-size="14.00">ds_curv_wf</text>
<polyline fill="none" stroke="black" points="186.46,-196 281.46,-196 "/>
<text text-anchor="middle" x="233.96" y="-180.8" font-family="Times,serif" font-size="14.00"> </text>
<polyline fill="none" stroke="black" points="186.46,-173 281.46,-173 "/>
<text text-anchor="middle" x="233.96" y="-157.8" font-family="Times,serif" font-size="14.00"> </text>
<polyline fill="none" stroke="black" points="281.46,-150 281.46,-219 "/>
<text text-anchor="middle" x="305.96" y="-180.8" font-family="Times,serif" font-size="14.00">OUT</text>
</g>
<!-- anat_preproc_wfanat_fit_wf&#45;&gt;anat_preproc_wfds_curv_wf -->
<g id="edge23" class="edge">
<title>anat_preproc_wfanat_fit_wf:e&#45;&gt;anat_preproc_wfds_curv_wf:w</title>
<path fill="none" stroke="black" d="M1072.46,-615C1088.03,-615 1082.41,-591.06 1071.46,-580 1000.3,-508.06 245.69,-600.08 161.46,-544 126.59,-520.78 -10.31,-219.15 2.09,-168.65"/>
<polygon fill="black" stroke="black" points="4.72,-170.98 9.46,-161.5 -0.15,-165.95 4.72,-170.98"/>
</g>
<!-- anat_preproc_wfds_fs_segs_wf -->
<g id="node8" class="node">
<title>anat_preproc_wfds_fs_segs_wf</title>
<polygon fill="none" stroke="black" points="716.46,-138.5 716.46,-230.5 1072.46,-230.5 1072.46,-138.5 716.46,-138.5"/>
<text text-anchor="middle" x="811.96" y="-215.3" font-family="Times,serif" font-size="14.00">IN</text>
<polyline fill="none" stroke="black" points="716.46,-207.5 907.46,-207.5 "/>
<text text-anchor="middle" x="811.96" y="-192.3" font-family="Times,serif" font-size="14.00">inputnode.anat_fs_aparc</text>
<polyline fill="none" stroke="black" points="716.46,-184.5 907.46,-184.5 "/>
<text text-anchor="middle" x="811.96" y="-169.3" font-family="Times,serif" font-size="14.00">inputnode.anat_fs_aseg</text>
<polyline fill="none" stroke="black" points="716.46,-161.5 907.46,-161.5 "/>
<text text-anchor="middle" x="811.96" y="-146.3" font-family="Times,serif" font-size="14.00">inputnode.source_files</text>
<polyline fill="none" stroke="black" points="907.46,-138.5 907.46,-230.5 "/>
<text text-anchor="middle" x="965.46" y="-211.8" font-family="Times,serif" font-size="14.00">ds_fs_segs_wf</text>
<polyline fill="none" stroke="black" points="907.46,-200.5 1023.46,-200.5 "/>
<text text-anchor="middle" x="965.46" y="-181.3" font-family="Times,serif" font-size="14.00"> </text>
<polyline fill="none" stroke="black" points="907.46,-169.5 1023.46,-169.5 "/>
<text text-anchor="middle" x="965.46" y="-150.3" font-family="Times,serif" font-size="14.00"> </text>
<polyline fill="none" stroke="black" points="1023.46,-138.5 1023.46,-230.5 "/>
<text text-anchor="middle" x="1047.96" y="-180.8" font-family="Times,serif" font-size="14.00">OUT</text>
</g>
<!-- anat_preproc_wfanat_fit_wf&#45;&gt;anat_preproc_wfds_fs_segs_wf -->
<g id="edge24" class="edge">
<title>anat_preproc_wfanat_fit_wf:e&#45;&gt;anat_preproc_wfds_fs_segs_wf:w</title>
<path fill="none" stroke="black" d="M1072.46,-615C1088.03,-615 1082.39,-591.08 1071.46,-580 1005.8,-513.4 295.17,-611.54 230.46,-544 187.72,-499.39 188.46,-450.3 230.46,-405 302.59,-327.21 632.76,-445.29 706.46,-369 713.87,-361.34 705.9,-199.75 711.88,-158.84"/>
<polygon fill="black" stroke="black" points="715.15,-160.09 715.46,-149.5 708.61,-157.58 715.15,-160.09"/>
</g>
<!-- anat_preproc_wfoutputnode -->
<g id="node9" class="node">
<title>anat_preproc_wfoutputnode</title>
<polygon fill="none" stroke="black" points="1090.46,-0.5 1090.46,-368.5 1380.46,-368.5 1380.46,-0.5 1090.46,-0.5"/>
<text text-anchor="middle" x="1161.96" y="-353.3" font-family="Times,serif" font-size="14.00">IN</text>
<polyline fill="none" stroke="black" points="1090.46,-345.5 1233.46,-345.5 "/>
<text text-anchor="middle" x="1161.96" y="-330.3" font-family="Times,serif" font-size="14.00">anat2std_xfm</text>
<polyline fill="none" stroke="black" points="1090.46,-322.5 1233.46,-322.5 "/>
<text text-anchor="middle" x="1161.96" y="-307.3" font-family="Times,serif" font-size="14.00">anat_ribbon</text>
<polyline fill="none" stroke="black" points="1090.46,-299.5 1233.46,-299.5 "/>
<text text-anchor="middle" x="1161.96" y="-284.3" font-family="Times,serif" font-size="14.00">fsnative2t1w_xfm</text>
<polyline fill="none" stroke="black" points="1090.46,-276.5 1233.46,-276.5 "/>
<text text-anchor="middle" x="1161.96" y="-261.3" font-family="Times,serif" font-size="14.00">sphere_reg</text>
<polyline fill="none" stroke="black" points="1090.46,-253.5 1233.46,-253.5 "/>
<text text-anchor="middle" x="1161.96" y="-238.3" font-family="Times,serif" font-size="14.00">sphere_reg_fsLR</text>
<polyline fill="none" stroke="black" points="1090.46,-230.5 1233.46,-230.5 "/>
<text text-anchor="middle" x="1161.96" y="-215.3" font-family="Times,serif" font-size="14.00">std2anat_xfm</text>
<polyline fill="none" stroke="black" points="1090.46,-207.5 1233.46,-207.5 "/>
<text text-anchor="middle" x="1161.96" y="-192.3" font-family="Times,serif" font-size="14.00">subject_id</text>
<polyline fill="none" stroke="black" points="1090.46,-184.5 1233.46,-184.5 "/>
<text text-anchor="middle" x="1161.96" y="-169.3" font-family="Times,serif" font-size="14.00">subjects_dir</text>
<polyline fill="none" stroke="black" points="1090.46,-161.5 1233.46,-161.5 "/>
<text text-anchor="middle" x="1161.96" y="-146.3" font-family="Times,serif" font-size="14.00">t1w_aparc</text>
<polyline fill="none" stroke="black" points="1090.46,-138.5 1233.46,-138.5 "/>
<text text-anchor="middle" x="1161.96" y="-123.3" font-family="Times,serif" font-size="14.00">t1w_aseg</text>
<polyline fill="none" stroke="black" points="1090.46,-115.5 1233.46,-115.5 "/>
<text text-anchor="middle" x="1161.96" y="-100.3" font-family="Times,serif" font-size="14.00">t1w_dseg</text>
<polyline fill="none" stroke="black" points="1090.46,-92.5 1233.46,-92.5 "/>
<text text-anchor="middle" x="1161.96" y="-77.3" font-family="Times,serif" font-size="14.00">t1w_mask</text>
<polyline fill="none" stroke="black" points="1090.46,-69.5 1233.46,-69.5 "/>
<text text-anchor="middle" x="1161.96" y="-54.3" font-family="Times,serif" font-size="14.00">t1w_preproc</text>
<polyline fill="none" stroke="black" points="1090.46,-46.5 1233.46,-46.5 "/>
<text text-anchor="middle" x="1161.96" y="-31.3" font-family="Times,serif" font-size="14.00">t1w_tpms</text>
<polyline fill="none" stroke="black" points="1090.46,-23.5 1233.46,-23.5 "/>
<text text-anchor="middle" x="1161.96" y="-8.3" font-family="Times,serif" font-size="14.00">template</text>
<polyline fill="none" stroke="black" points="1233.46,-0.5 1233.46,-368.5 "/>
<text text-anchor="middle" x="1282.46" y="-303.8" font-family="Times,serif" font-size="14.00">outputnode</text>
<polyline fill="none" stroke="black" points="1233.46,-246.5 1331.46,-246.5 "/>
<text text-anchor="middle" x="1282.46" y="-181.3" font-family="Times,serif" font-size="14.00">utility</text>
<polyline fill="none" stroke="black" points="1233.46,-123.5 1331.46,-123.5 "/>
<text text-anchor="middle" x="1282.46" y="-58.3" font-family="Times,serif" font-size="14.00"> </text>
<polyline fill="none" stroke="black" points="1331.46,-0.5 1331.46,-368.5 "/>
<text text-anchor="middle" x="1355.96" y="-180.8" font-family="Times,serif" font-size="14.00">OUT</text>
</g>
<!-- anat_preproc_wfanat_fit_wf&#45;&gt;anat_preproc_wfoutputnode -->
<g id="edge1" class="edge">
<title>anat_preproc_wfanat_fit_wf:e&#45;&gt;anat_preproc_wfoutputnode:w</title>
<path fill="none" stroke="black" d="M1072.46,-891C1210.69,-891 1160.47,-685.75 1071.46,-580 1012.18,-509.56 926.64,-614.53 867.46,-544 827.76,-496.67 827.57,-452.17 867.46,-405 929.75,-331.36 1011.21,-435.08 1081.46,-369 1088.72,-362.18 1083.69,-350.17 1083.01,-342.28"/>
<polygon fill="black" stroke="black" points="1085.77,-344.43 1089.46,-334.5 1080.38,-339.96 1085.77,-344.43"/>
</g>
<!-- anat_preproc_wfanat_fit_wf&#45;&gt;anat_preproc_wfoutputnode -->
<g id="edge3" class="edge">
<title>anat_preproc_wfanat_fit_wf:e&#45;&gt;anat_preproc_wfoutputnode:w</title>
<path fill="none" stroke="black" d="M1072.46,-868C1200.46,-868 1151.98,-679.5 1071.46,-580 1023.97,-521.32 952.85,-602.77 905.46,-544 866.68,-495.91 866.4,-452.86 905.46,-405 955.95,-343.14 1026.83,-427.22 1081.46,-369 1087.95,-362.09 1082.26,-334.32 1083.9,-320.05"/>
<polygon fill="black" stroke="black" points="1086.94,-321.79 1089.46,-311.5 1081.08,-317.97 1086.94,-321.79"/>
</g>
<!-- anat_preproc_wfanat_fit_wf&#45;&gt;anat_preproc_wfoutputnode -->
<g id="edge4" class="edge">
<title>anat_preproc_wfanat_fit_wf:e&#45;&gt;anat_preproc_wfoutputnode:w</title>
<path fill="none" stroke="black" d="M1072.46,-845C1190.24,-845 1142.76,-673.75 1071.46,-580 1035.69,-532.96 979.15,-591.11 943.46,-544 906.16,-494.76 905.69,-453.89 943.46,-405 982.22,-354.84 1040.27,-417.18 1081.46,-369 1090.73,-358.16 1079.03,-313.9 1082.75,-296.03"/>
<polygon fill="black" stroke="black" points="1085.42,-298.29 1089.46,-288.5 1080.19,-293.63 1085.42,-298.29"/>
</g>
<!-- anat_preproc_wfanat_fit_wf&#45;&gt;anat_preproc_wfoutputnode -->
<g id="edge6" class="edge">
<title>anat_preproc_wfanat_fit_wf:e&#45;&gt;anat_preproc_wfoutputnode:w</title>
<path fill="none" stroke="black" d="M1072.46,-822C1180.02,-822 1131.95,-668.94 1071.46,-580 1047.24,-544.38 1005.62,-579.67 981.46,-544 946.83,-492.84 945.94,-455.54 981.46,-405 1008.63,-366.35 1052.83,-406.57 1081.46,-369 1087.12,-361.58 1081.32,-298.49 1084.99,-274.61"/>
<polygon fill="black" stroke="black" points="1088.19,-276.02 1089.46,-265.5 1081.91,-272.93 1088.19,-276.02"/>
</g>
<!-- anat_preproc_wfanat_fit_wf&#45;&gt;anat_preproc_wfoutputnode -->
<g id="edge7" class="edge">
<title>anat_preproc_wfanat_fit_wf:e&#45;&gt;anat_preproc_wfoutputnode:w</title>
<path fill="none" stroke="black" d="M1072.46,-799C1169.8,-799 1116.83,-666.11 1071.46,-580 1058.36,-555.13 1032.51,-568.9 1019.46,-544 990.79,-489.28 988.64,-458.54 1019.46,-405 1035.36,-377.39 1064.7,-396.1 1081.46,-369 1087.6,-359.08 1079.4,-278.84 1084.4,-251.55"/>
<polygon fill="black" stroke="black" points="1087.63,-252.94 1089.46,-242.5 1081.52,-249.52 1087.63,-252.94"/>
</g>
<!-- anat_preproc_wfanat_fit_wf&#45;&gt;anat_preproc_wfoutputnode -->
<g id="edge8" class="edge">
<title>anat_preproc_wfanat_fit_wf:e&#45;&gt;anat_preproc_wfoutputnode:w</title>
<path fill="none" stroke="black" d="M1072.46,-776C1159.58,-776 1087.74,-665.58 1071.46,-580 1068.25,-563.14 1060.63,-560.87 1057.46,-544 1046.07,-483.28 1039.56,-464.13 1057.46,-405 1063.04,-386.6 1075.4,-387.25 1081.46,-369 1083.67,-362.37 1081.94,-261.43 1086.26,-229.27"/>
<polygon fill="black" stroke="black" points="1089.68,-230.09 1089.46,-219.5 1083.02,-227.91 1089.68,-230.09"/>
</g>
<!-- anat_preproc_wfanat_fit_wf&#45;&gt;anat_preproc_wfoutputnode -->
<g id="edge9" class="edge">
<title>anat_preproc_wfanat_fit_wf:e&#45;&gt;anat_preproc_wfoutputnode:w</title>
<path fill="none" stroke="black" d="M1072.46,-753C1079.58,-753 1081.45,-282.06 1087.72,-206.63"/>
<polygon fill="black" stroke="black" points="1091.22,-206.95 1089.46,-196.5 1084.32,-205.76 1091.22,-206.95"/>
</g>
<!-- anat_preproc_wfanat_fit_wf&#45;&gt;anat_preproc_wfoutputnode -->
<g id="edge11" class="edge">
<title>anat_preproc_wfanat_fit_wf:e&#45;&gt;anat_preproc_wfoutputnode:w</title>
<path fill="none" stroke="black" d="M1072.46,-730C1217.24,-730 1102.47,-549.55 1094.46,-405 1093.57,-388.93 1091.39,-385.07 1090.46,-369 1089.92,-359.59 1081.43,-219.98 1086.15,-181.99"/>
<polygon fill="black" stroke="black" points="1089.47,-183.09 1089.46,-172.5 1082.86,-180.78 1089.47,-183.09"/>
</g>
<!-- anat_preproc_wfanat_fit_wf&#45;&gt;anat_preproc_wfoutputnode -->
<g id="edge14" class="edge">
<title>anat_preproc_wfanat_fit_wf:e&#45;&gt;anat_preproc_wfoutputnode:w</title>
<path fill="none" stroke="black" d="M1072.46,-707C1148.11,-707 1110.46,-618.84 1121.46,-544 1130.45,-482.88 1142.96,-462.92 1121.46,-405 1114.12,-385.21 1097.85,-388.78 1090.46,-369 1085.9,-356.77 1077.08,-158.35 1085.33,-112.78"/>
<polygon fill="black" stroke="black" points="1088.59,-114.06 1089.46,-103.5 1082.19,-111.21 1088.59,-114.06"/>
</g>
<!-- anat_preproc_wfanat_fit_wf&#45;&gt;anat_preproc_wfoutputnode -->
<g id="edge16" class="edge">
<title>anat_preproc_wfanat_fit_wf:e&#45;&gt;anat_preproc_wfoutputnode:w</title>
<path fill="none" stroke="black" d="M1072.46,-684C1141.64,-684 1124.96,-611.41 1140.46,-544 1154.31,-483.79 1168.63,-459.98 1140.46,-405 1127.98,-380.63 1102.99,-393.35 1090.46,-369 1087.21,-362.68 1082.64,-140.73 1087.23,-90.52"/>
<polygon fill="black" stroke="black" points="1090.71,-91.02 1089.46,-80.5 1083.87,-89.5 1090.71,-91.02"/>
</g>
<!-- anat_preproc_wfanat_fit_wf&#45;&gt;anat_preproc_wfoutputnode -->
<g id="edge18" class="edge">
<title>anat_preproc_wfanat_fit_wf:e&#45;&gt;anat_preproc_wfoutputnode:w</title>
<path fill="none" stroke="black" d="M1072.46,-661C1138.07,-661 1141.34,-606.11 1162.46,-544 1182.36,-485.51 1194.94,-457.55 1162.46,-405 1143.65,-374.57 1109.32,-399.4 1090.46,-369 1086.39,-362.44 1081.9,-119.42 1087.13,-67.28"/>
<polygon fill="black" stroke="black" points="1090.55,-68.04 1089.46,-57.5 1083.74,-66.42 1090.55,-68.04"/>
</g>
<!-- anat_preproc_wfanat_fit_wf&#45;&gt;anat_preproc_wfoutputnode -->
<g id="edge21" class="edge">
<title>anat_preproc_wfanat_fit_wf:e&#45;&gt;anat_preproc_wfoutputnode:w</title>
<path fill="none" stroke="black" d="M1072.46,-638C1187.55,-638 1250.86,-499.71 1185.46,-405 1159.81,-367.84 1116.17,-406.12 1090.46,-369 1085.72,-362.15 1081.21,-98.75 1087.02,-44.29"/>
<polygon fill="black" stroke="black" points="1090.44,-45.05 1089.46,-34.5 1083.65,-43.36 1090.44,-45.05"/>
</g>
<!-- anat_preproc_wfanat_fit_wf&#45;&gt;anat_preproc_wfoutputnode -->
<g id="edge26" class="edge">
<title>anat_preproc_wfanat_fit_wf:e&#45;&gt;anat_preproc_wfoutputnode:w</title>
<path fill="none" stroke="black" d="M1072.46,-592C1105.35,-592 1193.35,-570.76 1212.46,-544 1248.37,-493.73 1249.45,-454.48 1212.46,-405 1178.61,-359.72 1124.38,-414.23 1090.46,-369 1085.1,-361.85 1080.53,-77.75 1086.93,-21.22"/>
<polygon fill="black" stroke="black" points="1090.32,-22.06 1089.46,-11.5 1083.55,-20.29 1090.32,-22.06"/>
</g>
<!-- anat_preproc_wftemplate_iterator_wf&#45;&gt;anat_preproc_wfds_anat_volumes_wf -->
<g id="edge40" class="edge">
<title>anat_preproc_wftemplate_iterator_wf:e&#45;&gt;anat_preproc_wfds_anat_volumes_wf:w</title>
<path fill="none" stroke="black" d="M2036.46,-509.5C2059.42,-509.5 2019.74,-326.3 2028.5,-284.79"/>
<polygon fill="black" stroke="black" points="2031.47,-286.66 2034.46,-276.5 2025.78,-282.58 2031.47,-286.66"/>
</g>
<!-- anat_preproc_wftemplate_iterator_wf&#45;&gt;anat_preproc_wfds_anat_volumes_wf -->
<g id="edge41" class="edge">
<title>anat_preproc_wftemplate_iterator_wf:e&#45;&gt;anat_preproc_wfds_anat_volumes_wf:w</title>
<path fill="none" stroke="black" d="M2036.46,-486.5C2069.4,-486.5 2010.55,-216.12 2027.35,-168.59"/>
<polygon fill="black" stroke="black" points="2029.85,-171.04 2034.46,-161.5 2024.91,-166.08 2029.85,-171.04"/>
</g>
<!-- anat_preproc_wftemplate_iterator_wf&#45;&gt;anat_preproc_wfds_anat_volumes_wf -->
<g id="edge42" class="edge">
<title>anat_preproc_wftemplate_iterator_wf:e&#45;&gt;anat_preproc_wfds_anat_volumes_wf:w</title>
<path fill="none" stroke="black" d="M2036.46,-462.5C2053.24,-462.5 2035.56,-328.28 2035.46,-311.5 2034.97,-228.13 1954.72,-124.82 2024.18,-116.09"/>
<polygon fill="black" stroke="black" points="2024.68,-119.57 2034.46,-115.5 2024.28,-112.58 2024.68,-119.57"/>
</g>
<!-- anat_preproc_wftemplate_iterator_wf&#45;&gt;anat_preproc_wfds_anat_volumes_wf -->
<g id="edge43" class="edge">
<title>anat_preproc_wftemplate_iterator_wf:e&#45;&gt;anat_preproc_wfds_anat_volumes_wf:w</title>
<path fill="none" stroke="black" d="M2036.46,-439.5C2064.91,-439.5 2035.63,-339.94 2035.46,-311.5 2034.84,-207.52 1933.95,-78.4 2024.45,-69.94"/>
<polygon fill="black" stroke="black" points="2024.63,-73.43 2034.46,-69.5 2024.32,-66.44 2024.63,-73.43"/>
</g>
<!-- anat_preproc_wftemplate_iterator_wf&#45;&gt;anat_preproc_wfds_anat_volumes_wf -->
<g id="edge44" class="edge">
<title>anat_preproc_wftemplate_iterator_wf:e&#45;&gt;anat_preproc_wfds_anat_volumes_wf:w</title>
<path fill="none" stroke="black" d="M2036.46,-416.5C2059.8,-416.5 2035.64,-334.83 2035.46,-311.5 2034.9,-238.37 1964.94,-147.84 2024.28,-139.17"/>
<polygon fill="black" stroke="black" points="2024.72,-142.65 2034.46,-138.5 2024.25,-135.67 2024.72,-142.65"/>
</g>
<!-- anat_preproc_wfsurface_derivatives_wf&#45;&gt;anat_preproc_wfds_surfaces_wf -->
<g id="edge35" class="edge">
<title>anat_preproc_wfsurface_derivatives_wf:e&#45;&gt;anat_preproc_wfds_surfaces_wf:w</title>
<path fill="none" stroke="black" d="M816.46,-474.5C829.35,-474.5 822.68,-427.18 815.46,-416.5 811.52,-410.67 352.44,-225.31 348.46,-219.5 345.72,-215.49 342.97,-202.82 343.2,-193.88"/>
<polygon fill="black" stroke="black" points="346.51,-195.05 347.46,-184.5 340.14,-192.16 346.51,-195.05"/>
</g>
<!-- anat_preproc_wfsurface_derivatives_wf&#45;&gt;anat_preproc_wfds_curv_wf -->
<g id="edge34" class="edge">
<title>anat_preproc_wfsurface_derivatives_wf:e&#45;&gt;anat_preproc_wfds_curv_wf:w</title>
<path fill="none" stroke="black" d="M816.46,-497.5C834.46,-497.5 827.63,-429.77 815.46,-416.5 743.64,-338.13 442.11,-396.64 339.46,-369 184.37,-327.25 99.34,-353.28 10.46,-219.5 4.54,-210.59 -1.07,-197.39 1.07,-190.01"/>
<polygon fill="black" stroke="black" points="3.02,-192.91 9.46,-184.5 -0.82,-187.06 3.02,-192.91"/>
</g>
<!-- anat_preproc_wfsurface_derivatives_wf&#45;&gt;anat_preproc_wfds_fs_segs_wf -->
<g id="edge36" class="edge">
<title>anat_preproc_wfsurface_derivatives_wf:e&#45;&gt;anat_preproc_wfds_fs_segs_wf:w</title>
<path fill="none" stroke="black" d="M816.46,-451.5C832.03,-451.5 819.46,-431.54 815.46,-416.5 791.49,-326.18 740.45,-321.32 716.46,-231 713.97,-221.62 708.09,-210.29 707.99,-203.24"/>
<polygon fill="black" stroke="black" points="710.39,-205.8 715.46,-196.5 705.7,-200.6 710.39,-205.8"/>
</g>
<!-- anat_preproc_wfsurface_derivatives_wf&#45;&gt;anat_preproc_wfds_fs_segs_wf -->
<g id="edge38" class="edge">
<title>anat_preproc_wfsurface_derivatives_wf:e&#45;&gt;anat_preproc_wfds_fs_segs_wf:w</title>
<path fill="none" stroke="black" d="M816.46,-428.5C821.82,-428.5 816.98,-421.63 815.46,-416.5 789.04,-326.86 739.92,-321.46 716.46,-231 714.07,-221.76 707.64,-194.54 709.54,-180.73"/>
<polygon fill="black" stroke="black" points="712.47,-182.66 715.46,-172.5 706.78,-178.58 712.47,-182.66"/>
</g>
<!-- anat_preproc_wfsurface_derivatives_wf&#45;&gt;anat_preproc_wfoutputnode -->
<g id="edge37" class="edge">
<title>anat_preproc_wfsurface_derivatives_wf:e&#45;&gt;anat_preproc_wfoutputnode:w</title>
<path fill="none" stroke="black" d="M816.46,-451.5C837.92,-451.5 813.33,-419.15 829.46,-405 914.52,-330.4 1005.79,-453.11 1081.46,-369 1088.57,-361.1 1080.11,-200.41 1085.87,-159.11"/>
<polygon fill="black" stroke="black" points="1089.24,-160.09 1089.46,-149.5 1082.68,-157.64 1089.24,-160.09"/>
</g>
<!-- anat_preproc_wfsurface_derivatives_wf&#45;&gt;anat_preproc_wfoutputnode -->
<g id="edge39" class="edge">
<title>anat_preproc_wfsurface_derivatives_wf:e&#45;&gt;anat_preproc_wfoutputnode:w</title>
<path fill="none" stroke="black" d="M816.46,-428.5C828.4,-428.5 819.64,-411.78 829.46,-405 922.6,-340.77 1005.94,-453.24 1081.46,-369 1089.37,-360.18 1079.15,-179.54 1085.71,-135.92"/>
<polygon fill="black" stroke="black" points="1089.01,-137.09 1089.46,-126.5 1082.51,-134.49 1089.01,-137.09"/>
</g>
</g>
</svg>
