<?xml version="1.0" encoding="UTF-8" standalone="no"?>
<!DOCTYPE svg PUBLIC "-//W3C//DTD SVG 1.1//EN"
 "http://www.w3.org/Graphics/SVG/1.1/DTD/svg11.dtd">
<!-- Generated by graphviz version 2.43.0 (0)
 -->
<!-- Title: structs Pages: 1 -->
<svg width="1269pt" height="737pt"
 viewBox="0.00 0.00 1268.50 737.00" xmlns="http://www.w3.org/2000/svg" xmlns:xlink="http://www.w3.org/1999/xlink">
<g id="graph0" class="graph" transform="scale(1 1) rotate(0) translate(4 733)">
<title>structs</title>
<polygon fill="white" stroke="transparent" points="-4,4 -4,-733 1264.5,-733 1264.5,4 -4,4"/>
<!-- cortex_masks_wfinputnode -->
<g id="node1" class="node">
<title>cortex_masks_wfinputnode</title>
<polygon fill="none" stroke="black" points="193.5,-659.5 193.5,-728.5 427.5,-728.5 427.5,-659.5 193.5,-659.5"/>
<text text-anchor="middle" x="210.5" y="-690.3" font-family="Times,serif" font-size="14.00">IN</text>
<polyline fill="none" stroke="black" points="227.5,-659.5 227.5,-728.5 "/>
<text text-anchor="middle" x="272" y="-713.3" font-family="Times,serif" font-size="14.00">inputnode</text>
<polyline fill="none" stroke="black" points="227.5,-705.5 316.5,-705.5 "/>
<text text-anchor="middle" x="272" y="-690.3" font-family="Times,serif" font-size="14.00">utility</text>
<polyline fill="none" stroke="black" points="227.5,-682.5 316.5,-682.5 "/>
<text text-anchor="middle" x="272" y="-667.3" font-family="Times,serif" font-size="14.00"> </text>
<polyline fill="none" stroke="black" points="316.5,-659.5 316.5,-728.5 "/>
<text text-anchor="middle" x="372" y="-713.3" font-family="Times,serif" font-size="14.00">OUT</text>
<polyline fill="none" stroke="black" points="316.5,-705.5 427.5,-705.5 "/>
<text text-anchor="middle" x="372" y="-690.3" font-family="Times,serif" font-size="14.00">midthickness</text>
<polyline fill="none" stroke="black" points="316.5,-682.5 427.5,-682.5 "/>
<text text-anchor="middle" x="372" y="-667.3" font-family="Times,serif" font-size="14.00">thickness</text>
</g>
<!-- cortex_masks_wfselect_surfaces -->
<g id="node3" class="node">
<title>cortex_masks_wfselect_surfaces</title>
<polygon fill="none" stroke="black" points="419,-530.5 419,-622.5 766,-622.5 766,-530.5 419,-530.5"/>
<text text-anchor="middle" x="474.5" y="-607.3" font-family="Times,serif" font-size="14.00">IN</text>
<polyline fill="none" stroke="black" points="419,-599.5 530,-599.5 "/>
<text text-anchor="middle" x="474.5" y="-584.3" font-family="Times,serif" font-size="14.00">key</text>
<polyline fill="none" stroke="black" points="419,-576.5 530,-576.5 "/>
<text text-anchor="middle" x="474.5" y="-561.3" font-family="Times,serif" font-size="14.00">midthickness</text>
<polyline fill="none" stroke="black" points="419,-553.5 530,-553.5 "/>
<text text-anchor="middle" x="474.5" y="-538.3" font-family="Times,serif" font-size="14.00">thickness</text>
<polyline fill="none" stroke="black" points="530,-530.5 530,-622.5 "/>
<text text-anchor="middle" x="592.5" y="-603.8" font-family="Times,serif" font-size="14.00">select_surfaces</text>
<polyline fill="none" stroke="black" points="530,-592.5 655,-592.5 "/>
<text text-anchor="middle" x="592.5" y="-573.3" font-family="Times,serif" font-size="14.00">utility</text>
<polyline fill="none" stroke="black" points="530,-561.5 655,-561.5 "/>
<text text-anchor="middle" x="592.5" y="-542.3" font-family="Times,serif" font-size="14.00"> </text>
<polyline fill="none" stroke="black" points="655,-530.5 655,-622.5 "/>
<text text-anchor="middle" x="710.5" y="-603.8" font-family="Times,serif" font-size="14.00">OUT</text>
<polyline fill="none" stroke="black" points="655,-592.5 766,-592.5 "/>
<text text-anchor="middle" x="710.5" y="-573.3" font-family="Times,serif" font-size="14.00">midthickness</text>
<polyline fill="none" stroke="black" points="655,-561.5 766,-561.5 "/>
<text text-anchor="middle" x="710.5" y="-542.3" font-family="Times,serif" font-size="14.00">thickness</text>
</g>
<!-- cortex_masks_wfinputnode&#45;&gt;cortex_masks_wfselect_surfaces -->
<g id="edge5" class="edge">
<title>cortex_masks_wfinputnode:e&#45;&gt;cortex_masks_wfselect_surfaces:w</title>
<path fill="none" stroke="black" d="M428.5,-694C444.06,-694 429.62,-674.42 427.5,-659 422.3,-621.25 383.95,-574.68 407.54,-565.95"/>
<polygon fill="black" stroke="black" points="408.11,-569.4 417.5,-564.5 407.1,-562.48 408.11,-569.4"/>
</g>
<!-- cortex_masks_wfinputnode&#45;&gt;cortex_masks_wfselect_surfaces -->
<g id="edge6" class="edge">
<title>cortex_masks_wfinputnode:e&#45;&gt;cortex_masks_wfselect_surfaces:w</title>
<path fill="none" stroke="black" d="M428.5,-671C433.85,-671 428.37,-664.28 427.5,-659 424.81,-642.73 420.62,-639.36 418.5,-623 414.4,-591.28 388.53,-552.05 407.44,-543.29"/>
<polygon fill="black" stroke="black" points="408.27,-546.7 417.5,-541.5 407.04,-539.81 408.27,-546.7"/>
</g>
<!-- cortex_masks_wfitersource -->
<g id="node2" class="node">
<title>cortex_masks_wfitersource</title>
<polygon fill="none" stroke="black" points="0,-659.5 0,-728.5 175,-728.5 175,-659.5 0,-659.5"/>
<text text-anchor="middle" x="17" y="-690.3" font-family="Times,serif" font-size="14.00">IN</text>
<polyline fill="none" stroke="black" points="34,-659.5 34,-728.5 "/>
<text text-anchor="middle" x="78.5" y="-713.3" font-family="Times,serif" font-size="14.00">itersource</text>
<polyline fill="none" stroke="black" points="34,-705.5 123,-705.5 "/>
<text text-anchor="middle" x="78.5" y="-690.3" font-family="Times,serif" font-size="14.00">utility</text>
<polyline fill="none" stroke="black" points="34,-682.5 123,-682.5 "/>
<text text-anchor="middle" x="78.5" y="-667.3" font-family="Times,serif" font-size="14.00"> </text>
<polyline fill="none" stroke="black" points="123,-659.5 123,-728.5 "/>
<text text-anchor="middle" x="149" y="-707.8" font-family="Times,serif" font-size="14.00">OUT</text>
<polyline fill="none" stroke="black" points="123,-694.5 175,-694.5 "/>
<text text-anchor="middle" x="149" y="-673.3" font-family="Times,serif" font-size="14.00">hemi</text>
</g>
<!-- cortex_masks_wfitersource&#45;&gt;cortex_masks_wfselect_surfaces -->
<g id="edge9" class="edge">
<title>cortex_masks_wfitersource:e&#45;&gt;cortex_masks_wfselect_surfaces:w</title>
<path fill="none" stroke="black" d="M176.5,-677C185.25,-677 177.94,-664.79 184.5,-659 222.68,-625.3 347.53,-592.57 407.16,-588.85"/>
<polygon fill="black" stroke="black" points="407.62,-592.34 417.5,-588.5 407.39,-585.34 407.62,-592.34"/>
</g>
<!-- cortex_masks_wfabs_thickness -->
<g id="node4" class="node">
<title>cortex_masks_wfabs_thickness</title>
<polygon fill="none" stroke="black" points="214,-424.5 214,-493.5 523,-493.5 523,-424.5 214,-424.5"/>
<text text-anchor="middle" x="264.5" y="-478.3" font-family="Times,serif" font-size="14.00">IN</text>
<polyline fill="none" stroke="black" points="214,-470.5 315,-470.5 "/>
<text text-anchor="middle" x="264.5" y="-455.3" font-family="Times,serif" font-size="14.00">hemisphere</text>
<polyline fill="none" stroke="black" points="214,-447.5 315,-447.5 "/>
<text text-anchor="middle" x="264.5" y="-432.3" font-family="Times,serif" font-size="14.00">metric_file</text>
<polyline fill="none" stroke="black" points="315,-424.5 315,-493.5 "/>
<text text-anchor="middle" x="373" y="-478.3" font-family="Times,serif" font-size="14.00">abs_thickness</text>
<polyline fill="none" stroke="black" points="315,-470.5 431,-470.5 "/>
<text text-anchor="middle" x="373" y="-455.3" font-family="Times,serif" font-size="14.00">gifti</text>
<polyline fill="none" stroke="black" points="315,-447.5 431,-447.5 "/>
<text text-anchor="middle" x="373" y="-432.3" font-family="Times,serif" font-size="14.00"> </text>
<polyline fill="none" stroke="black" points="431,-424.5 431,-493.5 "/>
<text text-anchor="middle" x="477" y="-472.8" font-family="Times,serif" font-size="14.00">OUT</text>
<polyline fill="none" stroke="black" points="431,-459.5 523,-459.5 "/>
<text text-anchor="middle" x="477" y="-438.3" font-family="Times,serif" font-size="14.00">metric_file</text>
</g>
<!-- cortex_masks_wfitersource&#45;&gt;cortex_masks_wfabs_thickness -->
<g id="edge7" class="edge">
<title>cortex_masks_wfitersource:e&#45;&gt;cortex_masks_wfabs_thickness:w</title>
<path fill="none" stroke="black" d="M176.5,-677C182.67,-677 188.35,-629.06 189.5,-623 195.67,-590.52 179.61,-484.02 202.98,-462.73"/>
<polygon fill="black" stroke="black" points="204.46,-465.9 212.5,-459 201.91,-459.38 204.46,-465.9"/>
</g>
<!-- cortex_masks_wfinitial_roi -->
<g id="node6" class="node">
<title>cortex_masks_wfinitial_roi</title>
<polygon fill="none" stroke="black" points="185,-318.5 185,-387.5 462,-387.5 462,-318.5 185,-318.5"/>
<text text-anchor="middle" x="235.5" y="-372.3" font-family="Times,serif" font-size="14.00">IN</text>
<polyline fill="none" stroke="black" points="185,-364.5 286,-364.5 "/>
<text text-anchor="middle" x="235.5" y="-349.3" font-family="Times,serif" font-size="14.00">hemisphere</text>
<polyline fill="none" stroke="black" points="185,-341.5 286,-341.5 "/>
<text text-anchor="middle" x="235.5" y="-326.3" font-family="Times,serif" font-size="14.00">metric_file</text>
<polyline fill="none" stroke="black" points="286,-318.5 286,-387.5 "/>
<text text-anchor="middle" x="328" y="-372.3" font-family="Times,serif" font-size="14.00">initial_roi</text>
<polyline fill="none" stroke="black" points="286,-364.5 370,-364.5 "/>
<text text-anchor="middle" x="328" y="-349.3" font-family="Times,serif" font-size="14.00">gifti</text>
<polyline fill="none" stroke="black" points="286,-341.5 370,-341.5 "/>
<text text-anchor="middle" x="328" y="-326.3" font-family="Times,serif" font-size="14.00"> </text>
<polyline fill="none" stroke="black" points="370,-318.5 370,-387.5 "/>
<text text-anchor="middle" x="416" y="-366.8" font-family="Times,serif" font-size="14.00">OUT</text>
<polyline fill="none" stroke="black" points="370,-353.5 462,-353.5 "/>
<text text-anchor="middle" x="416" y="-332.3" font-family="Times,serif" font-size="14.00">metric_file</text>
</g>
<!-- cortex_masks_wfitersource&#45;&gt;cortex_masks_wfinitial_roi -->
<g id="edge8" class="edge">
<title>cortex_masks_wfitersource:e&#45;&gt;cortex_masks_wfinitial_roi:w</title>
<path fill="none" stroke="black" d="M176.5,-677C192.68,-677 170.9,-415.47 179.37,-362.35"/>
<polygon fill="black" stroke="black" points="182.66,-363.56 183.5,-353 176.26,-360.73 182.66,-363.56"/>
</g>
<!-- cortex_masks_wfselect_surfaces&#45;&gt;cortex_masks_wfabs_thickness -->
<g id="edge14" class="edge">
<title>cortex_masks_wfselect_surfaces:e&#45;&gt;cortex_masks_wfabs_thickness:w</title>
<path fill="none" stroke="black" d="M767.5,-545.5C774.4,-545.5 771.38,-534.88 766.5,-530 679.45,-442.9 298.48,-583.13 213.5,-494 198.63,-478.4 189.91,-448.35 202.5,-438.91"/>
<polygon fill="black" stroke="black" points="203.88,-442.16 212.5,-436 201.92,-435.44 203.88,-442.16"/>
</g>
<!-- cortex_masks_wfcombine_sources -->
<g id="node5" class="node">
<title>cortex_masks_wfcombine_sources</title>
<polygon fill="none" stroke="black" points="780.5,-424.5 780.5,-493.5 1006.5,-493.5 1006.5,-424.5 780.5,-424.5"/>
<text text-anchor="middle" x="800" y="-478.3" font-family="Times,serif" font-size="14.00">IN</text>
<polyline fill="none" stroke="black" points="780.5,-470.5 819.5,-470.5 "/>
<text text-anchor="middle" x="800" y="-455.3" font-family="Times,serif" font-size="14.00">in1</text>
<polyline fill="none" stroke="black" points="780.5,-447.5 819.5,-447.5 "/>
<text text-anchor="middle" x="800" y="-432.3" font-family="Times,serif" font-size="14.00">in2</text>
<polyline fill="none" stroke="black" points="819.5,-424.5 819.5,-493.5 "/>
<text text-anchor="middle" x="888.5" y="-478.3" font-family="Times,serif" font-size="14.00">combine_sources</text>
<polyline fill="none" stroke="black" points="819.5,-470.5 957.5,-470.5 "/>
<text text-anchor="middle" x="888.5" y="-455.3" font-family="Times,serif" font-size="14.00">utility</text>
<polyline fill="none" stroke="black" points="819.5,-447.5 957.5,-447.5 "/>
<text text-anchor="middle" x="888.5" y="-432.3" font-family="Times,serif" font-size="14.00"> </text>
<polyline fill="none" stroke="black" points="957.5,-424.5 957.5,-493.5 "/>
<text text-anchor="middle" x="982" y="-472.8" font-family="Times,serif" font-size="14.00">OUT</text>
<polyline fill="none" stroke="black" points="957.5,-459.5 1006.5,-459.5 "/>
<text text-anchor="middle" x="982" y="-438.3" font-family="Times,serif" font-size="14.00">out</text>
</g>
<!-- cortex_masks_wfselect_surfaces&#45;&gt;cortex_masks_wfcombine_sources -->
<g id="edge11" class="edge">
<title>cortex_masks_wfselect_surfaces:e&#45;&gt;cortex_masks_wfcombine_sources:w</title>
<path fill="none" stroke="black" d="M767.5,-577.5C790.14,-577.5 763.46,-490.78 771.84,-465.71"/>
<polygon fill="black" stroke="black" points="774.28,-468.22 779.5,-459 769.67,-462.96 774.28,-468.22"/>
</g>
<!-- cortex_masks_wfselect_surfaces&#45;&gt;cortex_masks_wfcombine_sources -->
<g id="edge15" class="edge">
<title>cortex_masks_wfselect_surfaces:e&#45;&gt;cortex_masks_wfcombine_sources:w</title>
<path fill="none" stroke="black" d="M767.5,-545.5C788.25,-545.5 764.86,-466.82 772.16,-442.85"/>
<polygon fill="black" stroke="black" points="774.57,-445.38 779.5,-436 769.8,-440.26 774.57,-445.38"/>
</g>
<!-- cortex_masks_wffill_holes -->
<g id="node7" class="node">
<title>cortex_masks_wffill_holes</title>
<polygon fill="none" stroke="black" points="463,-212.5 463,-281.5 724,-281.5 724,-212.5 463,-212.5"/>
<text text-anchor="middle" x="512" y="-266.3" font-family="Times,serif" font-size="14.00">IN</text>
<polyline fill="none" stroke="black" points="463,-258.5 561,-258.5 "/>
<text text-anchor="middle" x="512" y="-243.3" font-family="Times,serif" font-size="14.00">metric_file</text>
<polyline fill="none" stroke="black" points="463,-235.5 561,-235.5 "/>
<text text-anchor="middle" x="512" y="-220.3" font-family="Times,serif" font-size="14.00">surface_file</text>
<polyline fill="none" stroke="black" points="561,-212.5 561,-281.5 "/>
<text text-anchor="middle" x="608.5" y="-266.3" font-family="Times,serif" font-size="14.00">fill_holes</text>
<polyline fill="none" stroke="black" points="561,-258.5 656,-258.5 "/>
<text text-anchor="middle" x="608.5" y="-243.3" font-family="Times,serif" font-size="14.00">workbench</text>
<polyline fill="none" stroke="black" points="561,-235.5 656,-235.5 "/>
<text text-anchor="middle" x="608.5" y="-220.3" font-family="Times,serif" font-size="14.00"> </text>
<polyline fill="none" stroke="black" points="656,-212.5 656,-281.5 "/>
<text text-anchor="middle" x="690" y="-260.8" font-family="Times,serif" font-size="14.00">OUT</text>
<polyline fill="none" stroke="black" points="656,-247.5 724,-247.5 "/>
<text text-anchor="middle" x="690" y="-226.3" font-family="Times,serif" font-size="14.00">out_file</text>
</g>
<!-- cortex_masks_wfselect_surfaces&#45;&gt;cortex_masks_wffill_holes -->
<g id="edge12" class="edge">
<title>cortex_masks_wfselect_surfaces:e&#45;&gt;cortex_masks_wffill_holes:w</title>
<path fill="none" stroke="black" d="M767.5,-577.5C788.62,-577.5 775.76,-548.98 766.5,-530 728.28,-451.64 500.57,-360.43 462.5,-282 453.18,-262.79 440.93,-235.62 451.64,-226.85"/>
<polygon fill="black" stroke="black" points="452.86,-230.14 461.5,-224 450.92,-223.41 452.86,-230.14"/>
</g>
<!-- cortex_masks_wfnative_roi -->
<g id="node8" class="node">
<title>cortex_masks_wfnative_roi</title>
<polygon fill="none" stroke="black" points="725,-106.5 725,-175.5 986,-175.5 986,-106.5 725,-106.5"/>
<text text-anchor="middle" x="774" y="-160.3" font-family="Times,serif" font-size="14.00">IN</text>
<polyline fill="none" stroke="black" points="725,-152.5 823,-152.5 "/>
<text text-anchor="middle" x="774" y="-137.3" font-family="Times,serif" font-size="14.00">metric_file</text>
<polyline fill="none" stroke="black" points="725,-129.5 823,-129.5 "/>
<text text-anchor="middle" x="774" y="-114.3" font-family="Times,serif" font-size="14.00">surface_file</text>
<polyline fill="none" stroke="black" points="823,-106.5 823,-175.5 "/>
<text text-anchor="middle" x="870.5" y="-160.3" font-family="Times,serif" font-size="14.00">native_roi</text>
<polyline fill="none" stroke="black" points="823,-152.5 918,-152.5 "/>
<text text-anchor="middle" x="870.5" y="-137.3" font-family="Times,serif" font-size="14.00">workbench</text>
<polyline fill="none" stroke="black" points="823,-129.5 918,-129.5 "/>
<text text-anchor="middle" x="870.5" y="-114.3" font-family="Times,serif" font-size="14.00"> </text>
<polyline fill="none" stroke="black" points="918,-106.5 918,-175.5 "/>
<text text-anchor="middle" x="952" y="-154.8" font-family="Times,serif" font-size="14.00">OUT</text>
<polyline fill="none" stroke="black" points="918,-141.5 986,-141.5 "/>
<text text-anchor="middle" x="952" y="-120.3" font-family="Times,serif" font-size="14.00">out_file</text>
</g>
<!-- cortex_masks_wfselect_surfaces&#45;&gt;cortex_masks_wfnative_roi -->
<g id="edge13" class="edge">
<title>cortex_masks_wfselect_surfaces:e&#45;&gt;cortex_masks_wfnative_roi:w</title>
<path fill="none" stroke="black" d="M767.5,-577.5C774.26,-577.5 774.73,-446.28 733.5,-212 726.93,-174.66 689.87,-128.17 713.56,-119.45"/>
<polygon fill="black" stroke="black" points="714.11,-122.9 723.5,-118 713.1,-115.98 714.11,-122.9"/>
</g>
<!-- cortex_masks_wfabs_thickness&#45;&gt;cortex_masks_wfinitial_roi -->
<g id="edge1" class="edge">
<title>cortex_masks_wfabs_thickness:e&#45;&gt;cortex_masks_wfinitial_roi:w</title>
<path fill="none" stroke="black" d="M524.5,-442C532.51,-442 529.02,-429.81 523.5,-424 471.3,-369.1 235.64,-443.89 184.5,-388 169.95,-372.1 161.01,-342.25 173.53,-332.89"/>
<polygon fill="black" stroke="black" points="174.87,-336.14 183.5,-330 172.92,-329.42 174.87,-336.14"/>
</g>
<!-- cortex_masks_wfoutputnode -->
<g id="node9" class="node">
<title>cortex_masks_wfoutputnode</title>
<polygon fill="none" stroke="black" points="1000.5,-0.5 1000.5,-69.5 1260.5,-69.5 1260.5,-0.5 1000.5,-0.5"/>
<text text-anchor="middle" x="1057" y="-54.3" font-family="Times,serif" font-size="14.00">IN</text>
<polyline fill="none" stroke="black" points="1000.5,-46.5 1113.5,-46.5 "/>
<text text-anchor="middle" x="1057" y="-31.3" font-family="Times,serif" font-size="14.00">cortex_masks</text>
<polyline fill="none" stroke="black" points="1000.5,-23.5 1113.5,-23.5 "/>
<text text-anchor="middle" x="1057" y="-8.3" font-family="Times,serif" font-size="14.00">source_files</text>
<polyline fill="none" stroke="black" points="1113.5,-0.5 1113.5,-69.5 "/>
<text text-anchor="middle" x="1162.5" y="-54.3" font-family="Times,serif" font-size="14.00">outputnode</text>
<polyline fill="none" stroke="black" points="1113.5,-46.5 1211.5,-46.5 "/>
<text text-anchor="middle" x="1162.5" y="-31.3" font-family="Times,serif" font-size="14.00">utility</text>
<polyline fill="none" stroke="black" points="1113.5,-23.5 1211.5,-23.5 "/>
<text text-anchor="middle" x="1162.5" y="-8.3" font-family="Times,serif" font-size="14.00"> </text>
<polyline fill="none" stroke="black" points="1211.5,-0.5 1211.5,-69.5 "/>
<text text-anchor="middle" x="1236" y="-31.3" font-family="Times,serif" font-size="14.00">OUT</text>
</g>
<!-- cortex_masks_wfcombine_sources&#45;&gt;cortex_masks_wfoutputnode -->
<g id="edge2" class="edge">
<title>cortex_masks_wfcombine_sources:e&#45;&gt;cortex_masks_wfoutputnode:w</title>
<path fill="none" stroke="black" d="M1007.5,-442C1018.37,-442 992.93,-85.79 997.28,-21.79"/>
<polygon fill="black" stroke="black" points="1000.7,-22.53 999.5,-12 993.87,-20.98 1000.7,-22.53"/>
</g>
<!-- cortex_masks_wfinitial_roi&#45;&gt;cortex_masks_wffill_holes -->
<g id="edge4" class="edge">
<title>cortex_masks_wfinitial_roi:e&#45;&gt;cortex_masks_wffill_holes:w</title>
<path fill="none" stroke="black" d="M463.5,-336C498.12,-336 440.33,-267.86 451.85,-250.82"/>
<polygon fill="black" stroke="black" points="453.49,-253.94 461.5,-247 450.91,-247.43 453.49,-253.94"/>
</g>
<!-- cortex_masks_wffill_holes&#45;&gt;cortex_masks_wfnative_roi -->
<g id="edge3" class="edge">
<title>cortex_masks_wffill_holes:e&#45;&gt;cortex_masks_wfnative_roi:w</title>
<path fill="none" stroke="black" d="M725.5,-230C760.12,-230 702.33,-161.86 713.85,-144.82"/>
<polygon fill="black" stroke="black" points="715.49,-147.94 723.5,-141 712.91,-141.43 715.49,-147.94"/>
</g>
<!-- cortex_masks_wfnative_roi&#45;&gt;cortex_masks_wfoutputnode -->
<g id="edge10" class="edge">
<title>cortex_masks_wfnative_roi:e&#45;&gt;cortex_masks_wfoutputnode:w</title>
<path fill="none" stroke="black" d="M987.5,-124C1003.87,-124 988.03,-64.11 992.82,-42.59"/>
<polygon fill="black" stroke="black" points="995.52,-44.82 999.5,-35 990.27,-40.2 995.52,-44.82"/>
</g>
</g>
</svg>
