<?xml version="1.0" encoding="UTF-8" standalone="no"?>
<!DOCTYPE svg PUBLIC "-//W3C//DTD SVG 1.1//EN"
 "http://www.w3.org/Graphics/SVG/1.1/DTD/svg11.dtd">
<!-- Generated by graphviz version 2.43.0 (0)
 -->
<!-- Title: %3 Pages: 1 -->
<svg width="377pt" height="404pt"
 viewBox="0.00 0.00 377.18 404.00" xmlns="http://www.w3.org/2000/svg" xmlns:xlink="http://www.w3.org/1999/xlink">
<g id="graph0" class="graph" transform="scale(1 1) rotate(0) translate(4 400)">
<title>%3</title>
<polygon fill="white" stroke="transparent" points="-4,4 -4,-400 373.18,-400 373.18,4 -4,4"/>
<!-- inputnode (utility) -->
<g id="node1" class="node">
<title>inputnode (utility)</title>
<ellipse fill="none" stroke="black" cx="220.34" cy="-378" rx="94.78" ry="18"/>
<text text-anchor="middle" x="220.34" y="-374.3" font-family="Times,serif" font-size="14.00">inputnode (utility)</text>
</g>
<!-- anat_ref_dimensions (images) -->
<g id="node2" class="node">
<title>anat_ref_dimensions (images)</title>
<ellipse fill="none" stroke="black" cx="220.34" cy="-306" rx="148.67" ry="18"/>
<text text-anchor="middle" x="220.34" y="-302.3" font-family="Times,serif" font-size="14.00">anat_ref_dimensions (images)</text>
</g>
<!-- inputnode (utility)&#45;&gt;anat_ref_dimensions (images) -->
<g id="edge1" class="edge">
<title>inputnode (utility)&#45;&gt;anat_ref_dimensions (images)</title>
<path fill="none" stroke="black" d="M220.34,-359.7C220.34,-351.98 220.34,-342.71 220.34,-334.11"/>
<polygon fill="black" stroke="black" points="223.84,-334.1 220.34,-324.1 216.84,-334.1 223.84,-334.1"/>
</g>
<!-- denoise (ants) -->
<g id="node3" class="node">
<title>denoise (ants)</title>
<ellipse fill="none" stroke="black" cx="116.34" cy="-234" rx="76.09" ry="18"/>
<text text-anchor="middle" x="116.34" y="-230.3" font-family="Times,serif" font-size="14.00">denoise (ants)</text>
</g>
<!-- anat_ref_dimensions (images)&#45;&gt;denoise (ants) -->
<g id="edge2" class="edge">
<title>anat_ref_dimensions (images)&#45;&gt;denoise (ants)</title>
<path fill="none" stroke="black" d="M195.43,-288.23C181.46,-278.83 163.88,-267 148.84,-256.88"/>
<polygon fill="black" stroke="black" points="150.58,-253.83 140.33,-251.15 146.67,-259.64 150.58,-253.83"/>
</g>
<!-- anat_conform (images) -->
<g id="node4" class="node">
<title>anat_conform (images)</title>
<ellipse fill="none" stroke="black" cx="116.34" cy="-162" rx="116.18" ry="18"/>
<text text-anchor="middle" x="116.34" y="-158.3" font-family="Times,serif" font-size="14.00">anat_conform (images)</text>
</g>
<!-- anat_ref_dimensions (images)&#45;&gt;anat_conform (images) -->
<g id="edge3" class="edge">
<title>anat_ref_dimensions (images)&#45;&gt;anat_conform (images)</title>
<path fill="none" stroke="black" d="M220.53,-287.7C219.92,-268.52 216.4,-237.47 201.34,-216 192.08,-202.8 178.38,-192.21 164.67,-184.08"/>
<polygon fill="black" stroke="black" points="166.15,-180.89 155.71,-179.08 162.74,-187 166.15,-180.89"/>
</g>
<!-- outputnode (utility) -->
<g id="node5" class="node">
<title>outputnode (utility)</title>
<ellipse fill="none" stroke="black" cx="188.34" cy="-18" rx="101.28" ry="18"/>
<text text-anchor="middle" x="188.34" y="-14.3" font-family="Times,serif" font-size="14.00">outputnode (utility)</text>
</g>
<!-- anat_ref_dimensions (images)&#45;&gt;outputnode (utility) -->
<g id="edge4" class="edge">
<title>anat_ref_dimensions (images)&#45;&gt;outputnode (utility)</title>
<path fill="none" stroke="black" d="M225.57,-287.61C233.79,-258.09 248.12,-196.27 241.34,-144 237.08,-111.18 235.66,-102.3 222.34,-72 218.16,-62.49 212.4,-52.74 206.81,-44.24"/>
<polygon fill="black" stroke="black" points="209.64,-42.18 201.12,-35.89 203.86,-46.13 209.64,-42.18"/>
</g>
<!-- denoise (ants)&#45;&gt;anat_conform (images) -->
<g id="edge5" class="edge">
<title>denoise (ants)&#45;&gt;anat_conform (images)</title>
<path fill="none" stroke="black" d="M116.34,-215.7C116.34,-207.98 116.34,-198.71 116.34,-190.11"/>
<polygon fill="black" stroke="black" points="119.84,-190.1 116.34,-180.1 112.84,-190.1 119.84,-190.1"/>
</g>
<!-- get1st (utility) -->
<g id="node6" class="node">
<title>get1st (utility)</title>
<ellipse fill="none" stroke="black" cx="135.34" cy="-90" rx="77.99" ry="18"/>
<text text-anchor="middle" x="135.34" y="-86.3" font-family="Times,serif" font-size="14.00">get1st (utility)</text>
</g>
<!-- anat_conform (images)&#45;&gt;get1st (utility) -->
<g id="edge6" class="edge">
<title>anat_conform (images)&#45;&gt;get1st (utility)</title>
<path fill="none" stroke="black" d="M121.04,-143.7C123.15,-135.9 125.7,-126.51 128.06,-117.83"/>
<polygon fill="black" stroke="black" points="131.46,-118.67 130.7,-108.1 124.7,-116.84 131.46,-118.67"/>
</g>
<!-- get1st (utility)&#45;&gt;outputnode (utility) -->
<g id="edge7" class="edge">
<title>get1st (utility)&#45;&gt;outputnode (utility)</title>
<path fill="none" stroke="black" d="M148.17,-72.05C154.46,-63.75 162.15,-53.58 169.13,-44.38"/>
<polygon fill="black" stroke="black" points="172.01,-46.36 175.26,-36.28 166.43,-42.14 172.01,-46.36"/>
</g>
</g>
</svg>
