<?xml version="1.0" encoding="UTF-8" standalone="no"?>
<!DOCTYPE svg PUBLIC "-//W3C//DTD SVG 1.1//EN"
 "http://www.w3.org/Graphics/SVG/1.1/DTD/svg11.dtd">
<!-- Generated by graphviz version 2.43.0 (0)
 -->
<!-- Title: resample_surfaces_wf Pages: 1 -->
<svg width="292pt" height="355pt"
 viewBox="0.00 0.00 292.33 355.00" xmlns="http://www.w3.org/2000/svg" xmlns:xlink="http://www.w3.org/1999/xlink">
<g id="graph0" class="graph" transform="scale(1 1) rotate(0) translate(4 351)">
<title>resample_surfaces_wf</title>
<polygon fill="white" stroke="transparent" points="-4,4 -4,-351 288.33,-351 288.33,4 -4,4"/>
<text text-anchor="middle" x="142.17" y="-7.8" font-family="Times,serif" font-size="14.00">resample_surfaces_wf</text>
<!-- resample_surfaces_wf_inputnode -->
<g id="node1" class="node">
<title>resample_surfaces_wf_inputnode</title>
<ellipse fill="#ffffc8" stroke="black" cx="101.39" cy="-329" rx="94.78" ry="18"/>
<text text-anchor="middle" x="101.39" y="-325.3" font-family="Times,serif" font-size="14.00">inputnode (utility)</text>
</g>
<!-- resample_surfaces_wf_surface_list -->
<g id="node2" class="node">
<title>resample_surfaces_wf_surface_list</title>
<ellipse fill="#ffffc8" stroke="black" cx="101.39" cy="-257" rx="101.28" ry="18"/>
<text text-anchor="middle" x="101.39" y="-253.3" font-family="Times,serif" font-size="14.00">surface_list (utility)</text>
</g>
<!-- resample_surfaces_wf_inputnode&#45;&gt;resample_surfaces_wf_surface_list -->
<g id="edge1" class="edge">
<title>resample_surfaces_wf_inputnode&#45;&gt;resample_surfaces_wf_surface_list</title>
<path fill="none" stroke="black" d="M89.63,-311.05C88,-303.35 87.51,-294.03 88.18,-285.36"/>
<polygon fill="black" stroke="black" points="91.67,-285.66 89.57,-275.28 84.74,-284.71 91.67,-285.66"/>
</g>
<!-- resample_surfaces_wf_inputnode&#45;&gt;resample_surfaces_wf_surface_list -->
<g id="edge2" class="edge">
<title>resample_surfaces_wf_inputnode&#45;&gt;resample_surfaces_wf_surface_list</title>
<path fill="none" stroke="black" d="M101.39,-310.7C101.39,-302.98 101.39,-293.71 101.39,-285.11"/>
<polygon fill="black" stroke="black" points="104.89,-285.1 101.39,-275.1 97.89,-285.1 104.89,-285.1"/>
</g>
<!-- resample_surfaces_wf_inputnode&#45;&gt;resample_surfaces_wf_surface_list -->
<g id="edge3" class="edge">
<title>resample_surfaces_wf_inputnode&#45;&gt;resample_surfaces_wf_surface_list</title>
<path fill="none" stroke="black" d="M113.15,-311.05C114.78,-303.35 115.27,-294.03 114.6,-285.36"/>
<polygon fill="black" stroke="black" points="118.04,-284.71 113.22,-275.28 111.11,-285.66 118.04,-284.71"/>
</g>
<!-- resample_surfaces_wf_resampler -->
<g id="node3" class="node">
<title>resample_surfaces_wf_resampler</title>
<ellipse fill="#ffffc8" stroke="black" cx="165.39" cy="-185" rx="118.08" ry="18"/>
<text text-anchor="middle" x="165.39" y="-181.3" font-family="Times,serif" font-size="14.00">resampler (workbench)</text>
</g>
<!-- resample_surfaces_wf_inputnode&#45;&gt;resample_surfaces_wf_resampler -->
<g id="edge4" class="edge">
<title>resample_surfaces_wf_inputnode&#45;&gt;resample_surfaces_wf_resampler</title>
<path fill="none" stroke="black" d="M157.83,-314.44C178.33,-306.5 199.38,-294.12 211.39,-275 224.67,-253.87 208.61,-228.46 191.93,-210.21"/>
<polygon fill="black" stroke="black" points="194.29,-207.62 184.82,-202.86 189.26,-212.49 194.29,-207.62"/>
</g>
<!-- resample_surfaces_wf_surface_list&#45;&gt;resample_surfaces_wf_resampler -->
<g id="edge5" class="edge">
<title>resample_surfaces_wf_surface_list&#45;&gt;resample_surfaces_wf_resampler</title>
<path fill="none" stroke="black" d="M116.88,-239.05C124.63,-230.58 134.15,-220.17 142.7,-210.82"/>
<polygon fill="black" stroke="black" points="145.43,-213.02 149.6,-203.28 140.27,-208.29 145.43,-213.02"/>
</g>
<!-- resample_surfaces_wf_surface_groups -->
<g id="node4" class="node">
<title>resample_surfaces_wf_surface_groups</title>
<ellipse fill="#ffffc8" stroke="black" cx="165.39" cy="-113" rx="118.88" ry="18"/>
<text text-anchor="middle" x="165.39" y="-109.3" font-family="Times,serif" font-size="14.00">surface_groups (utility)</text>
</g>
<!-- resample_surfaces_wf_resampler&#45;&gt;resample_surfaces_wf_surface_groups -->
<g id="edge6" class="edge">
<title>resample_surfaces_wf_resampler&#45;&gt;resample_surfaces_wf_surface_groups</title>
<path fill="none" stroke="black" d="M165.39,-166.7C165.39,-158.98 165.39,-149.71 165.39,-141.11"/>
<polygon fill="black" stroke="black" points="168.89,-141.1 165.39,-131.1 161.89,-141.1 168.89,-141.1"/>
</g>
<!-- resample_surfaces_wf_outputnode -->
<g id="node5" class="node">
<title>resample_surfaces_wf_outputnode</title>
<ellipse fill="#ffffc8" stroke="black" cx="165.39" cy="-41" rx="101.28" ry="18"/>
<text text-anchor="middle" x="165.39" y="-37.3" font-family="Times,serif" font-size="14.00">outputnode (utility)</text>
</g>
<!-- resample_surfaces_wf_surface_groups&#45;&gt;resample_surfaces_wf_outputnode -->
<g id="edge7" class="edge">
<title>resample_surfaces_wf_surface_groups&#45;&gt;resample_surfaces_wf_outputnode</title>
<path fill="none" stroke="black" d="M153.63,-95.05C152,-87.35 151.51,-78.03 152.18,-69.36"/>
<polygon fill="black" stroke="black" points="155.67,-69.66 153.57,-59.28 148.74,-68.71 155.67,-69.66"/>
</g>
<!-- resample_surfaces_wf_surface_groups&#45;&gt;resample_surfaces_wf_outputnode -->
<g id="edge8" class="edge">
<title>resample_surfaces_wf_surface_groups&#45;&gt;resample_surfaces_wf_outputnode</title>
<path fill="none" stroke="black" d="M165.39,-94.7C165.39,-86.98 165.39,-77.71 165.39,-69.11"/>
<polygon fill="black" stroke="black" points="168.89,-69.1 165.39,-59.1 161.89,-69.1 168.89,-69.1"/>
</g>
<!-- resample_surfaces_wf_surface_groups&#45;&gt;resample_surfaces_wf_outputnode -->
<g id="edge9" class="edge">
<title>resample_surfaces_wf_surface_groups&#45;&gt;resample_surfaces_wf_outputnode</title>
<path fill="none" stroke="black" d="M177.15,-95.05C178.78,-87.35 179.27,-78.03 178.6,-69.36"/>
<polygon fill="black" stroke="black" points="182.04,-68.71 177.22,-59.28 175.11,-69.66 182.04,-68.71"/>
</g>
</g>
</svg>
