<?xml version="1.0" encoding="UTF-8" standalone="no"?>
<!DOCTYPE svg PUBLIC "-//W3C//DTD SVG 1.1//EN"
 "http://www.w3.org/Graphics/SVG/1.1/DTD/svg11.dtd">
<!-- Generated by graphviz version 2.43.0 (0)
 -->
<!-- Title: structs Pages: 1 -->
<svg width="1413pt" height="723pt"
 viewBox="0.00 0.00 1413.00 723.00" xmlns="http://www.w3.org/2000/svg" xmlns:xlink="http://www.w3.org/1999/xlink">
<g id="graph0" class="graph" transform="scale(1 1) rotate(0) translate(4 719)">
<title>structs</title>
<polygon fill="white" stroke="transparent" points="-4,4 -4,-719 1409,-719 1409,4 -4,4"/>
<!-- gifti_morphometrics_wfinputnode -->
<g id="node1" class="node">
<title>gifti_morphometrics_wfinputnode</title>
<polygon fill="none" stroke="black" points="0,-645.5 0,-714.5 226,-714.5 226,-645.5 0,-645.5"/>
<text text-anchor="middle" x="17" y="-676.3" font-family="Times,serif" font-size="14.00">IN</text>
<polyline fill="none" stroke="black" points="34,-645.5 34,-714.5 "/>
<text text-anchor="middle" x="78.5" y="-699.3" font-family="Times,serif" font-size="14.00">inputnode</text>
<polyline fill="none" stroke="black" points="34,-691.5 123,-691.5 "/>
<text text-anchor="middle" x="78.5" y="-676.3" font-family="Times,serif" font-size="14.00">utility</text>
<polyline fill="none" stroke="black" points="34,-668.5 123,-668.5 "/>
<text text-anchor="middle" x="78.5" y="-653.3" font-family="Times,serif" font-size="14.00"> </text>
<polyline fill="none" stroke="black" points="123,-645.5 123,-714.5 "/>
<text text-anchor="middle" x="174.5" y="-699.3" font-family="Times,serif" font-size="14.00">OUT</text>
<polyline fill="none" stroke="black" points="123,-691.5 226,-691.5 "/>
<text text-anchor="middle" x="174.5" y="-676.3" font-family="Times,serif" font-size="14.00">subject_id</text>
<polyline fill="none" stroke="black" points="123,-668.5 226,-668.5 "/>
<text text-anchor="middle" x="174.5" y="-653.3" font-family="Times,serif" font-size="14.00">subjects_dir</text>
</g>
<!-- gifti_morphometrics_wfget_surfaces -->
<g id="node2" class="node">
<title>gifti_morphometrics_wfget_surfaces</title>
<polygon fill="none" stroke="black" points="226,-516.5 226,-608.5 520,-608.5 520,-516.5 226,-516.5"/>
<text text-anchor="middle" x="277.5" y="-589.8" font-family="Times,serif" font-size="14.00">IN</text>
<polyline fill="none" stroke="black" points="226,-578.5 329,-578.5 "/>
<text text-anchor="middle" x="277.5" y="-559.3" font-family="Times,serif" font-size="14.00">subject_id</text>
<polyline fill="none" stroke="black" points="226,-547.5 329,-547.5 "/>
<text text-anchor="middle" x="277.5" y="-528.3" font-family="Times,serif" font-size="14.00">subjects_dir</text>
<polyline fill="none" stroke="black" points="329,-516.5 329,-608.5 "/>
<text text-anchor="middle" x="382.5" y="-589.8" font-family="Times,serif" font-size="14.00">get_surfaces</text>
<polyline fill="none" stroke="black" points="329,-578.5 436,-578.5 "/>
<text text-anchor="middle" x="382.5" y="-559.3" font-family="Times,serif" font-size="14.00">patches</text>
<polyline fill="none" stroke="black" points="329,-547.5 436,-547.5 "/>
<text text-anchor="middle" x="382.5" y="-528.3" font-family="Times,serif" font-size="14.00"> </text>
<polyline fill="none" stroke="black" points="436,-516.5 436,-608.5 "/>
<text text-anchor="middle" x="478" y="-593.3" font-family="Times,serif" font-size="14.00">OUT</text>
<polyline fill="none" stroke="black" points="436,-585.5 520,-585.5 "/>
<text text-anchor="middle" x="478" y="-570.3" font-family="Times,serif" font-size="14.00">curv</text>
<polyline fill="none" stroke="black" points="436,-562.5 520,-562.5 "/>
<text text-anchor="middle" x="478" y="-547.3" font-family="Times,serif" font-size="14.00">sulc</text>
<polyline fill="none" stroke="black" points="436,-539.5 520,-539.5 "/>
<text text-anchor="middle" x="478" y="-524.3" font-family="Times,serif" font-size="14.00">thickness</text>
</g>
<!-- gifti_morphometrics_wfinputnode&#45;&gt;gifti_morphometrics_wfget_surfaces -->
<g id="edge4" class="edge">
<title>gifti_morphometrics_wfinputnode:e&#45;&gt;gifti_morphometrics_wfget_surfaces:w</title>
<path fill="none" stroke="black" d="M227,-680C274.34,-680 190.2,-582.66 214.94,-565.93"/>
<polygon fill="black" stroke="black" points="216.1,-569.25 225,-563.5 214.46,-562.45 216.1,-569.25"/>
</g>
<!-- gifti_morphometrics_wfinputnode&#45;&gt;gifti_morphometrics_wfget_surfaces -->
<g id="edge5" class="edge">
<title>gifti_morphometrics_wfinputnode:e&#45;&gt;gifti_morphometrics_wfget_surfaces:w</title>
<path fill="none" stroke="black" d="M227,-657C248.34,-657 226.36,-630.33 226,-609 225.49,-578.86 198.73,-542.13 215.13,-533.42"/>
<polygon fill="black" stroke="black" points="215.85,-536.84 225,-531.5 214.52,-529.97 215.85,-536.84"/>
</g>
<!-- gifti_morphometrics_wfsurfmorph_list -->
<g id="node3" class="node">
<title>gifti_morphometrics_wfsurfmorph_list</title>
<polygon fill="none" stroke="black" points="520.5,-387.5 520.5,-479.5 729.5,-479.5 729.5,-387.5 520.5,-387.5"/>
<text text-anchor="middle" x="540" y="-464.3" font-family="Times,serif" font-size="14.00">IN</text>
<polyline fill="none" stroke="black" points="520.5,-456.5 559.5,-456.5 "/>
<text text-anchor="middle" x="540" y="-441.3" font-family="Times,serif" font-size="14.00">in1</text>
<polyline fill="none" stroke="black" points="520.5,-433.5 559.5,-433.5 "/>
<text text-anchor="middle" x="540" y="-418.3" font-family="Times,serif" font-size="14.00">in2</text>
<polyline fill="none" stroke="black" points="520.5,-410.5 559.5,-410.5 "/>
<text text-anchor="middle" x="540" y="-395.3" font-family="Times,serif" font-size="14.00">in3</text>
<polyline fill="none" stroke="black" points="559.5,-387.5 559.5,-479.5 "/>
<text text-anchor="middle" x="620" y="-460.8" font-family="Times,serif" font-size="14.00">surfmorph_list</text>
<polyline fill="none" stroke="black" points="559.5,-449.5 680.5,-449.5 "/>
<text text-anchor="middle" x="620" y="-430.3" font-family="Times,serif" font-size="14.00">utility</text>
<polyline fill="none" stroke="black" points="559.5,-418.5 680.5,-418.5 "/>
<text text-anchor="middle" x="620" y="-399.3" font-family="Times,serif" font-size="14.00"> </text>
<polyline fill="none" stroke="black" points="680.5,-387.5 680.5,-479.5 "/>
<text text-anchor="middle" x="705" y="-452.8" font-family="Times,serif" font-size="14.00">OUT</text>
<polyline fill="none" stroke="black" points="680.5,-433.5 729.5,-433.5 "/>
<text text-anchor="middle" x="705" y="-406.8" font-family="Times,serif" font-size="14.00">out</text>
</g>
<!-- gifti_morphometrics_wfget_surfaces&#45;&gt;gifti_morphometrics_wfsurfmorph_list -->
<g id="edge1" class="edge">
<title>gifti_morphometrics_wfget_surfaces:e&#45;&gt;gifti_morphometrics_wfsurfmorph_list:w</title>
<path fill="none" stroke="black" d="M521,-574.5C585.02,-574.5 466.46,-438.9 509.08,-423.01"/>
<polygon fill="black" stroke="black" points="509.64,-426.47 519,-421.5 508.59,-419.55 509.64,-426.47"/>
</g>
<!-- gifti_morphometrics_wfget_surfaces&#45;&gt;gifti_morphometrics_wfsurfmorph_list -->
<g id="edge2" class="edge">
<title>gifti_morphometrics_wfget_surfaces:e&#45;&gt;gifti_morphometrics_wfsurfmorph_list:w</title>
<path fill="none" stroke="black" d="M521,-550.5C552.34,-550.5 520.41,-511.33 520,-480 519.58,-448.02 490.89,-408.99 509.1,-400.28"/>
<polygon fill="black" stroke="black" points="509.78,-403.71 519,-398.5 508.54,-396.82 509.78,-403.71"/>
</g>
<!-- gifti_morphometrics_wfget_surfaces&#45;&gt;gifti_morphometrics_wfsurfmorph_list -->
<g id="edge3" class="edge">
<title>gifti_morphometrics_wfget_surfaces:e&#45;&gt;gifti_morphometrics_wfsurfmorph_list:w</title>
<path fill="none" stroke="black" d="M521,-527.5C552.33,-527.5 501.41,-466.94 509.61,-449.91"/>
<polygon fill="black" stroke="black" points="511.43,-452.92 519,-445.5 508.46,-446.58 511.43,-452.92"/>
</g>
<!-- gifti_morphometrics_wfmorphs2gii -->
<g id="node4" class="node">
<title>gifti_morphometrics_wfmorphs2gii</title>
<polygon fill="none" stroke="black" points="730.5,-281.5 730.5,-350.5 1035.5,-350.5 1035.5,-281.5 730.5,-281.5"/>
<text text-anchor="middle" x="790" y="-329.8" font-family="Times,serif" font-size="14.00">IN</text>
<polyline fill="none" stroke="black" points="730.5,-316.5 849.5,-316.5 "/>
<text text-anchor="middle" x="790" y="-295.3" font-family="Times,serif" font-size="14.00">scalarcurv_file</text>
<polyline fill="none" stroke="black" points="849.5,-281.5 849.5,-350.5 "/>
<text text-anchor="middle" x="898.5" y="-335.3" font-family="Times,serif" font-size="14.00">morphs2gii</text>
<polyline fill="none" stroke="black" points="849.5,-327.5 947.5,-327.5 "/>
<text text-anchor="middle" x="898.5" y="-312.3" font-family="Times,serif" font-size="14.00">freesurfer</text>
<polyline fill="none" stroke="black" points="849.5,-304.5 947.5,-304.5 "/>
<text text-anchor="middle" x="898.5" y="-289.3" font-family="Times,serif" font-size="14.00"> </text>
<polyline fill="none" stroke="black" points="947.5,-281.5 947.5,-350.5 "/>
<text text-anchor="middle" x="991.5" y="-329.8" font-family="Times,serif" font-size="14.00">OUT</text>
<polyline fill="none" stroke="black" points="947.5,-316.5 1035.5,-316.5 "/>
<text text-anchor="middle" x="991.5" y="-295.3" font-family="Times,serif" font-size="14.00">converted</text>
</g>
<!-- gifti_morphometrics_wfsurfmorph_list&#45;&gt;gifti_morphometrics_wfmorphs2gii -->
<g id="edge11" class="edge">
<title>gifti_morphometrics_wfsurfmorph_list:e&#45;&gt;gifti_morphometrics_wfmorphs2gii:w</title>
<path fill="none" stroke="black" d="M731,-410.5C776.11,-410.5 696.39,-318.14 719.07,-301.54"/>
<polygon fill="black" stroke="black" points="720.18,-304.87 729,-299 718.44,-298.09 720.18,-304.87"/>
</g>
<!-- gifti_morphometrics_wfmorph_groups -->
<g id="node5" class="node">
<title>gifti_morphometrics_wfmorph_groups</title>
<polygon fill="none" stroke="black" points="911.5,-152.5 911.5,-244.5 1132.5,-244.5 1132.5,-152.5 911.5,-152.5"/>
<text text-anchor="middle" x="938" y="-217.8" font-family="Times,serif" font-size="14.00">IN</text>
<polyline fill="none" stroke="black" points="911.5,-198.5 964.5,-198.5 "/>
<text text-anchor="middle" x="938" y="-171.8" font-family="Times,serif" font-size="14.00">inlist</text>
<polyline fill="none" stroke="black" points="964.5,-152.5 964.5,-244.5 "/>
<text text-anchor="middle" x="1024" y="-225.8" font-family="Times,serif" font-size="14.00">morph_groups</text>
<polyline fill="none" stroke="black" points="964.5,-214.5 1083.5,-214.5 "/>
<text text-anchor="middle" x="1024" y="-195.3" font-family="Times,serif" font-size="14.00">utility</text>
<polyline fill="none" stroke="black" points="964.5,-183.5 1083.5,-183.5 "/>
<text text-anchor="middle" x="1024" y="-164.3" font-family="Times,serif" font-size="14.00"> </text>
<polyline fill="none" stroke="black" points="1083.5,-152.5 1083.5,-244.5 "/>
<text text-anchor="middle" x="1108" y="-229.3" font-family="Times,serif" font-size="14.00">OUT</text>
<polyline fill="none" stroke="black" points="1083.5,-221.5 1132.5,-221.5 "/>
<text text-anchor="middle" x="1108" y="-206.3" font-family="Times,serif" font-size="14.00">out1</text>
<polyline fill="none" stroke="black" points="1083.5,-198.5 1132.5,-198.5 "/>
<text text-anchor="middle" x="1108" y="-183.3" font-family="Times,serif" font-size="14.00">out2</text>
<polyline fill="none" stroke="black" points="1083.5,-175.5 1132.5,-175.5 "/>
<text text-anchor="middle" x="1108" y="-160.3" font-family="Times,serif" font-size="14.00">out3</text>
</g>
<!-- gifti_morphometrics_wfmorphs2gii&#45;&gt;gifti_morphometrics_wfmorph_groups -->
<g id="edge9" class="edge">
<title>gifti_morphometrics_wfmorphs2gii:e&#45;&gt;gifti_morphometrics_wfmorph_groups:w</title>
<path fill="none" stroke="black" d="M1037,-299C1045.01,-299 1040.99,-287.27 1036,-281 999.97,-235.79 946.1,-290.94 911,-245 894.74,-223.71 882.7,-187.08 899.93,-177.73"/>
<polygon fill="black" stroke="black" points="900.99,-181.08 910,-175.5 899.48,-174.24 900.99,-181.08"/>
</g>
<!-- gifti_morphometrics_wfoutputnode -->
<g id="node6" class="node">
<title>gifti_morphometrics_wfoutputnode</title>
<polygon fill="none" stroke="black" points="1133,-0.5 1133,-115.5 1405,-115.5 1405,-0.5 1133,-0.5"/>
<text text-anchor="middle" x="1195.5" y="-100.3" font-family="Times,serif" font-size="14.00">IN</text>
<polyline fill="none" stroke="black" points="1133,-92.5 1258,-92.5 "/>
<text text-anchor="middle" x="1195.5" y="-77.3" font-family="Times,serif" font-size="14.00">curv</text>
<polyline fill="none" stroke="black" points="1133,-69.5 1258,-69.5 "/>
<text text-anchor="middle" x="1195.5" y="-54.3" font-family="Times,serif" font-size="14.00">morphometrics</text>
<polyline fill="none" stroke="black" points="1133,-46.5 1258,-46.5 "/>
<text text-anchor="middle" x="1195.5" y="-31.3" font-family="Times,serif" font-size="14.00">sulc</text>
<polyline fill="none" stroke="black" points="1133,-23.5 1258,-23.5 "/>
<text text-anchor="middle" x="1195.5" y="-8.3" font-family="Times,serif" font-size="14.00">thickness</text>
<polyline fill="none" stroke="black" points="1258,-0.5 1258,-115.5 "/>
<text text-anchor="middle" x="1307" y="-92.8" font-family="Times,serif" font-size="14.00">outputnode</text>
<polyline fill="none" stroke="black" points="1258,-77.5 1356,-77.5 "/>
<text text-anchor="middle" x="1307" y="-54.8" font-family="Times,serif" font-size="14.00">utility</text>
<polyline fill="none" stroke="black" points="1258,-39.5 1356,-39.5 "/>
<text text-anchor="middle" x="1307" y="-16.3" font-family="Times,serif" font-size="14.00"> </text>
<polyline fill="none" stroke="black" points="1356,-0.5 1356,-115.5 "/>
<text text-anchor="middle" x="1380.5" y="-54.3" font-family="Times,serif" font-size="14.00">OUT</text>
</g>
<!-- gifti_morphometrics_wfmorphs2gii&#45;&gt;gifti_morphometrics_wfoutputnode -->
<g id="edge10" class="edge">
<title>gifti_morphometrics_wfmorphs2gii:e&#45;&gt;gifti_morphometrics_wfoutputnode:w</title>
<path fill="none" stroke="black" d="M1037,-299C1089.48,-299 1114.67,-289.8 1142,-245 1163.53,-209.72 1147.05,-193.02 1142,-152 1139.98,-135.63 1135.16,-132.35 1133,-116 1130.26,-95.23 1114.29,-69.92 1122.23,-61.16"/>
<polygon fill="black" stroke="black" points="1123.56,-64.41 1132,-58 1121.41,-57.75 1123.56,-64.41"/>
</g>
<!-- gifti_morphometrics_wfmorph_groups&#45;&gt;gifti_morphometrics_wfoutputnode -->
<g id="edge6" class="edge">
<title>gifti_morphometrics_wfmorph_groups:e&#45;&gt;gifti_morphometrics_wfoutputnode:w</title>
<path fill="none" stroke="black" d="M1134,-210.5C1155,-210.5 1133.21,-137 1133,-116 1132.57,-73.75 1093.47,-21.85 1122.05,-13.24"/>
<polygon fill="black" stroke="black" points="1122.51,-16.71 1132,-12 1121.64,-9.76 1122.51,-16.71"/>
</g>
<!-- gifti_morphometrics_wfmorph_groups&#45;&gt;gifti_morphometrics_wfoutputnode -->
<g id="edge7" class="edge">
<title>gifti_morphometrics_wfmorph_groups:e&#45;&gt;gifti_morphometrics_wfoutputnode:w</title>
<path fill="none" stroke="black" d="M1134,-186.5C1153.51,-186.5 1122.94,-113.46 1125.62,-88.93"/>
<polygon fill="black" stroke="black" points="1128.46,-90.99 1132,-81 1123.01,-86.6 1128.46,-90.99"/>
</g>
<!-- gifti_morphometrics_wfmorph_groups&#45;&gt;gifti_morphometrics_wfoutputnode -->
<g id="edge8" class="edge">
<title>gifti_morphometrics_wfmorph_groups:e&#45;&gt;gifti_morphometrics_wfoutputnode:w</title>
<path fill="none" stroke="black" d="M1134,-163.5C1155.12,-163.5 1133.35,-137.11 1133,-116 1132.47,-84.22 1104.04,-45.42 1122.15,-36.77"/>
<polygon fill="black" stroke="black" points="1122.78,-40.21 1132,-35 1121.54,-33.32 1122.78,-40.21"/>
</g>
</g>
</svg>
