<?xml version="1.0" encoding="UTF-8" standalone="no"?>
<!DOCTYPE svg PUBLIC "-//W3C//DTD SVG 1.1//EN"
 "http://www.w3.org/Graphics/SVG/1.1/DTD/svg11.dtd">
<!-- Generated by graphviz version 2.43.0 (0)
 -->
<!-- Title: %3 Pages: 1 -->
<svg width="315pt" height="404pt"
 viewBox="0.00 0.00 315.28 404.00" xmlns="http://www.w3.org/2000/svg" xmlns:xlink="http://www.w3.org/1999/xlink">
<g id="graph0" class="graph" transform="scale(1 1) rotate(0) translate(4 400)">
<title>%3</title>
<polygon fill="white" stroke="transparent" points="-4,4 -4,-400 311.28,-400 311.28,4 -4,4"/>
<!-- inputnode (utility) -->
<g id="node1" class="node">
<title>inputnode (utility)</title>
<ellipse fill="none" stroke="black" cx="120.24" cy="-378" rx="94.78" ry="18"/>
<text text-anchor="middle" x="120.24" y="-374.3" font-family="Times,serif" font-size="14.00">inputnode (utility)</text>
</g>
<!-- get_surfaces (patches) -->
<g id="node2" class="node">
<title>get_surfaces (patches)</title>
<ellipse fill="none" stroke="black" cx="120.24" cy="-306" rx="115.08" ry="18"/>
<text text-anchor="middle" x="120.24" y="-302.3" font-family="Times,serif" font-size="14.00">get_surfaces (patches)</text>
</g>
<!-- inputnode (utility)&#45;&gt;get_surfaces (patches) -->
<g id="edge1" class="edge">
<title>inputnode (utility)&#45;&gt;get_surfaces (patches)</title>
<path fill="none" stroke="black" d="M120.24,-359.7C120.24,-351.98 120.24,-342.71 120.24,-334.11"/>
<polygon fill="black" stroke="black" points="123.74,-334.1 120.24,-324.1 116.74,-334.1 123.74,-334.1"/>
</g>
<!-- surfmorph_list (utility) -->
<g id="node3" class="node">
<title>surfmorph_list (utility)</title>
<ellipse fill="none" stroke="black" cx="120.24" cy="-234" rx="116.18" ry="18"/>
<text text-anchor="middle" x="120.24" y="-230.3" font-family="Times,serif" font-size="14.00">surfmorph_list (utility)</text>
</g>
<!-- get_surfaces (patches)&#45;&gt;surfmorph_list (utility) -->
<g id="edge2" class="edge">
<title>get_surfaces (patches)&#45;&gt;surfmorph_list (utility)</title>
<path fill="none" stroke="black" d="M120.24,-287.7C120.24,-279.98 120.24,-270.71 120.24,-262.11"/>
<polygon fill="black" stroke="black" points="123.74,-262.1 120.24,-252.1 116.74,-262.1 123.74,-262.1"/>
</g>
<!-- morphs2gii (freesurfer) -->
<g id="node4" class="node">
<title>morphs2gii (freesurfer)</title>
<ellipse fill="none" stroke="black" cx="120.24" cy="-162" rx="120.48" ry="18"/>
<text text-anchor="middle" x="120.24" y="-158.3" font-family="Times,serif" font-size="14.00">morphs2gii (freesurfer)</text>
</g>
<!-- surfmorph_list (utility)&#45;&gt;morphs2gii (freesurfer) -->
<g id="edge3" class="edge">
<title>surfmorph_list (utility)&#45;&gt;morphs2gii (freesurfer)</title>
<path fill="none" stroke="black" d="M120.24,-215.7C120.24,-207.98 120.24,-198.71 120.24,-190.11"/>
<polygon fill="black" stroke="black" points="123.74,-190.1 120.24,-180.1 116.74,-190.1 123.74,-190.1"/>
</g>
<!-- outputnode (utility) -->
<g id="node5" class="node">
<title>outputnode (utility)</title>
<ellipse fill="none" stroke="black" cx="120.24" cy="-18" rx="101.28" ry="18"/>
<text text-anchor="middle" x="120.24" y="-14.3" font-family="Times,serif" font-size="14.00">outputnode (utility)</text>
</g>
<!-- morphs2gii (freesurfer)&#45;&gt;outputnode (utility) -->
<g id="edge4" class="edge">
<title>morphs2gii (freesurfer)&#45;&gt;outputnode (utility)</title>
<path fill="none" stroke="black" d="M96.76,-144.14C85.88,-134.86 74.09,-122.32 68.24,-108 62.19,-93.19 62.19,-86.81 68.24,-72 72.8,-60.83 80.98,-50.75 89.52,-42.45"/>
<polygon fill="black" stroke="black" points="91.98,-44.94 97.03,-35.63 87.27,-39.75 91.98,-44.94"/>
</g>
<!-- morph_groups (utility) -->
<g id="node6" class="node">
<title>morph_groups (utility)</title>
<ellipse fill="none" stroke="black" cx="192.24" cy="-90" rx="115.08" ry="18"/>
<text text-anchor="middle" x="192.24" y="-86.3" font-family="Times,serif" font-size="14.00">morph_groups (utility)</text>
</g>
<!-- morphs2gii (freesurfer)&#45;&gt;morph_groups (utility) -->
<g id="edge5" class="edge">
<title>morphs2gii (freesurfer)&#45;&gt;morph_groups (utility)</title>
<path fill="none" stroke="black" d="M137.67,-144.05C146.62,-135.35 157.69,-124.59 167.51,-115.04"/>
<polygon fill="black" stroke="black" points="169.99,-117.51 174.72,-108.03 165.11,-112.49 169.99,-117.51"/>
</g>
<!-- morph_groups (utility)&#45;&gt;outputnode (utility) -->
<g id="edge6" class="edge">
<title>morph_groups (utility)&#45;&gt;outputnode (utility)</title>
<path fill="none" stroke="black" d="M174.81,-72.05C165.79,-63.28 154.63,-52.43 144.75,-42.83"/>
<polygon fill="black" stroke="black" points="147.12,-40.25 137.51,-35.79 142.24,-45.27 147.12,-40.25"/>
</g>
</g>
</svg>
