<?xml version="1.0" encoding="UTF-8" standalone="no"?>
<!DOCTYPE svg PUBLIC "-//W3C//DTD SVG 1.1//EN"
 "http://www.w3.org/Graphics/SVG/1.1/DTD/svg11.dtd">
<!-- Generated by graphviz version 2.43.0 (0)
 -->
<!-- Title: resample_midthickness_wf Pages: 1 -->
<svg width="245pt" height="211pt"
 viewBox="0.00 0.00 244.58 211.00" xmlns="http://www.w3.org/2000/svg" xmlns:xlink="http://www.w3.org/1999/xlink">
<g id="graph0" class="graph" transform="scale(1 1) rotate(0) translate(4 207)">
<title>resample_midthickness_wf</title>
<polygon fill="white" stroke="transparent" points="-4,4 -4,-207 240.58,-207 240.58,4 -4,4"/>
<text text-anchor="middle" x="118.29" y="-7.8" font-family="Times,serif" font-size="14.00">resample_midthickness_wf</text>
<!-- resample_midthickness_wf_inputnode -->
<g id="node1" class="node">
<title>resample_midthickness_wf_inputnode</title>
<ellipse fill="#ffffc8" stroke="black" cx="118.29" cy="-185" rx="94.78" ry="18"/>
<text text-anchor="middle" x="118.29" y="-181.3" font-family="Times,serif" font-size="14.00">inputnode (utility)</text>
</g>
<!-- resample_midthickness_wf_resampler -->
<g id="node2" class="node">
<title>resample_midthickness_wf_resampler</title>
<ellipse fill="#ffffc8" stroke="black" cx="118.29" cy="-113" rx="118.08" ry="18"/>
<text text-anchor="middle" x="118.29" y="-109.3" font-family="Times,serif" font-size="14.00">resampler (workbench)</text>
</g>
<!-- resample_midthickness_wf_inputnode&#45;&gt;resample_midthickness_wf_resampler -->
<g id="edge1" class="edge">
<title>resample_midthickness_wf_inputnode&#45;&gt;resample_midthickness_wf_resampler</title>
<path fill="none" stroke="black" d="M112.37,-166.7C111.58,-158.98 111.35,-149.71 111.69,-141.11"/>
<polygon fill="black" stroke="black" points="115.19,-141.32 112.39,-131.1 108.2,-140.84 115.19,-141.32"/>
</g>
<!-- resample_midthickness_wf_inputnode&#45;&gt;resample_midthickness_wf_resampler -->
<g id="edge2" class="edge">
<title>resample_midthickness_wf_inputnode&#45;&gt;resample_midthickness_wf_resampler</title>
<path fill="none" stroke="black" d="M124.21,-166.7C125,-158.98 125.23,-149.71 124.88,-141.11"/>
<polygon fill="black" stroke="black" points="128.37,-140.84 124.18,-131.1 121.39,-141.32 128.37,-140.84"/>
</g>
<!-- resample_midthickness_wf_outputnode -->
<g id="node3" class="node">
<title>resample_midthickness_wf_outputnode</title>
<ellipse fill="#ffffc8" stroke="black" cx="118.29" cy="-41" rx="101.28" ry="18"/>
<text text-anchor="middle" x="118.29" y="-37.3" font-family="Times,serif" font-size="14.00">outputnode (utility)</text>
</g>
<!-- resample_midthickness_wf_resampler&#45;&gt;resample_midthickness_wf_outputnode -->
<g id="edge3" class="edge">
<title>resample_midthickness_wf_resampler&#45;&gt;resample_midthickness_wf_outputnode</title>
<path fill="none" stroke="black" d="M118.29,-94.7C118.29,-86.98 118.29,-77.71 118.29,-69.11"/>
<polygon fill="black" stroke="black" points="121.79,-69.1 118.29,-59.1 114.79,-69.1 121.79,-69.1"/>
</g>
</g>
</svg>
