<?xml version="1.0" encoding="UTF-8" standalone="no"?>
<!DOCTYPE svg PUBLIC "-//W3C//DTD SVG 1.1//EN"
 "http://www.w3.org/Graphics/SVG/1.1/DTD/svg11.dtd">
<!-- Generated by graphviz version 2.40.1 (20161225.0304)
 -->
<!-- Title: structs Pages: 1 -->
<svg width="1118pt" height="594pt"
 viewBox="0.00 0.00 1118.00 594.00" xmlns="http://www.w3.org/2000/svg" xmlns:xlink="http://www.w3.org/1999/xlink">
<g id="graph0" class="graph" transform="scale(1 1) rotate(0) translate(4 590)">
<title>structs</title>
<polygon fill="#ffffff" stroke="transparent" points="-4,4 -4,-590 1114,-590 1114,4 -4,4"/>
<!-- anat_template_wfinputnode -->
<g id="node1" class="node">
<title>anat_template_wfinputnode</title>
<polygon fill="none" stroke="#000000" points="0,-516.5 0,-585.5 174,-585.5 174,-516.5 0,-516.5"/>
<text text-anchor="middle" x="17.5" y="-547.3" font-family="Times,serif" font-size="14.00" fill="#000000">IN</text>
<polyline fill="none" stroke="#000000" points="35,-516.5 35,-585.5 "/>
<text text-anchor="middle" x="79.5" y="-570.3" font-family="Times,serif" font-size="14.00" fill="#000000">inputnode</text>
<polyline fill="none" stroke="#000000" points="35,-562.5 124,-562.5 "/>
<text text-anchor="middle" x="79.5" y="-547.3" font-family="Times,serif" font-size="14.00" fill="#000000">utility</text>
<polyline fill="none" stroke="#000000" points="35,-539.5 124,-539.5 "/>
<text text-anchor="middle" x="79.5" y="-524.3" font-family="Times,serif" font-size="14.00" fill="#000000"> </text>
<polyline fill="none" stroke="#000000" points="124,-516.5 124,-585.5 "/>
<text text-anchor="middle" x="149" y="-564.8" font-family="Times,serif" font-size="14.00" fill="#000000">OUT</text>
<polyline fill="none" stroke="#000000" points="124,-551.5 174,-551.5 "/>
<text text-anchor="middle" x="149" y="-530.3" font-family="Times,serif" font-size="14.00" fill="#000000">t1w</text>
</g>
<!-- anat_template_wft1w_ref_dimensions -->
<g id="node2" class="node">
<title>anat_template_wft1w_ref_dimensions</title>
<polygon fill="none" stroke="#000000" points="174,-364.5 174,-479.5 524,-479.5 524,-364.5 174,-364.5"/>
<text text-anchor="middle" x="211" y="-447.3" font-family="Times,serif" font-size="14.00" fill="#000000">IN</text>
<polyline fill="none" stroke="#000000" points="174,-422.5 248,-422.5 "/>
<text text-anchor="middle" x="211" y="-389.8" font-family="Times,serif" font-size="14.00" fill="#000000">t1w_list</text>
<polyline fill="none" stroke="#000000" points="248,-364.5 248,-479.5 "/>
<text text-anchor="middle" x="328" y="-456.8" font-family="Times,serif" font-size="14.00" fill="#000000">t1w_ref_dimensions</text>
<polyline fill="none" stroke="#000000" points="248,-441.5 408,-441.5 "/>
<text text-anchor="middle" x="328" y="-418.8" font-family="Times,serif" font-size="14.00" fill="#000000">images</text>
<polyline fill="none" stroke="#000000" points="248,-403.5 408,-403.5 "/>
<text text-anchor="middle" x="328" y="-380.3" font-family="Times,serif" font-size="14.00" fill="#000000"> </text>
<polyline fill="none" stroke="#000000" points="408,-364.5 408,-479.5 "/>
<text text-anchor="middle" x="466" y="-464.3" font-family="Times,serif" font-size="14.00" fill="#000000">OUT</text>
<polyline fill="none" stroke="#000000" points="408,-456.5 524,-456.5 "/>
<text text-anchor="middle" x="466" y="-441.3" font-family="Times,serif" font-size="14.00" fill="#000000">out_report</text>
<polyline fill="none" stroke="#000000" points="408,-433.5 524,-433.5 "/>
<text text-anchor="middle" x="466" y="-418.3" font-family="Times,serif" font-size="14.00" fill="#000000">t1w_valid_list</text>
<polyline fill="none" stroke="#000000" points="408,-410.5 524,-410.5 "/>
<text text-anchor="middle" x="466" y="-395.3" font-family="Times,serif" font-size="14.00" fill="#000000">target_shape</text>
<polyline fill="none" stroke="#000000" points="408,-387.5 524,-387.5 "/>
<text text-anchor="middle" x="466" y="-372.3" font-family="Times,serif" font-size="14.00" fill="#000000">target_zooms</text>
</g>
<!-- anat_template_wfinputnode&#45;&gt;anat_template_wft1w_ref_dimensions -->
<g id="edge2" class="edge">
<title>anat_template_wfinputnode:e&#45;&gt;anat_template_wft1w_ref_dimensions:w</title>
<path fill="none" stroke="#000000" d="M174,-534C174,-534 174,-435.4704 174,-403.1404"/>
<polygon fill="#000000" stroke="#000000" points="177.5001,-403 174,-393 170.5001,-403 177.5001,-403"/>
</g>
<!-- anat_template_wft1w_conform -->
<g id="node3" class="node">
<title>anat_template_wft1w_conform</title>
<polygon fill="none" stroke="#000000" points="524.5,-235.5 524.5,-327.5 817.5,-327.5 817.5,-235.5 524.5,-235.5"/>
<text text-anchor="middle" x="581" y="-312.3" font-family="Times,serif" font-size="14.00" fill="#000000">IN</text>
<polyline fill="none" stroke="#000000" points="524.5,-304.5 637.5,-304.5 "/>
<text text-anchor="middle" x="581" y="-289.3" font-family="Times,serif" font-size="14.00" fill="#000000">in_file</text>
<polyline fill="none" stroke="#000000" points="524.5,-281.5 637.5,-281.5 "/>
<text text-anchor="middle" x="581" y="-266.3" font-family="Times,serif" font-size="14.00" fill="#000000">target_shape</text>
<polyline fill="none" stroke="#000000" points="524.5,-258.5 637.5,-258.5 "/>
<text text-anchor="middle" x="581" y="-243.3" font-family="Times,serif" font-size="14.00" fill="#000000">target_zooms</text>
<polyline fill="none" stroke="#000000" points="637.5,-235.5 637.5,-327.5 "/>
<text text-anchor="middle" x="692.5" y="-308.8" font-family="Times,serif" font-size="14.00" fill="#000000">t1w_conform</text>
<polyline fill="none" stroke="#000000" points="637.5,-297.5 747.5,-297.5 "/>
<text text-anchor="middle" x="692.5" y="-278.3" font-family="Times,serif" font-size="14.00" fill="#000000">images</text>
<polyline fill="none" stroke="#000000" points="637.5,-266.5 747.5,-266.5 "/>
<text text-anchor="middle" x="692.5" y="-247.3" font-family="Times,serif" font-size="14.00" fill="#000000"> </text>
<polyline fill="none" stroke="#000000" points="747.5,-235.5 747.5,-327.5 "/>
<text text-anchor="middle" x="782.5" y="-300.8" font-family="Times,serif" font-size="14.00" fill="#000000">OUT</text>
<polyline fill="none" stroke="#000000" points="747.5,-281.5 817.5,-281.5 "/>
<text text-anchor="middle" x="782.5" y="-254.8" font-family="Times,serif" font-size="14.00" fill="#000000">out_file</text>
</g>
<!-- anat_template_wft1w_ref_dimensions&#45;&gt;anat_template_wft1w_conform -->
<g id="edge6" class="edge">
<title>anat_template_wft1w_ref_dimensions:e&#45;&gt;anat_template_wft1w_conform:w</title>
<path fill="none" stroke="#000000" d="M524,-422C576.8724,-422 482.9,-311.8664 513.9751,-295.5184"/>
<polygon fill="#000000" stroke="#000000" points="514.8876,-298.905 524,-293.5 513.5059,-292.0427 514.8876,-298.905"/>
</g>
<!-- anat_template_wft1w_ref_dimensions&#45;&gt;anat_template_wft1w_conform -->
<g id="edge7" class="edge">
<title>anat_template_wft1w_ref_dimensions:e&#45;&gt;anat_template_wft1w_conform:w</title>
<path fill="none" stroke="#000000" d="M524,-399C577.2839,-399 482.5801,-288.0093 513.8971,-271.5341"/>
<polygon fill="#000000" stroke="#000000" points="514.8876,-274.905 524,-269.5 513.5059,-268.0427 514.8876,-274.905"/>
</g>
<!-- anat_template_wft1w_ref_dimensions&#45;&gt;anat_template_wft1w_conform -->
<g id="edge8" class="edge">
<title>anat_template_wft1w_ref_dimensions:e&#45;&gt;anat_template_wft1w_conform:w</title>
<path fill="none" stroke="#000000" d="M524,-376C524,-376 524,-287.1901 524,-256.6616"/>
<polygon fill="#000000" stroke="#000000" points="527.5001,-256.5 524,-246.5 520.5001,-256.5 527.5001,-256.5"/>
</g>
<!-- anat_template_wfoutputnode -->
<g id="node5" class="node">
<title>anat_template_wfoutputnode</title>
<polygon fill="none" stroke="#000000" points="846,-.5 846,-92.5 1110,-92.5 1110,-.5 846,-.5"/>
<text text-anchor="middle" x="904" y="-77.3" font-family="Times,serif" font-size="14.00" fill="#000000">IN</text>
<polyline fill="none" stroke="#000000" points="846,-69.5 962,-69.5 "/>
<text text-anchor="middle" x="904" y="-54.3" font-family="Times,serif" font-size="14.00" fill="#000000">out_report</text>
<polyline fill="none" stroke="#000000" points="846,-46.5 962,-46.5 "/>
<text text-anchor="middle" x="904" y="-31.3" font-family="Times,serif" font-size="14.00" fill="#000000">t1w_ref</text>
<polyline fill="none" stroke="#000000" points="846,-23.5 962,-23.5 "/>
<text text-anchor="middle" x="904" y="-8.3" font-family="Times,serif" font-size="14.00" fill="#000000">t1w_valid_list</text>
<polyline fill="none" stroke="#000000" points="962,-.5 962,-92.5 "/>
<text text-anchor="middle" x="1011" y="-73.8" font-family="Times,serif" font-size="14.00" fill="#000000">outputnode</text>
<polyline fill="none" stroke="#000000" points="962,-62.5 1060,-62.5 "/>
<text text-anchor="middle" x="1011" y="-43.3" font-family="Times,serif" font-size="14.00" fill="#000000">utility</text>
<polyline fill="none" stroke="#000000" points="962,-31.5 1060,-31.5 "/>
<text text-anchor="middle" x="1011" y="-12.3" font-family="Times,serif" font-size="14.00" fill="#000000"> </text>
<polyline fill="none" stroke="#000000" points="1060,-.5 1060,-92.5 "/>
<text text-anchor="middle" x="1085" y="-42.8" font-family="Times,serif" font-size="14.00" fill="#000000">OUT</text>
</g>
<!-- anat_template_wft1w_ref_dimensions&#45;&gt;anat_template_wfoutputnode -->
<g id="edge4" class="edge">
<title>anat_template_wft1w_ref_dimensions:e&#45;&gt;anat_template_wfoutputnode:w</title>
<path fill="none" stroke="#000000" d="M524,-445C668.3576,-445 741.2146,-444.1033 827,-328 843.0619,-306.2615 821.2669,-105.1848 838.6777,-65.3422"/>
<polygon fill="#000000" stroke="#000000" points="841.0831,-67.8848 846,-58.5 836.3038,-62.7702 841.0831,-67.8848"/>
</g>
<!-- anat_template_wft1w_ref_dimensions&#45;&gt;anat_template_wfoutputnode -->
<g id="edge5" class="edge">
<title>anat_template_wft1w_ref_dimensions:e&#45;&gt;anat_template_wfoutputnode:w</title>
<path fill="none" stroke="#000000" d="M524,-422C598.1157,-422 799.3579,-387.1626 844,-328 878.5347,-282.2325 844.6249,-256.3338 845,-199 845.0037,-198.4405 845.2587,-60.3691 845.7436,-21.5476"/>
<polygon fill="#000000" stroke="#000000" points="849.2437,-21.5861 846,-11.5 842.2459,-21.4074 849.2437,-21.5861"/>
</g>
<!-- anat_template_wfget1st -->
<g id="node4" class="node">
<title>anat_template_wfget1st</title>
<polygon fill="none" stroke="#000000" points="652.5,-129.5 652.5,-198.5 817.5,-198.5 817.5,-129.5 652.5,-129.5"/>
<text text-anchor="middle" x="679" y="-177.8" font-family="Times,serif" font-size="14.00" fill="#000000">IN</text>
<polyline fill="none" stroke="#000000" points="652.5,-164.5 705.5,-164.5 "/>
<text text-anchor="middle" x="679" y="-143.3" font-family="Times,serif" font-size="14.00" fill="#000000">inlist</text>
<polyline fill="none" stroke="#000000" points="705.5,-129.5 705.5,-198.5 "/>
<text text-anchor="middle" x="736.5" y="-183.3" font-family="Times,serif" font-size="14.00" fill="#000000">get1st</text>
<polyline fill="none" stroke="#000000" points="705.5,-175.5 767.5,-175.5 "/>
<text text-anchor="middle" x="736.5" y="-160.3" font-family="Times,serif" font-size="14.00" fill="#000000">utility</text>
<polyline fill="none" stroke="#000000" points="705.5,-152.5 767.5,-152.5 "/>
<text text-anchor="middle" x="736.5" y="-137.3" font-family="Times,serif" font-size="14.00" fill="#000000"> </text>
<polyline fill="none" stroke="#000000" points="767.5,-129.5 767.5,-198.5 "/>
<text text-anchor="middle" x="792.5" y="-177.8" font-family="Times,serif" font-size="14.00" fill="#000000">OUT</text>
<polyline fill="none" stroke="#000000" points="767.5,-164.5 817.5,-164.5 "/>
<text text-anchor="middle" x="792.5" y="-143.3" font-family="Times,serif" font-size="14.00" fill="#000000">out</text>
</g>
<!-- anat_template_wft1w_conform&#45;&gt;anat_template_wfget1st -->
<g id="edge3" class="edge">
<title>anat_template_wft1w_conform:e&#45;&gt;anat_template_wfget1st:w</title>
<path fill="none" stroke="#000000" d="M818,-258.5C828.4444,-258.5 824.5562,-243.1304 818,-235 770.6118,-176.2333 699.3882,-257.7667 652,-199 640.2129,-184.3826 632.3229,-159.1904 642.1748,-150.2572"/>
<polygon fill="#000000" stroke="#000000" points="643.6093,-153.469 652,-147 641.4066,-146.8246 643.6093,-153.469"/>
</g>
<!-- anat_template_wfget1st&#45;&gt;anat_template_wfoutputnode -->
<g id="edge1" class="edge">
<title>anat_template_wfget1st:e&#45;&gt;anat_template_wfoutputnode:w</title>
<path fill="none" stroke="#000000" d="M818,-147C840.1398,-147 825.8791,-63.9159 837.7813,-40.5485"/>
<polygon fill="#000000" stroke="#000000" points="840.0205,-43.2462 846,-34.5 835.8714,-37.6084 840.0205,-43.2462"/>
</g>
</g>
</svg>
